<?xml version="1.0" encoding="utf-8"?>
<!-- Generator: Adobe Illustrator 22.1.0, SVG Export Plug-In . SVG Version: 6.00 Build 0)  -->
<svg version="1.1" id="Capa_1" xmlns="http://www.w3.org/2000/svg" xmlns:xlink="http://www.w3.org/1999/xlink" x="0px" y="0px"
	 viewBox="0 0 267.6 267.5" style="enable-background:new 0 0 267.6 267.5;" xml:space="preserve">
<style type="text/css">
	.st0{fill:#FFFFFF;}
</style>
<g>
	<g>
		<g>
			<path class="st0" d="M48.6,267.5c-2.2,0-4.3-0.6-6.2-1.9c-3.2-2.1-5.1-5.7-5.1-9.5v-48.3C22.6,190.1,13,168.8,9.6,146.1
				c-1-6.4-1.5-12.9-1.5-19.3C8.1,56.9,64.5,0,133.8,0c69.3,0,125.7,56.9,125.7,126.8s-56.4,126.8-125.7,126.8
				c-12.7,0-25.3-2-37.5-5.8l-43.2,18.9C51.6,267.2,50.1,267.5,48.6,267.5z M133.8,22.6c-56.9,0-103.2,46.7-103.2,104.1
				c0,5.3,0.4,10.7,1.2,15.9c3,19.8,11.7,38.3,25.2,53.5c1.8,2.1,2.9,4.8,2.9,7.6v35.3l31.4-13.8c2.6-1.1,5.5-1.2,8.2-0.3
				c11.2,4,22.7,6,34.3,6c56.9,0,103.2-46.7,103.2-104.1C237,69.4,190.7,22.6,133.8,22.6z"/>
		</g>
	</g>
	<circle class="st0" cx="82.4" cy="126.8" r="16.3"/>
	<circle class="st0" cx="133.8" cy="126.8" r="16.3"/>
	<circle class="st0" cx="185.2" cy="126.8" r="16.3"/>
</g>
</svg>
