<svg width="22" height="22" viewBox="0 0 22 22" fill="none" xmlns="http://www.w3.org/2000/svg">
<path d="M20.7183 0.522838L15.3652 0.5C14.5498 0.500071 13.7457 0.690045 13.0164 1.05487C12.2872 1.41969 11.6529 1.94934 11.1639 2.60184L11.0064 2.81092L10.8489 2.60092C10.3601 1.94874 9.72613 1.41935 8.99722 1.05469C8.26831 0.690028 7.46449 0.500117 6.64946 0.5L1.28172 0.5C1.07435 0.50007 0.875498 0.582506 0.7289 0.729178C0.582302 0.87585 0.499965 1.07475 0.5 1.28212V17.4469C0.499965 17.6542 0.582302 17.8531 0.7289 17.9998C0.875498 18.1465 1.07435 18.2289 1.28172 18.229H6.64985C7.53472 18.2307 8.38555 18.5702 9.02849 19.1781C9.67144 19.7861 10.058 20.6166 10.1091 21.5H11.9056C11.9568 20.6165 12.3435 19.7859 12.9866 19.1779C13.6298 18.5699 14.4808 18.2305 15.3658 18.229L20.7188 18.2518C20.9261 18.2516 21.1248 18.1691 21.2713 18.0225C21.4178 17.8758 21.5 17.677 21.5 17.4697V1.30496C21.5 1.09758 21.4177 0.898687 21.2711 0.752016C21.1245 0.605344 20.9256 0.522907 20.7183 0.522838ZM10.1142 17.7317L9.79841 17.494C8.89232 16.8124 7.78919 16.4439 6.65536 16.444H2.28592V2.285H6.64959C7.10474 2.285 7.55543 2.37467 7.97592 2.5489C8.39641 2.72312 8.77845 2.97848 9.10022 3.30039C9.422 3.62229 9.6772 4.00444 9.85124 4.425C10.0253 4.84556 10.1148 5.29629 10.1146 5.75144L10.1142 17.7317ZM19.7142 16.4664L15.3654 16.4436H15.3545C14.2235 16.4436 13.1232 16.8113 12.2194 17.4914L11.9 17.7317V5.75381C11.8998 5.2984 11.9893 4.84743 12.1635 4.42663C12.3376 4.00584 12.5929 3.62346 12.9148 3.30135C13.2368 2.97923 13.619 2.72369 14.0397 2.5493C14.4604 2.37491 14.9113 2.2851 15.3667 2.285L19.7142 2.30771V16.4664Z" fill="white"/>
</svg>
