<?xml version="1.0" encoding="utf-8"?>
<!-- Generator: Adobe Illustrator 22.1.0, SVG Export Plug-In . SVG Version: 6.00 Build 0)  -->
<svg version="1.1" id="Capa_1" xmlns="http://www.w3.org/2000/svg" xmlns:xlink="http://www.w3.org/1999/xlink" x="0px" y="0px"
	 viewBox="0 0 267.6 267.5" style="enable-background:new 0 0 267.6 267.5;" xml:space="preserve">
<style type="text/css">
	.st0{fill:#FFFFFF;}
</style>
<g>
	<path class="st0" d="M202.6,0H65C29.9,0,1.4,28.5,1.4,63.6v92.6c0,35.1,28.5,63.6,63.6,63.6h57.4v24.9H79.9
		c-6.3,0-11.4,5.1-11.4,11.4s5.1,11.4,11.4,11.4h107.8c6.3,0,11.4-5.1,11.4-11.4s-5.1-11.4-11.4-11.4h-42.5v-24.9h57.4
		c35.1,0,63.6-28.5,63.6-63.6V63.6C266.2,28.5,237.7,0,202.6,0z M243.5,156.2c0,22.5-18.3,40.9-40.9,40.9H65
		c-22.5,0-40.9-18.3-40.9-40.9V63.6c0-22.5,18.3-40.9,40.9-40.9h137.6c22.5,0,40.9,18.3,40.9,40.9V156.2z"/>
	<path class="st0" d="M218.3,93.6h-34.5c-4.4,0-8.4,2.5-10.3,6.5l-16.2,34.3l-32.9-74.8c-1.8-4.1-5.9-6.8-10.4-6.8c0,0-0.1,0-0.1,0
		c-4.5,0-8.6,2.8-10.4,7l-20.7,49.6H49.3c-6.3,0-11.4,5.1-11.4,11.4s5.1,11.4,11.4,11.4h41.2c4.6,0,8.7-2.8,10.5-7l13.4-32.1
		l32.3,73.3c1.8,4.1,5.8,6.7,10.3,6.8c0.1,0,0.1,0,0.2,0c4.4,0,8.4-2.5,10.3-6.5l23.8-50.3h27.3c6.3,0,11.4-5.1,11.4-11.4
		C229.7,98.7,224.6,93.6,218.3,93.6z"/>
</g>
</svg>
