<svg width="16" height="16" viewBox="0 0 16 16" fill="none" xmlns="http://www.w3.org/2000/svg">
<path d="M13.0993 14.0765L13.1228 14.0918L13.1479 14.1043C13.1621 14.1114 13.176 14.1192 13.1984 14.1321C13.2001 14.1331 13.202 14.1342 13.204 14.1354C13.2235 14.1467 13.2565 14.1657 13.2907 14.1829C13.3827 14.2288 13.5025 14.2714 13.6572 14.2714C13.6604 14.2714 13.6639 14.2714 13.6675 14.2714C13.7164 14.2715 13.7972 14.2716 13.8823 14.2574C13.986 14.2401 14.0769 14.2063 14.1665 14.1614L14.1944 14.1475L14.2203 14.1303C14.5069 13.9391 14.7286 13.6225 14.7286 13.1999V4.91423C14.7286 3.15237 13.3048 1.72852 11.5429 1.72852H4.40007C2.63821 1.72852 1.21436 3.15237 1.21436 4.91423V8.85709C1.21436 10.6189 2.63821 12.0428 4.40007 12.0428H9.9663L13.0993 14.0765Z" fill="#63EFFF" stroke="#272727"/>
<path d="M10.4 7.6H8.6V9.4C8.6 9.73 8.33 10 8 10C7.67 10 7.4 9.73 7.4 9.4V7.6H5.6C5.27 7.6 5 7.33 5 7C5 6.67 5.27 6.4 5.6 6.4H7.4V4.6C7.4 4.27 7.67 4 8 4C8.33 4 8.6 4.27 8.6 4.6V6.4H10.4C10.73 6.4 11 6.67 11 7C11 7.33 10.73 7.6 10.4 7.6Z" fill="#272727"/>
</svg>
