<svg width="100%" height="100%" viewBox="0 0 227 80" fill="none" xmlns="http://www.w3.org/2000/svg" preserveAspectRatio="none">
<g clip-path="url(#clip0_72_6205)">
<path d="M209.037 8.67383H161.285C159.511 8.6732 157.786 9.2614 156.38 10.3464C153.917 12.2487 150.231 15.094 150.231 15.094H4.01708C2.95168 15.094 1.92992 15.5176 1.17657 16.2717C0.423226 17.0257 0 18.0483 0 19.1146L0 60.8245C0 61.8908 0.423226 62.9135 1.17657 63.6675C1.92992 64.4215 2.95168 64.8451 4.01708 64.8451H150.49L150.231 64.8902L156.378 69.6362C157.784 70.7217 159.509 71.3105 161.285 71.3105L209.037 71.3121C211.32 71.3121 213.509 70.4044 215.124 68.7886C216.738 67.1729 217.645 64.9815 217.645 62.6965V17.2894C217.645 15.0045 216.738 12.8131 215.124 11.1974C213.51 9.58165 211.32 8.6739 209.037 8.67383Z" fill="url(#paint0_linear_72_6205)"/>
<path d="M180.32 39.8203V71.3006H172.092L177.413 75.8878L177.413 75.885C178.536 76.9723 180.035 77.5827 181.598 77.5885L199.456 77.4384C199.462 78.1331 199.743 78.797 200.238 79.284C200.733 79.7711 201.401 80.0414 202.095 80.0356C202.789 80.0298 203.452 79.7482 203.939 79.2529C204.425 78.7576 204.695 78.0891 204.69 77.3945L209.276 77.3559L209.276 77.3803C209.276 77.7574 209.358 78.13 209.515 78.4726C209.672 78.8152 209.902 79.1198 210.187 79.3655C210.473 79.6112 210.809 79.7923 211.171 79.8964C211.533 80.0005 211.913 80.0252 212.286 79.9687C212.658 79.9122 213.014 79.7759 213.329 79.5691C213.644 79.3622 213.911 79.0898 214.111 78.7704C214.311 78.4509 214.44 78.092 214.489 77.7181C214.538 77.3442 214.505 76.9642 214.394 76.6039C215.756 76.1518 217.045 75.5027 218.22 74.6771C218.456 74.9482 218.745 75.1677 219.07 75.3219C219.395 75.4761 219.748 75.5617 220.107 75.5734C220.466 75.585 220.824 75.5225 221.158 75.3897C221.492 75.2569 221.795 75.0567 222.048 74.8014C222.302 74.5462 222.5 74.2416 222.63 73.9064C222.761 73.5712 222.821 73.2127 222.807 72.8533C222.793 72.4938 222.705 72.1412 222.548 71.8172C222.392 71.4932 222.171 71.205 221.899 70.9703C222.846 69.6013 223.554 68.0813 223.993 66.475C224.122 66.4941 224.252 66.5037 224.382 66.5037C225.064 66.5036 225.72 66.2366 226.209 65.7597C226.697 65.2828 226.981 64.6337 226.998 63.9508C227.016 63.2678 226.766 62.605 226.302 62.1038C225.838 61.6025 225.197 61.3023 224.516 61.2673V56.671C225.186 56.6366 225.817 56.3459 226.279 55.8589C226.741 55.372 226.999 54.7261 226.999 54.0544C226.999 53.3828 226.741 52.7369 226.279 52.25C225.817 51.763 225.186 51.4723 224.516 51.4379V39.8203H180.32Z" fill="#F2F2F2"/>
<path d="M224.515 23.3395V18.7229C224.875 18.7136 225.228 18.6303 225.554 18.4781C225.879 18.3258 226.17 18.1079 226.408 17.838C226.645 17.5681 226.825 17.2521 226.935 16.9096C227.045 16.5671 227.083 16.2056 227.047 15.8477C227.011 15.4898 226.901 15.1431 226.725 14.8295C226.549 14.5159 226.31 14.242 226.024 14.025C225.737 13.808 225.409 13.6525 225.059 13.5683C224.71 13.4842 224.347 13.4731 223.993 13.5358C223.553 11.9228 222.842 10.3966 221.891 9.02275C222.164 8.78974 222.387 8.50254 222.545 8.1792C222.703 7.85585 222.792 7.50336 222.807 7.14384C222.822 6.78433 222.763 6.42557 222.633 6.0901C222.503 5.75463 222.305 5.4497 222.052 5.19447C221.798 4.93923 221.495 4.73921 221.16 4.60696C220.826 4.47471 220.468 4.41309 220.109 4.42597C219.749 4.43886 219.397 4.52596 219.073 4.68183C218.749 4.83769 218.46 5.05893 218.226 5.33167C217.046 4.50126 215.75 3.84896 214.381 3.39569C214.463 3.14534 214.507 2.88386 214.511 2.62029C214.507 1.92757 214.23 1.26433 213.74 0.775643C213.249 0.28696 212.585 0.0126126 211.893 0.0126126C211.201 0.0126126 210.537 0.28696 210.046 0.775643C209.556 1.26433 209.279 1.92757 209.275 2.62029C209.275 2.62867 209.278 2.63643 209.278 2.6447L204.688 2.6061C204.685 1.91844 204.41 1.25991 203.925 0.772956C203.44 0.286001 202.783 0.00976525 202.096 0.00399838C201.409 -0.00176848 200.747 0.263397 200.254 0.74214C199.761 1.22088 199.476 1.87472 199.46 2.56222L181.598 2.41219C180.035 2.41795 178.536 3.02837 177.413 4.11566L177.413 4.11285L172.092 8.70013H180.32V40.1802H224.515V28.5523C225.185 28.5206 225.816 28.2322 226.279 27.7469C226.741 27.2615 226.999 26.6165 226.999 25.9458C226.999 25.275 226.741 24.63 226.279 24.1447C225.816 23.6593 225.185 23.3709 224.515 23.3393V23.3395Z" fill="#666666"/>
<path d="M209.037 8.67383H161.285C159.511 8.6732 157.786 9.2614 156.38 10.3464C153.917 12.2487 150.231 15.094 150.231 15.094H4.01708C2.95168 15.094 1.92992 15.5176 1.17657 16.2717C0.423226 17.0257 0 18.0483 0 19.1146L0 60.8245C0 61.8908 0.423226 62.9135 1.17657 63.6675C1.92992 64.4215 2.95168 64.8451 4.01708 64.8451H150.49L150.231 64.8902L156.378 69.6362C157.784 70.7217 159.509 71.3105 161.285 71.3105L209.037 71.3121C211.32 71.3121 213.509 70.4044 215.124 68.7886C216.738 67.1729 217.645 64.9815 217.645 62.6965V17.2894C217.645 15.0045 216.738 12.8131 215.124 11.1974C213.51 9.58165 211.32 8.6739 209.037 8.67383Z" fill="url(#paint1_linear_72_6205)"/>
<path d="M175.922 51.6588H223.169C224.185 51.6588 225.159 51.255 225.877 50.5361C226.596 49.8172 226.999 48.8421 226.999 47.8255L227 32.1599C227 31.6565 226.901 31.158 226.709 30.6928C226.516 30.2277 226.234 29.8051 225.878 29.4491C225.523 29.0931 225.1 28.8107 224.636 28.618C224.171 28.4253 223.673 28.3262 223.17 28.3262H204.188H175.923C174.907 28.3262 173.933 28.7301 173.214 29.449C172.496 30.1679 172.093 31.1429 172.093 32.1596V47.8252C172.093 48.8419 172.496 49.8169 173.214 50.5358C173.932 51.2548 174.907 51.6587 175.922 51.6588Z" fill="url(#paint2_linear_72_6205)"/>
</g>
<defs>
<linearGradient id="paint0_linear_72_6205" x1="108.822" y1="65.1257" x2="108.822" y2="15.8377" gradientUnits="userSpaceOnUse">
<stop stop-color="#8A9197"/>
<stop offset="0.0817" stop-color="#9FA5AA"/>
<stop offset="0.2127" stop-color="#BBBFC3"/>
<stop offset="0.3451" stop-color="#CED2D5"/>
<stop offset="0.4785" stop-color="#DADDDF"/>
<stop offset="0.6146" stop-color="#DEE1E3"/>
<stop offset="0.7424" stop-color="#D7DADC"/>
<stop offset="0.9298" stop-color="#C4C6CA"/>
<stop offset="1" stop-color="#BBBDC1"/>
</linearGradient>
<linearGradient id="paint1_linear_72_6205" x1="108.822" y1="78.4247" x2="108.822" y2="2.35683" gradientUnits="userSpaceOnUse">
<stop offset="0.1469" stop-color="#8A9197"/>
<stop offset="0.1955" stop-color="#9FA5AA"/>
<stop offset="0.2735" stop-color="#BBBFC3"/>
<stop offset="0.3523" stop-color="#CED2D5"/>
<stop offset="0.4317" stop-color="#DADDDF"/>
<stop offset="0.5127" stop-color="#DEE1E3"/>
<stop offset="0.6744" stop-color="#D7DADC"/>
<stop offset="0.9112" stop-color="#C4C6CA"/>
<stop offset="1" stop-color="#BBBDC1"/>
</linearGradient>
<linearGradient id="paint2_linear_72_6205" x1="245.713" y1="39.9925" x2="199.841" y2="39.9925" gradientUnits="userSpaceOnUse">
<stop stop-color="#9DA2A8"/>
<stop offset="1" stop-color="#9A9FA5"/>
</linearGradient>
<clipPath id="clip0_72_6205">
<rect width="227" height="80" fill="white"/>
</clipPath>
</defs>
</svg>
