<svg width="100%" height="100%" viewBox="0 0 227 80" fill="none" xmlns="http://www.w3.org/2000/svg" preserveAspectRatio="none">
<path d="M209.83 0H17.1701C14.9301 0 13.1143 1.90217 13.1143 4.24862V75.7514C13.1143 78.0978 14.9301 80 17.1701 80H209.83C212.07 80 213.886 78.0978 213.886 75.7514V4.24862C213.886 1.90217 212.07 0 209.83 0Z" fill="url(#paint0_linear_72_6214)"/>
<path d="M13.1143 13.8301H4.05582C2.98015 13.8301 1.94854 14.2777 1.18792 15.0745C0.427308 15.8712 0 16.9519 0 18.0787L0 61.9216C0 63.0484 0.427308 64.1291 1.18792 64.9258C1.94854 65.7226 2.98015 66.1702 4.05582 66.1702H13.1143V13.8301Z" fill="url(#paint1_linear_72_6214)"/>
<path d="M213.886 66.1702H222.944C224.02 66.1702 225.051 65.7226 225.812 64.9258C226.573 64.1291 227 63.0484 227 61.9216V18.0787C227 16.9519 226.573 15.8712 225.812 15.0745C225.051 14.2777 224.02 13.8301 222.944 13.8301H213.886V66.1702Z" fill="url(#paint2_linear_72_6214)"/>
<defs>
<linearGradient id="paint0_linear_72_6214" x1="113.5" y1="80" x2="113.5" y2="0" gradientUnits="userSpaceOnUse">
<stop stop-color="#8A9197"/>
<stop offset="0.0817" stop-color="#9FA5AA"/>
<stop offset="0.2127" stop-color="#BBBFC3"/>
<stop offset="0.3451" stop-color="#CED2D5"/>
<stop offset="0.4785" stop-color="#DADDDF"/>
<stop offset="0.6146" stop-color="#DEE1E3"/>
<stop offset="0.7424" stop-color="#D7DADC"/>
<stop offset="0.9298" stop-color="#C4C6CA"/>
<stop offset="1" stop-color="#BBBDC1"/>
</linearGradient>
<linearGradient id="paint1_linear_72_6214" x1="6.55716" y1="13.6136" x2="6.55716" y2="54.2189" gradientUnits="userSpaceOnUse">
<stop stop-color="#858585"/>
<stop offset="1" stop-color="#5A5E60"/>
</linearGradient>
<linearGradient id="paint2_linear_72_6214" x1="5203.42" y1="1187.79" x2="5203.42" y2="4689.41" gradientUnits="userSpaceOnUse">
<stop stop-color="#858585"/>
<stop offset="1" stop-color="#5A5E60"/>
</linearGradient>
</defs>
</svg>
