<svg width="100%" height="100%" viewBox="0 0 227 80" fill="none" xmlns="http://www.w3.org/2000/svg" preserveAspectRatio="none">
<path d="M222.944 13.69H143.005V9.10418C143.005 6.6896 142.089 4.37392 140.459 2.66655C138.83 0.959188 136.619 0 134.314 0L92.6861 0C90.3811 0 88.1705 0.959188 86.5406 2.66655C84.9107 4.37392 83.995 6.6896 83.995 9.10418V13.69H4.05582C2.98015 13.69 1.94854 14.1376 1.18792 14.9344C0.427308 15.7312 0 16.8118 0 17.9386L0 62.0137C0 63.1405 0.427308 64.2212 1.18792 65.0179C1.94854 65.8147 2.98015 66.2623 4.05582 66.2623H83.995V70.8958C83.995 73.3104 84.9107 75.6261 86.5406 77.3335C88.1705 79.0408 90.3811 80 92.6861 80H134.314C136.619 80 138.83 79.0408 140.459 77.3335C142.089 75.6261 143.005 73.3104 143.005 70.8958V66.2623H222.944C224.02 66.2623 225.051 65.8147 225.812 65.0179C226.573 64.2212 227 63.1405 227 62.0137V17.9386C227 16.8118 226.573 15.7312 225.812 14.9344C225.051 14.1376 224.02 13.69 222.944 13.69Z" fill="url(#paint0_linear_72_6233)"/>
<defs>
<linearGradient id="paint0_linear_72_6233" x1="113.5" y1="80" x2="113.5" y2="0" gradientUnits="userSpaceOnUse">
<stop offset="0.2162" stop-color="#134B9B"/>
<stop offset="0.3462" stop-color="#255EA9"/>
<stop offset="0.479" stop-color="#306AB2"/>
<stop offset="0.6146" stop-color="#346EB5"/>
<stop offset="0.7648" stop-color="#316BB3"/>
<stop offset="0.8734" stop-color="#2862AC"/>
<stop offset="0.9686" stop-color="#1A52A0"/>
<stop offset="1" stop-color="#134B9B"/>
</linearGradient>
</defs>
</svg>
