<svg width="121" height="40" viewBox="0 0 121 40" fill="none" xmlns="http://www.w3.org/2000/svg">
<g clip-path="url(#clip0_141_414)">
<path d="M45.394 8.16548H43.2939V5.32715H50.7577V8.16548H48.6577V17.4922H45.3886V8.16548H45.394Z" fill="white"/>
<path d="M51.3477 5.32715H56.0077C59.1578 5.32715 60.1212 7.27312 60.1212 9.22447C60.1212 10.6436 59.607 11.8209 58.3513 12.3316L60.5379 17.4922H57.166L55.4827 13.1863H54.6222V17.4922H51.3531V5.32715H51.3477ZM54.6168 10.6759C54.8062 10.7081 54.9956 10.7296 55.2013 10.7296C55.9428 10.7296 56.6464 10.2835 56.6464 9.34811C56.6464 8.42351 55.9753 8.06872 55.1309 8.06872H54.6168V10.6759Z" fill="white"/>
<path d="M60.7815 5.32715H64.0506V17.4922H60.7815V5.32715Z" fill="white"/>
<path d="M65.1493 5.32715H68.8839L71.2924 13.1379H71.3249V5.32715H74.3179V17.4922H70.5834L68.1748 9.7029H68.1424V17.4922H65.1493V5.32715Z" fill="white"/>
<path d="M75.4166 5.32715H78.6857V17.4922H75.4166V5.32715Z" fill="white"/>
<path d="M81.3 8.16548H79.2V5.32715H86.6637V8.16548H84.5637V17.4922H81.2946V8.16548H81.3Z" fill="white"/>
<path d="M89.4186 12.7079L86.615 5.32715H89.8678L91.0369 9.73516H91.0694L92.2385 5.32715H95.4914L92.6877 12.7079V17.4922H89.4186V12.7079Z" fill="white"/>
<path d="M48.5873 33.1783C44.9068 33.1783 43.4076 30.4099 43.4238 26.8888C43.4401 23.5721 44.7986 20.5994 48.5873 20.5994C52.3706 20.5994 53.7291 23.5721 53.7507 26.8888C53.7615 30.4099 52.2677 33.1783 48.5873 33.1783ZM48.5873 29.9314C49.6535 29.9314 50.3788 29.0068 50.3788 26.8028C50.3788 24.5988 49.6589 23.6742 48.5873 23.6742C47.5156 23.6742 46.7958 24.5988 46.7958 26.8028C46.7958 29.0068 47.521 29.9314 48.5873 29.9314Z" fill="white"/>
<path d="M54.6546 20.8088H58.9196C61.6528 20.8088 63.3577 22.314 63.3577 24.9266C63.3577 27.4907 61.4634 29.0282 58.8492 29.0282H57.9183V32.9739H54.6492V20.8088H54.6546ZM57.9237 26.292H58.3188C59.1794 26.292 59.883 25.9318 59.883 24.9427C59.883 23.8514 59.1252 23.5397 58.2647 23.5397H57.9183V26.292H57.9237Z" fill="white"/>
<path d="M64.0452 20.8088H70.2533V23.6472H67.3089V25.3889H69.8906V28.2272H67.3089V30.1409H70.2857V32.9792H64.0398V20.8088H64.0452Z" fill="white"/>
<path d="M71.2003 20.8088H75.8604C79.0104 20.8088 79.9738 22.7548 79.9738 24.7062C79.9738 26.1253 79.4597 27.3026 78.204 27.8133L80.3906 32.9739H77.0187L75.3354 28.668H74.4748V32.9739H71.2057V20.8088H71.2003ZM74.4694 26.1522C74.6588 26.1845 74.8483 26.206 75.054 26.206C75.7955 26.206 76.4991 25.7598 76.4991 24.8244C76.4991 23.8998 75.8279 23.545 74.9836 23.545H74.4694V26.1522Z" fill="white"/>
<path d="M82.6422 20.8088H87.6974L90.0897 32.9739H86.6853L86.3768 30.9258H83.9683L83.6598 32.9739H80.2554L82.6422 20.8088ZM85.1861 23.1634H85.1536L84.3796 28.1842H85.9601L85.1861 23.1634Z" fill="white"/>
<path d="M91.4806 23.6418H89.3806V20.8035H96.8443V23.6418H94.7443V32.9685H91.4752V23.6418H91.4806Z" fill="white"/>
<path d="M97.364 20.8088H100.633V32.9739H97.364V20.8088Z" fill="white"/>
<path d="M101.732 20.8088H105.466L107.875 28.6196H107.907V20.8088H110.9V32.9739H107.166L104.757 25.1846H104.725V32.9739H101.732V20.8088Z" fill="white"/>
<path d="M116.784 25.7815H121V28.9585C121 31.4689 119.555 33.1783 116.665 33.1783C113.293 33.1783 111.815 30.6141 111.815 26.8727C111.815 23.3678 113.726 20.5994 117.184 20.5994C118.408 20.5994 119.268 20.8198 119.869 21.11V24.4429C119.441 23.9645 118.581 23.5721 117.736 23.5721C116.069 23.5721 115.193 24.9052 115.193 27.0555C115.193 28.937 115.658 30.0981 116.843 30.0981C117.671 30.0981 118.012 29.6734 118.012 29.0391V28.2381H116.789V25.7815H116.784Z" fill="white"/>
<path d="M5.95361 27.6684C6.17011 28.9209 7.88043 29.9315 11.7395 30.5282C11.3985 24.5505 15.7176 25.287 22.2071 21.8304C28.8102 19.7339 34.2551 17.1429 33.2268 11.6705C33.2214 11.6705 33.2214 11.6759 33.216 11.6759C32.9074 10.4825 31.1809 9.52564 27.4517 8.94507C27.7873 14.8851 23.5223 14.1971 17.0978 17.5837C10.8031 19.6963 5.5152 22.368 5.9049 27.7006C5.92655 27.6845 5.93737 27.6791 5.95361 27.6684Z" fill="black"/>
<path d="M17.0979 4.89182C10.8086 6.99906 5.5207 9.67612 5.91039 15.0087C5.91039 15.0141 5.9158 15.041 5.91039 15.0141C6.12689 16.2666 7.88051 17.2396 11.7396 17.8363C11.404 11.8586 15.7231 12.6005 22.218 9.13856C28.3936 7.17645 33.5516 4.77893 33.3459 0H26.6508C25.1407 2.13412 21.6659 2.48354 17.0979 4.89182Z" fill="black"/>
<path d="M5.86169 39.9731C6.04572 35.1781 11.0955 32.6677 17.06 30.6679C23.4845 27.2813 27.7495 27.9747 27.4139 22.0293C31.1431 22.6099 32.8697 23.5721 33.1782 24.7601C33.1836 24.7601 33.1836 24.7547 33.189 24.7547C34.2173 30.2271 28.7725 32.8182 22.1747 34.9147C17.4767 37.4197 13.9154 37.7261 12.4378 39.9731H5.86169Z" fill="black"/>
<path d="M5.19051 39.9731H5.86165C6.04567 35.1781 11.0955 32.6676 17.0599 30.6679C23.4845 27.2813 27.7495 27.9747 27.4139 22.0293C31.143 22.6099 32.8696 23.5721 33.1781 24.7601C33.1835 24.7601 33.1835 24.7547 33.1889 24.7547C34.2173 30.2271 28.7724 32.8182 22.1747 34.9147C17.4767 37.4197 13.9153 37.7261 12.4377 39.9731H33.3405C36.1982 39.9731 38.531 37.6508 38.531 34.8179V5.12834C38.531 4.95632 38.5202 4.78968 38.5039 4.62303C38.2333 2.03736 36.0142 0 33.3405 0C33.5462 4.77893 28.3827 7.17645 22.2126 9.13856C15.7231 12.6005 11.3986 11.8586 11.7395 17.8363C7.88048 17.2396 6.12144 16.2666 5.91036 15.0141C5.91577 15.041 5.91036 15.0087 5.91036 15.0087C5.52067 9.67612 10.8086 6.99906 17.0978 4.89182C21.6659 2.48354 25.1407 2.13412 26.6507 0H5.19051C2.33816 0 0 2.32227 0 5.15522V34.8394C0 35.0114 0.0108248 35.1781 0.0270621 35.3447C0.297683 37.9358 2.51677 39.9731 5.19051 39.9731ZM17.1032 17.5837C23.5278 14.197 27.7928 14.8905 27.4572 8.94503C31.1863 9.5256 32.9129 10.4825 33.2214 11.6758C33.2268 11.6758 33.2268 11.6705 33.2322 11.6705C34.2606 17.1429 28.8157 19.7393 22.2126 21.8304C15.7231 25.2869 11.404 24.5505 11.7449 30.5282C7.88048 29.9261 6.17016 28.9208 5.95366 27.6683C5.93742 27.6791 5.92118 27.6898 5.90495 27.6952C5.52067 22.3626 10.8086 19.6909 17.1032 17.5837Z" fill="white"/>
</g>
<defs>
<clipPath id="clip0_141_414">
<rect width="121" height="40" fill="white"/>
</clipPath>
</defs>
</svg>
