<svg width="390" height="300" viewBox="0 0 390 300" fill="none" xmlns="http://www.w3.org/2000/svg">
  <path
    opacity="0.3"
    d="M174.813 74.7591L144.249 113.032L204.935 148.067L174.813 74.7591ZM177.292 124.895L171.884 121.775V115.924L177.292 119.045V124.895ZM171.884 110.864V90.5022L177.292 93.6228V113.984L171.884 110.864Z"
    fill="#C7C7C7"
  />
  <path
    d="M174.813 74.7591L144.249 113.032L204.935 148.067L174.813 74.7591Z"
    stroke="#CECECE"
    stroke-width="0.4752"
    stroke-miterlimit="10"
  />
  <path
    d="M261.481 149.616L261.665 199.811L98.5461 105.626V7.07246L226.903 81.1773V80.7789L98.4502 6.61507L98.1846 6.46014V105.832L261.746 200.269L262.012 200.424L261.828 149.816L261.481 149.616Z"
    fill="#CECECE"
  />
  <path
    d="M271.404 155.437L271.588 218.328C271.588 220.726 270.843 222.615 269.552 223.493C268.63 224.127 267.479 224.223 266.218 223.788C266.705 222.792 266.97 221.538 266.97 220.077V208.266L266.896 208.222L266.712 152.671L266.505 152.553L266.69 208.104L93.508 108.119V6.37161C93.508 4.99206 94.1277 3.71579 95.2121 2.87478C96.2892 2.03377 97.7204 1.7313 99.0262 2.07066C99.4172 2.16656 99.8008 2.32886 100.162 2.53542L226.904 75.7107V75.4673L100.266 2.34361C100.022 2.20345 99.7639 2.09279 99.491 1.98951C100.834 0.307484 103.216 -0.164664 105.083 0.927174L226.897 71.2548V70.8491L105.267 0.632085C103.209 -0.563036 100.575 -0.0171176 99.1295 1.87884C99.1073 1.87147 99.0926 1.86409 99.0705 1.85671C97.7057 1.5026 96.2081 1.81983 95.072 2.7051C93.9359 3.59037 93.2867 4.91829 93.2867 6.37161V108.001L93.2129 107.957V119.967C93.2129 124.984 96.2745 130.834 100.052 133.01L164.647 170.302V185.876C164.647 188.362 163.924 190.391 162.604 191.593C161.578 192.523 160.228 192.936 158.672 192.788L153.736 192.316C153.662 192.309 153.574 192.36 153.552 192.434C153.522 192.508 153.559 192.596 153.625 192.641L209.265 224.961C209.28 224.968 209.302 224.975 209.324 224.975C209.354 224.975 209.39 224.961 209.405 224.931C209.442 224.887 209.435 224.835 209.398 224.791L204.094 219.147C200.383 215.2 197.985 209.668 197.985 205.049V189.55L259.954 225.329C260.913 225.883 261.858 226.163 262.721 226.163C263.37 226.163 263.99 226.001 264.543 225.684C265.155 225.329 265.657 224.784 266.048 224.097C266.616 224.304 267.162 224.407 267.686 224.407C268.438 224.407 269.132 224.193 269.737 223.773C271.146 222.806 271.92 220.874 271.92 218.314L271.736 155.651L271.404 155.437ZM154.518 192.751L158.657 193.142C160.309 193.305 161.763 192.855 162.854 191.859C164.241 190.597 165.009 188.473 165.009 185.883V170.516L193.315 186.857V202.46C193.315 207.144 195.742 212.751 199.497 216.75L203.975 221.515L154.518 192.751ZM203.953 219.302L208.763 224.422C208.763 224.422 205.104 222.187 205.067 222.15L199.763 216.506C196.067 212.574 193.677 207.063 193.677 202.452V187.056L197.793 189.432V205.064C197.786 209.734 200.206 215.318 203.953 219.302ZM264.381 225.388C263.208 226.06 261.71 225.934 260.139 225.034L193.574 186.606L180.833 179.251L100.236 132.708C96.5622 130.59 93.5744 124.873 93.5744 119.967V108.569L266.623 208.48V220.084C266.631 222.637 265.805 224.562 264.381 225.388Z"
    fill="#CECECE"
  />
  <path
    d="M266.49 272.374L67.8052 157.672C66.7502 157.067 65.7322 156.883 64.8395 157.134C64.0944 157.348 63.4747 157.872 63.0394 158.631C62.6484 158.676 62.2722 158.794 61.9328 158.986C60.7008 159.694 60 161.317 60 163.441V174.257C60 178.233 62.4345 182.873 65.4223 184.599L264.107 299.309C264.867 299.744 265.605 299.966 266.298 299.966C266.822 299.966 267.324 299.84 267.767 299.582C268.29 299.279 268.718 298.8 269.035 298.195C270.799 297.907 271.883 296.129 271.883 293.473V282.666C271.876 278.704 269.456 274.093 266.49 272.374ZM267.575 299.279C266.66 299.803 265.487 299.715 264.262 299.006L65.5846 184.297C62.6853 182.63 60.3394 178.122 60.3394 174.257V163.441C60.3394 161.45 60.9812 159.937 62.1025 159.281C62.4861 159.059 62.9214 158.941 63.3936 158.941C64.028 158.941 64.7141 159.148 65.4149 159.554L264.1 274.263C266.999 275.93 269.345 280.438 269.345 284.304V295.119C269.338 297.118 268.696 298.63 267.575 299.279ZM271.662 293.473C271.662 295.93 270.703 297.597 269.153 297.944C269.508 297.17 269.692 296.21 269.692 295.119V284.304C269.692 280.327 267.257 275.687 264.27 273.961L65.5846 159.259C64.7952 158.801 64.0132 158.587 63.2976 158.609C63.7034 157.967 64.2419 157.517 64.8985 157.333C65.7322 157.097 66.6986 157.274 67.6945 157.849L266.38 272.559C269.286 274.241 271.662 278.771 271.662 282.666V293.473Z"
    fill="#CECECE"
  />
  <path
    opacity="0.3"
    d="M82.5177 191.202L71.3633 184.754V167.189L82.5177 173.637V191.202Z"
    fill="#C7C7C7"
  />
  <path
    d="M82.5176 191.372C82.4881 191.372 82.4512 191.364 82.4291 191.35L71.2672 184.909C71.2082 184.872 71.1787 184.821 71.1787 184.754V167.189C71.1787 167.123 71.2156 167.064 71.2672 167.034C71.3263 166.997 71.3927 166.997 71.4517 167.034L82.6135 173.475C82.6725 173.511 82.702 173.563 82.702 173.629V191.195C82.702 191.261 82.6651 191.32 82.6135 191.35C82.5766 191.372 82.5545 191.372 82.5176 191.372ZM71.5402 184.651L82.3405 190.885V173.74L71.5402 167.506V184.651Z"
    fill="#CECECE"
  />
  <path
    opacity="0.3"
    d="M97.3581 199.76L86.1963 193.327V175.762L97.3581 182.202V199.76Z"
    fill="#C7C7C7"
  />
  <path
    d="M97.3584 199.944C97.3289 199.944 97.292 199.937 97.2699 199.922L86.1081 193.482C86.049 193.445 86.0195 193.393 86.0195 193.327V175.761C86.0195 175.695 86.0564 175.636 86.1081 175.607C86.1671 175.57 86.2335 175.57 86.2925 175.607L97.4543 182.047C97.5133 182.084 97.5428 182.135 97.5428 182.202V199.767C97.5428 199.834 97.506 199.893 97.4543 199.922C97.4174 199.937 97.3879 199.944 97.3584 199.944ZM86.381 193.216L97.1814 199.45V182.305L86.381 176.071V193.216Z"
    fill="#CECECE"
  />
  <path
    opacity="0.3"
    d="M112.195 208.332L101.033 201.884V184.327L112.195 190.774V208.332Z"
    fill="#C7C7C7"
  />
  <path
    d="M112.195 208.509C112.166 208.509 112.129 208.502 112.107 208.487L100.945 202.047C100.886 202.01 100.856 201.958 100.856 201.892V184.327C100.856 184.26 100.893 184.201 100.945 184.172C101.004 184.135 101.07 184.135 101.129 184.172L112.291 190.612C112.35 190.649 112.38 190.701 112.38 190.767V208.332C112.38 208.399 112.343 208.458 112.291 208.487C112.262 208.502 112.225 208.509 112.195 208.509ZM101.218 201.781L112.018 208.015V190.87L101.218 184.636V201.781Z"
    fill="#CECECE"
  />
  <path
    opacity="0.3"
    d="M127.03 216.897L115.868 210.457V192.892L127.03 199.332V216.897Z"
    fill="#C7C7C7"
  />
  <path
    d="M127.03 217.082C127.001 217.082 126.964 217.074 126.942 217.06L115.78 210.619C115.721 210.582 115.691 210.531 115.691 210.464V192.899C115.691 192.833 115.728 192.774 115.78 192.744C115.839 192.707 115.905 192.707 115.964 192.744L127.126 199.184C127.185 199.221 127.215 199.273 127.215 199.339V216.905C127.215 216.971 127.178 217.03 127.126 217.06C127.097 217.074 127.067 217.082 127.03 217.082ZM116.053 210.346L126.853 216.58V199.435L116.053 193.201C116.053 193.209 116.053 210.346 116.053 210.346Z"
    fill="#CECECE"
  />
  <path
    opacity="0.3"
    d="M141.865 225.47L130.711 219.022V201.457L141.865 207.904V225.47Z"
    fill="#C7C7C7"
  />
  <path
    d="M141.865 225.647C141.836 225.647 141.799 225.639 141.777 225.625L130.615 219.184C130.556 219.147 130.526 219.096 130.526 219.029V201.464C130.526 201.398 130.563 201.339 130.615 201.309C130.674 201.272 130.74 201.272 130.799 201.309L141.961 207.749C142.02 207.786 142.05 207.838 142.05 207.904V225.47C142.05 225.536 142.013 225.595 141.961 225.625C141.932 225.632 141.902 225.647 141.865 225.647ZM130.888 218.919L141.688 225.152V208.008L130.888 201.774V218.919Z"
    fill="#CECECE"
  />
  <path
    opacity="0.3"
    d="M156.703 234.035L145.549 227.594V210.029L156.703 216.469V234.035Z"
    fill="#C7C7C7"
  />
  <path
    d="M156.703 234.212C156.674 234.212 156.637 234.204 156.615 234.19L145.453 227.749C145.394 227.712 145.364 227.661 145.364 227.594V210.029C145.364 209.963 145.401 209.904 145.453 209.874C145.512 209.837 145.578 209.837 145.637 209.874L156.799 216.314C156.858 216.351 156.888 216.403 156.888 216.469V234.035C156.888 234.101 156.851 234.16 156.799 234.19C156.77 234.204 156.74 234.212 156.703 234.212ZM145.733 227.484L156.533 233.717V216.573L145.733 210.339V227.484Z"
    fill="#CECECE"
  />
  <path
    opacity="0.3"
    d="M304.21 126.083V118.41L295.246 112.811C294.693 108.783 293.431 104.63 291.617 100.624L297.725 96.5958L293.018 88.4365L286.393 91.5645C283.789 87.9275 280.75 84.6889 277.467 82.1511L277.098 71.6458L270.414 67.7875L270.045 77.8649C266.814 76.6329 263.826 76.3599 261.252 76.9501L254.671 66.1424L249.928 68.8056L255.984 79.901C254.125 81.8191 252.834 84.5561 252.266 87.9939L243.303 83.2355V90.9079L252.266 96.5073C252.819 100.535 254.081 104.689 255.896 108.695L249.787 112.723L254.494 120.882L261.119 117.754C263.723 121.391 266.763 124.629 270.045 127.167L270.414 137.673L277.098 141.531L277.467 131.453C280.698 132.685 283.686 132.958 286.261 132.368L292.841 143.176L297.585 140.513L291.528 129.417C293.387 127.499 294.678 124.762 295.246 121.324L304.21 126.083ZM273.756 121.627C265.59 116.913 258.972 105.493 258.972 96.1237C258.972 86.7545 265.59 82.9773 273.756 87.6914C281.923 92.4055 288.54 103.826 288.54 113.195C288.54 122.571 281.923 126.341 273.756 121.627Z"
    fill="#C7C7C7"
  />
  <path
    d="M273.844 87.5439C269.824 85.22 266.032 84.8512 263.177 86.4963C260.351 88.1267 258.787 91.5497 258.787 96.131C258.787 105.544 265.456 117.053 273.66 121.789C276.028 123.161 278.322 123.848 280.388 123.848C281.089 123.848 281.76 123.766 282.402 123.604C282.439 123.611 282.476 123.626 282.512 123.634L282.527 123.575C283.162 123.405 283.767 123.161 284.335 122.837C287.16 121.206 288.724 117.783 288.724 113.202C288.717 103.789 282.048 92.2801 273.844 87.5439ZM273.844 121.472C265.744 116.795 259.149 105.426 259.149 96.1237C259.149 91.6752 260.646 88.3701 263.354 86.7988C264.468 86.157 265.737 85.8324 267.116 85.8324C267.662 85.8324 268.223 85.884 268.798 85.9873C265.279 87.2267 263.191 90.9817 263.191 96.1753C263.191 105.589 269.86 117.097 278.064 121.834C279.266 122.527 280.454 123.043 281.612 123.39C279.318 123.737 276.648 123.095 273.844 121.472ZM284.15 122.52C283.604 122.837 283.014 123.073 282.402 123.228C281.059 122.911 279.657 122.343 278.241 121.524C270.141 116.846 263.545 105.478 263.545 96.1753C263.545 90.8858 265.751 87.1381 269.447 86.157L269.44 86.1201C270.79 86.4373 272.214 87.0127 273.667 87.8537C281.767 92.5309 288.363 103.899 288.363 113.202C288.363 117.643 286.865 120.956 284.15 122.52Z"
    fill="#CECECE"
  />
  <path
    d="M299.805 112.759C299.259 108.842 298.057 104.799 296.235 100.742L302.35 96.7065L297.474 88.2521H293.003C293.003 88.2521 292.952 88.2595 292.93 88.2669L289.661 89.8087C287.315 86.7988 284.748 84.2094 282.033 82.0994L281.664 71.5794L274.686 67.5514L270.444 67.6031C270.444 67.6031 270.362 67.6031 270.318 67.6178C270.267 67.6473 270.23 67.7064 270.23 67.7654L269.868 77.5919C268.393 77.046 266.962 76.6993 265.582 76.5444L259.097 65.9358V65.9284L254.664 65.9432C254.664 65.9432 254.605 65.9506 254.575 65.9653L249.831 68.6285C249.743 68.6728 249.713 68.7834 249.765 68.872L255.763 79.8567C254.346 81.3617 253.277 83.3462 252.605 85.6774L247.655 83.0511C247.655 83.0511 243.273 83.0585 243.251 83.0585C243.229 83.0585 243.221 83.0659 243.207 83.0659C243.155 83.0954 243.118 83.1544 243.118 83.2208V90.8858C243.118 90.9448 243.148 91.0038 243.199 91.0407L252.096 96.5958C252.642 100.513 253.845 104.556 255.667 108.613L249.691 112.553C249.61 112.605 249.588 112.708 249.632 112.789L254.339 120.948C254.369 121 254.42 121.022 254.479 121.029L259.016 121.147L262.24 119.532C264.579 122.534 267.139 125.124 269.861 127.241L270.222 137.658C270.222 137.717 270.259 137.776 270.311 137.805L276.995 141.664C277.024 141.678 277.046 141.686 277.076 141.686L281.65 141.76L281.982 132.737C283.442 132.892 284.837 132.833 286.157 132.545L292.671 143.242C292.701 143.294 292.76 143.324 292.819 143.331L297.194 143.419L302.203 140.601L296.124 129.462C297.599 127.898 298.706 125.832 299.252 123.619L304.106 126.193C304.136 126.208 304.158 126.216 304.187 126.216H308.761V118.322L299.805 112.759ZM297.275 88.621L301.804 96.4778H297.85L293.321 88.621H297.275ZM281.687 82.2913L281.753 82.3429C284.446 84.4307 286.991 86.998 289.329 89.9784L286.445 91.3432C283.826 87.7136 280.787 84.5118 277.636 82.0626L277.282 71.8819H281.325L281.687 82.2913ZM274.59 67.9203L280.823 71.5204H277.209C277.201 71.513 271.071 67.9646 271.071 67.9646L274.59 67.9203ZM258.898 66.312L265.147 76.5296C263.819 76.4189 262.543 76.4853 261.333 76.7509L254.981 66.3268L258.898 66.312ZM247.567 83.4347L252.509 86.0537C252.362 86.5996 252.236 87.1529 252.133 87.7283L244.033 83.4347H247.567ZM258.942 120.815L255.261 120.734L261.067 117.99C261.384 118.425 261.702 118.853 262.026 119.274L258.942 120.815ZM281.325 141.435L277.282 141.361L277.636 131.712C279.016 132.221 280.351 132.553 281.642 132.715L281.325 141.435ZM297.194 143.058L293.505 143.014L297.666 140.675C297.666 140.675 297.666 140.668 297.673 140.668H301.443L297.194 143.058ZM295.799 129.351L295.711 129.447L301.642 140.314H297.681L291.757 129.454C293.571 127.536 294.826 124.829 295.386 121.605L298.957 123.501C298.411 125.721 297.297 127.802 295.799 129.351ZM304.032 125.78L295.327 121.162C295.276 121.133 295.217 121.133 295.165 121.162C295.113 121.184 295.076 121.236 295.069 121.295C294.53 124.607 293.262 127.374 291.402 129.292C291.351 129.351 291.336 129.432 291.373 129.499L297.349 140.439L292.907 142.933L286.415 132.272C286.386 132.221 286.327 132.184 286.261 132.184C286.246 132.184 286.231 132.184 286.224 132.191C283.605 132.789 280.683 132.479 277.533 131.284C277.482 131.262 277.415 131.269 277.371 131.299C277.319 131.328 277.29 131.38 277.29 131.439L276.936 141.221L270.599 137.562L270.237 127.16C270.237 127.108 270.208 127.057 270.171 127.027C266.991 124.563 263.915 121.324 261.281 117.651C261.229 117.577 261.134 117.555 261.06 117.592L254.582 120.646L250.038 112.774L256.006 108.842C256.08 108.79 256.11 108.702 256.073 108.621C254.221 104.519 253.004 100.432 252.458 96.4852C252.45 96.4335 252.421 96.3893 252.377 96.3597L243.494 90.812V83.538L252.2 88.1562C252.251 88.1857 252.31 88.1857 252.362 88.1562C252.414 88.1341 252.45 88.0824 252.458 88.0234C252.996 84.711 254.265 81.9445 256.124 80.0264C256.176 79.9674 256.191 79.8863 256.154 79.8199L250.178 68.8794L254.619 66.3858L261.111 77.046C261.148 77.1124 261.229 77.1419 261.303 77.1272C263.922 76.5296 266.844 76.8394 269.994 78.0346C270.045 78.0567 270.112 78.0493 270.156 78.0198C270.208 77.9903 270.237 77.9387 270.237 77.8796L270.591 68.0973L276.928 71.7565L277.29 82.1585C277.29 82.2101 277.319 82.2617 277.356 82.2913C280.536 84.7553 283.612 88.0013 286.246 91.6752C286.297 91.7416 286.386 91.7711 286.467 91.7342L292.944 88.68L297.489 96.5516L291.521 100.484C291.447 100.535 291.417 100.624 291.454 100.705C293.306 104.807 294.523 108.894 295.069 112.841C295.076 112.892 295.106 112.937 295.15 112.966L304.032 118.514V125.78ZM295.408 112.708C294.862 108.79 293.66 104.748 291.838 100.69L297.703 96.8245V96.8319H301.517L295.785 100.616L295.851 100.757C297.703 104.858 298.92 108.945 299.466 112.892L299.481 112.973L307.987 118.285H304.328C304.32 118.278 295.408 112.708 295.408 112.708ZM308.429 125.906H304.387V118.647H308.429V125.906Z"
    fill="#CECECE"
  />
  <path
    d="M323.699 80.5429L238.027 30.4363C236.743 29.6912 235.489 29.4846 234.412 29.8388C233.468 30.1486 232.715 30.8642 232.213 31.9192C231.07 31.5282 229.985 31.5872 229.085 32.1036C227.662 32.9298 226.843 34.8111 226.843 37.2751V121.42C226.843 126.046 229.668 131.446 233.143 133.445L318.815 183.552C319.693 184.061 320.556 184.312 321.361 184.312C321.966 184.312 322.541 184.164 323.05 183.869C323.714 183.486 324.245 182.858 324.621 182.062C325.123 182.231 325.603 182.327 326.067 182.327C326.768 182.327 327.417 182.128 327.985 181.737C329.284 180.837 329.999 179.052 329.999 176.713V92.5678C329.999 87.9423 327.174 82.5495 323.699 80.5429ZM322.873 183.559C321.796 184.179 320.424 184.061 318.992 183.242L233.32 133.136C229.941 131.188 227.197 125.928 227.197 121.413V37.2751C227.197 34.9438 227.949 33.1733 229.263 32.4134C230.332 31.7937 231.712 31.9044 233.143 32.7307L318.815 82.8372C322.194 84.7848 324.939 90.0448 324.939 94.5597V178.705C324.939 181.029 324.186 182.807 322.873 183.559ZM329.645 176.713C329.645 178.904 328.967 180.631 327.786 181.442C326.945 182.025 325.905 182.121 324.769 181.737C325.108 180.881 325.3 179.856 325.3 178.698V94.5597C325.3 89.9341 322.475 84.5413 319 82.5347L233.32 32.4208C233.062 32.2733 232.811 32.1552 232.553 32.0519C233.01 31.1077 233.682 30.4511 234.523 30.1781C235.504 29.8535 236.655 30.0527 237.85 30.7462L323.522 80.8527C326.901 82.8003 329.645 88.0603 329.645 92.5678V176.713Z"
    fill="#CECECE"
  />
</svg>
