<svg width="390" height="300" viewBox="0 0 390 300" fill="none" xmlns="http://www.w3.org/2000/svg">
    <g opacity="0.3">
        <path d="M191.995 129.915C191.017 129.915 190.019 130.148 188.919 130.621L179.207 136.278C178.883 136.546 178.315 137.161 178.67 137.926L186.887 155.819C187.009 156.08 187.211 156.324 187.885 156.802C188.358 157.074 188.99 157.283 189.688 157.385L199.814 158.92C200.038 158.951 200.263 158.92 200.425 158.825C200.496 158.786 200.512 158.758 200.512 158.758L190.414 136.94C190.354 136.814 190.37 136.664 190.453 136.554C190.54 136.443 190.682 136.388 190.812 136.408L222.05 141.185C222.207 141.208 222.334 141.331 222.365 141.488C222.393 141.646 222.322 141.804 222.184 141.887L212.681 147.374C211.746 147.914 211.375 148.644 211.695 149.33L213.821 153.839L214.847 153.886L229.154 145.626C229.335 145.52 229.517 145.398 230.022 144.857C230.211 144.589 230.298 144.262 230.239 143.97C230.176 143.836 227.083 136.98 226.787 136.333C226.787 136.329 226.783 136.329 226.783 136.325C226.779 136.317 226.771 136.305 226.767 136.297C226.42 135.552 225.32 134.936 223.963 134.731L192.954 129.986C192.63 129.939 192.315 129.915 191.995 129.915Z" fill="#CDCDCD"/>
    </g>
    <path d="M199.974 159.113C199.911 159.113 199.848 159.109 199.785 159.101L189.659 157.563C188.953 157.456 188.294 157.239 187.797 156.955C187.075 156.447 186.858 156.182 186.728 155.894L178.511 138.001C178.097 137.106 178.783 136.404 179.095 136.143L188.83 130.471C190.341 129.816 191.643 129.611 192.968 129.812L223.977 134.558C225.389 134.775 226.541 135.43 226.912 136.226C227.129 136.692 228.569 139.875 229.523 141.997C230.004 143.058 230.363 143.855 230.383 143.899C230.466 144.269 230.375 144.64 230.15 144.96C229.614 145.536 229.421 145.666 229.227 145.78L214.873 154.068L213.693 154.013L211.524 149.409C211.165 148.632 211.559 147.816 212.581 147.224L222.084 141.737C222.159 141.694 222.198 141.611 222.182 141.524C222.166 141.441 222.099 141.374 222.013 141.362L190.775 136.585C190.7 136.573 190.625 136.605 190.582 136.664C190.538 136.723 190.53 136.802 190.562 136.869L200.7 158.774L200.648 158.853C200.629 158.884 200.589 158.928 200.499 158.983C200.36 159.07 200.171 159.113 199.974 159.113ZM191.994 130.092C191.047 130.092 190.065 130.317 188.988 130.787L179.296 136.435C179.008 136.676 178.531 137.209 178.831 137.859L187.047 155.752C187.154 155.985 187.343 156.21 187.986 156.664C188.432 156.92 189.051 157.117 189.714 157.22L199.84 158.758C200.002 158.782 200.167 158.762 200.289 158.711L190.25 137.019C190.164 136.838 190.187 136.621 190.31 136.455C190.436 136.293 190.633 136.211 190.834 136.238L222.076 141.015C222.305 141.051 222.49 141.228 222.537 141.457C222.581 141.69 222.474 141.922 222.269 142.041L212.766 147.528C211.918 148.017 211.579 148.664 211.851 149.259L213.93 153.67L214.798 153.709L229.062 145.473C229.231 145.374 229.401 145.256 229.89 144.735C230.04 144.518 230.111 144.238 230.064 144.005C230.056 143.997 229.697 143.2 229.216 142.139C228.273 140.053 226.865 136.936 226.632 136.431L226.616 136.404C226.277 135.682 225.231 135.106 223.93 134.905L192.921 130.159C192.609 130.116 192.302 130.092 191.994 130.092Z" fill="#CBCBCB"/>
    <g opacity="0.3">
        <path d="M249.913 142.987L249.865 150.735C249.731 153.259 248.149 155.788 244.729 157.847L213.555 176.619C210.186 178.647 205.733 179.673 200.987 179.673V171.042C200.987 171.042 207.169 171.196 211.342 168.991C219.093 164.904 223.803 161.918 228.762 159.054C232.56 156.861 238.887 153.35 243.171 150.735C246.264 148.845 247.534 148.013 248.765 146.356C249.925 144.802 249.913 142.987 249.913 142.987Z" fill="#CDCDCD"/>
    </g>
    <path d="M273.793 215.529C273.793 215.525 273.793 215.525 273.793 215.522V191.948C273.821 191.696 273.841 191.443 273.845 191.195C273.888 188.114 272.042 185.266 268.634 183.168L267.371 182.473L267.186 182.813L268.44 183.499C271.075 185.124 272.74 187.203 273.273 189.483C273.273 189.487 273.269 189.487 273.269 189.491C272.622 192.812 269.872 196.019 265.533 198.528L219.239 225.257C209.622 230.807 195.035 231.414 186.715 226.614L135.214 196.879C132.22 195.151 130.362 192.891 129.834 190.343C130.323 187.889 131.975 185.455 134.638 183.329L135.802 182.521L135.581 182.201L134.405 183.018C131.648 185.223 129.944 187.751 129.447 190.307C129.447 190.307 129.447 190.311 129.443 190.311C129.443 190.319 129.439 190.331 129.439 190.339C129.396 190.56 129.364 190.777 129.34 190.998C129.34 191.013 129.336 191.029 129.336 191.045C129.317 191.219 129.305 191.392 129.301 191.57H129.289L129.179 215.963C129.179 215.979 129.183 215.999 129.187 216.015C129.218 219.249 131.514 222.2 135.175 224.314L135.368 223.979C131.814 221.928 129.585 219.076 129.573 215.967C129.573 215.951 129.569 215.936 129.565 215.92L129.664 194.244C129.901 194.978 130.248 195.688 130.701 196.37C130.729 196.41 130.757 196.453 130.784 196.493C130.887 196.642 130.993 196.788 131.108 196.934C131.147 196.99 131.19 197.041 131.234 197.096C131.344 197.234 131.463 197.372 131.581 197.506C131.624 197.554 131.664 197.605 131.707 197.652C131.869 197.83 132.039 198.003 132.22 198.173C132.252 198.205 132.287 198.236 132.323 198.268C132.469 198.406 132.622 198.544 132.78 198.678C132.851 198.737 132.922 198.796 132.997 198.855C133.127 198.962 133.261 199.068 133.396 199.171C133.474 199.23 133.553 199.289 133.636 199.348C133.782 199.455 133.932 199.558 134.086 199.66C134.161 199.711 134.232 199.759 134.307 199.81C134.536 199.96 134.772 200.106 135.017 200.248L186.518 229.983C188.905 231.359 191.8 232.298 194.944 232.811C196.829 233.119 198.81 233.268 200.821 233.268C201.093 233.268 201.366 233.249 201.638 233.245V256.901C196.104 257.011 190.778 255.978 186.865 253.718L135.364 223.983L135.171 224.318L186.672 254.053C190.455 256.238 195.528 257.307 200.849 257.307C201.153 257.307 202.695 257.264 203.121 257.24C203.208 257.236 203.295 257.232 203.385 257.224C209.306 256.857 214.959 255.284 219.436 252.7L232.169 245.347L265.872 225.971C270.87 223.087 273.549 219.565 273.754 215.829L273.793 215.529ZM202.028 230.207C208.135 230.026 214.446 228.472 219.432 225.592L265.726 198.863C269.742 196.544 272.428 193.621 273.399 190.544C273.624 193.968 271.462 197.495 267.403 200.354C267.395 200.358 267.391 200.362 267.383 200.366C267.127 200.548 266.863 200.721 266.59 200.899C266.551 200.922 266.511 200.95 266.472 200.978C266.164 201.171 265.853 201.364 265.525 201.55L219.231 228.279C214.296 231.127 208.056 232.665 202.02 232.846V230.207H202.028ZM186.715 229.635L135.214 199.901C134.847 199.688 134.504 199.463 134.169 199.238C134.09 199.183 134.007 199.132 133.932 199.076C133.664 198.887 133.415 198.69 133.171 198.489C133.029 198.37 132.891 198.252 132.757 198.134C132.682 198.067 132.611 197.995 132.536 197.924C131.269 196.721 130.405 195.368 129.983 193.929C129.964 193.865 129.944 193.806 129.928 193.743C129.885 193.585 129.853 193.428 129.822 193.27C129.774 193.029 129.735 192.789 129.715 192.544C129.676 192.146 129.672 191.743 129.699 191.333C130.465 193.617 132.287 195.633 135.021 197.211L186.522 226.945C190.534 229.261 195.985 230.322 201.642 230.207V232.85C196.052 232.965 190.672 231.919 186.715 229.635ZM202.028 233.221C208.135 233.04 214.446 231.493 219.432 228.618L265.726 201.889C266.074 201.688 266.413 201.483 266.74 201.27C266.815 201.222 266.886 201.175 266.957 201.128C267.218 200.958 267.474 200.784 267.722 200.607C267.778 200.567 267.829 200.528 267.884 200.489C268.16 200.287 268.429 200.086 268.685 199.881C268.697 199.873 268.709 199.861 268.72 199.853C271.075 197.972 272.681 195.854 273.407 193.684V215.514C273.206 219.166 270.338 222.851 265.537 225.624L232.083 244.937L219.247 252.313C214.568 255.015 208.715 256.538 202.987 256.846C202.802 256.854 202.62 256.869 202.435 256.877C202.297 256.881 202.162 256.881 202.028 256.885V233.221Z" fill="#D1D1D1"/>
    <path d="M202.339 227.292C201.014 227.292 199.692 227 198.682 226.421C197.668 225.837 197.112 225.048 197.112 224.2C197.112 223.352 197.668 222.563 198.682 221.979C200.698 220.815 203.976 220.815 205.992 221.979C207.005 222.563 207.562 223.352 207.562 224.2C207.562 225.048 207.005 225.837 205.992 226.421C204.986 227 203.66 227.292 202.339 227.292ZM202.339 221.486C201.085 221.486 199.834 221.762 198.879 222.314C197.992 222.827 197.503 223.498 197.503 224.2C197.503 224.902 197.992 225.572 198.879 226.085C200.789 227.186 203.893 227.186 205.802 226.085C206.69 225.572 207.179 224.902 207.179 224.2C207.179 223.498 206.69 222.827 205.802 222.314C204.844 221.758 203.589 221.486 202.339 221.486Z" fill="#D1D1D1"/>
    <path d="M207.185 225.178C207.11 225.178 207.043 225.135 207.012 225.068C206.787 224.598 206.384 224.196 205.816 223.868C203.899 222.764 200.783 222.764 198.866 223.868C198.298 224.196 197.896 224.602 197.671 225.068C197.608 225.202 197.387 225.202 197.32 225.068C196.783 223.951 197.3 222.764 198.673 221.975C200.696 220.807 203.986 220.807 206.01 221.975C207.379 222.764 207.895 223.951 207.363 225.068C207.327 225.139 207.26 225.178 207.185 225.178ZM202.341 221.486C201.083 221.486 199.825 221.762 198.866 222.314C197.829 222.914 197.355 223.719 197.541 224.531C197.809 224.148 198.187 223.817 198.673 223.537C200.696 222.369 203.986 222.369 206.01 223.537C206.495 223.817 206.874 224.152 207.142 224.531C207.327 223.719 206.85 222.914 205.816 222.314C204.858 221.762 203.6 221.486 202.341 221.486Z" fill="#D1D1D1"/>
    <g opacity="0.3">
        <path d="M198.764 223.703C200.736 222.563 203.935 222.563 205.908 223.703C206.547 224.073 206.957 224.519 207.182 224.985C207.651 224.006 207.241 222.914 205.908 222.145C203.935 221.005 200.736 221.005 198.764 222.145C197.431 222.914 197.02 224.006 197.49 224.985C197.719 224.515 198.125 224.07 198.764 223.703Z" fill="#CDCDCD"/>
    </g>
    <path d="M139.304 194.67C137.978 194.67 136.657 194.378 135.647 193.798C134.633 193.215 134.077 192.426 134.077 191.578C134.077 190.729 134.633 189.941 135.647 189.357C137.663 188.193 140.941 188.193 142.957 189.357C143.97 189.941 144.527 190.729 144.527 191.578C144.527 192.426 143.97 193.215 142.957 193.798C141.951 194.382 140.629 194.67 139.304 194.67ZM139.304 188.864C138.049 188.864 136.799 189.14 135.844 189.692C134.957 190.205 134.468 190.875 134.468 191.578C134.468 192.28 134.957 192.95 135.844 193.463C137.754 194.564 140.858 194.564 142.767 193.463C143.655 192.95 144.144 192.28 144.144 191.578C144.144 190.875 143.655 190.205 142.767 189.692C141.813 189.14 140.558 188.864 139.304 188.864Z" fill="#D1D1D1"/>
    <path d="M144.144 192.56C144.069 192.56 144.002 192.516 143.971 192.449C143.746 191.98 143.343 191.577 142.775 191.25C140.858 190.146 137.742 190.146 135.825 191.25C135.257 191.577 134.855 191.984 134.63 192.449C134.567 192.583 134.346 192.583 134.279 192.449C133.742 191.333 134.259 190.146 135.632 189.357C137.651 188.189 140.945 188.189 142.969 189.357C144.337 190.146 144.854 191.333 144.322 192.449C144.286 192.516 144.219 192.56 144.144 192.56ZM139.3 188.864C138.042 188.864 136.783 189.14 135.825 189.692C134.788 190.292 134.314 191.096 134.5 191.909C134.768 191.526 135.146 191.195 135.632 190.915C137.655 189.747 140.945 189.747 142.969 190.915C143.454 191.195 143.833 191.53 144.101 191.909C144.282 191.1 143.809 190.292 142.775 189.692C141.817 189.14 140.559 188.864 139.3 188.864Z" fill="#D1D1D1"/>
    <g opacity="0.3">
        <path d="M135.73 191.08C137.702 189.94 140.901 189.94 142.873 191.08C143.513 191.451 143.923 191.897 144.148 192.363C144.617 191.384 144.207 190.292 142.873 189.522C140.901 188.382 137.702 188.382 135.73 189.522C134.396 190.292 133.986 191.384 134.456 192.363C134.68 191.897 135.091 191.451 135.73 191.08Z" fill="#CDCDCD"/>
    </g>
    <path d="M270.274 190.722C270.266 190.674 270.251 190.627 270.239 190.58C270.219 190.505 270.195 190.43 270.168 190.355C270.148 190.303 270.128 190.256 270.105 190.205C270.069 190.13 270.026 190.055 269.978 189.98C269.947 189.929 269.919 189.881 269.884 189.83C269.817 189.739 269.742 189.649 269.659 189.558C269.608 189.503 269.548 189.447 269.493 189.396C269.442 189.349 269.395 189.305 269.339 189.262C269.272 189.207 269.201 189.152 269.126 189.096C269.071 189.057 269.012 189.021 268.953 188.982C268.886 188.939 268.823 188.887 268.748 188.848C267.986 188.41 267.051 188.134 266.069 188.027C265.418 187.952 264.744 187.952 264.093 188.027C263.111 188.138 262.172 188.41 261.415 188.848C261.336 188.891 261.269 188.943 261.198 188.994C261.146 189.029 261.091 189.061 261.04 189.096C260.965 189.152 260.894 189.207 260.823 189.266C260.772 189.309 260.72 189.353 260.673 189.4C260.614 189.455 260.559 189.507 260.503 189.562C260.417 189.653 260.342 189.747 260.271 189.842C260.239 189.885 260.215 189.933 260.188 189.976C260.14 190.051 260.097 190.13 260.058 190.209C260.034 190.256 260.014 190.303 259.998 190.351C259.967 190.43 259.943 190.505 259.924 190.583C259.912 190.627 259.9 190.674 259.888 190.718C259.868 190.832 259.853 190.946 259.853 191.065C259.853 191.069 259.853 191.073 259.853 191.077C259.853 191.104 259.856 191.132 259.86 191.159C259.864 191.262 259.88 191.368 259.9 191.471C259.908 191.503 259.916 191.534 259.924 191.566C259.955 191.676 259.991 191.787 260.042 191.893C260.05 191.909 260.05 191.921 260.058 191.936C260.058 191.94 260.062 191.94 260.062 191.944C260.31 192.449 260.772 192.911 261.422 193.29C262.432 193.873 263.754 194.161 265.079 194.161C266.405 194.161 267.726 193.869 268.736 193.29C269.387 192.915 269.848 192.453 270.097 191.944C270.097 191.94 270.101 191.94 270.101 191.94C270.109 191.925 270.109 191.913 270.116 191.897C270.164 191.791 270.203 191.684 270.235 191.574C270.243 191.538 270.255 191.507 270.259 191.471C270.278 191.372 270.294 191.274 270.298 191.171C270.298 191.14 270.306 191.108 270.306 191.077C270.306 191.073 270.306 191.073 270.306 191.069C270.306 190.946 270.294 190.832 270.274 190.722ZM268.543 192.95C266.633 194.051 263.529 194.051 261.62 192.95C261.075 192.635 260.681 192.26 260.46 191.858C260.693 191.424 261.071 191.045 261.608 190.737C263.525 189.633 266.641 189.633 268.558 190.737C269.095 191.045 269.474 191.424 269.706 191.858C269.477 192.264 269.087 192.635 268.543 192.95ZM269.907 191.191C269.903 191.25 269.896 191.305 269.884 191.365C269.884 191.372 269.88 191.384 269.876 191.392C269.608 191.013 269.229 190.682 268.748 190.402C267.738 189.818 266.409 189.526 265.079 189.526C263.75 189.526 262.42 189.818 261.411 190.402C260.925 190.682 260.547 191.013 260.282 191.392C260.282 191.384 260.279 191.376 260.275 191.368C260.263 191.305 260.255 191.242 260.251 191.175C260.247 191.14 260.243 191.104 260.243 191.073C260.243 191.033 260.247 190.994 260.251 190.954C260.267 190.733 260.326 190.516 260.436 190.307C260.44 190.299 260.44 190.296 260.444 190.288C260.488 190.209 260.535 190.134 260.59 190.059C260.594 190.055 260.598 190.047 260.602 190.043C260.657 189.968 260.72 189.889 260.791 189.818L260.795 189.814C261.012 189.585 261.288 189.372 261.62 189.179C262.46 188.694 263.529 188.438 264.626 188.378C265.091 188.355 265.556 188.355 266.018 188.406C266.945 188.509 267.829 188.769 268.543 189.179C268.874 189.372 269.15 189.585 269.363 189.81C269.367 189.814 269.367 189.814 269.371 189.818C269.438 189.893 269.501 189.968 269.56 190.043C269.564 190.047 269.568 190.055 269.572 190.059C269.627 190.134 269.675 190.213 269.718 190.288C269.722 190.292 269.722 190.299 269.726 190.303C269.844 190.524 269.903 190.753 269.915 190.99C269.915 191.017 269.923 191.045 269.919 191.069C269.915 191.112 269.911 191.152 269.907 191.191Z" fill="#D1D1D1"/>
    <g opacity="0.3">
        <path d="M261.51 190.568C263.482 189.428 266.681 189.428 268.654 190.568C269.293 190.939 269.703 191.384 269.928 191.85C270.397 190.871 269.987 189.779 268.654 189.01C266.681 187.87 263.482 187.87 261.51 189.01C260.177 189.779 259.766 190.871 260.236 191.85C260.461 191.384 260.871 190.939 261.51 190.568Z" fill="#CDCDCD"/>
    </g>
    <g opacity="0.3">
        <path d="M201.699 215.028C207.924 214.914 214.724 213.277 219.801 210.346L266.096 183.617C271.172 180.686 273.866 176.943 274.064 173.349L273.874 150.474C273.129 153.606 270.285 156.77 265.291 159.736L219.34 186.264C214.231 189.215 207.952 190.939 201.695 191.033V215.028H201.699Z" fill="#CDCDCD"/>
    </g>
    <g opacity="0.3">
        <path d="M201.695 256.913C207.92 256.798 214.405 255.244 219.486 252.309L265.78 225.58C270.857 222.649 273.551 218.906 273.748 215.312L273.634 192.37C272.888 195.502 270.182 199.076 265.78 201.617L219.486 228.346C214.377 231.296 207.999 232.811 201.743 232.91L201.695 256.913Z" fill="#CDCDCD"/>
    </g>
    <g opacity="0.3">
        <path d="M202.02 299.669C208.244 299.554 214.729 298 219.81 295.065L266.104 268.336C271.181 265.405 273.875 261.662 274.072 258.068L273.915 235.268C273.169 238.4 270.502 241.832 266.104 244.373L219.81 271.102C214.702 274.052 208.355 275.709 202.098 275.804L202.02 299.669Z" fill="#CDCDCD"/>
    </g>
    <path d="M274.066 233.896C274.066 233.868 274.058 233.351 274.034 233.123C274.03 233.099 274.03 233.075 274.026 233.052C274.003 232.819 273.967 232.59 273.924 232.361C273.92 232.334 273.908 232.274 273.904 232.267C273.364 229.62 271.435 227.237 268.334 225.45L267.277 224.839L267.084 225.174L268.141 225.789C271.131 227.517 272.993 229.801 273.517 232.33C272.855 235.635 270.113 238.826 265.79 241.319L219.496 268.048C214.687 270.825 208.502 272.443 202.088 272.604C196.187 272.754 190.806 271.618 186.972 269.401L135.471 239.667C132.473 237.935 130.611 235.671 130.09 233.119C130.643 230.33 132.69 227.604 136.007 225.285L136.528 224.977L136.331 224.642L135.798 224.957C131.814 227.738 129.617 231.107 129.554 234.495C129.554 234.523 129.554 234.55 129.554 234.578C129.554 234.649 129.554 234.724 129.554 234.795H129.546L129.55 258.64C129.55 258.656 129.554 258.676 129.558 258.692C129.589 261.926 131.621 264.865 135.281 266.979L186.783 296.714C190.601 298.919 195.721 300 201.086 300C201.413 300 201.741 299.976 202.072 299.968C202.08 299.968 202.084 299.976 202.088 299.976H202.092C202.206 299.972 202.317 299.961 202.427 299.957C203.027 299.937 203.626 299.905 204.23 299.858C204.482 299.838 204.731 299.815 204.979 299.791C205.488 299.744 205.997 299.688 206.506 299.621C206.888 299.57 207.267 299.511 207.65 299.452C208.021 299.393 208.391 299.333 208.758 299.262C209.279 299.164 209.792 299.053 210.301 298.935C210.537 298.88 210.778 298.828 211.015 298.769C211.642 298.615 212.253 298.442 212.861 298.256C212.995 298.217 213.129 298.182 213.263 298.138C213.965 297.917 214.648 297.677 215.318 297.416C215.369 297.397 215.425 297.381 215.476 297.361C216.963 296.781 218.375 296.118 219.685 295.361L265.979 268.632C270.906 265.788 273.853 261.985 274.058 258.195C274.07 258.203 274.066 233.963 274.066 233.896ZM129.944 234.704C129.944 234.519 129.948 234.334 129.96 234.144C129.96 234.14 129.96 234.132 129.96 234.128C130.725 236.412 132.548 238.428 135.281 240.006L186.783 269.741C190.621 271.958 195.946 273.105 201.835 272.999V275.622C196.029 275.733 190.755 274.6 186.976 272.427L135.475 242.692C135.246 242.558 135.025 242.424 134.808 242.286C134.757 242.254 134.713 242.223 134.662 242.187C134.5 242.081 134.339 241.97 134.185 241.86C134.126 241.817 134.07 241.777 134.015 241.734C133.873 241.627 133.731 241.521 133.597 241.414C133.546 241.371 133.494 241.327 133.443 241.288C133.305 241.174 133.171 241.063 133.045 240.945C133.001 240.905 132.962 240.87 132.919 240.83C132.781 240.704 132.65 240.578 132.524 240.448C132.496 240.42 132.465 240.389 132.437 240.361C132.299 240.215 132.165 240.069 132.035 239.923C132.023 239.907 132.007 239.892 131.996 239.88C130.682 238.337 129.976 236.594 129.944 234.767C129.944 234.744 129.948 234.724 129.944 234.704ZM201.899 299.594C196.317 299.708 190.936 298.663 186.98 296.379L135.479 266.644C131.925 264.593 129.96 261.753 129.948 258.644C129.948 258.629 129.944 258.613 129.94 258.597L129.936 237.063C130.102 237.572 130.323 238.073 130.595 238.558C130.603 238.57 130.611 238.586 130.619 238.598C130.725 238.787 130.84 238.972 130.962 239.158C130.978 239.182 130.994 239.209 131.013 239.233C131.14 239.414 131.27 239.596 131.408 239.777C131.42 239.793 131.431 239.809 131.443 239.824C131.751 240.211 132.094 240.59 132.469 240.949C132.504 240.98 132.54 241.016 132.575 241.047C132.725 241.185 132.875 241.323 133.037 241.458C133.096 241.509 133.159 241.56 133.222 241.611C133.364 241.73 133.51 241.844 133.66 241.955C133.731 242.006 133.798 242.061 133.869 242.112C134.027 242.227 134.193 242.341 134.358 242.452C134.421 242.495 134.485 242.538 134.548 242.582C134.784 242.736 135.025 242.882 135.274 243.028L186.775 272.762C186.81 272.782 186.85 272.798 186.885 272.817C190.546 274.896 195.536 276.028 201.058 276.028C201.334 276.028 201.615 276.024 201.891 276.017V299.594H201.899ZM202.293 272.979C208.707 272.79 214.88 271.161 219.697 268.38L265.991 241.651C270.007 239.331 272.689 236.412 273.663 233.336C273.663 233.359 273.663 233.383 273.667 233.407C273.679 233.592 273.679 233.777 273.675 233.967C273.671 234.065 273.667 234.164 273.659 234.263C273.652 234.405 273.64 234.547 273.624 234.689C273.612 234.791 273.596 234.898 273.581 235C273.561 235.138 273.537 235.272 273.506 235.41C273.482 235.517 273.458 235.623 273.431 235.73C273.395 235.864 273.36 235.998 273.32 236.132C273.289 236.239 273.253 236.345 273.218 236.452C273.17 236.586 273.123 236.72 273.072 236.85C273.028 236.957 272.985 237.063 272.938 237.17C272.878 237.304 272.819 237.434 272.752 237.564C272.701 237.671 272.646 237.777 272.59 237.88C272.519 238.01 272.445 238.14 272.37 238.27C272.306 238.377 272.243 238.479 272.18 238.586C272.097 238.716 272.011 238.842 271.924 238.972C271.853 239.075 271.782 239.181 271.707 239.284C271.616 239.41 271.518 239.537 271.419 239.663C271.336 239.765 271.257 239.868 271.174 239.97C271.072 240.093 270.961 240.219 270.851 240.341C270.76 240.444 270.673 240.542 270.579 240.645C270.464 240.767 270.342 240.886 270.224 241.008C270.125 241.106 270.026 241.209 269.92 241.308C269.794 241.426 269.664 241.544 269.533 241.663C269.427 241.761 269.32 241.856 269.206 241.955C269.068 242.073 268.922 242.191 268.776 242.306C268.662 242.396 268.551 242.491 268.437 242.582C268.279 242.704 268.117 242.822 267.952 242.941C267.837 243.024 267.727 243.11 267.608 243.193C267.423 243.323 267.226 243.45 267.032 243.58C266.93 243.647 266.831 243.718 266.725 243.785C266.421 243.978 266.109 244.168 265.79 244.353L219.496 271.082C214.805 273.784 208.549 275.425 202.285 275.614V272.979H202.293ZM273.671 258.183C273.47 261.836 270.602 265.52 265.802 268.293L219.507 295.022C216.766 296.604 213.61 297.771 210.32 298.54C209.981 298.619 209.646 298.706 209.303 298.777C209.2 298.797 209.094 298.813 208.991 298.832C206.821 299.254 204.573 299.515 202.289 299.582V276.001C208.703 275.811 214.88 274.182 219.697 271.401L265.991 244.672C266.334 244.475 266.67 244.27 266.993 244.061C267.103 243.99 267.21 243.915 267.316 243.844C267.526 243.706 267.731 243.568 267.932 243.426C268.054 243.339 268.172 243.248 268.295 243.162C268.472 243.031 268.646 242.901 268.811 242.767C268.934 242.673 269.048 242.574 269.167 242.479C269.324 242.349 269.478 242.219 269.632 242.085C269.746 241.986 269.857 241.888 269.967 241.785C270.113 241.651 270.255 241.513 270.393 241.379C270.496 241.28 270.598 241.181 270.693 241.079C270.835 240.933 270.969 240.787 271.099 240.637C271.182 240.542 271.269 240.452 271.352 240.357C271.506 240.176 271.648 239.994 271.79 239.813C271.841 239.75 271.892 239.686 271.944 239.623C272.129 239.379 272.299 239.13 272.46 238.878C272.504 238.807 272.543 238.736 272.587 238.669C272.701 238.487 272.807 238.302 272.91 238.116C272.961 238.022 273.005 237.927 273.052 237.832C273.135 237.671 273.214 237.505 273.289 237.339C273.332 237.237 273.372 237.138 273.415 237.036C273.478 236.878 273.541 236.716 273.596 236.554C273.624 236.472 273.652 236.389 273.679 236.306L273.687 258.175L273.671 258.183Z" fill="#D1D1D1"/>
    <path d="M202.337 269.788C201.012 269.788 199.69 269.496 198.68 268.916C197.667 268.332 197.11 267.543 197.11 266.695C197.11 265.847 197.667 265.058 198.68 264.475C200.696 263.311 203.974 263.311 205.99 264.475C207.003 265.058 207.56 265.847 207.56 266.695C207.56 267.543 207.003 268.332 205.99 268.916C204.984 269.496 203.658 269.788 202.337 269.788ZM202.337 263.981C201.083 263.981 199.832 264.258 198.878 264.81C197.99 265.323 197.501 265.993 197.501 266.695C197.501 267.398 197.99 268.068 198.878 268.581C200.787 269.681 203.891 269.681 205.8 268.581C206.688 268.068 207.177 267.398 207.177 266.695C207.177 265.993 206.688 265.323 205.8 264.81C204.842 264.258 203.587 263.981 202.337 263.981Z" fill="#D1D1D1"/>
    <path d="M207.183 267.678C207.108 267.678 207.041 267.634 207.01 267.567C206.785 267.098 206.383 266.695 205.814 266.368C203.897 265.263 200.781 265.263 198.864 266.368C198.296 266.695 197.894 267.102 197.669 267.567C197.606 267.701 197.385 267.701 197.318 267.567C196.781 266.451 197.298 265.263 198.671 264.475C200.69 263.307 203.984 263.307 206.008 264.475C207.377 265.263 207.893 266.451 207.361 267.567C207.325 267.634 207.258 267.678 207.183 267.678ZM202.339 263.981C201.081 263.981 199.823 264.258 198.864 264.81C197.827 265.409 197.353 266.214 197.539 267.027C197.807 266.644 198.186 266.313 198.671 266.033C200.694 264.865 203.984 264.865 206.008 266.033C206.493 266.313 206.872 266.648 207.14 267.027C207.321 266.218 206.848 265.409 205.814 264.81C204.856 264.258 203.598 263.981 202.339 263.981Z" fill="#D1D1D1"/>
    <g opacity="0.3">
        <path d="M198.764 266.198C200.736 265.058 203.935 265.058 205.908 266.198C206.547 266.569 206.957 267.015 207.182 267.48C207.651 266.502 207.241 265.409 205.908 264.64C203.935 263.5 200.736 263.5 198.764 264.64C197.431 265.409 197.02 266.502 197.49 267.48C197.719 267.015 198.125 266.569 198.764 266.198Z" fill="#CDCDCD"/>
    </g>
    <path d="M139.304 237.335C137.978 237.335 136.657 237.044 135.647 236.464C134.633 235.88 134.077 235.091 134.077 234.243C134.077 233.395 134.633 232.606 135.647 232.022C137.663 230.858 140.941 230.858 142.957 232.022C143.97 232.606 144.527 233.395 144.527 234.243C144.527 235.091 143.97 235.88 142.957 236.464C141.951 237.044 140.629 237.335 139.304 237.335ZM139.304 231.525C138.049 231.525 136.795 231.801 135.84 232.353C134.953 232.866 134.464 233.537 134.464 234.239C134.464 234.941 134.953 235.612 135.84 236.124C137.75 237.225 140.854 237.225 142.763 236.124C143.651 235.612 144.14 234.941 144.14 234.239C144.14 233.537 143.651 232.866 142.763 232.353C141.813 231.801 140.558 231.525 139.304 231.525Z" fill="#D1D1D1"/>
    <path d="M144.144 235.221C144.069 235.221 144.002 235.178 143.971 235.111C143.746 234.641 143.343 234.239 142.775 233.911C140.858 232.807 137.742 232.807 135.825 233.911C135.257 234.239 134.855 234.645 134.63 235.111C134.567 235.245 134.346 235.245 134.279 235.111C133.742 233.994 134.259 232.807 135.632 232.018C137.651 230.85 140.945 230.85 142.969 232.018C144.337 232.807 144.854 233.994 144.322 235.111C144.286 235.178 144.219 235.221 144.144 235.221ZM139.3 231.525C138.042 231.525 136.783 231.801 135.825 232.353C134.788 232.953 134.314 233.758 134.5 234.57C134.768 234.188 135.146 233.856 135.632 233.576C137.655 232.409 140.945 232.409 142.969 233.576C143.454 233.856 143.833 234.192 144.101 234.57C144.282 233.762 143.809 232.953 142.775 232.353C141.817 231.801 140.559 231.525 139.3 231.525Z" fill="#D1D1D1"/>
    <g opacity="0.3">
        <path d="M135.73 233.742C137.702 232.602 140.901 232.602 142.873 233.742C143.513 234.113 143.923 234.558 144.148 235.024C144.617 234.046 144.207 232.953 142.873 232.184C140.901 231.044 137.702 231.044 135.73 232.184C134.396 232.953 133.986 234.046 134.456 235.024C134.68 234.558 135.091 234.113 135.73 233.742Z" fill="#CDCDCD"/>
    </g>
    <path d="M269.226 232.361C269.203 232.345 269.183 232.326 269.159 232.31C269.021 232.207 268.879 232.109 268.717 232.018C267.877 231.533 266.82 231.265 265.727 231.182C264.193 231.067 262.583 231.336 261.404 232.018C261.4 232.022 261.396 232.026 261.392 232.026C261.238 232.113 261.1 232.207 260.97 232.306C260.942 232.326 260.915 232.349 260.891 232.369C260.765 232.468 260.651 232.566 260.548 232.673C260.544 232.673 260.544 232.677 260.544 232.677C260.086 233.146 259.834 233.679 259.834 234.239C259.834 235.087 260.39 235.876 261.404 236.46C262.414 237.04 263.735 237.331 265.061 237.331C266.386 237.331 267.707 237.04 268.717 236.46C269.731 235.876 270.287 235.087 270.287 234.239C270.291 233.545 269.913 232.894 269.226 232.361ZM260.67 233.115C260.678 233.103 260.686 233.095 260.698 233.083C260.757 233.012 260.824 232.941 260.899 232.874C260.919 232.854 260.939 232.835 260.962 232.815C261.029 232.756 261.104 232.697 261.179 232.637C261.207 232.614 261.234 232.594 261.266 232.57C261.365 232.499 261.471 232.432 261.581 232.365C261.589 232.361 261.597 232.353 261.605 232.349C262.56 231.797 263.814 231.525 265.069 231.525C265.38 231.525 265.696 231.541 266.003 231.576C266.93 231.679 267.814 231.939 268.528 232.349C268.65 232.42 268.765 232.495 268.871 232.57C268.895 232.586 268.915 232.606 268.934 232.622C269.017 232.685 269.1 232.748 269.171 232.815C269.191 232.831 269.206 232.846 269.222 232.866C269.297 232.937 269.368 233.012 269.431 233.087C269.439 233.095 269.443 233.103 269.451 233.111C269.818 233.56 269.956 234.057 269.845 234.558C269.577 234.18 269.199 233.848 268.717 233.568C267.707 232.988 266.386 232.697 265.061 232.697C263.735 232.697 262.414 232.988 261.404 233.568C260.919 233.848 260.544 234.18 260.276 234.558C260.165 234.057 260.307 233.56 260.67 233.115ZM268.524 236.124C266.615 237.225 263.51 237.225 261.601 236.124C261.061 235.813 260.67 235.442 260.445 235.04C260.674 234.598 261.061 234.215 261.601 233.904C263.51 232.803 266.615 232.803 268.524 233.904C269.068 234.215 269.451 234.602 269.68 235.04C269.455 235.442 269.064 235.813 268.524 236.124Z" fill="#D1D1D1"/>
    <g opacity="0.3">
        <path d="M261.498 233.734C263.462 232.598 266.649 232.598 268.614 233.734C269.249 234.101 269.659 234.547 269.884 235.012C270.353 234.038 269.943 232.949 268.614 232.184C266.649 231.048 263.462 231.048 261.498 232.184C260.168 232.953 259.762 234.038 260.227 235.012C260.456 234.547 260.863 234.101 261.498 233.734Z" fill="#CDCDCD"/>
    </g>
    <path d="M225.863 197.577C225.618 197.577 225.386 197.518 225.177 197.396C224.609 197.068 224.285 196.335 224.285 195.376C224.285 193.621 225.362 191.574 226.684 190.812L255.282 174.3C255.894 173.949 256.493 173.906 256.97 174.182C257.539 174.509 257.862 175.243 257.862 176.201C257.862 177.957 256.785 180.004 255.464 180.765L226.865 197.278C226.522 197.479 226.179 197.577 225.863 197.577ZM256.284 174.363C256.028 174.363 255.752 174.446 255.464 174.612L226.865 191.124C225.642 191.83 224.648 193.739 224.648 195.376C224.648 196.201 224.908 196.824 225.358 197.084C225.717 197.293 226.19 197.25 226.684 196.966L255.282 180.454C256.505 179.748 257.499 177.838 257.499 176.201C257.499 175.377 257.239 174.754 256.789 174.493C256.639 174.406 256.469 174.363 256.284 174.363Z" fill="#D1D1D1"/>
    <path d="M225.863 239.635C225.618 239.635 225.386 239.576 225.177 239.454C224.609 239.126 224.285 238.393 224.285 237.434C224.285 235.679 225.362 233.631 226.684 232.87L255.282 216.358C255.894 216.007 256.493 215.963 256.97 216.239C257.539 216.567 257.862 217.301 257.862 218.259C257.862 220.014 256.785 222.062 255.464 222.823L226.865 239.335C226.522 239.536 226.179 239.635 225.863 239.635ZM256.284 216.421C256.028 216.421 255.752 216.504 255.464 216.669L226.865 233.182C225.642 233.888 224.648 235.797 224.648 237.434C224.648 238.258 224.908 238.882 225.358 239.142C225.717 239.351 226.19 239.308 226.684 239.024L255.282 222.511C256.505 221.805 257.499 219.896 257.499 218.259C257.499 217.435 257.239 216.811 256.789 216.551C256.639 216.464 256.469 216.421 256.284 216.421Z" fill="#D1D1D1"/>
    <path d="M225.863 282.304C225.618 282.304 225.386 282.245 225.177 282.123C224.609 281.795 224.285 281.062 224.285 280.103C224.285 278.348 225.362 276.301 226.684 275.539L255.282 259.027C255.894 258.676 256.493 258.633 256.97 258.909C257.539 259.236 257.862 259.97 257.862 260.928C257.862 262.684 256.785 264.731 255.464 265.492L226.865 282.005C226.522 282.206 226.179 282.304 225.863 282.304ZM256.284 259.09C256.028 259.09 255.752 259.173 255.464 259.339L226.865 275.851C225.642 276.557 224.648 278.466 224.648 280.103C224.648 280.928 224.908 281.551 225.358 281.811C225.717 282.02 226.19 281.977 226.684 281.693L255.282 265.181C256.505 264.475 257.499 262.565 257.499 260.928C257.499 260.104 257.239 259.481 256.789 259.22C256.639 259.133 256.469 259.09 256.284 259.09Z" fill="#D1D1D1"/>
    <path d="M178.044 197.301C177.728 197.301 177.385 197.203 177.042 197.001L148.443 180.489C147.122 179.724 146.045 177.677 146.045 175.925C146.045 174.971 146.368 174.233 146.936 173.906C147.414 173.629 148.013 173.673 148.625 174.024L177.223 190.536C178.545 191.301 179.622 193.349 179.622 195.1C179.622 196.055 179.298 196.792 178.73 197.12C178.521 197.242 178.288 197.301 178.044 197.301ZM147.623 174.091C147.437 174.091 147.268 174.134 147.118 174.221C146.668 174.481 146.408 175.105 146.408 175.929C146.408 177.57 147.402 179.475 148.625 180.181L177.223 196.694C177.716 196.978 178.19 197.021 178.549 196.812C178.998 196.552 179.259 195.928 179.259 195.104C179.259 193.463 178.265 191.558 177.042 190.852L148.443 174.339C148.155 174.174 147.875 174.091 147.623 174.091Z" fill="#D1D1D1"/>
    <path d="M178.044 239.359C177.728 239.359 177.385 239.26 177.042 239.059L148.443 222.547C147.122 221.782 146.045 219.734 146.045 217.983C146.045 217.028 146.368 216.291 146.936 215.963C147.414 215.687 148.013 215.731 148.625 216.082L177.223 232.594C178.545 233.359 179.622 235.407 179.622 237.158C179.622 238.113 179.298 238.85 178.73 239.178C178.521 239.3 178.288 239.359 178.044 239.359ZM147.623 216.149C147.437 216.149 147.268 216.192 147.118 216.279C146.668 216.539 146.408 217.163 146.408 217.987C146.408 219.628 147.402 221.533 148.625 222.239L177.223 238.752C177.716 239.036 178.19 239.079 178.549 238.87C178.998 238.61 179.259 237.986 179.259 237.162C179.259 235.521 178.265 233.616 177.042 232.91L148.443 216.397C148.155 216.232 147.875 216.149 147.623 216.149Z" fill="#D1D1D1"/>
    <path d="M178.044 282.028C177.728 282.028 177.385 281.93 177.042 281.728L148.443 265.216C147.122 264.451 146.045 262.404 146.045 260.652C146.045 259.698 146.368 258.96 146.936 258.633C147.414 258.356 148.013 258.4 148.625 258.751L177.223 275.263C178.545 276.028 179.622 278.076 179.622 279.827C179.622 280.782 179.298 281.519 178.73 281.847C178.521 281.969 178.288 282.028 178.044 282.028ZM147.623 258.818C147.437 258.818 147.268 258.861 147.118 258.948C146.668 259.208 146.408 259.832 146.408 260.656C146.408 262.297 147.402 264.202 148.625 264.908L177.223 281.421C177.716 281.705 178.19 281.748 178.549 281.539C178.998 281.279 179.259 280.655 179.259 279.831C179.259 278.19 178.265 276.285 177.042 275.579L148.443 259.066C148.155 258.901 147.875 258.818 147.623 258.818Z" fill="#D1D1D1"/>
    <path d="M88.2902 273.287C88.2705 273.287 88.2508 273.283 88.231 273.271C88.1955 273.251 88.1719 273.212 88.1719 273.169L88.2153 258.404C88.2153 258.364 88.2389 258.325 88.2744 258.305L101.24 250.771C101.276 250.751 101.323 250.751 101.359 250.771C101.394 250.791 101.418 250.83 101.418 250.873L101.375 265.638C101.375 265.678 101.351 265.717 101.315 265.737L88.3494 273.271C88.3297 273.279 88.3099 273.287 88.2902 273.287ZM88.448 258.471L88.4085 272.967L101.142 265.567L101.185 251.071L88.448 258.471Z" fill="#D1D1D1"/>
    <g opacity="0.3">
        <path d="M101.296 250.869L101.252 265.634L88.2861 273.168L88.3295 258.404L101.296 250.869Z" fill="#CDCDCD"/>
    </g>
    <path d="M88.2854 273.287C88.2657 273.287 88.246 273.283 88.2263 273.271L75.1734 265.733C75.1379 265.713 75.1143 265.674 75.1143 265.63L75.1577 250.866C75.1577 250.822 75.1813 250.787 75.2168 250.767C75.2523 250.747 75.2957 250.747 75.3312 250.767L88.384 258.301C88.4195 258.321 88.4432 258.36 88.4432 258.404L88.3998 273.169C88.3998 273.212 88.3761 273.247 88.3406 273.267C88.3249 273.279 88.3051 273.287 88.2854 273.287ZM75.347 265.563L88.171 272.967L88.2105 258.471L75.3904 251.071L75.347 265.563Z" fill="#D1D1D1"/>
    <path d="M88.3313 258.518C88.3116 258.518 88.2919 258.514 88.2721 258.502L75.2193 250.968C75.1838 250.948 75.1602 250.909 75.1602 250.866C75.1602 250.822 75.1838 250.787 75.2193 250.763L81.5505 247.083C81.586 247.063 81.6333 247.063 81.6688 247.083L88.2879 250.905L94.8637 247.083C94.8992 247.063 94.9465 247.063 94.982 247.083L101.357 250.763C101.392 250.783 101.416 250.822 101.416 250.866C101.416 250.909 101.392 250.944 101.357 250.968L88.3905 258.502C88.3708 258.514 88.351 258.518 88.3313 258.518ZM75.5112 250.866L88.3313 258.266L101.065 250.866L94.9228 247.319L88.3471 251.142C88.3116 251.161 88.2643 251.161 88.2288 251.142L81.6096 247.319L75.5112 250.866Z" fill="#D1D1D1"/>
    <path d="M295.893 245.004L295.83 234.089C295.83 234.046 295.85 234.01 295.889 233.986C295.925 233.967 295.972 233.967 296.008 233.986L304.264 238.752L304.149 238.953L296.071 234.286L296.134 245L295.893 245.004Z" fill="#D1D1D1"/>
    <path d="M303.83 266.538C303.81 266.538 303.79 266.534 303.771 266.522L295.889 261.974C295.854 261.954 295.83 261.914 295.83 261.871L295.881 243.619C295.881 243.576 295.905 243.54 295.941 243.521C295.976 243.501 296.019 243.501 296.055 243.521L303.936 248.073C303.972 248.092 303.995 248.132 303.995 248.175L303.944 266.427C303.944 266.471 303.921 266.506 303.885 266.526C303.869 266.534 303.85 266.538 303.83 266.538ZM296.067 261.804L303.715 266.218L303.767 248.234L296.118 243.816L296.067 261.804Z" fill="#D1D1D1"/>
    <path d="M303.83 266.538C303.81 266.538 303.79 266.534 303.771 266.522L295.889 261.974C295.854 261.954 295.83 261.914 295.83 261.871L295.881 243.619C295.881 243.576 295.905 243.54 295.941 243.521C295.976 243.501 296.019 243.501 296.055 243.521L303.936 248.073C303.972 248.092 303.995 248.132 303.995 248.175L303.944 266.427C303.944 266.471 303.921 266.506 303.885 266.526C303.869 266.534 303.85 266.538 303.83 266.538ZM296.067 261.804L303.715 266.218L303.767 248.234L296.118 243.816L296.067 261.804Z" fill="#D1D1D1"/>
    <path d="M303.83 266.538C303.811 266.538 303.791 266.534 303.771 266.522C303.736 266.502 303.712 266.463 303.712 266.419L303.763 248.167C303.763 248.128 303.787 248.088 303.822 248.069L319.853 238.752C319.889 238.732 319.936 238.732 319.972 238.752C320.007 238.771 320.031 238.811 320.031 238.854L319.98 257.106C319.98 257.145 319.956 257.185 319.92 257.205L303.889 266.522C303.87 266.534 303.85 266.538 303.83 266.538ZM304 248.234L303.949 266.218L319.747 257.039L319.798 239.055L304 248.234Z" fill="#D1D1D1"/>
    <g opacity="0.3">
        <path d="M319.909 238.854L319.858 257.106L303.827 266.419L303.878 248.167L319.909 238.854Z" fill="#CDCDCD"/>
    </g>
    <path d="M303.882 248.286C303.862 248.286 303.843 248.282 303.823 248.27L295.942 243.718C295.906 243.698 295.882 243.659 295.882 243.615C295.882 243.572 295.906 243.536 295.942 243.513L303.969 238.85L295.886 234.184C295.851 234.164 295.827 234.124 295.827 234.081C295.827 234.038 295.851 234.002 295.886 233.979L303.716 229.426C303.752 229.407 303.799 229.407 303.835 229.426L319.972 238.744C320.008 238.763 320.031 238.803 320.031 238.846C320.031 238.89 320.008 238.925 319.972 238.949L303.941 248.266C303.922 248.278 303.902 248.286 303.882 248.286ZM296.233 243.615L303.882 248.033L319.68 238.854L303.776 229.671L296.178 234.085L304.261 238.752C304.296 238.771 304.32 238.811 304.32 238.854C304.32 238.898 304.296 238.933 304.261 238.957L296.233 243.615Z" fill="#D1D1D1"/>
    <path d="M78.3562 235.004C78.3365 235.004 78.3168 235 78.2971 234.988C78.2616 234.969 78.2379 234.929 78.2379 234.886L78.1787 210.141C78.1787 210.098 78.2024 210.062 78.2379 210.039L87.4762 204.705C87.5117 204.686 87.5551 204.686 87.5906 204.705C87.6261 204.725 87.6498 204.765 87.6498 204.808L87.709 229.549C87.709 229.592 87.6853 229.628 87.6498 229.651L78.4114 234.984C78.3996 235 78.3799 235.004 78.3562 235.004ZM78.4114 210.212L78.4706 234.685L87.4762 229.486L87.4171 205.013L83.0819 207.518L78.4114 210.212Z" fill="#D1D1D1"/>
    <path d="M78.3567 235.004C78.337 235.004 78.3172 235 78.2975 234.988L69.1183 229.655C69.0828 229.636 69.0592 229.596 69.0592 229.557L69 204.812C69 204.768 69.0237 204.733 69.0592 204.709C69.0947 204.69 69.1381 204.69 69.1775 204.709L78.3567 210.042C78.3922 210.062 78.4159 210.102 78.4159 210.141L78.475 234.886C78.475 234.929 78.4514 234.965 78.4159 234.988C78.4001 235 78.3804 235.004 78.3567 235.004ZM69.2958 229.486L78.2383 234.685L78.1792 210.212L73.5403 207.518L69.2327 205.013L69.2958 229.486Z" fill="#D1D1D1"/>
    <g opacity="0.3">
        <path d="M73.6062 207.415L78.3003 210.145L78.3595 234.886L73.6653 232.16L69.1842 229.553L69.1211 204.808L73.6062 207.415Z" fill="#CDCDCD"/>
    </g>
    <path d="M78.2975 210.259C78.2778 210.259 78.2581 210.255 78.2383 210.244L69.0592 204.911C69.0237 204.891 69 204.851 69 204.808C69 204.765 69.0237 204.729 69.0592 204.705L78.2975 199.372C78.333 199.352 78.3764 199.352 78.4159 199.372L87.595 204.705C87.6305 204.725 87.6542 204.765 87.6542 204.808C87.6542 204.851 87.6305 204.887 87.595 204.911L78.3567 210.244C78.337 210.255 78.3172 210.259 78.2975 210.259ZM69.3511 204.808L78.2975 210.007L87.3031 204.808L78.3567 199.609L69.3511 204.808Z" fill="#D1D1D1"/>
    <path d="M308.494 216.618C308.475 216.618 308.455 216.614 308.435 216.602C308.4 216.583 308.376 216.543 308.376 216.5L308.411 203.64C308.411 203.601 308.435 203.561 308.471 203.542L319.764 196.978C319.8 196.958 319.847 196.958 319.882 196.978C319.918 196.997 319.942 197.037 319.942 197.08L319.906 209.94C319.906 209.979 319.882 210.019 319.847 210.038L308.553 216.602C308.534 216.614 308.514 216.618 308.494 216.618ZM308.648 203.707L308.613 216.299L319.673 209.873L319.709 197.281L308.648 203.707Z" fill="#D1D1D1"/>
    <path d="M308.494 216.618C308.475 216.618 308.455 216.614 308.435 216.602C308.4 216.583 308.376 216.543 308.376 216.5L308.411 203.64C308.411 203.601 308.435 203.561 308.471 203.542L319.764 196.978C319.8 196.958 319.847 196.958 319.882 196.978C319.918 196.997 319.942 197.037 319.942 197.08L319.906 209.94C319.906 209.979 319.882 210.019 319.847 210.038L308.553 216.602C308.534 216.614 308.514 216.618 308.494 216.618ZM308.648 203.707L308.613 216.299L319.673 209.873L319.709 197.281L308.648 203.707Z" fill="#D1D1D1"/>
    <path d="M308.495 216.618C308.475 216.618 308.455 216.614 308.435 216.602L297.067 210.039C297.031 210.019 297.008 209.979 297.008 209.936L297.043 197.076C297.043 197.033 297.067 196.997 297.102 196.978C297.138 196.958 297.181 196.958 297.217 196.978L308.585 203.542C308.621 203.561 308.645 203.601 308.645 203.644L308.609 216.504C308.609 216.547 308.585 216.583 308.55 216.602C308.534 216.614 308.514 216.618 308.495 216.618ZM297.241 209.869L308.376 216.299L308.412 203.707L297.276 197.278L297.241 209.869Z" fill="#D1D1D1"/>
    <path d="M308.529 203.759C308.509 203.759 308.489 203.755 308.47 203.743L297.101 197.179C297.066 197.159 297.042 197.12 297.042 197.076C297.042 197.033 297.066 196.997 297.101 196.974L302.616 193.771C302.651 193.751 302.699 193.751 302.734 193.771L308.493 197.096L314.213 193.771C314.249 193.751 314.296 193.751 314.331 193.771L319.885 196.978C319.921 196.997 319.945 197.037 319.945 197.08C319.945 197.124 319.921 197.159 319.885 197.183L308.592 203.747C308.568 203.751 308.549 203.759 308.529 203.759ZM297.393 197.076L308.529 203.506L319.59 197.076L314.268 194.003L308.549 197.329C308.513 197.349 308.466 197.349 308.43 197.329L302.671 194.003L297.393 197.076Z" fill="#D1D1D1"/>
    <g opacity="0.3">
        <path d="M319.821 197.076L308.528 203.64L297.159 197.076L302.674 193.873L308.488 197.23L314.267 193.873L319.821 197.076Z" fill="#CDCDCD"/>
    </g>
    <path d="M250.117 143.011C250.117 142.98 250.109 142.952 250.109 142.92V142.901C250.065 140.853 248.768 138.988 246.432 137.639L211.388 117.406C206.031 114.314 196.643 114.696 190.466 118.266L158.731 136.585C155.441 138.483 153.556 141.015 153.556 143.528C153.556 143.559 153.564 143.587 153.564 143.615V151.042C153.571 153.322 154.94 155.401 157.417 156.892L191.763 177.574C194.32 179.112 197.748 179.87 201.337 179.87C205.664 179.87 210.228 178.773 213.782 176.631L244.653 158.04C247.951 156.056 249.923 153.393 250.061 150.731L250.105 143.193C250.109 143.137 250.117 143.074 250.117 143.011ZM158.936 136.936L190.667 118.617C193.988 116.7 198.248 115.718 202.288 115.718C205.625 115.718 208.808 116.389 211.183 117.761L246.227 137.994C248.476 139.291 249.71 141.074 249.71 143.015C249.71 145.382 247.9 147.784 244.74 149.607L213.009 167.925C206.942 171.428 197.74 171.815 192.493 168.785L157.449 148.553C155.201 147.256 153.966 145.473 153.966 143.532C153.966 141.165 155.777 138.763 158.936 136.936ZM157.619 156.561C155.268 155.145 153.966 153.184 153.958 151.046V145.441C154.506 146.766 155.619 147.962 157.248 148.9L192.292 169.133C194.58 170.454 197.605 171.132 200.801 171.207V179.475C197.483 179.404 194.339 178.671 191.969 177.243L157.619 156.561ZM200.97 179.483H201.029C201.01 179.483 200.99 179.483 200.97 179.483ZM249.671 150.727C249.537 153.247 247.635 155.792 244.452 157.713L213.581 176.304C210.039 178.438 205.487 179.511 201.187 179.487V171.219C201.254 171.219 201.321 171.223 201.388 171.223C205.499 171.223 209.838 170.225 213.214 168.273L244.945 149.954C247.34 148.569 248.988 146.849 249.706 145.047L249.671 150.727Z" fill="#CBCBCB"/>
    <path d="M268.614 141.059L216.084 110.728C206.51 104.63 196.573 105.04 184.814 112.01L137.246 139.477C132.351 142.305 129.542 146.064 129.542 149.792C129.542 149.879 129.55 149.969 129.554 150.056V173.87C129.554 173.886 129.558 173.902 129.562 173.917C129.593 177.152 131.625 180.095 135.285 182.209L186.787 211.944C190.605 214.149 195.725 215.23 201.09 215.23C207.559 215.23 214.383 213.656 219.701 210.587L265.995 183.858C270.914 181.018 273.853 177.219 274.062 173.424L274.078 149.409C274.086 149.279 274.097 149.149 274.097 149.019C274.089 145.922 272.145 143.098 268.614 141.059ZM201.504 214.831C196.06 214.886 190.842 213.841 186.976 211.608L135.475 181.874C131.921 179.822 129.956 176.982 129.944 173.874C129.944 173.858 129.94 173.842 129.936 173.831V152.167C130.67 154.32 132.406 156.253 135.009 157.756L187.548 188.09C191.177 190.185 196.041 191.211 201.133 191.211C201.256 191.211 201.378 191.199 201.496 191.199V214.831H201.504ZM273.667 173.412C273.466 177.065 270.598 180.749 265.798 183.523L219.504 210.251C214.458 213.163 208.052 214.701 201.895 214.823V191.183C207.812 191.069 213.973 189.593 218.817 186.797L266.386 159.33C270.204 157.125 272.744 154.352 273.679 151.468L273.667 173.412ZM188.964 185.12L139.893 156.79C136.713 154.955 134.962 152.427 134.962 149.674C134.962 146.325 137.518 142.928 141.976 140.356L186.404 114.704C192.187 111.276 197.492 109.564 202.518 109.564C206.924 109.564 211.117 110.878 215.235 113.501L264.303 141.832C267.482 143.666 269.234 146.194 269.234 148.948C269.234 152.297 266.678 155.693 262.22 158.265L217.792 183.917C209.271 188.84 196.337 189.38 188.964 185.12ZM273.683 149.358C273.518 152.833 270.811 156.324 266.192 158.995L218.624 186.461C213.835 189.227 207.745 190.686 201.899 190.804V188.343C207.512 188.276 213.381 186.895 217.981 184.237L262.409 158.585C266.981 155.946 269.604 152.435 269.604 148.952C269.604 146.06 267.79 143.421 264.492 141.52L215.429 113.194C206.49 107.501 197.208 107.88 186.227 114.393L141.798 140.045C137.226 142.684 134.603 146.194 134.603 149.678C134.603 152.569 136.418 155.208 139.715 157.109L188.787 185.44C192.175 187.396 196.719 188.355 201.476 188.355C201.488 188.355 201.5 188.355 201.512 188.355V190.812C196.356 190.864 191.414 189.866 187.757 187.755L135.218 157.421C131.814 155.456 129.94 152.75 129.94 149.8C129.94 146.214 132.678 142.577 137.451 139.824L185.023 112.357C191.216 108.685 196.893 106.855 202.273 106.855C206.991 106.855 211.48 108.263 215.89 111.071L268.429 141.406C271.778 143.338 273.644 145.993 273.703 148.889L273.683 149.358Z" fill="#D1D1D1"/>
    <path d="M284.862 119.73L284.684 119.422L294.029 114.05C302.218 109.012 306.731 98.7483 306.731 85.1511C306.731 56.3315 286.297 21.0901 261.186 6.58957C249.293 -0.278056 238.047 -1.51667 229.522 3.09856L220.694 8.20687L220.517 7.89919L229.349 2.78693C237.991 -1.89141 249.36 -0.648852 261.363 6.28189C286.574 20.8376 307.086 56.2171 307.086 85.1471C307.086 98.8745 302.514 109.245 294.21 114.349L284.862 119.73Z" fill="#D1D1D1"/>
    <path d="M273.434 122.495C267.127 122.495 260.125 120.377 252.867 116.184C227.657 101.628 207.145 66.2484 207.145 37.3184C207.145 23.3268 211.886 12.8813 220.497 7.91109C229.183 2.89745 240.741 4.04534 253.044 11.1457C278.255 25.7014 298.767 61.0809 298.767 90.0109C298.767 104.003 294.025 114.448 285.414 119.418C281.856 121.473 277.813 122.495 273.434 122.495ZM232.477 5.18928C228.162 5.18928 224.181 6.19517 220.675 8.21877C212.178 13.1259 207.5 23.4609 207.5 37.3184C207.5 66.138 227.933 101.379 253.044 115.88C265.229 122.917 276.661 124.065 285.237 119.115C293.733 114.207 298.412 103.872 298.412 90.0149C298.412 61.1953 277.978 25.9539 252.867 11.4534C245.66 7.29178 238.717 5.18928 232.477 5.18928Z" fill="#D1D1D1"/>
    <g opacity="0.3">
        <path d="M261.245 6.58557C248.855 -0.570011 237.242 -1.07492 229.017 3.37463L221.857 7.38633C230.93 2.5857 241.088 4.53435 252.898 11.3507C278.1 25.9025 298.533 61.1439 298.533 90.066C298.533 104.677 293.894 114.523 285.485 119.166L293.618 114.476C301.516 109.62 306.876 99.3991 306.876 85.3009C306.876 56.3788 286.447 21.1374 261.245 6.58557Z" fill="#CDCDCD"/>
        <path d="M285.571 119.323L285.398 119.016L286.084 118.621C294.115 113.785 298.356 103.939 298.356 90.07C298.356 61.2504 277.923 26.009 252.811 11.5085C240.298 4.28193 230.484 3.02358 221.94 7.54809L221.771 7.23646L228.93 3.22476C237.734 -1.54037 249.545 -0.372756 261.331 6.4357C286.542 20.9914 307.054 56.3709 307.054 85.3009C307.054 98.7246 302.19 109.411 293.709 114.625L286.261 118.921C286.037 119.059 285.804 119.193 285.571 119.323ZM232.563 4.54622C238.583 4.54622 245.281 6.75128 252.988 11.2008C278.199 25.7566 298.711 61.1361 298.711 90.07C298.711 102.334 295.413 111.493 289.117 116.874L293.531 114.326C301.898 109.178 306.703 98.5983 306.703 85.3049C306.703 56.4853 286.269 21.2439 261.158 6.74338C249.478 -0.00196031 237.798 -1.16957 229.104 3.53639L225.072 5.79272C227.459 4.9604 229.944 4.54622 232.563 4.54622Z" fill="#D1D1D1"/>
    </g>
    <path d="M273.058 103.028C271.736 103.028 270.521 102.361 269.807 101.249L225.892 32.3992C224.752 30.6083 225.28 28.2258 227.067 27.0858C228.854 25.9458 231.241 26.4743 232.385 28.2613L276.3 97.115C277.44 98.9059 276.912 101.288 275.125 102.428C274.501 102.819 273.788 103.028 273.058 103.028ZM229.13 26.8372C228.487 26.8372 227.84 27.0148 227.26 27.3816C225.635 28.419 225.158 30.5847 226.191 32.2059L270.107 101.06C270.754 102.069 271.855 102.677 273.058 102.677C273.72 102.677 274.371 102.488 274.931 102.129C276.557 101.091 277.034 98.9256 276 97.3043L232.085 28.4506C231.418 27.4053 230.286 26.8372 229.13 26.8372Z" fill="#D1D1D1"/>
    <path d="M229.139 77.6758C227.573 77.6758 226.177 76.7409 225.581 75.2971C224.772 73.3367 225.707 71.0803 227.668 70.2717L245.576 62.8715L245.71 63.1989L227.802 70.5991C226.023 71.3367 225.171 73.384 225.908 75.163C226.449 76.4766 227.719 77.3247 229.139 77.3247C229.597 77.3247 230.046 77.234 230.472 77.0604L249.584 69.1632L249.718 69.4906L230.606 77.3878C230.141 77.5771 229.648 77.6758 229.139 77.6758Z" fill="#D1D1D1"/>
    <path d="M256.616 66.6387L256.482 66.3113L274.391 58.9111C276.17 58.1774 277.022 56.1302 276.284 54.3472C275.929 53.4833 275.259 52.8127 274.395 52.4538C273.531 52.0948 272.58 52.0948 271.721 52.4538L252.609 60.3509L252.475 60.0235L271.586 52.1264C272.537 51.7319 273.586 51.7319 274.533 52.1264C275.484 52.5208 276.221 53.2624 276.612 54.2131C277.421 56.1735 276.486 58.4299 274.525 59.2385L256.616 66.6387Z" fill="#D1D1D1"/>
    <g opacity="0.3">
        <path d="M273.057 102.85C271.842 102.85 270.658 102.251 269.956 101.154L226.04 32.3045C224.952 30.5965 225.453 28.3244 227.161 27.2356C228.873 26.143 231.141 26.6479 232.23 28.3559L276.145 97.2096C277.234 98.9177 276.733 101.19 275.025 102.279C274.414 102.665 273.731 102.85 273.057 102.85Z" fill="#CDCDCD"/>
        <path d="M273.058 103.028C271.736 103.028 270.521 102.361 269.807 101.249L225.892 32.3992C224.752 30.6083 225.28 28.2258 227.067 27.0858C228.854 25.9458 231.241 26.4743 232.385 28.2613L276.3 97.115C277.44 98.9059 276.912 101.288 275.125 102.428C274.501 102.819 273.788 103.028 273.058 103.028ZM229.13 26.8372C228.487 26.8372 227.84 27.0148 227.26 27.3816C225.635 28.419 225.158 30.5847 226.191 32.2059L270.107 101.06C270.754 102.069 271.855 102.677 273.058 102.677C273.72 102.677 274.371 102.488 274.931 102.129C276.557 101.091 277.034 98.9256 276 97.3043L232.085 28.4506C231.418 27.4053 230.286 26.8372 229.13 26.8372Z" fill="#D1D1D1"/>
        <path d="M249.654 69.321L230.538 77.2182C230.081 77.4075 229.603 77.4983 229.138 77.4983C227.694 77.4983 226.329 76.6423 225.745 75.2301C224.972 73.3564 225.864 71.2105 227.737 70.4334L245.646 63.0333" fill="#CDCDCD"/>
        <path d="M229.139 77.6758C227.573 77.6758 226.177 76.7409 225.581 75.2971C224.772 73.3367 225.707 71.0803 227.668 70.2717L245.576 62.8715L245.71 63.1989L227.802 70.5991C226.023 71.3367 225.171 73.384 225.908 75.163C226.449 76.4766 227.719 77.3247 229.139 77.3247C229.597 77.3247 230.046 77.234 230.472 77.0604L249.584 69.1632L249.718 69.4906L230.606 77.3878C230.141 77.5771 229.648 77.6758 229.139 77.6758Z" fill="#D1D1D1"/>
        <path d="M252.537 60.1852L271.649 52.288C273.527 51.5109 275.672 52.4024 276.446 54.28C277.219 56.1537 276.327 58.2996 274.454 59.0767L256.545 66.4769" fill="#CDCDCD"/>
        <path d="M256.616 66.6387L256.482 66.3113L274.391 58.9111C276.17 58.1774 277.022 56.1302 276.284 54.3472C275.929 53.4833 275.259 52.8127 274.395 52.4538C273.531 52.0948 272.58 52.0948 271.721 52.4538L252.609 60.3509L252.475 60.0235L271.586 52.1264C272.537 51.7319 273.586 51.7319 274.533 52.1264C275.484 52.5208 276.221 53.2624 276.612 54.2131C277.421 56.1735 276.486 58.4299 274.525 59.2385L256.616 66.6387Z" fill="#D1D1D1"/>
    </g>
</svg>
