<svg width="390" height="300" viewBox="0 0 390 300" fill="none" xmlns="http://www.w3.org/2000/svg">
    <g clip-path="url(#clip0_42201_117774)">
        <g opacity="0.3">
            <path d="M272.064 210.298C269.454 211.805 269.454 214.242 272.064 215.748C274.674 217.255 278.895 217.255 281.505 215.748C284.115 214.242 284.115 211.805 281.505 210.298C278.895 208.792 274.664 208.792 272.064 210.298Z" fill="#C7C7C7"/>
        </g>
        <path d="M313.899 191.54C313.755 191.291 313.448 191.214 313.208 191.358L281.42 209.704C278.656 208.293 274.444 208.331 271.806 209.857C270.386 210.682 269.599 211.805 269.599 213.023C269.599 214.012 270.136 214.923 271.076 215.672L242.512 232.165C242.272 232.309 242.186 232.616 242.33 232.866C242.426 233.029 242.598 233.125 242.771 233.125C242.857 233.125 242.944 233.106 243.03 233.058L272.045 216.305C273.389 217.015 275.078 217.38 276.785 217.38C278.589 217.38 280.384 216.986 281.756 216.19C283.176 215.365 283.962 214.242 283.962 213.023C283.962 212.016 283.396 211.076 282.398 210.318L313.707 192.241C313.956 192.097 314.033 191.78 313.899 191.54ZM282.945 213.023C282.945 213.868 282.341 214.674 281.247 215.307C278.791 216.727 274.78 216.727 272.324 215.307C271.23 214.674 270.625 213.868 270.625 213.023C270.625 212.179 271.23 211.373 272.324 210.74C273.552 210.03 275.173 209.675 276.785 209.675C278.407 209.675 280.019 210.03 281.247 210.74C282.341 211.373 282.945 212.179 282.945 213.023Z" fill="#C7C7C7"/>
        <g opacity="0.3">
            <path d="M319.234 206.441C316.624 207.948 316.624 210.385 319.234 211.891C321.844 213.398 326.065 213.398 328.675 211.891C331.285 210.385 331.285 207.948 328.675 206.441C326.065 204.944 321.844 204.944 319.234 206.441Z" fill="#C7C7C7"/>
        </g>
        <path d="M328.923 206C326.179 204.417 321.717 204.417 318.973 206C317.553 206.825 316.766 207.948 316.766 209.166C316.766 210.183 317.342 211.124 318.35 211.891L247.481 252.804C247.241 252.948 247.155 253.255 247.299 253.505C247.394 253.668 247.567 253.764 247.74 253.764C247.826 253.764 247.913 253.745 247.999 253.697L319.338 212.505C320.662 213.167 322.303 213.522 323.953 213.522C325.757 213.522 327.551 213.129 328.923 212.333C330.343 211.507 331.13 210.385 331.13 209.166C331.13 207.948 330.353 206.825 328.923 206ZM328.415 211.45C325.949 212.87 321.948 212.87 319.491 211.45C318.397 210.817 317.793 210.011 317.793 209.166C317.793 208.322 318.397 207.516 319.491 206.883C320.719 206.173 322.341 205.818 323.953 205.818C325.565 205.818 327.187 206.173 328.415 206.883C329.509 207.516 330.113 208.322 330.113 209.166C330.113 210.011 329.509 210.817 328.415 211.45Z" fill="#C7C7C7"/>
        <g opacity="0.3">
            <path d="M150.285 114.387C148.346 113.264 146.437 111.451 144.863 109.177L116.088 67.3617C112.097 61.6143 111.281 54.6484 114.284 51.7891C117.278 48.9393 122.949 51.2805 126.94 57.0183L147.972 87.7031L194.7 32.0233C197.415 28.7898 203.019 30.6513 207.202 36.1876C211.395 41.7239 212.585 48.8338 209.87 52.0769L157.874 114.032C156.512 115.653 154.334 116.056 151.868 115.135C151.34 114.943 150.812 114.694 150.285 114.387Z" fill="#C7C7C7"/>
        </g>
        <path d="M228.549 227.387V103.947C228.549 103.775 228.463 103.612 228.309 103.516L218.791 97.49V80.1039C218.791 79.9216 218.695 79.7585 218.542 79.6625L197.663 67.4193L210.261 52.4127C213.121 49.0065 211.931 41.5895 207.613 35.8901C204.85 32.244 201.395 30.018 198.373 29.9412C196.732 29.9316 195.322 30.5073 194.314 31.7067L175.23 54.4468L80.6808 0.0719625C80.5273 -0.0239875 80.3258 -0.0239875 80.1722 0.0719625C80.0187 0.158318 79.9132 0.331027 79.9132 0.513332L79.5102 68.3788C70.5293 62.6026 61.366 56.6345 59.092 54.9074C58.9385 54.7923 58.737 54.7731 58.5643 54.8498L50.7252 58.5055C50.706 58.5151 50.6964 58.5343 50.6772 58.5439C50.6676 58.5535 50.6484 58.5535 50.6292 58.5631C50.61 58.5823 50.61 58.6015 50.5908 58.6207C50.5429 58.659 50.5141 58.707 50.4853 58.7646C50.4661 58.803 50.4565 58.8317 50.4469 58.8701C50.4373 58.8893 50.4277 58.9085 50.4277 58.9373C50.4277 58.9757 50.4469 59.0141 50.4469 59.0524C50.4469 59.0812 50.4373 59.1004 50.4469 59.1292L84.3748 166.046C84.4132 166.171 84.4996 166.277 84.6147 166.334L227.446 246.644C227.523 246.692 227.609 246.711 227.695 246.711C227.734 246.711 227.763 246.711 227.801 246.702C227.858 246.692 227.897 246.644 227.945 246.616C227.974 246.596 228.022 246.606 228.05 246.577C228.06 246.568 228.06 246.558 228.07 246.548C228.098 246.51 228.118 246.472 228.137 246.433C228.166 246.376 228.194 246.328 228.204 246.261C228.204 246.241 228.223 246.232 228.223 246.222L228.559 228.02H228.569V227.646V227.426C228.549 227.397 228.549 227.397 228.549 227.387ZM195.082 32.3591C195.898 31.3901 196.991 30.9391 198.335 30.9487C201.012 31.0158 204.255 33.1459 206.788 36.4946C210.837 41.839 212.036 48.6898 209.465 51.7506L157.47 113.706C156.241 115.174 154.313 115.509 152.039 114.655C151.54 114.473 151.041 114.233 150.532 113.936C148.652 112.852 146.781 111.057 145.274 108.879L116.499 67.0643C112.651 61.5279 111.807 54.8402 114.628 52.1536C115.376 51.4436 116.317 51.079 117.43 51.079C117.612 51.079 117.794 51.0886 117.986 51.1078C120.788 51.386 124.05 53.7656 126.516 57.3062L147.923 88.5475L195.082 32.3591ZM80.9111 1.38647L174.549 55.2336L147.999 86.8683L127.351 56.74C124.683 52.902 121.22 50.4265 118.082 50.1099C116.451 49.9468 115.002 50.3977 113.918 51.434C110.752 54.4468 111.538 61.7294 115.655 67.6591L144.43 109.474C146.052 111.806 147.98 113.658 150.014 114.828C150.571 115.145 151.127 115.413 151.674 115.615C152.605 115.96 153.497 116.133 154.332 116.133C155.896 116.133 157.258 115.529 158.237 114.368L196.972 68.2157L217.755 80.4013V202.977L196.157 154.264C196.109 154.168 196.041 154.081 195.946 154.033L128.685 115.039C125.518 113.178 124.645 112.477 122.054 109.724C115.328 102.585 111.797 97.1254 108.976 92.7309C106.012 88.1253 103.661 84.4888 99.0552 80.8811C99.0456 80.8715 99.0264 80.8619 99.0168 80.8523C98.8441 80.7371 89.9208 75.0761 80.4985 69.0216L80.9111 1.38647ZM85.296 165.538L51.8574 60.175L90.602 85.3427C95.0733 88.8449 97.3761 92.4239 100.293 96.9431C103.143 101.366 106.693 106.874 113.486 114.08C116.144 116.891 117.103 117.659 120.347 119.568L187.473 158.476L226.592 244.975L85.296 165.538ZM227.523 227.608L227.225 243.919L188.337 157.919C188.289 157.823 188.222 157.737 188.126 157.689L120.865 118.695C117.698 116.834 116.825 116.133 114.234 113.379C107.508 106.241 103.987 100.781 101.157 96.3866C98.1917 91.781 95.8409 88.1445 91.1969 84.508L51.9917 59.0333L58.7178 55.8957C64.2733 59.9928 96.7716 80.622 98.4603 81.6966C102.912 85.1988 105.215 88.7682 108.132 93.2874C110.982 97.7107 114.532 103.218 121.325 110.424C123.983 113.235 124.943 114.003 128.186 115.912L195.312 154.82L217.774 205.482V205.53H217.793L227.532 227.493V227.608H227.523ZM227.523 224.979L218.782 205.271V98.699L227.523 104.226V224.979Z" fill="#CCCCCC"/>
        <path d="M268.225 184.891C267.352 184.891 266.508 184.699 265.855 184.306L236.456 167.764C236.418 167.745 236.379 167.716 236.341 167.677C235.928 167.265 235.737 166.747 235.794 166.229C235.852 165.768 236.13 165.096 237.128 164.492C238.558 163.369 240.956 163.465 242.444 164.214L271.881 180.775C271.919 180.794 271.958 180.823 271.996 180.861C272.409 181.274 272.601 181.792 272.533 182.31C272.476 182.77 272.198 183.452 271.171 184.066C270.365 184.613 269.271 184.891 268.225 184.891ZM237.013 166.92L266.364 183.433C267.371 184.037 269.319 184.085 270.634 183.212C271.171 182.886 271.488 182.521 271.526 182.195C271.545 182.003 271.478 181.821 271.315 181.638L241.964 165.125C240.62 164.454 238.711 164.54 237.732 165.317C237.713 165.327 237.694 165.346 237.675 165.356C237.157 165.663 236.84 166.027 236.802 166.363C236.782 166.555 236.85 166.737 237.013 166.92Z" fill="#C7C7C7"/>
        <path d="M294.303 185.092C293.43 185.092 292.586 184.9 291.933 184.507L249.101 159.762C249.063 159.742 249.025 159.714 248.996 159.675C248.583 159.263 248.391 158.744 248.458 158.226C248.516 157.766 248.794 157.094 249.792 156.49C251.231 155.367 253.621 155.463 255.108 156.211L297.978 180.976C298.017 180.995 298.055 181.024 298.084 181.062C298.496 181.475 298.688 181.984 298.631 182.502C298.573 182.962 298.295 183.643 297.268 184.258C296.443 184.814 295.359 185.092 294.303 185.092ZM249.677 158.927L292.452 183.634C293.449 184.238 295.397 184.286 296.712 183.413C297.249 183.087 297.566 182.722 297.604 182.396C297.623 182.204 297.556 182.022 297.393 181.84L254.609 157.133C253.266 156.461 251.366 156.547 250.377 157.334C250.358 157.344 250.339 157.363 250.32 157.372C249.802 157.679 249.485 158.044 249.447 158.38C249.437 158.553 249.514 158.744 249.677 158.927Z" fill="#C7C7C7"/>
        <g opacity="0.3">
            <path d="M250.079 156.931C248.88 157.651 248.64 158.61 249.36 159.33L292.202 184.075C293.401 184.795 295.56 184.795 296.999 183.835C298.198 183.116 298.438 182.156 297.719 181.437L254.877 156.691C253.438 155.962 251.279 155.962 250.079 156.931Z" fill="#C7C7C7"/>
        </g>
        <g opacity="0.3">
            <path d="M387.088 192.001L384.91 195.407C384.171 196.51 382.828 197.969 381.744 198.746L377.215 201.711L231.352 285.255C226.228 288.21 219.176 291.213 212.421 291.213V300.405C219.176 300.405 226.266 297.325 231.4 294.36L380.506 208.744C382.348 207.689 385.687 203.745 386.445 201.768L387.271 197.566L387.088 192.001Z" fill="#C7C7C7"/>
        </g>
        <path d="M343.766 175.555L343.805 173.703C343.805 173.636 343.93 173.598 344.035 173.626C344.572 173.78 345.187 173.837 345.82 173.77C346.722 173.684 347.48 173.367 347.883 172.916C348.372 172.369 348.391 171.535 347.307 170.911L342.433 168.1C342.26 168.004 341.982 168.032 341.886 168.157C341.886 168.157 341.656 168.483 341.55 168.637C341.521 168.685 341.54 168.733 341.598 168.771C341.598 168.771 346.117 171.381 346.348 171.515C346.674 171.707 346.827 171.966 346.76 172.235C346.693 172.504 346.424 172.734 346.021 172.859C345.407 173.051 344.707 172.993 344.198 172.696C342.557 171.746 339.727 170.115 339.727 170.115C339.612 170.047 339.42 170.047 339.295 170.115L336.685 171.621C336.561 171.698 336.561 171.822 336.685 171.89L337.203 172.187C337.338 172.264 337.549 172.264 337.674 172.187L339.41 171.189C339.458 171.16 339.545 171.16 339.602 171.189L342.174 172.676C342.27 172.734 342.327 172.811 342.327 172.888L342.337 175.094C342.346 175.133 342.375 175.171 342.423 175.209L343.248 175.689C343.459 175.804 343.795 175.708 343.766 175.555Z" fill="#C7C7C7"/>
        <path d="M338.798 165.998L336.265 164.53C334.95 163.772 332.82 163.763 331.515 164.521L330.086 165.346C328.781 166.104 328.781 167.332 330.105 168.09L332.638 169.558C333.952 170.316 336.083 170.326 337.387 169.568L338.817 168.743C340.122 167.984 340.112 166.756 338.798 165.998ZM336.553 168.886C335.699 169.376 334.317 169.376 333.463 168.877L331.266 167.61C330.412 167.121 330.402 166.315 331.256 165.826L332.341 165.202C333.194 164.713 334.576 164.713 335.43 165.212L337.627 166.478C338.481 166.967 338.491 167.773 337.637 168.263L336.553 168.886Z" fill="#C7C7C7"/>
        <path d="M322.755 163.849L326.583 166.056C326.756 166.152 327.044 166.123 327.13 165.998L327.466 165.519C327.495 165.471 327.476 165.423 327.418 165.394L324.022 163.427C323.168 162.938 323.158 162.132 324.012 161.642L325.096 161.018C325.95 160.529 327.332 160.529 328.186 161.028L331.592 162.995C331.65 163.033 331.736 163.043 331.813 163.024C332.072 162.966 332.638 162.832 332.638 162.832C332.859 162.784 332.916 162.611 332.743 162.515L329.011 160.356C327.696 159.598 325.566 159.589 324.261 160.347L322.736 161.23C321.489 161.94 321.489 163.12 322.755 163.849Z" fill="#C7C7C7"/>
        <path d="M351.145 173.271C351.174 173.204 351.145 173.127 351.049 173.07L350.378 172.676C350.205 172.581 349.917 172.619 349.86 172.753L347.519 177.906C347.471 178.021 347.528 178.136 347.672 178.222L348.017 178.424C348.161 178.51 348.372 178.539 348.564 178.51L357.497 177.157C357.728 177.119 357.804 176.956 357.632 176.86L356.95 176.466C356.864 176.419 356.73 176.39 356.605 176.409L349.428 177.493C349.332 177.512 349.236 177.455 349.265 177.397L351.145 173.271Z" fill="#C7C7C7"/>
        <path d="M358.746 184.248L361.087 179.096C361.135 178.98 361.078 178.865 360.934 178.779L360.588 178.577C360.444 178.491 360.233 178.462 360.041 178.491L351.108 179.844C350.878 179.882 350.801 180.045 350.974 180.141L351.646 180.535C351.732 180.583 351.866 180.612 351.991 180.592L359.168 179.508C359.264 179.489 359.36 179.546 359.331 179.604L357.873 182.818C357.844 182.876 357.719 182.895 357.652 182.857L355.33 181.513C355.244 181.465 355.129 181.446 355.014 181.465L353.843 181.638C353.747 181.657 353.709 181.725 353.785 181.763L358.18 184.306L358.218 184.334C358.401 184.43 358.688 184.382 358.746 184.248Z" fill="#C7C7C7"/>
        <path d="M387.596 189.324C387.596 185.601 385.275 182.214 381.062 179.786L218.533 84.3161C218.293 84.1721 217.976 84.2585 217.832 84.4984C217.688 84.7383 217.775 85.0549 218.014 85.1988L380.544 180.679C384.43 182.924 386.57 185.994 386.57 189.333C386.57 193.421 383.423 197.575 377.944 200.742L374.662 202.622C374.653 202.622 374.653 202.613 374.653 202.603L228.425 118.896C228.185 118.753 227.868 118.839 227.734 119.088C227.59 119.338 227.677 119.645 227.926 119.779L373.655 203.198L229.298 285.936C218.715 292.048 202.662 292.72 193.518 287.442L10.0331 182.415C6.31987 180.276 4.22816 177.368 4.04585 174.202V174.154V174.145C4.03626 174.01 4.01707 173.885 4.01707 173.751C4.01707 169.664 7.16423 165.509 12.643 162.343L73.1299 128.501C73.3793 128.367 73.4657 128.05 73.3218 127.81C73.1874 127.561 72.8804 127.474 72.6309 127.618L12.144 161.46C6.33906 164.809 3 169.299 3 173.751C3 173.905 3.02878 174.058 3.03838 174.212V182.099C2.75053 186.081 5.07252 189.698 9.57258 192.298L193.058 297.325C197.337 299.791 203.065 301 209.072 301C210.175 301 211.279 300.942 212.392 300.866C212.411 300.866 212.421 300.885 212.449 300.885C212.478 300.885 212.507 300.856 212.536 300.846C218.686 300.376 224.875 298.697 229.874 295.809L378.529 210.606C384.612 207.094 387.673 202.728 387.625 197.633L387.577 190.312C387.539 190.312 387.596 189.64 387.596 189.324ZM211.912 299.897C205.08 300.338 198.354 299.225 193.547 296.442L10.0619 191.425C5.91688 189.036 3.77719 185.745 4.03626 182.147V177.935C5.1013 179.978 6.95314 181.82 9.515 183.298L193 288.325C197.28 290.791 203.008 292 209.014 292C209.974 292 210.943 291.962 211.912 291.904V299.897ZM377.982 209.742L229.327 294.946C224.587 297.68 218.753 299.321 212.929 299.829V291.818C218.926 291.299 224.932 289.64 229.807 286.819L378.462 201.615C382.386 199.351 385.14 196.568 386.541 193.622L386.57 197.662C386.618 202.363 383.73 206.432 377.982 209.742Z" fill="#C7C7C7"/>
    </g>
    <defs>
        <clipPath id="clip0_42201_117774">
            <rect width="390" height="300" fill="white"/>
        </clipPath>
    </defs>
</svg>
