<svg width="390" height="300" viewBox="0 0 390 300" fill="none" xmlns="http://www.w3.org/2000/svg">
    <g opacity="0.3">
        <path d="M281.273 180.692L264.744 197.615L264.641 207.014L265.101 209.97L265.557 206.106L276.802 196.977L281.273 180.692Z" fill="#CDCDCD"/>
    </g>
    <g opacity="0.3">
        <path d="M99.9115 190.181C99.7769 190.078 89.208 194.918 89.208 194.918L96.0224 199.827L99.9115 190.181Z" fill="#CDCDCD"/>
    </g>
    <g opacity="0.3">
        <path d="M276.524 197.086C284.499 194.674 294.589 195.428 301.326 199.317C309.623 204.104 309.661 211.848 301.423 216.606C293.178 221.368 279.772 221.343 271.48 216.556C266.7 213.794 264.66 210.058 265.37 206.479L276.524 197.086Z" fill="#CDCDCD"/>
    </g>
    <g opacity="0.3">
        <path d="M108.292 239.925C108.292 245.532 112.047 251.733 117.266 255.184L116.69 268.397L109 264.113L109.14 245.162L108.58 241.865C108.152 240.225 108.289 237.991 108.684 236.095L109.253 234.806L109.337 217.836L122.062 227.967C122.065 227.958 107.632 229.844 108.292 239.925Z" fill="#CDCDCD"/>
    </g>
    <g opacity="0.3">
        <path d="M142.463 244.333L142.19 276.728L150.851 282.116L150.513 253.554L146.583 247.609L142.463 244.333Z" fill="#CDCDCD"/>
    </g>
    <path opacity="0.3" d="M175.572 283.186C175.572 283.186 156.946 252.812 156.411 252.443C155.87 252.074 146.584 247.609 146.584 247.609L175.572 291.521L180.991 299.728L185.03 298.811L175.572 283.186Z" fill="#CDCDCD"/>
    <g opacity="0.3">
        <path d="M204.068 272.132L208.805 271.153V295.276L200.508 295.804L204.068 272.132Z" fill="#CDCDCD"/>
    </g>
    <g opacity="0.3">
        <path d="M114.545 198.569C124.907 205.171 137.991 210.299 152.747 213.324L151.245 219.719L125.101 210.937L112.861 206.826L114.545 198.569Z" fill="#CDCDCD"/>
    </g>
    <g opacity="0.3">
        <path d="M216.4 212.602C229.964 209.582 242.022 204.996 251.743 198.904L255.679 209.304L217.943 219.716L216.4 212.602Z" fill="#CDCDCD"/>
    </g>
    <g opacity="0.3">
        <path d="M251.743 198.904C254.931 196.905 257.866 194.774 260.526 192.518L264.746 197.615L264.643 206.829L255.682 209.301L251.743 198.904Z" fill="#CDCDCD"/>
    </g>
    <g opacity="0.3">
        <path d="M82.166 211.544L97.6126 214.732L101.408 251.786L97.5814 245.841L82.166 211.544Z" fill="#CDCDCD"/>
    </g>
    <g opacity="0.3">
        <path d="M121.751 227.782C118.988 228.317 116.175 229.203 113.976 230.473C106.37 234.866 106.407 242.009 114.06 246.43C121.719 250.851 134.087 250.876 141.693 246.48C141.925 246.345 142.138 246.201 142.35 246.067L142.382 244.349L121.751 227.782Z" fill="#CDCDCD"/>
    </g>
    <path d="M142.487 244.224L121.847 227.663H121.841C121.828 227.651 121.809 227.651 121.791 227.651C121.772 227.645 121.753 227.632 121.725 227.638H121.719C119.569 228.051 116.472 228.859 113.894 230.348C110.177 232.491 108.134 235.36 108.134 238.42C108.134 238.439 108.134 238.458 108.134 238.48C108.134 238.48 108.134 238.48 108.134 238.486C107.915 243.492 109.754 248.291 113.302 252.002C117.069 255.938 122.36 258.197 127.832 258.197C133.032 258.197 138.239 255.778 142.162 251.551V251.655C142.162 251.745 142.234 251.817 142.325 251.817C142.415 251.817 142.487 251.745 142.487 251.655L142.553 244.358C142.553 244.299 142.525 244.255 142.487 244.224ZM114.053 230.617C116.569 229.165 119.588 228.371 121.706 227.958L142.225 244.424L142.212 245.967L142.181 245.985C141.999 246.107 141.812 246.223 141.614 246.339C134.065 250.7 121.738 250.675 114.141 246.289C110.477 244.174 108.456 241.374 108.456 238.404C108.453 235.467 110.449 232.701 114.053 230.617ZM142.068 251.173C138.192 255.425 133.004 257.856 127.835 257.856C122.454 257.856 117.242 255.638 113.537 251.764C110.549 248.642 108.8 244.737 108.49 240.595C109.232 242.847 111.115 244.912 113.981 246.561C117.839 248.786 122.905 249.903 127.964 249.903C132.976 249.903 137.976 248.804 141.783 246.611C141.937 246.52 142.074 246.43 142.215 246.339L142.143 251.076C142.14 251.082 142.093 251.138 142.068 251.173Z" fill="#CDCDCD"/>
    <path d="M278.789 227.786C278.697 227.792 278.581 227.572 278.594 227.664L278.606 227.796C278.726 227.843 278.848 227.887 278.968 227.931L278.965 227.884C278.958 227.792 278.886 227.777 278.789 227.786Z" fill="#D1D1D1"/>
    <path d="M307.731 207.937C307.694 204.626 305.454 201.523 301.408 199.189C294.878 195.415 285.104 194.486 276.929 196.814L281.425 180.735C281.431 180.71 281.431 180.685 281.425 180.663L277.192 157.895C277.223 157.301 277.251 156.7 277.251 156.109C277.251 141.529 267.399 127.806 249.502 117.475C246.934 115.992 243.523 114.19 240.701 112.895L240.457 113.136C243.31 114.44 246.746 116.252 249.34 117.75C267.126 128.022 276.929 141.642 276.929 156.1C276.929 170.429 267.277 183.895 249.759 194.011C231.634 204.476 207.815 209.701 183.93 209.701C159.857 209.701 135.722 204.386 117.341 193.773C99.5538 183.501 89.7515 169.882 89.7515 155.417C89.7515 141.088 99.4037 127.622 116.922 117.506C125.153 112.754 134.843 108.956 145.418 106.284L145.719 105.88C134.968 108.561 125.119 112.403 116.759 117.228C99.1377 127.403 89.4292 140.966 89.4292 155.417C89.4292 156.159 89.4605 156.894 89.5137 157.623C89.4668 157.642 89.4292 157.676 89.4167 157.726L85.3212 174.09L83.2812 182.975C83.275 183.013 83.275 183.047 83.2937 183.079L89.0287 194.918L82.0141 211.482C81.9953 211.519 81.9953 211.572 82.0141 211.61L97.4419 245.92L108.862 264.192C108.874 264.217 108.893 264.238 108.921 264.248L118.63 269.654L142.108 276.866L150.753 282.241L180.895 299.856C180.92 299.869 180.945 299.875 180.979 299.875C180.992 299.875 180.998 299.875 181.011 299.875L185.379 298.999L196.154 300C196.16 300 196.166 300 196.166 300C196.204 300 196.245 299.988 196.276 299.956L200.559 295.955L215.052 295.025C215.124 295.019 215.18 294.972 215.199 294.91L219.438 279.651L243.82 266.585L247.375 270.34C247.393 270.365 247.428 270.377 247.459 270.383L252.706 271.538C252.744 271.544 252.784 271.538 252.822 271.519L262.524 266.016C262.568 265.991 262.602 265.937 262.609 265.887L262.906 260.712C262.906 260.687 262.906 260.662 262.893 260.64L261.77 257.906L279.804 237.325C279.829 237.294 279.848 237.247 279.842 237.203L278.963 227.926C278.844 227.882 278.722 227.839 278.603 227.792L279.454 236.583L273.287 224.757C274.892 226.008 276.682 227.035 278.603 227.792L278.59 227.66C278.578 227.57 278.693 227.789 278.784 227.782C278.881 227.776 278.953 227.789 278.959 227.879L278.963 227.926C281.275 228.79 283.771 229.265 286.378 229.265C298.076 229.265 307.603 219.801 307.706 208.121C307.706 208.084 307.713 208.043 307.713 208.005C307.731 208.005 307.731 207.993 307.731 207.987C307.731 207.974 307.731 207.955 307.731 207.943C307.738 207.937 307.731 207.937 307.731 207.937ZM276.6 196.801C276.594 196.808 276.438 196.948 276.419 196.964L265.255 206.35C265.23 206.375 265.212 206.41 265.205 206.441C265.108 206.939 265.065 207.442 265.071 207.93C265.071 208.465 265.096 208.988 265.137 209.51L264.742 206.813L264.846 197.646L280.987 181.117L276.6 196.801ZM249.599 252.102H234.478L218.083 219.779L264.561 206.954L267.877 229.569L249.599 252.102ZM249.702 252.28L255.994 250.172L259.768 253.901C259.858 254.101 260.703 256.051 261.457 257.818C261.457 257.825 261.451 257.837 261.445 257.85L253.116 261.526L247.806 255.093L249.702 252.28ZM203.869 249.164L160.783 259.254L156.5 252.409L158.753 225.505L175.567 226.143L206.444 227.316L203.869 249.164ZM203.979 272.057L196.908 273.765L173.424 279.438L160.899 259.43L203.869 249.364L203.979 272.057ZM89.3103 183.047L93.4716 177.622C94.9671 180.479 96.8662 183.248 99.1283 185.907L99.8135 190.134L89.3228 194.774L89.3166 194.755V183.051H89.3103V183.047ZM100.008 190.143L99.3692 186.189C103.33 190.782 108.396 195.034 114.397 198.813L112.817 206.601L100.008 190.143ZM107.704 200.343L96.1685 199.73L99.9418 190.375L107.704 200.343ZM99.7353 190.369L95.9808 199.674L89.4073 194.937L99.7353 190.369ZM107.861 200.55L112.763 206.848L109.284 217.714L97.7048 214.657L96.131 199.933L107.861 200.55ZM112.923 206.951L124.969 210.997L118.839 225.254L109.453 217.795L112.923 206.951ZM112.976 206.763L114.562 198.923C124.803 205.343 137.743 210.402 152.608 213.459L151.169 219.588L112.976 206.763ZM152.802 213.5C160.098 214.989 167.714 215.937 175.429 216.325C175.501 216.325 179.221 216.447 183.842 216.447C187.888 216.447 192.625 216.356 196.191 216.009C199.83 215.655 203.397 215.195 206.87 214.629L206.457 227.125L175.567 225.952L158.687 225.307L151.338 219.676L152.802 213.5ZM217.83 219.673L206.66 227.047L207.067 214.601C210.221 214.085 213.306 213.478 216.306 212.796C216.3 212.814 216.294 212.827 216.3 212.849L217.83 219.673ZM255.55 209.235L218.014 219.597L216.491 212.805C216.485 212.786 216.472 212.774 216.46 212.761C230.066 209.657 242.028 204.895 251.655 198.948L255.55 209.235ZM251.814 198.848C254.949 196.898 257.84 194.827 260.459 192.64L264.652 197.652L264.548 206.757L255.741 209.188L251.836 198.873C251.833 198.86 251.827 198.86 251.814 198.848ZM234.253 252.09L204.07 249.161L206.651 227.288L217.902 219.863L234.253 252.09ZM234.315 252.287L234.29 267.126L222.98 268.109L204.167 272.02L204.057 249.355L234.315 252.287ZM277.201 161.659C277.201 161.519 277.201 161.24 277.207 160.899C277.207 160.545 277.214 160.132 277.214 159.719L281.112 180.682L281.093 180.738L264.752 197.474L260.609 192.518C271.138 183.673 277.201 173.026 277.201 161.659ZM117.181 194.054C135.613 204.695 159.795 210.024 183.933 210.024C207.868 210.024 231.753 204.786 249.921 194.295C265.562 185.269 274.955 173.574 276.879 160.958C276.879 161.268 276.872 161.525 276.872 161.662C276.872 188.457 242.929 211.181 196.16 215.702C188.535 216.437 175.567 216.018 175.438 216.018C167.71 215.63 160.083 214.676 152.774 213.18C137.85 210.124 124.875 205.046 114.631 198.607L114.475 198.51C98.9375 188.692 89.7515 175.717 89.7515 161.894C89.7515 161.747 89.7515 161.468 89.7452 161.127C89.7452 160.746 89.739 160.301 89.739 159.863C91.5286 172.763 101.112 184.775 117.181 194.054ZM85.634 174.168L89.4198 159.056C89.4198 159.688 89.4261 160.502 89.4261 161.115C89.4261 161.456 89.4323 161.734 89.4323 161.875C89.4323 167.232 90.7996 172.457 93.3683 177.425L89.2321 182.819L85.6184 174.218L85.634 174.168ZM83.6129 182.994L85.5496 174.544L89.1101 183.035V194.352L83.6129 182.994ZM89.3041 195.106L95.9307 199.88L97.5045 214.61L82.3676 211.488L89.3041 195.106ZM97.7298 245.773L82.4114 211.694L97.5201 214.81L101.359 251.586L97.7298 245.773ZM142.286 276.591L142.427 251.204C142.427 251.151 142.383 251.107 142.33 251.107C142.28 251.107 142.233 251.151 142.233 251.204L142.092 276.528L118.761 269.366L116.8 268.271L117.463 255.2C117.463 255.146 117.425 255.103 117.372 255.096C117.313 255.096 117.275 255.134 117.269 255.187L116.612 268.168L109.122 263.994L109.103 263.969L109.237 245.028C109.237 244.975 109.194 244.931 109.14 244.931C109.087 244.931 109.043 244.975 109.043 245.028L108.909 263.66L101.6 251.961L97.7235 214.857L109.247 217.908L109.125 234.916C109.125 234.966 109.172 235.013 109.222 235.013C109.275 235.013 109.319 234.969 109.319 234.916L109.441 218.03L118.821 225.483L122.519 228.593C122.538 228.605 122.556 228.618 122.585 228.618C122.61 228.618 122.638 228.605 122.663 228.586C122.694 228.549 122.688 228.483 122.65 228.452L119.005 225.386L125.163 211.059L151.203 219.807L158.571 225.458L156.334 252.296L146.645 247.528L142.527 244.258C142.483 244.227 142.424 244.233 142.393 244.271C142.361 244.308 142.368 244.374 142.405 244.405L146.516 247.669L150.418 253.585L150.746 281.85L142.286 276.591ZM150.947 281.978L150.618 253.895L180.588 299.302L150.947 281.978ZM184.881 298.78L181.023 299.553L180.964 299.521L150.602 253.513C150.596 253.494 150.59 253.482 150.577 253.466L146.867 247.847L156.35 252.512L173.298 279.598L184.9 298.761C184.887 298.774 184.881 298.774 184.881 298.78ZM200.431 295.67C200.418 295.676 200.406 295.676 200.4 295.682L196.123 299.675L185.05 298.648L173.527 279.61L196.204 274.132L203.96 272.261L200.431 295.67ZM208.716 295.116L200.637 295.632L204.16 272.217L208.716 271.269V295.116ZM243.795 266.263C243.795 266.263 243.795 266.263 243.789 266.263L243.673 266.328L234.7 267.104C234.647 267.111 234.609 267.154 234.609 267.208C234.616 267.261 234.656 267.298 234.706 267.298H234.713L243.242 266.563L219.241 279.416C219.203 279.435 219.175 279.475 219.163 279.513L214.936 294.728L208.91 295.116V271.244L223.014 268.315L234.403 267.33C234.453 267.323 234.494 267.286 234.494 267.233L234.519 252.309H249.465L245.238 258.572C245.231 258.585 245.225 258.597 245.225 258.61L243.795 266.263ZM243.986 266.288L245.413 258.657L247.697 255.262L253 261.682L254.058 268.578L244.03 266.332L243.986 266.288ZM252.744 271.219L252.737 271.225L247.594 270.095L244.271 266.585L254.033 268.772L252.744 271.219ZM262.311 265.79L253.06 271.043L254.258 268.766L262.587 261.01L262.311 265.79ZM262.602 260.734L254.249 268.509L253.204 261.701L261.495 258.037L262.602 260.734ZM261.601 257.643C260.813 255.803 259.943 253.804 259.943 253.804C259.937 253.792 259.93 253.785 259.924 253.773L256.091 249.993C256.066 249.968 256.026 249.962 255.994 249.968L249.931 251.999L267.906 229.838L269.673 248.432L261.601 257.643ZM279.532 237.106L279.538 237.178L269.855 248.229L268.081 229.581L265.584 212.567C266.641 217.329 269.288 221.497 272.946 224.478L279.532 237.106ZM286.403 228.952C275.687 228.952 266.826 220.887 265.55 210.512C266.413 212.827 268.409 214.97 271.394 216.7C275.574 219.113 281.059 220.32 286.531 220.32C291.956 220.32 297.375 219.134 301.499 216.753C304.402 215.076 306.358 212.999 307.221 210.721C305.86 220.996 297.047 228.952 286.403 228.952ZM307.409 208.124C307.356 211.272 305.21 214.229 301.339 216.466C293.158 221.187 279.798 221.168 271.557 216.416C267.608 214.132 265.428 211.112 265.39 207.965C265.39 207.959 265.39 207.952 265.39 207.94C265.384 207.483 265.428 207.023 265.512 206.566L276.603 197.236C284.779 194.771 294.675 195.669 301.249 199.461C305.216 201.751 307.403 204.777 307.415 207.984C307.415 208.027 307.415 208.081 307.409 208.124Z" fill="#D1D1D1"/>
    <path d="M262.655 77.4115C241.308 77.4115 223.949 60.0469 223.949 38.7057C223.949 17.3646 241.314 0 262.655 0C283.996 0 301.361 17.3646 301.361 38.7057C301.361 60.0469 283.993 77.4115 262.655 77.4115ZM262.655 0.316002C241.489 0.316002 224.271 17.5335 224.271 38.6995C224.271 59.8655 241.489 77.0861 262.655 77.0861C283.821 77.0861 301.038 59.8686 301.038 38.7026C301.038 17.5366 283.821 0.316002 262.655 0.316002Z" fill="#D1D1D1"/>
    <g opacity="0.3">
        <path d="M265.319 38.6995L283.388 22.5521C284.117 21.8982 284.183 20.7718 283.529 20.0428C282.875 19.3138 281.748 19.2481 281.019 19.902L262.651 36.3185L244.282 19.902C243.553 19.2481 242.426 19.3138 241.772 20.0428C241.118 20.7718 241.184 21.8982 241.913 22.5521L259.982 38.6995L241.913 54.847C241.184 55.5009 241.118 56.6273 241.772 57.3562C242.426 58.0852 243.553 58.151 244.282 57.497L262.651 41.0805L281.019 57.497C281.748 58.151 282.875 58.0852 283.529 57.3562C284.183 56.6273 284.117 55.5009 283.388 54.847L265.319 38.6995Z" fill="#CDCDCD"/>
    </g>
    <path d="M282.21 58.1133C281.75 58.1133 281.287 57.9537 280.924 57.6189L262.661 41.2962L244.399 57.6189C244.014 57.9631 243.523 58.132 242.997 58.1039C242.478 58.0726 242.005 57.8473 241.658 57.4625C241.314 57.0776 241.139 56.5802 241.173 56.067C241.204 55.5477 241.43 55.0752 241.815 54.7279L259.755 38.6994L241.815 22.6708C241.43 22.3266 241.201 21.8511 241.173 21.3317C241.142 20.8123 241.314 20.3211 241.658 19.9363C242.002 19.5514 242.478 19.323 242.997 19.2949C243.517 19.2636 244.014 19.4419 244.399 19.7798L262.661 36.1025L280.924 19.7798C281.719 19.0696 282.945 19.1384 283.658 19.9331C284.003 20.318 284.178 20.8154 284.143 21.3286C284.118 21.8479 283.887 22.3204 283.502 22.6677L265.562 38.6962L283.502 54.7248C283.887 55.069 284.115 55.5445 284.143 56.0639C284.175 56.5833 284.003 57.0745 283.658 57.4593C283.271 57.8911 282.739 58.1133 282.21 58.1133ZM262.655 40.9208C262.693 40.9208 262.733 40.9333 262.765 40.9583L281.134 57.3749C281.8 57.9693 282.823 57.913 283.411 57.2466C283.699 56.9275 283.84 56.5113 283.815 56.0827C283.79 55.6541 283.602 55.2567 283.283 54.9689L265.208 38.8214C265.177 38.7901 265.158 38.7432 265.158 38.6994C265.158 38.6556 265.177 38.6086 265.208 38.5773L283.277 22.4299C283.596 22.142 283.79 21.7447 283.815 21.316C283.84 20.8874 283.693 20.4713 283.411 20.1521C282.817 19.4857 281.791 19.4294 281.134 20.0239L262.765 36.4404C262.702 36.4905 262.611 36.4905 262.552 36.4404L244.183 20.0239C243.864 19.736 243.448 19.5952 243.019 19.614C242.584 19.639 242.193 19.8268 241.905 20.1459C241.617 20.465 241.477 20.8811 241.502 21.3098C241.527 21.7447 241.714 22.1358 242.04 22.4236L260.108 38.5711C260.14 38.6024 260.158 38.6493 260.158 38.6931C260.158 38.7369 260.14 38.7838 260.108 38.8151L242.04 54.9626C241.721 55.2504 241.527 55.6478 241.502 56.0764C241.477 56.5113 241.624 56.9212 241.905 57.2403C242.187 57.5595 242.591 57.7534 243.019 57.7722C243.448 57.7972 243.864 57.6502 244.183 57.3686L262.552 40.9521C262.577 40.9427 262.618 40.9208 262.655 40.9208Z" fill="#D1D1D1"/>
    <g opacity="0.3">
        <path d="M148.871 60.5413C151.093 64.9153 154.456 68.8293 158.211 70.9976C160.2 72.1458 162.134 72.7246 163.899 72.7246C165.166 72.7246 166.342 72.4243 167.387 71.8204C169.865 70.3906 171.229 67.4589 171.229 63.5637C171.229 59.7309 169.871 55.4696 167.675 51.6869C167.663 51.6588 167.594 51.5493 167.572 51.518C165.388 47.8073 162.406 44.5722 159.121 42.6761C155.701 40.7019 152.441 40.4109 149.948 41.8501C147.47 43.28 146.105 46.2148 146.105 50.1069C146.102 53.4609 147.144 57.1403 148.871 60.5413ZM148.199 47.4443C148.624 45.5765 149.531 44.1873 150.855 43.4239C151.615 42.9859 152.488 42.7669 153.439 42.7669C154.882 42.7669 156.505 43.2643 158.211 44.2499C161.045 45.8862 163.63 48.602 165.604 51.7432L159.637 55.2193C159.343 54.8751 159.018 54.5779 158.664 54.3745C157.488 53.6956 156.53 54.2462 156.53 55.6073C156.53 56.9683 157.485 58.6202 158.664 59.3023C159.844 59.9812 160.798 59.4306 160.798 58.0696C160.798 57.6597 160.701 57.2217 160.548 56.793L166.521 53.3139C168.31 56.6241 169.412 60.266 169.412 63.5668C169.412 66.7831 168.37 69.1579 166.477 70.2498C164.565 71.3542 161.949 71.0601 159.118 69.4238C152.945 65.857 147.92 57.1935 147.92 50.11C147.92 49.1401 148.014 48.2484 148.199 47.4443Z" fill="#CDCDCD"/>
    </g>
    <g opacity="0.3">
        <path d="M179.088 190.103L179.123 197.052C176.179 197.136 174.164 196.942 171.526 195.415L114.401 162.532C112.671 161.531 111.739 159.119 111.607 157.373L111.564 155.755C111.564 155.755 111.41 149.948 111.761 151.322C112.042 154.269 114.401 155.392 114.401 155.392L169.111 186.968C170.982 188.376 174.689 189.712 177.086 190.05L179.088 190.103Z" fill="#CDCDCD"/>
    </g>
    <g opacity="0.3">
        <path d="M179.163 190.081L179.129 197.23C182.073 197.315 184.373 196.47 186.76 195.09L242.583 162.485C244.313 161.484 245.314 160.617 245.396 157.924L245.38 151.272C245.099 154.219 242.586 155.342 242.586 155.342L188.969 186.655C186.844 188.11 183.096 189.768 180.737 189.984L179.163 190.081Z" fill="#CDCDCD"/>
    </g>
    <path d="M149.352 125.594C149.292 125.594 149.233 125.563 149.199 125.507C149.149 125.422 149.177 125.313 149.261 125.266L155.7 121.508C155.785 121.458 155.894 121.486 155.941 121.571C155.991 121.655 155.963 121.765 155.879 121.812L149.44 125.569C149.415 125.588 149.383 125.594 149.352 125.594Z" fill="#C5C5C5"/>
    <path d="M245.57 150.468C245.57 148.368 244.484 146.491 242.669 145.44L210.787 127.046C210.703 126.999 210.596 127.027 210.546 127.112C210.496 127.196 210.528 127.306 210.612 127.353L242.494 145.746C244.199 146.732 245.219 148.497 245.219 150.468C245.219 152.439 244.202 154.203 242.494 155.189L186.668 187.791C181.734 190.647 175.601 190.644 170.667 187.787L114.494 155.411C113.912 155.073 113.417 154.641 113.008 154.144C112.51 153.515 111.897 152.351 111.803 151.169C111.79 151.009 111.772 150.853 111.772 150.69C111.772 148.719 112.789 146.957 114.494 145.969L147.314 126.811C147.399 126.761 147.427 126.655 147.377 126.57C147.327 126.486 147.22 126.458 147.136 126.508L114.315 145.665C112.501 146.716 111.418 148.594 111.415 150.693C111.415 150.915 111.431 157.564 111.431 157.564C111.568 159.391 112.529 161.831 114.315 162.864L171.44 195.747C173.752 197.086 175.608 197.424 178.117 197.424C178.442 197.424 178.78 197.418 179.131 197.408C182.065 197.408 185.119 196.241 186.846 195.243L242.672 162.642C244.305 161.697 245.573 160.145 245.573 158.265C245.57 158.261 245.57 150.493 245.57 150.468ZM171.615 195.44L114.491 162.557C112.892 161.631 111.919 159.331 111.784 157.545L111.74 155.927C111.712 154.86 111.697 153.481 111.719 152.52C111.869 152.977 112.072 153.409 112.329 153.812C113.123 155.136 114.253 155.69 114.315 155.721L114.39 155.765L169.025 187.293C169.259 187.431 170.492 188.094 170.492 188.094C173.014 189.555 175.842 190.284 178.671 190.284C178.764 190.284 178.855 190.278 178.949 190.275V197.055C176.061 197.127 174.109 196.883 171.615 195.44ZM245.219 158.24C245.222 160.101 244.03 161.443 242.494 162.332L186.668 194.933C185.016 195.891 182.115 197.002 179.303 197.045L179.268 190.275C179.268 190.272 179.265 190.269 179.265 190.262C181.893 190.168 184.503 189.449 186.846 188.094L242.672 155.492C243.886 154.789 244.765 153.712 245.219 152.448V158.24Z" fill="#C5C5C5"/>
    <g opacity="0.3">
        <path d="M165.218 151.904C165.193 151.857 165.143 151.776 165.106 151.722C162.712 147.655 159.443 144.104 155.838 142.023C152.087 139.858 148.514 139.539 145.783 141.119C143.067 142.687 141.571 145.903 141.571 150.171C141.571 158.571 147.525 168.843 154.843 173.07C157.024 174.328 159.145 174.966 161.079 174.966C162.468 174.966 163.757 174.637 164.902 173.977C167.618 172.41 169.114 169.193 169.114 164.926C169.114 160.724 167.624 156.053 165.218 151.904ZM160.97 155.424L163.954 153.684C165.916 157.313 167.121 161.303 167.121 164.923C167.121 168.449 165.979 171.052 163.904 172.25C161.808 173.458 158.942 173.139 155.838 171.346C149.068 167.438 143.561 157.939 143.561 150.174C143.561 146.644 144.703 144.044 146.778 142.846C147.61 142.364 148.567 142.127 149.612 142.127C151.192 142.127 152.976 142.674 154.843 143.753C155.967 144.401 157.052 145.205 158.085 146.128M158.088 146.125C159.912 147.758 161.567 149.767 162.95 151.963L156.408 155.771C156.086 155.396 155.729 155.067 155.341 154.845C154.049 154.1 153.004 154.704 153.004 156.193C153.004 157.686 154.052 159.497 155.341 160.242C156.633 160.987 157.678 160.383 157.678 158.894C157.678 158.443 157.572 157.964 157.406 157.495L160.966 155.421" fill="#CDCDCD"/>
    </g>
    <path d="M163.998 153.515C163.951 153.503 163.901 153.509 163.86 153.534L157.315 157.348C157.24 157.392 157.209 157.479 157.237 157.561C157.412 158.049 157.5 158.499 157.5 158.9C157.5 159.554 157.287 160.039 156.905 160.261C156.52 160.483 155.998 160.424 155.428 160.098C154.19 159.382 153.179 157.636 153.179 156.203C153.179 155.549 153.392 155.064 153.773 154.842C154.158 154.62 154.681 154.679 155.25 155.005C155.594 155.205 155.938 155.502 156.27 155.893C156.326 155.959 156.42 155.975 156.492 155.931L163.034 152.123C163.075 152.098 163.106 152.057 163.119 152.014C163.131 151.967 163.122 151.917 163.097 151.876C161.686 149.633 159.993 147.599 158.201 146C157.14 145.052 156.039 144.245 154.928 143.603C153.032 142.508 151.242 141.955 149.609 141.955C148.526 141.955 147.541 142.205 146.687 142.699C144.556 143.929 143.383 146.585 143.383 150.18C143.383 158.002 148.93 167.57 155.748 171.506C157.644 172.601 159.455 173.154 161.066 173.154C162.143 173.154 163.128 172.907 163.989 172.41C166.119 171.18 167.293 168.524 167.293 164.929C167.293 161.434 166.16 157.411 164.105 153.606C164.083 153.559 164.045 153.528 163.998 153.515ZM163.814 172.097C161.774 173.273 158.973 172.951 155.926 171.193C149.205 167.313 143.739 157.883 143.739 150.174C143.739 146.71 144.85 144.163 146.865 143C147.666 142.537 148.589 142.302 149.609 142.302C151.158 142.302 152.938 142.856 154.753 143.904C155.841 144.533 156.921 145.324 157.966 146.257C159.693 147.799 161.326 149.748 162.7 151.904L156.442 155.546C156.114 155.18 155.773 154.892 155.425 154.692C154.746 154.298 154.093 154.241 153.595 154.529C153.098 154.817 152.822 155.408 152.822 156.197C152.822 157.742 153.911 159.629 155.25 160.399C155.932 160.793 156.583 160.852 157.08 160.561C157.578 160.273 157.853 159.682 157.853 158.894C157.853 158.49 157.775 158.046 157.615 157.573L161.051 155.574L163.876 153.928C165.85 157.636 166.936 161.531 166.936 164.923C166.942 168.386 165.832 170.933 163.814 172.097Z" fill="#C5C5C5"/>
    <path d="M167.631 137.18C169.902 135.869 171.157 133.034 171.157 129.195C171.157 125.435 169.93 121.111 167.706 117.021C167.684 116.981 167.643 116.95 167.6 116.937C167.553 116.924 167.503 116.931 167.462 116.956L160.328 121.111C160.253 121.155 160.222 121.242 160.25 121.324C160.438 121.846 160.532 122.328 160.532 122.76C160.532 123.464 160.303 123.986 159.887 124.224C159.471 124.465 158.908 124.402 158.298 124.049C156.968 123.282 155.889 121.408 155.889 119.875C155.889 119.171 156.117 118.648 156.533 118.411C156.949 118.17 157.512 118.232 158.123 118.586C158.492 118.799 158.861 119.121 159.215 119.537C159.271 119.603 159.365 119.618 159.437 119.575L166.558 115.426C166.598 115.401 166.63 115.36 166.642 115.316C166.655 115.269 166.645 115.219 166.62 115.179C165.112 112.795 163.304 110.636 161.389 108.934C160.272 107.939 159.111 107.094 157.941 106.418C155.917 105.248 154.005 104.657 152.262 104.657C151.108 104.657 150.06 104.923 149.143 105.451C146.872 106.765 145.62 109.6 145.62 113.436C145.62 121.793 151.546 132.011 158.83 136.216C160.854 137.386 162.791 137.978 164.508 137.978C165.66 137.975 166.714 137.712 167.631 137.18ZM145.98 113.433C145.98 109.728 147.169 107 149.328 105.755C150.188 105.261 151.177 105.01 152.269 105.01C153.927 105.01 155.829 105.602 157.772 106.725C158.92 107.388 160.059 108.22 161.161 109.2C163.007 110.842 164.756 112.917 166.229 115.213L159.393 119.196C159.042 118.802 158.676 118.495 158.304 118.279C157.578 117.86 156.89 117.797 156.361 118.104C155.832 118.411 155.541 119.04 155.541 119.875C155.541 121.521 156.702 123.532 158.129 124.355C158.852 124.775 159.543 124.837 160.072 124.53C160.601 124.224 160.892 123.595 160.892 122.76C160.892 122.328 160.807 121.852 160.638 121.342L167.487 117.353C169.63 121.342 170.807 125.544 170.807 129.199C170.807 132.903 169.618 135.631 167.459 136.877C165.278 138.137 162.278 137.793 159.014 135.91C151.824 131.758 145.98 121.674 145.98 113.433Z" fill="#C5C5C5"/>
    <g opacity="0.3">
        <path d="M162.831 139.783C163.407 139.88 163.97 139.927 164.521 139.927C166.004 139.927 167.384 139.577 168.607 138.87C171.507 137.192 173.106 133.757 173.106 129.195C173.106 120.216 166.742 109.24 158.92 104.722C154.916 102.407 151.095 102.066 148.173 103.756C145.27 105.433 143.671 108.868 143.671 113.43C143.671 122.406 150.035 133.385 157.857 137.903C159.568 138.891 161.245 139.52 162.831 139.783ZM161.276 109.065C163.226 110.798 164.993 112.932 166.473 115.272L159.352 119.421C159.008 119.018 158.626 118.67 158.213 118.433C156.834 117.635 155.713 118.282 155.713 119.875C155.713 121.467 156.834 123.407 158.213 124.202C159.593 125 160.713 124.352 160.713 122.76C160.713 122.278 160.601 121.768 160.422 121.264L167.556 117.109C169.677 121.011 170.985 125.306 170.985 129.199C170.985 132.969 169.765 135.75 167.55 137.03C165.309 138.325 162.249 137.981 158.927 136.063C151.693 131.886 145.805 121.733 145.805 113.436C145.805 109.666 147.025 106.884 149.24 105.605C150.132 105.092 151.152 104.835 152.269 104.835C153.955 104.835 155.861 105.42 157.86 106.575C159.039 107.25 160.188 108.095 161.276 109.065Z" fill="#CDCDCD"/>
    </g>
    <g opacity="0.3">
        <path d="M241.447 111.058C243.779 107.019 243.778 102.653 241.445 101.306C239.112 99.9592 235.33 102.141 232.999 106.18C230.667 110.219 230.668 114.585 233 115.932C235.333 117.279 239.115 115.097 241.447 111.058Z" fill="#CDCDCD"/>
    </g>
    <path d="M166.564 53.1419C166.517 53.1294 166.467 53.1356 166.426 53.1607L160.454 56.6398C160.379 56.6836 160.347 56.7712 160.376 56.8526C160.535 57.2937 160.613 57.7036 160.613 58.0697C160.613 58.661 160.422 59.099 160.078 59.2961C159.731 59.4964 159.259 59.4432 158.749 59.146C157.622 58.4952 156.705 56.9058 156.705 55.6042C156.705 55.0129 156.896 54.5749 157.24 54.3777C157.588 54.1775 158.06 54.2307 158.57 54.5279C158.883 54.7094 159.196 54.9785 159.496 55.3351C159.553 55.4008 159.647 55.4165 159.718 55.3727L165.685 51.8966C165.726 51.8716 165.757 51.8309 165.769 51.7871C165.782 51.7402 165.773 51.6901 165.748 51.6495C163.679 48.3612 161.033 45.6798 158.292 44.0967C157.553 43.6712 156.831 43.3395 156.13 43.0923C156.124 43.0892 156.117 43.0892 156.111 43.0861C155.176 42.7607 154.278 42.5886 153.43 42.5886C152.438 42.5886 151.54 42.817 150.758 43.2707C149.403 44.0529 148.455 45.4827 148.017 47.4069C147.829 48.2266 147.735 49.1371 147.735 50.107C147.735 57.2468 152.798 65.9823 159.024 69.5741C160.757 70.5753 162.412 71.0821 163.886 71.0821C164.868 71.0821 165.773 70.8569 166.561 70.4001C168.51 69.2737 169.583 66.8458 169.583 63.5637C169.583 60.3724 168.548 56.6993 166.671 53.2264C166.649 53.1857 166.611 53.1544 166.564 53.1419ZM150.939 43.5773C151.668 43.1581 152.507 42.9422 153.436 42.9422C154.052 42.9422 154.706 43.0454 155.388 43.2331C155.213 43.2863 155.047 43.3427 154.922 43.399L148.477 47.0815C148.924 45.4639 149.769 44.2531 150.939 43.5773ZM166.386 70.0966C164.53 71.1666 161.981 70.8725 159.205 69.2706C153.079 65.732 148.095 57.1373 148.095 50.1101C148.095 49.1934 148.183 48.3393 148.355 47.5633L155.085 43.7181C155.319 43.6117 155.764 43.4866 156.052 43.4459C156.727 43.6837 157.422 44.0028 158.123 44.4095C160.77 45.9395 163.335 48.5207 165.356 51.687L159.675 54.9972C159.377 54.6656 159.068 54.4059 158.752 54.2244C158.126 53.8615 157.525 53.8083 157.068 54.0743C156.608 54.3402 156.355 54.8846 156.355 55.6073C156.355 57.0215 157.353 58.7486 158.576 59.4557C159.202 59.8186 159.803 59.8718 160.263 59.6059C160.723 59.3399 160.976 58.7955 160.976 58.0728C160.976 57.7067 160.904 57.3031 160.763 56.8745L166.452 53.5611C168.247 56.9371 169.233 60.4819 169.233 63.5669C169.23 66.7175 168.219 69.0359 166.386 70.0966Z" fill="#C5C5C5"/>
    <g opacity="0.3">
        <path d="M134.396 65.0498C134.383 65.0247 134.321 64.9184 134.299 64.8902C132.537 61.9022 130.134 59.296 127.484 57.766C124.69 56.1547 122.025 55.9201 119.966 57.1059C117.926 58.2823 116.803 60.6852 116.803 63.864C116.803 70.0464 121.186 77.6117 126.574 80.7217C128.195 81.6572 129.771 82.1265 131.211 82.1265C132.252 82.1265 133.226 81.8793 134.089 81.3818C136.129 80.2054 137.252 77.8025 137.252 74.6237C137.258 71.5325 136.163 68.1003 134.396 65.0498ZM133.185 79.8081C131.714 80.6591 129.69 80.4213 127.484 79.1479C122.597 76.3258 118.621 69.4707 118.621 63.864C118.621 61.3578 119.421 59.5181 120.873 58.6796C121.452 58.3449 122.118 58.179 122.851 58.179C123.971 58.179 125.238 58.5701 126.574 59.3398C128.77 60.6069 130.776 62.6907 132.324 65.1061L127.688 67.8062C127.484 67.5903 127.262 67.4088 127.027 67.2712C126.086 66.7268 125.322 67.1679 125.322 68.2567C125.322 69.3455 126.086 70.6659 127.027 71.2103C127.969 71.7547 128.733 71.3135 128.733 70.2247C128.733 69.9525 128.683 69.6647 128.598 69.3768L133.241 66.6736C134.605 69.2485 135.438 72.0613 135.438 74.6206C135.441 77.1267 134.64 78.9696 133.185 79.8081Z" fill="#CDCDCD"/>
    </g>
    <g opacity="0.3">
        <path d="M158.558 81.1817C158.164 80.2337 157.704 79.3013 157.182 78.4002C157.169 78.3752 157.107 78.272 157.085 78.2438C155.323 75.2558 152.92 72.6465 150.27 71.1165C147.476 69.5052 144.811 69.2705 142.752 70.4563C140.712 71.6327 139.589 74.0356 139.589 77.2144C139.589 83.3968 143.972 90.959 149.36 94.0721C150.981 95.0076 152.558 95.4801 153.997 95.4801C155.039 95.4801 156.012 95.2329 156.875 94.7323C158.915 93.5559 160.038 91.153 160.038 87.9742C160.045 85.7966 159.5 83.4469 158.558 81.1817ZM153.9 81.2693L156.03 80.0303C157.395 82.6053 158.227 85.4211 158.227 87.9773C158.227 90.4835 157.426 92.3232 155.974 93.1617C154.504 94.0096 152.479 93.7749 150.274 92.5015C145.386 89.6794 141.41 82.8212 141.41 77.2176C141.41 74.7114 142.211 72.8717 143.662 72.0332C144.241 71.6985 144.908 71.5326 145.64 71.5326C146.76 71.5326 148.027 71.9237 149.363 72.6934C150.17 73.1596 150.952 73.7353 151.697 74.3986M151.697 74.3954C152.974 75.5343 154.138 76.9297 155.117 78.4565L150.477 81.1567C150.274 80.9408 150.051 80.7593 149.817 80.6216C148.875 80.0772 148.112 80.5184 148.112 81.6072C148.112 82.696 148.875 84.0163 149.817 84.5607C150.758 85.1051 151.522 84.664 151.522 83.5752C151.522 83.303 151.475 83.0151 151.387 82.7273L153.9 81.263" fill="#CDCDCD"/>
    </g>
    <g opacity="0.3">
        <path d="M189.279 97.9518C189.267 97.9267 189.204 97.8266 189.185 97.7985C187.424 94.8105 185.021 92.2011 182.371 90.6712C179.58 89.0599 176.908 88.8221 174.853 90.011C172.813 91.1874 171.689 93.5872 171.689 96.7691C171.689 102.955 176.073 110.514 181.461 113.627C183.081 114.562 184.658 115.035 186.1 115.035C187.142 115.035 188.115 114.788 188.979 114.29C191.019 113.114 192.142 110.711 192.142 107.532C192.142 104.438 191.047 101.005 189.279 97.9518ZM173.62 98.4461C173.548 97.8798 173.507 97.3198 173.507 96.7722C173.507 94.2661 174.308 92.4264 175.76 91.5879C176.339 91.2531 177.005 91.0873 177.737 91.0873C178.857 91.0873 180.125 91.4784 181.461 92.2481C182.221 92.6861 182.962 93.2242 183.666 93.8406M183.666 93.8375C184.993 94.9982 186.201 96.4343 187.211 98.0112L182.571 100.711C182.368 100.495 182.146 100.314 181.911 100.179C180.969 99.635 180.206 100.076 180.206 101.165C180.206 102.254 180.969 103.574 181.911 104.119C182.853 104.663 183.616 104.222 183.616 103.133C183.616 102.861 183.569 102.573 183.482 102.285L188.125 99.5819C189.489 102.157 190.321 104.973 190.321 107.529C190.321 110.035 189.52 111.875 188.068 112.713C186.598 113.561 184.574 113.326 182.368 112.053C177.959 109.509 174.293 103.677 173.617 98.4461" fill="#CDCDCD"/>
    </g>
    <path d="M133.292 66.5078C133.245 66.4953 133.195 66.5016 133.154 66.5266L128.511 69.2298C128.439 69.2705 128.408 69.355 128.43 69.4332C128.514 69.7116 128.558 69.9807 128.558 70.2279C128.558 70.6878 128.411 71.0257 128.148 71.179C127.882 71.3323 127.519 71.2885 127.119 71.0601C126.227 70.5439 125.501 69.2893 125.501 68.2599C125.501 67.8 125.648 67.4621 125.911 67.3088C126.177 67.1555 126.54 67.1993 126.941 67.4277C127.153 67.5497 127.36 67.7186 127.56 67.9283C127.616 67.9877 127.71 68.0002 127.779 67.9596L132.419 65.2594C132.46 65.2344 132.491 65.1937 132.504 65.1468C132.516 65.0999 132.507 65.0498 132.482 65.0091C130.858 62.4811 128.796 60.4099 126.668 59.1834C125.307 58.3981 124.025 57.9976 122.858 57.9976C122.088 57.9976 121.393 58.1728 120.793 58.5232C119.281 59.393 118.449 61.2922 118.449 63.8609C118.449 69.5239 122.467 76.4478 127.401 79.2981C128.765 80.0866 130.063 80.4839 131.215 80.4839C131.975 80.4839 132.673 80.3087 133.279 79.9583C134.791 79.0854 135.623 77.1894 135.623 74.6207C135.623 72.1427 134.834 69.2924 133.405 66.5923C133.38 66.5516 133.339 66.5203 133.292 66.5078ZM133.098 79.6548C131.687 80.4714 129.725 80.2368 127.576 78.9946C122.739 76.2007 118.803 69.4144 118.803 63.864C118.803 61.4236 119.572 59.6371 120.968 58.833C121.515 58.517 122.151 58.3543 122.858 58.3543C123.946 58.3543 125.204 58.7485 126.493 59.4932C128.527 60.6664 130.507 62.6344 132.084 65.0467L127.726 67.5841C127.532 67.3932 127.332 67.2399 127.125 67.1211C126.612 66.8238 126.121 66.7831 125.742 67.0022C125.364 67.2212 125.154 67.6686 125.154 68.2599C125.154 69.4019 125.958 70.7942 126.947 71.3668C127.46 71.664 127.951 71.7047 128.33 71.4856C128.708 71.2666 128.918 70.8192 128.918 70.2279C128.918 69.9839 128.884 69.7273 128.812 69.4645L133.176 66.9239C134.525 69.5239 135.266 72.2522 135.266 74.6238C135.263 77.0611 134.493 78.8507 133.098 79.6548Z" fill="#C5C5C5"/>
    <path d="M182.281 112.206C183.645 112.992 184.944 113.392 186.095 113.392C186.855 113.392 187.553 113.217 188.16 112.87C189.671 111.997 190.503 110.101 190.503 107.532C190.503 105.054 189.715 102.204 188.285 99.5036C188.263 99.4598 188.223 99.4286 188.179 99.416C188.132 99.4035 188.082 99.4098 188.041 99.4317L183.398 102.135C183.326 102.176 183.295 102.26 183.317 102.338C183.401 102.617 183.445 102.883 183.445 103.133C183.445 103.593 183.298 103.931 183.035 104.084C182.769 104.237 182.406 104.194 182.006 103.965C181.114 103.452 180.388 102.194 180.388 101.165C180.388 100.705 180.535 100.367 180.798 100.214C181.064 100.061 181.43 100.104 181.827 100.333C182.04 100.455 182.247 100.624 182.447 100.833C182.503 100.893 182.597 100.905 182.666 100.865L187.306 98.1645C187.346 98.1395 187.378 98.0988 187.39 98.0519C187.403 98.005 187.393 97.9549 187.368 97.9142C186.333 96.2998 185.097 94.8449 183.789 93.7029C183.063 93.0678 182.312 92.5265 181.555 92.0885C180.194 91.3032 178.911 90.9027 177.744 90.9027C176.978 90.9027 176.283 91.0779 175.679 91.4283C174.168 92.3013 173.336 94.1973 173.336 96.766C173.33 102.432 177.347 109.356 182.281 112.206ZM175.851 91.7381C176.399 91.4221 177.034 91.2594 177.741 91.2594C178.83 91.2594 180.088 91.6536 181.377 92.3983C182.112 92.8238 182.844 93.3525 183.554 93.972C184.793 95.0546 185.973 96.4281 186.968 97.9518L182.61 100.489C182.419 100.301 182.215 100.145 182.009 100.026C181.496 99.7289 181.005 99.6882 180.626 99.9072C180.247 100.126 180.038 100.574 180.038 101.165C180.038 102.307 180.842 103.702 181.831 104.272C182.344 104.569 182.835 104.61 183.213 104.391C183.592 104.172 183.802 103.724 183.802 103.133C183.802 102.889 183.767 102.632 183.698 102.37L188.063 99.829C189.411 102.432 190.153 105.16 190.153 107.529C190.153 109.969 189.383 111.756 187.988 112.56C186.574 113.373 184.612 113.139 182.462 111.9C177.625 109.106 173.689 102.32 173.689 96.7691C173.686 94.3318 174.453 92.5453 175.851 91.7381Z" fill="#C5C5C5"/>
    <path d="M204.668 104.438C203.307 103.652 202.025 103.252 200.858 103.252C200.088 103.252 199.393 103.427 198.793 103.778C197.281 104.647 196.449 106.546 196.449 109.115C196.449 114.778 200.467 121.702 205.401 124.552C206.765 125.338 208.063 125.738 209.215 125.738C209.975 125.738 210.673 125.563 211.279 125.213C212.791 124.343 213.623 122.444 213.623 119.875C213.623 117.35 212.806 114.443 211.323 111.696C211.301 111.656 211.261 111.624 211.217 111.609C211.173 111.596 211.12 111.603 211.079 111.628L206.12 114.515C206.048 114.556 206.017 114.641 206.039 114.719C206.123 114.997 206.167 115.266 206.167 115.513C206.167 115.973 206.02 116.311 205.757 116.465C205.491 116.618 205.125 116.574 204.728 116.346C203.836 115.833 203.11 114.575 203.11 113.545C203.11 113.086 203.257 112.748 203.52 112.594C203.783 112.441 204.149 112.485 204.55 112.713C204.762 112.835 204.969 113.004 205.169 113.214C205.225 113.273 205.319 113.286 205.388 113.245L210.335 110.364C210.375 110.339 210.407 110.298 210.419 110.251C210.432 110.204 210.422 110.154 210.394 110.113C208.789 107.66 206.755 105.642 204.668 104.438ZM205.329 112.873C205.138 112.685 204.934 112.529 204.728 112.41C204.218 112.113 203.724 112.072 203.345 112.291C202.966 112.51 202.757 112.957 202.757 113.549C202.757 114.691 203.561 116.083 204.553 116.655C205.066 116.953 205.557 116.993 205.936 116.774C206.314 116.555 206.524 116.108 206.524 115.517C206.524 115.276 206.489 115.019 206.417 114.753L211.101 112.025C212.503 114.675 213.269 117.453 213.269 119.875C213.269 122.315 212.5 124.102 211.104 124.906C209.69 125.719 207.728 125.485 205.579 124.246C200.742 121.452 196.806 114.666 196.806 109.115C196.806 106.675 197.576 104.888 198.971 104.084C199.519 103.768 200.154 103.605 200.858 103.605C201.946 103.605 203.204 104 204.493 104.744C206.489 105.896 208.435 107.814 209.994 110.157L205.329 112.873Z" fill="#C5C5C5"/>
    <g opacity="0.3">
        <path d="M205.488 103.017C202.697 101.406 200.025 101.168 197.97 102.357C195.93 103.533 194.807 105.933 194.807 109.115C194.807 115.301 199.19 122.863 204.578 125.973C206.198 126.908 207.775 127.378 209.215 127.378C210.26 127.378 211.229 127.13 212.096 126.633C214.136 125.457 215.259 123.054 215.259 119.875C215.259 113.689 210.876 106.127 205.488 103.017ZM211.189 125.059C209.721 125.907 207.697 125.672 205.488 124.399C200.601 121.577 196.624 114.722 196.624 109.115C196.624 106.609 197.425 104.769 198.877 103.931C199.456 103.596 200.122 103.43 200.855 103.43C201.975 103.43 203.242 103.821 204.578 104.591C206.73 105.833 208.705 107.86 210.241 110.216L205.294 113.098C205.091 112.882 204.869 112.701 204.634 112.563C203.692 112.019 202.929 112.46 202.929 113.549C202.929 114.637 203.692 115.958 204.634 116.502C205.576 117.046 206.339 116.605 206.339 115.517C206.339 115.244 206.292 114.956 206.205 114.669L211.164 111.781C212.575 114.396 213.441 117.269 213.441 119.875C213.441 122.378 212.641 124.221 211.189 125.059Z" fill="#CDCDCD"/>
    </g>
    <g opacity="0.3">
        <path d="M180.86 89.8702L177.828 89.2038L175.61 89.5667L173.97 90.5054L167.747 86.8792L167.807 72.2304C167.813 71.0039 169.171 70.3093 169.753 70.6316L184.248 78.7069L184.189 91.6974L180.86 89.8702Z" fill="#CDCDCD"/>
    </g>
    <path d="M156.076 79.8581C156.029 79.8456 155.979 79.8518 155.939 79.8769L153.808 81.1159L151.295 82.5801C151.223 82.6208 151.192 82.7053 151.214 82.7835C151.299 83.0619 151.342 83.331 151.342 83.5782C151.342 84.0381 151.198 84.376 150.933 84.5293C150.667 84.6826 150.304 84.6388 149.903 84.4104C149.011 83.8973 148.286 82.6396 148.286 81.6102C148.286 81.1503 148.433 80.8124 148.695 80.6591C148.961 80.5057 149.324 80.5496 149.725 80.778C149.938 80.9 150.147 81.0689 150.344 81.2786C150.401 81.338 150.494 81.3505 150.563 81.3098L155.203 78.6097C155.244 78.5847 155.275 78.544 155.288 78.4971C155.3 78.4502 155.291 78.4001 155.266 78.3594C154.265 76.8013 153.073 75.384 151.815 74.2608C151.048 73.5787 150.254 72.9968 149.453 72.5337C148.092 71.7484 146.809 71.3479 145.642 71.3479C144.872 71.3479 144.178 71.5231 143.577 71.8735C142.066 72.7465 141.233 74.6425 141.233 77.2112C141.233 82.8711 145.251 89.7981 150.185 92.6484C151.549 93.4337 152.847 93.8342 153.996 93.8342C154.756 93.8342 155.454 93.659 156.061 93.3086C157.572 92.4357 158.404 90.5396 158.404 87.9709C158.404 85.4961 157.616 82.6427 156.186 79.9426C156.164 79.9019 156.123 79.8706 156.076 79.8581ZM155.882 93.0051C154.468 93.8217 152.509 93.587 150.36 92.3449C145.523 89.551 141.587 82.7616 141.587 77.2143C141.587 74.7739 142.357 72.9874 143.752 72.1833C144.3 71.8673 144.935 71.7046 145.642 71.7046C146.731 71.7046 147.988 72.0988 149.277 72.8434C150.06 73.294 150.832 73.8603 151.58 74.5298C152.772 75.5936 153.905 76.9265 154.865 78.4001L150.507 80.9375C150.316 80.7498 150.113 80.5934 149.906 80.4745C149.393 80.1772 148.902 80.1366 148.523 80.3556C148.145 80.5746 147.935 81.022 147.935 81.6133C147.935 82.7553 148.739 84.1507 149.731 84.7202C150.244 85.0174 150.735 85.0581 151.114 84.8391C151.493 84.62 151.702 84.1726 151.702 83.5813C151.702 83.3373 151.668 83.0807 151.596 82.8179L153.989 81.4256L155.96 80.2774C157.309 82.8805 158.05 85.6056 158.05 87.9772C158.047 90.4114 157.278 92.1979 155.882 93.0051Z" fill="#C5C5C5"/>
    <path d="M242.44 101.941C242.759 101.253 242.928 100.43 242.928 99.4817C242.928 98.6275 242.784 97.6889 242.499 96.6939C241.836 94.363 240.406 92.0133 238.679 90.4052C238.104 89.8701 237.512 89.4259 236.927 89.0848C236.054 88.5811 234.365 87.8365 232.857 88.5279L226.443 92.1917L219.719 88.3809C219.8 87.9647 219.847 87.5173 219.847 87.0449C219.847 86.1907 219.703 85.2521 219.419 84.2572C218.755 81.9263 217.326 79.5766 215.598 77.9684C215.023 77.4334 214.431 76.9891 213.846 76.6481C212.973 76.1443 211.287 75.3997 209.776 76.0911L203.963 79.4107L201.291 77.837C201.303 77.812 201.313 77.7838 201.313 77.7525V68.9388C201.313 68.8763 201.278 68.8168 201.225 68.7855C201.219 68.7824 201.212 68.7824 201.206 68.7793L195.471 65.4972C195.471 62.6407 195.468 51.7964 195.468 51.7902C195.456 50.8265 195.068 49.8722 194.354 49.0087L203.797 43.6085L203.9 43.549C205.324 42.698 206.106 40.9522 206.106 38.6369C206.106 37.5731 205.927 36.403 205.571 35.1609C204.742 32.2543 202.958 29.3195 200.803 27.314C200.086 26.6475 199.351 26.0938 198.619 25.6714C197.818 25.2083 197.023 24.8954 196.26 24.739V24.3855C196.26 24.3855 196.26 24.3855 196.26 24.3823C196.26 24.3729 196.26 24.3667 196.26 24.3573C196.26 22.4581 194.989 20.6779 192.677 19.345C192.164 19.0509 191.607 18.7819 191.016 18.5441C190.64 18.0748 190.134 17.643 189.486 17.2676C188.782 16.8608 187.962 16.5479 187.058 16.3321V10.3405C187.058 8.82306 185.825 7.59033 184.308 7.59033C182.79 7.59033 181.558 8.82306 181.558 10.3405V16.2851C180.588 16.4979 179.718 16.8201 178.976 17.2488C178.344 17.6148 177.847 18.0372 177.478 18.494C176.868 18.7349 176.292 19.0103 175.763 19.3138C173.489 20.6278 172.234 22.3893 172.234 24.2728C172.234 24.3041 172.237 24.3354 172.237 24.3698C172.237 24.3761 172.234 24.3823 172.234 24.3886V36.1245C172.218 36.453 172.253 36.7815 172.331 37.1069L163.189 42.3288C163.057 42.3945 162.763 42.5729 162.76 42.576C162.228 42.9358 161.79 43.4395 161.455 44.0621C160.72 43.4802 159.969 42.964 159.206 42.5228C155.73 40.5173 152.41 40.2232 149.854 41.6968C148.324 42.5791 147.213 44.0215 146.569 45.8925L141.735 43.0484C140.605 42.4321 139.141 42.7575 137.646 43.621C134.304 45.5514 131.585 50.2602 131.585 54.1179C131.585 54.994 131.723 55.7699 131.995 56.427C132.005 56.4457 132.02 56.4802 132.02 56.4802L130.631 57.2749C130.528 57.3249 130.284 57.4782 130.277 57.4814C129.839 57.7786 129.48 58.201 129.211 58.7203C128.676 58.3073 128.128 57.9288 127.574 57.6096C124.727 55.967 121.993 55.7324 119.881 56.9495C117.784 58.1603 116.63 60.6164 116.63 63.864C116.63 70.1058 121.054 77.7369 126.492 80.875C128.137 81.823 129.727 82.3048 131.219 82.3048C132.305 82.3048 133.303 82.0451 134.188 81.5352C136.285 80.3243 137.439 77.8683 137.439 74.6238C137.439 73.9573 137.38 73.269 137.283 72.5682C137.314 72.5682 137.348 72.5713 137.38 72.5713C138.084 72.5713 138.713 72.3648 139.241 71.9894C139.251 71.9862 139.263 71.9862 139.273 71.98L151.472 65.0279C153.03 67.0929 154.797 68.8669 156.665 70.2028C155.523 69.6803 154.444 69.5614 153.518 69.8681C152.651 70.1559 151.975 70.8004 151.565 71.7484V71.7516C151.168 71.4669 150.771 71.1978 150.364 70.9631C147.514 69.3174 144.779 69.0859 142.67 70.303C140.574 71.5138 139.42 73.9698 139.42 77.2144C139.42 83.4531 143.844 91.0841 149.282 94.2254C150.924 95.1734 152.517 95.6552 154.009 95.6552C155.095 95.6552 156.093 95.3955 156.978 94.8855C159.074 93.6747 160.229 91.2218 160.229 87.9741C160.229 87.1262 160.141 86.2345 159.982 85.3241C160.554 85.3053 161.077 85.1551 161.534 84.8861C161.543 84.8829 161.556 84.8829 161.565 84.8767L167.582 81.4382V86.8822C167.582 86.9448 167.616 87.0042 167.669 87.0355L173.783 90.596C172.322 91.9414 171.53 94.0846 171.53 96.7722C171.53 97.5982 171.611 98.4523 171.758 99.3127C170.814 99.854 163.58 103.987 163.567 104.009C162.751 104.544 162.122 105.361 161.706 106.415C160.836 105.724 159.941 105.104 159.024 104.575C154.96 102.229 151.084 101.885 148.099 103.608C145.139 105.317 143.509 108.808 143.509 113.436C143.509 122.469 149.914 133.516 157.782 138.062C159.437 139.017 161.067 139.642 162.635 139.93L160.633 141.075C159.647 141.554 158.896 142.414 158.436 143.591C157.62 142.943 156.787 142.367 155.939 141.879C152.132 139.683 148.496 139.361 145.705 140.975C142.933 142.577 141.403 145.847 141.403 150.18C141.403 158.637 147.398 168.977 154.766 173.233C156.972 174.506 159.1 175.15 161.089 175.15C162.522 175.15 163.836 174.809 165 174.137C167.772 172.535 169.302 169.265 169.302 164.932C169.302 163.943 169.218 162.92 169.061 161.878C169.324 161.916 169.584 161.938 169.834 161.938C170.623 161.938 171.349 161.756 171.981 161.403H171.984C171.993 161.396 173.482 160.555 173.482 160.555C173.482 160.555 173.482 161.359 173.501 161.45C173.792 162.936 174.903 164.272 176.714 165.32C178.87 166.565 181.698 167.188 184.521 167.188C187.321 167.188 190.115 166.575 192.239 165.348C194.27 164.175 195.484 162.707 195.484 161.418V154.654C195.484 154.641 195.484 154.629 195.484 154.62C195.477 153.374 194.896 151.563 192.164 150.014L205.005 142.765C206.65 141.854 207.633 139.711 207.633 137.033C207.633 135.869 207.436 134.586 207.048 133.225C206.14 130.04 204.188 126.83 201.826 124.631C201.04 123.902 200.236 123.295 199.432 122.832C198.422 122.246 196.898 121.583 195.33 121.708V118.22C195.33 118.207 195.33 118.195 195.33 118.182C195.33 118.179 195.327 118.176 195.327 118.173C195.312 117.14 194.874 116.114 194.051 115.207L194.113 115.169L195.543 114.353C197.101 119.149 200.527 123.845 204.501 126.139C206.143 127.087 207.736 127.568 209.228 127.568C210.314 127.568 211.312 127.309 212.198 126.799C214.294 125.588 215.448 123.135 215.448 119.887C215.448 119.183 215.386 118.458 215.276 117.729C215.361 117.735 215.442 117.747 215.523 117.747C216.212 117.747 216.841 117.516 217.366 117.062C217.394 117.04 217.416 117.009 217.441 116.987H217.444L225.995 112.106C227.316 112.863 231.721 115.385 232.725 115.961C232.791 116.008 232.853 116.058 232.922 116.098C233.414 116.38 233.967 116.521 234.565 116.521C235.413 116.521 236.351 116.239 237.321 115.679C240.663 113.749 243.382 109.04 243.382 105.182C243.382 103.818 243.05 102.717 242.44 101.941ZM226.083 92.3951L209.363 101.947C208.815 101.631 205.646 99.7945 205.608 99.7726C205.139 99.4785 204.779 99.0937 204.516 98.6119C204.51 98.6056 204.457 98.4899 204.454 98.4961C204.138 97.861 203.978 97.0694 203.978 96.0776C203.978 92.3325 206.619 87.7614 209.86 85.8872C211.35 85.0268 212.651 84.836 213.615 85.3241L226.083 92.3951ZM209.006 102.147L208.562 102.401C208.459 102.454 208.355 102.51 208.258 102.573L208.224 102.592C208.221 102.595 208.218 102.598 208.215 102.598C207.758 102.908 207.379 103.346 207.107 103.893C206.606 103.515 206.1 103.161 205.577 102.858C203.428 101.619 201.347 101.181 199.548 101.562L204.254 98.8778C204.541 99.3628 204.923 99.7601 205.421 100.07C205.449 100.086 208.099 101.622 209.006 102.147ZM209.932 76.4009C211.281 75.7845 212.848 76.4791 213.662 76.9515C214.225 77.2769 214.794 77.7056 215.351 78.2218C217.035 79.7893 218.427 82.0796 219.074 84.3479C219.35 85.3147 219.491 86.2189 219.491 87.0386C219.491 87.4454 219.453 87.8271 219.387 88.1869L213.784 85.0112C212.701 84.4605 211.281 84.6577 209.685 85.5775C206.344 87.5079 203.625 92.2167 203.625 96.0745C203.625 97.0788 203.778 97.8985 204.088 98.5649L194.936 103.787C195.421 103.036 195.675 102.041 195.675 100.852C195.675 97.0287 192.981 92.3669 189.671 90.4552C188.641 89.8608 187.656 89.5854 186.764 89.6292L209.932 76.4009ZM194.157 104.178C194.085 104.244 194.013 104.303 193.935 104.363C193.935 104.363 193.531 104.622 193.391 104.675C193.106 104.791 192.571 104.907 192.073 104.894C191.67 102.595 190.772 100.176 189.436 97.8672C189.414 97.8297 189.351 97.7233 189.339 97.7077C187.928 95.311 186.173 93.2648 184.277 91.763C184.533 91.1936 184.896 90.7431 185.35 90.4427L185.688 90.2487C185.775 90.2081 185.866 90.1705 185.96 90.1392C186.952 89.8013 188.206 90.0235 189.495 90.7681C192.709 92.6234 195.321 97.1507 195.321 100.858C195.321 102.326 194.921 103.474 194.157 104.178ZM203.606 79.6078L187.778 88.6499C187.524 88.0367 187.393 87.314 187.393 86.4848C187.393 82.7397 190.033 78.1655 193.275 76.2945C194.77 75.431 196.106 75.2339 197.026 75.7313L203.606 79.6078ZM200.956 77.6367L197.198 75.4216C196.156 74.8584 194.702 75.0587 193.093 75.9879C189.752 77.9183 187.033 82.6271 187.033 86.4848C187.033 87.3765 187.183 88.1619 187.465 88.8251L185.531 89.9296C185.403 89.989 185.281 90.0641 185.162 90.1392L185.143 90.1517C185.137 90.1549 185.134 90.1611 185.128 90.1643C184.89 90.3269 184.674 90.5241 184.483 90.7556V78.7756L200.956 69.2454V77.6367ZM195.471 66.1824C195.471 66.1824 195.471 66.0791 195.471 65.9039L200.774 68.9388L184.27 78.4878L169.443 70.2529C169.947 69.6115 170.354 68.8606 170.67 68.0252L173.432 66.4202C173.52 68.0722 174.646 69.6115 176.658 70.7723C178.692 71.9455 181.561 72.6214 184.527 72.6245C187.44 72.6214 190.177 71.9675 192.23 70.7817C194.339 69.5614 195.49 67.9282 195.471 66.1824ZM171.258 61.3579C171.374 61.3673 171.492 61.3766 171.605 61.3766C172.265 61.3766 172.872 61.2296 173.414 60.9605V66.0166L170.842 67.5121C171.208 66.3451 171.405 65.0248 171.405 63.5636C171.405 62.8534 171.352 62.1119 171.258 61.3579ZM195.118 66.1824C195.136 67.7968 194.048 69.3205 192.051 70.4719C190.052 71.6264 187.377 72.2647 184.527 72.2678C181.62 72.2647 178.817 71.6076 176.836 70.4625C174.843 69.3111 173.751 67.7874 173.77 66.1699V60.7728L179.455 57.522C181.029 57.9757 182.778 58.2197 184.527 58.2229C187.421 58.2197 190.134 57.5752 192.183 56.4051C192.199 56.4019 192.214 56.4019 192.23 56.3925C192.583 56.1892 192.903 55.967 193.2 55.7418C193.212 55.7324 193.225 55.723 193.237 55.7105C193.497 55.5102 193.738 55.3037 193.954 55.0879C193.982 55.0597 194.01 55.0315 194.038 55.0065C194.135 54.9064 194.226 54.8063 194.314 54.7061C194.367 54.6467 194.414 54.5841 194.461 54.5247C194.567 54.3901 194.667 54.2525 194.755 54.1148C194.82 54.0147 194.883 53.9177 194.939 53.8145C194.983 53.7362 195.021 53.658 195.058 53.5767C195.077 53.536 195.099 53.4985 195.118 53.4578V66.1824ZM195.115 51.8183C195.118 52.2282 195.039 52.516 195.03 52.563C194.748 53.8833 193.719 55.1098 192.051 56.0734C190.052 57.2279 187.377 57.8662 184.527 57.8693C182.937 57.8693 181.351 57.6566 179.899 57.2717L194.044 49.1839C194.736 50.0036 195.105 50.911 195.115 51.8183ZM181.911 10.3405C181.911 9.02017 182.984 7.94388 184.308 7.94388C185.628 7.94388 186.704 9.02017 186.704 10.3405V17.8213C186.704 19.1417 185.628 20.218 184.308 20.218C182.988 20.218 181.911 19.1417 181.911 17.8213V10.3405ZM179.152 17.5554C179.843 17.1549 180.653 16.8546 181.558 16.6481V17.8213C181.558 19.3388 182.79 20.5715 184.308 20.5715C185.825 20.5715 187.058 19.3388 187.058 17.8213V16.695C187.897 16.9046 188.657 17.1956 189.311 17.571C190.644 18.3407 191.379 19.3513 191.379 20.4182C191.379 21.4757 190.656 22.4738 189.342 23.2309C186.551 24.8422 181.993 24.8329 179.183 23.2122C177.85 22.4425 177.115 21.4319 177.115 20.365C177.118 19.3138 177.841 18.3126 179.152 17.5554ZM191.376 21.7636V24.9768C191.388 26.0437 190.665 27.0511 189.342 27.8146C186.551 29.4259 181.996 29.4196 179.183 27.7958C177.894 27.0511 177.162 26.0718 177.121 25.0362C177.121 25.0237 177.118 25.0081 177.115 24.9956V21.7135C177.481 22.3893 178.119 23.0088 179.005 23.5219C180.463 24.3636 182.381 24.7859 184.289 24.7859C186.185 24.7859 188.075 24.3698 189.514 23.5407C190.39 23.0401 191.016 22.43 191.376 21.7636ZM175.942 19.6204C176.308 19.4107 176.702 19.2199 177.112 19.0384C176.886 19.4608 176.764 19.9082 176.764 20.3681C176.764 20.3838 176.768 20.4026 176.768 20.4182C176.768 20.4245 176.764 20.4307 176.764 20.437V25.0425C176.764 25.0613 176.768 25.0769 176.774 25.0957C176.836 26.2408 177.628 27.3046 179.011 28.1024C180.469 28.944 182.387 29.3664 184.295 29.3664C186.191 29.3664 188.081 28.9503 189.52 28.1212C190.96 27.2921 191.745 26.172 191.732 24.9768V20.4401V20.437C191.732 20.4338 191.732 20.4276 191.732 20.4245C191.732 19.9645 191.613 19.5202 191.388 19.0947C191.776 19.2699 192.155 19.4545 192.502 19.6548C194.698 20.9219 195.906 22.5927 195.906 24.3604C195.906 26.1125 194.714 27.7645 192.555 29.0129C188.003 31.641 180.572 31.6285 175.992 28.9816C173.795 27.7144 172.588 26.0437 172.588 24.2759C172.588 22.5207 173.78 20.8687 175.942 19.6204ZM195.906 26.0656V36.0119C195.925 37.7796 194.736 39.4441 192.555 40.705C188.003 43.3331 180.572 43.3206 175.992 40.6737C173.723 39.3628 172.516 37.7546 172.588 36.1308V25.9811C173.113 27.2232 174.215 28.3621 175.813 29.2851C178.163 30.6398 181.245 31.3188 184.32 31.3188C187.371 31.3188 190.415 30.6492 192.73 29.3132C194.301 28.409 195.384 27.2921 195.906 26.0656ZM172.437 37.4542C172.882 38.7339 174.039 39.951 175.816 40.9803C178.166 42.3351 181.248 43.014 184.323 43.014C187.374 43.014 190.418 42.3476 192.734 41.0085C195.03 39.6819 196.282 37.9079 196.263 36.0088V25.1051C196.967 25.2584 197.699 25.5493 198.444 25.978C199.154 26.3879 199.867 26.926 200.565 27.5736C202.677 29.5385 204.419 32.4107 205.233 35.2579C205.577 36.4687 205.752 37.6044 205.752 38.6369C205.752 40.8239 205.03 42.4602 203.719 43.2456L193.979 48.8147C193.973 48.8178 193.966 48.8178 193.96 48.821C193.957 48.821 193.96 48.8241 193.957 48.8272L179.393 57.1528C179.33 57.1528 179.277 57.1841 179.242 57.2373L174.806 59.7747C175.504 58.8236 175.876 57.5126 175.876 55.9201C175.876 51.155 172.516 45.3355 168.389 42.9546C167.034 42.1724 165.732 41.8376 164.575 41.9471L172.437 37.4542ZM162.989 42.8513L163.358 42.6386C163.527 42.5572 163.699 42.4821 163.88 42.4289C165.129 42.0566 166.624 42.3413 168.21 43.2581C172.24 45.5858 175.519 51.2645 175.519 55.917C175.519 57.7974 174.997 59.2585 174.005 60.1439C173.27 60.8009 172.306 61.0919 171.211 60.9981C170.776 57.9162 169.609 54.6717 167.835 51.6118C167.816 51.568 167.738 51.446 167.722 51.4241C166.042 48.5738 163.974 46.1177 161.734 44.2812C162.05 43.6773 162.475 43.1924 162.989 42.8513ZM131.945 54.1179C131.945 50.3728 134.586 45.7986 137.827 43.9276C139.223 43.1204 140.562 42.9264 141.579 43.3644L146.459 46.2366C146.247 46.9343 146.096 47.6884 146.012 48.4893L132.333 56.3049C132.33 56.2987 132.33 56.2987 132.327 56.2924C132.073 55.6792 131.945 54.9471 131.945 54.1179ZM134.01 81.2285C133.181 81.7072 132.239 81.9513 131.219 81.9513C129.793 81.9513 128.259 81.4851 126.67 80.5684C121.329 77.4866 116.987 69.9932 116.987 63.864C116.987 60.7478 118.079 58.4012 120.059 57.2592C120.894 56.7774 121.839 56.5365 122.853 56.5365C124.264 56.5365 125.81 56.9995 127.402 57.9194C129.93 59.3805 132.327 61.8866 134.16 64.9966C134.176 65.0185 134.226 65.0998 134.242 65.128C134.245 65.1311 134.245 65.1374 134.248 65.1405C136.078 68.2974 137.083 71.6671 137.083 74.6238C137.083 77.7369 135.991 80.0834 134.01 81.2285ZM137.233 72.2115C136.851 69.8493 135.934 67.3494 134.558 64.9684C134.533 64.9215 134.47 64.8183 134.454 64.8026C133.068 62.4498 131.354 60.4318 129.498 58.9393C129.752 58.4325 130.096 58.0289 130.518 57.7504L130.813 57.5815C130.925 57.5251 131.041 57.4751 131.163 57.4375C132.161 57.1184 133.366 57.3406 134.648 58.0821C137.862 59.9374 140.474 64.4647 140.474 68.1723C140.474 69.6397 140.07 70.791 139.307 71.495C138.763 71.9987 138.049 72.2459 137.233 72.2115ZM140.089 71.107C140.574 70.3561 140.831 69.3581 140.831 68.1723C140.831 64.3489 138.137 59.6871 134.827 57.7754C133.8 57.1841 132.815 56.9057 131.926 56.9463L145.974 48.9211C145.946 49.3059 145.927 49.7002 145.927 50.1069C145.927 53.3483 146.916 57.084 148.715 60.6195C149.46 62.0806 150.314 63.4666 151.253 64.7432L140.089 71.107ZM156.794 94.5789C155.965 95.0576 155.026 95.3017 154.003 95.3017C152.573 95.3017 151.043 94.8355 149.454 93.9187C144.113 90.8338 139.77 83.3404 139.77 77.2144C139.77 74.0981 140.862 71.7516 142.843 70.6096C143.678 70.1278 144.62 69.8868 145.633 69.8868C147.044 69.8868 148.59 70.3499 150.183 71.2697C152.711 72.7309 155.107 75.2401 156.944 78.3501C156.959 78.372 157.013 78.4533 157.028 78.4909C157.548 79.3888 158.008 80.3149 158.396 81.2504C159.359 83.5688 159.866 85.8935 159.866 87.9741C159.866 91.0904 158.774 93.4338 156.794 94.5789ZM159.904 84.9674C159.653 83.7065 159.259 82.4081 158.724 81.1128C158.33 80.1648 157.864 79.223 157.344 78.3251C157.329 78.2938 157.254 78.1718 157.241 78.153C155.752 75.625 153.878 73.488 151.863 71.9706L151.897 71.8767C152.263 71.0351 152.861 70.4563 153.63 70.2028C154.632 69.8712 155.842 70.0933 157.138 70.8411C160.351 72.6964 162.964 77.2237 162.964 80.9313C162.964 82.3643 162.579 83.4938 161.85 84.204C161.337 84.7015 160.658 84.958 159.904 84.9674ZM167.569 81.0377C167.56 81.0408 167.547 81.0439 167.538 81.0471L162.544 83.9005C163.048 83.1433 163.314 82.1359 163.314 80.9282C163.314 77.5679 161.233 73.56 158.483 71.3417C160.37 72.3711 162.191 72.8998 163.899 72.8998C165.207 72.8998 166.411 72.5869 167.475 71.9737C167.506 71.9549 167.538 71.933 167.569 71.9143V81.0377ZM167.297 71.6702C166.286 72.2522 165.144 72.5494 163.896 72.5494C162.141 72.5494 160.257 71.9768 158.299 70.8442C154.707 68.7699 151.328 64.9872 149.028 60.463C147.257 56.9745 146.281 53.2982 146.281 50.11C146.281 46.2804 147.614 43.402 150.032 42.0066C152.473 40.5986 155.667 40.8927 159.031 42.8326C162.175 44.6472 165.154 47.7666 167.431 51.6306C167.45 51.6556 167.503 51.7401 167.522 51.7808C169.312 54.8657 170.476 58.1227 170.889 61.2014C170.998 62.0118 171.051 62.8065 171.051 63.5668C171.051 67.3932 169.718 70.2717 167.297 71.6702ZM167.923 86.7789V71.689C168.398 71.3605 168.827 70.9725 169.208 70.5345L184.129 78.8476V91.2937C184.083 91.3782 184.033 91.4596 183.992 91.5503C183.488 91.1686 182.978 90.8182 182.462 90.5178C179.612 88.8721 176.88 88.6374 174.768 89.8576C174.515 90.0047 174.277 90.1674 174.052 90.3488L167.923 86.7789ZM174.943 90.1643C175.779 89.6824 176.721 89.4415 177.734 89.4415C179.142 89.4415 180.691 89.9046 182.284 90.8244C184.812 92.2855 187.208 94.7917 189.045 97.9048C189.064 97.9298 189.11 98.008 189.123 98.0299C189.123 98.033 189.126 98.0362 189.129 98.0393C190.96 101.199 191.967 104.569 191.967 107.526C191.967 110.642 190.875 112.988 188.895 114.13C188.062 114.609 187.124 114.853 186.104 114.853C184.674 114.853 183.141 114.387 181.555 113.47C176.217 110.388 171.871 102.895 171.871 96.7659C171.871 93.6559 172.963 91.3094 174.943 90.1643ZM164.556 103.893C166.048 103.339 167.948 103.655 169.9 104.785C174.631 107.516 178.479 114.181 178.479 119.643C178.479 121.89 177.809 123.689 176.592 124.706C175.638 125.503 174.387 125.801 172.969 125.579C171.796 118.611 167.466 111.149 161.984 106.646C162.494 105.282 163.377 104.328 164.556 103.893ZM173.029 125.945C173.313 125.985 173.592 126.01 173.864 126.01C174.85 126.01 175.741 125.744 176.492 125.228L179.02 123.783C180.719 124.286 182.712 124.587 184.374 124.59C187.286 124.587 190.024 123.933 192.077 122.747C193.491 121.93 194.476 120.926 194.964 119.825V132.549C194.983 134.164 193.894 135.688 191.898 136.839C189.899 137.993 187.224 138.632 184.374 138.635C181.242 138.632 178.269 137.997 176.43 136.933C174.818 136.004 172.904 134.521 172.922 132.74C173.163 131.655 173.288 130.472 173.288 129.199C173.288 128.135 173.198 127.046 173.029 125.945ZM157.951 137.749C150.179 133.26 143.856 122.35 143.856 113.43C143.856 108.934 145.424 105.551 148.268 103.909C149.463 103.217 150.811 102.873 152.266 102.873C154.3 102.873 156.537 103.546 158.84 104.876C166.612 109.362 172.938 120.272 172.938 129.195C172.938 133.691 171.37 137.074 168.526 138.716C166.903 139.655 164.969 139.958 162.87 139.608C161.283 139.345 159.631 138.722 157.951 137.749ZM164.816 173.824C163.705 174.465 162.45 174.791 161.08 174.791C159.153 174.791 157.085 174.162 154.935 172.92C147.667 168.721 141.751 158.518 141.751 150.174C141.751 145.972 143.215 142.809 145.874 141.275C146.991 140.631 148.252 140.312 149.607 140.312C151.509 140.312 153.599 140.938 155.752 142.183C159.203 144.176 162.469 147.596 164.96 151.826C164.994 151.876 165.038 151.951 165.063 151.995C167.56 156.3 168.933 160.893 168.933 164.926C168.936 169.128 167.472 172.288 164.816 173.824ZM172.369 160.696C171.48 161.44 170.313 161.716 168.993 161.506C168.458 158.34 167.222 154.998 165.376 151.816C165.348 151.766 165.294 151.682 165.263 151.635C163.427 148.515 161.164 145.831 158.718 143.819C159.1 142.787 159.713 142.011 160.514 141.535C160.52 141.532 160.789 141.385 160.789 141.385C160.895 141.335 161.002 141.285 161.111 141.241C162.507 140.722 164.281 141.016 166.111 142.073C170.535 144.626 174.133 150.859 174.133 155.965C174.13 158.064 173.504 159.744 172.369 160.696ZM195.118 161.409C195.118 162.57 193.973 163.924 192.051 165.032C187.881 167.438 181.076 167.426 176.88 165.004C175.159 164.012 174.108 162.754 173.839 161.375C173.827 161.315 173.827 160.348 173.827 160.348L176.336 158.931C176.458 159.009 176.558 159.069 176.705 159.153C176.974 159.31 177.253 159.454 177.54 159.591C177.656 159.644 177.781 159.691 177.9 159.744C178.075 159.82 178.251 159.901 178.432 159.97C178.567 160.02 178.707 160.064 178.845 160.111C179.02 160.17 179.192 160.236 179.371 160.289C179.511 160.333 179.655 160.364 179.799 160.405C179.984 160.455 180.162 160.508 180.35 160.552C180.5 160.586 180.657 160.614 180.81 160.646C180.991 160.683 181.173 160.724 181.357 160.755C181.514 160.783 181.673 160.799 181.83 160.821C182.018 160.849 182.202 160.877 182.39 160.899C182.543 160.918 182.7 160.924 182.856 160.94C183.05 160.955 183.244 160.977 183.441 160.99C183.594 160.999 183.748 160.999 183.901 161.002C184.098 161.008 184.298 161.018 184.496 161.018C184.502 161.018 184.505 161.018 184.511 161.018C184.677 161.018 184.846 161.008 185.012 161.005C185.19 161.002 185.368 160.999 185.547 160.99C185.713 160.98 185.875 160.962 186.038 160.949C186.223 160.933 186.407 160.924 186.589 160.902C186.745 160.883 186.898 160.858 187.052 160.836C187.239 160.811 187.43 160.789 187.615 160.758C187.765 160.733 187.912 160.699 188.059 160.667C188.244 160.63 188.432 160.599 188.616 160.555C188.766 160.52 188.91 160.477 189.057 160.439C189.236 160.392 189.414 160.348 189.586 160.298C189.736 160.254 189.877 160.198 190.024 160.148C190.19 160.092 190.356 160.042 190.515 159.979C190.684 159.913 190.844 159.841 191.01 159.77C191.138 159.713 191.272 159.663 191.398 159.604C191.682 159.469 191.961 159.325 192.227 159.172C192.461 159.037 192.677 158.897 192.887 158.753C192.94 158.715 192.993 158.678 193.046 158.64C193.24 158.499 193.425 158.358 193.594 158.211C193.603 158.202 193.616 158.196 193.625 158.186C193.804 158.03 193.966 157.87 194.12 157.708C194.16 157.667 194.198 157.623 194.235 157.583C194.37 157.432 194.495 157.279 194.608 157.123C194.62 157.104 194.636 157.088 194.648 157.073C194.767 156.9 194.874 156.728 194.967 156.55C194.993 156.503 195.014 156.456 195.039 156.409C195.064 156.356 195.096 156.303 195.121 156.25V161.409H195.118ZM195.118 154.607C195.118 154.723 195.102 154.835 195.09 154.951C195.08 155.039 195.08 155.13 195.064 155.217C195.046 155.333 195.008 155.442 194.98 155.555C194.958 155.636 194.942 155.718 194.917 155.799C194.877 155.915 194.82 156.028 194.767 156.143C194.733 156.218 194.708 156.293 194.667 156.369C194.605 156.484 194.529 156.597 194.457 156.71C194.414 156.778 194.376 156.85 194.326 156.919C194.245 157.032 194.148 157.141 194.054 157.251C193.998 157.317 193.951 157.385 193.888 157.451C193.785 157.561 193.666 157.667 193.553 157.773C193.488 157.833 193.431 157.895 193.362 157.955C193.228 158.071 193.078 158.18 192.928 158.293C192.865 158.34 192.812 158.387 192.749 158.43C192.53 158.584 192.296 158.734 192.048 158.875C191.789 159.025 191.516 159.166 191.238 159.297C191.078 159.372 190.909 159.438 190.747 159.507C190.622 159.56 190.503 159.616 190.374 159.663C189.527 159.985 188.613 160.226 187.671 160.395C187.624 160.405 187.577 160.414 187.53 160.423C187.374 160.448 187.214 160.467 187.058 160.489C186.88 160.514 186.704 160.542 186.526 160.564C185.954 160.627 185.375 160.658 184.793 160.664C184.686 160.664 184.583 160.674 184.477 160.674C184.355 160.674 184.236 160.664 184.114 160.664C183.892 160.658 183.67 160.658 183.447 160.646C183.441 160.646 183.435 160.646 183.429 160.646C182.919 160.617 182.415 160.558 181.917 160.489C181.464 160.423 181.016 160.345 180.575 160.248C180.528 160.239 180.481 160.229 180.434 160.22C180.181 160.161 179.934 160.092 179.69 160.02C179.621 160.001 179.549 159.985 179.483 159.963C179.305 159.91 179.133 159.845 178.958 159.782C178.829 159.738 178.695 159.698 178.57 159.647C177.975 159.419 177.409 159.156 176.883 158.853C176.808 158.809 176.749 158.775 176.689 158.737L191.879 150.161C191.883 150.217 191.911 150.274 191.967 150.305C194.019 151.463 195.108 152.952 195.118 154.607ZM195.321 132.546V122.049C196.804 121.921 198.275 122.566 199.248 123.126C200.027 123.576 200.809 124.164 201.575 124.878C203.891 127.033 205.805 130.184 206.697 133.31C207.076 134.639 207.27 135.888 207.27 137.02C207.27 139.567 206.356 141.595 204.823 142.443L173.245 160.27C174.046 159.222 174.487 157.736 174.487 155.965C174.487 150.746 170.807 144.376 166.289 141.767C164.791 140.903 163.32 140.534 162.034 140.675L163.198 140.011C163.649 140.071 164.096 140.108 164.528 140.108C166.058 140.108 167.463 139.746 168.705 139.026C170.629 137.915 171.987 136.047 172.703 133.61C173.17 135.159 174.825 136.413 176.258 137.239C178.15 138.331 181.188 138.985 184.38 138.988C187.293 138.985 190.03 138.331 192.083 137.146C194.188 135.925 195.34 134.292 195.321 132.546ZM194.964 118.195V118.207C194.958 119.8 193.869 121.302 191.898 122.44C189.899 123.595 187.224 124.233 184.374 124.236C182.853 124.236 181.045 123.974 179.452 123.535L193.735 115.369C193.738 115.373 193.735 115.379 193.738 115.382C194.536 116.249 194.961 117.222 194.964 118.195ZM193.932 114.85L177.509 124.239C178.363 123.122 178.833 121.536 178.833 119.646C178.833 114.071 174.906 107.269 170.075 104.481C168.429 103.53 166.815 103.145 165.416 103.333L171.818 99.6819C172.888 105.223 176.761 111.121 181.376 113.786C183.019 114.734 184.608 115.216 186.104 115.216C187.186 115.216 188.184 114.956 189.07 114.446C191.166 113.236 192.321 110.783 192.321 107.532C192.321 106.797 192.258 106.033 192.139 105.257C192.167 105.257 192.195 105.26 192.224 105.26C192.69 105.26 193.122 105.167 193.519 105.001C193.531 104.998 193.669 104.926 193.669 104.926C193.797 104.863 193.922 104.794 194.038 104.713L196.541 103.283C195.299 104.638 194.63 106.646 194.63 109.118C194.63 110.689 194.911 112.347 195.418 114.002L193.932 114.85ZM212.013 126.48C211.181 126.958 210.242 127.202 209.219 127.202C207.789 127.202 206.259 126.736 204.67 125.819C199.332 122.738 194.986 115.241 194.986 109.115C194.986 105.999 196.078 103.652 198.059 102.51C198.894 102.028 199.836 101.788 200.85 101.788C202.261 101.788 203.806 102.251 205.399 103.17C210.736 106.252 215.082 113.746 215.082 119.875C215.085 122.988 213.993 125.335 212.013 126.48ZM217.128 116.777C216.597 117.237 215.936 117.434 215.217 117.356C214.385 112.447 211.293 107.194 207.398 104.109L207.417 104.072C207.686 103.524 208.071 103.105 208.534 102.823L208.678 102.742C208.825 102.664 208.975 102.595 209.138 102.548C210.129 102.247 211.318 102.476 212.582 103.205C215.796 105.06 218.408 109.588 218.408 113.295C218.405 114.831 217.951 116.07 217.128 116.777ZM218.045 116.217C218.508 115.454 218.762 114.453 218.762 113.298C218.762 109.475 216.068 104.813 212.758 102.901C211.734 102.31 210.746 102.032 209.854 102.075L233.019 88.8439C234.368 88.2276 235.935 88.9253 236.749 89.3946C237.312 89.72 237.881 90.1486 238.438 90.6649C240.122 92.2324 241.514 94.5226 242.162 96.7909C242.437 97.7577 242.578 98.6619 242.578 99.4817C242.578 100.314 242.44 101.037 242.183 101.647C242.052 101.515 241.911 101.4 241.764 101.293C241.752 101.278 241.495 101.121 241.47 101.109C240.244 100.392 235 97.3322 234.302 96.9974C233.313 96.525 231.342 96.5344 229.881 97.3791C226.54 99.3096 223.821 104.018 223.821 107.876C223.821 109.76 224.459 111.177 225.62 111.872C225.62 111.872 225.629 111.878 225.642 111.884L218.045 116.217ZM225.795 111.568C224.747 110.942 224.168 109.631 224.168 107.876C224.168 104.131 226.809 99.5599 230.05 97.6858C231.555 96.816 233.379 96.9536 234.143 97.3166C234.681 97.5731 238.122 99.5693 240.115 100.73C239.208 100.677 238.194 100.955 237.143 101.562C233.802 103.493 231.083 108.201 231.083 112.059C231.083 113.258 231.342 114.265 231.827 115.022C229.853 113.893 225.842 111.596 225.795 111.568ZM237.143 115.357C235.604 116.245 234.168 116.393 233.098 115.776C232.028 115.157 231.436 113.839 231.436 112.062C231.436 108.317 234.077 103.743 237.321 101.872C238.235 101.343 239.114 101.077 239.899 101.077C240.403 101.077 240.866 101.19 241.279 101.409C241.345 101.447 241.401 101.481 241.445 101.506C242.465 102.144 243.031 103.433 243.031 105.167C243.028 108.912 240.388 113.483 237.143 115.357Z" fill="#C5C5C5"/>
    <g opacity="0.3">
        <path d="M184.306 20.3964C182.892 20.3964 181.734 19.2387 181.734 17.8245V10.3437C181.734 8.92949 182.892 7.77185 184.306 7.77185C185.72 7.77185 186.878 8.92949 186.878 10.3437V17.8245C186.878 19.2387 185.72 20.3964 184.306 20.3964Z" fill="#CDCDCD"/>
    </g>
</svg>
