<svg width="390" height="300" viewBox="0 0 390 300" fill="none" xmlns="http://www.w3.org/2000/svg">
    <g opacity="0.3">
        <path d="M209.522 143.606C208.141 138.447 205.322 134.142 205.322 134.142L200.587 137.12C200.587 137.12 203.674 143.727 204.127 145.389C204.583 147.05 204.914 148.262 204.914 148.262L205.383 150.724L205.67 153.546L205.705 157.481V170.322V185.785L205.329 188.578L204.538 191.263L203.32 193.547L202.382 194.704L202.66 195.007L206.512 192.714L208.795 190.061L209.975 187.382L210.651 184.076L210.775 179.232V151.323L210.44 147.784L209.522 143.606Z" fill="#BDBDBD"/>
    </g>
    <g opacity="0.3">
        <path d="M177.048 159.114L171.592 155.963V135.389L177.048 138.539V159.114Z" fill="#BDBDBD"/>
    </g>
    <g opacity="0.3">
        <path d="M177.048 168.591L171.592 165.44V159.18L177.048 162.331V168.591Z" fill="#BDBDBD"/>
    </g>
    <path d="M177.047 159.324C177.009 159.324 176.974 159.314 176.942 159.295L171.486 156.145C171.419 156.107 171.381 156.036 171.381 155.96V135.386C171.381 135.309 171.422 135.239 171.486 135.201C171.553 135.162 171.633 135.162 171.7 135.201L177.156 138.351C177.223 138.389 177.261 138.46 177.261 138.536V159.11C177.261 159.187 177.22 159.257 177.156 159.295C177.121 159.314 177.082 159.324 177.047 159.324ZM171.802 155.839L176.834 158.744V138.66L171.802 135.755V155.839Z" fill="#BDBDBD"/>
    <path d="M177.047 168.804C177.009 168.804 176.974 168.795 176.942 168.776L171.486 165.625C171.419 165.587 171.381 165.517 171.381 165.44V159.18C171.381 159.104 171.422 159.034 171.486 158.995C171.553 158.957 171.633 158.957 171.7 158.995L177.156 162.146C177.223 162.184 177.261 162.254 177.261 162.331V168.591C177.261 168.667 177.22 168.737 177.156 168.776C177.121 168.795 177.082 168.804 177.047 168.804ZM171.802 165.319L176.834 168.224V162.455L171.802 159.55V165.319Z" fill="#BDBDBD"/>
    <path d="M186.617 186.847C182.847 186.847 178.664 185.584 174.327 183.078C159.301 174.401 147.075 153.316 147.075 136.071C147.075 127.71 149.916 121.463 155.073 118.488C160.277 115.484 167.19 116.166 174.541 120.411C189.566 129.088 201.792 150.172 201.792 167.417C201.792 175.778 198.951 182.025 193.795 185.004C191.661 186.235 189.238 186.847 186.617 186.847ZM162.251 117.069C159.703 117.069 157.353 117.662 155.283 118.855C150.264 121.753 147.499 127.866 147.499 136.071C147.499 153.179 159.63 174.101 174.537 182.711C181.751 186.876 188.514 187.558 193.581 184.634C198.6 181.735 201.365 175.622 201.365 167.417C201.365 150.309 189.235 129.387 174.327 120.781C170.057 118.316 165.947 117.069 162.251 117.069Z" fill="#BDBDBD"/>
    <path d="M223.001 104.878L241.56 96.8103C241.991 96.6221 242.316 96.2522 242.494 95.742C242.836 94.7598 242.616 93.3376 241.917 92.027C240.823 89.9702 238.888 88.7521 237.606 89.3069L218.444 97.6362L199.212 67.0713C198.422 65.8117 197.29 64.906 196.266 64.7083C195.733 64.6031 195.249 64.6956 194.869 64.9698C193.737 65.7893 193.826 68.063 195.067 70.0369L213.722 99.6866L195.163 107.754C194.732 107.942 194.407 108.312 194.228 108.823C193.887 109.802 194.107 111.227 194.805 112.538C195.721 114.256 197.223 115.392 198.441 115.392C198.68 115.392 198.906 115.347 199.117 115.258L218.278 106.928L237.507 137.493C238.298 138.753 239.43 139.659 240.454 139.856C240.597 139.885 240.737 139.898 240.871 139.898C241.238 139.898 241.573 139.796 241.85 139.595C242.982 138.775 242.893 136.502 241.653 134.528L223.001 104.878ZM195.427 69.8105C194.321 68.0534 194.18 65.9934 195.118 65.3142C195.405 65.1069 195.765 65.0432 196.186 65.1261C197.101 65.3046 198.122 66.1369 198.855 67.2977L218.052 97.8084L214.117 99.5176L195.427 69.8105ZM198.951 114.869C197.883 115.334 196.158 114.173 195.182 112.34C194.538 111.131 194.327 109.837 194.63 108.963C194.77 108.561 195.006 108.284 195.332 108.143L237.775 89.6928C237.934 89.6226 238.11 89.5908 238.292 89.5908C239.341 89.5908 240.712 90.6622 241.544 92.2215C242.188 93.4301 242.399 94.7248 242.096 95.5985C241.955 96.0003 241.72 96.2777 241.394 96.418L198.951 114.869ZM241.608 139.254C241.321 139.461 240.961 139.525 240.54 139.442C239.624 139.263 238.601 138.431 237.871 137.27L218.674 106.759L222.609 105.05L241.299 134.754C242.405 136.511 242.545 138.571 241.608 139.254Z" fill="#BDBDBD"/>
    <g opacity="0.3">
        <path d="M214.035 99.7822L195.249 69.922C194.069 68.0438 193.955 65.8913 194.997 65.1387C196.04 64.3862 197.858 65.3046 199.038 67.1796L218.365 97.8976" fill="#BDBDBD"/>
        <path d="M222.692 104.782L241.477 134.642C242.657 136.521 242.772 138.673 241.729 139.426C240.686 140.178 238.869 139.26 237.689 137.385L218.361 106.667" fill="#BDBDBD"/>
        <path d="M194.994 112.442C196.037 114.4 197.854 115.58 199.034 115.066L241.478 96.6158C242.657 96.1024 242.772 94.0806 241.729 92.1259C240.687 90.168 238.869 88.9881 237.689 89.5015L195.246 107.952C194.069 108.462 193.954 110.484 194.994 112.442Z" fill="#BDBDBD"/>
    </g>
    <g opacity="0.3">
        <path d="M257.415 158.179C268.225 154.066 276.047 142.012 276.047 124.591C276.047 93.4142 254.022 55.4257 226.853 39.7399C214.251 32.4629 202.755 31.264 194.053 35.1798C192.137 36.0408 185.985 39.7686 185.985 39.7686L189.573 38.273L194.34 37.2621L198.919 36.9464L204.321 37.6097L209.879 39.1244L215.657 41.4937L219.956 43.7705L223.744 46.0729L227.912 49.0417L232.683 52.9575L239.382 59.5552L246.12 67.4603L253.097 77.6295L259.185 88.4683L265.333 104.339L267.469 112.959C267.469 112.959 268.847 120.146 269.099 125.835C269.351 131.521 268.429 138.255 268.429 138.255C268.429 138.255 266.624 146.444 263.908 150.542C261.181 154.64 257.415 158.179 257.415 158.179Z" fill="#BDBDBD"/>
    </g>
    <g opacity="0.3">
        <path d="M310.784 266.287C312.907 265.174 312.681 263.344 311.986 261.331L310.758 258.535L283.137 201.19C283.137 201.19 281.702 197.564 278.28 194.691C275.997 192.772 274.221 192.076 274.221 192.076L257.951 158.096L260.662 156.716L275.892 188.244C280.216 188.865 285.257 192.749 287.39 197.188L315.149 254.727C316.603 259.275 315.806 261.95 313.957 263.914C313.096 264.83 311.909 265.416 310.784 266.287Z" fill="#BDBDBD"/>
    </g>
    <g opacity="0.3">
        <path d="M192.685 259.338L188.23 247.855V195.693L192.685 197.163V259.338Z" fill="#BDBDBD"/>
    </g>
    <path d="M315.037 254L287.585 197.089C285.467 192.679 280.413 188.728 276.038 188.046L260.945 156.802C270.601 151.473 276.261 139.719 276.261 124.588C276.261 93.395 254.147 55.2471 226.962 39.5517C214.774 32.5171 203.059 30.894 193.967 34.9821C192.258 35.7506 187.325 38.7098 186.132 39.4305C185.759 39.6186 185.389 39.8163 185.026 40.0268C175.756 45.3808 170.651 56.6214 170.651 71.6823C170.651 84.7597 174.63 99.7663 181.85 114.004L166.674 105.242C161.827 102.442 157.229 101.928 153.724 103.794C153.724 103.794 153.724 103.794 153.721 103.797C153.721 103.797 153.721 103.797 153.718 103.797L148.517 106.721C148.511 106.724 148.421 106.775 148.386 106.798C144.882 108.823 142.949 113.061 142.949 118.733V129.151L106.667 108.475L99.0231 104.081C98.9561 104.043 98.8764 104.043 98.8094 104.081L96.9344 105.165C96.8675 105.203 96.8292 105.273 96.8292 105.347C96.8292 105.347 96.8292 105.347 96.8292 105.35L96.5677 149.528C90.6907 145.749 84.6415 141.811 83.1555 140.682C83.0917 140.634 83.0088 140.625 82.9387 140.66L77.862 143.029C77.8525 143.035 77.8206 143.058 77.8174 143.061C77.7887 143.087 77.7664 143.115 77.7536 143.15C77.7504 143.157 77.7504 143.163 77.7472 143.169C77.7377 143.201 77.7345 143.236 77.7441 143.271C77.7441 143.275 77.7472 143.287 77.7472 143.287L99.731 212.552C99.747 212.603 99.782 212.644 99.8267 212.67L189.248 264.571L192.577 266.469C192.609 266.488 192.647 266.497 192.682 266.497C192.72 266.497 192.756 266.488 192.787 266.469C192.854 266.43 192.893 266.36 192.893 266.284V259.335V197.424C193.821 197.622 194.726 197.73 195.597 197.73C197.261 197.73 198.808 197.36 200.189 196.63C200.189 196.63 200.294 196.576 200.326 196.557L206.203 193.205C209.29 191.046 210.986 186.955 210.986 181.681V151.99C210.986 151.489 210.964 150.982 210.935 150.472C213.856 152.771 216.85 154.815 219.848 156.543C227.664 161.056 235.199 163.336 241.988 163.336C245.183 163.336 248.216 162.829 251.028 161.811L265.352 191.445C264.944 191.713 264.593 192.041 264.319 192.44C263.276 193.967 263.369 196.283 264.574 198.792L293.162 258.053C295.417 262.744 300.911 266.839 305.414 267.18C305.442 267.183 305.905 267.224 306.565 267.224C306.906 267.224 307.298 267.212 307.716 267.18C308.912 267.084 309.872 266.861 310.618 266.507C310.621 266.504 310.627 266.507 310.631 266.504C316.17 263.873 317.652 259.667 315.037 254ZM194.139 35.3711C203.103 31.3372 214.682 32.954 226.745 39.9216C253.812 55.55 275.834 93.5321 275.834 124.591C275.834 140.755 269.322 153.01 258.378 157.564C265.429 151.594 269.262 141.419 269.262 128.373C269.262 97.2439 247.192 59.1725 220.061 43.509C208.655 36.9209 197.838 35.0969 189.082 38.1741C190.928 37.0867 193.135 35.8239 194.139 35.3711ZM153.922 104.17C157.293 102.378 161.744 102.888 166.46 105.611L192.335 120.551C197.325 123.431 201.85 128.361 205.144 134.002L200.523 136.795C197.182 131.023 192.567 125.978 187.475 123.038L161.601 108.099C157.787 105.895 154.145 105.114 151.062 105.777L153.922 104.17ZM189.618 118.491C181.448 104.712 176.952 89.9543 176.952 76.9247C176.952 64.3033 181.212 54.8899 188.945 50.4256C196.748 45.9197 207.159 46.9689 218.26 53.3752C241.152 66.5929 259.778 98.7172 259.778 124.987C259.778 137.608 255.518 147.022 247.785 151.486C239.982 155.992 229.571 154.943 218.47 148.536C215.361 146.741 212.258 144.553 209.251 142.034C206.308 133.131 199.927 124.445 192.548 120.181L189.618 118.491ZM98.9211 104.508L106.456 108.842L142.949 129.639V131.313L97.4701 105.347L98.9211 104.508ZM97.2565 105.713L142.949 131.801V148.425C142.949 160.093 151.221 174.363 161.39 180.233L187.264 195.173C187.516 195.32 187.765 195.45 188.017 195.581V246.656L171.942 205.014C171.926 204.969 171.891 204.931 171.85 204.905L128.274 179.646C126.208 178.428 125.64 177.975 123.95 176.183C119.585 171.553 117.298 168.007 115.462 165.16C113.545 162.184 112.03 159.834 109.062 157.51C109.055 157.506 109.049 157.5 109.046 157.497C108.931 157.423 103.118 153.734 96.995 149.799L97.2565 105.713ZM83.0024 141.1C86.4304 143.651 108.258 157.506 108.806 157.854C111.711 160.134 113.21 162.455 115.104 165.392C116.951 168.256 119.247 171.818 123.641 176.477C125.35 178.288 125.969 178.782 128.061 180.013L171.285 205.068L166.677 207.22L123.198 182.019C121.131 180.801 120.567 180.348 118.874 178.556C114.508 173.926 112.222 170.38 110.385 167.532C110.146 167.159 109.913 166.799 109.68 166.445C108.063 163.97 106.577 161.913 103.969 159.869C103.969 159.869 103.969 159.869 103.966 159.869C103.959 159.866 103.953 159.86 103.947 159.857L78.3882 143.252L83.0024 141.1ZM100.114 212.348L78.3499 143.772C79.8487 144.847 85.1134 148.354 103.723 160.217C106.635 162.497 108.134 164.822 110.028 167.765C111.756 170.45 113.883 173.747 117.764 177.988C118.022 178.272 118.29 178.559 118.564 178.849C120.273 180.66 120.892 181.155 122.981 182.386L166.496 207.606C166.923 208.687 172.318 222.354 177.739 236.019C181.017 244.287 188.457 262.9 188.891 263.873L100.114 212.348ZM192.475 265.923L189.528 264.243L166.939 207.571L171.63 205.38L192.475 259.377V265.923ZM192.475 258.2L188.444 247.76V195.811C189.822 196.509 191.171 197.013 192.475 197.332V258.2ZM200.272 196.107C196.872 198.071 192.328 197.609 187.478 194.806L161.604 179.866C151.553 174.063 143.377 159.959 143.377 148.425V118.733C143.377 113.217 145.232 109.11 148.6 107.164C149.987 106.364 151.562 105.965 153.271 105.965C155.756 105.965 158.52 106.804 161.393 108.462L187.268 123.402C197.319 129.206 205.495 143.31 205.495 154.844V184.535C205.495 190.055 203.639 194.162 200.272 196.107ZM210.562 181.684C210.562 186.815 208.926 190.782 205.973 192.848L202.568 194.809C204.739 192.501 205.916 188.958 205.916 184.538V154.847C205.916 149.145 203.936 142.825 200.731 137.165L205.355 134.368C208.572 140 210.562 146.307 210.562 151.993V181.684ZM220.061 156.18C216.981 154.4 213.901 152.293 210.9 149.907C210.715 147.58 210.23 145.178 209.49 142.784C212.357 145.14 215.304 147.203 218.257 148.906C224.886 152.736 231.283 154.668 237.045 154.668C241.047 154.668 244.74 153.734 247.996 151.856C255.866 147.312 260.199 137.771 260.199 124.99C260.199 98.5864 241.478 66.2964 218.467 53.0085C207.23 46.5224 196.668 45.4733 188.728 50.0588C180.858 54.6029 176.524 64.1439 176.524 76.9247C176.524 89.8267 180.909 104.406 188.875 118.064L182.452 114.355L182.487 114.336C175.128 99.9991 171.071 84.8521 171.071 71.6791C171.071 56.7777 176.1 45.6646 185.236 40.3935C185.517 40.2309 185.797 40.0778 186.081 39.9279C186.081 39.9279 186.177 39.8865 186.336 39.8004C195.421 35.183 207.258 36.6052 219.848 43.8725C246.86 59.4691 268.835 97.3747 268.835 128.37C268.835 143.271 263.806 154.385 254.67 159.656C245.457 164.981 233.164 163.744 220.061 156.18ZM251.43 161.665C252.623 161.212 253.777 160.667 254.887 160.026C255.84 159.474 256.749 158.858 257.613 158.186L273.79 191.668C272.671 191.209 271.548 190.913 270.483 190.833L268.796 190.705C267.6 190.616 266.561 190.804 265.725 191.231L251.43 161.665ZM311.772 264.97C311.179 266.003 309.843 266.587 307.684 266.759C306.498 266.851 305.465 266.759 305.452 266.759C301.083 266.427 295.745 262.441 293.548 257.872L264.96 198.61C263.822 196.244 263.72 194.082 264.673 192.682C265.375 191.656 266.615 191.104 268.206 191.104C268.388 191.104 270.451 191.254 270.451 191.254C274.82 191.585 280.158 195.571 282.355 200.141L310.943 259.402C312.174 261.976 312.448 263.796 311.772 264.97ZM312.142 265.174C312.888 263.87 312.62 261.921 311.322 259.217L282.735 199.956C281.108 196.573 277.795 193.508 274.386 191.93L258.066 158.147C258.927 157.809 259.759 157.427 260.566 156.999L275.703 188.333C275.735 188.397 275.796 188.441 275.863 188.451C280.139 189.066 285.12 192.944 287.199 197.277L314.652 254.185C316.858 258.959 316.01 262.645 312.142 265.174Z" fill="#BDBDBD"/>
    <g opacity="0.3">
        <path d="M192.675 262.955L192.624 266.261L189.241 264.323L166.664 207.463L171.744 205.151L192.65 259.128L192.675 262.955Z" fill="#BDBDBD"/>
    </g>
</svg>
