<svg width="390" height="300" viewBox="0 0 390 300" fill="none" xmlns="http://www.w3.org/2000/svg">
    <path d="M143.979 184.879C143.976 184.876 143.973 184.874 143.97 184.871C143.912 184.812 143.847 184.756 143.779 184.7C143.765 184.688 143.75 184.676 143.732 184.665C143.656 184.606 143.574 184.55 143.483 184.5C142.349 183.844 140.508 183.847 139.375 184.5C139.284 184.553 139.205 184.609 139.125 184.665C139.111 184.676 139.093 184.688 139.078 184.7C139.008 184.753 138.946 184.812 138.888 184.868C138.885 184.871 138.882 184.874 138.879 184.876C138.62 185.144 138.479 185.45 138.479 185.773C138.479 186.262 138.797 186.715 139.375 187.05C139.942 187.376 140.685 187.541 141.427 187.541C142.17 187.541 142.916 187.376 143.48 187.05C144.058 186.715 144.375 186.262 144.375 185.773C144.381 185.453 144.24 185.147 143.979 184.879ZM141.43 184.309C142.117 184.309 142.807 184.462 143.33 184.762C143.392 184.797 143.451 184.835 143.506 184.874C143.515 184.879 143.521 184.885 143.53 184.891C143.577 184.926 143.621 184.959 143.662 184.997C143.665 185 143.665 185 143.668 185.003C143.95 185.253 144.085 185.544 144.058 185.838C143.912 185.659 143.721 185.497 143.483 185.362C142.349 184.706 140.508 184.706 139.375 185.362C139.137 185.5 138.946 185.659 138.8 185.838C138.773 185.544 138.908 185.253 139.193 185.003L139.196 185C139.237 184.962 139.284 184.926 139.331 184.891C139.337 184.885 139.346 184.879 139.352 184.876C139.407 184.838 139.466 184.8 139.528 184.765C140.053 184.462 140.743 184.309 141.43 184.309ZM143.333 186.785C142.285 187.391 140.579 187.391 139.531 186.785C139.246 186.62 139.04 186.426 138.92 186.22C139.043 185.991 139.246 185.791 139.531 185.626C140.579 185.021 142.285 185.021 143.333 185.626C143.618 185.791 143.82 185.991 143.944 186.22C143.82 186.429 143.615 186.62 143.333 186.785Z" fill="#C7C7C7"/>
    <path d="M109.715 166.91C109.712 166.907 109.707 166.904 109.704 166.898C109.648 166.839 109.583 166.784 109.516 166.731C109.501 166.719 109.483 166.704 109.469 166.692C109.392 166.634 109.31 166.581 109.222 166.528C108.089 165.872 106.248 165.872 105.114 166.528C105.111 166.531 105.108 166.534 105.103 166.537C105.017 166.587 104.941 166.64 104.868 166.692C104.85 166.704 104.832 166.719 104.818 166.734C104.75 166.787 104.689 166.842 104.633 166.898C104.63 166.901 104.624 166.907 104.618 166.91C104.36 167.178 104.219 167.484 104.219 167.804C104.219 168.292 104.536 168.745 105.114 169.08C105.681 169.407 106.424 169.572 107.167 169.572C107.91 169.572 108.655 169.407 109.219 169.08C109.798 168.748 110.115 168.292 110.115 167.804C110.118 167.481 109.977 167.175 109.715 166.91ZM104.923 167.039C104.929 167.037 104.932 167.031 104.938 167.028C104.973 166.995 105.014 166.966 105.056 166.937C105.07 166.928 105.082 166.916 105.097 166.904C105.132 166.878 105.173 166.854 105.211 166.831C105.232 166.819 105.249 166.804 105.27 166.792C105.793 166.49 106.483 166.34 107.17 166.34C107.857 166.34 108.547 166.492 109.069 166.792C109.131 166.828 109.19 166.866 109.246 166.904C109.254 166.91 109.263 166.919 109.275 166.928C109.319 166.96 109.363 166.995 109.401 167.028C109.404 167.031 109.407 167.034 109.41 167.037C109.689 167.286 109.824 167.575 109.798 167.866C109.651 167.686 109.46 167.525 109.222 167.389C108.089 166.734 106.248 166.734 105.114 167.389C104.876 167.528 104.686 167.686 104.539 167.866C104.512 167.578 104.645 167.289 104.923 167.039ZM109.069 168.816C108.021 169.422 106.315 169.422 105.267 168.816C104.982 168.651 104.777 168.46 104.656 168.251C104.78 168.022 104.985 167.822 105.267 167.657C106.315 167.051 108.021 167.051 109.069 167.657C109.354 167.822 109.557 168.022 109.68 168.251C109.557 168.457 109.351 168.651 109.069 168.816Z" fill="#C7C7C7"/>
    <path d="M177.889 166.616C177.886 166.613 177.88 166.608 177.877 166.605C177.822 166.546 177.757 166.493 177.69 166.437C177.675 166.425 177.657 166.411 177.643 166.399C177.566 166.343 177.484 166.287 177.396 166.234C176.265 165.578 174.424 165.578 173.291 166.234H173.288C173.285 166.237 173.282 166.24 173.276 166.243C173.191 166.293 173.115 166.346 173.041 166.399C173.024 166.411 173.006 166.425 172.992 166.44C172.924 166.493 172.862 166.549 172.807 166.605C172.801 166.61 172.798 166.613 172.792 166.619C172.534 166.887 172.393 167.193 172.393 167.513C172.393 168.002 172.71 168.454 173.288 168.79C173.855 169.116 174.598 169.281 175.341 169.281C176.083 169.281 176.829 169.116 177.393 168.79C177.971 168.457 178.289 168.002 178.289 167.513C178.291 167.19 178.151 166.884 177.889 166.616ZM177.243 166.502C177.305 166.537 177.364 166.575 177.419 166.613C177.431 166.619 177.437 166.628 177.449 166.637C177.493 166.669 177.537 166.702 177.575 166.737C177.578 166.74 177.581 166.743 177.587 166.749C177.866 166.999 178.001 167.287 177.974 167.578C177.828 167.396 177.637 167.237 177.399 167.102C176.265 166.446 174.424 166.446 173.291 167.102C173.053 167.24 172.862 167.399 172.716 167.578C172.689 167.287 172.821 166.999 173.1 166.749C173.106 166.746 173.109 166.74 173.115 166.737C173.15 166.705 173.191 166.675 173.232 166.646C173.247 166.637 173.259 166.625 173.273 166.613C173.309 166.587 173.35 166.563 173.388 166.54C173.409 166.528 173.426 166.513 173.447 166.502C173.972 166.199 174.659 166.046 175.346 166.046C176.031 166.046 176.718 166.199 177.243 166.502ZM177.243 168.522C176.195 169.128 174.489 169.128 173.441 168.522C173.156 168.357 172.95 168.163 172.83 167.957C172.953 167.728 173.159 167.528 173.441 167.363C174.489 166.758 176.195 166.758 177.24 167.363C177.525 167.528 177.728 167.728 177.854 167.957C177.731 168.163 177.525 168.357 177.243 168.522Z" fill="#C7C7C7"/>
    <path d="M154.605 170.84C154.444 170.84 154.303 170.804 154.18 170.734C153.871 170.557 153.716 170.175 153.716 169.599C153.716 168.296 154.514 166.775 155.498 166.208L170.461 157.806C170.925 157.538 171.383 157.506 171.747 157.717C172.176 157.964 172.423 158.523 172.423 159.244C172.423 160.405 171.791 161.411 170.64 162.073L155.677 170.475C155.263 170.719 154.902 170.84 154.605 170.84ZM171.225 157.944C171.045 157.944 170.849 158.003 170.643 158.12L155.68 166.522C154.802 167.031 154.083 168.41 154.083 169.596C154.083 169.896 154.133 170.278 154.362 170.413C154.585 170.543 154.987 170.451 155.498 170.154C155.498 170.154 155.498 170.154 155.501 170.154L170.464 161.755C171.06 161.411 172.061 160.626 172.061 159.241C172.061 158.653 171.882 158.211 171.568 158.029C171.465 157.973 171.348 157.944 171.225 157.944Z" fill="#C7C7C7"/>
    <g opacity="0.3">
        <path d="M155.592 170.317L170.555 161.917C171.488 161.376 172.246 160.491 172.246 159.244C172.246 157.997 171.488 157.424 170.555 157.965L155.592 166.364C154.658 166.905 153.903 168.352 153.903 169.599C153.9 170.846 154.658 170.858 155.592 170.317Z" fill="#C7C7C7"/>
        <path d="M154.605 170.81C154.45 170.81 154.315 170.775 154.194 170.707C153.898 170.537 153.745 170.163 153.745 169.599C153.745 168.305 154.538 166.796 155.513 166.231L170.476 157.829C170.928 157.567 171.377 157.535 171.732 157.741C172.152 157.985 172.393 158.532 172.393 159.244C172.393 160.394 171.765 161.39 170.626 162.049L155.662 170.451C155.251 170.69 154.896 170.81 154.605 170.81ZM171.225 157.914C171.04 157.914 170.84 157.976 170.628 158.097L155.665 166.499C154.779 167.013 154.053 168.405 154.053 169.599C154.053 170.046 154.153 170.328 154.347 170.443C154.579 170.578 154.993 170.484 155.513 170.184H155.516L170.479 161.785C171.081 161.438 172.091 160.643 172.091 159.247C172.091 158.647 171.906 158.197 171.583 158.011C171.474 157.947 171.354 157.914 171.225 157.914Z" fill="#C7C7C7"/>
    </g>
    <path d="M154.605 194.022C154.444 194.022 154.303 193.987 154.18 193.917C153.871 193.74 153.716 193.358 153.716 192.781C153.716 191.479 154.514 189.958 155.498 189.391L170.461 180.988C170.925 180.721 171.383 180.688 171.747 180.9C172.176 181.147 172.423 181.706 172.423 182.427C172.423 183.588 171.791 184.594 170.64 185.256L155.677 193.658C155.263 193.899 154.902 194.022 154.605 194.022ZM171.225 181.127C171.045 181.127 170.849 181.185 170.643 181.303L155.68 189.705C154.802 190.214 154.083 191.593 154.083 192.778C154.083 193.078 154.133 193.461 154.362 193.596C154.585 193.725 154.987 193.634 155.498 193.337C155.498 193.337 155.498 193.337 155.501 193.337L170.464 184.938C171.06 184.594 172.061 183.809 172.061 182.427C172.061 181.838 171.882 181.397 171.568 181.215C171.465 181.156 171.348 181.127 171.225 181.127Z" fill="#C7C7C7"/>
    <g opacity="0.3">
        <path d="M155.592 193.499L170.555 185.1C171.488 184.559 172.246 183.673 172.246 182.427C172.246 181.18 171.488 180.606 170.555 181.147L155.592 189.546C154.658 190.088 153.903 191.534 153.903 192.781C153.9 194.028 154.658 194.04 155.592 193.499Z" fill="#C7C7C7"/>
        <path d="M154.605 193.993C154.45 193.993 154.315 193.958 154.194 193.89C153.898 193.72 153.745 193.346 153.745 192.781C153.745 191.487 154.538 189.979 155.513 189.414L170.476 181.012C170.928 180.75 171.377 180.718 171.732 180.924C172.152 181.168 172.393 181.715 172.393 182.427C172.393 183.576 171.765 184.573 170.626 185.232L155.662 193.634C155.251 193.872 154.896 193.993 154.605 193.993ZM171.225 181.097C171.04 181.097 170.84 181.159 170.628 181.28L155.665 189.682C154.779 190.196 154.053 191.587 154.053 192.781C154.053 193.228 154.153 193.511 154.347 193.625C154.579 193.761 154.993 193.667 155.513 193.367H155.516L170.479 184.967C171.081 184.62 172.091 183.826 172.091 182.429C172.091 181.83 171.906 181.38 171.583 181.194C171.474 181.13 171.354 181.097 171.225 181.097Z" fill="#C7C7C7"/>
    </g>
    <path d="M126.522 170.007C126.226 170.007 125.867 169.886 125.447 169.642L110.487 161.243C109.336 160.578 108.705 159.572 108.705 158.411C108.705 157.687 108.952 157.131 109.38 156.884C109.745 156.673 110.203 156.705 110.669 156.973L125.63 165.372C126.613 165.942 127.412 167.463 127.412 168.766C127.412 169.342 127.256 169.721 126.948 169.901C126.822 169.971 126.681 170.007 126.522 170.007ZM109.903 157.111C109.777 157.111 109.662 157.14 109.56 157.199C109.245 157.381 109.066 157.822 109.066 158.411C109.066 159.793 110.067 160.578 110.664 160.925L125.624 169.324H125.627C126.135 169.618 126.54 169.71 126.763 169.583C126.995 169.448 127.042 169.066 127.042 168.766C127.042 167.58 126.325 166.201 125.445 165.689L110.484 157.29C110.279 157.173 110.082 157.111 109.903 157.111Z" fill="#C7C7C7"/>
    <g opacity="0.3">
        <path d="M125.537 169.484L110.574 161.085C109.64 160.544 108.883 159.658 108.883 158.411C108.883 157.164 109.64 156.591 110.574 157.132L125.537 165.531C126.471 166.072 127.225 167.519 127.225 168.766C127.228 170.013 126.471 170.025 125.537 169.484Z" fill="#C7C7C7"/>
        <path d="M126.52 169.978C126.229 169.978 125.874 169.857 125.46 169.619L110.5 161.22C109.358 160.558 108.732 159.564 108.732 158.414C108.732 157.703 108.973 157.156 109.393 156.911C109.748 156.706 110.195 156.738 110.653 157L125.613 165.399C126.588 165.964 127.38 167.475 127.38 168.766C127.38 169.331 127.231 169.704 126.931 169.875C126.814 169.943 126.676 169.978 126.52 169.978ZM109.904 157.082C109.775 157.082 109.654 157.111 109.546 157.173C109.223 157.359 109.038 157.811 109.038 158.408C109.038 159.805 110.048 160.599 110.65 160.949L125.613 169.349C126.133 169.648 126.547 169.74 126.779 169.607C126.975 169.496 127.072 169.21 127.072 168.763C127.072 167.569 126.347 166.175 125.46 165.661L110.5 157.261C110.292 157.144 110.086 157.082 109.904 157.082Z" fill="#C7C7C7"/>
    </g>
    <path d="M126.522 193.305C126.226 193.305 125.867 193.184 125.447 192.94L110.487 184.541C109.336 183.876 108.705 182.871 108.705 181.709C108.705 180.986 108.952 180.43 109.38 180.183C109.747 179.971 110.203 180.003 110.669 180.271L125.63 188.67C126.613 189.241 127.412 190.761 127.412 192.064C127.412 192.64 127.256 193.02 126.948 193.199C126.822 193.27 126.681 193.305 126.522 193.305ZM109.903 180.409C109.777 180.409 109.662 180.439 109.56 180.497C109.245 180.68 109.066 181.121 109.066 181.709C109.066 183.091 110.067 183.876 110.664 184.223L125.624 192.623H125.627C126.135 192.917 126.54 193.008 126.763 192.881C126.995 192.746 127.042 192.364 127.042 192.064C127.042 190.879 126.325 189.499 125.445 188.988L110.484 180.589C110.279 180.471 110.082 180.409 109.903 180.409Z" fill="#C7C7C7"/>
    <g opacity="0.3">
        <path d="M125.537 192.781L110.574 184.382C109.64 183.841 108.883 182.955 108.883 181.708C108.883 180.462 109.64 179.888 110.574 180.429L125.537 188.828C126.471 189.369 127.225 190.816 127.225 192.063C127.228 193.31 126.471 193.319 125.537 192.781Z" fill="#C7C7C7"/>
        <path d="M126.52 193.275C126.229 193.275 125.874 193.155 125.46 192.917L110.5 184.518C109.358 183.856 108.732 182.862 108.732 181.712C108.732 181 108.973 180.453 109.393 180.209C109.748 180.003 110.198 180.036 110.653 180.297L125.613 188.697C126.588 189.261 127.38 190.773 127.38 192.064C127.38 192.628 127.231 193.002 126.931 193.173C126.814 193.24 126.676 193.275 126.52 193.275ZM109.904 180.38C109.775 180.38 109.654 180.409 109.546 180.471C109.223 180.656 109.038 181.109 109.038 181.706C109.038 183.103 110.048 183.897 110.65 184.247L125.613 192.646C126.133 192.946 126.547 193.037 126.779 192.905C126.975 192.793 127.072 192.508 127.072 192.061C127.072 190.867 126.347 189.473 125.46 188.958L110.5 180.559C110.289 180.441 110.086 180.38 109.904 180.38Z" fill="#C7C7C7"/>
    </g>
    <path d="M181.331 143.519C181.331 141.687 180.191 140.019 178.124 138.825L149.511 122.28C144.816 119.565 136.594 119.904 131.18 123.036L105.461 137.908C102.593 139.566 100.948 141.781 100.948 143.989C100.948 144.019 100.951 144.048 100.951 144.078C100.948 144.069 100.948 144.069 100.948 144.081C100.948 144.081 100.945 157.37 100.948 157.382C100.969 159.203 102.108 160.838 104.155 162.02L104.243 162.073C102.058 163.661 100.895 165.578 100.951 167.493C100.951 167.502 100.945 167.508 100.945 167.514V180.712C100.945 180.724 100.948 180.736 100.948 180.748C100.969 182.562 102.105 184.209 104.152 185.394L132.765 201.94C134.894 203.172 137.745 203.775 140.734 203.775C142.431 203.775 144.173 203.578 145.849 203.192C145.881 203.184 145.917 203.178 145.949 203.169C146.102 203.134 146.257 203.095 146.41 203.054C146.489 203.034 146.566 203.013 146.645 202.993C146.762 202.96 146.88 202.928 146.994 202.895C147.103 202.863 147.212 202.834 147.317 202.798C147.411 202.769 147.502 202.743 147.596 202.71C147.722 202.669 147.846 202.628 147.969 202.587C148.048 202.56 148.128 202.534 148.204 202.504C148.336 202.457 148.468 202.407 148.597 202.357C148.668 202.331 148.738 202.304 148.809 202.275C148.944 202.222 149.076 202.166 149.205 202.113C149.273 202.084 149.34 202.057 149.405 202.028C149.537 201.969 149.666 201.91 149.798 201.851C149.863 201.822 149.928 201.793 149.989 201.763C150.124 201.699 150.253 201.631 150.386 201.566C150.441 201.537 150.497 201.51 150.553 201.481C150.738 201.384 150.92 201.284 151.096 201.181L176.818 186.309C176.988 186.209 177.155 186.109 177.317 186.006C177.364 185.977 177.408 185.947 177.452 185.915C177.566 185.841 177.681 185.768 177.789 185.691C177.848 185.65 177.901 185.609 177.957 185.568C178.051 185.5 178.145 185.432 178.236 185.365C178.297 185.318 178.353 185.271 178.412 185.224C178.494 185.159 178.576 185.094 178.656 185.03C178.717 184.98 178.773 184.927 178.832 184.874C178.902 184.812 178.979 184.747 179.046 184.685C179.105 184.633 179.158 184.577 179.214 184.521C179.278 184.459 179.346 184.394 179.407 184.333C179.463 184.274 179.513 184.218 179.569 184.159C179.628 184.097 179.686 184.036 179.742 183.971C179.795 183.912 179.842 183.85 179.892 183.788C179.945 183.727 179.998 183.665 180.045 183.6C180.091 183.539 180.136 183.477 180.18 183.415C180.227 183.353 180.274 183.289 180.318 183.227C180.359 183.165 180.397 183.1 180.438 183.039C180.479 182.974 180.52 182.912 180.558 182.847C180.597 182.786 180.626 182.721 180.661 182.659C180.696 182.594 180.735 182.527 180.767 182.462C180.799 182.4 180.826 182.339 180.852 182.274C180.881 182.206 180.917 182.139 180.943 182.071C180.969 182.009 180.99 181.947 181.011 181.886C181.037 181.818 181.063 181.747 181.087 181.68C181.107 181.618 181.122 181.559 181.14 181.498C181.16 181.427 181.181 181.356 181.198 181.286C181.213 181.227 181.222 181.168 181.234 181.106C181.248 181.033 181.263 180.962 181.275 180.889C181.284 180.83 181.287 180.774 181.292 180.715C181.298 180.651 181.31 180.583 181.313 180.518C181.319 180.501 181.325 180.48 181.325 180.459V167.125C181.325 167.111 181.319 167.096 181.316 167.081C181.319 167.017 181.325 166.955 181.325 166.89C181.325 165.084 180.05 163.332 178.033 162.138C178.101 162.088 178.168 162.041 178.233 161.991C178.286 161.952 178.333 161.911 178.383 161.87C178.474 161.799 178.565 161.726 178.653 161.655C178.709 161.608 178.758 161.564 178.811 161.517C178.891 161.449 178.97 161.382 179.043 161.311C179.096 161.261 179.146 161.211 179.196 161.161C179.266 161.094 179.337 161.026 179.404 160.958C179.454 160.905 179.501 160.852 179.551 160.8C179.613 160.732 179.677 160.667 179.736 160.597C179.786 160.541 179.83 160.482 179.877 160.426C179.933 160.361 179.989 160.294 180.039 160.226C180.083 160.167 180.124 160.108 180.168 160.05C180.215 159.985 180.265 159.92 180.312 159.853C180.353 159.791 180.391 159.729 180.429 159.667C180.47 159.603 180.514 159.538 180.552 159.47C180.588 159.408 180.62 159.347 180.655 159.282C180.69 159.217 180.729 159.15 180.761 159.085C180.793 159.02 180.82 158.959 180.849 158.894C180.878 158.829 180.911 158.761 180.937 158.697C180.964 158.632 180.987 158.567 181.011 158.503C181.034 158.438 181.06 158.37 181.081 158.306C181.102 158.241 181.119 158.173 181.137 158.109C181.154 158.044 181.175 157.976 181.193 157.912C181.207 157.847 181.219 157.779 181.231 157.715C181.242 157.65 181.257 157.582 181.269 157.517C181.278 157.45 181.284 157.385 181.289 157.318C181.295 157.259 181.304 157.203 181.31 157.144C181.319 157.126 181.322 157.106 181.322 157.085V143.751C181.322 143.736 181.316 143.722 181.313 143.707C181.325 143.645 181.331 143.581 181.331 143.519ZM101.254 157.35C101.254 157.338 101.254 145.589 101.254 145.589C101.72 146.78 102.71 147.848 104.155 148.683L132.768 165.229C134.897 166.461 137.748 167.064 140.737 167.064C140.872 167.064 141.007 167.061 141.142 167.058V180.089C138.062 180.145 135.103 179.559 132.921 178.298L104.307 161.752C102.349 160.617 101.259 159.061 101.254 157.35ZM132.921 201.672L104.307 185.127C102.349 183.994 101.265 182.427 101.257 180.715C101.257 180.703 101.254 180.695 101.254 180.683V168.96C101.72 170.154 102.713 171.225 104.155 172.06L132.768 188.606C134.897 189.838 137.748 190.441 140.737 190.441C140.858 190.441 140.981 190.438 141.101 190.435L141.142 203.469C138.065 203.519 135.103 202.934 132.921 201.672ZM181.025 180.412C181.019 180.424 181.016 180.439 181.016 180.454C180.905 182.471 179.319 184.506 176.665 186.044L150.943 200.916C150.779 201.013 150.609 201.104 150.438 201.196C150.383 201.225 150.321 201.254 150.265 201.284C150.151 201.343 150.036 201.401 149.919 201.46C149.819 201.507 149.719 201.554 149.616 201.601C149.54 201.637 149.464 201.675 149.384 201.707C149.214 201.784 149.041 201.857 148.865 201.928C148.856 201.931 148.85 201.934 148.841 201.937C146.621 202.834 144.073 203.357 141.445 203.442L141.404 190.426C144.804 190.323 148.319 189.453 151.093 187.847L176.815 172.975C178.961 171.734 180.42 170.181 181.019 168.552V180.412H181.025ZM181.025 166.893C181.025 168.987 179.437 171.107 176.668 172.71L150.946 187.582C148.181 189.182 144.672 190.041 141.292 190.126C141.28 190.123 141.269 190.12 141.257 190.12C141.239 190.12 141.225 190.126 141.21 190.129C138.109 190.197 135.12 189.608 132.924 188.338L104.31 171.793C102.419 170.699 101.336 169.193 101.262 167.552C101.177 165.687 102.34 163.802 104.536 162.241L132.771 178.568C134.9 179.801 137.751 180.404 140.74 180.404C142.437 180.404 144.175 180.206 145.849 179.821C145.884 179.812 145.923 179.804 145.958 179.798C146.108 179.762 146.257 179.724 146.407 179.686C146.489 179.665 146.571 179.645 146.654 179.621C146.768 179.592 146.88 179.559 146.991 179.527C147.103 179.495 147.214 179.462 147.326 179.427C147.414 179.401 147.502 179.371 147.593 179.345C147.722 179.304 147.852 179.259 147.978 179.215C148.051 179.189 148.128 179.165 148.201 179.139C148.339 179.089 148.474 179.039 148.609 178.989C148.677 178.962 148.741 178.939 148.806 178.912C148.944 178.857 149.082 178.801 149.217 178.745C149.279 178.718 149.343 178.692 149.405 178.665C149.543 178.607 149.678 178.545 149.81 178.48C149.869 178.454 149.93 178.427 149.989 178.398C150.127 178.33 150.262 178.263 150.397 178.192C150.45 178.165 150.503 178.139 150.556 178.113C150.741 178.015 150.923 177.916 151.099 177.813L176.821 162.941C176.991 162.841 177.158 162.741 177.32 162.638C177.355 162.614 177.387 162.591 177.422 162.57C177.543 162.493 177.66 162.414 177.775 162.335C177.784 162.341 177.789 162.349 177.798 162.355C179.769 163.49 181.025 165.173 181.025 166.893ZM181.025 157.038C181.019 157.05 181.016 157.065 181.016 157.079C180.905 159.097 179.319 161.132 176.665 162.67L150.943 177.542C150.676 177.698 150.4 177.842 150.118 177.983C150.051 178.018 149.983 178.054 149.913 178.086C149.842 178.118 149.772 178.151 149.701 178.183C149.593 178.233 149.481 178.286 149.37 178.336C149.329 178.354 149.285 178.371 149.243 178.389C149.1 178.451 148.959 178.513 148.812 178.571C148.797 178.577 148.779 178.583 148.765 178.589C146.563 179.468 144.043 179.977 141.448 180.062V167.046C144.833 166.937 148.333 166.07 151.096 164.47L176.818 149.598C178.964 148.357 180.423 146.804 181.022 145.175V157.038H181.025ZM176.668 149.336L150.946 164.208C148.192 165.802 144.701 166.658 141.333 166.749C141.321 166.746 141.31 166.74 141.295 166.74C141.277 166.74 141.263 166.746 141.245 166.749C138.13 166.822 135.126 166.234 132.918 164.958L104.304 148.412C102.334 147.274 101.251 145.701 101.251 143.984C101.251 141.89 102.839 139.769 105.608 138.166L131.327 123.294C134.245 121.606 137.989 120.742 141.536 120.742C144.469 120.742 147.267 121.333 149.352 122.539L177.966 139.084C179.936 140.222 181.019 141.795 181.019 143.513C181.025 145.613 179.437 147.733 176.668 149.336Z" fill="#C7C7C7"/>
    <path d="M175.346 139.289L148.988 124.047C144.651 121.538 137.058 121.853 132.06 124.741L108.368 138.442C105.713 139.977 104.189 142.033 104.189 144.08C104.189 145.783 105.246 147.333 107.164 148.441L133.522 163.684C135.49 164.822 138.124 165.378 140.884 165.378C144.21 165.378 147.716 164.569 150.45 162.99L174.142 149.288C176.797 147.753 178.321 145.697 178.321 143.651C178.321 141.948 177.264 140.398 175.346 139.289ZM160.574 144.174L146.562 152.276C143.679 153.944 139.304 154.129 136.811 152.688L121.223 143.674C120.171 143.065 119.593 142.23 119.593 141.321C119.593 140.207 120.447 139.072 121.933 138.213L135.945 130.111C137.525 129.196 139.551 128.729 141.471 128.729C143.056 128.729 144.569 129.049 145.693 129.699L161.282 138.713C162.333 139.322 162.911 140.157 162.911 141.066C162.914 142.183 162.063 143.315 160.574 144.174ZM121.07 143.939L136.658 152.953C137.827 153.629 139.395 153.961 141.033 153.961C143.009 153.961 145.091 153.482 146.712 152.544L160.724 144.442C161.772 143.836 162.521 143.092 162.911 142.304V144.733C162.911 144.736 162.911 144.736 162.911 144.739C162.852 145.815 162.001 146.903 160.574 147.727L146.559 155.832C143.676 157.499 139.301 157.685 136.808 156.243L121.217 147.227C120.171 146.621 119.593 145.789 119.59 144.883C119.59 144.874 119.59 144.868 119.587 144.859V142.498C119.884 143.048 120.383 143.542 121.07 143.939ZM150.268 162.672C145.37 165.504 137.941 165.816 133.704 163.366L119.552 155.182V145.98C119.84 146.559 120.353 147.074 121.067 147.488L136.658 156.505C137.827 157.182 139.395 157.514 141.036 157.514C143.012 157.514 145.094 157.035 146.718 156.096L160.733 147.991C161.772 147.391 162.524 146.647 162.917 145.859V155.361L150.268 162.672ZM173.96 148.974L163.22 155.185L163.222 141.195C163.222 141.183 163.219 141.171 163.214 141.157C163.214 141.127 163.217 141.095 163.217 141.066C163.217 140.042 162.582 139.113 161.434 138.448L145.846 129.434C143.271 127.943 138.758 128.129 135.789 129.846L121.777 137.948C120.192 138.863 119.285 140.095 119.285 141.321C119.285 141.424 119.241 155.005 119.241 155.005L107.34 148.124C105.54 147.083 104.548 145.647 104.548 144.08C104.548 142.165 106.004 140.224 108.541 138.757L132.233 125.055C134.914 123.505 138.355 122.709 141.618 122.709C144.31 122.709 146.882 123.253 148.797 124.358L175.155 139.601C176.955 140.642 177.948 142.077 177.948 143.645C177.954 145.565 176.5 147.503 173.96 148.974Z" fill="#C7C7C7"/>
    <path d="M140.505 149.05C140.17 149.05 139.838 149.012 139.53 148.939C139.486 148.927 139.439 148.915 139.395 148.903C139.307 148.88 139.219 148.85 139.137 148.821C138.966 148.759 138.808 148.686 138.661 148.603L132.292 144.921C132.028 144.769 131.896 144.545 131.931 144.31C131.963 144.083 132.148 143.886 132.436 143.769C132.542 143.727 132.653 143.695 132.771 143.677L136.253 143.142C137.143 143.007 138.106 143.157 138.764 143.539L142.129 145.483L145.082 139.034L129.576 141.425C129.206 141.481 128.827 141.419 128.551 141.26C128.228 141.072 128.105 140.784 128.231 140.507L129.406 137.919C129.532 137.643 129.779 137.393 130.116 137.196C130.158 137.172 130.199 137.149 130.243 137.128C130.284 137.107 130.328 137.087 130.375 137.066C130.648 136.946 130.956 136.858 131.288 136.808L144.991 134.708C145.743 134.593 146.539 134.678 147.176 134.946C147.296 134.996 147.405 135.049 147.502 135.105L151.613 137.481C151.718 137.543 151.818 137.61 151.912 137.687C152.399 138.087 152.558 138.613 152.335 139.098L148.703 147.024C148.453 147.571 147.731 147.998 146.821 148.136C146.8 148.139 143.931 148.577 142.184 148.839C141.389 148.959 140.96 149.021 140.857 149.036C140.842 149.039 140.84 149.039 140.825 149.039C140.713 149.045 140.611 149.05 140.505 149.05ZM140.819 148.821L140.828 148.853L140.816 148.774L140.819 148.821ZM136.917 143.46C136.714 143.46 136.512 143.475 136.312 143.504L132.829 144.039C132.738 144.054 132.653 144.077 132.574 144.107C132.415 144.171 132.31 144.269 132.295 144.36C132.283 144.439 132.351 144.53 132.477 144.604L138.843 148.286C138.969 148.359 139.107 148.421 139.26 148.477C139.333 148.503 139.413 148.53 139.492 148.55C139.533 148.562 139.574 148.571 139.612 148.583C139.982 148.671 140.387 148.703 140.781 148.677C140.784 148.677 140.793 148.677 140.801 148.674C140.904 148.659 141.33 148.598 142.108 148.48C143.864 148.215 146.721 147.78 146.756 147.774C147.534 147.654 148.165 147.301 148.362 146.871L151.994 138.946C152.147 138.613 152.032 138.266 151.671 137.969C151.595 137.907 151.51 137.849 151.422 137.796L147.311 135.419C147.229 135.372 147.132 135.325 147.026 135.281C146.448 135.04 145.723 134.961 145.038 135.066L131.335 137.166C131.035 137.213 130.759 137.29 130.516 137.399C130.475 137.416 130.436 137.434 130.401 137.455C130.363 137.472 130.328 137.493 130.296 137.513C130.022 137.672 129.826 137.863 129.732 138.072L128.56 140.66C128.501 140.789 128.642 140.895 128.731 140.948C128.936 141.066 129.233 141.11 129.517 141.066L145.361 138.625C145.429 138.613 145.493 138.643 145.535 138.696C145.576 138.749 145.582 138.822 145.555 138.881L142.378 145.821C142.358 145.868 142.316 145.904 142.267 145.918C142.217 145.933 142.164 145.927 142.12 145.904L138.582 143.86C138.138 143.601 137.533 143.46 136.917 143.46Z" fill="#C7C7C7"/>
    <g opacity="0.3">
        <path d="M148.533 146.948L152.165 139.022C152.353 138.613 152.218 138.178 151.792 137.828C151.707 137.757 151.616 137.696 151.519 137.64L147.409 135.263C147.318 135.211 147.215 135.161 147.103 135.113C146.495 134.861 145.735 134.778 145.016 134.887L131.312 136.987C130.995 137.034 130.704 137.119 130.446 137.234C130.402 137.254 130.361 137.272 130.323 137.293C130.282 137.313 130.243 137.334 130.205 137.354C129.9 137.531 129.68 137.751 129.568 137.996L128.646 140.025L128.602 140.122C128.529 140.284 128.458 140.436 128.394 140.581C128.308 140.769 128.399 140.963 128.64 141.101C128.881 141.239 129.219 141.292 129.545 141.242L145.092 138.848L145.388 138.801L145.309 138.972L142.288 145.568L142.209 145.739L141.991 145.612L138.673 143.692C138.048 143.33 137.132 143.186 136.28 143.319L132.798 143.854C132.695 143.869 132.595 143.898 132.501 143.933C132.275 144.024 132.134 144.168 132.111 144.33C132.087 144.489 132.187 144.645 132.384 144.757L138.753 148.439C138.888 148.515 139.037 148.586 139.196 148.645C139.275 148.674 139.357 148.7 139.443 148.721C139.484 148.733 139.528 148.745 139.569 148.753C139.959 148.845 140.382 148.88 140.793 148.85H140.796H140.799C140.802 148.85 140.808 148.85 140.817 148.847H140.826C140.928 148.833 141.357 148.771 142.135 148.653L142.15 148.65C143.897 148.389 146.763 147.95 146.786 147.948C147.641 147.824 148.31 147.439 148.533 146.948Z" fill="#C7C7C7"/>
        <path d="M140.506 149.021C140.174 149.021 139.845 148.983 139.537 148.909C139.493 148.897 139.446 148.888 139.405 148.874C139.317 148.85 139.232 148.824 139.149 148.794C138.982 148.733 138.823 148.662 138.68 148.58L132.311 144.898C132.058 144.751 131.929 144.539 131.964 144.315C131.997 144.098 132.173 143.909 132.449 143.798C132.552 143.757 132.663 143.727 132.778 143.709L136.263 143.174C137.147 143.039 138.101 143.189 138.756 143.568L142.147 145.53L145.136 139.001L129.574 141.398C129.213 141.454 128.837 141.395 128.57 141.239C128.262 141.06 128.141 140.786 128.262 140.525L129.436 137.937C129.56 137.666 129.803 137.419 130.135 137.228C130.173 137.204 130.217 137.181 130.258 137.16C130.3 137.14 130.344 137.119 130.388 137.098C130.658 136.978 130.963 136.893 131.295 136.84L144.998 134.74C145.744 134.625 146.534 134.71 147.168 134.975C147.286 135.025 147.394 135.078 147.491 135.134L151.602 137.51C151.708 137.572 151.805 137.639 151.896 137.713C152.371 138.104 152.527 138.619 152.313 139.089L148.68 147.015C148.434 147.553 147.72 147.974 146.822 148.112C146.801 148.115 143.933 148.553 142.185 148.815C141.39 148.935 140.961 148.997 140.858 149.012L140.841 149.018L140.829 149.015C140.714 149.018 140.612 149.021 140.506 149.021ZM136.918 143.43C136.715 143.43 136.51 143.445 136.31 143.477L132.828 144.012C132.737 144.027 132.649 144.051 132.566 144.083C132.396 144.154 132.284 144.257 132.27 144.359C132.255 144.451 132.329 144.551 132.467 144.633L138.832 148.315C138.959 148.388 139.102 148.453 139.252 148.509C139.328 148.535 139.408 148.562 139.487 148.583C139.528 148.594 139.569 148.603 139.61 148.615C139.986 148.703 140.391 148.735 140.788 148.709L140.811 148.706C140.97 148.683 141.39 148.621 142.118 148.512C143.874 148.247 146.734 147.812 146.766 147.806C147.568 147.683 148.19 147.33 148.396 146.886L152.028 138.96C152.186 138.613 152.069 138.254 151.696 137.948C151.617 137.884 151.531 137.825 151.44 137.772L147.33 135.396C147.245 135.349 147.148 135.299 147.042 135.254C146.461 135.01 145.729 134.934 145.037 135.04L131.339 137.137C131.037 137.184 130.758 137.263 130.511 137.372C130.47 137.39 130.432 137.407 130.394 137.428C130.355 137.445 130.32 137.466 130.285 137.487C130.006 137.648 129.806 137.845 129.709 138.057L128.538 140.645C128.47 140.795 128.623 140.913 128.72 140.969C128.931 141.089 129.231 141.136 129.524 141.092L145.65 138.61L142.282 145.962L138.6 143.833C138.151 143.571 137.54 143.43 136.918 143.43Z" fill="#C7C7C7"/>
    </g>
    <path d="M215.369 232.636C215.284 232.636 215.217 232.569 215.217 232.483V219.152C215.217 219.067 215.284 218.999 215.369 218.999C215.455 218.999 215.522 219.067 215.522 219.152V232.483C215.522 232.569 215.455 232.636 215.369 232.636Z" fill="#C7C7C7"/>
    <path d="M218.054 237.136C218.051 237.133 218.048 237.13 218.045 237.127C217.987 237.068 217.922 237.012 217.855 236.957C217.84 236.945 217.825 236.933 217.808 236.921C217.731 236.863 217.649 236.807 217.558 236.757C216.425 236.101 214.584 236.104 213.45 236.757C213.359 236.81 213.28 236.865 213.201 236.921C213.186 236.933 213.168 236.945 213.154 236.957C213.083 237.01 213.022 237.068 212.963 237.124C212.96 237.127 212.957 237.13 212.954 237.133C212.696 237.401 212.555 237.707 212.555 238.03C212.555 238.518 212.872 238.971 213.45 239.306C214.017 239.633 214.76 239.798 215.503 239.798C216.246 239.798 216.991 239.633 217.555 239.306C218.134 238.971 218.451 238.518 218.451 238.03C218.454 237.709 218.313 237.404 218.054 237.136ZM215.506 236.568C216.193 236.568 216.883 236.721 217.405 237.021C217.467 237.057 217.526 237.095 217.582 237.133C217.59 237.139 217.596 237.145 217.605 237.151C217.652 237.186 217.696 237.218 217.737 237.257C217.74 237.26 217.74 237.26 217.743 237.262C218.025 237.512 218.16 237.804 218.134 238.098C217.987 237.918 217.796 237.757 217.558 237.621C216.425 236.965 214.584 236.965 213.45 237.621C213.212 237.759 213.022 237.918 212.875 238.098C212.848 237.804 212.983 237.512 213.268 237.262L213.271 237.26C213.312 237.221 213.359 237.186 213.406 237.151C213.412 237.145 213.421 237.139 213.427 237.136C213.483 237.098 213.541 237.06 213.603 237.024C214.129 236.718 214.816 236.568 215.506 236.568ZM217.405 239.045C216.357 239.65 214.651 239.65 213.603 239.045C213.318 238.88 213.113 238.686 212.992 238.48C213.116 238.251 213.318 238.051 213.603 237.886C214.651 237.28 216.357 237.28 217.405 237.886C217.69 238.051 217.893 238.251 218.016 238.48C217.896 238.686 217.69 238.88 217.405 239.045Z" fill="#C7C7C7"/>
    <path d="M183.792 219.167C183.789 219.164 183.783 219.161 183.78 219.155C183.724 219.097 183.659 219.041 183.592 218.988C183.577 218.976 183.56 218.961 183.545 218.95C183.469 218.891 183.386 218.838 183.298 218.785C182.165 218.129 180.324 218.129 179.19 218.785C179.188 218.788 179.185 218.791 179.179 218.794C179.094 218.844 179.017 218.897 178.944 218.95C178.926 218.961 178.909 218.976 178.894 218.991C178.826 219.044 178.765 219.099 178.709 219.155C178.706 219.158 178.7 219.164 178.694 219.167C178.436 219.435 178.295 219.741 178.295 220.061C178.295 220.549 178.612 221.002 179.19 221.338C179.757 221.664 180.5 221.829 181.243 221.829C181.986 221.829 182.732 221.664 183.295 221.338C183.874 221.005 184.191 220.549 184.191 220.061C184.191 219.741 184.05 219.435 183.792 219.167ZM178.997 219.299C179.003 219.297 179.005 219.291 179.011 219.288C179.047 219.255 179.088 219.226 179.129 219.197C179.144 219.188 179.155 219.176 179.17 219.164C179.205 219.138 179.246 219.114 179.284 219.091C179.305 219.079 179.323 219.064 179.343 219.052C179.866 218.75 180.556 218.6 181.243 218.6C181.93 218.6 182.62 218.752 183.143 219.052C183.204 219.088 183.263 219.126 183.319 219.164C183.328 219.17 183.336 219.179 183.348 219.188C183.392 219.22 183.436 219.255 183.474 219.288C183.477 219.291 183.48 219.294 183.483 219.297C183.762 219.547 183.897 219.835 183.871 220.126C183.724 219.946 183.533 219.785 183.295 219.649C182.162 218.994 180.321 218.994 179.188 219.649C178.95 219.788 178.759 219.946 178.612 220.126C178.586 219.835 178.721 219.549 178.997 219.299ZM183.143 221.073C182.094 221.679 180.388 221.679 179.34 221.073C179.055 220.908 178.85 220.717 178.729 220.508C178.853 220.279 179.055 220.079 179.34 219.914C180.388 219.308 182.094 219.308 183.143 219.914C183.427 220.079 183.63 220.279 183.753 220.508C183.633 220.717 183.427 220.908 183.143 221.073Z" fill="#C7C7C7"/>
    <path d="M251.964 218.876C251.961 218.873 251.956 218.867 251.953 218.864C251.897 218.805 251.832 218.752 251.765 218.696C251.75 218.685 251.732 218.67 251.718 218.658C251.641 218.602 251.559 218.547 251.471 218.494C250.341 217.838 248.5 217.838 247.366 218.494H247.363C247.36 218.497 247.357 218.499 247.352 218.502C247.266 218.552 247.19 218.605 247.117 218.658C247.099 218.67 247.081 218.685 247.067 218.699C246.999 218.752 246.938 218.808 246.882 218.864C246.876 218.87 246.873 218.873 246.867 218.879C246.609 219.146 246.468 219.452 246.468 219.773C246.468 220.261 246.785 220.714 247.363 221.049C247.93 221.376 248.673 221.54 249.416 221.54C250.159 221.54 250.904 221.376 251.468 221.049C252.047 220.717 252.364 220.261 252.364 219.773C252.364 219.446 252.223 219.141 251.964 218.876ZM251.315 218.758C251.377 218.794 251.436 218.832 251.492 218.87C251.503 218.876 251.509 218.885 251.521 218.894C251.565 218.926 251.609 218.958 251.647 218.994C251.65 218.996 251.653 218.999 251.659 219.005C251.938 219.255 252.073 219.543 252.047 219.835C251.9 219.652 251.709 219.493 251.471 219.358C250.338 218.702 248.497 218.702 247.363 219.358C247.126 219.496 246.935 219.655 246.788 219.835C246.761 219.543 246.894 219.255 247.172 219.005C247.178 219.002 247.181 218.996 247.187 218.994C247.222 218.961 247.264 218.932 247.305 218.902C247.319 218.894 247.331 218.882 247.346 218.87C247.381 218.844 247.422 218.82 247.46 218.796C247.481 218.785 247.498 218.77 247.519 218.758C248.045 218.455 248.732 218.302 249.419 218.302C250.103 218.305 250.793 218.455 251.315 218.758ZM251.315 220.782C250.267 221.387 248.561 221.387 247.513 220.782C247.228 220.617 247.023 220.423 246.902 220.217C247.026 219.988 247.231 219.788 247.513 219.623C248.561 219.017 250.267 219.017 251.313 219.623C251.597 219.788 251.8 219.988 251.926 220.217C251.806 220.423 251.6 220.617 251.315 220.782Z" fill="#C7C7C7"/>
    <path d="M228.681 223.096C228.519 223.096 228.378 223.061 228.255 222.99C227.947 222.814 227.791 222.432 227.791 221.855C227.791 220.552 228.59 219.032 229.573 218.464L244.536 210.062C245 209.795 245.458 209.762 245.822 209.974C246.251 210.221 246.498 210.78 246.498 211.5C246.498 212.662 245.866 213.668 244.718 214.329L229.755 222.732C229.335 222.976 228.977 223.096 228.681 223.096ZM245.297 210.203C245.118 210.203 244.921 210.262 244.715 210.38L229.752 218.782C228.874 219.291 228.155 220.67 228.155 221.855C228.155 222.155 228.205 222.537 228.434 222.673C228.657 222.802 229.059 222.711 229.57 222.414C229.57 222.414 229.57 222.414 229.573 222.414L244.536 214.015C245.132 213.671 246.134 212.885 246.134 211.5C246.134 210.912 245.955 210.471 245.64 210.289C245.538 210.233 245.423 210.203 245.297 210.203Z" fill="#C7C7C7"/>
    <g opacity="0.3">
        <path d="M229.665 222.576L244.628 214.176C245.562 213.635 246.319 212.75 246.319 211.503C246.319 210.256 245.562 209.683 244.628 210.224L229.665 218.623C228.731 219.164 227.977 220.611 227.977 221.858C227.977 223.102 228.731 223.114 229.665 222.576Z" fill="#C7C7C7"/>
        <path d="M228.681 223.07C228.525 223.07 228.39 223.034 228.27 222.967C227.973 222.796 227.82 222.423 227.82 221.858C227.82 220.564 228.613 219.055 229.588 218.491L244.551 210.089C245.003 209.827 245.452 209.794 245.808 210C246.228 210.244 246.468 210.791 246.468 211.503C246.468 212.653 245.84 213.65 244.701 214.309L229.738 222.711C229.327 222.949 228.971 223.07 228.681 223.07ZM245.297 210.174C245.112 210.174 244.912 210.236 244.701 210.356L229.738 218.758C228.851 219.273 228.126 220.664 228.126 221.858C228.126 222.305 228.226 222.587 228.419 222.702C228.651 222.837 229.065 222.743 229.585 222.443H229.588L244.551 214.044C245.153 213.697 246.163 212.903 246.163 211.506C246.163 210.906 245.978 210.456 245.655 210.271C245.549 210.203 245.429 210.174 245.297 210.174Z" fill="#C7C7C7"/>
    </g>
    <path d="M228.681 246.279C228.519 246.279 228.378 246.244 228.255 246.173C227.947 245.996 227.791 245.614 227.791 245.038C227.791 243.735 228.59 242.215 229.573 241.647L244.536 233.245C245 232.977 245.458 232.945 245.822 233.157C246.251 233.404 246.498 233.962 246.498 234.683C246.498 235.845 245.866 236.85 244.718 237.512L229.755 245.914C229.335 246.158 228.977 246.279 228.681 246.279ZM245.297 233.386C245.118 233.386 244.921 233.445 244.715 233.562L229.752 241.965C228.874 242.473 228.155 243.853 228.155 245.038C228.155 245.338 228.205 245.72 228.434 245.855C228.657 245.985 229.059 245.894 229.57 245.597C229.57 245.597 229.57 245.597 229.573 245.597L244.536 237.197C245.132 236.853 246.134 236.068 246.134 234.686C246.134 234.098 245.955 233.656 245.64 233.474C245.538 233.415 245.423 233.386 245.297 233.386Z" fill="#C7C7C7"/>
    <g opacity="0.3">
        <path d="M229.665 245.758L244.628 237.359C245.562 236.818 246.319 235.933 246.319 234.686C246.319 233.439 245.562 232.865 244.628 233.406L229.665 241.806C228.731 242.347 227.977 243.794 227.977 245.041C227.977 246.285 228.731 246.296 229.665 245.758Z" fill="#C7C7C7"/>
        <path d="M228.681 246.25C228.525 246.25 228.39 246.214 228.27 246.147C227.973 245.976 227.82 245.603 227.82 245.038C227.82 243.744 228.613 242.235 229.588 241.671L244.551 233.269C245.003 233.007 245.452 232.974 245.808 233.18C246.228 233.424 246.468 233.971 246.468 234.683C246.468 235.833 245.84 236.83 244.701 237.489L229.738 245.891C229.327 246.132 228.971 246.25 228.681 246.25ZM245.297 233.357C245.112 233.357 244.912 233.419 244.701 233.539L229.738 241.941C228.851 242.456 228.126 243.847 228.126 245.041C228.126 245.488 228.226 245.77 228.419 245.885C228.651 246.02 229.065 245.926 229.585 245.626H229.588L244.551 237.227C245.153 236.88 246.163 236.086 246.163 234.689C246.163 234.089 245.978 233.639 245.655 233.454C245.549 233.386 245.429 233.357 245.297 233.357Z" fill="#C7C7C7"/>
    </g>
    <path d="M200.595 222.264C200.299 222.264 199.941 222.143 199.521 221.899L184.561 213.5C183.41 212.835 182.778 211.829 182.778 210.668C182.778 209.944 183.025 209.388 183.454 209.141C183.818 208.93 184.276 208.962 184.743 209.23L199.703 217.629C200.686 218.199 201.485 219.72 201.485 221.023C201.485 221.599 201.329 221.978 201.021 222.158C200.898 222.228 200.757 222.264 200.595 222.264ZM183.976 209.371C183.85 209.371 183.736 209.4 183.633 209.459C183.319 209.641 183.139 210.083 183.139 210.671C183.139 212.053 184.141 212.838 184.737 213.185L199.697 221.584H199.7C200.208 221.878 200.613 221.97 200.836 221.843C201.068 221.708 201.115 221.326 201.115 221.026C201.115 219.84 200.399 218.461 199.518 217.949L184.558 209.55C184.355 209.43 184.155 209.371 183.976 209.371Z" fill="#C7C7C7"/>
    <g opacity="0.3">
        <path d="M199.61 221.743L184.647 213.344C183.714 212.803 182.956 211.918 182.956 210.671C182.956 209.424 183.714 208.85 184.647 209.392L199.61 217.791C200.544 218.332 201.299 219.779 201.299 221.026C201.299 222.27 200.541 222.282 199.61 221.743Z" fill="#C7C7C7"/>
        <path d="M200.593 222.234C200.303 222.234 199.947 222.114 199.533 221.876L184.57 213.476C183.428 212.815 182.803 211.821 182.803 210.671C182.803 209.959 183.044 209.412 183.463 209.168C183.819 208.962 184.265 208.995 184.723 209.256L199.683 217.655C200.658 218.22 201.451 219.732 201.451 221.023C201.451 221.587 201.301 221.961 201.002 222.132C200.884 222.202 200.749 222.234 200.593 222.234ZM183.974 209.342C183.845 209.342 183.725 209.371 183.616 209.433C183.293 209.618 183.108 210.071 183.108 210.668C183.108 212.065 184.118 212.859 184.72 213.209L199.683 221.608C200.203 221.908 200.617 221.999 200.849 221.867C201.046 221.755 201.142 221.47 201.142 221.023C201.142 219.829 200.417 218.435 199.53 217.92L184.57 209.521C184.362 209.403 184.159 209.342 183.974 209.342Z" fill="#C7C7C7"/>
    </g>
    <path d="M200.595 245.562C200.299 245.562 199.941 245.441 199.521 245.197L184.561 236.798C183.41 236.133 182.778 235.127 182.778 233.966C182.778 233.242 183.025 232.686 183.454 232.439C183.821 232.228 184.276 232.26 184.743 232.527L199.703 240.927C200.686 241.497 201.485 243.018 201.485 244.32C201.485 244.897 201.329 245.276 201.021 245.456C200.898 245.526 200.757 245.562 200.595 245.562ZM183.976 232.669C183.85 232.669 183.736 232.698 183.633 232.757C183.319 232.939 183.139 233.38 183.139 233.969C183.139 235.351 184.141 236.136 184.737 236.483L199.697 244.882H199.7C200.208 245.176 200.613 245.267 200.836 245.141C201.068 245.006 201.115 244.623 201.115 244.323C201.115 243.138 200.399 241.759 199.518 241.247L184.558 232.848C184.355 232.727 184.155 232.669 183.976 232.669Z" fill="#C7C7C7"/>
    <g opacity="0.3">
        <path d="M199.611 245.041L184.648 236.642C183.715 236.101 182.957 235.216 182.957 233.969C182.957 232.722 183.715 232.148 184.648 232.689L199.611 241.089C200.545 241.63 201.3 243.077 201.3 244.324C201.3 245.568 200.542 245.579 199.611 245.041Z" fill="#C7C7C7"/>
        <path d="M200.595 245.532C200.305 245.532 199.949 245.411 199.535 245.173L184.575 236.774C183.433 236.112 182.808 235.118 182.808 233.968C182.808 233.257 183.048 232.71 183.468 232.465C183.824 232.26 184.273 232.292 184.728 232.554L199.688 240.953C200.663 241.518 201.456 243.029 201.456 244.32C201.456 244.885 201.306 245.258 201.006 245.429C200.886 245.499 200.751 245.532 200.595 245.532ZM183.976 232.639C183.847 232.639 183.727 232.668 183.618 232.73C183.295 232.915 183.11 233.368 183.11 233.965C183.11 235.362 184.12 236.156 184.722 236.506L199.685 244.905C200.205 245.205 200.619 245.297 200.851 245.164C201.048 245.052 201.144 244.767 201.144 244.32C201.144 243.126 200.419 241.732 199.532 241.218L184.572 232.818C184.364 232.701 184.161 232.639 183.976 232.639Z" fill="#C7C7C7"/>
    </g>
    <path d="M255.406 195.775C255.406 193.943 254.267 192.276 252.199 191.082L223.586 174.536C218.891 171.822 210.669 172.16 205.255 175.292L179.536 190.164C176.668 191.823 175.023 194.037 175.023 196.246C175.023 196.275 175.026 196.305 175.026 196.334C175.023 196.325 175.023 196.325 175.023 196.337C175.023 196.337 175.021 209.627 175.023 209.639C175.044 211.459 176.183 213.094 178.23 214.276L178.318 214.329C176.133 215.917 174.971 217.835 175.026 219.749C175.026 219.758 175.021 219.764 175.021 219.77V232.969C175.021 232.98 175.023 232.992 175.023 233.004C175.044 234.818 176.18 236.465 178.227 237.651L206.84 254.196C208.969 255.428 211.82 256.031 214.809 256.031C216.507 256.031 218.248 255.834 219.924 255.449C219.957 255.44 219.992 255.434 220.024 255.425C220.177 255.39 220.332 255.352 220.485 255.311C220.564 255.29 220.641 255.269 220.72 255.249C220.837 255.216 220.955 255.184 221.069 255.152C221.178 255.119 221.287 255.09 221.392 255.055C221.486 255.025 221.577 254.999 221.671 254.967C221.798 254.925 221.921 254.884 222.044 254.843C222.124 254.817 222.203 254.79 222.279 254.761C222.411 254.714 222.543 254.664 222.673 254.614C222.743 254.587 222.814 254.561 222.884 254.531C223.019 254.478 223.151 254.422 223.28 254.37C223.348 254.34 223.416 254.314 223.48 254.284C223.612 254.225 223.741 254.167 223.874 254.108C223.938 254.078 224.003 254.049 224.064 254.02C224.199 253.955 224.329 253.887 224.461 253.823C224.517 253.793 224.572 253.767 224.628 253.737C224.813 253.64 224.995 253.54 225.171 253.437L250.893 238.565C251.063 238.465 251.23 238.365 251.392 238.262C251.439 238.233 251.483 238.203 251.527 238.171C251.642 238.098 251.756 238.024 251.865 237.948C251.923 237.906 251.976 237.865 252.032 237.824C252.126 237.756 252.22 237.689 252.311 237.621C252.373 237.574 252.428 237.527 252.487 237.48C252.569 237.415 252.652 237.351 252.731 237.286C252.793 237.236 252.848 237.183 252.907 237.13C252.978 237.068 253.054 237.004 253.121 236.942C253.18 236.889 253.233 236.833 253.289 236.777C253.353 236.715 253.421 236.651 253.483 236.589C253.538 236.53 253.588 236.474 253.644 236.415C253.703 236.354 253.761 236.292 253.817 236.227C253.87 236.168 253.917 236.107 253.967 236.045C254.02 235.983 254.073 235.921 254.12 235.857C254.167 235.795 254.211 235.733 254.255 235.671C254.302 235.61 254.349 235.545 254.393 235.483C254.434 235.421 254.472 235.357 254.513 235.295C254.554 235.23 254.595 235.168 254.634 235.104C254.672 235.042 254.701 234.977 254.736 234.916C254.772 234.851 254.81 234.783 254.842 234.718C254.874 234.657 254.901 234.595 254.927 234.53C254.957 234.463 254.992 234.395 255.018 234.327C255.045 234.266 255.065 234.204 255.086 234.142C255.112 234.074 255.139 234.004 255.162 233.936C255.183 233.874 255.197 233.816 255.215 233.754C255.235 233.683 255.256 233.613 255.274 233.542C255.288 233.483 255.297 233.424 255.309 233.363C255.324 233.289 255.338 233.219 255.35 233.145C255.359 233.086 255.362 233.03 255.368 232.972C255.373 232.907 255.385 232.839 255.388 232.775C255.394 232.757 255.4 232.736 255.4 232.716V219.382C255.4 219.367 255.394 219.352 255.391 219.338C255.394 219.273 255.4 219.211 255.4 219.146C255.4 217.341 254.126 215.588 252.108 214.394C252.176 214.344 252.243 214.297 252.308 214.247C252.361 214.209 252.408 214.168 252.458 214.126C252.549 214.056 252.64 213.982 252.728 213.912C252.784 213.865 252.834 213.821 252.886 213.773C252.966 213.706 253.045 213.638 253.118 213.568C253.171 213.518 253.221 213.468 253.271 213.418C253.342 213.35 253.412 213.282 253.48 213.215C253.53 213.162 253.576 213.109 253.626 213.056C253.688 212.988 253.753 212.924 253.811 212.853C253.861 212.797 253.905 212.738 253.952 212.682C254.008 212.618 254.064 212.55 254.114 212.482C254.158 212.424 254.199 212.365 254.243 212.306C254.29 212.241 254.34 212.177 254.387 212.109C254.428 212.047 254.466 211.985 254.504 211.924C254.545 211.859 254.59 211.794 254.628 211.727C254.663 211.665 254.695 211.603 254.73 211.538C254.766 211.474 254.804 211.406 254.836 211.341C254.868 211.277 254.895 211.215 254.924 211.15C254.954 211.085 254.986 211.018 255.012 210.953C255.039 210.888 255.062 210.824 255.086 210.759C255.109 210.694 255.136 210.627 255.156 210.562C255.177 210.497 255.194 210.43 255.212 210.365C255.23 210.3 255.25 210.233 255.268 210.168C255.282 210.103 255.294 210.036 255.306 209.971C255.318 209.906 255.332 209.839 255.344 209.774C255.353 209.706 255.359 209.642 255.365 209.574C255.371 209.515 255.379 209.459 255.385 209.4C255.394 209.383 255.397 209.362 255.397 209.342V196.008C255.397 195.993 255.391 195.978 255.388 195.963C255.4 195.905 255.406 195.84 255.406 195.775ZM179.686 190.429L205.405 175.557C208.323 173.868 212.067 173.004 215.614 173.004C218.547 173.004 221.345 173.595 223.43 174.801L252.044 191.346C254.014 192.484 255.097 194.058 255.097 195.775C255.097 197.869 253.509 199.99 250.74 201.592L225.019 216.464C219.689 219.546 211.603 219.885 206.993 217.22L178.38 200.675C176.409 199.537 175.326 197.963 175.326 196.246C175.329 194.149 176.917 192.031 179.686 190.429ZM206.996 253.928L178.382 237.383C176.424 236.251 175.341 234.683 175.332 232.972C175.332 232.96 175.329 232.951 175.329 232.939V221.217C175.796 222.411 176.788 223.481 178.23 224.317L206.843 240.862C208.972 242.094 211.823 242.697 214.812 242.697C214.933 242.697 215.056 242.694 215.176 242.691L215.218 255.725C212.137 255.778 209.178 255.19 206.996 253.928ZM255.097 232.672C255.092 232.683 255.089 232.698 255.089 232.713C254.977 234.73 253.392 236.765 250.737 238.303L225.016 253.176C224.851 253.273 224.681 253.364 224.511 253.455C224.455 253.484 224.393 253.514 224.337 253.543C224.223 253.602 224.108 253.661 223.991 253.72C223.891 253.767 223.791 253.814 223.689 253.861C223.612 253.896 223.536 253.934 223.457 253.967C223.286 254.043 223.113 254.117 222.937 254.187C222.928 254.19 222.922 254.193 222.913 254.196C220.694 255.093 218.145 255.616 215.517 255.702L215.476 242.685C218.876 242.582 222.391 241.712 225.166 240.106L250.887 225.234C253.033 223.993 254.493 222.44 255.092 220.811V232.672H255.097ZM255.097 219.149C255.097 221.243 253.509 223.364 250.74 224.966L225.019 239.839C222.253 241.438 218.744 242.297 215.364 242.382C215.353 242.38 215.341 242.377 215.329 242.377C215.312 242.377 215.297 242.382 215.282 242.385C212.181 242.453 209.192 241.865 206.996 240.594L178.382 224.049C176.492 222.955 175.408 221.449 175.335 219.808C175.25 217.944 176.412 216.059 178.609 214.497L206.843 230.825C208.972 232.057 211.823 232.66 214.812 232.66C216.509 232.66 218.248 232.463 219.921 232.078C219.957 232.069 219.995 232.06 220.03 232.054C220.18 232.019 220.33 231.981 220.479 231.942C220.561 231.922 220.644 231.901 220.726 231.878C220.84 231.848 220.952 231.816 221.064 231.783C221.175 231.751 221.287 231.719 221.398 231.683C221.486 231.657 221.574 231.628 221.666 231.601C221.795 231.56 221.924 231.516 222.05 231.472C222.124 231.445 222.2 231.422 222.273 231.395C222.411 231.345 222.546 231.295 222.681 231.245C222.749 231.219 222.814 231.195 222.878 231.169C223.016 231.113 223.154 231.057 223.289 231.001C223.351 230.975 223.416 230.948 223.477 230.922C223.615 230.863 223.75 230.801 223.882 230.737C223.941 230.71 224.003 230.684 224.061 230.654C224.199 230.587 224.335 230.519 224.47 230.448C224.522 230.422 224.575 230.395 224.628 230.369C224.813 230.272 224.995 230.172 225.171 230.069L250.893 215.197C251.063 215.097 251.23 214.997 251.392 214.894C251.427 214.87 251.459 214.847 251.495 214.826C251.615 214.75 251.733 214.67 251.847 214.591C251.856 214.597 251.862 214.606 251.871 214.612C253.844 215.747 255.097 217.432 255.097 219.149ZM255.097 209.297C255.092 209.309 255.089 209.324 255.089 209.339C254.977 211.356 253.392 213.391 250.737 214.929L225.016 229.801C224.749 229.957 224.473 230.101 224.191 230.242C224.123 230.278 224.056 230.313 223.985 230.345C223.915 230.378 223.844 230.41 223.774 230.442C223.665 230.492 223.554 230.545 223.442 230.595C223.401 230.613 223.357 230.631 223.316 230.648C223.172 230.71 223.031 230.772 222.884 230.831C222.869 230.837 222.852 230.842 222.837 230.848C220.591 231.745 218.013 232.26 215.361 232.328C215.341 232.328 215.32 232.333 215.3 232.342C212.19 232.413 209.192 231.825 206.99 230.551L178.377 214.006C176.418 212.874 175.329 211.315 175.323 209.603C175.323 209.592 175.323 197.843 175.323 197.843C175.79 199.034 176.779 200.101 178.224 200.936L206.838 217.482C208.966 218.714 211.817 219.317 214.806 219.317C218.409 219.317 222.209 218.441 225.168 216.729L250.89 201.857C253.036 200.616 254.496 199.063 255.095 197.434V209.297H255.097Z" fill="#C7C7C7"/>
    <path d="M249.419 191.549L223.061 176.307C218.724 173.798 211.131 174.113 206.133 177.001L182.441 190.702C179.787 192.237 178.263 194.293 178.263 196.34C178.263 198.043 179.32 199.593 181.237 200.701L207.596 215.944C209.563 217.082 212.197 217.638 214.957 217.638C218.284 217.638 221.789 216.829 224.523 215.25L248.216 201.548C250.87 200.013 252.394 197.957 252.394 195.911C252.394 194.205 251.337 192.658 249.419 191.549ZM234.65 196.434L220.638 204.536C217.755 206.204 213.38 206.389 210.887 204.948L195.299 195.934C194.248 195.325 193.669 194.49 193.669 193.581C193.669 192.467 194.524 191.332 196.009 190.473L210.021 182.371C211.601 181.456 213.627 180.989 215.547 180.989C217.133 180.989 218.645 181.309 219.769 181.959L235.358 190.973C236.409 191.582 236.987 192.417 236.987 193.326C236.99 194.44 236.136 195.572 234.65 196.434ZM195.143 196.199L210.732 205.213C211.9 205.889 213.468 206.221 215.107 206.221C217.083 206.221 219.164 205.742 220.785 204.804L234.797 196.702C235.845 196.096 236.594 195.352 236.984 194.564V196.993C236.984 196.996 236.984 196.996 236.984 196.999C236.926 198.075 236.074 199.163 234.647 199.987L220.633 208.092C217.749 209.759 213.374 209.945 210.881 208.503L195.29 199.487C194.245 198.881 193.666 198.049 193.663 197.143C193.663 197.134 193.663 197.128 193.66 197.119V194.758C193.96 195.308 194.456 195.802 195.143 196.199ZM224.341 214.932C219.443 217.764 212.015 218.076 207.778 215.626L193.625 207.442V198.24C193.913 198.819 194.427 199.334 195.14 199.748L210.732 208.765C211.9 209.442 213.468 209.774 215.109 209.774C217.086 209.774 219.167 209.295 220.791 208.356L234.806 200.251C235.845 199.651 236.597 198.907 236.99 198.119V207.621L224.341 214.932ZM248.036 201.231L237.296 207.442L237.299 193.452C237.299 193.44 237.296 193.428 237.29 193.414C237.29 193.384 237.293 193.352 237.293 193.323C237.293 192.299 236.659 191.37 235.51 190.705L219.922 181.691C217.347 180.2 212.834 180.386 209.865 182.103L195.854 190.205C194.268 191.12 193.361 192.352 193.361 193.578C193.361 193.681 193.317 207.262 193.317 207.262L181.416 200.381C179.616 199.34 178.624 197.905 178.624 196.337C178.624 194.423 180.08 192.482 182.617 191.014L206.31 177.312C208.99 175.763 212.432 174.966 215.694 174.966C218.386 174.966 220.958 175.51 222.873 176.615L249.231 191.858C251.031 192.899 252.024 194.334 252.024 195.902C252.03 197.822 250.573 199.763 248.036 201.231Z" fill="#C7C7C7"/>
    <path d="M214.583 201.307C214.248 201.307 213.916 201.269 213.608 201.195C213.564 201.184 213.517 201.172 213.473 201.16C213.385 201.136 213.297 201.107 213.215 201.078C213.044 201.016 212.886 200.942 212.742 200.86L206.373 197.178C206.109 197.025 205.977 196.802 206.012 196.566C206.044 196.34 206.229 196.143 206.517 196.025C206.623 195.984 206.734 195.952 206.852 195.934L210.334 195.399C211.224 195.264 212.187 195.413 212.845 195.796L216.21 197.74L219.163 191.29L203.654 193.678C203.284 193.734 202.906 193.672 202.63 193.514C202.307 193.325 202.183 193.037 202.309 192.761L203.484 190.173C203.61 189.896 203.857 189.646 204.195 189.449C204.236 189.426 204.277 189.402 204.321 189.382C204.362 189.361 204.406 189.341 204.453 189.32C204.726 189.199 205.034 189.111 205.366 189.061L219.07 186.961C219.821 186.847 220.617 186.932 221.254 187.2C221.374 187.25 221.483 187.303 221.58 187.358L225.691 189.735C225.796 189.796 225.896 189.864 225.99 189.941C226.478 190.34 226.636 190.867 226.413 191.352L222.781 199.278C222.531 199.825 221.809 200.251 220.899 200.392C220.878 200.395 218.01 200.834 216.262 201.095C215.467 201.216 215.038 201.278 214.935 201.292C214.921 201.295 214.918 201.295 214.903 201.295C214.791 201.304 214.686 201.307 214.583 201.307ZM214.894 201.081L214.903 201.113L214.891 201.034L214.894 201.081ZM210.992 195.719C210.789 195.719 210.587 195.734 210.387 195.763L206.905 196.299C206.814 196.313 206.729 196.337 206.649 196.366C206.491 196.431 206.385 196.528 206.37 196.619C206.359 196.699 206.426 196.79 206.552 196.863L212.918 200.545C213.044 200.619 213.182 200.681 213.335 200.737C213.408 200.763 213.488 200.789 213.567 200.81C213.608 200.822 213.649 200.831 213.687 200.842C214.057 200.931 214.463 200.963 214.856 200.936C214.859 200.936 214.868 200.936 214.877 200.934C214.979 200.919 215.405 200.857 216.183 200.739C217.939 200.475 220.796 200.04 220.831 200.034C221.609 199.913 222.241 199.56 222.437 199.131L226.069 191.205C226.222 190.873 226.108 190.526 225.747 190.229C225.67 190.167 225.585 190.108 225.497 190.055L221.386 187.679C221.304 187.632 221.207 187.585 221.101 187.541C220.523 187.3 219.798 187.22 219.114 187.326L205.41 189.426C205.111 189.473 204.835 189.549 204.591 189.658C204.55 189.676 204.512 189.693 204.476 189.714C204.438 189.732 204.403 189.752 204.371 189.773C204.098 189.932 203.901 190.123 203.807 190.332L202.635 192.92C202.577 193.049 202.718 193.155 202.806 193.208C203.011 193.325 203.308 193.37 203.593 193.325L219.437 190.885C219.504 190.873 219.569 190.902 219.61 190.955C219.651 191.008 219.657 191.082 219.63 191.14L216.453 198.081C216.433 198.128 216.392 198.163 216.342 198.178C216.292 198.193 216.239 198.187 216.195 198.163L212.657 196.119C212.216 195.858 211.611 195.719 210.992 195.719Z" fill="#C7C7C7"/>
    <g opacity="0.3">
        <path d="M222.609 199.204L226.241 191.278C226.429 190.869 226.294 190.434 225.869 190.084C225.783 190.014 225.692 189.952 225.596 189.896L221.485 187.52C221.394 187.467 221.291 187.417 221.179 187.37C220.572 187.117 219.811 187.035 219.092 187.143L205.388 189.243C205.071 189.29 204.781 189.376 204.522 189.49C204.478 189.511 204.437 189.528 204.399 189.549C204.358 189.57 204.32 189.59 204.281 189.611C203.976 189.787 203.756 190.008 203.644 190.252L202.722 192.281L202.678 192.378C202.605 192.54 202.537 192.693 202.47 192.837C202.385 193.025 202.476 193.219 202.716 193.357C202.957 193.496 203.295 193.549 203.621 193.499L219.168 191.105L219.465 191.058L219.385 191.228L216.364 197.825L216.285 197.995L216.067 197.869L212.749 195.948C212.124 195.587 211.208 195.443 210.356 195.575L206.874 196.11C206.771 196.125 206.671 196.154 206.578 196.19C206.351 196.281 206.21 196.425 206.187 196.587C206.164 196.745 206.263 196.901 206.46 197.013L212.829 200.695C212.964 200.771 213.114 200.842 213.272 200.901C213.351 200.93 213.434 200.957 213.519 200.977C213.56 200.989 213.604 201.001 213.645 201.01C214.036 201.101 214.458 201.136 214.869 201.107H214.872H214.875C214.878 201.107 214.884 201.107 214.893 201.104H214.902C215.005 201.089 215.433 201.027 216.211 200.91L216.226 200.907C217.973 200.645 220.839 200.207 220.862 200.204C221.717 200.083 222.383 199.695 222.609 199.204Z" fill="#C7C7C7"/>
        <path d="M214.582 201.278C214.25 201.278 213.921 201.24 213.613 201.166C213.569 201.154 213.522 201.145 213.481 201.131C213.393 201.107 213.308 201.081 213.226 201.051C213.058 200.99 212.9 200.919 212.756 200.837L206.387 197.155C206.135 197.008 206.005 196.796 206.041 196.572C206.073 196.355 206.249 196.167 206.525 196.055C206.628 196.014 206.739 195.984 206.854 195.967L210.339 195.431C211.223 195.296 212.177 195.446 212.832 195.825L216.223 197.787L219.213 191.258L203.651 193.655C203.289 193.711 202.913 193.652 202.646 193.496C202.338 193.317 202.218 193.043 202.338 192.782L203.512 190.194C203.636 189.923 203.88 189.676 204.211 189.485C204.249 189.461 204.294 189.438 204.335 189.417C204.376 189.397 204.42 189.376 204.464 189.355C204.734 189.235 205.039 189.15 205.371 189.097L219.075 186.997C219.82 186.882 220.61 186.967 221.244 187.232C221.362 187.282 221.47 187.335 221.567 187.391L225.678 189.767C225.784 189.829 225.881 189.897 225.972 189.97C226.447 190.361 226.603 190.876 226.389 191.346L222.757 199.272C222.51 199.81 221.796 200.231 220.898 200.369C220.877 200.372 218.009 200.81 216.262 201.072C215.466 201.193 215.037 201.254 214.934 201.269L214.917 201.275L214.905 201.272C214.791 201.275 214.685 201.278 214.582 201.278ZM210.991 195.69C210.788 195.69 210.583 195.705 210.383 195.737L206.901 196.272C206.81 196.287 206.722 196.311 206.64 196.343C206.469 196.414 206.358 196.517 206.343 196.619C206.328 196.711 206.402 196.811 206.54 196.893L212.906 200.575C213.032 200.648 213.176 200.713 213.325 200.769C213.402 200.796 213.481 200.822 213.56 200.843C213.601 200.854 213.643 200.863 213.684 200.875C214.059 200.963 214.465 200.995 214.861 200.969L214.885 200.966C215.043 200.943 215.463 200.881 216.191 200.772C217.947 200.507 220.807 200.072 220.839 200.066C221.641 199.943 222.263 199.59 222.469 199.146L226.101 191.22C226.259 190.873 226.142 190.514 225.769 190.208C225.69 190.144 225.605 190.085 225.514 190.032L221.403 187.656C221.318 187.609 221.221 187.559 221.115 187.514C220.534 187.27 219.803 187.194 219.11 187.3L205.406 189.4C205.104 189.447 204.825 189.526 204.578 189.635C204.537 189.652 204.499 189.67 204.461 189.691C204.423 189.708 204.387 189.729 204.352 189.75C204.073 189.911 203.874 190.108 203.777 190.32L202.605 192.908C202.538 193.058 202.69 193.176 202.787 193.232C202.999 193.352 203.298 193.399 203.592 193.355L219.718 190.873L216.35 198.225L212.668 196.096C212.224 195.831 211.617 195.69 210.991 195.69Z" fill="#C7C7C7"/>
    </g>
    <path d="M214.158 103.516C213.571 103.516 212.94 103.399 212.285 103.158C211.891 103.014 211.492 102.825 211.099 102.599C209.648 101.775 208.212 100.417 207.055 98.7787L185.882 68.461C182.905 64.2438 182.318 59.0884 184.573 56.9739C185.324 56.271 186.323 55.9593 187.468 56.074C189.708 56.3005 192.192 58.065 194.118 60.7912L209.481 82.8743L243.738 42.6577C244.434 41.8401 245.4 41.4225 246.551 41.4519C248.709 41.5078 251.187 43.087 253.178 45.6809C256.296 49.7423 257.174 54.9976 255.133 57.3945L216.871 102.314C216.193 103.111 215.25 103.516 214.158 103.516ZM187.007 56.3593C186.132 56.3593 185.368 56.6445 184.781 57.2004C182.635 59.2149 183.24 64.1909 186.132 68.2875L207.305 98.6052C208.435 100.208 209.836 101.531 211.248 102.334C211.63 102.552 212.012 102.731 212.391 102.869C214.135 103.511 215.682 103.237 216.639 102.114L254.898 57.1974C256.851 54.9035 255.967 49.8246 252.931 45.8691C251.023 43.387 248.574 41.8107 246.539 41.7607C245.497 41.7342 244.601 42.1136 243.967 42.8576L209.454 83.3772L193.866 60.9706C192.022 58.3561 189.555 56.5975 187.435 56.3828C187.292 56.3651 187.148 56.3593 187.007 56.3593Z" fill="#D1D1D1"/>
    <g opacity="0.7">
        <path d="M211.173 102.467C209.743 101.655 208.339 100.334 207.179 98.6905L186.006 68.3728C183.067 64.2085 182.471 59.1531 184.676 57.0857C186.881 55.0153 191.051 56.7151 193.993 60.8794L209.467 83.1243L243.853 42.7576C245.852 40.4108 249.975 41.7636 253.055 45.775C256.138 49.7893 257.016 54.9476 255.016 57.2945L216.754 102.214C215.75 103.39 214.153 103.681 212.335 103.014C211.951 102.872 211.56 102.687 211.173 102.467Z" fill="url(#paint0_linear_42275_121754)"/>
        <path d="M214.158 103.516C213.571 103.516 212.94 103.399 212.285 103.158C211.891 103.014 211.492 102.825 211.099 102.599C209.648 101.775 208.212 100.417 207.055 98.7787L185.882 68.461C182.905 64.2438 182.318 59.0884 184.573 56.9739C185.324 56.271 186.323 55.9593 187.468 56.074C189.708 56.3005 192.192 58.065 194.118 60.7912L209.481 82.8743L243.738 42.6577C244.434 41.8401 245.4 41.4225 246.551 41.4519C248.709 41.5078 251.187 43.087 253.178 45.6809C256.296 49.7423 257.174 54.9976 255.133 57.3945L216.871 102.314C216.193 103.111 215.25 103.516 214.158 103.516ZM187.007 56.3593C186.132 56.3593 185.368 56.6445 184.781 57.2004C182.635 59.2149 183.24 64.1909 186.132 68.2875L207.305 98.6052C208.435 100.208 209.836 101.531 211.248 102.334C211.63 102.552 212.012 102.731 212.391 102.869C214.135 103.511 215.682 103.237 216.639 102.114L254.898 57.1974C256.851 54.9035 255.967 49.8246 252.931 45.8691C251.023 43.387 248.574 41.8107 246.539 41.7607C245.497 41.7342 244.601 42.1136 243.967 42.8576L209.454 83.3772L193.866 60.9706C192.022 58.3561 189.555 56.5975 187.435 56.3828C187.292 56.3651 187.148 56.3593 187.007 56.3593Z" fill="#C7C7C7"/>
    </g>
    <g opacity="0.3">
        <path d="M206.478 118.338L219.183 144.903C219.259 145.065 219.083 145.23 218.931 145.141L214.095 142.409V153.558L198.867 144.997V133.816L193.13 130.628L206.478 118.338Z" fill="#C7C7C7"/>
        <path d="M199.02 144.906L213.942 153.297V142.148L219.09 145.053L206.434 118.591L193.392 130.599L199.023 133.725V144.906H199.02Z" fill="#C7C7C7"/>
    </g>
    <path d="M223.463 143.145L210.622 116.056C210.605 116.018 210.57 115.989 210.531 115.977C210.49 115.965 210.446 115.968 210.411 115.989L206.406 118.203C206.4 118.206 206.38 118.221 206.377 118.224L193.026 130.517C192.99 130.549 192.97 130.599 192.979 130.649C192.984 130.699 193.014 130.74 193.055 130.764L198.716 133.908V144.998C198.716 145.054 198.745 145.104 198.795 145.13L214.023 153.691C214.046 153.703 214.072 153.712 214.099 153.712C214.111 153.712 214.146 153.706 214.175 153.691L217.863 151.444C217.91 151.418 217.937 151.368 217.937 151.315V144.754L219.364 145.56C219.443 145.595 219.481 145.571 219.513 145.56L223.407 143.345C223.468 143.304 223.498 143.219 223.463 143.145ZM217.622 151.227L214.243 153.285V142.672L217.622 144.595V151.227ZM214.211 142.301C214.211 142.301 214.178 142.269 214.111 142.254C214.075 142.245 214.023 142.272 214.014 142.277C213.967 142.304 213.937 142.354 213.937 142.41V153.297L199.015 144.907V133.817C199.015 133.761 198.986 133.711 198.936 133.681L193.384 130.596L206.427 118.589L219.082 145.051L214.211 142.301ZM219.499 145.21L206.679 118.4L210.417 116.333L223.128 143.145L219.499 145.21Z" fill="#CCCCCC"/>
    <path d="M238.126 183.053C238.073 183.053 238.021 183.027 237.994 182.977C237.953 182.903 237.859 182.874 237.932 182.832L256.786 171.933C257.523 171.507 257.984 170.71 257.984 169.857V110.472C257.984 110.386 258.052 110.319 258.137 110.319C258.222 110.319 258.289 110.386 258.289 110.472V169.857C258.289 170.819 257.773 171.719 256.939 172.198L238.203 183.032C238.176 183.047 238.15 183.053 238.126 183.053Z" fill="#C7C7C7"/>
    <path d="M164.096 130.975C164.043 130.975 163.99 130.949 163.963 130.899C163.922 130.825 163.946 130.731 164.019 130.69L176.768 123.317C177.508 122.891 177.966 122.094 177.966 121.241V63.5819C177.966 63.4966 178.034 63.429 178.119 63.429C178.204 63.429 178.272 63.4966 178.272 63.5819V121.238C178.272 122.2 177.755 123.1 176.921 123.579L164.172 130.955C164.148 130.966 164.122 130.975 164.096 130.975Z" fill="#C7C7C7"/>
    <g opacity="0.3">
        <path d="M83.3727 228.51C83.1965 228.381 83.0233 228.246 82.8471 228.084C80.1663 225.69 78.5867 220.873 79.3236 217.326C80.0548 213.779 82.8295 212.844 85.5103 215.244C85.6865 215.397 85.8538 215.57 86.0183 215.741C88.7578 218.544 90.8513 223.555 91.9318 226.269C92.1961 226.931 92.7745 229.202 92.7745 229.343C92.7745 229.834 92.4251 229.94 92.0669 230.057C90.9981 230.39 86.9314 231.245 83.3727 228.51Z" fill="#D3D3D3"/>
    </g>
    <g opacity="0.3">
        <path d="M91.458 221.641C91.458 215.988 95.4425 213.721 100.358 216.556C105.273 219.4 109.257 226.281 109.257 231.931C109.257 232.298 109.24 232.651 109.205 232.989C108.946 236.489 106.85 240.283 106.171 241.3C105.57 242.206 104.589 243.274 104.589 243.274C103.455 244.491 101.808 245.768 100.54 244.977C99.8909 244.574 99.4592 243.959 98.781 242.98C98.1027 241.992 92.0276 230.396 91.5109 222.758C91.4756 222.379 91.458 222.008 91.458 221.641C91.458 218.82 92.4505 216.847 94.0536 215.923C94.0478 215.929 94.0419 215.929 94.036 215.935" fill="#D3D3D3"/>
    </g>
    <g opacity="0.3">
        <path d="M112.033 239.457C113.657 239.392 116.323 238.766 118.255 237.369C118.443 237.239 118.633 237.098 118.827 236.936C121.755 234.478 123.59 229.405 122.923 225.611C122.257 221.817 119.341 220.735 116.408 223.194H116.402C116.214 223.352 116.029 223.526 115.847 223.702C112.112 227.302 108.741 235.513 108.524 236.298C108.313 237.078 108.18 237.569 108.254 238.083C108.395 239.089 109.778 239.389 110.905 239.448C111.137 239.468 111.572 239.468 112.033 239.457Z" fill="#D3D3D3"/>
    </g>
    <path d="M123.073 225.587C122.738 223.687 121.845 222.382 120.553 221.911C119.279 221.446 117.779 221.852 116.331 223.061C116.322 223.067 116.311 223.073 116.302 223.081C116.134 223.223 115.961 223.381 115.738 223.596C112.966 226.266 110.45 231.36 109.199 234.219C109.272 233.813 109.328 233.41 109.358 233.01C109.393 232.669 109.41 232.31 109.41 231.937C109.41 226.249 105.385 219.291 100.434 216.429C97.9944 215.021 95.6982 214.797 93.9659 215.8C92.2511 216.794 91.3056 218.867 91.3056 221.64C91.3056 221.643 91.3056 221.643 91.3056 221.646C91.3056 222.014 91.3233 222.393 91.3585 222.773C91.4113 223.57 91.5288 224.405 91.6873 225.264C90.3895 222.105 88.5045 218.07 86.1232 215.632C85.9588 215.462 85.7914 215.288 85.6123 215.132C84.2792 213.938 82.8728 213.503 81.6542 213.906C80.424 214.312 79.5431 215.518 79.1761 217.297C78.4303 220.885 80.0334 225.775 82.7465 228.202C82.9139 228.352 83.0842 228.49 83.2809 228.637C85.3216 230.204 87.5208 230.601 89.2209 230.601C90.7566 230.601 91.887 230.278 92.1307 230.201C92.3891 230.116 92.6886 230.016 92.8354 229.743C94.8732 236.189 98.2851 242.533 98.658 243.071C99.3304 244.044 99.7767 244.688 100.461 245.112C100.76 245.3 101.077 245.379 101.397 245.379C102.631 245.379 103.937 244.203 104.704 243.382C104.745 243.338 105.699 242.294 106.301 241.389C106.671 240.833 107.417 239.524 108.08 237.907C108.083 237.974 108.089 238.042 108.098 238.109C108.221 238.986 109.214 239.518 110.887 239.606C111.017 239.615 111.207 239.621 111.445 239.621C111.621 239.621 111.821 239.618 112.038 239.612H112.041C113.821 239.542 116.46 238.859 118.342 237.498C118.539 237.362 118.73 237.218 118.927 237.057C121.887 234.569 123.748 229.422 123.073 225.587ZM92.0221 229.91C91.5405 230.06 87.2272 231.278 83.4659 228.387C83.4659 228.387 83.463 228.387 83.463 228.384C83.2721 228.243 83.1077 228.11 82.9491 227.966C80.3065 225.605 78.7474 220.843 79.4726 217.353C79.8162 215.685 80.6236 214.562 81.7482 214.191C82.0125 214.103 82.2885 214.062 82.5703 214.062C83.4747 214.062 84.4554 214.506 85.4097 215.356C85.58 215.503 85.7444 215.673 85.9088 215.844C88.4957 218.491 90.504 223.09 91.7901 226.322C92.0485 226.969 92.6093 229.163 92.624 229.34C92.6211 229.698 92.4214 229.781 92.0221 229.91ZM106.046 241.218C105.458 242.103 104.489 243.162 104.481 243.174C103.582 244.138 101.888 245.638 100.625 244.85C99.9939 244.459 99.5623 243.838 98.9134 242.894C98.4084 242.159 92.2012 230.557 91.6697 222.743C91.6345 222.37 91.6169 221.999 91.6169 221.64C91.6169 221.637 91.6169 221.632 91.6169 221.629C91.6198 218.988 92.5007 217.02 94.1009 216.079C94.1127 216.073 94.1244 216.067 94.1362 216.059C94.145 216.053 94.1538 216.047 94.1626 216.041C95.7922 215.118 97.965 215.35 100.291 216.691C105.156 219.505 109.114 226.343 109.114 231.934C109.114 232.295 109.096 232.645 109.061 232.981C108.8 236.407 106.744 240.168 106.046 241.218ZM118.73 236.821C118.542 236.974 118.357 237.115 118.166 237.248C116.334 238.571 113.765 239.236 112.03 239.306C111.536 239.318 111.128 239.318 110.911 239.3C110.033 239.253 108.541 239.033 108.403 238.068C108.336 237.577 108.468 237.086 108.671 236.345C108.832 235.76 112.153 227.481 115.955 223.817C116.164 223.617 116.325 223.467 116.481 223.334C116.49 223.329 116.499 223.323 116.507 223.317C117.876 222.17 119.276 221.773 120.451 222.202C121.634 222.634 122.459 223.858 122.773 225.643C123.428 229.381 121.613 234.395 118.73 236.821Z" fill="#CDCDCD"/>
    <g opacity="0.3">
        <path d="M297.416 186.932L296.996 198.089L296.491 211.556C296.491 214.549 298.914 216.979 301.906 216.979C304.895 216.979 307.32 214.552 307.32 211.556L306.739 194.687L305.503 163.225C305.503 160.231 304.413 157.802 301.906 157.802C299.398 157.802 298.309 160.228 298.309 163.225L297.622 181.482L297.416 186.932Z" fill="#CDCDCD"/>
    </g>
    <g opacity="0.3">
        <path d="M317.917 179.685C317.917 178.191 316.707 176.98 315.215 176.98C313.724 176.98 312.514 178.191 312.514 179.685L312.367 198.913L306.738 196.281L306.991 202.971C307.916 203.727 308.682 204.351 309.745 205.203C313.897 208.512 318.137 206.668 318.101 201.066L317.917 179.685Z" fill="#D1D1D1"/>
    </g>
    <g opacity="0.3">
        <path d="M292.733 178.156C291.708 177.447 290.804 176.991 290.713 175.374L290.069 162.558C290.069 161.296 289.048 160.272 287.788 160.272C286.528 160.272 285.507 161.296 285.507 162.558L285.119 173.742C284.896 180.197 287.286 181.356 289.708 182.517L297.428 186.149L297.619 181.485L292.733 178.156Z" fill="#CDCDCD"/>
    </g>
    <g opacity="0.3">
        <path d="M294.553 194.028L293.719 189.823C293.719 189.823 293.566 188.208 291.928 188.208C291.085 188.208 290.392 188.893 290.225 189.687L290.216 189.74L289.655 195.316C289.353 198.181 291.27 200.095 294.048 198.578C294.929 198.131 296.274 197.157 297.049 196.407L297.181 192.502L294.553 194.028Z" fill="#CDCDCD"/>
    </g>
    <path d="M318.071 179.641C318.071 178.059 316.787 176.774 315.208 176.774C313.628 176.774 312.345 178.059 312.345 179.641L312.201 198.695L306.892 196.181L305.653 163.237C305.653 159.746 304.253 157.664 301.904 157.664C299.555 157.664 298.154 159.746 298.154 163.231L297.479 181.185C297.479 181.185 292.602 177.832 292.511 177.774C291.621 177.174 290.919 176.697 290.84 175.309L290.2 162.549C290.2 161.211 289.111 160.119 287.775 160.119C286.439 160.119 285.349 161.211 285.349 162.543L284.965 173.686C284.738 180.226 287.223 181.417 289.624 182.573L297.288 186.255L297.056 192.399L294.695 193.751L293.85 189.722C293.85 189.72 293.85 189.717 293.847 189.714C293.715 188.767 292.904 188.055 291.953 188.055C291.051 188.055 290.259 188.696 290.074 189.584L289.498 195.272C289.331 196.857 289.815 198.195 290.796 198.851C291.213 199.13 291.691 199.269 292.214 199.269C292.816 199.269 293.474 199.083 294.149 198.716C295.074 198.245 296.078 197.531 296.894 196.766L296.34 211.547C296.34 214.62 298.835 217.12 301.904 217.12C304.972 217.12 307.468 214.62 307.468 211.541L307.16 203.306C307.946 203.948 308.827 204.662 309.652 205.327C311.059 206.447 312.506 207.027 313.828 207.027C314.459 207.027 315.061 206.894 315.616 206.624C317.313 205.797 318.276 203.786 318.258 201.101L318.071 179.641ZM289.759 182.294C287.34 181.132 285.056 180.035 285.276 173.695L285.66 162.549C285.66 161.378 286.612 160.425 287.78 160.425C288.949 160.425 289.9 161.378 289.9 162.555L290.54 175.324C290.626 176.865 291.424 177.403 292.346 178.027C292.437 178.088 292.528 178.15 292.619 178.212L297.47 181.547L297.306 185.917L289.759 182.294ZM294.008 198.442C292.848 199.074 291.768 199.13 290.969 198.595C290.085 198.004 289.651 196.775 289.803 195.301L290.367 189.69L290.376 189.64C290.532 188.899 291.198 188.358 291.956 188.358C292.76 188.358 293.444 188.964 293.547 189.767C293.55 189.775 293.55 189.787 293.553 189.796L294.44 194.013C294.449 194.06 294.481 194.101 294.528 194.122C294.572 194.143 294.625 194.14 294.666 194.116L297.044 192.755L296.909 196.322C296.081 197.148 295.001 197.936 294.008 198.442ZM301.907 216.811C299.009 216.811 296.648 214.449 296.648 211.55L298.462 163.237C298.462 159.94 299.748 157.97 301.907 157.97C304.065 157.97 305.348 159.937 305.348 163.243L307.162 211.544C307.162 214.449 304.805 216.811 301.907 216.811ZM315.481 206.347C313.881 207.127 311.825 206.668 309.843 205.086C308.948 204.365 307.979 203.58 307.142 202.898L306.901 196.528L312.283 199.077C312.33 199.101 312.386 199.098 312.43 199.069C312.474 199.042 312.501 198.992 312.501 198.939L312.647 179.644C312.647 178.232 313.795 177.083 315.205 177.083C316.614 177.083 317.762 178.232 317.762 179.644L317.95 201.104C317.968 203.662 317.066 205.574 315.481 206.347Z" fill="#CDCDCD"/>
    <path d="M294.969 66.2523C292.532 64.8672 290.163 64.0731 287.928 63.8937C287.931 63.8702 287.931 63.8467 287.934 63.8231C287.94 63.7143 287.949 63.6085 287.949 63.4938C287.949 54.7593 281.704 44.1045 274.028 39.7372C272.002 38.5844 270.029 37.9609 268.162 37.8815C262.559 23.5388 252.083 10.6548 240.802 4.23775C233.344 -0.00301192 226.1 -1.10585 220.401 1.13217C215.785 2.9467 212.403 6.79927 210.606 12.284C207.713 9.06964 204.61 6.50812 201.383 4.67301C195.572 1.36744 190.117 0.86455 186.018 3.25549L164.836 15.4131C164.154 15.7513 163.508 16.1631 162.904 16.6513C160.898 18.2746 159.424 20.7214 158.643 23.727C158.194 25.4592 157.965 27.3884 157.965 29.4588C157.965 32.6379 158.493 36.0317 159.536 39.5431C162.522 49.5981 169.302 58.3119 178.63 64.079L186.658 69.5491C186.684 69.5638 186.711 69.5726 186.74 69.5726C186.79 69.5726 186.84 69.5461 186.869 69.4991C186.913 69.4285 186.893 69.3314 186.819 69.2873L178.792 63.8173C169.528 58.0884 162.795 49.4363 159.829 39.4549C158.796 35.97 158.27 32.6085 158.27 29.4559C158.27 27.412 158.496 25.5092 158.94 23.8006C159.703 20.8597 161.139 18.4687 163.094 16.8865C167.123 13.6251 173.072 13.8251 179.414 17.4335C182.679 19.2922 185.818 21.8978 188.74 25.1828C188.778 25.2239 188.831 25.2416 188.886 25.2298C188.939 25.2181 188.983 25.1798 189.001 25.1269C190.084 21.6978 191.781 18.9069 194.045 16.8248C194.665 16.2572 195.358 15.7249 196.104 15.2455C197.898 14.0956 199.915 13.3398 202.096 13.0016C202.44 12.9487 202.792 12.9046 203.145 12.8722C204.566 12.7399 206.063 12.7722 207.593 12.9722C208.759 13.1251 209.963 13.3751 211.175 13.7162C213.665 14.4191 216.243 15.5249 218.839 16.9983C227.583 21.9713 237.035 32.8644 242.96 43.5751C243.001 43.6486 243.019 43.5339 243.092 43.4928C243.166 43.4516 243.192 43.3575 243.151 43.284C237.202 32.5262 227.783 21.7331 218.992 16.7336C216.375 15.2455 213.774 14.1309 211.26 13.4222C210.858 13.3075 210.459 13.2104 210.059 13.1163L210.744 12.7252C210.808 12.6899 210.817 12.6487 210.82 12.634C212.567 7.10512 215.92 3.22609 220.518 1.42038C226.127 -0.785289 233.279 0.311662 240.655 4.50537C251.863 10.8812 262.275 23.68 267.856 37.9374L253.472 46.1219C253.398 46.1631 253.372 46.2572 253.416 46.3307C253.445 46.3807 253.495 46.4072 253.548 46.4072C253.574 46.4072 253.601 46.4013 253.624 46.3866L268.047 38.1815C268.05 38.1815 268.053 38.1845 268.056 38.1845C269.903 38.2433 271.864 38.855 273.881 40.0019C281.472 44.3192 287.647 54.8564 287.647 63.4908C287.647 63.5967 287.641 63.6996 287.635 63.7996C287.632 63.8467 287.629 63.8937 287.626 63.9408L266.127 76.2572C266.133 76.169 266.139 76.0808 266.139 75.9867C266.139 69.4844 261.555 60.5088 256.229 55.1387C256.17 55.0799 256.073 55.0799 256.012 55.1387C255.95 55.1975 255.953 55.2946 256.012 55.3563C261.285 60.6705 265.833 69.5579 265.833 75.9867C265.833 76.0925 265.827 76.1955 265.822 76.2955C265.816 76.369 265.813 76.4455 265.81 76.5219C265.81 76.5249 265.813 76.5513 265.816 76.5602C265.819 76.5719 265.822 76.5807 265.824 76.5896C265.827 76.5925 265.833 76.6043 265.836 76.6072C265.848 76.6249 265.863 76.6395 265.877 76.6484C265.88 76.6513 265.883 76.6543 265.889 76.6572C265.907 76.666 265.927 76.6748 265.951 76.6748C267.04 76.7484 268.182 76.9778 269.345 77.3571C269.636 77.4512 269.938 77.5601 270.238 77.6747C271.151 78.0276 272.084 78.4747 273.012 79.004C274.798 80.0186 276.559 81.3244 278.251 82.8831C285.662 89.7206 290.641 100.252 290.641 109.083C290.641 113.424 289.441 116.862 287.171 119.024C286.231 119.918 285.115 120.571 283.859 120.962C283.518 121.068 283.233 121.141 282.957 121.197C282.523 121.285 282.062 121.341 281.583 121.368C281.293 121.382 281.025 121.388 280.767 121.382C279.998 121.368 279.196 121.271 278.386 121.094C276.703 120.732 274.944 120.035 273.165 119.024L226.27 91.1734C226.197 91.1293 226.103 91.1558 226.062 91.2264C226.018 91.2999 226.041 91.394 226.115 91.4352L273.012 119.285C274.821 120.315 276.606 121.023 278.321 121.391C279.152 121.57 279.974 121.668 280.761 121.685C280.829 121.685 280.896 121.688 280.964 121.688C281.166 121.688 281.378 121.682 281.601 121.67C282.094 121.644 282.57 121.585 283.019 121.494C283.304 121.438 283.6 121.359 283.95 121.253C284.672 121.029 285.345 120.718 285.97 120.332C285.973 120.332 285.973 120.332 285.976 120.332L306.665 108.431C306.667 108.428 306.679 108.422 306.679 108.419C310.928 105.193 312.74 101.337 312.74 95.5318C312.731 84.6064 305.094 72.0135 294.969 66.2523ZM209.61 13.0193C208.941 12.8751 208.28 12.7575 207.628 12.6722C206.075 12.4693 204.554 12.437 203.109 12.5722C202.751 12.6075 202.393 12.6516 202.044 12.7046C199.821 13.0487 197.765 13.8192 195.933 14.9926C195.17 15.4808 194.465 16.0248 193.834 16.6042C191.588 18.6687 189.891 21.4214 188.786 24.7828C185.894 21.5684 182.791 19.0069 179.564 17.1718C174.866 14.4985 170.373 13.6721 166.683 14.7044L186.167 3.52312C190.167 1.18805 195.513 1.69094 201.227 4.94062C204.445 6.7728 207.54 9.33138 210.427 12.5487L209.61 13.0193ZM306.491 108.184L287.55 119.08C289.766 116.85 290.938 113.41 290.938 109.095C290.938 100.181 285.917 89.5618 278.447 82.6684C276.741 81.0921 274.959 79.7745 273.153 78.7482C272.211 78.2129 271.265 77.76 270.337 77.3983C270.029 77.2807 269.724 77.1719 269.427 77.0748C268.408 76.7425 267.407 76.5307 266.441 76.4278L287.799 64.1937C290.019 64.3525 292.38 65.1348 294.817 66.5199C304.853 72.2282 312.422 84.7064 312.422 95.5465C312.422 101.24 310.649 105.022 306.491 108.184Z" fill="#C7C7C7"/>
    <path d="M356.894 193.057C356.894 193.051 356.894 193.01 356.894 192.996C356.897 192.828 356.9 192.672 356.9 192.504C356.9 180.238 352.863 168.269 344.9 156.934C336.661 145.206 324.563 134.681 308.946 125.649C303.49 122.494 297.626 119.547 291.513 116.882C291.437 116.847 291.346 116.885 291.311 116.962C291.278 117.038 291.314 117.129 291.39 117.165C297.491 119.823 303.346 122.767 308.79 125.914C324.37 134.925 336.435 145.418 344.647 157.111C352.575 168.395 356.595 180.303 356.595 192.504C356.595 204.606 352.64 216.396 344.835 227.542C336.752 239.091 324.866 249.449 309.509 258.33C279.105 275.911 238.652 285.584 195.534 285.581C195.36 285.581 195.184 285.581 195.011 285.581C151.701 285.501 110.932 275.676 80.2159 257.916C64.6363 248.905 52.5713 238.412 44.3586 226.719C36.4308 215.435 32.4111 203.527 32.4111 191.325C32.4111 179.223 36.3662 167.433 44.1707 156.287C52.2542 144.739 64.14 134.381 79.4965 125.499C106.22 110.046 141.156 100.675 178.275 98.6591C178.275 98.6591 177.833 98.7499 178.25 98.3333L178.275 98.3528C141.101 100.37 106.11 109.757 79.3409 125.235C63.9462 134.137 52.0281 144.527 43.9182 156.111C36.3603 166.907 32.3759 178.291 32.0999 189.996C32.0999 190.028 32.1028 190.055 32.1028 190.078L32 203.703C31.9883 216.532 35.9316 228.848 43.7215 240.312C51.8901 252.328 64.0901 263.083 79.9869 272.276C110.767 290.077 151.616 299.923 195.008 300C195.184 300 195.357 300 195.531 300C238.726 300 279.266 290.307 309.732 272.691C325.206 263.745 337.116 253.478 345.135 242.182C353.007 231.089 357 219.193 357 206.824L356.894 193.057ZM344.885 242.005C336.893 253.266 325.013 263.503 309.58 272.429C279.157 290.021 238.676 299.7 195.534 299.697C195.36 299.697 195.181 299.697 195.011 299.697C151.672 299.618 110.879 289.786 80.1425 272.014C64.2868 262.845 52.1191 252.122 43.9769 240.144C36.2223 228.733 32.2966 216.473 32.3083 203.706L32.3612 196.639C33.3595 207.05 37.297 217.205 44.1061 226.895C52.3452 238.623 64.4425 249.149 80.0603 258.18C110.823 275.97 151.646 285.81 195.008 285.887C195.181 285.887 195.357 285.887 195.531 285.887C238.699 285.887 279.21 276.202 309.659 258.595C325.054 249.693 336.972 239.303 345.082 227.719C351.744 218.199 355.614 208.212 356.627 197.957L356.692 206.827C356.695 219.131 352.719 230.965 344.885 242.005Z" fill="#C7C7C7"/>
    <defs>
        <linearGradient id="paint0_linear_42275_121754" x1="295.984" y1="22.0438" x2="126.069" y2="124.564" gradientUnits="userSpaceOnUse">
            <stop offset="0.2467" stop-color="#55D48C"/>
            <stop offset="0.7347" stop-color="#489AEE"/>
        </linearGradient>
    </defs>
</svg>
