<svg width="240" height="204" viewBox="0 0 240 204" fill="none" xmlns="http://www.w3.org/2000/svg">
    <g clip-path="url(#clip0_42201_117628)">
        <path opacity="0.3" d="M166.154 189.801L152.268 158.604V137.717C152.268 131.973 151.279 125.714 149.352 119.297C147.431 112.883 144.619 106.443 141.071 100.341C133.589 87.8656 123.612 77.6613 113.296 71.9364C102.954 65.7225 92.9419 64.3931 85.441 68.2348C81.8888 70.258 79.0695 73.4662 77.149 77.6807C75.2285 81.8951 74.2391 87.0274 74.2391 92.7867V113.674L60.5844 128.821C59.5886 129.9 59.0066 131.505 58.9139 133.46C58.8169 135.412 59.2071 137.637 60.0391 139.889C60.8668 142.087 62.0803 144.226 63.5481 146.084C65.0225 147.943 66.6972 149.453 68.413 150.466L158.094 202.225C159.862 203.259 161.597 203.718 163.117 203.554C164.634 203.39 165.876 202.608 166.697 201.287C167.507 200.012 167.882 198.266 167.785 196.239C167.688 194.216 167.124 191.988 166.154 189.801Z" fill="#C7C7C7"/>
        <path opacity="0.3" d="M122.772 188.883L103.742 177.899C102.142 176.977 100.608 176.819 99.476 177.464C98.3444 178.108 97.7129 179.504 97.7129 181.34C97.7129 183.176 98.3444 185.298 99.476 187.25C100.608 189.2 102.142 190.816 103.742 191.738L122.772 202.722C123.6 203.282 124.436 203.651 125.225 203.8C126.014 203.948 126.738 203.873 127.352 203.582C127.967 203.291 128.456 202.789 128.794 202.108C129.126 201.425 129.301 200.581 129.301 199.624C129.301 198.669 129.126 197.622 128.794 196.556C128.458 195.487 127.967 194.418 127.352 193.419C126.738 192.419 126.014 191.507 125.225 190.745C124.436 189.982 123.598 189.383 122.772 188.989V188.883Z" fill="#C7C7C7"/>
        <path opacity="0.3" d="M196.349 37.5422C187.189 32.2548 178.534 31.8691 172.454 35.1592L167.503 38.0227C173.493 35.2389 181.449 36.0254 190.18 41.065C208.814 51.8188 223.917 77.8639 223.917 99.2356C223.917 110.032 220.059 117.565 213.843 120.997L213.866 121.038L220.285 117.274C226.122 113.687 230.088 106.13 230.088 95.7128C230.088 74.3411 214.983 48.296 196.349 37.5422Z" fill="#C7C7C7"/>
        <path d="M196.418 37.4302C187.544 32.3086 179.14 31.3907 172.749 34.8489L166.218 38.626C166.213 38.6281 166.209 38.6303 166.207 38.6324C159.84 42.3061 156.335 50.024 156.335 60.3662C156.335 81.7465 171.498 107.893 190.139 118.651C195.508 121.749 200.683 123.314 205.345 123.314C208.581 123.314 211.57 122.559 214.2 121.04C214.484 120.877 214.76 120.702 215.032 120.521L220.714 117.188C226.844 113.42 230.221 105.792 230.221 95.7128C230.219 74.3346 215.056 48.1882 196.418 37.4302ZM190.268 118.423C171.701 107.708 156.596 81.6625 156.596 60.364C156.596 50.1209 160.055 42.4828 166.336 38.8587C168.927 37.3634 171.871 36.6222 175.061 36.6222C179.676 36.6222 184.811 38.1757 190.137 41.2503C208.704 51.9653 223.809 78.0104 223.809 99.3089C223.809 109.093 220.651 116.496 214.894 120.299L214.172 120.752C214.137 120.771 214.103 120.795 214.068 120.814C207.731 124.471 199.278 123.622 190.268 118.423ZM220.578 116.964L216.78 119.192C221.505 115.074 224.072 108.151 224.072 99.3067C224.072 77.9264 208.908 51.78 190.268 41.0219C182.368 36.4627 174.883 35.226 168.843 37.4086L172.876 35.0752C179.178 31.6644 187.492 32.5801 196.284 37.6542C214.851 48.3692 229.956 74.4143 229.956 95.7128C229.958 105.699 226.626 113.247 220.578 116.964Z" fill="#CCCCCC"/>
        <path d="M205.059 108.927C204.081 108.927 203.184 108.436 202.656 107.613L187.706 84.1788L173.676 89.9726C173.329 90.117 172.965 90.1881 172.59 90.1881C171.432 90.1881 170.4 89.4986 169.96 88.4299C169.361 86.9798 170.053 85.3143 171.503 84.7153L184.598 79.3072L170.191 56.7267C169.348 55.4038 169.738 53.6413 171.059 52.7989C172.38 51.9564 174.144 52.3464 174.989 53.6672L189.941 77.1009L203.971 71.3071C204.673 71.0162 205.447 71.0162 206.15 71.3071C206.85 71.598 207.398 72.1452 207.687 72.8476C208.286 74.2977 207.594 75.9632 206.143 76.5622L193.049 81.9703L207.456 104.551C208.299 105.874 207.909 107.636 206.587 108.479C206.126 108.772 205.6 108.927 205.059 108.927ZM187.757 83.8858C187.8 83.8858 187.844 83.9073 187.867 83.9461L202.878 107.47C203.356 108.218 204.171 108.664 205.059 108.664C205.551 108.664 206.029 108.524 206.445 108.259C207.646 107.494 207.999 105.893 207.234 104.693L192.743 81.9811C192.721 81.9488 192.717 81.9079 192.728 81.8712C192.739 81.8346 192.767 81.8044 192.803 81.7893L206.042 76.3209C207.359 75.7779 207.986 74.2632 207.443 72.9489C207.18 72.3111 206.684 71.8134 206.046 71.5484C205.408 71.2834 204.706 71.2834 204.068 71.5484L189.937 77.3853C189.878 77.409 189.812 77.3874 189.775 77.3336L174.764 53.8094C173.997 52.6093 172.398 52.2559 171.197 53.0208C169.997 53.7857 169.643 55.3866 170.408 56.5867L184.899 79.2986C184.921 79.3309 184.925 79.3719 184.914 79.4085C184.904 79.4451 184.876 79.4753 184.839 79.4904L171.6 84.9588C170.283 85.5018 169.656 87.0165 170.199 88.3308C170.6 89.3004 171.538 89.9274 172.587 89.9274C172.926 89.9274 173.258 89.8606 173.572 89.7313L187.704 83.8944C187.723 83.8879 187.74 83.8858 187.757 83.8858Z" fill="#CCCCCC"/>
        <g opacity="0.3">
            <path d="M184.8 79.37L170.309 56.6581C169.503 55.3955 169.874 53.717 171.139 52.9112C172.404 52.1053 174.081 52.4781 174.887 53.7407L207.352 104.624C208.159 105.887 207.788 107.565 206.523 108.371C206.07 108.66 205.566 108.798 205.066 108.798C204.169 108.798 203.292 108.354 202.774 107.544L187.764 84.0197" fill="#C7C7C7"/>
            <path d="M187.766 84.0175L173.635 89.8544C173.297 89.9944 172.946 90.0612 172.599 90.0612C171.532 90.0612 170.521 89.4299 170.09 88.3828C169.516 86.9973 170.176 85.4115 171.562 84.8384L184.801 79.37" fill="#C7C7C7"/>
            <path d="M189.9 77.2649L204.031 71.428C205.42 70.8527 207.006 71.5142 207.577 72.8996C208.151 74.285 207.491 75.8708 206.105 76.4439L192.866 81.9124" fill="#C7C7C7"/>
        </g>
        <path d="M66.2376 43.8272C66.2376 43.8208 66.2398 43.8165 66.2398 43.81C66.2398 43.7971 66.2355 43.7863 66.2312 43.7755C66.2312 43.7734 66.2312 43.7712 66.229 43.7669C66.2226 43.754 66.2161 43.7411 66.2053 43.7303C66.2032 43.7281 66.1989 43.726 66.1967 43.7238C66.1881 43.7152 66.1795 43.7087 66.1687 43.7044C66.1644 43.7023 66.1579 43.7023 66.1514 43.7001C66.1428 43.698 66.1342 43.6936 66.1256 43.6936C66.1191 43.6936 66.1126 43.6936 66.1062 43.6936C66.0975 43.6936 66.0889 43.6937 66.0825 43.6958C66.0803 43.6958 66.0781 43.6958 66.076 43.6958L10.0884 61.8421C10.0345 61.8593 10 61.9089 10 61.9649C10.0022 62.0209 10.0388 62.0683 10.0927 62.0834L24.1505 66.0134L27.4979 77.6204C27.5 77.6268 27.5043 77.6333 27.5065 77.6398C27.5087 77.6441 27.5087 77.6462 27.5108 77.6484C27.5216 77.6656 27.5367 77.6807 27.5539 77.6915C27.5561 77.6915 27.5561 77.6936 27.5582 77.6958C27.5604 77.698 27.5625 77.6958 27.5647 77.698C27.5819 77.7066 27.5992 77.7109 27.6186 77.7109C27.6229 77.7109 27.6272 77.7109 27.6337 77.7109C27.638 77.7109 27.6401 77.7087 27.6445 77.7087C27.6531 77.7066 27.6595 77.7044 27.6682 77.7023C27.6746 77.7001 27.6789 77.698 27.6854 77.6936C27.6876 77.6915 27.6919 77.6915 27.6962 77.6893L37.1176 70.7299L45.8213 73.6774C45.8342 73.6817 45.8472 73.6839 45.8622 73.6839C45.9032 73.6839 45.942 73.6645 45.9657 73.6279L66.2204 43.8876C66.2247 43.8833 66.2247 43.8768 66.2269 43.8703C66.229 43.8639 66.2333 43.8596 66.2355 43.8531C66.2355 43.8466 66.2355 43.8359 66.2376 43.8272ZM27.5324 76.8426L24.3984 65.9768L61.7371 46.2706L28.1294 67.4699C28.1294 67.4699 28.1294 67.4699 28.1273 67.4721H28.1251C28.1143 67.4786 28.1079 67.4893 28.1014 67.498C28.0971 67.5044 28.0906 67.5066 28.0863 67.513C28.0863 67.5152 28.0842 67.5173 28.0842 67.5195C28.082 67.526 28.082 67.5303 28.0799 67.5367C28.0755 67.5475 28.0712 67.5583 28.0691 67.5691L27.5324 76.8426ZM64.7612 44.3874L64.5111 44.5189L28.6769 63.4322L24.2345 65.7764L10.5604 61.9541L64.7612 44.3874ZM27.7587 77.3252L28.3148 67.75L30.5349 68.502L36.8223 70.6308L27.7587 77.3252ZM45.8084 73.4081L37.1327 70.4692L29.69 67.9483L28.4894 67.541L65.6686 44.2431L45.8084 73.4081Z" fill="#C7C7C7"/>
        <path d="M148.474 18.3596L108.311 0.0107738H108.309C108.305 0.00861916 108.298 0.00861824 108.294 0.00646362C108.288 0.00430899 108.283 0.00430807 108.277 0.00215344H108.275C108.272 0.00215344 108.268 0 108.266 0C108.262 0 108.255 0.00215344 108.251 0.00215344C108.244 0.00215344 108.238 0.00215555 108.234 0.00431017C108.229 0.00431017 108.227 0.00430899 108.223 0.00646362C108.223 0.00646362 108.221 0.00646243 108.221 0.00861706C108.216 0.0107717 108.214 0.012926 108.21 0.0150807C108.204 0.0172353 108.199 0.0193918 108.193 0.023701C108.191 0.0258556 108.188 0.0258566 108.186 0.0280112L108.184 0.0301646C108.18 0.0323193 108.178 0.0366271 108.175 0.0387817C108.173 0.0409363 108.173 0.0409372 108.171 0.0430919C108.169 0.0474011 108.165 0.047403 108.16 0.0517122C108.16 0.0538668 108.16 0.0538645 108.158 0.0560191C108.156 0.0581737 108.154 0.0603302 108.154 0.0646394C108.154 0.0667941 108.152 0.0667917 108.152 0.0689463C108.15 0.0732556 108.15 0.0775676 108.147 0.0818768C108.147 0.0840315 108.145 0.0861858 108.145 0.0883405C108.143 0.0926497 108.141 0.094805 108.141 0.0991142C108.141 0.101269 108.141 0.105577 108.139 0.107731C108.137 0.114195 108.137 0.120658 108.137 0.127122C108.137 0.133586 108.135 0.137896 108.137 0.14436C108.137 0.146514 108.139 0.150825 108.139 0.15298C108.141 0.159444 108.141 0.165907 108.143 0.172371C108.145 0.17668 108.145 0.180989 108.147 0.185298L119.015 23.5953C119.037 23.6406 119.082 23.6686 119.129 23.6686C119.136 23.6686 119.142 23.6686 119.149 23.6664L127.01 22.4426L134.59 30.3565C134.593 30.3587 134.593 30.3587 134.595 30.3587C134.606 30.3695 134.618 30.3781 134.631 30.3845C134.644 30.3888 134.657 30.3932 134.672 30.3932C134.675 30.3932 134.679 30.3932 134.681 30.3932C134.7 30.3932 134.718 30.3867 134.733 30.3802C134.735 30.3802 134.737 30.3802 134.739 30.3781C134.741 30.3759 134.743 30.3759 134.746 30.3738C134.752 30.3695 134.759 30.3651 134.763 30.3608C134.767 30.3565 134.771 30.3544 134.776 30.3501C134.78 30.3458 134.784 30.3393 134.787 30.3328C134.791 30.3264 134.793 30.3221 134.795 30.3156C134.795 30.3134 134.797 30.3134 134.797 30.3113L138.419 20.3634L148.446 18.6052C148.5 18.5966 148.543 18.5513 148.549 18.4975C148.553 18.435 148.525 18.3811 148.474 18.3596ZM134.709 29.8028L132.922 21.3782C132.922 21.376 132.92 21.3739 132.92 21.3717C132.92 21.3696 132.918 21.3674 132.918 21.3631C132.914 21.3545 132.911 21.3437 132.905 21.3351C132.903 21.3308 132.901 21.3286 132.898 21.3265C132.894 21.32 132.89 21.3136 132.883 21.3071L109.872 1.35526L138.173 20.2944L134.709 29.8028ZM108.622 0.605449L109.279 1.17427L132.513 21.32L127.033 22.1733L119.203 23.3928L108.622 0.605449ZM131.564 21.7229L132.7 21.5463L132.924 22.6063L134.461 29.8502L127.309 22.3844L131.564 21.7229ZM138.352 20.1113L109.628 0.887705L147.999 18.4199L138.352 20.1113Z" fill="#C7C7C7"/>
        <path d="M180.048 189.204C179.949 187.166 179.382 184.921 178.405 182.717L164.533 151.543V130.685C164.533 124.895 163.55 118.685 161.612 112.228C159.679 105.768 156.888 99.3821 153.32 93.2436C145.781 80.6692 135.9 70.5662 125.502 64.7961C120.34 61.6956 115.279 59.7974 110.461 59.1574C105.633 58.5154 101.281 59.1661 97.518 61.0944L85.2018 68.2306C85.1975 68.2327 85.1932 68.2392 85.1889 68.2413C84.094 68.8813 83.0744 69.6311 82.1303 70.4843L82.1282 70.4865C81.9407 70.6567 81.7575 70.829 81.5764 71.0079C81.5721 71.0122 81.5656 71.0186 81.5613 71.023C81.3846 71.1975 81.21 71.3742 81.0397 71.5551C81.0289 71.5659 81.0181 71.5789 81.0095 71.5896C80.8457 71.7663 80.6819 71.9451 80.5224 72.1283C80.5051 72.1477 80.4901 72.1671 80.4728 72.1886C80.3198 72.3653 80.171 72.5441 80.0223 72.7273C79.9986 72.7553 79.9771 72.7854 79.9533 72.8156C79.8132 72.9923 79.6753 73.169 79.5417 73.35C79.5093 73.393 79.4791 73.4361 79.449 73.4792C79.324 73.6494 79.1989 73.8218 79.0782 73.9985C79.0394 74.0567 79.0006 74.117 78.9618 74.1752C78.8519 74.3389 78.7398 74.5048 78.6342 74.6729C78.5846 74.7505 78.5394 74.8302 78.492 74.9077C78.3971 75.0629 78.3001 75.2159 78.2096 75.3731C78.1492 75.4766 78.0932 75.5821 78.0328 75.6856C77.9552 75.8235 77.8777 75.9592 77.8022 76.0971C77.7268 76.2372 77.6535 76.3815 77.5802 76.5237C77.5242 76.6314 77.466 76.7392 77.4121 76.8491C77.2849 77.1033 77.162 77.364 77.0413 77.6269C75.1014 81.8801 74.1186 86.9801 74.1186 92.7868V113.624L60.4962 128.735C59.4745 129.842 58.8861 131.475 58.7934 133.453C58.6942 135.418 59.0865 137.659 59.9271 139.934C60.2914 140.9 60.7333 141.856 61.2355 142.783C61.88 143.97 62.6236 145.112 63.4556 146.163C64.9385 148.034 66.6327 149.559 68.3549 150.576L107.295 173.051L99.4946 177.296C99.4773 177.304 99.4644 177.317 99.4558 177.33C99.4429 177.339 99.4278 177.343 99.4127 177.352C98.2337 178.024 97.5849 179.439 97.5849 181.34C97.5849 183.214 98.2164 185.337 99.3653 187.315C100.516 189.299 102.049 190.909 103.678 191.85L122.709 202.832C122.735 202.847 122.76 202.86 122.784 202.875C123.571 203.397 124.379 203.75 125.134 203.903C125.157 203.91 125.181 203.918 125.203 203.922C125.476 203.974 125.741 204 125.998 204C126.509 204 126.981 203.899 127.41 203.694C127.653 203.578 127.877 203.431 128.082 203.257C128.084 203.255 128.089 203.255 128.091 203.255L139.532 196.663C139.877 196.483 140.7 195.825 141.045 195.127C141.36 194.479 141.532 193.705 141.56 192.824L158.034 202.332C159.198 203.013 160.351 203.448 161.44 203.623C161.802 203.681 162.158 203.711 162.505 203.711C162.718 203.711 162.927 203.701 163.134 203.677C163.149 203.675 163.164 203.673 163.179 203.67C163.268 203.66 163.354 203.649 163.44 203.634C163.498 203.623 163.556 203.612 163.613 203.599C163.653 203.591 163.694 203.584 163.733 203.576C163.809 203.558 163.882 203.539 163.955 203.52C163.975 203.513 163.994 203.509 164.013 203.504C164.1 203.479 164.186 203.451 164.27 203.423C164.272 203.42 164.276 203.42 164.279 203.418C164.71 203.267 165.111 203.061 165.477 202.796L176.847 196.192C177.011 196.108 178.436 195.129 178.94 194.321C179.763 193.029 180.147 191.258 180.048 189.204ZM127.293 203.461C126.701 203.741 126.011 203.813 125.256 203.67C124.476 203.459 123.685 203.11 122.834 202.606L103.803 191.622C102.234 190.717 100.697 189.099 99.5851 187.181C98.46 185.242 97.8392 183.167 97.8392 181.338C97.8392 179.534 98.4427 178.198 99.5355 177.576C99.9796 177.324 100.482 177.199 101.029 177.199C101.835 177.199 102.736 177.472 103.67 178.011L122.698 188.993C122.78 189.047 124.375 190.107 125.129 190.835C125.914 191.594 126.623 192.486 127.235 193.483C127.845 194.477 128.326 195.524 128.664 196.592C128.996 197.659 129.164 198.678 129.164 199.622C129.164 200.559 128.998 201.376 128.671 202.048C128.347 202.707 127.884 203.181 127.293 203.461ZM140.817 195.017C140.489 195.677 139.689 196.295 139.407 196.444L128.617 202.66C128.725 202.507 128.822 202.341 128.91 202.162C129.255 201.453 129.429 200.598 129.429 199.622C129.429 198.652 129.257 197.607 128.916 196.515C128.574 195.427 128.084 194.36 127.461 193.348C126.836 192.331 126.114 191.423 125.315 190.648C124.526 189.885 122.911 188.816 122.842 188.773C122.84 188.771 122.838 188.771 122.836 188.769L103.805 177.785C102.674 177.132 101.588 176.854 100.633 176.959L107.547 173.197L141.306 192.682C141.295 193.582 141.131 194.369 140.817 195.017ZM165.177 202.696C165.173 202.699 165.171 202.699 165.167 202.701C164.557 203.102 163.863 203.347 163.104 203.429C162.731 203.47 162.345 203.472 161.949 203.436C160.757 203.328 159.468 202.882 158.159 202.115L141.498 192.499L107.39 172.814L68.4778 150.358C66.7814 149.357 65.111 147.853 63.6474 146.006C62.7335 144.849 61.9188 143.584 61.2355 142.266C60.826 141.475 60.4638 140.665 60.1578 139.846C59.5866 138.299 59.2309 136.771 59.093 135.336C59.0563 134.953 59.0305 134.571 59.0262 134.203C59.024 133.953 59.0283 133.707 59.0391 133.466C59.1296 131.546 59.6965 129.969 60.6772 128.905L74.3341 113.758C74.3557 113.734 74.3664 113.704 74.3664 113.674V92.7868C74.3664 87.7385 75.1122 83.2311 76.5887 79.3549C76.7999 78.8012 77.0241 78.2603 77.2655 77.7325C77.4272 77.3791 77.5953 77.0387 77.7677 76.7004C77.9574 76.3298 78.1536 75.9678 78.3562 75.6145C78.382 75.5692 78.4079 75.5218 78.4338 75.4766C78.5221 75.3257 78.6148 75.1771 78.7075 75.0284C78.7592 74.9444 78.811 74.856 78.8627 74.7742C78.9187 74.6858 78.9769 74.6039 79.033 74.5178C79.1257 74.3777 79.2162 74.2355 79.311 74.0976C79.3175 74.089 79.324 74.0782 79.3304 74.0696C79.63 73.6365 79.9404 73.2207 80.2659 72.8199C80.2724 72.8113 80.2788 72.8048 80.2853 72.7962C81.7725 70.9669 83.5141 69.4781 85.4993 68.3469C85.5165 68.3383 85.5359 68.3297 85.5553 68.3211C85.5769 68.3124 85.5984 68.3017 85.6178 68.293C85.6243 68.2909 85.6265 68.2844 85.6329 68.2823C88.3854 66.899 91.4613 66.2031 94.8108 66.2031C95.9403 66.2031 97.0999 66.2828 98.2875 66.4401C103.073 67.0757 108.099 68.961 113.236 72.0464C123.597 77.7971 133.445 87.87 140.961 100.406C144.52 106.527 147.302 112.894 149.229 119.334C151.161 125.77 152.139 131.954 152.139 137.717V158.604C152.139 158.621 152.143 158.639 152.15 158.656L166.035 189.853C166.999 192.029 167.559 194.242 167.656 196.25C167.753 198.251 167.382 199.971 166.587 201.225C166.208 201.837 165.731 202.33 165.177 202.696ZM178.726 194.19C178.257 194.942 176.884 195.892 176.726 195.972L166.32 202.016C166.494 201.813 166.656 201.593 166.803 201.356C167.626 200.061 168.01 198.29 167.91 196.235C167.811 194.196 167.244 191.953 166.268 189.747L152.396 158.574V137.715C152.396 131.928 151.413 125.718 149.475 119.259C147.542 112.801 144.75 106.413 141.181 100.274C133.641 87.6998 123.761 77.5967 113.363 71.8266C108.2 68.7261 103.139 66.8279 98.322 66.188C94.356 65.6601 90.709 66.0091 87.4478 67.2179L97.6366 61.3142C101.346 59.4138 105.651 58.7718 110.425 59.4074C115.21 60.043 120.236 61.9283 125.373 65.0137C135.734 70.7644 145.582 80.8373 153.1 93.3707C156.659 99.4899 159.44 105.859 161.369 112.299C163.3 118.733 164.279 124.919 164.279 130.682V151.569C164.279 151.587 164.283 151.604 164.289 151.621L178.175 182.818C179.138 184.994 179.699 187.207 179.796 189.215C179.893 191.219 179.522 192.938 178.726 194.19Z" fill="#C7C7C7"/>
    </g>
    <defs>
        <clipPath id="clip0_42201_117628">
            <rect width="240" height="204" fill="white"/>
        </clipPath>
    </defs>
</svg>
