<svg width="390" height="300" viewBox="0 0 390 300" fill="none" xmlns="http://www.w3.org/2000/svg">
    <path opacity="0.3" d="M304.26 22.3064C292.161 15.3197 280.732 14.8108 272.7 19.1562L266.162 22.9392C274.073 19.26 284.582 20.3011 296.111 26.9565C320.721 41.1644 340.67 75.5761 340.67 103.815C340.67 118.079 335.575 128.032 327.363 132.568L327.396 132.622L335.873 127.647C343.583 122.907 348.818 112.924 348.818 99.1578C348.818 70.9261 328.872 36.5144 304.26 22.3064Z" fill="#C7C7C7"/>
    <path d="M299.939 81.0198L317.207 73.8857C319.132 73.0889 320.052 70.8727 319.255 68.9477C318.87 68.0137 318.144 67.2872 317.213 66.8989C316.279 66.5105 315.252 66.5105 314.318 66.8989L295.808 74.5452L276.069 43.6018C274.948 41.8442 272.604 41.3286 270.847 42.4468C269.089 43.5683 268.57 45.9117 269.692 47.6693L288.707 77.4812L271.439 84.6153C269.514 85.412 268.594 87.6283 269.391 89.5532C269.976 90.9727 271.349 91.89 272.886 91.89C273.384 91.89 273.87 91.7929 274.328 91.6021L292.855 83.9524L312.573 114.899C313.273 115.994 314.465 116.647 315.767 116.647C316.487 116.647 317.187 116.442 317.796 116.054C319.553 114.933 320.072 112.589 318.951 110.832L299.939 81.0198ZM317.585 115.723C317.039 116.071 316.41 116.255 315.767 116.255C314.602 116.255 313.531 115.669 312.905 114.688L293.096 83.6042C293.093 83.5975 293.086 83.5942 293.079 83.5875C293.069 83.5775 293.063 83.5674 293.053 83.5607C293.042 83.554 293.032 83.5473 293.022 83.5406C293.012 83.5339 292.999 83.5306 292.989 83.5272C292.976 83.5239 292.965 83.5205 292.952 83.5205C292.939 83.5205 292.929 83.5172 292.915 83.5205C292.902 83.5205 292.888 83.5239 292.878 83.5272C292.872 83.5306 292.865 83.5272 292.855 83.5306L274.174 91.2438C273.763 91.4146 273.327 91.5016 272.882 91.5016C271.503 91.5016 270.274 90.6781 269.749 89.4059C269.036 87.6785 269.859 85.6932 271.587 84.9802L289.072 77.7557C289.079 77.7523 289.085 77.7456 289.089 77.7423C289.092 77.739 289.095 77.7423 289.102 77.7389C289.109 77.7356 289.112 77.7289 289.119 77.7222C289.129 77.7122 289.139 77.7055 289.146 77.6954C289.152 77.6854 289.159 77.6753 289.166 77.6653C289.172 77.6553 289.176 77.6452 289.179 77.6318C289.183 77.6184 289.186 77.6084 289.186 77.595C289.186 77.5816 289.189 77.5716 289.186 77.5582C289.186 77.5448 289.183 77.5314 289.179 77.518C289.176 77.5113 289.179 77.5046 289.176 77.4979C289.172 77.4912 289.169 77.4879 289.166 77.4845C289.162 77.4778 289.162 77.4745 289.159 77.4678L270.02 47.4584C269.016 45.8816 269.481 43.7826 271.054 42.7782C272.628 41.7739 274.727 42.2392 275.735 43.8127L295.56 74.8933C295.563 74.9 295.57 74.9034 295.577 74.9101C295.583 74.9201 295.593 74.9302 295.604 74.9369C295.614 74.9469 295.624 74.9536 295.637 74.957C295.647 74.9637 295.657 74.967 295.667 74.9704C295.681 74.9737 295.694 74.977 295.707 74.977C295.717 74.977 295.731 74.977 295.741 74.977C295.754 74.977 295.768 74.9737 295.781 74.9704C295.788 74.967 295.794 74.9703 295.801 74.967L314.465 67.2571C315.302 66.9123 316.226 66.9089 317.059 67.2571C317.896 67.6053 318.546 68.2547 318.891 69.095C319.604 70.8225 318.78 72.8077 317.053 73.5208L299.567 80.7452C299.561 80.7486 299.557 80.7519 299.554 80.7553C299.547 80.7586 299.544 80.7586 299.537 80.762C299.53 80.7653 299.527 80.772 299.52 80.7754C299.51 80.7854 299.5 80.7921 299.49 80.8022C299.484 80.8122 299.477 80.8222 299.47 80.8323C299.464 80.8423 299.46 80.8557 299.457 80.8658C299.453 80.8792 299.45 80.8892 299.45 80.9026C299.45 80.916 299.447 80.926 299.45 80.9394C299.45 80.9528 299.453 80.9662 299.457 80.9796C299.46 80.9863 299.457 80.993 299.46 80.9997C299.46 81.003 299.467 81.0064 299.467 81.0097C299.47 81.0164 299.47 81.0231 299.474 81.0298L318.613 111.039C319.627 112.616 319.162 114.715 317.585 115.723Z" fill="#C7C7C7"/>
    <g opacity="0.3">
        <path d="M315.768 116.449C314.582 116.449 313.424 115.863 312.741 114.792L269.863 47.562C268.798 45.8915 269.287 43.6753 270.958 42.6107C272.628 41.5461 274.841 42.0382 275.909 43.7054L318.787 110.935C319.852 112.606 319.363 114.822 317.693 115.887C317.093 116.268 316.427 116.449 315.768 116.449Z" fill="#C7C7C7"/>
        <path d="M292.914 83.708L274.25 91.4179C273.802 91.602 273.34 91.689 272.881 91.689C271.472 91.689 270.136 90.8554 269.567 89.4728C268.81 87.6416 269.681 85.5459 271.512 84.7893L288.997 77.5648" fill="#C7C7C7"/>
        <path d="M295.729 74.7894L314.392 67.0795C316.227 66.3195 318.319 67.1933 319.076 69.0245C319.832 70.8558 318.962 72.9515 317.131 73.7081L299.645 80.9325" fill="#C7C7C7"/>
    </g>
    <path opacity="0.3" d="M3.08206 193.859L0.196289 195.527L107.787 258.053L110.673 256.386L3.08206 193.859Z" fill="#C7C7C7"/>
    <path opacity="0.3" d="M245.941 124.832C245.878 102.465 229.993 93.413 210.529 104.648C191.065 115.887 175.28 143.224 175.344 165.591L175.494 218.961C175.551 239.496 161.062 264.598 143.192 274.915C125.321 285.233 110.735 276.921 110.675 256.386L107.789 258.053C107.853 280.419 123.738 289.472 143.202 278.233C162.662 266.995 178.447 239.66 178.383 217.294L178.233 163.92C178.176 143.385 192.665 118.287 210.539 107.966C227.408 98.2271 241.352 105.087 242.908 123.165" fill="#C7C7C7"/>
    <path d="M194.387 108.712C194.346 108.712 194.31 108.702 194.273 108.682L96.8093 52.416C96.7457 52.3792 96.7055 52.3156 96.6955 52.2453C96.6888 52.175 96.7122 52.1013 96.7658 52.0511C97.8772 51.01 99.0088 50.0257 100.127 49.1252C100.201 49.0649 100.304 49.0582 100.385 49.1051L197.661 105.264C197.724 105.301 197.765 105.364 197.775 105.438C197.781 105.512 197.754 105.582 197.701 105.632C196.643 106.583 195.582 107.597 194.551 108.645C194.504 108.689 194.447 108.712 194.387 108.712ZM97.3014 52.175L194.346 108.2C195.267 107.266 196.211 106.362 197.159 105.505L100.291 49.5771C99.2967 50.3839 98.2923 51.2544 97.3014 52.175Z" fill="#CCCCCC"/>
    <path d="M183.462 122.438C183.421 122.438 183.385 122.428 183.348 122.408L85.6265 65.9947C85.573 65.9646 85.5328 65.911 85.5194 65.8507C85.506 65.7905 85.5161 65.7269 85.5495 65.6733C86.2927 64.515 87.0962 63.3399 87.9331 62.1816C88.0035 62.0878 88.1307 62.0611 88.2311 62.118L185.936 118.528C185.993 118.561 186.033 118.615 186.046 118.678C186.06 118.742 186.046 118.806 186.009 118.859C185.202 119.987 184.412 121.156 183.659 122.334C183.612 122.401 183.539 122.438 183.462 122.438ZM86.0617 65.7168L183.388 121.902C184.064 120.851 184.771 119.81 185.487 118.796L88.1775 62.6168C87.4377 63.6446 86.728 64.6857 86.0617 65.7168Z" fill="#CCCCCC"/>
    <path d="M175.51 137.881C175.47 137.881 175.43 137.871 175.396 137.851L77.8288 81.5251C77.7317 81.4682 77.6915 81.3543 77.7283 81.2506C78.1903 79.9918 78.7226 78.6627 79.3118 77.3035C79.3386 77.2433 79.3888 77.1998 79.4491 77.1763C79.5093 77.1563 79.5797 77.1629 79.6332 77.1964L177.274 133.566C177.375 133.626 177.415 133.75 177.368 133.857C176.792 135.123 176.236 136.428 175.721 137.737C175.697 137.798 175.647 137.848 175.584 137.868C175.56 137.878 175.537 137.881 175.51 137.881ZM78.2238 81.2238L175.396 137.322C175.861 136.154 176.357 134.989 176.869 133.854L79.6299 77.7187C79.111 78.9205 78.6389 80.0989 78.2238 81.2238Z" fill="#CCCCCC"/>
    <path d="M170.81 155.206C170.77 155.206 170.73 155.196 170.696 155.176L74.0632 99.3852C73.9896 99.3416 73.9461 99.2646 73.9494 99.1809C74.003 97.6912 74.1369 96.1311 74.3511 94.5443C74.3612 94.4673 74.408 94.4037 74.4783 94.3702C74.5453 94.3367 74.6256 94.3401 74.6926 94.3769L171.697 150.375C171.781 150.425 171.828 150.522 171.808 150.619C171.5 152.089 171.242 153.565 171.038 155.008C171.028 155.082 170.981 155.149 170.911 155.182C170.877 155.199 170.844 155.206 170.81 155.206ZM74.4114 99.0571L170.633 154.61C170.824 153.318 171.055 151.999 171.326 150.686L74.7596 94.9427C74.5821 96.3487 74.465 97.7314 74.4114 99.0571Z" fill="#CCCCCC"/>
    <path d="M170.229 174.901C170.189 174.901 170.149 174.891 170.115 174.871L74.0882 119.428C74.0179 119.388 73.9743 119.311 73.9743 119.231L73.9609 114.373C73.9609 114.293 74.0045 114.216 74.0748 114.176C74.1451 114.135 74.2321 114.135 74.3024 114.176L170.333 169.615C170.403 169.655 170.447 169.732 170.447 169.812L170.46 174.67C170.46 174.75 170.417 174.827 170.346 174.867C170.31 174.891 170.269 174.901 170.229 174.901ZM74.4296 119.1L170.002 174.278L169.988 169.949L74.4162 114.771L74.4296 119.1Z" fill="#CCCCCC"/>
    <path d="M170.287 194.967C170.247 194.967 170.207 194.957 170.174 194.937L74.1428 139.495C74.0725 139.455 74.029 139.378 74.029 139.297L74.0156 134.443C74.0156 134.363 74.0591 134.286 74.1294 134.246C74.1998 134.206 74.2868 134.206 74.3571 134.246L170.388 189.688C170.458 189.728 170.502 189.805 170.502 189.886L170.515 194.74C170.515 194.82 170.471 194.897 170.401 194.937C170.364 194.957 170.324 194.967 170.287 194.967ZM74.4843 139.167L170.056 194.345L170.043 190.019L74.4709 134.838L74.4843 139.167Z" fill="#CCCCCC"/>
    <path d="M170.346 215.037C170.306 215.037 170.266 215.027 170.232 215.007L73.967 159.424C73.89 159.381 73.8465 159.294 73.8532 159.207C73.9972 157.62 74.0708 156.04 74.0708 154.51C74.0708 154.429 74.1143 154.352 74.1846 154.312C74.2549 154.272 74.342 154.272 74.4123 154.312L170.443 209.751C170.513 209.791 170.557 209.868 170.557 209.949L170.57 214.806C170.57 214.887 170.527 214.964 170.456 215.004C170.423 215.027 170.386 215.037 170.346 215.037ZM74.3219 159.103L170.115 214.411L170.101 210.083L74.5295 154.905C74.5161 156.277 74.4491 157.687 74.3219 159.103Z" fill="#CCCCCC"/>
    <path d="M167.461 233.403C167.421 233.403 167.381 233.393 167.347 233.373L69.8136 177.063C69.7165 177.006 69.673 176.889 69.7132 176.786C70.1986 175.503 70.6673 174.148 71.0991 172.755C71.1192 172.688 71.1694 172.634 71.233 172.611C71.2966 172.584 71.3703 172.591 71.4306 172.624L168.81 228.85C168.901 228.9 168.944 229.007 168.918 229.104C168.566 230.46 168.148 231.853 167.675 233.249C167.652 233.313 167.605 233.366 167.538 233.39C167.515 233.396 167.488 233.403 167.461 233.403ZM70.2086 176.762L167.331 232.834C167.742 231.595 168.114 230.36 168.432 229.151L71.4506 173.16C71.059 174.402 70.6438 175.61 70.2086 176.762Z" fill="#CCCCCC"/>
    <path d="M159.859 249.047C159.819 249.047 159.782 249.037 159.746 249.017L62.0142 192.597C61.9607 192.567 61.9205 192.514 61.9071 192.453C61.8937 192.393 61.9038 192.329 61.9372 192.276C62.6838 191.111 63.4169 189.906 64.1099 188.694C64.1401 188.64 64.1903 188.603 64.2472 188.587C64.3041 188.57 64.3677 188.58 64.4213 188.61L162.139 245.027C162.246 245.09 162.287 245.228 162.223 245.335L162.186 245.402C162.089 245.572 161.992 245.746 161.891 245.917C161.286 246.965 160.666 247.983 160.047 248.944C160.007 249.01 159.933 249.047 159.859 249.047ZM62.4494 192.319L159.782 248.512C160.358 247.611 160.934 246.664 161.496 245.69C161.57 245.562 161.644 245.435 161.714 245.308L64.3911 189.119C63.7685 190.2 63.1156 191.275 62.4494 192.319Z" fill="#CCCCCC"/>
    <path d="M148.506 262.525C148.466 262.525 148.429 262.515 148.392 262.495L50.989 206.26C50.9287 206.223 50.8852 206.163 50.8751 206.092C50.8651 206.022 50.8919 205.952 50.9421 205.901C51.9732 204.887 52.9775 203.839 53.925 202.791C53.9986 202.711 54.1158 202.694 54.2095 202.748L151.773 259.074C151.834 259.111 151.874 259.171 151.884 259.241C151.894 259.312 151.871 259.382 151.824 259.432C150.776 260.52 149.711 261.545 148.66 262.475C148.617 262.505 148.56 262.525 148.506 262.525ZM51.4777 206.015L148.479 262.017C149.413 261.183 150.357 260.279 151.291 259.318L54.1392 203.23C53.2889 204.171 52.395 205.105 51.4777 206.015Z" fill="#CCCCCC"/>
    <g opacity="0.3">
        <path d="M197.545 105.462C196.47 106.429 195.419 107.437 194.384 108.485L96.9209 52.2188C98.019 51.1876 99.1371 50.2134 100.269 49.3029L197.545 105.462Z" fill="#C7C7C7"/>
        <path d="M185.821 118.726C185.007 119.867 184.22 121.029 183.464 122.211L85.7393 65.7973C86.5059 64.6022 87.2993 63.4439 88.1128 62.3157L185.821 118.726Z" fill="#C7C7C7"/>
        <path d="M177.162 133.761C176.577 135.049 176.028 136.345 175.509 137.651L77.9414 81.3278C78.4201 80.0188 78.9491 78.7065 79.5182 77.3942L177.162 133.761Z" fill="#C7C7C7"/>
        <path d="M171.587 150.573C171.279 152.046 171.021 153.515 170.814 154.975L74.1807 99.1878C74.2342 97.678 74.3715 96.138 74.579 94.5746L171.587 150.573Z" fill="#C7C7C7"/>
        <path d="M170.225 174.674L74.1974 119.231L74.1807 114.374L170.211 169.816L170.225 174.674Z" fill="#C7C7C7"/>
        <path d="M170.288 194.74L74.2575 139.298L74.2441 134.444L170.275 189.886L170.288 194.74Z" fill="#C7C7C7"/>
        <path d="M170.344 214.806L74.0791 159.227C74.2264 157.64 74.3001 156.066 74.3001 154.51L170.331 209.949L170.344 214.806Z" fill="#C7C7C7"/>
        <path d="M168.698 229.044C168.343 230.41 167.928 231.79 167.459 233.172L69.9287 176.863C70.4376 175.524 70.8996 174.171 71.318 172.819L168.698 229.044Z" fill="#C7C7C7"/>
        <path d="M162.023 245.224C161.916 245.418 161.806 245.612 161.695 245.803C161.103 246.831 160.49 247.835 159.857 248.82L62.126 192.396C62.8826 191.218 63.609 190.023 64.302 188.804L162.023 245.224Z" fill="#C7C7C7"/>
        <path d="M151.658 259.268C150.631 260.336 149.579 261.351 148.508 262.298L51.1016 206.062C52.1226 205.058 53.1236 204.017 54.0945 202.942L151.658 259.268Z" fill="#C7C7C7"/>
    </g>
    <path d="M304.362 22.1357C292.635 15.3665 281.527 14.1513 273.081 18.7243L264.457 23.7158C264.447 23.7225 264.44 23.7292 264.433 23.7359C259.884 26.3639 256.359 30.6457 254.129 36.3168C252.311 40.9368 251.39 46.3702 251.39 52.4598C251.39 61.6829 253.526 71.5755 257.256 81.2137L203.437 50.0594C202.071 49.2727 200.444 49.2727 199.078 50.0594C197.712 50.8461 196.899 52.2589 196.899 53.8357V65.198L118.648 20.0199C117.282 19.2332 115.652 19.2332 114.289 20.0199C112.924 20.8066 112.11 22.2194 112.11 23.7962V37.984C109.097 38.7841 105.99 40.0998 102.823 41.9277C83.2958 53.203 67.4608 80.6279 67.5244 103.068L67.6751 156.438C67.732 176.896 53.0788 202.021 35.2788 212.306L3.19712 193.662C3.12681 193.622 3.03977 193.622 2.96947 193.662L0.0803463 195.329L0.0970849 195.356C0.0368251 195.389 0 195.456 0 195.527C0.0301299 206.343 3.72606 214.435 10.4049 218.315L117.132 280.339C117.43 280.536 117.731 280.727 118.042 280.905C120.828 282.508 123.981 283.302 127.393 283.302C132.284 283.302 137.704 281.665 143.315 278.427C162.842 267.152 178.674 239.727 178.61 217.29L178.459 163.917C178.402 143.455 192.841 118.444 210.651 108.16C218.961 103.363 226.848 102.449 232.861 105.582C238.468 108.505 241.933 114.517 242.659 122.944L243.135 123.141C242.395 114.554 238.823 108.177 233.071 105.177C226.915 101.967 218.874 102.887 210.424 107.765C192.49 118.12 177.947 143.308 178.004 163.917L178.155 217.29C178.218 239.58 162.487 266.831 143.087 278.029C133.713 283.442 124.902 284.319 118.27 280.506C111.715 276.733 108.076 268.806 108.016 258.177L110.436 256.781C110.198 270.66 117.091 275.351 119.699 277.125L120.007 277.336C121.926 278.662 124.862 279.385 128.223 279.385C128.779 279.385 129.348 279.365 129.927 279.324C133.074 279.107 137.948 278.196 143.301 275.106C161.235 264.752 175.778 239.563 175.718 218.954L175.567 165.584C175.503 143.291 191.234 116.041 210.638 104.842C219.998 99.4356 228.796 98.5552 235.425 102.352C242.074 106.335 245.903 114.494 245.934 124.741L246.389 124.982C246.359 114.628 242.489 106.121 235.766 102.027C235.76 102.02 128.152 39.4805 128.152 39.4805C124.852 37.5622 121.008 36.7788 116.73 37.1504C115.344 37.271 113.931 37.512 112.498 37.8702V23.7862C112.498 22.3533 113.238 21.0678 114.48 20.3513C115.722 19.6349 117.205 19.6349 118.447 20.3513L196.996 65.7002C197.056 65.7337 197.13 65.7337 197.193 65.7002C197.254 65.6667 197.291 65.5998 197.291 65.5294V53.8257C197.291 52.3928 198.03 51.1073 199.272 50.3909C200.514 49.6744 201.997 49.6744 203.24 50.3909L257.349 81.7159C257.38 81.7326 257.413 81.7427 257.447 81.7427C257.45 81.7427 257.457 81.7393 257.46 81.7393C265.213 101.434 279.602 119.991 296.04 129.482C303.134 133.576 309.973 135.645 316.136 135.645C320.415 135.645 324.365 134.647 327.843 132.639C328.479 132.271 329.092 131.872 329.681 131.444H329.685L336.444 127.554C344.549 122.569 349.011 112.485 349.011 99.1611C349.018 70.9093 328.985 36.3537 304.362 22.1357ZM114.902 278.588L10.6024 217.98C4.1211 214.214 0.502165 206.37 0.395036 195.871L107.56 258.15C107.604 267.135 110.182 274.229 114.902 278.588ZM107.755 257.805L0.619336 195.547L3.08329 194.124L110.219 256.386L107.755 257.805ZM127.925 39.8822L232.094 100.42C229.707 99.6867 227.109 99.439 224.32 99.6834C219.905 100.068 215.225 101.672 210.41 104.454C190.883 115.729 175.048 143.154 175.112 165.594L175.262 218.964C175.319 239.426 160.88 264.437 143.073 274.718C136.093 278.749 125.655 280.69 120.265 276.968L119.954 276.753C117.376 274.999 110.527 270.336 110.898 256.392C110.901 256.309 110.858 256.232 110.788 256.191C110.788 256.191 110.788 256.191 110.784 256.191L35.7407 212.573C53.6613 202.212 68.1906 177.037 68.1337 156.438L67.9831 103.068C67.9195 80.7752 83.654 53.5244 103.054 42.3227C112.455 36.8927 121.29 36.0256 127.925 39.8822ZM327.653 132.307C319.286 137.135 308.132 136.013 296.24 129.15C271.725 114.993 251.779 80.591 251.779 52.4598C251.779 46.417 252.689 41.0338 254.49 36.4608C257.246 29.4539 261.996 24.5997 268.226 22.4203C270.667 21.5666 273.302 21.1448 276.084 21.1448C282.233 21.1448 289.083 23.2036 296.043 27.2243C320.559 41.3787 340.505 75.7803 340.505 103.912C340.505 117.437 335.942 127.52 327.653 132.307ZM336.25 127.222L331.61 129.894C337.632 124.413 340.896 115.384 340.896 103.915C340.896 75.6564 320.863 41.1041 296.24 26.8862C286.05 21.0042 276.074 19.2834 268.143 22.0386L273.271 19.0725C281.591 14.5698 292.561 15.7816 304.165 22.4805C328.68 36.6349 348.626 71.0365 348.626 99.1678C348.626 112.348 344.231 122.314 336.25 127.222Z" fill="#C7C7C7"/>
    <path d="M281.433 117.942C281.326 117.942 281.236 118.029 281.236 118.14V244.752C281.236 248.21 280.519 250.989 277.024 253.322L276.9 253.406C276.244 253.845 275.608 254.27 274.664 254.682C274.664 254.682 274.664 254.682 274.661 254.682L273.971 254.956C273.569 255.103 273.117 255.251 272.595 255.395C271.323 255.746 270.195 255.582 269.324 254.923C268.521 254.31 268.022 253.309 267.918 252.131C267.918 252.117 267.925 252.107 267.922 252.094C267.908 251.956 267.902 251.816 267.895 251.679V144.199C267.895 142.327 267.43 140.513 266.593 138.899C265.595 136.974 264.065 135.33 262.13 134.216L214.371 105.897C214.277 105.843 214.157 105.873 214.103 105.967C214.046 106.061 214.08 106.181 214.173 106.235L261.932 134.557C262.147 134.681 262.358 134.811 262.562 134.949C265.625 137.004 267.503 140.483 267.503 144.202V251.679C267.503 253.175 268.079 254.471 269.083 255.237C269.716 255.719 270.496 255.967 271.35 255.967C271.37 255.967 271.39 255.964 271.41 255.964C268.441 256.945 265.143 256.643 262.545 255.144L178.459 206.437C178.366 206.383 178.245 206.413 178.191 206.507C178.138 206.601 178.168 206.721 178.262 206.775L262.351 255.478C264.005 256.432 265.93 256.921 267.881 256.921C269.18 256.921 270.493 256.704 271.745 256.265L274.145 255.308C274.356 255.227 274.557 255.15 274.744 255.07L274.808 255.043C274.811 255.043 274.811 255.04 274.815 255.04C275.806 254.608 276.468 254.166 277.118 253.731L277.242 253.647C281.098 251.073 281.627 247.849 281.627 244.749V118.136C281.631 118.029 281.54 117.942 281.433 117.942Z" fill="#C7C7C7"/>
    <path d="M226.545 198.68C226.535 198.68 226.525 198.68 226.511 198.677C226.448 198.667 226.391 198.623 226.364 198.563L212.434 167.579C212.4 167.502 212.417 167.412 212.481 167.355C212.544 167.298 212.635 167.288 212.712 167.332L240.572 183.418C240.622 183.448 240.659 183.498 240.669 183.558C240.679 183.619 240.659 183.679 240.619 183.722L226.689 198.62C226.652 198.66 226.602 198.68 226.545 198.68ZM213.043 167.978L226.602 198.138L240.16 183.635L213.043 167.978Z" fill="#C7C7C7"/>
    <path d="M240.478 172.507C240.444 172.507 240.411 172.497 240.381 172.48L212.521 156.394C212.47 156.364 212.434 156.314 212.423 156.254C212.413 156.194 212.434 156.133 212.474 156.09L226.404 141.192C226.447 141.145 226.514 141.122 226.578 141.132C226.641 141.142 226.698 141.185 226.725 141.246L240.655 172.229C240.689 172.306 240.672 172.397 240.608 172.454C240.571 172.49 240.525 172.507 240.478 172.507ZM212.932 156.18L240.053 171.838L226.494 141.678L212.932 156.18Z" fill="#C7C7C7"/>
    <g opacity="0.3">
        <path d="M240.476 183.588L226.546 198.486L212.616 167.502L240.476 183.588Z" fill="#C7C7C7"/>
        <path d="M212.615 156.227L226.545 141.329L240.475 172.313L212.615 156.227Z" fill="#C7C7C7"/>
    </g>
    <path d="M387.803 216.055L310.539 171.449C309.609 170.914 308.494 170.813 307.483 171.175L305.525 171.881C305.521 171.881 305.521 171.885 305.518 171.885C305.484 171.898 305.458 171.918 305.437 171.945C305.437 171.945 305.434 171.945 305.434 171.948C305.414 171.975 305.404 172.008 305.397 172.042C305.397 172.045 305.394 172.049 305.394 172.049C305.394 172.052 305.394 172.052 305.394 172.055C305.394 172.059 305.391 172.062 305.391 172.069V235.301C305.391 235.372 305.427 235.435 305.488 235.472L385.459 281.644C385.489 281.661 385.523 281.671 385.556 281.671C385.58 281.671 385.603 281.668 385.627 281.658L386.222 281.43C387.883 280.794 389.001 279.171 389.001 277.389V218.141C389.004 217.284 388.542 216.484 387.803 216.055ZM307.617 171.543C308.517 171.218 309.512 171.305 310.342 171.788L387.605 216.393C387.886 216.557 388.117 216.785 388.288 217.049L385.583 218.017L306.053 172.106L307.617 171.543ZM345.899 232.225L306.218 172.655L385.098 218.194L345.899 232.225ZM305.786 235.184V172.715L345.654 232.573C345.668 232.593 345.684 232.606 345.701 232.62C345.704 232.62 345.704 232.623 345.708 232.627C345.738 232.647 345.771 232.657 345.805 232.657C345.808 232.657 345.812 232.66 345.818 232.66C345.825 232.66 345.832 232.657 345.838 232.657C345.848 232.657 345.855 232.653 345.865 232.653C345.872 232.653 345.878 232.653 345.882 232.65L385.362 218.519V281.132L305.786 235.184ZM388.613 277.383C388.613 279 387.598 280.476 386.089 281.055L385.76 281.182V218.375L388.455 217.411C388.462 217.408 388.465 217.404 388.472 217.401C388.563 217.632 388.616 217.883 388.616 218.141V277.383H388.613Z" fill="#C7C7C7"/>
    <g opacity="0.3">
        <path d="M385.562 218.238V281.471L386.158 281.243C387.755 280.63 388.81 279.097 388.81 277.386V218.141C388.81 217.789 388.726 217.451 388.575 217.15L385.562 218.238Z" fill="#C7C7C7"/>
    </g>
    <path opacity="0.3" d="M305.809 172.393L385.562 218.237L345.818 232.462L305.809 172.393Z" fill="#C7C7C7"/>
</svg>
