<svg width="390" height="300" viewBox="0 0 390 300" fill="none" xmlns="http://www.w3.org/2000/svg">
    <path d="M186.901 47.628C177.35 47.628 167.779 45.519 160.491 41.3009C153.379 37.1902 149.457 31.7223 149.457 25.9029C149.457 20.1324 153.32 14.7231 160.325 10.671C174.764 2.33247 198.325 2.37153 212.842 10.7686C219.954 14.8793 223.876 20.3472 223.876 26.1666C223.876 31.9371 220.013 37.3464 213.008 41.3985C205.818 45.5482 196.364 47.628 186.901 47.628ZM186.432 4.92972C177.047 4.92972 167.691 6.98017 160.569 11.1006C153.72 15.0551 149.945 20.3179 149.945 25.9029C149.945 31.5466 153.779 36.8582 160.735 40.881C175.125 49.2 198.471 49.2391 212.764 40.9787C219.613 37.0242 223.388 31.7614 223.388 26.1763C223.388 20.5327 219.554 15.221 212.598 11.1982C205.379 7.01923 195.896 4.92972 186.432 4.92972Z" fill="#CECECE"/>
    <g opacity="0.3">
        <path d="M223.626 26.2309C223.69 14.4374 207.192 4.78735 186.777 4.67685C166.361 4.56635 149.759 14.0373 149.695 25.8308C149.631 37.6243 166.129 47.2744 186.545 47.3849C206.96 47.4954 223.562 38.0244 223.626 26.2309Z" fill="#C7C7C7"/>
    </g>
    <path d="M186.529 208.677C172.48 208.677 158.402 205.572 147.68 199.371C137.241 193.337 131.485 185.311 131.485 176.787C131.485 168.331 137.154 160.393 147.436 154.457C168.666 142.193 203.329 142.252 224.694 154.593C235.133 160.628 240.889 168.644 240.889 177.178C240.889 185.633 235.221 193.572 224.938 199.508C214.363 205.62 200.46 208.677 186.529 208.677ZM185.846 145.776C172.002 145.776 158.188 148.813 147.68 154.877C137.554 160.725 131.973 168.507 131.973 176.787C131.973 185.135 137.641 193.005 147.924 198.952C169.153 211.215 203.592 211.284 224.694 199.088C234.821 193.24 240.402 185.458 240.402 177.178C240.402 168.829 234.733 160.96 224.45 155.013C213.787 148.852 199.797 145.776 185.846 145.776Z" fill="#CECECE"/>
    <g opacity="0.3">
        <path d="M188.86 178.525L223.045 179.697C224.421 179.746 225.611 179.131 225.679 178.34C225.748 177.539 224.684 176.856 223.309 176.807L188.558 175.616L186.499 155.531C186.421 154.73 185.221 154.115 183.845 154.164C182.47 154.203 181.406 154.896 181.494 155.687L183.524 175.44L149.338 174.268C147.963 174.219 146.773 174.834 146.704 175.625C146.636 176.426 147.699 177.109 149.075 177.158L183.826 178.349L185.884 198.434C185.963 199.235 187.163 199.85 188.538 199.801C189.914 199.752 190.977 199.069 190.889 198.278L188.86 178.525Z" fill="#C7C7C7"/>
    </g>
    <path d="M188.39 200.055C186.926 200.055 185.726 199.372 185.639 198.463L183.6 178.594L149.054 177.412C148.088 177.383 147.229 177.051 146.78 176.533C146.537 176.25 146.419 175.938 146.449 175.616C146.537 174.678 147.805 173.975 149.337 174.034L183.248 175.196L181.248 155.716C181.219 155.394 181.327 155.082 181.57 154.799C182.019 154.281 182.868 153.949 183.844 153.92C185.375 153.881 186.653 154.574 186.751 155.511L188.79 175.381L223.326 176.563C224.292 176.592 225.151 176.924 225.599 177.441C225.843 177.725 225.96 178.037 225.931 178.359C225.843 179.297 224.585 180.009 223.043 179.941L189.131 178.779L191.131 198.258C191.161 198.581 191.053 198.903 190.809 199.176C190.361 199.694 189.512 200.026 188.536 200.055C188.487 200.055 188.439 200.055 188.39 200.055ZM149.171 174.512C148 174.512 146.985 175.02 146.927 175.655C146.907 175.84 146.976 176.026 147.132 176.201C147.493 176.611 148.234 176.895 149.063 176.924L183.814 178.115C183.931 178.115 184.039 178.213 184.048 178.33L186.107 198.415C186.175 199.079 187.278 199.625 188.507 199.567C189.326 199.538 190.068 199.274 190.429 198.864C190.585 198.688 190.653 198.503 190.634 198.317L188.605 178.564C188.595 178.496 188.624 178.428 188.673 178.369C188.722 178.32 188.78 178.281 188.858 178.291L223.043 179.463C224.253 179.511 225.365 178.984 225.434 178.32C225.453 178.135 225.385 177.949 225.229 177.773C224.868 177.363 224.126 177.08 223.297 177.051L188.546 175.86C188.429 175.86 188.322 175.762 188.312 175.645L186.253 155.56C186.185 154.896 185.092 154.388 183.853 154.408C183.034 154.437 182.292 154.701 181.931 155.121C181.775 155.297 181.707 155.482 181.727 155.668L183.756 175.42C183.766 175.489 183.736 175.557 183.687 175.616C183.639 175.664 183.561 175.694 183.502 175.694L149.317 174.522C149.268 174.512 149.219 174.512 149.171 174.512Z" fill="#CECECE"/>
    <g opacity="0.3">
        <path d="M268.587 207.485C275.611 204.947 284.792 206.001 290.84 209.487C298.284 213.783 298.323 220.735 290.928 225.012C283.533 229.289 271.504 229.259 264.07 224.963C259.787 222.483 257.933 219.085 258.031 216.156L268.587 207.485Z" fill="#C7C7C7"/>
    </g>
    <g opacity="0.3">
        <path d="M148.323 249.901L148.069 278.988L155.845 283.821L160.674 257.058L148.323 249.901Z" fill="#C7C7C7"/>
    </g>
    <g opacity="0.3">
        <path d="M123.27 208.823C132.568 214.75 144.304 219.359 157.543 222.073L156.197 227.814L132.743 219.935L121.768 216.244L123.27 208.823Z" fill="#C7C7C7"/>
    </g>
    <g opacity="0.3">
        <path d="M214.615 221.458C226.781 218.753 237.591 214.408 246.313 208.94L249.883 218.46L216.03 227.814L214.615 221.458Z" fill="#C7C7C7"/>
    </g>
    <g opacity="0.3">
        <path d="M94.2354 220.462L108.089 223.323L111.504 256.667L108.06 251.258L94.2354 220.462Z" fill="#C7C7C7"/>
    </g>
    <g opacity="0.3">
        <path d="M134.122 238.428C132.2 238.799 130.219 239.512 128.697 240.39C126.053 241.913 124.6 243.632 124.59 246.122C124.58 248.133 126.092 249.959 128.756 251.492C134.073 254.568 142.678 254.587 147.965 251.531C148.121 251.433 148.278 251.336 148.424 251.238L148.443 250.047L134.122 238.428Z" fill="#C7C7C7"/>
    </g>
    <path d="M296.684 217.23C296.684 217.22 296.674 217.22 296.674 217.21C296.635 214.203 294.616 211.391 290.957 209.282C284.996 205.835 276.284 204.917 269.133 206.948L273.074 192.839C273.074 192.82 273.074 192.8 273.074 192.79C273.074 192.781 273.074 192.771 273.074 192.761C273.074 192.751 273.074 192.742 273.074 192.732L269.231 172.237C269.231 172.237 269.231 172.237 269.231 172.227C268.948 170.226 268.45 168.263 267.748 166.31L267.66 166.086C267.338 165.207 266.977 164.348 266.577 163.479L222.47 57.3628C233.738 63.9145 254.509 75.9829 254.616 76.0415C255.904 76.7836 257.592 77.1546 259.279 77.1546C260.987 77.1546 262.694 76.7738 264.001 76.022C265.348 75.2408 266.031 74.2449 266.031 73.0634V65.9845C266.031 65.9747 266.031 65.6916 266.031 65.6916C265.972 64.7249 265.289 63.7973 264.04 62.9381C263.777 62.7526 233.416 45.2554 228.928 42.6679C230.704 39.8168 231.602 36.829 231.592 33.7728V26.3814H231.582C231.582 26.3228 231.592 26.2643 231.592 26.2057C231.592 19.1853 226.87 12.5946 218.285 7.63441C200.743 -2.5007 172.295 -2.54951 154.861 7.51724C146.402 12.3993 141.749 18.9217 141.749 25.8737C141.749 25.9713 141.758 26.0592 141.758 26.1569H141.749L141.768 32.7867C141.505 38.5768 144.588 44.2594 150.402 48.8974L103.173 163.752L103.193 163.762C102.149 166.164 101.398 168.615 100.998 171.104L96.9685 186.815C96.9587 186.854 96.9587 186.883 96.9685 186.922L100.305 205.513L94.0124 220.374C94.0124 220.384 94.0124 220.393 94.0124 220.403C94.0124 220.413 94.0027 220.413 94.0027 220.423C93.9929 220.452 94.0124 220.472 94.0222 220.501C94.0222 220.52 94.0124 220.55 94.0222 220.569L107.866 251.385L111.407 257.048L116.842 264.498C116.851 264.517 116.871 264.527 116.881 264.547L126.841 272.69C126.861 272.709 126.89 272.729 126.919 272.739L147.973 279.212L155.739 284.046L186.402 299.043C186.421 299.053 186.451 299.053 186.47 299.063C186.48 299.063 186.48 299.072 186.48 299.072L196.48 300C196.49 300 196.499 300 196.499 300C196.558 300 196.617 299.98 196.665 299.932L200.538 296.309L217.368 281.751L239.28 270.005L247.143 274.428C247.153 274.438 247.172 274.438 247.182 274.438C247.192 274.438 247.192 274.447 247.201 274.447C247.221 274.447 247.241 274.457 247.26 274.457C247.299 274.457 247.338 274.447 247.377 274.428L256.089 269.487C256.158 269.448 256.206 269.37 256.216 269.292L256.489 264.644C256.489 264.605 256.489 264.566 256.47 264.537L255.484 262.135L262.636 253.962C262.694 253.933 262.733 253.884 262.753 253.826L262.928 253.63L271.221 239.336C271.25 239.287 271.26 239.238 271.25 239.189L270.86 235.186C272.918 236.036 275.133 236.504 277.445 236.504C287.991 236.504 296.577 227.961 296.674 217.425C296.674 217.386 296.684 217.357 296.684 217.318C296.684 217.308 296.684 217.298 296.684 217.289C296.684 217.259 296.684 217.24 296.684 217.23ZM268.567 207.153L258.167 215.707L258.255 208.061L272.343 193.62L268.567 207.153ZM203.27 254.119L164.841 263.131L161.085 257.126L163.085 233.165L178.022 233.731L205.553 234.776L203.27 254.119ZM203.348 274.672L197.124 276.176L176.168 281.243L165.114 263.56L203.251 254.617L203.348 274.672ZM249.562 218.284L216.216 227.492L214.899 221.604C226.967 218.821 237.592 214.603 246.177 209.321L249.562 218.284ZM246.597 209.057C249.319 207.358 251.826 205.552 254.109 203.648L257.777 208.042L257.689 216.039L250.04 218.148L246.597 209.057ZM215.758 227.697L206.08 234.093L206.431 223.284C209.153 222.835 211.816 222.317 214.411 221.731L215.758 227.697ZM215.933 228.156L230.392 256.677L203.768 254.089L206.051 234.688L215.933 228.156ZM205.582 234.298L178.031 233.253L162.939 232.677L156.47 227.707L157.729 222.346C164.236 223.664 171.007 224.514 177.895 224.856C177.953 224.856 181.3 224.963 185.456 224.963C189.085 224.963 193.329 224.885 196.538 224.573C199.748 224.26 202.88 223.84 205.953 223.352L205.582 234.298ZM156.022 227.482L122.051 216.068L123.417 209.321C132.549 215.023 144.051 219.515 157.251 222.249L156.022 227.482ZM121.602 215.863L112.588 210.991L108.607 196.569C112.276 201.129 117.134 205.337 122.988 209.048L121.602 215.863ZM112.139 211.215C112.159 211.284 112.198 211.332 112.256 211.362L121.476 216.341L118.451 225.803L108.315 223.118L106.91 209.926L108.09 196.55L112.139 211.215ZM121.934 216.546L156.09 228.029L162.607 233.028L160.636 256.696L148.529 249.735C148.519 249.725 148.519 249.705 148.51 249.695L134.393 238.447L127.319 232.716L118.9 226.018L121.934 216.546ZM230.567 257.185L230.538 270.22L220.519 271.089L203.826 274.555L203.729 254.578L230.567 257.185ZM216.382 227.961L257.718 216.546L260.655 236.602L247.972 252.254L230.938 256.687L216.382 227.961ZM269.289 175.674C269.289 175.557 269.289 175.352 269.289 175.118L272.587 192.683L258.04 207.593L254.489 203.336C263.865 195.407 269.289 185.868 269.289 175.674ZM265.543 73.0634C265.543 74.0789 264.957 74.9089 263.757 75.6021C261.299 77.0277 257.309 77.0277 254.86 75.6216C254.714 75.5338 218.46 54.4629 215.787 52.9104V46.349C220.275 48.9267 254.499 68.5524 254.616 68.6208C255.904 69.3629 257.592 69.7339 259.279 69.7339C260.987 69.7339 262.694 69.3531 264.001 68.6013C264.684 68.2107 265.201 67.7616 265.543 67.2831V73.0634ZM263.757 63.3384C264.918 64.1391 265.523 65.0081 265.533 65.838V65.9454C265.494 66.7461 264.879 67.5175 263.748 68.1716C261.289 69.5972 257.299 69.5972 254.85 68.1912C254.782 68.1521 220.343 48.3994 215.963 45.89C216.821 45.4702 217.66 45.0308 218.47 44.5621C220.636 43.3123 222.548 41.9551 224.197 40.5003L228.431 42.9511C228.792 43.1463 263.299 63.0455 263.757 63.3384ZM231.094 33.7631C231.104 36.7313 230.226 39.641 228.499 42.414L224.587 40.1488C227.953 37.0926 230.177 33.6752 231.094 30.0625V33.7631ZM155.095 7.9371C163.709 2.95742 175.036 0.477348 186.382 0.477348C197.826 0.477348 209.299 3.00624 218.031 8.05427C226.45 12.9265 231.094 19.3708 231.094 26.2057C231.094 32.9819 226.528 39.3481 218.226 44.1423C200.929 54.1407 172.695 54.0821 155.29 44.0251C146.871 39.1528 142.227 32.7085 142.227 25.8737C142.227 19.0974 146.802 12.7313 155.095 7.9371ZM142.246 32.5133L142.236 29.7793C143.651 35.3155 148.08 40.4124 155.046 44.445C163.856 49.532 175.407 52.0805 186.939 52.0805C197.026 52.0805 207.094 50.1277 215.29 46.222V52.8909C213.026 54.375 210.763 55.2147 210.743 55.2245C193.319 61.6493 170.002 60.1358 155.29 51.6313C146.549 46.5833 141.963 40.0121 142.246 32.5133ZM150.792 49.2098C152.09 50.2155 153.505 51.1626 155.046 52.0609C163.729 57.0797 175.368 59.6769 187.056 59.6769C195.338 59.6769 203.631 58.3685 210.909 55.6932C210.929 55.6834 213.221 54.8339 215.524 53.3303C216.119 53.672 218.48 55.0487 221.768 56.9625L264.382 159.456C260.157 152.748 253.416 146.587 244.558 141.471C211.563 122.401 158.031 122.304 125.241 141.256C116.393 146.362 109.7 152.553 105.544 159.3L150.792 49.2098ZM101.486 171.183C103.271 160.052 111.788 149.575 125.485 141.666C158.149 122.792 211.455 122.89 244.314 141.881C254.831 147.954 262.323 155.492 266.138 163.664L267.221 166.262C267.953 168.253 268.479 170.284 268.762 172.335C268.879 173.936 268.801 175.137 268.801 175.674C268.801 199.674 238.392 220.042 196.49 224.094C189.651 224.758 178.031 224.377 177.914 224.377C170.978 224.035 164.148 223.176 157.592 221.829C123.827 214.906 101.134 196.442 101.134 175.879C101.134 173.721 101.476 171.388 101.486 171.183ZM97.4563 186.883L100.715 174.2C100.676 174.991 100.656 175.674 100.656 175.879C100.656 182.743 103.154 189.363 107.71 195.417L106.461 209.497L100.783 205.396L97.4563 186.883ZM100.656 205.913L106.432 210.073L107.817 223.01L94.5783 220.276L100.656 205.913ZM108.285 251.15L94.6563 220.794L107.866 223.518L111.242 255.876L108.285 251.15ZM147.836 278.656L127.115 272.28L117.212 264.185L111.837 256.813L108.373 223.645L118.5 226.33L127.017 233.097L133.515 238.359C132.041 238.672 130.09 239.219 128.432 240.175C125.807 241.689 124.363 243.73 124.363 245.907C124.363 245.917 124.363 245.927 124.363 245.936C124.363 245.936 124.363 245.936 124.363 245.946C124.207 249.461 125.495 252.84 127.993 255.447C130.637 258.21 134.354 259.792 138.188 259.792C141.651 259.792 145.202 258.132 148.012 255.251L147.836 278.656ZM148.022 254.558C145.241 257.575 141.661 259.303 138.178 259.303C134.471 259.303 130.88 257.77 128.334 255.105C126.5 253.181 125.339 250.828 124.968 248.319C125.632 249.588 126.822 250.74 128.48 251.697C131.183 253.259 134.724 254.041 138.266 254.041C141.778 254.041 145.28 253.269 147.934 251.736C147.983 251.707 148.022 251.678 148.071 251.648L148.022 254.558ZM148.08 251.072C147.953 251.15 147.827 251.238 147.69 251.316C142.48 254.333 133.973 254.314 128.724 251.277C126.217 249.832 124.841 247.918 124.841 245.907C124.841 243.915 126.198 242.031 128.666 240.605C130.412 239.59 132.529 239.043 133.993 238.76L134.08 238.838L148.09 250.008L148.08 251.072ZM155.67 283.421L148.324 278.851L148.5 255.124L148.588 250.34L160.509 257.185L155.67 283.421ZM156.119 283.684L160.9 257.751L175.846 281.653L185.875 298.233L156.119 283.684ZM200.168 295.997L196.431 299.492L186.665 298.584L176.441 281.683L196.577 276.82L203.309 275.189L200.168 295.997ZM217.104 281.341L200.734 295.499L203.807 275.072L220.597 271.577L230.811 270.688C230.831 270.688 230.841 270.669 230.85 270.669C230.86 270.669 230.87 270.678 230.88 270.678C230.889 270.678 230.889 270.678 230.899 270.678L238.119 270.054L217.104 281.341ZM239.084 269.487L231.036 270.181L231.065 257.155L247.523 252.879L240.402 262.584C240.382 262.613 240.363 262.652 240.363 262.682L239.084 269.487ZM247.104 273.832L239.563 269.585L240.763 263.17L248.265 269.146L247.104 273.832ZM255.738 269.106L247.64 273.705L248.753 269.204L255.972 265.045L255.738 269.106ZM255.933 264.508L248.558 268.755L240.928 262.682L248.119 252.879C249.162 254.294 254.04 260.914 254.977 262.194L255.933 264.508ZM255.211 261.686C253.943 259.958 249.182 253.503 248.421 252.478L260.723 237.295L262.275 253.621L255.211 261.686ZM262.714 253.006L261.162 236.641C261.162 236.641 261.162 236.641 261.162 236.631C261.162 236.631 261.162 236.631 261.162 236.621L258.938 221.448C261.075 227.795 265.192 232.628 270.362 234.952C270.362 234.962 270.353 234.971 270.353 234.981L270.762 239.121L262.714 253.006ZM277.445 235.996C270.528 235.996 262.45 231.232 259.221 220.872C260.138 222.356 261.582 223.811 263.933 225.178C267.699 227.355 272.635 228.439 277.562 228.439C282.45 228.439 287.328 227.365 291.035 225.227C293.347 223.889 294.986 222.268 295.884 220.491C294.343 229.289 286.674 235.996 277.445 235.996ZM296.186 217.396C296.138 220.188 294.235 222.815 290.791 224.797C283.474 229.025 271.533 229.005 264.177 224.748C260.323 222.522 258.997 220.032 258.421 217.581C258.343 217.162 258.255 216.752 258.187 216.322L268.899 207.505C275.992 205.376 284.752 206.255 290.713 209.702C294.235 211.743 296.186 214.428 296.196 217.269C296.196 217.318 296.186 217.357 296.186 217.396Z" fill="#CECECE"/>
    <g opacity="0.3">
        <path d="M203.592 254.324L230.811 256.97L230.782 270.444L220.567 271.333L203.719 274.838L203.592 254.324Z" fill="#C7C7C7"/>
    </g>
    <g opacity="0.3">
        <path d="M248.12 252.469L240.588 262.731L248.539 269.048L256.237 264.605L255.193 262.076L248.12 252.469Z" fill="#C7C7C7"/>
    </g>
    <g opacity="0.3">
        <path d="M203.594 274.838L176.053 281.497L186.511 298.789L196.511 299.717L200.394 296.085L203.594 274.838Z" fill="#C7C7C7"/>
    </g>
</svg>
