<svg width="390" height="300" viewBox="0 0 390 300" fill="none" xmlns="http://www.w3.org/2000/svg">
    <g clip-path="url(#clip0_42275_124212)">
        <g opacity="0.3">
            <path d="M57.1328 23.8003L79.935 10.6247L185.074 0.133057L215.528 17.7227L154.996 52.658L165.909 58.9575L141.976 72.7763L131.063 66.4769L114.183 76.2366L86.1458 60.0443L103.026 50.2846L57.1328 23.8003ZM158.478 20.7172L109.503 26.4177L129.044 37.7079L158.478 20.7172Z" fill="#C5C5C5"/>
        </g>
        <path d="M215.656 17.7227C215.656 17.6784 215.634 17.634 215.589 17.6118L185.135 0.0221808C185.112 -3.38788e-07 185.09 0 185.046 0L79.9073 10.4917C79.8851 10.4917 79.8629 10.4917 79.8629 10.5139L57.0607 23.6895C57.0607 23.6895 56.9941 23.7338 56.9941 23.8004V55.6303C56.9941 55.6303 56.9941 55.6303 56.9941 55.6525C56.9941 55.6747 56.9941 55.6747 57.0163 55.6969C57.0163 55.719 57.0385 55.7191 57.0385 55.7412C57.0385 55.7412 57.0385 55.7412 57.0385 55.7634L85.9849 72.4436V91.8743C85.9849 91.8743 85.9849 91.8743 85.9849 91.8965C85.9849 91.9187 85.9849 91.9187 86.0071 91.9409C86.0071 91.963 86.0293 91.963 86.0293 91.9852C86.0293 91.9852 86.0293 91.9852 86.0293 92.0074L114.066 108.2C114.088 108.222 114.111 108.222 114.133 108.222C114.155 108.222 114.177 108.222 114.199 108.2L131.013 98.4843L141.859 104.739C141.904 104.762 141.948 104.762 141.992 104.739L165.926 90.9205C165.926 90.9205 165.926 90.9205 165.926 90.8984C165.948 90.8984 165.948 90.8762 165.948 90.854C165.948 90.8318 165.97 90.8318 165.97 90.8096C165.97 90.8096 165.97 90.8096 165.97 90.7874V78.2773L215.523 49.6636C215.523 49.6636 215.523 49.6636 215.523 49.6414C215.545 49.6414 215.545 49.6192 215.545 49.597C215.545 49.5749 215.567 49.5749 215.567 49.5527C215.567 49.5527 215.567 49.5527 215.567 49.5305V17.7449C215.656 17.7449 215.634 17.7449 215.656 17.7227C215.656 17.7227 215.634 17.7227 215.656 17.7227ZM85.9849 60.0444V72.1331L57.2603 55.5416V24.0222L102.754 50.2847L86.0736 59.9113C86.0293 59.9335 85.9849 59.9556 85.9849 60.0444ZM114.022 107.823L86.2511 91.7856V60.2662L114.022 76.3032V107.823ZM141.815 104.384L131.101 98.1959C131.057 98.1738 131.013 98.1738 130.968 98.1959L114.288 107.823V76.3032L131.035 66.6322L141.815 72.8429V104.384ZM141.97 72.6211L131.124 66.366C131.079 66.3438 131.035 66.3438 130.99 66.366L114.177 76.0813L86.4063 60.0444L103.087 50.4178C103.131 50.3956 103.153 50.3512 103.153 50.3069C103.153 50.2625 103.131 50.2181 103.087 50.1959L57.3934 23.8226L79.9738 10.78L185.046 0.288354L215.257 17.7227L154.924 52.5471C154.88 52.5693 154.857 52.6137 154.857 52.658C154.857 52.7024 154.88 52.7468 154.924 52.769L165.637 58.9575L141.97 72.6211ZM165.748 90.7209L142.103 104.384V72.8651L165.77 59.2015V90.7209H165.748ZM215.368 49.464L166.014 77.9667V58.9575C166.014 58.9131 165.992 58.891 165.948 58.8466L155.234 52.658L215.345 17.9445V49.464H215.368Z" fill="#C7C7C7"/>
        <path d="M158.608 20.673C158.586 20.6064 158.541 20.5842 158.475 20.5842L109.499 26.2848C109.432 26.2848 109.388 26.3291 109.388 26.3957C109.366 26.4622 109.41 26.5066 109.454 26.5288L128.996 37.819C129.018 37.8412 129.04 37.8412 129.062 37.8412C129.085 37.8412 129.107 37.8412 129.129 37.819L158.541 20.8282C158.608 20.806 158.63 20.7395 158.608 20.673ZM129.062 37.5528L109.942 26.5066L157.854 20.9391L129.062 37.5528Z" fill="#C7C7C7"/>
        <g opacity="0.3">
            <path d="M227.616 263.667V237.338L271.091 141.05L301.546 123.46V193.353L312.459 187.054V214.691L301.546 220.991V240.488L273.509 256.68V237.183L227.616 263.667ZM275.638 174.344L256.097 219.593L275.638 208.303V174.344Z" fill="#C5C5C5"/>
        </g>
        <path d="M275.664 174.211C275.597 174.188 275.53 174.233 275.508 174.299L255.967 219.549C255.945 219.593 255.967 219.66 256.011 219.704C256.033 219.726 256.078 219.749 256.1 219.749C256.122 219.749 256.144 219.749 256.166 219.726L275.708 208.436C275.752 208.414 275.774 208.37 275.774 208.325V174.344C275.774 174.277 275.73 174.233 275.664 174.211ZM275.508 208.236L256.388 219.283L275.508 175.009V208.236Z" fill="#C7C7C7"/>
        <path d="M312.55 186.898L301.681 180.621V123.46C301.681 123.46 301.681 123.371 301.615 123.349L273.844 107.29H273.822C273.8 107.29 273.8 107.29 273.777 107.29C273.755 107.29 273.755 107.29 273.733 107.29H273.711L243.256 124.88C243.234 124.902 243.212 124.924 243.19 124.946L199.715 221.235C199.715 221.257 199.692 221.279 199.692 221.301V247.63C199.692 247.63 199.692 247.697 199.759 247.741L227.53 263.8C227.552 263.822 227.574 263.822 227.596 263.822C227.618 263.822 227.641 263.822 227.663 263.8L256.631 247.076C256.631 247.076 273.4 256.791 273.423 256.813C273.467 256.835 273.511 256.835 273.556 256.813L301.593 240.621C301.637 240.599 301.659 240.554 301.659 240.51V221.057L312.506 214.802C312.55 214.78 312.572 214.736 312.572 214.691V187.076C312.639 187.009 312.617 186.943 312.55 186.898ZM312.24 187.031L301.703 193.131V180.954L312.24 187.031ZM271.093 140.894L243.611 124.991L273.8 107.556L301.282 123.46L271.093 140.894ZM243.411 125.168L270.938 141.094L227.641 237.005L200.114 221.079L243.411 125.168ZM199.981 221.346L227.508 237.249L227.485 237.272C227.485 237.294 227.463 237.316 227.463 237.316V263.423L199.981 247.541V221.346ZM273.378 256.414L256.92 246.898L273.378 237.405V256.414ZM312.328 214.602L301.482 220.858C301.437 220.88 301.415 220.924 301.415 220.968V240.399L273.644 256.436V237.161C273.644 237.116 273.622 237.072 273.578 237.05C273.533 237.028 273.489 237.028 273.445 237.05L256.631 246.765C256.587 246.765 256.543 246.787 256.52 246.832L227.752 263.445V237.382L271.182 141.183C271.204 141.161 271.227 141.116 271.227 141.116L301.393 123.704V193.353C301.393 193.397 301.415 193.442 301.459 193.464C301.504 193.486 301.548 193.486 301.593 193.464L312.306 187.275V214.602H312.328Z" fill="#C7C7C7"/>
        <g opacity="0.3">
            <path d="M114.161 108.067L131.041 98.3073L141.954 104.607L143.795 103.542C148.786 109.087 152.889 115.409 156.105 122.463C162.76 137.036 166.087 153.649 166.087 172.281C166.087 191.135 162.782 204.023 156.172 210.921C149.562 217.842 139.137 217.176 124.874 208.947C110.612 200.718 100.209 189.339 93.6434 174.832C87.0777 160.304 83.7949 143.623 83.7949 124.769C83.7949 111.305 85.5251 100.88 88.9853 93.5383L114.161 108.067ZM135.943 132.511C134.146 126.322 130.464 121.62 124.897 118.403C119.329 115.187 115.647 115.631 113.85 119.734C112.054 123.838 111.166 130.78 111.166 140.518C111.166 150.5 112.032 158.551 113.784 164.695C115.536 170.862 119.24 175.564 124.897 178.825C130.553 182.085 134.257 181.664 136.009 177.516C137.762 173.368 138.627 166.315 138.627 156.355C138.627 146.64 137.739 138.677 135.943 132.511Z" fill="#C5C5C5"/>
            <path d="M144.77 215.756C139.247 215.756 132.571 213.516 124.83 209.058C110.612 200.851 100.075 189.339 93.532 174.877C86.9886 160.414 83.6836 143.557 83.6836 124.769C83.6836 111.35 85.4359 100.814 88.874 93.4939L88.9405 93.3608L89.0736 93.4274L114.183 107.912L131.063 98.152L141.976 104.451L143.861 103.365L143.928 103.453C148.896 108.999 153.044 115.365 156.26 122.396C162.892 136.925 166.264 153.694 166.264 172.259C166.264 191.069 162.915 204.089 156.305 211.01C153.266 214.182 149.406 215.756 144.77 215.756ZM89.0514 93.7157C85.6577 101.013 83.9498 111.438 83.9498 124.747C83.9498 143.49 87.2548 160.326 93.776 174.743C100.297 189.161 110.789 200.629 124.963 208.814C139.092 216.976 149.562 217.642 156.105 210.81C162.648 203.956 165.976 190.98 165.976 172.259C165.976 153.738 162.626 136.991 155.994 122.507C152.8 115.542 148.697 109.198 143.772 103.697L141.953 104.74L131.04 98.4403L114.16 108.2L114.094 108.156L89.0514 93.7157ZM131.262 181.154C129.488 181.154 127.336 180.422 124.83 178.98C119.151 175.697 115.403 170.928 113.65 164.762C111.898 158.618 111.033 150.477 111.033 140.54C111.033 130.803 111.942 123.793 113.739 119.69C114.493 117.982 115.58 116.873 116.977 116.407C118.974 115.742 121.658 116.385 124.963 118.292C130.53 121.509 134.279 126.278 136.075 132.466C137.872 138.633 138.782 146.684 138.782 156.4C138.782 166.337 137.894 173.479 136.142 177.605C135.41 179.313 134.345 180.422 132.948 180.888C132.438 181.087 131.861 181.154 131.262 181.154ZM118.641 116.429C118.064 116.429 117.532 116.518 117.044 116.673C115.713 117.117 114.671 118.159 113.961 119.801C112.186 123.882 111.277 130.847 111.277 140.54C111.277 150.455 112.164 158.573 113.894 164.695C115.624 170.795 119.351 175.52 124.941 178.758C128.246 180.666 130.907 181.309 132.837 180.666C134.146 180.222 135.166 179.18 135.854 177.538C137.584 173.435 138.471 166.337 138.471 156.422C138.471 146.729 137.562 138.699 135.787 132.555C134.013 126.433 130.308 121.708 124.807 118.536C122.412 117.117 120.327 116.429 118.641 116.429Z" fill="#C7C7C7"/>
        </g>
        <path d="M124.828 178.979C127.334 180.421 129.508 181.153 131.26 181.153C131.859 181.153 132.436 181.065 132.946 180.887C134.344 180.421 135.408 179.312 136.14 177.604C137.893 173.479 138.78 166.336 138.78 156.399C138.78 146.684 137.87 138.632 136.074 132.466C134.277 126.277 130.528 121.508 124.961 118.292C121.656 116.384 118.972 115.763 116.976 116.406C115.578 116.872 114.469 117.981 113.737 119.689C111.941 123.793 111.031 130.802 111.031 140.54C111.031 150.477 111.918 158.639 113.649 164.761C115.401 170.928 119.15 175.697 124.828 178.979ZM113.959 119.8C114.669 118.159 115.711 117.094 117.042 116.673C117.53 116.517 118.063 116.429 118.639 116.429C120.325 116.429 122.41 117.138 124.828 118.536C130.351 121.73 134.033 126.432 135.808 132.554C137.582 138.699 138.492 146.728 138.492 156.421C138.492 166.336 137.604 173.434 135.874 177.538C135.187 179.179 134.166 180.244 132.858 180.665C130.928 181.309 128.266 180.665 124.961 178.758C119.349 175.519 115.623 170.795 113.915 164.695C112.185 158.595 111.297 150.455 111.297 140.54C111.297 130.846 112.185 123.859 113.959 119.8Z" fill="#C7C7C7"/>
        <path d="M189.176 122.75C187.645 117.05 185.671 111.527 183.32 106.358C179.083 97.1089 173.25 89.0128 165.996 82.3585C165.952 82.3141 165.863 82.3141 165.797 82.3585C165.752 82.4028 165.752 82.4916 165.797 82.5581C173.05 89.2124 178.862 97.242 183.076 106.469C185.427 111.638 187.401 117.139 188.932 122.817C191.66 133.065 193.057 144.31 193.057 156.222C193.057 174.943 189.73 187.919 183.187 194.773C182.033 195.97 180.902 196.702 179.372 197.7L155.394 211.919C155.704 211.63 156.037 211.342 156.325 211.031C162.935 204.133 166.285 191.09 166.285 172.281C166.285 153.715 162.913 136.924 156.281 122.418C153.065 115.386 148.917 108.998 143.948 103.475C143.904 103.408 143.815 103.408 143.749 103.475C143.704 103.519 143.682 103.608 143.749 103.675C148.695 109.198 152.843 115.541 156.037 122.551C162.647 137.035 166.019 153.782 166.019 172.303C166.019 191.024 162.691 204 156.148 210.854C149.627 217.686 139.135 216.998 125.006 208.858C110.832 200.673 100.34 189.227 93.819 174.787C87.2977 160.37 83.9927 143.534 83.9927 124.791C83.9927 111.394 85.7229 100.924 89.1609 93.6265C89.1831 93.5599 89.1609 93.4712 89.0944 93.449C89.0279 93.4269 88.9391 93.449 88.917 93.5156C85.4789 100.835 83.7266 111.371 83.7266 124.791C83.7266 143.578 87.0537 160.436 93.575 174.898C100.118 189.383 110.654 200.872 124.873 209.079C132.614 213.56 139.268 215.778 144.813 215.778C148.207 215.778 151.179 214.935 153.708 213.249C153.708 213.249 153.708 213.249 153.73 213.249L179.483 197.989L179.571 197.944C181.146 196.946 182.277 196.214 183.453 194.994C190.063 188.096 193.412 175.053 193.412 156.244C193.324 144.266 191.926 133.02 189.176 122.75Z" fill="#C7C7C7"/>
        <path d="M41.5601 63.8151C41.5601 63.7929 41.5601 63.7263 41.4935 63.7041L33.3974 59.0017C33.3531 58.9796 33.3087 58.9796 33.2643 59.0017L24.7911 63.9038L16.3623 59.0017C16.3179 58.9796 16.2736 58.9796 16.2292 59.0017L8.06654 63.7041C8.04436 63.7263 8 63.7485 8 63.8151L8.04436 82.7134C8.04436 82.7578 8.06654 82.8021 8.11091 82.8243L24.7024 92.4731C24.7246 92.4953 24.7468 92.4953 24.769 92.4953C24.7911 92.4953 24.8133 92.4953 24.8355 92.4731L41.5379 82.8243C41.5823 82.8021 41.6044 82.7578 41.6044 82.7134L41.5601 63.8151ZM8.31054 82.6468L8.26617 64.059L24.5915 73.5526L24.6137 78.4102L24.658 92.1404L8.31054 82.6468ZM24.7246 73.3086L8.39926 63.8151L16.2958 59.2679L24.7246 64.17C24.7689 64.1921 24.8133 64.1921 24.8577 64.17L33.3309 59.2679L41.1608 63.8151L24.7246 73.3086ZM24.902 92.1404L24.8577 78.1219L24.8355 73.5526L41.2717 64.059L41.3161 82.6468L24.902 92.1404Z" fill="#C7C7C7"/>
        <g opacity="0.3">
            <path d="M8.13477 63.8147L24.7263 73.4635L41.4287 63.8147L33.3326 59.1123L24.7928 64.0587L16.2974 59.1123L8.13477 63.8147Z" fill="#C7C7C7"/>
        </g>
        <path d="M343.955 49.8412C343.955 49.7746 343.91 49.7303 343.888 49.7303L335.792 45.0279C335.748 45.0057 335.703 45.0057 335.659 45.0279L327.186 49.9299L318.757 45.0279C318.712 45.0057 318.668 45.0057 318.624 45.0279L310.461 49.7303C310.417 49.7525 310.395 49.7968 310.395 49.8412L310.439 68.7395C310.439 68.7839 310.461 68.8282 310.505 68.8504L327.097 78.4992C327.119 78.5214 327.141 78.5214 327.163 78.5214C327.186 78.5214 327.208 78.5214 327.23 78.4992L343.932 68.8504C343.977 68.8282 343.999 68.7839 343.999 68.7395L343.955 49.8412ZM318.69 45.294L327.119 50.1961C327.163 50.2183 327.208 50.2183 327.252 50.1961L335.725 45.294L343.555 49.8412L327.119 59.3347L310.794 49.8412L318.69 45.294ZM310.661 50.0852L326.986 59.5787L327.03 78.1665L310.705 68.673L310.661 50.0852ZM327.297 78.1665L327.252 59.5787L343.688 50.0852L343.733 68.673L327.297 78.1665Z" fill="#C7C7C7"/>
        <g opacity="0.3">
            <path d="M310.525 49.8411L327.117 59.4899L343.819 49.8411L335.723 45.1387L327.161 50.0629L318.688 45.1387L310.525 49.8411Z" fill="#C7C7C7"/>
        </g>
        <g opacity="0.3">
            <path d="M180.052 180.512C180.473 179.793 180.411 178.974 179.914 178.684C179.417 178.393 178.673 178.741 178.252 179.46C177.832 180.179 177.894 180.998 178.391 181.288C178.888 181.579 179.632 181.231 180.052 180.512Z" fill="#C5C5C5"/>
        </g>
        <g opacity="0.3">
            <path d="M176.513 182.609C176.934 181.89 176.872 181.071 176.375 180.781C175.878 180.49 175.134 180.838 174.713 181.557C174.293 182.276 174.355 183.094 174.852 183.385C175.349 183.676 176.093 183.328 176.513 182.609Z" fill="#C5C5C5"/>
        </g>
        <path d="M210.114 198.233L180.192 180.532C180.391 180.178 180.502 179.778 180.48 179.401C180.458 179.002 180.281 178.714 179.992 178.536C179.704 178.381 179.349 178.381 178.994 178.536C178.306 178.869 177.774 179.756 177.841 180.51C177.863 180.91 178.04 181.198 178.329 181.375C178.462 181.464 178.617 181.486 178.794 181.486C178.972 181.486 179.149 181.442 179.327 181.353C179.615 181.22 179.859 180.998 180.037 180.732L210.003 198.433C210.025 198.477 210.181 198.277 210.114 198.233ZM179.194 181.154C178.927 181.287 178.661 181.287 178.462 181.176C178.262 181.065 178.129 180.821 178.107 180.532C178.062 179.867 178.506 179.091 179.105 178.802C179.26 178.736 179.393 178.691 179.526 178.691C179.637 178.691 179.748 178.714 179.837 178.78C180.037 178.891 180.17 179.135 180.192 179.423C180.214 179.756 180.125 180.089 179.948 180.399L179.216 179.956C179.149 179.911 179.061 179.934 179.038 180C178.994 180.067 179.016 180.155 179.083 180.178L179.815 180.599C179.637 180.843 179.438 181.043 179.194 181.154Z" fill="#C7C7C7"/>
        <path d="M176.641 182.64C176.84 182.285 176.929 181.886 176.907 181.531C176.885 181.131 176.707 180.843 176.419 180.666C176.131 180.51 175.776 180.51 175.421 180.688C174.733 181.02 174.201 181.908 174.267 182.662C174.29 183.061 174.467 183.349 174.755 183.527C174.888 183.616 175.044 183.638 175.221 183.638C175.399 183.638 175.576 183.593 175.753 183.505C176.042 183.372 176.286 183.128 176.485 182.862L208.537 201.649C208.559 201.671 208.582 201.671 208.604 201.671C208.648 201.671 208.692 201.649 208.715 201.605C208.759 201.538 208.737 201.449 208.67 201.427L176.641 182.64ZM175.665 183.261C175.399 183.394 175.132 183.394 174.933 183.283C174.733 183.172 174.6 182.928 174.578 182.64C174.534 181.974 174.977 181.198 175.576 180.91C175.731 180.843 175.864 180.799 175.997 180.799C176.108 180.799 176.219 180.821 176.308 180.887C176.508 180.998 176.641 181.242 176.663 181.531C176.685 181.841 176.596 182.174 176.441 182.484L175.82 182.107C175.753 182.063 175.665 182.085 175.643 182.152C175.598 182.218 175.62 182.307 175.687 182.329L176.308 182.684C176.108 182.95 175.887 183.15 175.665 183.261Z" fill="#C7C7C7"/>
        <path d="M255.631 118.003C255.609 118.003 255.587 118.003 255.565 117.981L196.385 84.7761C194.167 83.4674 191.439 83.4896 189.265 84.8426L175.202 92.8278C175.136 92.8722 175.047 92.85 175.025 92.7835C174.981 92.7169 175.003 92.6282 175.069 92.606L189.11 84.6208C191.373 83.2234 194.212 83.179 196.496 84.5543L255.654 117.759C255.72 117.804 255.742 117.87 255.698 117.937C255.72 117.959 255.676 118.003 255.631 118.003Z" fill="#C7C7C7"/>
        <path d="M252.127 120.044C252.105 120.044 252.082 120.044 252.06 120.022L195.432 88.0147C193.946 87.1275 192.082 87.1275 190.596 87.9925L177.221 95.6672C177.155 95.7116 177.066 95.6894 177.044 95.6228C176.999 95.5563 177.021 95.4676 177.088 95.4454L190.463 87.7707C192.038 86.8391 193.99 86.8613 195.565 87.7929L252.193 119.8C252.26 119.845 252.282 119.911 252.238 119.978C252.215 120.022 252.171 120.044 252.127 120.044Z" fill="#C7C7C7"/>
        <g opacity="0.3">
            <path d="M134.141 259.409L125.535 264.399L134.164 269.412L125.535 274.847L134.186 279.838L151.775 269.634L134.141 259.409Z" fill="#C5C5C5"/>
        </g>
        <path d="M151.91 269.634C151.91 269.612 151.888 269.568 151.844 269.523L134.21 259.298C134.165 259.275 134.121 259.275 134.077 259.298L125.492 264.288C125.492 264.288 125.426 264.333 125.426 264.399L125.359 294.721C125.359 294.765 125.382 294.81 125.426 294.832L134.077 299.978C134.099 300 134.121 300 134.143 300C134.165 300 134.187 300 134.21 299.978L151.799 289.752C151.844 289.73 151.866 289.686 151.866 289.641L151.91 269.634ZM125.67 264.621L133.899 269.412L125.67 274.603V264.621ZM134.143 259.564L151.511 269.634L134.187 279.704L125.803 274.869L134.232 269.545C134.276 269.523 134.298 269.479 134.298 269.434C134.298 269.39 134.276 269.346 134.232 269.324L125.803 264.421L134.143 259.564ZM125.67 275.091L134.054 279.926L134.032 284.939L133.988 299.623L125.603 294.632L125.67 275.091ZM151.577 289.575L134.254 299.645L134.298 285.139L134.321 279.926L151.644 269.856L151.577 289.575Z" fill="#C7C7C7"/>
        <g opacity="0.3">
            <path d="M360.924 212.229L360.481 223.497L359.948 237.094C359.948 240.111 362.499 242.573 365.671 242.573C368.821 242.573 371.394 240.111 371.394 237.094L370.773 220.059L369.464 188.296C369.464 185.279 368.311 182.817 365.671 182.817C363.031 182.817 361.878 185.279 361.878 188.296L361.146 206.728L360.924 212.229Z" fill="#C7C7C7"/>
        </g>
        <g opacity="0.3">
            <path d="M382.551 204.909C382.551 203.401 381.264 202.181 379.711 202.181C378.137 202.181 376.872 203.401 376.872 204.909L376.717 224.318L370.772 221.656L371.039 228.421C372.015 229.176 372.813 229.819 373.944 230.684C378.336 234.033 382.795 232.17 382.772 226.514L382.551 204.909Z" fill="#CCCCCC"/>
        </g>
        <g opacity="0.3">
            <path d="M355.979 203.357C354.892 202.647 353.939 202.181 353.85 200.54L353.162 187.608C353.162 186.344 352.075 185.301 350.744 185.301C349.414 185.301 348.327 186.344 348.327 187.608L347.927 198.898C347.683 205.42 350.212 206.595 352.763 207.771L360.903 211.431L361.103 206.728L355.979 203.357Z" fill="#C7C7C7"/>
        </g>
        <g opacity="0.3">
            <path d="M357.907 219.394L357.019 215.157C357.019 215.157 356.864 213.538 355.134 213.538C354.247 213.538 353.515 214.226 353.337 215.024V215.069L352.739 220.703C352.428 223.586 354.446 225.516 357.374 223.985C358.306 223.542 359.726 222.544 360.546 221.789L360.679 217.841L357.907 219.394Z" fill="#C7C7C7"/>
        </g>
        <path d="M382.685 204.865C382.685 203.29 381.332 202.004 379.69 202.004C378.049 202.004 376.696 203.29 376.696 204.865L376.541 224.141L370.884 221.568L369.576 188.296C369.576 184.791 368.112 182.684 365.65 182.684C363.187 182.684 361.724 184.769 361.724 188.274L361.014 206.44L356.023 203.157C355.934 203.091 355.823 203.024 355.735 202.958C354.781 202.337 354.049 201.871 353.96 200.451L353.295 187.564C353.295 186.233 352.163 185.124 350.766 185.124C349.369 185.124 348.237 186.211 348.237 187.542L347.838 198.788C347.594 205.375 350.211 206.573 352.74 207.749L360.836 211.475L360.592 217.708L358.041 219.106L357.132 215.002C356.999 214.048 356.156 213.338 355.158 213.338C354.226 213.338 353.406 213.982 353.206 214.869L352.607 220.614C352.43 222.167 352.918 223.497 353.894 224.163C354.337 224.473 354.87 224.629 355.446 224.629C356.067 224.629 356.755 224.451 357.465 224.074C358.463 223.586 359.55 222.832 360.415 222.056L359.816 237.05C359.816 240.133 362.433 242.662 365.65 242.662C368.866 242.662 371.483 240.155 371.483 237.05L371.15 228.688C371.993 229.353 372.947 230.085 373.834 230.773C375.321 231.904 376.829 232.481 378.226 232.481C378.936 232.481 379.602 232.325 380.2 232.037C381.908 231.172 382.884 229.176 382.884 226.536L382.685 204.865ZM352.829 207.571C350.278 206.396 347.838 205.287 348.082 198.876L348.481 187.63C348.481 186.433 349.502 185.457 350.744 185.457C351.986 185.457 353.006 186.433 353.006 187.63L353.672 200.518C353.76 202.07 354.603 202.603 355.557 203.224C355.646 203.29 355.757 203.357 355.845 203.423L360.969 206.795L360.792 211.253L352.829 207.571ZM357.354 223.874C356.089 224.54 354.914 224.584 354.049 223.985C353.139 223.364 352.718 222.144 352.873 220.68L353.472 215.002V214.958C353.65 214.203 354.359 213.649 355.158 213.649C356.023 213.649 356.755 214.27 356.866 215.091V215.113L357.797 219.372C357.797 219.416 357.842 219.438 357.864 219.46C357.886 219.483 357.953 219.483 357.975 219.46L360.526 218.063L360.393 221.723C359.55 222.566 358.396 223.364 357.354 223.874ZM365.672 242.418C362.589 242.418 360.104 240.022 360.104 237.072L361.302 206.595L362.012 188.296C362.012 184.947 363.387 182.95 365.672 182.95C367.956 182.95 369.332 184.947 369.332 188.296L371.239 237.072C371.239 240.022 368.733 242.418 365.672 242.418ZM380.09 231.815C378.404 232.658 376.119 232.192 374.012 230.573C373.058 229.841 372.038 229.043 371.15 228.355L370.907 221.878L376.629 224.473C376.674 224.496 376.718 224.496 376.762 224.473C376.807 224.451 376.829 224.407 376.829 224.362L376.984 204.887C376.984 203.446 378.204 202.27 379.712 202.27C381.221 202.27 382.441 203.446 382.441 204.887L382.64 226.558C382.64 229.065 381.731 230.995 380.09 231.815Z" fill="#C7C7C7"/>
        <g opacity="0.3">
            <path d="M38.9191 227.623C38.6751 227.446 38.4311 227.246 38.1649 227.024C34.3498 223.63 32.0873 216.777 33.152 211.719C34.1945 206.684 38.1427 205.353 41.9579 208.769C42.2019 208.991 42.4459 209.235 42.6899 209.479C46.5938 213.472 49.566 220.592 51.1187 224.451C51.4958 225.383 52.3165 228.621 52.3165 228.821C52.3165 229.508 51.8285 229.664 51.3183 229.841C49.7657 230.307 43.9764 231.527 38.9191 227.623Z" fill="#CECECE"/>
        </g>
        <g opacity="0.3">
            <path d="M50.4326 217.864C50.4326 209.834 56.111 206.596 63.0981 210.633C70.1073 214.669 75.7635 224.451 75.7635 232.481C75.7635 232.991 75.7413 233.501 75.6969 233.989C75.3199 238.958 72.3476 244.37 71.3716 245.812C70.5066 247.098 69.1091 248.629 69.1091 248.629C67.4899 250.359 65.1609 252.178 63.342 251.047C62.4104 250.47 61.8116 249.605 60.8356 248.207C59.8596 246.81 51.2311 230.307 50.477 219.461C50.4548 218.906 50.4326 218.374 50.4326 217.864C50.4326 213.849 51.8522 211.054 54.1369 209.745C54.1369 209.745 54.1147 209.745 54.1147 209.767" fill="#CECECE"/>
        </g>
        <g opacity="0.3">
            <path d="M79.7096 243.194C82.0165 243.105 85.8094 242.218 88.5599 240.222C88.8261 240.044 89.0922 239.845 89.3806 239.601C93.5507 236.096 96.168 228.887 95.2143 223.497C94.2605 218.107 90.1126 216.554 85.9425 220.059C85.6764 220.281 85.4102 220.525 85.144 220.791C79.8205 225.915 75.0294 237.582 74.7189 238.691C74.4083 239.8 74.2309 240.488 74.3418 241.22C74.5414 242.639 76.5155 243.083 78.1126 243.172C78.4453 243.216 79.0664 243.216 79.7096 243.194Z" fill="#CECECE"/>
        </g>
        <path d="M95.3488 223.498C94.883 220.836 93.6187 218.995 91.822 218.329C90.0253 217.686 87.9181 218.263 85.8775 219.949C85.8553 219.949 85.8553 219.971 85.8553 219.971C85.6113 220.17 85.3673 220.392 85.0568 220.703C80.8645 224.74 77.0937 232.658 75.4523 236.518C75.6298 235.697 75.785 234.854 75.8294 234.034C75.8738 233.546 75.8959 233.035 75.8959 232.525C75.8959 224.474 70.1732 214.603 63.164 210.544C59.7259 208.548 56.4653 208.237 54.0253 209.657C51.6076 211.054 50.2767 213.982 50.2767 217.886C50.2767 217.886 50.2767 217.886 50.2767 217.908C50.2767 218.44 50.2989 218.973 50.3433 219.505C50.432 220.88 50.6538 222.366 50.9643 223.875C49.1233 219.305 46.3285 213.095 42.7351 209.435C42.5133 209.191 42.2693 208.947 42.0031 208.725C40.1178 207.039 38.1658 206.44 36.4579 206.995C34.7277 207.572 33.5078 209.257 32.9754 211.742C31.9107 216.821 34.1954 223.742 38.0327 227.157C38.2767 227.379 38.4985 227.557 38.7869 227.779C41.6704 229.997 44.7758 230.551 47.1935 230.551C49.3673 230.551 50.9643 230.085 51.3192 229.997C51.7407 229.864 52.2287 229.686 52.3617 229.176C55.2453 238.403 60.1695 247.564 60.7019 248.318C61.6556 249.694 62.2767 250.603 63.2527 251.202C63.6741 251.468 64.0956 251.579 64.5392 251.579C66.2693 251.579 68.1104 249.915 69.1751 248.762C69.1972 248.74 70.5946 247.209 71.4375 245.945C71.9921 245.102 73.1455 243.084 74.1436 240.599C74.1215 240.843 74.1214 241.087 74.1658 241.331C74.3876 242.95 76.7166 243.328 78.0697 243.394C78.2471 243.416 78.5133 243.416 78.846 243.416C79.09 243.416 79.3784 243.416 79.6889 243.394C82.2176 243.283 85.944 242.329 88.6279 240.4C88.9163 240.2 89.1825 240 89.4486 239.779C93.6852 236.185 96.3026 228.91 95.3488 223.498ZM51.2527 229.708C50.5651 229.93 44.3765 231.66 38.9865 227.535C38.7203 227.335 38.4763 227.135 38.2545 226.936C34.4616 223.564 32.2434 216.755 33.286 211.764C33.7739 209.368 34.9495 207.749 36.5688 207.217C36.9458 207.084 37.3451 207.017 37.7665 207.017C39.0752 207.017 40.4948 207.66 41.8701 208.88C42.1141 209.102 42.358 209.346 42.5799 209.568C46.2841 213.339 49.1455 219.882 50.9643 224.496C51.3414 225.427 52.1399 228.621 52.1621 228.821C52.1621 229.376 51.8294 229.509 51.2527 229.708ZM71.2601 245.745C70.4172 247.01 69.042 248.518 69.0198 248.54C67.7333 249.938 65.2712 252.089 63.4301 250.936C62.5207 250.381 61.8996 249.472 60.968 248.141C60.236 247.098 51.3858 230.573 50.6316 219.461C50.5873 218.928 50.5651 218.396 50.5651 217.886C50.5651 214.115 51.8294 211.298 54.1141 209.923C54.1362 209.923 54.1584 209.901 54.1806 209.901C54.2028 209.901 54.225 209.878 54.225 209.878C56.5762 208.548 59.7037 208.88 63.0309 210.788C69.9736 214.803 75.6298 224.562 75.6298 232.525C75.6298 233.035 75.6076 233.546 75.5632 234.011C75.1861 238.869 72.2582 244.237 71.2601 245.745ZM89.3155 239.512C89.0494 239.734 88.7832 239.934 88.517 240.111C85.8996 241.997 82.2176 242.95 79.7333 243.061C79.0235 243.084 78.4468 243.084 78.1362 243.061C76.8719 242.995 74.6982 242.662 74.4985 241.243C74.4098 240.533 74.5873 239.823 74.8756 238.758C75.0974 237.915 79.8442 226.137 85.2786 220.902C85.5891 220.614 85.8109 220.392 86.0327 220.215C86.0549 220.215 86.0549 220.193 86.0549 220.193C88.029 218.551 90.0475 217.975 91.7555 218.596C93.4634 219.217 94.6612 220.991 95.127 223.542C96.0364 228.888 93.4412 236.052 89.3155 239.512Z" fill="#C7C7C7"/>
    </g>
    <defs>
        <clipPath id="clip0_42275_124212">
            <rect width="390" height="300" fill="white"/>
        </clipPath>
    </defs>
</svg>
