<svg width="390" height="300" viewBox="0 0 390 300" fill="none" xmlns="http://www.w3.org/2000/svg">
    <g opacity="0.3">
        <path d="M157.031 130.026C156.88 131.204 155.47 132.293 152.876 131.94C150.434 131.6 149.483 130.297 149.641 129.12L147.488 146.053C147.337 147.23 148.86 148.401 150.9 148.672C152.939 148.942 154.714 148.2 154.872 147.023L157.031 130.026Z" fill="#C9C9C9"/>
    </g>
    <g opacity="0.3">
        <path d="M205.496 131.197C205.949 132.016 207.592 132.859 209.67 132.494C212.823 131.946 212.937 130.222 212.786 129.044L215.064 146.525C215.215 147.702 213.692 148.873 211.652 149.144C209.613 149.408 207.838 148.672 207.68 147.495L205.943 134.137L205.496 131.197Z" fill="#C9C9C9"/>
    </g>
    <g opacity="0.3">
        <path d="M185.067 148.659V165.278C185.067 166.467 183.399 167.43 181.347 167.43C179.289 167.43 177.627 166.467 177.627 165.278L177.64 148.508C177.64 149.698 178.559 150.812 181.347 150.812C183.664 150.812 185.067 149.849 185.067 148.659Z" fill="#C9C9C9"/>
    </g>
    <g opacity="0.3">
        <path d="M274.419 183.596L258.291 200.107L258.19 209.279L258.637 212.162L259.084 208.391L270.056 199.484L274.419 183.596Z" fill="#C9C9C9"/>
    </g>
    <g opacity="0.3">
        <path d="M124.556 156.767L174.883 185.824C178.559 187.945 184.986 187.681 189.235 185.226L238.203 156.956L238.889 156.528V166.448C238.832 167.965 237.699 169.545 235.54 170.792L188.864 197.74C184.816 200.075 178.691 200.334 175.185 198.307L126.161 170.005C124.524 169.061 123.75 167.783 123.8 166.448V156.333L124.556 156.767Z" fill="#C9C9C9"/>
    </g>
    <g opacity="0.3">
        <path d="M191.049 79.9825L183.842 75.8216C182.828 75.2361 182.954 74.2101 184.125 73.5365L199.226 65.0322C199.661 64.7804 200.316 64.7552 200.693 64.9692L207.901 69.1301C208.914 69.7156 208.788 70.7416 207.618 71.4152L192.516 79.9195C192.076 80.1713 191.421 80.1965 191.049 79.9825Z" fill="#C9C9C9"/>
    </g>
    <g opacity="0.3">
        <path d="M171.283 13.2444V12.0169C171.283 11.8092 171.383 11.5951 171.591 11.4755L181.367 5.86052C181.562 5.74722 181.795 5.74722 181.99 5.86052L182.11 5.92347L182.129 5.92977C182.135 5.21215 182.135 4.48825 182.141 3.78322L182.116 3.76434L181.808 3.58808C181.524 3.42442 181.178 3.42442 180.901 3.58808L166.31 12.0232C165.705 12.3757 165.705 13.2444 166.31 13.5969L180.901 22.0383C181.184 22.202 181.531 22.202 181.808 22.0383L183.614 20.9933L171.767 14.069C171.465 13.9116 171.283 13.5906 171.283 13.2444Z" fill="#C9C9C9"/>
        <path d="M196.386 12.0357L184.18 4.9729C184.18 5.53314 184.174 6.54661 184.174 7.09427L196.04 13.8109L196.386 13.6094C196.99 13.2569 196.99 12.3882 196.386 12.0357Z" fill="#C9C9C9"/>
    </g>
    <g opacity="0.3">
        <path d="M183.136 9.63116C183.13 9.63116 183.13 9.63116 183.136 9.63116C182.563 9.62487 182.11 9.16535 182.116 8.6051C182.129 6.49633 182.141 3.2293 182.16 1.12053C182.167 0.560285 182.62 0.107056 183.18 0.107056H183.186C183.753 0.113351 184.206 0.572874 184.2 1.13312C184.187 3.24189 184.168 6.50262 184.156 8.6114C184.156 9.17794 183.696 9.63116 183.136 9.63116Z" fill="#C9C9C9"/>
    </g>
    <g opacity="0.3">
        <path d="M97.4686 192.855C97.3364 192.755 87.0254 197.476 87.0254 197.476L93.6728 202.266L97.4686 192.855Z" fill="#C9C9C9"/>
    </g>
    <g opacity="0.3">
        <path d="M269.785 199.591C277.566 197.236 287.411 197.973 293.983 201.769C302.078 206.44 302.116 213.993 294.077 218.639C286.032 223.285 272.952 223.259 264.863 218.589C260.198 215.894 258.209 212.25 258.902 208.756L269.785 199.591Z" fill="#C9C9C9"/>
    </g>
    <g opacity="0.3">
        <path d="M106.473 246.557L106.75 246.821C106.649 246.569 106.561 246.324 106.479 246.072L106.473 246.557Z" fill="#C9C9C9"/>
        <path d="M106.34 264.988L113.843 269.168L114.404 256.276C110.973 254.01 108.203 250.522 106.749 246.821L106.472 246.557L106.34 264.988Z" fill="#C9C9C9"/>
        <path d="M106.667 219.835L106.541 236.932C109.852 230.58 118.74 229.516 118.929 229.668L106.667 219.835Z" fill="#C9C9C9"/>
    </g>
    <g opacity="0.3">
        <path d="M138.984 245.688L138.72 277.294L147.167 282.551L146.84 254.683L143.007 248.886L138.984 245.688Z" fill="#C9C9C9"/>
    </g>
    <path opacity="0.3" d="M171.289 283.596C171.289 283.596 153.115 253.959 152.593 253.601C152.064 253.242 143.006 248.886 143.006 248.886L171.289 291.728L176.576 299.736L180.517 298.842L171.289 283.596Z" fill="#C9C9C9"/>
    <g opacity="0.3">
        <path d="M199.093 272.813L203.713 271.856V295.392L195.618 295.908L199.093 272.813Z" fill="#C9C9C9"/>
    </g>
    <g opacity="0.3">
        <path d="M111.746 201.039C121.856 207.478 134.622 212.483 149.018 215.435L147.552 221.673L122.045 213.106L110.104 209.096L111.746 201.039Z" fill="#C9C9C9"/>
    </g>
    <g opacity="0.3">
        <path d="M211.124 214.73C224.356 211.784 236.121 207.308 245.607 201.366L249.447 211.513L212.628 221.673L211.124 214.73Z" fill="#C9C9C9"/>
    </g>
    <g opacity="0.3">
        <path d="M245.607 201.366C248.717 199.415 251.581 197.337 254.175 195.134L258.292 200.107L258.191 209.096L249.447 211.507L245.607 201.366Z" fill="#C9C9C9"/>
    </g>
    <g opacity="0.3">
        <path d="M80.1592 213.698L95.2291 216.807L98.9304 252.958L95.1976 247.161L80.1592 213.698Z" fill="#C9C9C9"/>
    </g>
    <g opacity="0.3">
        <path d="M118.778 229.542C116.083 230.064 113.339 230.926 111.192 232.167C103.771 236.453 103.808 243.422 111.274 247.734C118.746 252.046 130.813 252.071 138.235 247.784C138.462 247.652 138.669 247.513 138.877 247.381L138.909 245.707L118.778 229.542Z" fill="#C9C9C9"/>
    </g>
    <path d="M300.233 210.179C300.195 206.949 298.011 203.922 294.064 201.643C287.694 197.96 278.157 197.054 270.182 199.326L274.569 183.64C274.575 183.614 274.575 183.589 274.569 183.57L270.44 161.356C270.471 160.777 270.496 160.191 270.496 159.612C270.496 145.386 260.884 131.997 243.422 121.919C228.163 113.106 208.026 107.642 186.63 106.528L186.592 106.842C207.938 107.957 228.05 113.402 243.265 122.189C260.62 132.211 270.182 145.499 270.182 159.606C270.182 173.587 260.765 186.724 243.674 196.594C225.992 206.805 202.751 211.904 179.448 211.904C155.962 211.904 132.412 206.717 114.478 196.362C97.1236 186.34 87.5617 173.052 87.5617 158.939C87.5617 144.958 96.9788 131.82 114.069 121.95C125.406 115.403 139.57 110.701 155.011 108.353C155.099 108.341 155.156 108.259 155.143 108.177C155.131 108.089 155.055 108.032 154.967 108.045C139.482 110.399 125.287 115.114 113.912 121.679C96.7207 131.606 87.2469 144.838 87.2469 158.939C87.2469 159.663 87.2784 160.38 87.3288 161.091C87.2847 161.11 87.2469 161.142 87.2344 161.192L83.2371 177.156L81.248 185.824C81.2417 185.862 81.2417 185.893 81.2605 185.925L86.8567 197.476L80.0142 213.635C79.9953 213.672 79.9953 213.723 80.0142 213.76L95.0652 247.236L106.207 265.064C106.22 265.089 106.239 265.108 106.264 265.12L115.737 270.395L138.644 277.433L147.079 282.677L176.489 299.861C176.514 299.874 176.539 299.88 176.571 299.88C176.583 299.88 176.59 299.88 176.602 299.88L180.864 299.024L191.376 300C191.383 300 191.389 300 191.389 300C191.427 300 191.465 299.987 191.496 299.956L195.676 296.053L209.814 295.147C209.883 295.14 209.94 295.096 209.959 295.033L214.094 280.146L237.883 267.399L241.351 271.063C241.37 271.088 241.402 271.1 241.433 271.107L246.551 272.233C246.589 272.24 246.626 272.233 246.664 272.214L256.132 266.845C256.176 266.82 256.207 266.769 256.213 266.719L256.503 261.671C256.503 261.645 256.503 261.62 256.49 261.601L255.395 258.932L272.989 238.852C273.014 238.82 273.033 238.776 273.027 238.732L272.171 229.68C274.424 230.524 276.86 230.989 279.404 230.989C290.816 230.989 300.114 221.755 300.214 210.361C300.214 210.324 300.221 210.286 300.221 210.248C300.24 210.248 300.24 210.235 300.24 210.229C300.24 210.216 300.24 210.198 300.24 210.185C300.24 210.179 300.233 210.179 300.233 210.179ZM269.861 199.314C269.854 199.32 269.703 199.459 269.684 199.471L258.794 208.63C258.769 208.655 258.75 208.687 258.744 208.718C258.649 209.203 258.605 209.694 258.612 210.172C258.612 210.695 258.637 211.205 258.675 211.715L258.291 209.083L258.391 200.138L274.141 184.011L269.861 199.314ZM243.517 253.267H228.761L212.766 221.73L258.114 209.216L261.35 231.279L243.517 253.267ZM243.617 253.443L249.755 251.385L253.437 255.023C253.525 255.218 254.35 257.119 255.087 258.844C255.087 258.85 255.08 258.863 255.074 258.876L246.947 262.464L241.767 256.188L243.617 253.443ZM198.899 250.403L156.862 260.248L152.682 253.569L154.879 227.32L171.283 227.943L201.41 229.088L198.899 250.403ZM199.006 272.737L192.107 274.405L169.193 279.938L156.975 260.418L198.899 250.598L199.006 272.737ZM138.94 245.619C138.934 245.612 118.828 229.479 118.828 229.479H118.822C118.816 229.472 118.803 229.472 118.797 229.472L116.096 227.2L122.108 213.225L147.514 221.761L154.703 227.276L152.518 253.462L143.063 248.81L139.047 245.619C139.01 245.594 138.972 245.6 138.94 245.619ZM110.739 252.952C107.831 249.912 106.125 246.11 105.823 242.075C106.547 244.265 108.379 246.28 111.167 247.885C114.925 250.05 119.854 251.139 124.783 251.139C129.668 251.139 134.534 250.069 138.242 247.935C138.393 247.847 138.67 247.683 138.77 247.583L138.758 252.102C138.833 251.951 138.544 252.335 138.519 252.367C134.742 256.509 129.693 258.876 124.657 258.876C119.42 258.882 114.346 256.723 110.739 252.952ZM138.758 247.23L138.626 247.325C138.449 247.444 138.267 247.558 138.072 247.671C130.719 251.92 118.715 251.895 111.318 247.62C107.749 245.562 105.785 242.83 105.785 239.941C105.785 237.083 107.724 234.389 111.237 232.355C113.685 230.939 116.625 230.171 118.69 229.768L138.77 245.814L138.758 247.23ZM87.1273 185.893L91.1875 180.599C92.6479 183.388 94.4986 186.088 96.7081 188.682L97.3754 192.805L87.1399 197.331L87.1336 197.312L87.1273 185.893ZM212.521 221.629L201.624 228.824L202.021 216.681C205.099 216.178 208.108 215.586 211.035 214.919C211.029 214.938 211.023 214.95 211.029 214.969L212.521 221.629ZM249.32 211.444L212.697 221.554L211.211 214.925C211.205 214.906 211.193 214.894 211.18 214.881C224.456 211.853 236.126 207.208 245.518 201.404L249.32 211.444ZM245.676 201.309C248.735 199.408 251.555 197.388 254.111 195.254L258.202 200.145L258.102 209.027L249.509 211.4L245.701 201.334C245.695 201.322 245.688 201.322 245.676 201.309ZM228.541 253.254L199.094 250.397L201.612 229.057L212.59 221.812L228.541 253.254ZM201.423 228.9L171.283 227.754L154.816 227.124L147.646 221.629L149.075 215.605C156.194 217.059 163.622 217.984 171.151 218.362C171.22 218.362 174.852 218.482 179.36 218.482C183.306 218.482 187.927 218.394 191.408 218.054C194.958 217.707 198.439 217.26 201.826 216.706L201.423 228.9ZM147.482 221.547L110.217 209.033L111.765 201.385C121.755 207.648 134.383 212.583 148.886 215.567L147.482 221.547ZM121.919 213.162L115.939 227.074L106.78 219.797L110.166 209.216L121.919 213.162ZM110.059 208.876L97.5642 192.818L96.941 188.959C100.806 193.441 105.748 197.589 111.602 201.278L110.059 208.876ZM105.074 202.77L93.8188 202.172L97.5013 193.044L105.074 202.77ZM97.2998 193.038L93.6362 202.115L87.2218 197.495L97.2998 193.038ZM105.225 202.971L110.009 209.115L106.616 219.715L95.3169 216.732L93.781 202.367L105.225 202.971ZM106.767 220.024L115.92 227.294L118.526 229.491C116.442 229.9 113.528 230.681 111.079 232.091C109.09 233.237 107.592 234.603 106.648 236.095L106.767 220.024ZM228.604 253.45L228.579 267.928L217.544 268.884L199.188 272.699L199.081 250.585L228.604 253.45ZM270.446 165.026C270.446 164.887 270.446 164.617 270.452 164.283C270.452 163.937 270.459 163.534 270.459 163.131L274.261 183.583L274.242 183.64L258.297 199.968L254.256 195.134C264.529 186.504 270.446 176.117 270.446 165.026ZM114.321 196.632C132.305 207.012 155.899 212.212 179.448 212.212C202.802 212.212 226.105 207.101 243.831 196.865C259.09 188.059 268.255 176.646 270.131 164.34C270.131 164.642 270.125 164.894 270.125 165.026C270.125 191.168 237.008 213.339 191.376 217.751C183.936 218.469 171.283 218.06 171.157 218.06C163.616 217.682 156.176 216.751 149.043 215.29C134.484 212.306 121.825 207.352 111.828 201.07L111.677 200.976C96.5193 191.395 87.5554 178.736 87.5554 165.252C87.5554 165.108 87.5554 164.837 87.5491 164.503C87.5491 164.132 87.5428 163.698 87.5428 163.269C89.2928 175.859 98.6406 187.58 114.321 196.632ZM83.5393 177.231L87.2344 162.489C87.2344 163.106 87.2407 163.899 87.2407 164.497C87.2407 164.831 87.2469 165.101 87.2469 165.24C87.2469 170.465 88.5815 175.563 91.0868 180.41L87.0518 185.673L83.5267 177.282L83.5393 177.231ZM81.569 185.843L83.4574 177.597L86.9322 185.881V196.922L81.569 185.843ZM87.1211 197.658L93.5859 202.316L95.1218 216.688L80.3541 213.641L87.1211 197.658ZM95.3421 247.092L80.3981 213.842L95.1407 216.883L98.8861 252.763L95.3421 247.092ZM106.251 264.541L99.119 253.128L95.3358 216.927L106.578 219.904L106.459 236.416C105.81 237.542 105.471 238.732 105.471 239.953C105.471 239.972 105.471 239.991 105.471 240.01C105.471 240.01 105.471 240.01 105.471 240.016C105.376 242.219 105.691 244.379 106.383 246.424L106.251 264.541ZM106.459 264.868L106.44 264.843L106.566 246.941C107.416 249.219 108.744 251.334 110.5 253.173C111.665 254.387 112.98 255.439 114.403 256.307L113.761 268.935L106.459 264.868ZM138.626 277.099L115.863 270.112L113.95 269.042L114.592 256.421C117.607 258.221 121.088 259.209 124.657 259.209C129.718 259.209 134.792 256.855 138.613 252.738C138.613 252.738 138.764 252.631 138.764 252.996L138.626 277.099ZM138.814 277.162L138.984 245.808L142.937 248.949L146.746 254.721L147.067 282.299L138.814 277.162ZM147.262 282.418L146.941 255.017L176.181 299.32L147.262 282.418ZM180.373 298.81L176.609 299.566L176.552 299.534L146.928 254.646C146.922 254.627 146.916 254.614 146.903 254.601L143.284 249.119L152.537 253.67L169.074 280.096L180.392 298.791C180.379 298.804 180.373 298.804 180.373 298.81ZM195.544 295.776C195.531 295.782 195.518 295.782 195.512 295.789L191.339 299.685L180.537 298.684L169.294 280.108L191.42 274.764L198.987 272.938L195.544 295.776ZM203.626 295.235L195.745 295.738L199.182 272.894L203.626 271.969V295.235ZM237.851 267.084C237.851 267.084 237.851 267.084 237.845 267.084L237.732 267.147L228.976 267.902C228.925 267.909 228.887 267.953 228.887 268.003C228.894 268.054 228.931 268.091 228.982 268.091H228.988L237.31 267.374L213.893 279.913C213.855 279.932 213.83 279.97 213.818 280.007L209.694 294.851L203.815 295.228V271.938L217.576 269.08L228.686 268.117C228.736 268.11 228.774 268.072 228.774 268.022L228.799 253.462H243.384L239.261 259.574C239.255 259.587 239.249 259.6 239.249 259.612L237.851 267.084ZM238.04 267.109L239.431 259.663L241.66 256.351L246.834 262.615L247.866 269.344L238.084 267.153L238.04 267.109ZM246.582 271.919L246.576 271.925L241.559 270.823L238.317 267.399L247.841 269.533L246.582 271.919ZM255.917 266.625L246.891 271.749L248.062 269.527L256.188 261.96L255.917 266.625ZM256.201 261.689L248.049 269.275L247.029 262.634L255.118 259.058L256.201 261.689ZM255.225 258.674C254.457 256.88 253.607 254.929 253.607 254.929C253.601 254.916 253.595 254.91 253.588 254.897L249.849 251.209C249.824 251.183 249.786 251.177 249.755 251.183L243.838 253.166L261.375 231.543L263.1 249.685L255.225 258.674ZM272.725 238.707L263.276 249.49L261.545 231.298L259.109 214.698C260.141 219.344 262.722 223.41 266.291 226.319L272.718 238.638L272.725 238.707ZM272.649 238.128L266.631 226.589C268.199 227.811 269.942 228.811 271.818 229.548L272.649 238.128ZM279.422 230.681C268.967 230.681 260.324 222.812 259.077 212.69C259.921 214.95 261.866 217.04 264.781 218.727C268.86 221.081 274.21 222.259 279.548 222.259C284.842 222.259 290.13 221.1 294.152 218.777C296.985 217.141 298.892 215.114 299.736 212.892C298.408 222.919 289.809 230.681 279.422 230.681ZM299.918 210.361C299.868 213.433 297.772 216.316 293.995 218.501C286.013 223.108 272.977 223.089 264.938 218.45C261.086 216.222 258.958 213.276 258.92 210.204C258.92 210.198 258.92 210.191 258.92 210.179C258.914 209.732 258.958 209.285 259.04 208.838L269.861 199.736C277.836 197.331 287.492 198.206 293.907 201.907C297.778 204.142 299.912 207.094 299.925 210.223C299.925 210.267 299.925 210.317 299.918 210.361Z" fill="#CECECE"/>
    <path d="M239.318 148.54L213.547 133.659L213.05 129.838C212.924 128.856 211.778 128.132 210.192 128.012L203.444 76.1488C203.438 76.1173 207.712 73.6875 207.712 73.6875C208.379 73.3035 208.757 72.7811 208.757 72.2586V70.0239C208.757 70.0176 208.75 70.0176 208.75 70.0113C208.75 69.9987 208.757 69.9799 208.757 69.9673C208.757 69.8477 208.732 69.7344 208.694 69.621V62.2372C208.694 62.2309 208.688 62.2309 208.688 62.2246C208.688 62.2183 208.688 62.212 208.681 62.2057C208.681 62.1994 208.681 62.1994 208.681 62.1931C208.681 62.1868 208.675 62.1868 208.669 62.1868C208.662 62.1805 208.656 62.1742 208.65 62.1679C208.643 62.1679 208.643 62.1616 208.643 62.1554L201.064 57.7804L196.066 19.1867C196.054 19.0986 195.985 19.1363 195.896 19.1489C195.808 19.1615 195.752 19.2371 195.758 19.3252L200.731 57.5853L198.54 56.213C198.496 56.1878 198.44 56.2004 198.408 56.2445C198.383 56.2886 198.395 56.3452 198.44 56.3767L200.756 57.8245L201.719 65.2209L200.788 64.6796C200.573 64.5537 200.095 64.4781 199.642 64.5537L198.609 56.8047L193.895 20.4583C193.888 20.3953 198.314 17.9088 198.314 17.9088C198.635 17.7263 198.83 17.3801 198.817 17.015L198.83 15.6994C198.836 15.6112 198.824 15.2587 198.471 15.0825L196.28 13.8424L196.45 13.7417C196.784 13.5465 196.985 13.2066 196.985 12.8163C196.985 12.426 196.784 12.0861 196.45 11.891L184.257 4.85962C184.264 3.2985 184.276 1.7122 184.276 1.12678C184.282 0.509882 183.785 0.00629485 183.162 0C182.551 0 182.048 0.497293 182.048 1.10789C182.048 1.53594 182.041 2.48017 182.035 3.55659C181.985 3.51882 181.89 3.45587 181.878 3.44958C181.55 3.26073 181.141 3.26073 180.808 3.44958L166.222 11.8847C165.889 12.0798 165.687 12.4197 165.687 12.81C165.687 13.2003 165.889 13.5402 166.222 13.7354L167.06 14.2201L152.305 127.527C150.737 127.653 149.604 128.371 149.478 129.347L148.937 133.533L124.393 147.702C122.108 149.018 120.799 150.781 120.799 152.524C120.799 153.978 121.712 155.307 123.361 156.257L123.638 156.414V166.423C123.638 166.43 123.632 166.43 123.632 166.436C123.575 167.877 124.444 169.193 126.074 170.131L175.098 198.433C176.703 199.358 178.863 199.817 181.116 199.817C183.835 199.817 186.7 199.156 188.934 197.866L235.611 170.918C237.726 169.697 238.972 168.066 239.035 166.442V166.436V156.61C240.842 155.363 241.868 153.808 241.868 152.272C241.88 150.818 240.968 149.49 239.318 148.54ZM214.901 146.544C214.97 147.054 214.674 147.589 214.076 148.049C213.453 148.527 212.584 148.861 211.621 148.987C209.67 149.238 207.97 148.565 207.825 147.469L205.779 131.688C206.346 132.299 207.416 132.683 208.662 132.683C208.933 132.683 209.21 132.664 209.493 132.626C210.507 132.494 211.432 132.142 212.099 131.632C212.439 131.374 212.691 131.084 212.848 130.788L214.901 146.544ZM215.215 146.506L214.957 144.517L220.113 147.495L211.092 152.707L202.531 147.765L202.512 147.174L207.133 144.505L207.523 147.514C207.668 148.609 209.084 149.358 210.834 149.358C211.105 149.358 211.382 149.339 211.665 149.301C212.678 149.169 213.604 148.817 214.271 148.307C214.964 147.772 215.297 147.136 215.215 146.506ZM220.27 147.765V150.189L211.25 155.401V152.977L220.27 147.765ZM210.935 152.977V155.401L202.632 150.611L202.544 148.137L210.935 152.977ZM183.313 123.719V118.186C185.277 118.645 186.586 119.741 186.586 120.956C186.586 122.17 185.277 123.266 183.313 123.719ZM186.586 121.755V130.996C186.586 132.211 185.277 133.306 183.313 133.766V123.92C184.956 123.543 186.152 122.724 186.586 121.755ZM184.956 147.891C184.969 147.891 185.088 147.847 185.101 147.847C186.599 147.274 187.631 146.399 188.034 145.405V148.376C188.047 149.389 187.361 150.346 186.114 151.07C185.844 151.227 185.548 151.366 185.233 151.492V148.665C185.233 147.841 184.503 147.085 183.319 146.676V140.828C186.102 141.319 188.034 142.805 188.034 144.486C188.034 145.77 186.914 146.96 185.038 147.677C185.025 147.684 184.918 147.721 184.899 147.728C184.849 147.765 184.874 147.797 184.893 147.828C184.893 147.86 184.918 147.891 184.956 147.891ZM188.217 148.37V145.059C190.042 146.116 191.049 147.514 191.049 148.993C191.049 150.46 190.055 151.844 188.248 152.889C187.373 153.393 186.353 153.79 185.227 154.066V151.687C185.573 151.549 185.9 151.397 186.202 151.227C187.512 150.472 188.229 149.459 188.217 148.37ZM181.374 171.088L172.291 165.844L177.465 162.854V165.278C177.465 166.549 179.202 167.588 181.343 167.588C183.483 167.588 185.22 166.549 185.22 165.278V162.892L190.395 165.882L181.374 171.088ZM190.558 166.146V168.57L181.532 173.782V171.358L190.558 166.146ZM181.217 171.358V173.782L172.133 168.538V166.115L181.217 171.358ZM177.66 147.665C175.784 146.953 174.664 145.757 174.664 144.473C174.664 143.095 175.967 141.848 177.975 141.175L179.379 141.987V146.67C178.195 147.079 177.465 147.835 177.465 148.659V151.46C177.163 151.335 176.88 151.202 176.615 151.051C175.545 150.434 174.865 149.616 174.695 148.747L174.664 148.59V145.405C175.06 146.399 176.093 147.274 177.591 147.847C177.604 147.853 177.629 147.86 177.635 147.866C177.711 147.898 177.887 147.942 177.899 147.904C177.912 147.872 177.899 147.784 177.818 147.74C177.767 147.702 177.685 147.671 177.66 147.665ZM154.948 127.66L157.51 107.994C158.008 107.925 158.499 107.869 158.996 107.806L167.84 122.63L157.038 128.868L154.948 127.66ZM156.849 128.975L156.73 129.044C156.642 128.937 156.547 128.837 156.434 128.736L156.849 128.975ZM154.992 127.905C154.967 127.899 154.948 127.886 154.923 127.88V127.867L154.992 127.905ZM179.379 21.3584V26.7091L168.879 20.6471L169.527 15.6553L179.379 21.3584ZM181.349 150.655C179.385 150.655 177.786 149.761 177.786 148.659C177.786 147.992 178.397 147.375 179.385 147.004V147.463C179.385 148.137 180.247 148.665 181.349 148.665C182.451 148.665 183.313 148.137 183.313 147.463V147.004C184.301 147.375 184.912 147.998 184.912 148.659C184.912 149.761 183.313 150.655 181.349 150.655ZM184.912 149.572V165.278C184.912 166.379 183.313 167.273 181.349 167.273C179.385 167.273 177.786 166.379 177.786 165.278V149.572C178.378 150.397 179.756 150.969 181.349 150.969C182.942 150.969 184.314 150.39 184.912 149.572ZM161.18 107.554L178.63 117.626C176.685 117.947 174.884 118.564 173.373 119.432L168.004 122.536L159.204 107.78C159.858 107.705 160.519 107.629 161.18 107.554ZM159.027 107.491L157.957 105.691L160.721 107.283C160.154 107.352 159.588 107.422 159.027 107.491ZM176.256 40.6207C176.64 39.689 177.792 38.9022 179.379 38.5308V44.064C178.491 43.8562 177.742 43.5226 177.182 43.1008L176.256 40.6207ZM176.892 42.8553C176.401 42.3958 176.105 41.8608 176.105 41.3005C176.105 41.162 176.131 41.0298 176.162 40.8976L176.892 42.8553ZM176.162 40.3626L168.904 20.88L179.385 26.9294V38.3419C177.818 38.6944 176.647 39.4435 176.162 40.3626ZM176.105 42.1C176.288 42.5091 176.596 42.8868 177.024 43.2204L178.378 46.8589C176.987 46.3049 176.105 45.3985 176.105 44.4039V42.1ZM177.301 43.4093C177.862 43.7807 178.567 44.0765 179.385 44.2591V47.161C179.114 47.0981 178.863 47.0225 178.617 46.9407L177.301 43.4093ZM179.379 47.3562V48.9991L178.699 47.1736C178.919 47.2429 179.146 47.3058 179.379 47.3562ZM176.105 75.96C176.105 74.745 177.415 73.6497 179.379 73.1902V78.7234C177.415 78.2702 176.105 77.1749 176.105 75.96ZM179.379 78.9248V81.8268C177.415 81.3672 176.105 80.2719 176.105 79.057V76.7594C176.54 77.7351 177.742 78.5534 179.379 78.9248ZM175.917 75.96V79.057C175.917 80.3727 177.308 81.5498 179.379 82.0219V94.7438L163.428 63.2884L179.379 72.4978V73.0014C177.308 73.4735 175.917 74.6506 175.917 75.96ZM176.105 120.956C176.105 119.741 177.415 118.645 179.379 118.186V123.719C177.415 123.259 176.105 122.17 176.105 120.956ZM179.379 123.914V133.759C177.415 133.3 176.105 132.204 176.105 130.99V121.749C176.54 122.731 177.736 123.543 179.379 123.914ZM179.354 117.525L173.241 106.698C174.135 106.666 175.023 106.647 175.917 106.635V106.975C175.917 108.29 177.308 109.467 179.379 109.94V117.519C179.372 117.525 179.366 117.525 179.354 117.525ZM176.105 106.981V104.683C176.54 105.659 177.742 106.471 179.379 106.849V109.751C177.415 109.291 176.105 108.196 176.105 106.981ZM176.105 103.884C176.105 102.669 177.415 101.574 179.379 101.114V106.647C177.415 106.194 176.105 105.099 176.105 103.884ZM175.917 103.884V106.326C174.966 106.339 174.016 106.364 173.065 106.396L160.696 84.4958L179.379 95.2852V100.925C177.308 101.391 175.917 102.568 175.917 103.884ZM179.152 117.556C179.077 117.569 179.001 117.575 178.932 117.588L161.501 107.522C165.303 107.113 169.162 106.843 173.034 106.71L179.152 117.556ZM173.531 119.709C175.105 118.803 177.012 118.173 179.07 117.884L179.297 118.016C177.27 118.501 175.917 119.659 175.917 120.956V130.996C175.917 132.311 177.308 133.489 179.379 133.961V140.633C179.202 140.665 179.026 140.696 178.856 140.734L168.161 122.813L173.531 119.709ZM179.19 141.659L178.22 141.099C178.397 141.042 178.579 140.998 178.768 140.948L179.19 141.659ZM178.963 140.904C179.102 140.872 179.24 140.847 179.385 140.822V141.609L178.963 140.904ZM166.166 42.0811L179.379 49.7104V71.8872L166.166 42.0811ZM176.055 40.6207C175.973 40.841 175.917 41.0676 175.917 41.3005V44.3976C175.917 45.5055 176.911 46.5126 178.466 47.0855L179.36 49.4775L166.128 41.8356L168.816 21.1759L176.055 40.6207ZM179.335 72.2523L163.365 63.0303L166.065 42.314L179.335 72.2523ZM179.309 95.0208L160.601 84.2188L163.302 63.4584L179.309 95.0208ZM172.851 106.402C168.879 106.54 164.932 106.824 161.036 107.258L157.844 105.414L160.551 84.6217L172.851 106.402ZM158.82 107.516C158.398 107.566 157.97 107.617 157.548 107.673L157.794 105.798L158.82 107.516ZM168.004 122.901L178.667 140.778C178.434 140.835 178.214 140.898 177.994 140.967L157.353 129.051L168.004 122.901ZM176.521 151.215C176.81 151.385 177.131 151.53 177.465 151.668V154.041C176.357 153.758 175.35 153.368 174.488 152.864C172.656 151.807 171.642 150.403 171.642 148.924C171.642 147.457 172.637 146.072 174.444 145.027C174.456 145.021 174.462 145.014 174.475 145.008V148.596L174.507 148.773C174.689 149.704 175.407 150.567 176.521 151.215ZM182.998 117.6C182.998 117.607 182.998 117.607 182.998 117.6V147.463C182.998 147.942 182.243 148.351 181.349 148.351C180.455 148.351 179.7 147.942 179.7 147.463V21.5347L180.82 22.1831C180.984 22.2775 181.166 22.3278 181.355 22.3278C181.538 22.3278 181.727 22.2775 181.89 22.1831L182.998 21.5095V117.6ZM186.586 104.683V106.981C186.586 108.196 185.277 109.291 183.313 109.751V106.849C184.956 106.471 186.152 105.659 186.586 104.683ZM183.313 106.647V101.114C185.277 101.574 186.586 102.669 186.586 103.884C186.586 105.099 185.277 106.194 183.313 106.647ZM186.775 106.981V103.884C186.775 102.568 185.384 101.391 183.313 100.919V89.5191L193.907 105.584L194.253 118.236L183.313 111.922V109.946C185.384 109.474 186.775 108.29 186.775 106.981ZM193.901 105.231L183.477 89.4309L193.63 95.2915L193.901 105.231ZM193.643 84.2503L200.347 95.1467L200.485 99.0306L193.939 95.2537L193.643 84.2503ZM193.951 95.474L200.498 99.2509L201.096 116.134L194.228 105.722L193.951 95.474ZM200.687 95.688L203.985 101.045L200.813 99.2131L200.687 95.688ZM200.819 99.4398L204.105 101.335L207.246 125.463L201.43 116.644L200.819 99.4398ZM200.668 95.304L200.057 78.1002L201.002 77.5589L204.023 100.762L200.668 95.304ZM200.334 94.7627L193.63 83.8663L193.574 81.8456L199.749 78.2828L200.334 94.7627ZM193.624 95.0711L183.313 89.1162V82.0219C184.906 81.6631 186.114 80.8699 186.567 79.9131L190.986 82.4625C191.182 82.5759 191.433 82.6325 191.704 82.6325C192.019 82.6325 192.346 82.557 192.61 82.4059L193.271 82.0282L193.624 95.0711ZM183.313 81.8268V78.9248C183.666 78.843 184.005 78.7423 184.326 78.6227L186.404 79.825C185.982 80.7252 184.83 81.4743 183.313 81.8268ZM183.313 78.7297V77.9051C183.439 78.0499 183.59 78.1883 183.785 78.3016L184.112 78.4905C183.854 78.5849 183.59 78.6667 183.313 78.7297ZM183.313 74.103V67.2164L189.098 70.559L184.068 73.4609C183.747 73.6435 183.489 73.8638 183.313 74.103ZM184.226 73.7316L189.413 70.7352L191.647 72.0257V80.0138C191.459 80.0075 191.276 79.9761 191.144 79.9005L183.936 75.7396C183.546 75.513 183.332 75.2109 183.332 74.8835C183.332 74.4807 183.659 74.0589 184.226 73.7316ZM189.287 70.4457L183.313 66.9961V47.3562C183.873 47.2303 184.383 47.0477 184.83 46.8274L195.871 66.6436L189.287 70.4457ZM183.313 47.161V44.2591C184.956 43.8877 186.158 43.0757 186.586 42.1V44.3976C186.586 45.6125 185.277 46.7078 183.313 47.161ZM183.313 44.064V38.5308C185.277 38.9903 186.586 40.0856 186.586 41.3005C186.586 42.5154 185.277 43.6044 183.313 44.064ZM183.313 112.136L194.26 118.457L194.373 122.586L187.883 118.84C186.656 118.129 185.076 117.67 183.313 117.481V112.136ZM194.235 106.087L201.102 116.505L201.31 122.315L194.568 118.425L194.235 106.087ZM201.323 122.536L201.467 126.684L194.688 122.768L194.574 118.639L201.323 122.536ZM201.442 117.009L207.177 125.702L201.637 122.504L201.442 117.009ZM207.315 125.998L207.624 128.358C206.956 128.598 206.403 128.925 206.012 129.309L201.795 126.873L201.65 122.724L207.315 125.998ZM205.798 129.548C205.471 129.951 205.301 130.398 205.364 130.845L207.095 144.165L202.506 146.815L201.814 127.244L205.798 129.548ZM210.268 129.812C210.368 129.668 210.406 129.51 210.375 129.378L210.242 128.339C211.621 128.459 212.641 129.076 212.748 129.882C212.817 130.392 212.521 130.927 211.923 131.386C211.3 131.865 210.431 132.198 209.468 132.324C207.517 132.576 205.817 131.902 205.672 130.807C205.565 130.008 206.384 129.158 207.668 128.686L207.8 129.705C207.85 130.102 208.329 130.373 208.933 130.373C209.021 130.373 209.116 130.366 209.21 130.354C209.67 130.285 210.072 130.083 210.268 129.812ZM210.06 129.428C210.072 129.491 210.054 129.561 210.003 129.63C209.865 129.825 209.531 129.989 209.16 130.033C208.574 130.108 208.134 129.894 208.102 129.655L207.945 128.428C207.945 128.421 207.951 128.415 207.945 128.409C207.945 128.409 207.938 128.409 207.938 128.402L201.291 77.3889L203.135 76.3251L210.06 129.428ZM208.442 72.2586C208.442 72.6678 208.115 73.0895 207.554 73.4106L192.453 82.1289C192.069 82.3492 191.471 82.3807 191.144 82.1919L183.936 78.031C183.54 77.8044 183.326 77.4959 183.332 77.1623L183.344 75.6578C183.464 75.79 183.603 75.9159 183.785 76.0166L190.993 80.1775C191.188 80.2908 191.44 80.3475 191.71 80.3475C192.025 80.3475 192.352 80.2719 192.617 80.1209L207.718 71.4025C208.027 71.2199 208.278 71.0122 208.455 70.7856L208.442 72.2586ZM191.836 80.0201V72.032L202.361 65.9574L207.838 69.1175C208.228 69.3441 208.442 69.6462 208.442 69.9736C208.442 70.3827 208.115 70.8045 207.548 71.1318L192.447 79.8502C192.277 79.9446 192.057 80.0013 191.836 80.0201ZM208.511 69.2874C208.385 69.1238 208.215 68.9664 207.995 68.8405L202.676 65.7686L208.505 62.4009V69.2874H208.511ZM201.102 58.0196L208.411 62.2372L202.487 65.6553L202.065 65.4098L201.102 58.0196ZM200.636 64.9503L202.179 65.8378L191.748 71.862L189.608 70.6282L199.333 65.0132C199.711 64.7929 200.309 64.7677 200.636 64.9503ZM199.321 64.6796C199.27 64.7048 199.214 64.7174 199.17 64.7425L196.035 66.5555L184.994 46.7456C185.604 46.4182 186.083 46.0154 186.385 45.5621L197.684 52.0836L199.321 64.6796ZM186.492 45.4048C186.674 45.0837 186.775 44.7438 186.775 44.3976V41.3005C186.775 39.9849 185.384 38.8078 183.313 38.3356V21.327L183.496 21.2199L197.634 51.8381L186.492 45.4048ZM197.577 51.2716L183.672 21.1507L183.678 21.157L187.801 23.5679C187.845 23.5931 194.461 27.3889 194.461 27.3889L197.577 51.2716ZM194.436 27.1497L188.349 23.6309C188.412 23.6183 188.468 23.5931 188.525 23.5616C188.525 23.5616 193.586 20.6219 193.586 20.6408L194.436 27.1497ZM198.389 15.2461C198.622 15.3531 198.654 15.6805 198.654 15.6994L198.641 17.015C198.647 17.3171 198.49 17.5941 198.232 17.7452L188.431 23.398C188.349 23.442 188.192 23.5176 188.022 23.442L183.666 20.9241L171.819 14.006C171.554 13.8487 171.384 13.5591 171.384 13.2507V12.0295C171.384 12.0232 171.384 12.0232 171.384 12.0169C171.384 11.828 171.485 11.6518 171.649 11.5573L181.425 5.94234C181.588 5.84792 181.79 5.84792 181.953 5.94234L182.035 5.9864C182.035 6.34521 182.029 6.68513 182.029 6.99358L177.534 9.59335C177.402 9.66889 177.32 9.80738 177.32 9.96475V12.3568C177.32 12.5771 177.44 12.7785 177.629 12.8919L182.948 15.9952C183.017 16.033 183.086 16.0519 183.162 16.0519C183.237 16.0519 183.313 16.033 183.376 15.9952L188.695 12.9233C188.884 12.8163 188.997 12.6149 188.991 12.4009V9.92068L198.389 15.2461ZM177.503 10.3236C177.515 10.3299 177.515 10.3424 177.528 10.3487L182.942 13.4773C183.011 13.515 183.08 13.5339 183.156 13.5339C183.231 13.5339 183.307 13.515 183.37 13.4773L188.777 10.3487C188.783 10.3424 188.79 10.3361 188.796 10.3299V12.4134C188.796 12.5582 188.72 12.6967 188.594 12.7723L183.275 15.8441C183.2 15.8882 183.105 15.8882 183.03 15.8441L177.711 12.7408C177.578 12.6652 177.497 12.5205 177.497 12.3694V10.3236H177.503ZM184.27 5.18696L196.306 12.1742C196.538 12.3127 196.683 12.5519 196.683 12.8226C196.683 13.0933 196.545 13.3388 196.306 13.471L195.972 13.6598L184.257 7.03135C184.264 6.48999 184.264 5.84792 184.27 5.18696ZM182.249 1.12048C182.249 0.610601 182.671 0.201435 183.181 0.201435C183.691 0.20773 184.106 0.62319 184.1 1.13307C184.094 2.43611 184.056 8.61136 184.056 8.61136C184.056 9.12124 183.634 9.5367 183.13 9.5367H183.124C182.614 9.5367 182.199 9.11494 182.205 8.60506C182.205 8.60506 182.243 2.42352 182.249 1.12048ZM183.13 9.72554C183.747 9.72554 184.251 9.22825 184.251 8.61765C184.251 8.61765 184.251 8.0637 184.257 7.25796L188.683 9.76331C188.689 9.76331 188.695 9.76961 188.701 9.7759C188.771 9.81367 188.802 9.88292 188.808 9.96475V10.0088C188.802 10.0844 188.764 10.1536 188.695 10.1977L183.288 13.3262C183.212 13.3703 183.118 13.3703 183.042 13.3262L177.629 10.1977C177.553 10.1536 177.509 10.0781 177.509 9.98993C177.509 9.9018 177.553 9.82626 177.629 9.7822L182.029 7.23908C182.023 8.05741 182.023 8.61765 182.023 8.61765C182.016 9.22196 182.514 9.72554 183.13 9.72554ZM166.008 12.8226C166.008 12.5519 166.147 12.3064 166.386 12.1742L180.971 3.73914C181.204 3.60695 181.494 3.60695 181.727 3.73914C181.739 3.74544 181.978 3.89022 182.041 3.92799C182.035 4.53859 182.035 5.17437 182.029 5.77867C181.809 5.65907 181.538 5.65907 181.324 5.78497L171.548 11.4C171.328 11.5259 171.195 11.7525 171.189 12.0106C171.189 12.0169 171.189 12.0169 171.189 12.0232V13.2507C171.189 13.6284 171.391 13.9809 171.718 14.1697L183.326 20.9493L181.727 21.9187C181.494 22.0509 181.211 22.0509 180.978 21.9187L166.392 13.4773C166.153 13.3388 166.008 13.0933 166.008 12.8226ZM167.362 14.4026L169.231 15.4853L157.227 107.724C156.541 107.818 155.855 107.913 155.175 108.02L167.362 14.4026ZM155.137 108.341C155.817 108.24 156.503 108.139 157.189 108.045L154.602 127.924C154.602 127.924 154.596 127.924 154.596 127.93C154.596 127.937 154.596 127.943 154.596 127.949L154.439 129.177C154.426 129.296 154.313 129.403 154.136 129.479C153.929 129.567 153.664 129.592 153.381 129.554C153.104 129.517 152.852 129.422 152.67 129.284C152.519 129.17 152.443 129.032 152.456 128.919L155.137 108.341ZM152.273 127.855L152.141 128.874C152.109 129.107 152.229 129.34 152.475 129.529C152.695 129.699 153.003 129.819 153.337 129.863C153.431 129.875 153.519 129.882 153.614 129.882C153.847 129.882 154.067 129.844 154.256 129.762C154.546 129.642 154.715 129.447 154.747 129.214L154.879 128.195C156.163 128.667 156.975 129.517 156.875 130.316C156.73 131.405 155.024 132.085 153.079 131.833C152.122 131.707 151.247 131.374 150.624 130.895C150.026 130.436 149.736 129.901 149.799 129.391C149.906 128.598 150.913 127.981 152.273 127.855ZM149.686 130.31C149.85 130.606 150.101 130.895 150.435 131.153C151.102 131.663 152.028 132.016 153.041 132.148C153.324 132.186 153.601 132.204 153.872 132.204C155.125 132.204 156.188 131.82 156.755 131.21L154.709 146.991C154.564 148.08 152.865 148.76 150.913 148.508C148.968 148.256 147.495 147.161 147.64 146.066L149.686 130.31ZM165.146 159.851L168.948 162.042L158.782 167.909L148.553 162.004L152.512 159.719L160.771 164.484C160.777 164.491 160.784 164.484 160.79 164.491C160.803 164.497 160.809 164.51 160.821 164.516C161.029 164.636 161.256 164.692 161.508 164.692C161.86 164.692 162.257 164.573 162.66 164.34C164.038 163.54 165.165 161.601 165.165 160.021C165.159 159.958 165.146 159.908 165.146 159.851ZM169.036 162.206V166.952L158.87 172.819V168.073L169.036 162.206ZM158.681 168.073V172.819L148.452 166.914V162.168L158.681 168.073ZM162.559 164.182C161.929 164.547 161.344 164.61 160.91 164.359C160.482 164.113 160.242 163.578 160.242 162.867C160.242 161.343 161.325 159.474 162.653 158.712C163.025 158.498 163.39 158.385 163.711 158.385C163.931 158.385 164.126 158.435 164.303 158.536C164.731 158.781 164.97 159.316 164.97 160.028C164.97 161.551 163.887 163.414 162.559 164.182ZM162.559 158.542C161.18 159.342 160.054 161.28 160.054 162.86C160.054 163.332 160.161 163.723 160.349 164.025L151.738 159.052C151.291 158.813 151.046 158.278 151.046 157.541C151.046 156.018 152.128 154.148 153.457 153.387C154.067 153.034 154.64 152.965 155.068 153.191L163.742 158.202C163.377 158.196 162.974 158.297 162.559 158.542ZM154.992 152.959C154.527 152.789 153.954 152.883 153.356 153.229C152.676 153.62 152.059 154.293 151.606 155.061V152.499L160.626 147.287V149.71L154.98 152.971C154.911 153.009 155.049 152.977 154.992 152.959ZM151.455 152.222L142.371 146.978L147.596 143.963L147.325 146.028C147.162 147.293 148.754 148.546 150.869 148.823C151.153 148.861 151.43 148.88 151.7 148.88C153.457 148.88 154.873 148.13 155.011 147.035L155.395 144.089L160.469 147.016L151.455 152.222ZM151.297 152.493V154.916L142.214 149.673V147.249L151.297 152.493ZM238.733 166.442C238.733 166.448 238.733 166.448 238.733 166.442C238.67 167.959 237.48 169.495 235.46 170.66L188.783 197.608C184.786 199.918 178.718 200.17 175.262 198.174L126.238 169.873C124.714 168.992 123.902 167.783 123.953 166.467C123.953 166.461 123.959 166.461 123.959 166.455V156.61L174.802 185.962C176.489 186.938 178.749 187.41 181.11 187.41C183.961 187.41 186.97 186.718 189.312 185.364L238.28 157.094C238.437 157.006 238.575 156.905 238.727 156.811V166.442H238.733ZM238.129 156.824L189.161 185.094C184.962 187.517 178.598 187.782 174.966 185.692L123.531 155.999C121.982 155.105 121.126 153.871 121.126 152.537C121.126 150.906 122.379 149.245 124.563 147.986L148.899 133.936L147.646 143.573L141.975 146.846C141.968 146.853 141.962 146.859 141.956 146.865C141.95 146.871 141.943 146.878 141.937 146.884C141.912 146.909 141.899 146.947 141.899 146.985V149.773C141.899 149.83 141.931 149.88 141.975 149.912C141.975 149.912 151.448 155.376 151.442 155.382C151.077 156.093 150.85 156.861 150.85 157.56C150.85 158.366 151.134 158.958 151.644 159.235L152.317 159.625L148.314 161.941C148.307 161.941 148.314 161.948 148.307 161.948C148.282 161.967 148.263 161.992 148.263 162.023V166.99C148.263 167.021 148.282 167.053 148.314 167.072L158.732 173.09C158.744 173.096 158.763 173.102 158.782 173.102C158.801 173.102 158.813 173.096 158.832 173.09L169.187 167.109C169.219 167.091 169.238 167.059 169.238 167.028V162.061C169.238 162.029 169.219 162.004 169.194 161.985C169.194 161.985 169.194 161.979 169.187 161.979L165.133 159.637C165.052 159.058 164.812 158.618 164.41 158.385C164.397 158.378 164.391 158.378 164.378 158.372C164.372 158.372 164.372 158.366 164.372 158.36L155.313 153.129C155.332 153.135 155.295 153.173 155.313 153.173C155.339 153.173 155.421 153.135 155.446 153.122L160.884 149.95C160.935 149.924 160.96 149.868 160.96 149.811V147.023C160.96 146.985 160.941 146.953 160.922 146.922C160.916 146.916 160.91 146.909 160.903 146.903C160.897 146.897 160.891 146.89 160.884 146.884L155.465 143.756L157.202 130.373C157.246 130.014 157.152 129.649 156.938 129.309L157.177 129.17L177.774 141.061C175.784 141.773 174.5 143.057 174.488 144.467V144.479V144.8C174.444 144.826 174.399 144.851 174.362 144.87C172.492 145.946 171.466 147.388 171.466 148.93C171.466 150.485 172.511 151.939 174.406 153.034C175.3 153.55 176.338 153.953 177.478 154.243V162.502L171.913 165.718C171.907 165.725 171.9 165.731 171.894 165.737C171.888 165.743 171.882 165.75 171.875 165.756C171.85 165.781 171.837 165.819 171.837 165.857V168.645C171.837 168.702 171.869 168.752 171.913 168.784L181.311 174.21C181.336 174.223 181.362 174.229 181.387 174.229C181.412 174.229 181.443 174.223 181.462 174.21L190.804 168.815C190.854 168.79 190.879 168.733 190.879 168.677V165.888C190.879 165.85 190.861 165.819 190.842 165.787C190.835 165.781 190.829 165.775 190.823 165.769C190.816 165.762 190.81 165.756 190.804 165.75L185.239 162.533V154.268C186.404 153.985 187.455 153.582 188.355 153.059C190.225 151.983 191.251 150.541 191.251 148.999C191.251 147.444 190.206 145.99 188.311 144.895C188.286 144.876 188.254 144.863 188.229 144.845V144.473C188.229 142.698 186.221 141.131 183.326 140.627V133.954C185.403 133.482 186.788 132.305 186.788 130.996V120.956C186.788 119.64 185.397 118.463 183.326 117.991V117.802C185.031 117.984 186.561 118.431 187.738 119.117L194.392 122.957L195.487 163.257C195.487 163.345 195.563 163.408 195.645 163.408C195.645 163.408 195.645 163.408 195.651 163.408C195.739 163.408 195.808 163.332 195.802 163.244L194.713 123.14L201.493 127.055L202.632 159.128C202.632 159.216 202.707 159.279 202.789 159.279H202.796C202.884 159.279 202.953 159.203 202.947 159.115L202.657 150.976L211.023 155.804C211.048 155.816 211.073 155.823 211.098 155.823C211.124 155.823 211.155 155.816 211.174 155.804L220.509 150.415C220.56 150.39 220.585 150.334 220.585 150.277V147.488C220.585 147.451 220.566 147.419 220.547 147.388C220.541 147.381 220.534 147.375 220.528 147.369C220.522 147.362 220.516 147.356 220.509 147.35L214.907 144.114L213.598 134.043L239.161 148.804C240.709 149.698 241.566 150.932 241.566 152.266C241.566 153.903 240.313 155.565 238.129 156.824Z" fill="#C9C9C9"/>
    <path d="M272.62 85.3708C251.626 85.3708 234.555 68.2928 234.555 47.3058C234.555 26.3188 251.633 9.24084 272.62 9.24084C293.607 9.24084 310.685 26.3188 310.685 47.3058C310.685 68.2928 293.607 85.3708 272.62 85.3708ZM272.62 9.54929C251.803 9.54929 234.869 26.4824 234.869 47.2995C234.869 68.1166 251.803 85.0497 272.62 85.0497C293.437 85.0497 310.37 68.1166 310.37 47.2995C310.37 26.4824 293.437 9.54929 272.62 9.54929Z" fill="#CECECE"/>
    <g opacity="0.3">
        <path d="M275.241 47.2996L293.011 31.4177C293.729 30.7756 293.792 29.6677 293.15 28.9501C292.508 28.2325 291.4 28.1695 290.682 28.8116L272.616 44.9579L254.55 28.8116C253.832 28.1695 252.724 28.2325 252.082 28.9501C251.44 29.6677 251.503 30.7756 252.221 31.4177L269.991 47.2996L252.221 63.1815C251.503 63.8236 251.44 64.9315 252.082 65.6491C252.724 66.3667 253.832 66.4296 254.55 65.7876L272.616 49.6413L290.682 65.7876C291.4 66.4296 292.508 66.3667 293.15 65.6491C293.792 64.9315 293.729 63.8236 293.011 63.1815L275.241 47.2996Z" fill="#C9C9C9"/>
    </g>
    <path d="M291.852 66.3918C291.399 66.3918 290.946 66.2345 290.587 65.9071L272.628 49.8553L254.669 65.9071C254.291 66.2471 253.806 66.4107 253.29 66.3855C252.78 66.3541 252.314 66.1337 251.974 65.7561C251.634 65.3784 251.464 64.8874 251.496 64.3838C251.527 63.8739 251.748 63.4081 252.125 63.0681L269.77 47.3058L252.125 31.5435C251.748 31.2036 251.521 30.7378 251.496 30.2279C251.464 29.718 251.634 29.2333 251.974 28.8556C252.314 28.4779 252.78 28.2513 253.29 28.2261C253.8 28.1947 254.291 28.3709 254.669 28.7046L272.628 44.7564L290.587 28.7046C291.367 28.0058 292.576 28.0751 293.275 28.8556C293.615 29.2333 293.785 29.7243 293.753 30.2279C293.728 30.7378 293.501 31.2036 293.124 31.5435L275.479 47.3058L293.124 63.0681C293.501 63.4081 293.728 63.8739 293.753 64.3838C293.785 64.8937 293.615 65.3784 293.275 65.7561C292.897 66.1715 292.375 66.3918 291.852 66.3918ZM272.621 49.4839C272.659 49.4839 272.697 49.4965 272.728 49.5216L290.795 65.6679C291.449 66.2533 292.457 66.1967 293.036 65.542C293.319 65.2273 293.457 64.8181 293.432 64.3964C293.407 63.9746 293.224 63.5843 292.91 63.3011L275.133 47.4191C275.102 47.3877 275.083 47.3436 275.083 47.2996C275.083 47.2555 275.102 47.2114 275.133 47.1799L292.903 31.298C293.218 31.0148 293.407 30.6245 293.432 30.2027C293.457 29.781 293.313 29.3718 293.036 29.0571C292.45 28.4024 291.443 28.3458 290.795 28.9312L272.728 45.0775C272.665 45.1278 272.577 45.1278 272.521 45.0775L254.454 28.9312C254.14 28.6479 253.731 28.5094 253.309 28.5283C252.881 28.5535 252.497 28.736 252.214 29.0508C251.93 29.3655 251.792 29.7747 251.817 30.1964C251.842 30.6245 252.025 31.0085 252.346 31.2917L270.116 47.1737C270.148 47.2051 270.166 47.2492 270.166 47.2933C270.166 47.3373 270.148 47.3814 270.116 47.4129L252.346 63.2948C252.031 63.578 251.842 63.9683 251.817 64.3901C251.792 64.8181 251.937 65.221 252.214 65.5357C252.49 65.8505 252.887 66.0393 253.309 66.0582C253.731 66.0834 254.14 65.9386 254.454 65.6616L272.521 49.5153C272.546 49.5027 272.584 49.4839 272.621 49.4839Z" fill="#CECECE"/>
</svg>
