<svg width="390" height="300" viewBox="0 0 390 300" fill="none" xmlns="http://www.w3.org/2000/svg">
    <g clip-path="url(#clip0_42204_119803)">
        <path d="M110.462 173.228L138.572 156.997C139.218 156.623 139.606 155.956 139.606 155.207V155.164C139.606 155.161 139.606 155.161 139.606 155.159V151.476C139.606 151.476 139.606 151.476 139.606 151.473C139.606 151.471 139.606 151.465 139.606 151.463C139.606 151.422 139.601 151.385 139.598 151.344C139.555 150.65 139.181 150.036 138.572 149.686L132.429 146.14V144.143C132.429 144.143 132.429 144.143 132.429 144.14C132.429 143.543 132.12 143.007 131.6 142.708L114.63 132.909V55.2661C116.762 54.8407 118.724 54.2108 120.417 53.3978L176.826 85.99C176.826 85.99 176.826 85.99 176.829 85.99C176.831 85.9927 176.834 85.99 176.837 85.9927C176.858 86.0035 176.88 86.0116 176.907 86.0116C176.917 86.0116 176.931 86.0089 176.942 86.0062C176.95 86.0035 176.955 85.9981 176.963 85.9954C176.969 85.9927 176.974 85.9954 176.979 85.9927L183.796 82.3881L183.79 119.417C182.412 119.463 181.354 120.084 181.354 120.876V121.592C180.191 122.066 179.499 122.809 179.499 123.584V127.011C179.499 127.315 179.599 127.603 179.774 127.87L154.331 153.194C154.313 153.212 154.302 153.237 154.294 153.258L154.205 153.309C153.553 153.686 153.166 154.356 153.166 155.108V158.812C153.166 159.563 153.553 160.236 154.205 160.61L182.468 176.929C182.958 177.212 183.507 177.354 184.057 177.354C184.606 177.354 185.155 177.212 185.645 176.929L213.908 160.61C214.56 160.236 214.948 159.563 214.948 158.812V155.108C214.948 154.367 214.568 153.702 213.933 153.323L188.278 127.603C188.361 127.412 188.41 127.216 188.41 127.008V123.581C188.41 122.728 187.731 121.988 186.547 121.544V120.876C186.547 120.084 185.489 119.46 184.111 119.417L184.116 82.2212L190.168 79.0204C190.168 79.0204 190.168 79.0204 190.17 79.0177H190.173C190.181 79.0123 190.186 79.0042 190.194 78.9989C190.203 78.9935 190.211 78.9881 190.216 78.98C190.219 78.9746 190.221 78.9719 190.224 78.9666C190.227 78.9639 190.229 78.9639 190.229 78.9612C190.232 78.9558 190.232 78.9504 190.235 78.945C190.238 78.9396 190.24 78.9343 190.243 78.9262C190.246 78.9208 190.243 78.9154 190.246 78.9127C190.248 78.9047 190.248 78.8939 190.248 78.8858C190.248 78.8804 190.251 78.875 190.248 78.867C190.248 78.8616 190.246 78.8589 190.246 78.8535C190.243 78.8427 190.24 78.8347 190.238 78.8239C190.235 78.8185 190.235 78.8131 190.232 78.8077C190.232 78.8077 190.232 78.8077 190.229 78.805V78.8024L185.615 70.6805C185.613 70.6778 185.61 70.6752 185.61 70.6725C185.607 70.6698 185.607 70.6644 185.605 70.6617C185.602 70.659 185.597 70.6563 185.594 70.6509C185.594 70.6482 185.591 70.6482 185.588 70.6482C185.58 70.6402 185.575 70.6348 185.564 70.6294C185.561 70.6267 185.559 70.624 185.556 70.6213L171.453 62.6368C171.453 62.6368 171.453 62.6368 171.45 62.6368L113.916 30.058L66.1975 3.04093C66.184 3.03286 66.1706 3.03016 66.1571 3.02747C66.1517 3.02747 66.149 3.02209 66.1436 3.02209L46.3492 0.00164318C46.2766 -0.00912488 46.2039 0.0339477 46.177 0.10394L44.0099 6.10983C43.9857 6.17444 44.0072 6.24443 44.061 6.2875L56.6704 16.1268L50.9661 19.3842C50.9634 19.3869 50.9607 19.3842 50.958 19.3869C50.9364 19.4003 50.923 19.4192 50.9176 19.4434V19.4461C50.9149 19.4542 50.9122 19.4595 50.9122 19.4676V21.7343C50.9122 21.7666 50.9311 21.7989 50.958 21.8151L52.2232 22.5527L50.9876 23.258C50.9795 23.2607 50.9687 23.2607 50.9607 23.2661C50.9311 23.2822 50.9122 23.3145 50.9122 23.3468V25.6135C50.9122 25.6458 50.9311 25.6781 50.958 25.6943L51.8383 26.2084L52.1667 26.3996L50.958 27.0995C50.9445 27.1076 50.9364 27.1183 50.9284 27.1291C50.9284 27.1318 50.9257 27.1318 50.9257 27.1318C50.9176 27.1452 50.9122 27.1614 50.9122 27.1802V29.4469C50.9122 29.4792 50.9311 29.5115 50.958 29.5277L52.1505 30.2222L50.9687 30.9033C50.9661 30.9033 50.9634 30.9033 50.9607 30.906C50.9472 30.9141 50.9338 30.9275 50.9257 30.941C50.9176 30.9545 50.9149 30.9679 50.9149 30.9814C50.9149 30.9841 50.9149 30.9841 50.9149 30.9868V33.2534C50.9149 33.2857 50.9338 33.318 50.9607 33.3342L69.9152 44.3822C69.9179 44.3822 69.9179 44.3822 69.9205 44.3822C69.934 44.3903 69.9475 44.393 69.9636 44.393C69.9798 44.393 69.9932 44.3876 70.0067 44.3822C70.0094 44.3822 70.0094 44.3822 70.0121 44.3822L83.1572 36.7934C83.1868 36.7773 83.2057 36.745 83.2057 36.7127V34.4433C83.2057 34.4298 83.203 34.4137 83.1949 34.4002C83.1868 34.3868 83.176 34.376 83.1626 34.3679L81.9835 33.6653L83.1599 32.9869C83.1895 32.9708 83.2083 32.9385 83.2083 32.9062V31.8886L93.5295 37.8514C91.0933 39.3347 89.9061 41.2003 89.9061 43.545V46.9289C89.9061 50.4931 94.0976 53.5809 100.155 55.0292V133.932L84.9555 142.708C84.4359 143.007 84.1263 143.545 84.1263 144.143V146.843L79.2026 149.686C78.5565 150.06 78.1716 150.728 78.1689 151.473C78.1689 151.473 78.1689 151.473 78.1689 151.476V155.159C78.1689 155.907 78.5565 156.575 79.2026 156.949L107.315 173.179C107.768 173.44 108.282 173.604 108.788 173.623C109.089 173.639 109.709 173.642 110.462 173.228ZM181.833 121.732C181.849 121.745 181.868 121.759 181.884 121.77C181.933 121.805 181.984 121.84 182.04 121.875C182.057 121.885 182.07 121.893 182.086 121.904C182.156 121.945 182.231 121.982 182.31 122.02C182.326 122.028 182.342 122.033 182.361 122.042C182.425 122.068 182.493 122.095 182.563 122.12C182.587 122.128 182.614 122.138 182.641 122.147C182.716 122.171 182.791 122.192 182.872 122.214C182.888 122.216 182.902 122.222 182.918 122.227C183.012 122.249 183.112 122.268 183.211 122.286C183.238 122.292 183.265 122.295 183.292 122.297C183.37 122.308 183.451 122.319 183.532 122.324C183.561 122.327 183.594 122.33 183.623 122.332C183.731 122.34 183.839 122.346 183.952 122.346C184.062 122.346 184.172 122.34 184.28 122.332C184.312 122.33 184.342 122.327 184.372 122.324C184.452 122.316 184.533 122.308 184.611 122.297C184.638 122.295 184.665 122.289 184.692 122.286C184.792 122.27 184.891 122.251 184.985 122.23C185.002 122.227 185.018 122.222 185.031 122.217C185.109 122.198 185.187 122.173 185.263 122.149C185.29 122.141 185.314 122.133 185.341 122.122C185.411 122.098 185.478 122.071 185.543 122.044C185.559 122.036 185.578 122.031 185.594 122.023C185.672 121.988 185.747 121.947 185.817 121.907C185.833 121.899 185.847 121.888 185.863 121.877C185.917 121.845 185.971 121.81 186.019 121.772C186.035 121.759 186.054 121.748 186.07 121.735C186.124 121.692 186.175 121.646 186.221 121.6C186.224 121.597 186.229 121.595 186.232 121.589V122.822C186.232 123.444 185.187 123.972 183.952 123.972C182.716 123.972 181.672 123.447 181.672 122.822V121.589C181.674 121.592 181.68 121.595 181.682 121.6C181.728 121.643 181.779 121.689 181.833 121.732ZM179.967 128.12C180.67 128.903 182.097 129.434 183.796 129.466V136.584C183.335 136.621 182.88 136.753 182.468 136.99L155.29 152.682L179.967 128.12ZM154.364 153.581L182.627 137.262C182.991 137.052 183.392 136.934 183.798 136.896V146.254L164.472 149.209C163.729 149.322 163.215 149.686 163.126 150.154C163.115 150.205 163.113 150.259 163.115 150.31C163.115 150.313 163.113 150.316 163.113 150.318V154.26C163.113 154.268 163.113 154.273 163.115 154.281C163.097 154.607 163.301 154.916 163.683 155.134L183.798 166.748V173.311C183.392 173.273 182.991 173.155 182.627 172.945L154.364 156.634C153.812 156.316 153.483 155.746 153.483 155.108C153.481 154.47 153.812 153.899 154.364 153.581ZM195.702 149.783C195.702 149.861 195.705 149.958 195.67 150.033L187.909 166.936C187.812 167.149 187.564 167.327 187.217 167.44C187.099 167.477 186.972 167.504 186.846 167.523V163.808C186.881 163.803 186.916 163.797 186.951 163.792C186.991 163.787 187.029 163.779 187.069 163.77C187.088 163.765 187.107 163.762 187.126 163.757C187.459 163.679 187.758 163.542 187.971 163.342C187.974 163.34 187.976 163.337 187.979 163.337C188.006 163.31 188.033 163.283 188.06 163.254C188.07 163.243 188.079 163.229 188.087 163.219C188.103 163.197 188.122 163.176 188.135 163.151C188.159 163.116 188.178 163.079 188.197 163.041C188.197 163.038 188.2 163.038 188.2 163.036L191.352 156.171L195.705 146.687V149.75L195.702 149.783ZM163.43 154.235V150.924C163.503 150.989 163.587 151.051 163.683 151.107L174.443 157.32L183.798 162.721V166.39L163.842 154.868C163.557 154.704 163.412 154.496 163.433 154.284C163.433 154.265 163.433 154.249 163.43 154.235ZM184.113 162.901L185.203 163.531C185.209 163.534 185.214 163.536 185.22 163.539C185.295 163.582 185.376 163.62 185.462 163.655C185.513 163.676 185.57 163.69 185.623 163.709C185.658 163.719 185.693 163.733 185.728 163.744C185.736 163.746 185.747 163.746 185.755 163.749C185.782 163.757 185.812 163.762 185.839 163.768C185.92 163.784 186 163.8 186.081 163.811C186.116 163.816 186.154 163.819 186.189 163.822C186.251 163.827 186.313 163.83 186.377 163.832C186.404 163.832 186.428 163.838 186.455 163.838C186.479 163.838 186.504 163.835 186.528 163.835V167.555C186.103 167.569 185.677 167.48 185.357 167.294L184.111 166.573V162.901H184.113ZM195.67 145.998L187.909 162.901C187.887 162.949 187.855 162.995 187.817 163.041C187.812 163.046 187.807 163.054 187.801 163.06C187.764 163.103 187.718 163.143 187.667 163.181C187.659 163.186 187.651 163.192 187.642 163.197C187.589 163.235 187.529 163.27 187.462 163.302C187.457 163.305 187.451 163.307 187.443 163.31C187.373 163.342 187.295 163.375 187.214 163.402C187.212 163.402 187.212 163.402 187.209 163.402C187.142 163.423 187.072 163.439 187.002 163.456C186.986 163.458 186.972 163.464 186.956 163.466C186.894 163.48 186.829 163.488 186.765 163.496C186.741 163.499 186.714 163.501 186.689 163.504C186.687 163.504 186.684 163.501 186.681 163.501C186.673 163.501 186.665 163.504 186.657 163.507C186.63 163.509 186.603 163.509 186.576 163.512C186.431 163.517 186.28 163.515 186.132 163.496C186.127 163.496 186.121 163.496 186.119 163.493C186.011 163.48 185.906 163.461 185.801 163.431C185.629 163.386 185.478 163.326 185.352 163.251L184.105 162.529V152.13L186.846 150.803C187.236 150.62 187.605 150.426 187.944 150.232C188.55 149.882 188.927 149.573 189.099 149.285C189.18 149.15 189.201 149.01 189.166 148.87C189.112 148.663 188.932 148.472 188.614 148.289C188.224 148.065 187.785 147.955 187.29 147.966C186.803 147.976 186.329 148.111 185.879 148.369C185.562 148.553 185.061 148.867 184.39 149.309L184.102 149.497V146.52L193.791 145.037C194.628 144.908 195.347 145.193 195.6 145.527C195.721 145.683 195.743 145.842 195.67 145.998ZM184.113 149.88L184.574 149.575C185.241 149.139 185.736 148.824 186.046 148.644C186.447 148.413 186.87 148.291 187.303 148.281C187.322 148.281 187.338 148.281 187.357 148.281C187.766 148.281 188.138 148.375 188.464 148.563C188.76 148.733 188.846 148.867 188.867 148.951C188.875 148.986 188.883 149.042 188.835 149.123C188.692 149.363 188.342 149.643 187.79 149.96C187.459 150.152 187.096 150.34 186.714 150.52L184.108 151.783V149.88H184.113ZM183.798 151.939L182.584 152.529C182.11 152.763 181.696 152.916 181.348 152.984C181.025 153.048 180.751 153.01 180.509 152.873C180.39 152.806 180.317 152.736 180.304 152.677C180.301 152.663 180.293 152.628 180.336 152.558C180.449 152.378 180.719 152.141 181.128 151.856L183.798 150.092V151.939ZM183.798 149.71L180.95 151.592C180.498 151.909 180.21 152.171 180.07 152.386C179.992 152.507 179.967 152.628 179.997 152.747C180.035 152.897 180.151 153.027 180.35 153.142C180.562 153.264 180.797 153.325 181.055 153.325C181.168 153.325 181.287 153.315 181.408 153.29C181.779 153.218 182.221 153.056 182.719 152.809L183.796 152.286V162.352L174.6 157.043L163.845 150.833C163.667 150.717 163.544 150.604 163.492 150.507C163.46 150.448 163.444 150.394 163.436 150.359C163.428 150.31 163.428 150.265 163.436 150.216C163.487 149.947 163.842 149.627 164.521 149.524L183.798 146.574V149.71ZM214.635 158.809C214.635 159.447 214.307 160.015 213.755 160.335L185.492 176.654C184.609 177.163 183.51 177.163 182.63 176.654L154.366 160.335C153.815 160.018 153.486 159.447 153.486 158.809V156.206C153.664 156.489 153.906 156.731 154.21 156.906L182.474 173.225C182.915 173.481 183.405 173.612 183.901 173.639C183.919 173.647 183.938 173.65 183.96 173.65C183.971 173.65 183.979 173.645 183.989 173.645C184.014 173.645 184.038 173.65 184.062 173.65C184.611 173.65 185.16 173.507 185.65 173.225L213.914 156.906C214.218 156.731 214.46 156.489 214.638 156.206V158.809H214.635ZM214.635 155.108C214.635 155.746 214.307 156.314 213.755 156.634L185.492 172.953C185.066 173.198 184.592 173.322 184.113 173.333V166.936L185.203 167.566C185.551 167.765 186.003 167.87 186.461 167.87C186.751 167.87 187.045 167.827 187.314 167.741C187.75 167.601 188.062 167.364 188.197 167.071L195.958 150.168C196.023 150.03 196.02 149.882 196.02 149.783V145.936C196.052 145.734 196.001 145.529 195.864 145.346C195.498 144.862 194.612 144.603 193.756 144.735L184.116 146.21V136.888C184.592 136.896 185.069 137.02 185.494 137.268L213.758 153.587C214.304 153.899 214.635 154.47 214.635 155.108ZM212.88 152.712L185.648 136.99C185.174 136.716 184.644 136.578 184.113 136.57V129.466C185.973 129.431 187.508 128.796 188.122 127.891L212.88 152.712ZM188.095 124.51V127.011C188.095 127.202 188.041 127.388 187.949 127.566C187.947 127.571 187.944 127.576 187.941 127.584C187.457 128.489 185.855 129.157 183.957 129.157C181.674 129.157 179.817 128.193 179.817 127.011V124.51C179.822 124.518 179.828 124.524 179.836 124.532C179.849 124.55 179.868 124.569 179.881 124.591C179.919 124.639 179.959 124.685 180.002 124.731C180.021 124.752 180.043 124.774 180.062 124.793C180.11 124.841 180.161 124.89 180.218 124.935C180.234 124.949 180.247 124.962 180.264 124.976C180.336 125.035 180.412 125.092 180.492 125.145C180.511 125.159 180.533 125.172 180.554 125.186C180.619 125.226 180.684 125.267 180.751 125.307C180.78 125.323 180.807 125.339 180.837 125.355C180.907 125.393 180.98 125.428 181.052 125.463C181.077 125.474 181.101 125.487 181.125 125.498C181.225 125.544 181.327 125.584 181.435 125.625C181.456 125.633 181.478 125.638 181.499 125.646C181.588 125.678 181.677 125.708 181.768 125.735C181.803 125.746 181.841 125.757 181.876 125.767C181.962 125.792 182.048 125.816 182.137 125.837C182.17 125.845 182.205 125.853 182.237 125.861C182.358 125.888 182.482 125.913 182.608 125.934C182.625 125.937 182.641 125.94 182.657 125.942C182.767 125.961 182.88 125.977 182.996 125.991C183.036 125.996 183.077 125.999 183.12 126.004C183.217 126.015 183.314 126.023 183.413 126.028C183.454 126.031 183.494 126.034 183.537 126.036C183.674 126.045 183.814 126.047 183.954 126.047C184.094 126.047 184.234 126.042 184.372 126.036C184.412 126.034 184.455 126.031 184.495 126.028C184.595 126.023 184.692 126.015 184.789 126.004C184.829 125.999 184.872 125.996 184.913 125.991C185.028 125.977 185.142 125.961 185.252 125.942C185.268 125.94 185.284 125.937 185.3 125.934C185.427 125.913 185.551 125.888 185.672 125.861C185.707 125.853 185.739 125.845 185.771 125.837C185.86 125.816 185.946 125.794 186.033 125.767C186.068 125.757 186.105 125.746 186.14 125.735C186.232 125.708 186.323 125.676 186.409 125.646C186.431 125.638 186.453 125.633 186.471 125.625C186.579 125.584 186.681 125.541 186.781 125.498C186.805 125.487 186.829 125.474 186.854 125.463C186.929 125.428 187.002 125.393 187.072 125.355C187.101 125.339 187.128 125.323 187.158 125.307C187.228 125.267 187.292 125.226 187.357 125.186C187.376 125.172 187.397 125.159 187.419 125.148C187.5 125.094 187.575 125.038 187.648 124.979C187.664 124.965 187.677 124.952 187.694 124.938C187.75 124.89 187.801 124.844 187.852 124.793C187.871 124.774 187.893 124.752 187.912 124.731C187.955 124.685 187.995 124.637 188.035 124.588C188.052 124.569 188.065 124.55 188.081 124.532C188.081 124.524 188.089 124.515 188.095 124.51ZM188.095 123.581C188.095 123.635 188.087 123.686 188.079 123.738C188.076 123.759 188.076 123.781 188.073 123.799C187.874 124.809 186.323 125.611 184.377 125.713C184.237 125.722 184.097 125.724 183.954 125.724C181.672 125.724 179.814 124.76 179.814 123.579C179.814 122.962 180.39 122.356 181.354 121.934V122.817C181.354 123.638 182.493 124.281 183.949 124.281C185.403 124.281 186.544 123.638 186.544 122.817V121.885C187.529 122.284 188.095 122.895 188.095 123.581ZM186.229 120.876C186.229 120.897 186.224 120.916 186.224 120.938C186.221 120.957 186.221 120.973 186.218 120.992C186.213 121.016 186.205 121.04 186.197 121.064C186.191 121.078 186.189 121.091 186.183 121.105C186.173 121.132 186.156 121.159 186.143 121.183C186.138 121.194 186.132 121.204 186.127 121.212C186.113 121.231 186.097 121.25 186.084 121.269C186.073 121.285 186.062 121.301 186.049 121.317C186.041 121.325 186.033 121.334 186.025 121.342C185.971 121.401 185.909 121.457 185.836 121.511C185.82 121.522 185.801 121.533 185.785 121.546C185.758 121.565 185.731 121.584 185.704 121.6C185.696 121.605 185.685 121.611 185.677 121.616C185.446 121.751 185.158 121.861 184.829 121.931C184.816 121.934 184.802 121.937 184.792 121.939C184.687 121.961 184.576 121.98 184.463 121.993C184.385 122.001 184.31 122.009 184.229 122.015C184.137 122.02 184.046 122.025 183.954 122.025C182.719 122.025 181.674 121.5 181.674 120.876C181.674 120.281 182.63 119.775 183.796 119.732V120.585C183.796 120.671 183.866 120.744 183.954 120.744C184.043 120.744 184.113 120.674 184.113 120.585V119.732C185.273 119.775 186.229 120.281 186.229 120.876ZM138.416 156.677L110.306 172.907C109.935 173.12 109.528 173.238 109.114 173.273V169.957C109.587 169.922 110.05 169.784 110.465 169.545L138.575 153.315C138.877 153.14 139.119 152.903 139.294 152.626V155.167C139.291 155.797 138.965 156.359 138.416 156.677ZM131.858 145.395C131.875 145.381 131.891 145.368 131.907 145.352C131.98 145.284 132.05 145.209 132.109 145.131C132.112 145.128 132.114 145.126 132.117 145.12V148.106C132.117 148.469 131.977 148.806 131.729 149.051C131.646 149.134 131.552 149.207 131.447 149.266L109.375 162.01C109.294 162.056 109.213 162.096 109.127 162.131C109.103 162.142 109.081 162.147 109.057 162.158C108.995 162.182 108.931 162.204 108.869 162.223C108.842 162.231 108.815 162.236 108.788 162.241C108.723 162.258 108.659 162.271 108.594 162.279C108.57 162.282 108.543 162.287 108.519 162.29C108.489 162.293 108.459 162.293 108.43 162.295V158.653C108.47 158.65 108.508 158.642 108.546 158.639C108.575 158.637 108.605 158.634 108.637 158.629C108.71 158.618 108.782 158.604 108.855 158.586C108.887 158.578 108.917 158.572 108.949 158.564C109.022 158.543 109.095 158.518 109.167 158.491C109.194 158.481 109.221 158.473 109.248 158.462C109.345 158.421 109.439 158.376 109.531 158.322L131.603 145.578C131.603 145.578 131.603 145.578 131.605 145.578C131.697 145.524 131.78 145.459 131.858 145.395ZM116.573 50.8108C116.571 50.8108 116.571 50.8081 116.568 50.8081L93.8095 37.6576L107.867 32.5401L115.682 36.9603L120.455 53.0532L116.573 50.8108ZM65.9337 21.5512L79.1003 16.2614L87.2329 20.8621L93.1419 37.2699L65.9337 21.5512ZM70.0498 34.4514L78.8419 29.3742L80.6132 30.3972L70.0471 36.4973V34.4514H70.0498ZM70.0498 30.5722L75.4849 27.4333L77.2563 28.4563L70.0471 32.6181V30.5722H70.0498ZM177.313 85.4651L183.168 75.1466L189.764 78.8777L177.313 85.4651ZM135.509 48.1807L143.771 52.8567L149.803 70.0156L121.088 53.422L135.509 48.1807ZM120.821 53.1824L116.075 37.1838L135.148 47.9761L120.821 53.1824ZM135.899 48.038L141.377 46.0459L143.612 52.4017L135.899 48.038ZM144.191 53.0909L165.011 64.8712L150.194 70.161L144.191 53.0909ZM165.374 65.0758L172.764 69.2565L176.67 85.5351L150.468 70.3952L165.374 65.0758ZM165.764 64.9358L171.253 62.976L172.661 68.8365L165.764 64.9358ZM173.138 69.4691L182.894 74.9878L176.969 85.4274L173.138 69.4691ZM183.324 74.872L185.478 71.079L189.675 78.4659L183.324 74.872ZM183.05 74.7159L173.038 69.0519L171.606 63.0864L185.263 70.8178L183.05 74.7159ZM165.404 64.7312L144.032 52.6386L141.762 46.1886L170.99 62.7364L165.404 64.7312ZM135.538 47.8334L115.949 36.7477L114.102 30.5264L141.1 45.8117L135.538 47.8334ZM115.553 36.5242L108.258 32.3974L113.739 30.4026L115.553 36.5242ZM107.897 32.1928L87.4913 20.6467L85.1439 14.1293L113.467 30.1657L107.897 32.1928ZM107.506 32.3355L93.5322 37.4234L87.6529 21.1017L107.506 32.3355ZM87.0687 20.4071L79.4745 16.1107L84.7563 13.9894L87.0687 20.4071ZM79.1219 15.9115L72.1522 11.9677C72.1522 11.965 72.1495 11.965 72.1495 11.9623C72.1468 11.9569 72.1468 11.9542 72.1441 11.9488L66.5448 3.59549L84.487 13.7552L79.1219 15.9115ZM66.1194 3.53357L71.7753 11.9704L59.2359 17.349L66.1194 3.53357ZM71.9692 12.2288L78.7477 16.0622L65.5864 21.3493L59.2467 17.6855L71.9692 12.2288ZM46.43 0.332762L65.8825 3.30206L58.8456 17.4271L44.3437 6.10983L46.43 0.332762ZM58.8025 17.7932C58.8052 17.7959 58.8106 17.7959 58.8133 17.7986C58.816 17.8013 58.8187 17.804 58.8214 17.804L75.2992 27.3256L69.9582 30.4107L51.1895 19.4703L56.8266 16.2507L58.8025 17.7932ZM51.098 19.6345L69.864 30.5722V32.6181L51.098 21.6805V19.6345ZM69.9098 32.8658C69.9125 32.8658 69.9125 32.8658 69.9152 32.8658C69.9286 32.8739 69.9421 32.8766 69.9582 32.8766C69.9744 32.8766 69.9878 32.8712 70.0013 32.8658C70.004 32.8658 70.004 32.8658 70.0067 32.8658L77.4501 28.5666L78.6561 29.2639L69.9582 34.2872L51.1949 23.3495L52.4036 22.6603L69.9098 32.8658ZM51.098 23.511L69.864 34.4487V36.4946L51.9298 26.0442L51.0953 25.557V23.511H51.098ZM69.9098 36.745C69.9125 36.745 69.9125 36.745 69.9152 36.745C69.9286 36.7531 69.9421 36.7557 69.9582 36.7557C69.9744 36.7557 69.9878 36.7504 70.0013 36.745C70.004 36.745 70.004 36.745 70.0067 36.745L80.8098 30.5076L81.9781 31.1833L69.9609 38.1206L58.2883 31.3152L51.1949 27.1802L52.3578 26.5099L69.9098 36.745ZM51.098 27.3445L69.864 38.2821V40.3281L51.098 29.3904V27.3445ZM51.098 31.1537L69.864 42.0913V44.1373L51.098 33.1996V31.1537ZM70.0498 44.1399V42.094L83.0064 34.6129V36.6588L70.0498 44.1399ZM82.923 34.4433L69.9555 41.9298L51.1868 30.9894L52.2878 30.3541C52.3013 30.3461 52.304 30.3326 52.3121 30.3218L69.9071 40.5784C69.9098 40.5784 69.9098 40.5784 69.9125 40.5784C69.9259 40.5865 69.9394 40.5892 69.9555 40.5892C69.9717 40.5892 69.9852 40.5838 69.9986 40.5784C70.0013 40.5784 70.0013 40.5784 70.004 40.5784L81.7843 33.7784L82.923 34.4433ZM83.0064 32.8523L70.0498 40.3334V38.2875L82.1611 31.2936L83.0064 31.7809V32.8523ZM93.7745 38.0641C93.7907 38.0533 93.8257 38.0291 93.8257 38.0291L116.07 50.8808C113.51 51.508 110.565 51.8687 107.91 51.8687C103.59 51.8687 99.3524 50.9561 95.9793 49.2979C92.7946 47.7311 90.6948 45.6286 90.2103 43.5289C90.2157 41.281 91.3813 39.4935 93.7745 38.0641ZM90.2076 46.9316V44.5276C92.0597 48.8294 99.6431 52.1891 107.908 52.1891C110.697 52.1891 113.811 51.796 116.463 51.115L120.084 53.2067C118.272 54.052 116.161 54.6873 113.868 55.0911C113.868 55.0911 112.497 55.363 110.834 55.476C110.096 55.5245 108.002 55.6456 106.362 55.5622C104.723 55.4787 104.295 55.4195 103.498 55.3253C102.653 55.2364 100.324 54.76 100.324 54.76C94.3533 53.3655 90.2076 50.3827 90.2076 46.9316ZM103.423 55.6268L103.552 55.6429C104.462 55.756 105.401 55.8341 106.36 55.8745L107.132 55.9014C107.391 55.9068 107.649 55.9121 107.91 55.9121C108.882 55.9121 109.843 55.8718 110.785 55.7964L110.861 55.791C111.905 55.7049 112.931 55.5783 113.922 55.4033L114.317 55.3226V142.735C114.317 144.579 111.208 146.079 107.388 146.079C103.568 146.079 100.459 144.579 100.459 142.735V138.576V55.1018C101.406 55.3172 102.394 55.4949 103.423 55.6268ZM85.1008 142.98L100.141 134.296V138.573V142.732C100.141 144.749 103.39 146.391 107.385 146.391C111.38 146.391 114.63 144.749 114.63 142.732V133.273L131.444 142.98C131.864 143.222 132.114 143.656 132.114 144.14C132.114 144.444 132.017 144.727 131.84 144.956C131.735 145.093 131.6 145.212 131.444 145.303L109.372 158.047C108.694 158.44 107.848 158.44 107.17 158.047L85.0981 145.303C84.6782 145.061 84.4278 144.63 84.4278 144.146V144.14C84.4305 143.656 84.6809 143.222 85.1008 142.98ZM84.942 145.578L107.014 158.322C107.356 158.518 107.733 158.623 108.115 158.648V162.293C107.786 162.268 107.463 162.177 107.173 162.01L85.1008 149.266C84.6809 149.024 84.4305 148.59 84.4305 148.106V145.117C84.5624 145.298 84.7347 145.457 84.942 145.578ZM79.348 149.96L84.1156 147.209V148.106C84.1156 148.703 84.4251 149.242 84.9447 149.54L107.017 162.284C107.401 162.508 107.835 162.618 108.266 162.621C108.268 162.621 108.271 162.624 108.274 162.624C108.715 162.624 109.149 162.508 109.531 162.287L131.603 149.543C131.732 149.468 131.85 149.379 131.95 149.277C132.257 148.972 132.429 148.558 132.429 148.108V146.509L138.414 149.966C138.801 150.189 139.076 150.542 139.205 150.951C139.205 150.97 139.205 150.989 139.21 151.005C139.259 151.166 139.286 151.331 139.288 151.492C139.286 152.122 138.96 152.685 138.414 152.997L110.303 169.227C109.426 169.733 108.336 169.733 107.458 169.227L79.3453 152.997C78.7961 152.679 78.4704 152.114 78.4704 151.481C78.4704 150.849 78.7988 150.275 79.348 149.96ZM79.348 156.677C78.7988 156.359 78.4731 155.794 78.4731 155.161V152.574C78.6481 152.854 78.8903 153.094 79.1919 153.266L107.305 169.496C107.746 169.749 108.233 169.884 108.729 169.908V173.276C108.29 173.252 107.856 173.133 107.463 172.907L79.348 156.677Z" fill="#C7C7C7"/>
        <path d="M346.666 198.261C346.736 195.52 345.116 192.922 342.1 190.92C343.476 189.622 344.219 188.147 344.238 186.62C344.268 184.343 342.698 182.135 339.818 180.402L294.874 153.358C294.858 153.336 294.842 153.315 294.826 153.293C294.791 153.245 294.753 153.196 294.718 153.148C294.638 153.046 294.557 152.949 294.473 152.852C294.436 152.806 294.398 152.76 294.358 152.717C294.274 152.626 294.191 152.537 294.107 152.451C294.064 152.408 294.024 152.362 293.981 152.321C293.897 152.238 293.811 152.163 293.725 152.087C293.679 152.047 293.636 152.004 293.59 151.966C293.499 151.891 293.407 151.821 293.316 151.751C293.273 151.718 293.232 151.683 293.192 151.654C293.057 151.557 292.92 151.471 292.783 151.39L263.986 134.764C263.771 134.64 263.558 134.543 263.346 134.465C262.654 134.207 261.997 134.191 261.432 134.43C261.327 134.476 261.224 134.527 261.125 134.589L254.841 138.221L254.664 138.323C254.664 138.323 254.664 138.323 254.661 138.326C254.658 138.326 254.656 138.328 254.656 138.328C253.775 138.907 253.288 140.092 253.288 141.664V148.873L115.6 228.263C112.8 229.876 111.241 231.984 111.214 234.204C111.195 235.793 111.955 237.349 113.392 238.73C110.536 240.62 108.931 243.045 108.832 245.613C108.829 245.621 108.826 245.627 108.826 245.637V245.651V245.654L108.549 254.055C108.442 257.07 110.366 259.927 113.968 262.094L171.416 296.662C171.839 296.915 172.291 297.163 172.762 297.397C172.853 297.443 172.95 297.486 173.045 297.526C173.109 297.553 173.171 297.583 173.244 297.615C173.551 297.758 173.866 297.903 174.189 298.035C174.321 298.089 174.455 298.137 174.59 298.188L174.781 298.258C175.074 298.369 175.379 298.484 175.691 298.587C175.874 298.649 176.062 298.703 176.248 298.759L176.536 298.848C176.679 298.894 176.819 298.939 176.964 298.977C177.015 298.991 177.066 299.004 177.12 299.015C177.166 299.026 177.214 299.036 177.263 299.05C177.478 299.106 177.699 299.157 177.917 299.209C178.267 299.292 178.577 299.359 178.862 299.416C179.088 299.462 179.314 299.502 179.543 299.542C179.61 299.553 179.678 299.567 179.742 299.58C179.82 299.596 179.898 299.61 179.979 299.623C180.098 299.642 180.219 299.658 180.34 299.672C180.429 299.682 180.518 299.696 180.609 299.707L180.803 299.734C180.892 299.747 180.983 299.758 181.072 299.771C181.497 299.822 182.06 299.884 182.642 299.925C182.666 299.927 182.687 299.927 182.701 299.927C183.161 299.96 183.646 299.979 184.227 299.992C184.34 299.995 184.453 299.995 184.569 299.995H184.688C184.758 299.995 184.825 299.995 184.895 299.997C184.965 299.997 185.035 300 185.105 300C185.14 300 185.177 300 185.212 300C185.377 299.997 185.541 299.992 185.705 299.984L186.042 299.973C186.136 299.97 186.227 299.968 186.322 299.965C186.914 299.935 187.398 299.9 187.848 299.857C187.867 299.855 187.883 299.855 187.888 299.852C187.939 299.847 187.988 299.841 188.036 299.833C188.079 299.828 188.123 299.822 188.168 299.817C188.682 299.76 189.105 299.704 189.495 299.642C189.609 299.626 189.722 299.604 189.832 299.585L190.295 299.505C190.454 299.478 190.613 299.451 190.766 299.419C190.85 299.402 190.93 299.384 191.014 299.365L191.485 299.26C192.023 299.133 192.494 299.012 192.922 298.886L193.07 298.837C193.488 298.711 193.916 298.568 194.344 298.412L194.454 298.371C194.516 298.35 194.575 298.328 194.635 298.304L194.723 298.272C194.766 298.256 194.81 298.242 194.85 298.226C195.041 298.151 195.227 298.067 195.41 297.984L195.617 297.892C195.674 297.865 195.733 297.841 195.792 297.817C195.889 297.776 195.989 297.733 196.083 297.688C196.57 297.459 197.006 297.233 197.413 296.998L340.924 214.251C346.383 210.954 346.626 209.451 346.626 206.63V198.896C346.626 198.883 346.62 198.872 346.618 198.861C346.645 198.67 346.661 198.465 346.666 198.261ZM294.702 153.654C294.799 153.789 294.893 153.929 294.982 154.071C294.985 154.074 294.988 154.079 294.99 154.082C295.066 154.2 295.138 154.327 295.211 154.451L289.1 158.069C288.562 157.116 287.916 156.311 287.216 155.711C287.205 155.703 287.194 155.692 287.183 155.684C287.07 155.587 286.955 155.501 286.839 155.415C286.817 155.398 286.796 155.38 286.774 155.363C286.637 155.266 286.5 155.178 286.36 155.097L257.566 138.471C257.442 138.401 257.318 138.336 257.197 138.283C257.181 138.274 257.167 138.266 257.151 138.261C257.044 138.213 256.936 138.172 256.828 138.137C256.796 138.126 256.766 138.116 256.734 138.105C256.64 138.075 256.548 138.054 256.454 138.032C256.411 138.024 256.368 138.013 256.327 138.008C256.244 137.994 256.161 137.984 256.077 137.978C256.031 137.976 255.983 137.973 255.937 137.973C255.926 137.973 255.916 137.97 255.905 137.97L261.292 134.858C261.553 134.697 261.843 134.603 262.156 134.581C262.67 134.543 263.243 134.697 263.833 135.036L292.629 151.662C292.759 151.737 292.885 151.821 293.012 151.91C293.065 151.947 293.119 151.993 293.173 152.033C293.243 152.087 293.313 152.138 293.38 152.195C293.45 152.254 293.518 152.316 293.588 152.378C293.636 152.424 293.687 152.467 293.736 152.515C293.814 152.591 293.892 152.671 293.967 152.752C294.002 152.79 294.04 152.827 294.075 152.868C294.161 152.962 294.245 153.062 294.328 153.161C294.352 153.191 294.374 153.218 294.398 153.247C294.479 153.35 294.559 153.455 294.638 153.565C294.64 153.568 294.643 153.573 294.646 153.576C294.651 153.584 294.659 153.595 294.667 153.603C294.678 153.619 294.689 153.635 294.702 153.654ZM290.476 162.947V162.715C290.476 161.358 290.104 159.864 289.434 158.475L295.424 154.825C296.14 156.198 296.584 157.775 296.584 159.234V197.313C296.584 198.928 296.148 199.838 295.036 200.554L290.056 203.432C290.328 202.84 290.476 202.099 290.476 201.254V201.025V162.947ZM253.609 141.661C253.609 140.221 254.055 139.101 254.831 138.592L254.841 138.587C254.901 138.549 254.963 138.514 255.027 138.484C255.081 138.458 255.135 138.436 255.189 138.414C255.224 138.401 255.256 138.388 255.294 138.377C255.339 138.363 255.385 138.353 255.434 138.342C255.482 138.331 255.531 138.318 255.579 138.312C255.611 138.307 255.646 138.304 255.679 138.301C255.743 138.296 255.808 138.288 255.875 138.288C255.889 138.288 255.902 138.291 255.918 138.291C256.018 138.293 256.12 138.299 256.225 138.315C256.247 138.318 256.268 138.323 256.29 138.326C256.387 138.342 256.484 138.366 256.583 138.393C256.61 138.401 256.637 138.409 256.664 138.417C256.761 138.447 256.858 138.484 256.955 138.525C256.982 138.536 257.011 138.546 257.038 138.56C257.162 138.616 257.286 138.678 257.412 138.751L286.209 155.377C286.343 155.455 286.478 155.541 286.607 155.635C286.64 155.66 286.672 155.686 286.707 155.711C286.804 155.783 286.903 155.859 287 155.939C287.033 155.966 287.065 155.999 287.097 156.028C287.191 156.112 287.288 156.198 287.38 156.289C287.412 156.319 287.442 156.354 287.471 156.386C287.563 156.481 287.654 156.575 287.743 156.677C287.778 156.717 287.813 156.763 287.851 156.806C287.932 156.901 288.012 156.995 288.088 157.097C288.15 157.175 288.206 157.261 288.266 157.345C288.314 157.412 288.365 157.477 288.411 157.547C288.624 157.862 288.823 158.195 289.009 158.551L289.011 158.553C289.725 159.924 290.169 161.498 290.169 162.955V201.025C290.169 202.406 289.735 204.444 288.115 204.598C287.383 204.668 286.976 204.522 286.368 204.172L257.571 187.546C255.388 186.287 253.614 182.889 253.614 179.971V141.661H253.609ZM339.656 180.674C342.434 182.345 343.95 184.459 343.923 186.618C343.896 188.72 342.397 190.734 339.697 192.287L196.191 275.032C193.262 276.717 189.326 277.643 185.099 277.643C180.652 277.643 176.329 276.577 173.241 274.719L115.793 240.151C113.015 238.479 111.5 236.369 111.527 234.207C111.553 232.105 113.053 230.091 115.753 228.535L253.291 149.234V179.968C253.291 182.986 255.138 186.507 257.407 187.816L286.203 204.442C286.785 204.778 287.358 204.945 287.886 204.945C288.287 204.945 288.664 204.848 289 204.654C289.076 204.611 295.2 201.055 295.2 201.055C296.406 200.277 296.899 199.259 296.899 197.545V197.313V159.237V159.006C296.899 157.517 296.46 155.872 295.661 154.375M115.632 240.423L173.08 274.991C176.216 276.878 180.598 277.961 185.102 277.961C189.38 277.961 193.375 277.018 196.349 275.306L339.855 192.562C339.901 192.535 339.941 192.508 339.987 192.484C342.553 194.12 343.953 196.156 343.926 198.223C343.899 200.325 342.399 202.339 339.699 203.892L196.193 286.637C193.264 288.322 189.329 289.248 185.102 289.248C180.655 289.248 176.331 288.182 173.244 286.325L115.796 251.756C113.018 250.085 111.502 247.974 111.529 245.812C111.553 243.793 112.951 241.844 115.465 240.315C115.522 240.35 115.575 240.388 115.632 240.423ZM113.626 238.951C114.081 239.36 114.593 239.755 115.166 240.13C112.641 241.704 111.239 243.713 111.212 245.807C111.185 248.085 112.754 250.295 115.632 252.026L173.08 286.594C176.216 288.481 180.598 289.563 185.102 289.563C189.38 289.563 193.375 288.621 196.349 286.909L339.855 204.164C342.655 202.552 344.214 200.444 344.241 198.226C344.268 196.08 342.862 193.986 340.286 192.301C340.873 191.934 341.401 191.544 341.861 191.135C344.825 193.079 346.421 195.604 346.354 198.25C346.284 201.039 344.399 203.634 341.048 205.561L197.539 288.306C197.329 288.427 197.117 288.543 196.899 288.656C196.855 288.677 196.81 288.702 196.767 288.723C196.589 288.815 196.411 288.904 196.228 288.987C196.145 289.027 196.056 289.062 195.97 289.1C195.902 289.127 195.838 289.157 195.773 289.184C195.442 289.329 195.143 289.458 194.831 289.579C194.82 289.585 194.81 289.587 194.799 289.593L194.769 289.604C194.686 289.633 194.6 289.665 194.516 289.695C194.101 289.846 193.714 289.975 193.332 290.093C193.022 290.188 192.71 290.276 192.395 290.36C192.344 290.373 192.287 290.387 192.233 290.4C192.053 290.446 191.87 290.489 191.687 290.532C191.595 290.554 191.504 290.573 191.412 290.594L191.385 290.6C191.361 290.605 191.337 290.61 191.313 290.616C190.963 290.691 190.605 290.758 190.268 290.818C190.195 290.831 190.123 290.842 190.053 290.855C189.964 290.871 189.872 290.888 189.781 290.901C189.571 290.933 189.361 290.963 189.151 290.993C189.032 291.009 188.911 291.025 188.785 291.038C188.752 291.044 188.717 291.046 188.685 291.049C188.596 291.06 188.51 291.071 188.419 291.079C188.408 291.079 188.394 291.081 188.384 291.084C187.77 291.151 187.151 291.2 186.529 291.227C186.427 291.232 186.322 291.235 186.219 291.238L186.144 291.24C185.797 291.251 185.444 291.259 185.067 291.259C184.903 291.259 184.736 291.259 184.569 291.256C184.321 291.251 184.076 291.246 183.831 291.238H183.829C183.002 291.203 182.179 291.135 181.363 291.036C181.277 291.025 181.193 291.014 181.107 291.001L180.929 290.976C180.577 290.928 180.221 290.871 179.877 290.812C179.651 290.772 179.427 290.731 179.204 290.688C178.889 290.624 178.579 290.556 178.267 290.481C178.052 290.433 177.834 290.381 177.621 290.325C177.295 290.239 176.983 290.147 176.719 290.067L176.63 290.04C176.442 289.983 176.256 289.929 176.07 289.867C175.772 289.768 175.475 289.657 175.174 289.544L174.983 289.474C174.851 289.426 174.716 289.377 174.587 289.324C174.283 289.2 173.984 289.06 173.693 288.928L173.648 288.906C173.58 288.874 173.513 288.844 173.443 288.812C173.354 288.772 173.265 288.731 173.179 288.691C172.719 288.462 172.275 288.22 171.855 287.969L117.199 255.078L114.407 253.399C114.321 253.347 114.24 253.294 114.157 253.24C114.036 253.164 113.912 253.089 113.793 253.011C113.629 252.901 113.47 252.79 113.311 252.677C113.279 252.656 113.247 252.631 113.214 252.61C113.034 252.478 112.856 252.343 112.687 252.206C112.684 252.203 112.679 252.201 112.676 252.198C111.284 251.081 110.28 249.834 109.704 248.513C109.701 248.507 109.701 248.504 109.699 248.499C109.631 248.346 109.572 248.192 109.518 248.036C109.513 248.017 109.505 248.001 109.499 247.982C109.451 247.84 109.408 247.697 109.368 247.554C109.36 247.522 109.349 247.49 109.341 247.455C109.308 247.325 109.279 247.193 109.255 247.064C109.246 247.016 109.236 246.967 109.228 246.919C109.209 246.803 109.193 246.685 109.179 246.566C109.171 246.502 109.166 246.437 109.16 246.375C109.152 246.27 109.147 246.165 109.141 246.06C109.139 245.982 109.139 245.901 109.139 245.823C109.158 243.271 110.743 240.838 113.626 238.951ZM346.313 206.638C346.313 209.411 346.09 210.773 340.765 213.987L197.259 296.732C196.861 296.961 196.433 297.182 195.951 297.41C195.859 297.453 195.768 297.494 195.674 297.531C195.614 297.556 195.552 297.583 195.493 297.61L195.283 297.704C195.103 297.785 194.923 297.865 194.737 297.941C194.699 297.957 194.659 297.97 194.621 297.984L194.521 298.019C194.462 298.04 194.406 298.062 194.346 298.083L194.236 298.124C193.813 298.277 193.391 298.42 192.979 298.544L192.831 298.592C192.411 298.716 191.948 298.834 191.415 298.961L190.944 299.066C190.866 299.085 190.788 299.104 190.707 299.117C190.553 299.147 190.4 299.174 190.244 299.201L189.778 299.281C189.67 299.3 189.56 299.322 189.45 299.338C189.062 299.4 188.645 299.454 188.136 299.51C188.09 299.515 188.042 299.521 187.996 299.526C187.95 299.532 187.904 299.54 187.859 299.542C187.856 299.542 187.824 299.548 187.821 299.548C187.374 299.591 186.895 299.626 186.308 299.655C186.217 299.658 186.125 299.661 186.031 299.664L185.689 299.674C185.527 299.68 185.369 299.688 185.204 299.688C185.102 299.69 184.997 299.688 184.895 299.688C184.825 299.688 184.755 299.685 184.685 299.685H184.566C184.453 299.685 184.343 299.685 184.23 299.682C183.654 299.672 183.175 299.65 182.709 299.618C182.698 299.618 182.687 299.618 182.655 299.615C182.084 299.575 181.527 299.513 181.104 299.462C181.016 299.451 180.927 299.437 180.838 299.427L180.644 299.4C180.555 299.386 180.464 299.376 180.375 299.362C180.256 299.346 180.138 299.332 180.025 299.314C179.95 299.3 179.877 299.287 179.802 299.273C179.732 299.26 179.664 299.246 179.594 299.233C179.368 299.192 179.147 299.152 178.921 299.106C178.639 299.05 178.332 298.985 177.987 298.902C177.772 298.851 177.554 298.799 177.341 298.746C177.29 298.732 177.239 298.719 177.188 298.708C177.139 298.697 177.093 298.686 177.045 298.673C176.905 298.635 176.768 298.592 176.63 298.546L176.334 298.455C176.151 298.401 175.968 298.347 175.788 298.288C175.484 298.188 175.182 298.073 174.891 297.962L174.697 297.889C174.566 297.841 174.434 297.793 174.307 297.741C173.992 297.612 173.677 297.467 173.368 297.321C173.303 297.292 173.236 297.262 173.171 297.233C173.08 297.192 172.988 297.152 172.899 297.109C172.436 296.88 171.992 296.635 171.575 296.387L114.127 261.819C110.627 259.714 108.756 256.96 108.859 254.063L109.069 247.691C109.548 249.404 110.703 251.019 112.458 252.429C112.463 252.435 112.471 252.44 112.477 252.446C112.636 252.572 112.8 252.699 112.967 252.822C113.002 252.849 113.039 252.876 113.077 252.903C113.225 253.008 113.376 253.113 113.529 253.218C113.57 253.245 113.61 253.275 113.651 253.302C113.842 253.428 114.038 253.552 114.24 253.676L119.183 256.651L171.69 288.247C173.397 289.272 175.362 290.061 177.459 290.613C177.486 290.621 177.511 290.626 177.538 290.635C177.551 290.637 177.564 290.64 177.578 290.645C178.081 290.775 178.593 290.893 179.11 290.995C179.12 290.998 179.128 291.001 179.139 291.001C179.169 291.006 179.201 291.011 179.233 291.017C179.742 291.116 180.254 291.203 180.773 291.275C180.811 291.281 180.846 291.289 180.884 291.291L181.059 291.316C181.156 291.329 181.253 291.343 181.347 291.353C181.923 291.423 182.437 291.474 182.919 291.507C182.935 291.509 182.951 291.509 182.981 291.509C183.465 291.542 183.963 291.563 184.502 291.571C184.655 291.574 184.809 291.574 184.959 291.574C185.379 291.577 185.767 291.569 186.149 291.558L186.225 291.555C186.348 291.553 186.475 291.55 186.599 291.542C187.159 291.515 187.673 291.477 188.168 291.429C188.222 291.423 188.276 291.415 188.33 291.41C188.37 291.404 188.411 291.399 188.451 291.394C188.941 291.34 189.374 291.283 189.775 291.221C189.888 291.205 189.999 291.184 190.109 291.165C190.115 291.165 190.123 291.162 190.128 291.162C190.249 291.141 190.368 291.119 190.489 291.098C190.629 291.073 190.769 291.046 190.914 291.02C190.979 291.006 191.041 290.995 191.105 290.982C191.213 290.96 191.323 290.939 191.431 290.915L191.482 290.904C191.576 290.882 191.673 290.861 191.765 290.839C192.306 290.713 192.774 290.591 193.2 290.465C193.229 290.457 193.256 290.449 193.283 290.438L193.348 290.419C193.571 290.352 193.8 290.279 194.032 290.201C194.209 290.142 194.381 290.08 194.556 290.018C194.581 290.01 194.602 290.002 194.626 289.994C194.659 289.98 194.694 289.97 194.729 289.956C195.318 289.738 195.889 289.499 196.438 289.237C196.616 289.154 196.785 289.07 196.95 288.984C196.987 288.965 197.025 288.947 197.063 288.928C197.283 288.815 197.493 288.699 197.698 288.581L341.204 205.836L341.207 205.833C343.853 204.312 345.608 202.371 346.316 200.239V206.638H346.313Z" fill="#C7C7C7"/>
        <path d="M117.938 258.764C117.669 258.6 117.411 258.573 117.206 258.683C117.001 258.793 116.886 259.028 116.88 259.343C116.867 259.948 117.276 260.697 117.793 261.009C117.954 261.106 118.11 261.157 118.256 261.157C118.353 261.157 118.444 261.135 118.525 261.09C118.73 260.979 118.845 260.745 118.851 260.43C118.864 259.824 118.455 259.076 117.938 258.764ZM118.434 260.923C118.291 261.001 118.1 260.974 117.892 260.847C117.427 260.565 117.058 259.892 117.071 259.345C117.077 259.103 117.157 258.925 117.3 258.847C117.354 258.818 117.413 258.804 117.481 258.804C117.591 258.804 117.715 258.845 117.844 258.923C118.31 259.205 118.678 259.878 118.665 260.425C118.657 260.67 118.573 260.845 118.434 260.923Z" fill="#C7C7C7"/>
        <path d="M120.98 260.608C120.711 260.443 120.453 260.417 120.248 260.527C120.043 260.637 119.928 260.871 119.922 261.186C119.909 261.792 120.318 262.541 120.835 262.853C120.996 262.95 121.152 263.001 121.298 263.001C121.395 263.001 121.486 262.979 121.567 262.934C121.772 262.823 121.887 262.589 121.893 262.274C121.906 261.668 121.497 260.923 120.98 260.608ZM121.475 262.767C121.336 262.845 121.142 262.818 120.934 262.691C120.469 262.409 120.1 261.736 120.113 261.189C120.119 260.947 120.199 260.769 120.342 260.691C120.396 260.661 120.455 260.648 120.523 260.648C120.633 260.648 120.757 260.688 120.886 260.766C121.352 261.049 121.72 261.722 121.707 262.269C121.699 262.514 121.615 262.689 121.475 262.767Z" fill="#C7C7C7"/>
        <path d="M124.021 262.452C123.752 262.29 123.494 262.261 123.289 262.371C123.084 262.481 122.969 262.716 122.963 263.03C122.95 263.636 123.359 264.385 123.876 264.697C124.037 264.794 124.193 264.845 124.339 264.845C124.436 264.845 124.527 264.823 124.608 264.778C124.813 264.667 124.928 264.433 124.934 264.118C124.947 263.512 124.538 262.767 124.021 262.452ZM124.514 264.611C124.371 264.689 124.18 264.662 123.973 264.535C123.507 264.253 123.138 263.58 123.152 263.033C123.157 262.791 123.238 262.613 123.38 262.535C123.434 262.506 123.494 262.492 123.561 262.492C123.671 262.492 123.795 262.532 123.924 262.611C124.39 262.893 124.759 263.566 124.745 264.113C124.737 264.358 124.656 264.535 124.514 264.611Z" fill="#C7C7C7"/>
        <path d="M127.061 264.296C126.792 264.132 126.534 264.105 126.329 264.215C126.124 264.325 126.009 264.56 126.003 264.875C125.99 265.48 126.399 266.229 126.916 266.541C127.077 266.638 127.234 266.689 127.379 266.689C127.476 266.689 127.567 266.667 127.648 266.622C127.853 266.511 127.968 266.277 127.974 265.962C127.987 265.356 127.578 264.611 127.061 264.296ZM127.557 266.457C127.414 266.536 127.223 266.509 127.015 266.382C126.55 266.099 126.181 265.426 126.194 264.88C126.2 264.638 126.281 264.46 126.423 264.382C126.477 264.352 126.536 264.339 126.604 264.339C126.714 264.339 126.838 264.379 126.967 264.457C127.433 264.74 127.802 265.413 127.788 265.959C127.78 266.202 127.699 266.379 127.557 266.457Z" fill="#C7C7C7"/>
        <path d="M130.103 266.14C129.834 265.978 129.576 265.949 129.371 266.059C129.166 266.169 129.051 266.404 129.045 266.719C129.032 267.324 129.441 268.07 129.958 268.385C130.119 268.482 130.276 268.533 130.421 268.533C130.518 268.533 130.609 268.511 130.69 268.466C130.895 268.355 131.01 268.121 131.016 267.806C131.029 267.203 130.62 266.455 130.103 266.14ZM130.599 268.302C130.456 268.38 130.265 268.353 130.057 268.226C129.592 267.943 129.223 267.27 129.236 266.724C129.242 266.482 129.323 266.304 129.465 266.226C129.519 266.196 129.578 266.183 129.646 266.183C129.756 266.183 129.88 266.223 130.009 266.301C130.475 266.584 130.844 267.257 130.83 267.804C130.822 268.046 130.741 268.223 130.599 268.302Z" fill="#C7C7C7"/>
        <path d="M152.295 279.465C152.025 279.301 151.767 279.274 151.562 279.385C151.358 279.495 151.242 279.729 151.237 280.044C151.223 280.65 151.632 281.398 152.149 281.71C152.311 281.807 152.467 281.859 152.612 281.859C152.709 281.859 152.801 281.837 152.881 281.791C153.086 281.681 153.202 281.447 153.207 281.132C153.221 280.529 152.811 279.78 152.295 279.465ZM152.79 281.627C152.647 281.705 152.456 281.678 152.249 281.552C151.783 281.269 151.414 280.596 151.428 280.049C151.433 279.807 151.514 279.63 151.657 279.551C151.71 279.522 151.77 279.508 151.837 279.508C151.947 279.508 152.071 279.549 152.2 279.627C152.666 279.909 153.035 280.583 153.021 281.129C153.013 281.371 152.933 281.549 152.79 281.627Z" fill="#C7C7C7"/>
        <path d="M155.337 281.309C155.067 281.145 154.809 281.118 154.604 281.229C154.4 281.339 154.284 281.573 154.279 281.888C154.265 282.494 154.674 283.239 155.191 283.554C155.353 283.651 155.509 283.702 155.654 283.702C155.751 283.702 155.843 283.681 155.923 283.635C156.128 283.525 156.244 283.291 156.249 282.976C156.263 282.373 155.853 281.624 155.337 281.309ZM155.832 283.471C155.689 283.549 155.498 283.522 155.291 283.396C154.825 283.113 154.456 282.44 154.47 281.893C154.475 281.651 154.556 281.474 154.699 281.395C154.752 281.366 154.812 281.352 154.879 281.352C154.989 281.352 155.113 281.393 155.242 281.471C155.708 281.753 156.077 282.426 156.063 282.973C156.055 283.215 155.972 283.393 155.832 283.471Z" fill="#C7C7C7"/>
        <path d="M158.381 283.156C158.111 282.992 157.853 282.965 157.648 283.075C157.444 283.186 157.328 283.42 157.323 283.735C157.309 284.341 157.718 285.089 158.235 285.401C158.397 285.498 158.553 285.549 158.698 285.549C158.795 285.549 158.887 285.528 158.967 285.482C159.172 285.372 159.288 285.137 159.293 284.822C159.307 284.217 158.897 283.468 158.381 283.156ZM158.876 285.315C158.733 285.393 158.542 285.366 158.335 285.24C157.869 284.957 157.5 284.284 157.514 283.738C157.519 283.495 157.6 283.318 157.743 283.24C157.796 283.21 157.856 283.196 157.923 283.196C158.033 283.196 158.157 283.237 158.286 283.315C158.752 283.598 159.121 284.271 159.107 284.817C159.097 285.062 159.016 285.237 158.876 285.315Z" fill="#C7C7C7"/>
        <path d="M161.421 285C161.151 284.836 160.893 284.809 160.688 284.919C160.484 285.03 160.368 285.264 160.363 285.579C160.349 286.185 160.758 286.933 161.275 287.245C161.437 287.342 161.593 287.393 161.738 287.393C161.835 287.393 161.927 287.372 162.007 287.326C162.212 287.216 162.328 286.981 162.333 286.666C162.349 286.061 161.94 285.315 161.421 285ZM161.916 287.159C161.773 287.237 161.582 287.21 161.372 287.084C160.906 286.801 160.538 286.128 160.551 285.582C160.556 285.339 160.637 285.162 160.78 285.084C160.834 285.054 160.893 285.04 160.96 285.04C161.071 285.04 161.194 285.081 161.324 285.159C161.789 285.442 162.158 286.115 162.145 286.661C162.139 286.906 162.059 287.081 161.916 287.159Z" fill="#C7C7C7"/>
        <path d="M164.461 286.844C164.191 286.683 163.933 286.653 163.728 286.763C163.524 286.874 163.408 287.108 163.403 287.423C163.389 288.029 163.798 288.774 164.315 289.089C164.477 289.186 164.633 289.237 164.778 289.237C164.875 289.237 164.967 289.216 165.047 289.17C165.252 289.06 165.368 288.825 165.373 288.511C165.387 287.905 164.977 287.159 164.461 286.844ZM164.956 289.003C164.813 289.081 164.622 289.054 164.415 288.928C163.949 288.645 163.58 287.972 163.594 287.426C163.599 287.183 163.68 287.006 163.823 286.928C163.876 286.898 163.936 286.885 164.003 286.885C164.113 286.885 164.237 286.925 164.366 287.003C164.832 287.286 165.201 287.959 165.187 288.505C165.179 288.75 165.099 288.928 164.956 289.003Z" fill="#C7C7C7"/>
        <path d="M146.177 275.863L135.882 269.605C135.702 269.494 135.519 269.478 135.371 269.559C135.199 269.653 135.094 269.868 135.088 270.151C135.077 270.652 135.371 271.244 135.745 271.47L146.039 277.729C146.144 277.794 146.249 277.826 146.349 277.826C146.422 277.826 146.489 277.81 146.551 277.775C146.723 277.681 146.828 277.465 146.833 277.183C146.847 276.685 146.551 276.092 146.177 275.863ZM146.462 277.611C146.352 277.672 146.225 277.621 146.139 277.57L135.845 271.311C135.527 271.117 135.269 270.59 135.279 270.159C135.285 269.946 135.352 269.79 135.465 269.728C135.503 269.709 135.54 269.701 135.578 269.701C135.656 269.701 135.732 269.734 135.788 269.769L146.082 276.028C146.4 276.219 146.658 276.749 146.648 277.18C146.642 277.393 146.575 277.549 146.462 277.611Z" fill="#C7C7C7"/>
        <path d="M218.694 205.537L234.348 214.574C234.779 214.825 235.344 214.948 235.91 214.948C236.475 214.948 237.04 214.825 237.468 214.574L253.02 205.537C253.464 205.279 253.707 204.926 253.707 204.546C253.707 204.161 253.459 203.809 253.009 203.548L237.355 194.511C236.491 194.013 235.091 194.013 234.235 194.511L218.684 203.548C218.239 203.806 217.997 204.156 217.997 204.538C218 204.923 218.247 205.279 218.694 205.537ZM218.842 203.82L234.394 194.782C234.779 194.559 235.288 194.446 235.794 194.446C236.303 194.446 236.812 194.559 237.199 194.782L252.853 203.82C253.201 204.019 253.392 204.277 253.392 204.544C253.392 204.808 253.203 205.063 252.861 205.263L237.31 214.3C236.54 214.746 235.28 214.749 234.505 214.3L218.85 205.263C218.503 205.063 218.312 204.805 218.312 204.538C218.315 204.275 218.5 204.019 218.842 203.82Z" fill="#C7C7C7"/>
        <path d="M194.769 218.039C194.769 218.424 195.016 218.779 195.466 219.037L211.12 228.075C211.553 228.325 212.119 228.449 212.684 228.449C213.247 228.449 213.809 228.325 214.237 228.077L229.794 219.037C230.239 218.779 230.481 218.426 230.481 218.047C230.481 217.662 230.233 217.309 229.784 217.048L214.13 208.011C213.265 207.513 211.866 207.513 211.009 208.011L195.452 217.051C195.011 217.307 194.769 217.656 194.769 218.039ZM211.166 208.283C211.551 208.059 212.059 207.946 212.565 207.946C213.072 207.946 213.583 208.059 213.971 208.283L229.625 217.32C229.972 217.519 230.163 217.778 230.163 218.044C230.163 218.308 229.975 218.564 229.633 218.763L214.076 227.803C213.319 228.241 212.038 228.241 211.273 227.8L195.619 218.763C195.272 218.564 195.081 218.305 195.081 218.036C195.081 217.772 195.267 217.519 195.606 217.32L211.166 208.283Z" fill="#C7C7C7"/>
        <path d="M237.811 221.681C236.95 221.183 235.553 221.186 234.694 221.684L219.137 230.724C218.695 230.979 218.453 231.332 218.453 231.711C218.453 232.096 218.701 232.449 219.145 232.708L234.802 241.747C235.235 241.998 235.8 242.121 236.366 242.121C236.928 242.121 237.491 241.998 237.919 241.75L253.476 232.71C253.918 232.454 254.16 232.102 254.16 231.72C254.16 231.335 253.912 230.979 253.465 230.721L237.811 221.681ZM253.848 231.72C253.848 231.986 253.662 232.239 253.32 232.438L237.763 241.478C237.006 241.917 235.725 241.917 234.963 241.475L219.306 232.436C218.962 232.236 218.771 231.981 218.771 231.714C218.771 231.45 218.957 231.195 219.296 230.998L234.853 221.958C235.232 221.738 235.744 221.627 236.255 221.627C236.764 221.627 237.273 221.738 237.653 221.956L253.309 230.995C253.657 231.195 253.848 231.453 253.848 231.72Z" fill="#C7C7C7"/>
        <path d="M230.238 244.221L214.579 235.181C213.718 234.683 212.32 234.686 211.462 235.184L195.904 244.224C195.463 244.48 195.221 244.832 195.221 245.212C195.221 245.597 195.468 245.95 195.913 246.208L211.569 255.248C212.003 255.498 212.568 255.622 213.133 255.622C213.696 255.622 214.259 255.498 214.687 255.25L230.244 246.211C230.685 245.955 230.928 245.602 230.928 245.22C230.93 244.835 230.683 244.48 230.238 244.221ZM230.09 245.939L214.533 254.979C213.777 255.417 212.495 255.417 211.731 254.976L196.074 245.936C195.729 245.737 195.538 245.481 195.538 245.215C195.538 244.951 195.724 244.695 196.063 244.499L211.62 235.459C212 235.238 212.512 235.128 213.023 235.128C213.532 235.128 214.043 235.238 214.42 235.456L230.077 244.496C230.422 244.695 230.613 244.954 230.613 245.22C230.615 245.487 230.43 245.742 230.09 245.939Z" fill="#C7C7C7"/>
        <path d="M148.307 245.043C148.307 245.427 148.554 245.783 149.001 246.039L164.655 255.076C165.086 255.326 165.654 255.45 166.217 255.45C166.782 255.45 167.347 255.326 167.775 255.076L183.332 246.036C183.774 245.78 184.016 245.43 184.016 245.048C184.016 244.663 183.769 244.308 183.319 244.049L167.665 235.012C166.801 234.514 165.404 234.511 164.548 235.009L148.99 244.049C148.549 244.308 148.304 244.66 148.307 245.043ZM164.704 235.284C165.081 235.066 165.589 234.956 166.098 234.956C166.61 234.956 167.121 235.066 167.503 235.287L183.158 244.324C183.505 244.523 183.696 244.781 183.696 245.051C183.696 245.314 183.51 245.567 183.171 245.767L167.614 254.806C166.857 255.248 165.571 255.245 164.809 254.806L149.155 245.769C148.807 245.57 148.619 245.312 148.619 245.045C148.619 244.779 148.805 244.523 149.147 244.326L164.704 235.284Z" fill="#C7C7C7"/>
        <path d="M207.003 257.724L191.346 248.685C190.485 248.187 189.09 248.187 188.234 248.685L172.677 257.724C172.235 257.98 171.99 258.333 171.993 258.718C171.993 259.103 172.238 259.455 172.682 259.711L188.339 268.751C188.77 269.001 189.338 269.125 189.9 269.125C190.466 269.125 191.031 269.001 191.459 268.751L207.016 259.711C207.455 259.455 207.697 259.105 207.697 258.723C207.697 258.338 207.45 257.983 207.003 257.724ZM206.857 259.439L191.3 268.479C190.544 268.921 189.257 268.921 188.495 268.479L172.838 259.439C172.494 259.24 172.305 258.984 172.305 258.718C172.305 258.451 172.494 258.196 172.833 257.999L188.39 248.959C188.767 248.739 189.276 248.631 189.787 248.631C190.299 248.631 190.808 248.741 191.187 248.959L206.844 257.999C207.191 258.198 207.382 258.457 207.382 258.726C207.382 258.99 207.197 259.243 206.857 259.439Z" fill="#C7C7C7"/>
        <path d="M124.988 232.242L141.512 241.783C141.808 241.955 142.142 242.038 142.473 242.038C142.804 242.038 143.138 241.952 143.434 241.783L159.958 232.242C160.359 232.011 160.598 231.596 160.598 231.133V228.969C160.598 228.969 160.598 228.969 160.598 228.966C160.598 228.503 160.359 228.091 159.958 227.859L143.434 218.319C142.842 217.977 142.104 217.977 141.512 218.319L124.988 227.859C124.587 228.091 124.348 228.506 124.348 228.969V231.133C124.35 231.596 124.59 232.011 124.988 232.242ZM159.802 231.967L143.278 241.508C143.098 241.613 142.901 241.678 142.702 241.704V239.858C142.958 239.828 143.208 239.747 143.437 239.615L159.96 230.075C160.087 230.002 160.195 229.911 160.286 229.806V231.13C160.283 231.483 160.103 231.795 159.802 231.967ZM125.147 228.134L141.671 218.594C142.166 218.308 142.783 218.308 143.278 218.594L159.802 228.134C160.103 228.309 160.283 228.621 160.283 228.969C160.283 229.316 160.103 229.631 159.802 229.803L143.278 239.344C142.783 239.629 142.166 239.629 141.671 239.344L125.147 229.803C124.846 229.631 124.665 229.318 124.665 228.971V228.969C124.665 228.619 124.846 228.306 125.147 228.134ZM124.665 229.808C124.757 229.913 124.865 230.005 124.991 230.078L141.515 239.618C141.784 239.774 142.085 239.855 142.39 239.869V241.718C142.142 241.704 141.897 241.637 141.673 241.508L125.15 231.967C124.848 231.792 124.668 231.48 124.668 231.133V229.808H124.665Z" fill="#C7C7C7"/>
        <path d="M170.572 207.416L187.096 216.957C187.392 217.126 187.723 217.212 188.054 217.212C188.057 217.212 188.057 217.212 188.06 217.212C188.062 217.212 188.062 217.212 188.065 217.212C188.396 217.212 188.727 217.126 189.021 216.957L205.544 207.416C205.945 207.185 206.185 206.77 206.185 206.307V204.143C206.185 204.143 206.185 204.143 206.185 204.14C206.185 203.677 205.945 203.265 205.544 203.033L189.021 193.493C188.428 193.151 187.691 193.151 187.096 193.493L170.572 203.033C170.171 203.265 169.934 203.677 169.932 204.14C169.932 204.14 169.932 204.14 169.932 204.143V206.307C169.932 206.77 170.171 207.185 170.572 207.416ZM205.385 207.144L188.862 216.685C188.66 216.8 188.439 216.868 188.216 216.889V215.04C188.496 215.018 188.77 214.938 189.021 214.792L205.544 205.252C205.671 205.179 205.779 205.088 205.87 204.983V206.307C205.867 206.657 205.687 206.969 205.385 207.144ZM170.731 203.308L187.255 193.768C187.75 193.482 188.367 193.482 188.862 193.768L205.385 203.308C205.687 203.483 205.867 203.795 205.867 204.143C205.867 204.49 205.687 204.805 205.385 204.977L188.862 214.518C188.367 214.803 187.75 214.803 187.255 214.518L170.731 204.977C170.43 204.802 170.249 204.49 170.249 204.143C170.247 203.795 170.427 203.483 170.731 203.308ZM170.247 204.983C170.338 205.088 170.446 205.179 170.572 205.252L187.096 214.792C187.346 214.938 187.621 215.016 187.901 215.04V216.889C187.677 216.868 187.457 216.8 187.255 216.685L170.731 207.144C170.43 206.969 170.249 206.657 170.249 206.31V204.983H170.247Z" fill="#C7C7C7"/>
        <path d="M190.804 242.507L207.328 232.966C207.729 232.735 207.968 232.32 207.968 231.857V229.693C207.968 229.23 207.729 228.815 207.328 228.584L190.804 219.043C190.212 218.701 189.474 218.701 188.879 219.043L172.356 228.584C171.954 228.815 171.718 229.227 171.715 229.69C171.715 229.69 171.715 229.69 171.715 229.693V231.857C171.715 232.32 171.954 232.735 172.356 232.966L188.879 242.507C189.175 242.679 189.509 242.762 189.84 242.762C190.174 242.765 190.508 242.679 190.804 242.507ZM207.651 231.86C207.651 232.21 207.47 232.522 207.169 232.694L190.645 242.235C190.443 242.351 190.222 242.418 189.999 242.439V240.59C190.279 240.568 190.554 240.488 190.804 240.342L207.328 230.802C207.454 230.729 207.562 230.638 207.653 230.533V231.86H207.651ZM172.514 228.861L189.038 219.32C189.533 219.035 190.15 219.035 190.645 219.32L207.169 228.861C207.47 229.036 207.651 229.345 207.651 229.695V229.701C207.648 230.048 207.47 230.358 207.169 230.533L190.645 240.073C190.15 240.358 189.533 240.358 189.038 240.073L172.514 230.533C172.213 230.358 172.032 230.045 172.032 229.698C172.032 229.345 172.213 229.033 172.514 228.861ZM172.514 232.694C172.213 232.519 172.032 232.207 172.032 231.86V230.535C172.124 230.64 172.232 230.732 172.358 230.804L188.882 240.345C189.132 240.49 189.407 240.568 189.687 240.593V242.442C189.463 242.421 189.243 242.353 189.041 242.237L172.514 232.694Z" fill="#C7C7C7"/>
        <path d="M176.74 155.283C177.068 155.474 177.469 155.576 177.929 155.592C177.962 155.592 177.991 155.595 178.021 155.595C178.452 155.595 178.85 155.49 179.208 155.283C179.58 155.067 179.765 154.795 179.757 154.475C179.752 154.155 179.558 153.886 179.184 153.67C178.837 153.471 178.422 153.369 177.948 153.369C177.474 153.369 177.063 153.468 176.721 153.667C176.298 153.912 176.102 154.198 176.142 154.518C176.182 154.817 176.381 155.075 176.74 155.283ZM176.882 153.937C177.176 153.767 177.536 153.681 177.954 153.681C178.371 153.681 178.734 153.767 179.033 153.939C179.308 154.098 179.445 154.273 179.448 154.478C179.453 154.68 179.324 154.852 179.055 155.005C178.724 155.197 178.344 155.291 177.943 155.275C177.534 155.261 177.184 155.17 176.898 155.005C176.626 154.849 176.484 154.674 176.46 154.472C176.435 154.295 176.578 154.112 176.882 153.937Z" fill="#C7C7C7"/>
        <path d="M259.39 177.325C259.487 177.57 259.649 177.769 259.85 177.882C259.996 177.963 260.217 177.968 260.37 177.887L263.318 176.315C263.326 176.313 263.331 176.307 263.339 176.302C263.388 176.275 263.428 176.237 263.463 176.189L270.325 165.841L275.881 180.087L273.408 178.698C272.818 178.356 272.239 178.286 271.771 178.501L268.688 180.189C268.686 180.189 268.686 180.192 268.683 180.195C268.53 180.283 268.398 180.394 268.29 180.507L266.072 182.752C266.066 182.757 266.061 182.765 266.056 182.774C265.792 183.153 265.759 183.643 265.972 184.055C266.083 184.268 266.249 184.443 266.457 184.564L278.695 191.571C279.131 191.851 279.693 191.899 279.774 191.891C280.313 191.832 280.627 191.593 280.638 191.584L283.007 190.276C283.061 190.247 286.095 186.025 286.574 185.328C286.585 185.32 286.596 185.309 286.604 185.296C287.029 184.693 287.034 183.662 286.623 182.601L278.485 161.73C278.116 160.782 277.489 160.004 276.495 159.27L269.501 155.266C269.071 155.019 268.513 155.038 268.085 155.312C268.045 155.336 265.824 156.494 265.811 156.497C265.689 156.534 265.488 156.72 265.299 156.989L257.167 168.457C257.008 168.686 256.903 168.95 256.841 169.647C256.841 170.116 256.949 170.635 257.148 171.147L259.39 177.325ZM263.202 176.011C263.197 176.017 263.191 176.025 263.172 176.033C263.162 176.038 263.154 176.043 263.146 176.049L260.777 177.311L268.993 164.92C269.114 164.737 269.316 164.643 269.531 164.667C269.749 164.691 269.924 164.826 270.005 165.028L270.182 165.48L263.202 176.011ZM271.911 178.789C272.274 178.622 272.751 178.687 273.251 178.978L276.062 180.555L277.023 183.021C277.117 183.263 277.012 183.468 276.886 183.578C276.756 183.689 276.538 183.764 276.312 183.635L270.398 180.316C270.121 180.154 269.867 180.068 269.639 180.028L271.911 178.789ZM269.345 155.541L276.323 159.536C277.249 160.225 277.844 160.96 278.191 161.848L286.329 182.72C286.703 183.681 286.711 184.599 286.348 185.118C286.345 185.121 286.343 185.126 286.34 185.129C286.337 185.132 286.337 185.134 286.335 185.137C286.076 185.503 283.091 189.657 282.824 190.02L281.039 191.006C281.484 190.389 282.154 189.458 282.426 189.081C283.578 187.479 283.99 186.906 284.135 186.68C284.149 186.669 284.162 186.655 284.173 186.642C284.598 186.039 284.604 185.008 284.192 183.947L276.054 163.076C275.685 162.128 275.058 161.35 274.064 160.616L267.049 156.602C266.847 156.502 266.807 156.505 266.626 156.483C266.613 156.481 268.209 155.611 268.255 155.581C268.589 155.366 269.017 155.353 269.345 155.541ZM257.425 168.64L265.558 157.172C265.846 156.761 266.333 156.623 266.914 156.884L273.892 160.877C274.818 161.566 275.413 162.301 275.76 163.189L283.898 184.06C284.272 185.021 284.281 185.939 283.917 186.459C283.914 186.462 283.914 186.464 283.912 186.467C283.909 186.472 283.906 186.475 283.904 186.48C283.632 186.868 280.571 191.121 280.383 191.377C280.199 191.531 279.712 191.724 278.851 191.299L266.613 184.292C266.459 184.203 266.333 184.071 266.252 183.912C266.096 183.608 266.118 183.247 266.306 182.965L268.516 180.728C268.974 180.24 269.555 180.195 270.242 180.59L276.156 183.91C276.46 184.082 276.826 184.047 277.09 183.818C277.354 183.589 277.443 183.234 277.316 182.908L270.298 164.92C270.177 164.61 269.897 164.395 269.566 164.36C269.238 164.325 268.915 164.476 268.731 164.753L260.192 177.629C260.192 177.629 260.192 177.629 260.192 177.632C260.192 177.632 260.112 177.691 260.007 177.616C259.877 177.524 259.754 177.392 259.684 177.22L257.441 171.044C257.253 170.565 257.153 170.086 257.153 169.671C257.21 169.052 257.296 168.823 257.425 168.64Z" fill="#C7C7C7"/>
        <path opacity="0.3" d="M141.495 239.553L124.853 229.946C124.1 229.51 124.1 228.422 124.853 227.989L141.495 218.381C142.045 218.063 142.723 218.063 143.275 218.381L159.914 227.989C160.668 228.425 160.668 229.512 159.914 229.946L143.275 239.553C142.726 239.871 142.047 239.871 141.495 239.553Z" fill="#C5C5C5"/>
        <path opacity="0.3" d="M187.181 214.564L170.802 205.107C170.062 204.678 170.062 203.607 170.802 203.179L187.181 193.725C187.722 193.412 188.389 193.412 188.93 193.725L205.309 203.179C206.049 203.607 206.049 204.678 205.309 205.107L188.93 214.564C188.389 214.876 187.722 214.876 187.181 214.564Z" fill="#C5C5C5"/>
        <path opacity="0.3" d="M165.387 255.224L149.006 245.952C148.281 245.535 148.381 244.604 149.105 244.187L165.387 234.904C165.914 234.6 166.566 234.6 167.093 234.904L183.062 244.125C183.786 244.542 183.786 245.586 183.062 246.004L167.093 255.224C166.566 255.528 165.917 255.528 165.387 255.224Z" fill="#C5C5C5"/>
        <path opacity="0.3" d="M174.492 157.178L163.705 150.951C162.798 150.426 163.207 149.535 164.443 149.347L179.117 147.101L193.791 144.856C195.027 144.668 196.16 145.322 195.834 146.035L191.944 154.507L188.054 162.979C187.726 163.692 186.183 163.929 185.276 163.404L174.492 157.178Z" fill="#C5C5C5"/>
        <path opacity="0.3" d="M100.142 54.9026L103.394 55.4841L106.772 55.7667L110.875 55.6483L114.633 55.1691V137.994V142.474C114.633 144.463 111.389 146.076 107.389 146.076C103.388 146.076 100.144 144.463 100.144 142.474V138.194V54.9026H100.142Z" fill="#C5C5C5"/>
        <path opacity="0.3" d="M260.029 177.726C259.859 177.629 259.722 177.457 259.639 177.249L257.412 171.117C257.219 170.624 257.116 170.126 257.116 169.682C257.173 169.052 257.264 168.802 257.412 168.589L265.494 157.194C265.825 156.723 266.393 156.607 267.047 156.86L273.998 160.839C275.021 161.598 275.578 162.365 275.906 163.205L283.993 183.944C284.384 184.949 284.384 185.918 283.993 186.475C283.999 186.467 283.999 186.464 284.001 186.464C284.007 186.467 280.529 191.304 280.469 191.377C280.254 191.568 279.953 191.652 279.608 191.619C279.086 191.496 278.919 191.423 278.755 191.329L266.595 184.364C266.414 184.262 266.269 184.109 266.175 183.923C265.992 183.568 266.019 183.139 266.248 182.811L268.45 180.579C268.937 180.063 269.572 179.963 270.356 180.415L276.235 183.713C276.768 184.017 277.387 183.481 277.164 182.911L270.191 165.036C269.979 164.486 269.236 164.408 268.91 164.898L260.422 177.699C260.336 177.812 260.196 177.823 260.029 177.726Z" fill="#C5C5C5"/>
        <g opacity="0.3">
            <path d="M290.16 203.736L295.243 200.675C296.309 199.989 296.583 198.756 296.583 197.017V159.31C296.583 157.824 296.22 156.128 295.482 154.739L289.102 158.545H289.097C289.815 159.918 290.26 161.499 290.26 162.963V200.667C290.26 202.108 290.149 203.276 289.63 203.89C289.425 204.132 289.772 203.911 289.772 203.911L290.16 203.736Z" fill="#C5C5C5"/>
        </g>
        <g opacity="0.3">
            <path d="M139.377 150.922C139.625 151.724 139.334 152.663 138.511 153.143L110.441 169.348C109.978 169.618 109.458 169.75 108.941 169.75V173.397C109.458 173.397 109.978 173.292 110.441 173.026L138.511 156.82C139.146 156.454 139.463 155.81 139.463 155.17V151.492" fill="#C5C5C5"/>
        </g>
        <g opacity="0.3">
            <path d="M132.255 144.221C132.255 144.725 132.005 145.231 131.507 145.519L109.467 158.244C109.104 158.454 108.698 158.559 108.291 158.559V162.513C108.698 162.513 109.104 162.408 109.467 162.198L131.507 149.473C132.005 149.185 132.255 148.682 132.255 148.178V144.221Z" fill="#C5C5C5"/>
        </g>
    </g>
    <defs>
        <clipPath id="clip0_42204_119803">
            <rect width="390" height="300" fill="white"/>
        </clipPath>
    </defs>
</svg>
