<svg width="16" height="16" viewBox="0 0 16 16" fill="none" xmlns="http://www.w3.org/2000/svg">
<path d="M8.00025 9.2114C8.3291 9.2114 8.59816 8.94224 8.59816 8.61327V3.70262C8.59816 3.37365 8.3291 3.10449 8.00025 3.10449C7.6714 3.10449 7.40234 3.37365 7.40234 3.70262V8.61327C7.40234 8.94822 7.6714 9.2114 8.00025 9.2114Z" fill="#BDBDBD"/>
<path d="M8.33476 12.4342C8.78016 12.2496 8.99171 11.7389 8.80726 11.2935C8.62282 10.848 8.11222 10.6365 7.66682 10.8211C7.22142 11.0057 7.00987 11.5164 7.19432 11.9618C7.37877 12.4073 7.88936 12.6188 8.33476 12.4342Z" fill="#BDBDBD"/>
<path d="M8.00037 0.00585938C3.59379 0.00585938 0.00634766 3.58866 0.00634766 7.99689C0.00634766 12.4051 3.59379 15.9939 8.00037 15.9939C12.4069 15.9939 15.9944 12.4051 15.9944 7.99689C15.9944 3.58866 12.4069 0.00585938 8.00037 0.00585938ZM8.00037 14.8754C4.20964 14.8754 1.13041 11.789 1.13041 8.00287C1.13041 4.21072 4.20964 1.13035 8.00037 1.13035C11.7911 1.13035 14.8703 4.2167 14.8703 8.00287C14.8703 11.789 11.7911 14.8754 8.00037 14.8754Z" fill="#BDBDBD"/>
</svg>
