<svg width="16" height="16" viewBox="0 0 16 16" fill="none" xmlns="http://www.w3.org/2000/svg">
<path d="M12.0536 1.29102H4.04168C2.24796 1.29102 0.789062 2.75046 0.789062 4.54485V13.8039C0.789062 14.1209 0.962455 14.414 1.24347 14.5635C1.37501 14.6353 1.51253 14.6712 1.65603 14.6712C1.81746 14.6712 1.98488 14.6234 2.12837 14.5336L5.72777 12.2129H12.0536C13.8474 12.2129 15.3062 10.7534 15.3062 8.95905V4.55083C15.3062 2.75045 13.8474 1.29102 12.0536 1.29102ZM14.1822 8.95905C14.1822 10.1374 13.2255 11.0944 12.0536 11.0944H5.65005C5.48263 11.0944 5.3212 11.1422 5.18368 11.232L1.91313 13.3374V4.55083C1.91313 3.37251 2.86978 2.4155 4.04168 2.4155H12.0477C13.2255 2.4155 14.1762 3.37251 14.1762 4.55083V8.95905H14.1822Z" fill="#BDBDBD"/>
</svg>
