<svg width="16" height="16" viewBox="0 0 16 16" fill="none" xmlns="http://www.w3.org/2000/svg">
<path d="M13.9432 12.8052L13.3872 12.2489V8.25338C13.3872 7.77488 13.1779 7.3203 12.8012 7.01525L12 6.35133V3.25899C12 2.24815 11.1809 1.42871 10.1704 1.42871H5.96715C4.95669 1.42871 4.13756 2.24815 4.13756 3.25899V6.33936L3.3244 7.00927C2.9537 7.31432 2.73845 7.7689 2.73845 8.2474V12.2549L2.18838 12.8052C1.96715 13.0265 1.96715 13.3794 2.18838 13.6007C2.296 13.7083 2.4395 13.7681 2.583 13.7681C2.7265 13.7681 2.86999 13.7143 2.97762 13.6007L6.20034 10.3767C6.42156 10.1554 6.42156 9.80254 6.20034 9.58123C5.97911 9.35993 5.62635 9.35993 5.40512 9.58123L3.85654 11.1304V8.25338C3.85654 8.10983 3.92231 7.97226 4.02993 7.87656L4.90288 7.16479H11.2287L12.0897 7.87656C12.2033 7.97226 12.2691 8.10385 12.2691 8.25338V11.1244L10.7205 9.57525C10.4993 9.35394 10.1465 9.35394 9.9253 9.57525C9.70408 9.79656 9.70408 10.1495 9.9253 10.3708L13.154 13.6007C13.2616 13.7083 13.4051 13.7681 13.5486 13.7681C13.6921 13.7681 13.8356 13.7143 13.9432 13.6007C14.1645 13.3794 14.1645 13.0265 13.9432 12.8052ZM5.96715 2.5532H10.1704C10.5591 2.5532 10.876 2.87021 10.876 3.25899V6.0403H5.26162V3.25899C5.26162 2.87021 5.57852 2.5532 5.96715 2.5532Z" fill="#BDBDBD"/>
<path d="M9.40498 11.4121C9.18376 11.1908 8.83099 11.1908 8.60977 11.4121C8.38854 11.6334 8.38854 11.9863 8.60977 12.2076L11.0731 14.6719C11.1808 14.7796 11.3243 14.8394 11.4678 14.8394C11.6113 14.8394 11.7548 14.7855 11.8624 14.6719C12.0836 14.4506 12.0836 14.0977 11.8624 13.8764L9.40498 11.4121Z" fill="#BDBDBD"/>
<path d="M6.72684 11.4236L4.26944 13.8759C4.04821 14.0972 4.04821 14.4501 4.26944 14.6714C4.37706 14.7791 4.52056 14.8389 4.66405 14.8389C4.80755 14.8389 4.95105 14.7851 5.05867 14.6714L7.51607 12.2131C7.7373 11.9918 7.7373 11.6389 7.51607 11.4176C7.30083 11.2023 6.94208 11.2023 6.72684 11.4236Z" fill="#BDBDBD"/>
</svg>
