<svg width="12" height="12" viewBox="0 0 12 12" fill="none" xmlns="http://www.w3.org/2000/svg">
<path d="M9.64567 4.75559L9.02235 4.24418V1.71409C9.02235 1.18026 8.58738 0.745117 8.05374 0.745117H3.95509C3.42146 0.745117 2.98648 1.18026 2.98648 1.71409V4.23521L2.35419 4.75559C2.07168 4.98886 1.90576 5.33428 1.90576 5.70213V8.15596C1.90576 9.31783 2.73087 10.3317 3.87437 10.5649C3.90128 10.5694 3.93267 10.5739 3.95957 10.5739C4.15688 10.5739 4.33177 10.4348 4.37213 10.2375C4.41697 10.0087 4.27347 9.78437 4.04029 9.73951C3.29141 9.58699 2.74881 8.92306 2.74881 8.16044V5.70661C2.74881 5.58998 2.79814 5.48231 2.88782 5.41054L3.55599 4.85876H8.43491L9.10307 5.41054C9.19276 5.48231 9.24208 5.58998 9.24208 5.70661V8.16044C9.24208 8.85129 8.80262 9.46138 8.14791 9.68568C7.92818 9.76194 7.80711 9.9997 7.88334 10.224C7.94164 10.3989 8.10755 10.5111 8.28244 10.5111C8.32729 10.5111 8.37213 10.5021 8.41697 10.4887C9.41249 10.1477 10.0851 9.21465 10.0851 8.16493V5.7111C10.0896 5.33428 9.92818 4.98886 9.64567 4.75559ZM3.82953 1.71409C3.82953 1.6468 3.88782 1.58848 3.95509 1.58848H8.05374C8.12101 1.58848 8.1793 1.6468 8.1793 1.71409V4.01091H3.82953V1.71409Z" fill="#9E9E9E"/>
<path d="M6.87445 6.15039C6.64127 6.15039 6.45293 6.3388 6.45293 6.57207V9.29506C6.45293 9.8917 5.96862 10.3762 5.37221 10.3762C5.13902 10.3762 4.95068 10.5646 4.95068 10.7979C4.95068 11.0311 5.13902 11.2195 5.37221 11.2195C6.43499 11.2195 7.30046 10.3538 7.30046 9.29058V6.56759C7.29598 6.3388 7.10764 6.15039 6.87445 6.15039Z" fill="#9E9E9E"/>
</svg>
