<svg width="16" height="16" viewBox="0 0 16 16" fill="none" xmlns="http://www.w3.org/2000/svg">
<path d="M6.03292 3.50586C5.72201 3.50586 5.47089 3.75707 5.47089 4.0681V12.2924L3.68912 14.0688C3.60542 14.1526 3.66521 14.2902 3.77881 14.2902L6.05086 14.2961V14.2902C6.34981 14.2782 6.59495 14.033 6.59495 13.7279V4.0681C6.59495 3.75707 6.34383 3.50586 6.03292 3.50586Z" fill="#BDBDBD"/>
<path d="M10.6968 12.2984V4.0681C10.6968 3.75707 10.4457 3.50586 10.1348 3.50586C9.82387 3.50586 9.57275 3.75707 9.57275 4.0681V13.7279C9.57275 14.027 9.81192 14.2722 10.1049 14.2842V14.2902L12.3769 14.2842C12.4905 14.2842 12.5503 14.1466 12.4666 14.0629L10.6968 12.2984Z" fill="#BDBDBD"/>
<path d="M14.7683 10.5031L13.0523 8.79244V2.29076C13.0523 1.97973 12.8012 1.72852 12.4903 1.72852C12.1793 1.72852 11.9282 1.97973 11.9282 2.29076V10.1681C11.9282 10.4493 12.1375 10.6825 12.4065 10.7184V10.7244H12.4783C12.4843 10.7244 12.4843 10.7244 12.4903 10.7244C12.4962 10.7244 12.4962 10.7244 12.5022 10.7244L14.6726 10.7184C14.7922 10.7244 14.852 10.5809 14.7683 10.5031Z" fill="#BDBDBD"/>
<path d="M3.64754 10.7244C3.93454 10.7005 4.16174 10.4612 4.16174 10.1681V2.29076C4.16174 1.97973 3.91062 1.72852 3.59971 1.72852C3.2888 1.72852 3.03767 1.97973 3.03767 2.29076V8.75655L1.2858 10.5031C1.2021 10.5868 1.26189 10.7244 1.37549 10.7244L3.58775 10.7304C3.59373 10.7304 3.59373 10.7304 3.59971 10.7304C3.60569 10.7304 3.60569 10.7304 3.61167 10.7304L3.64754 10.7244Z" fill="#BDBDBD"/>
</svg>
