<svg width="16" height="16" viewBox="0 0 16 16" fill="none" xmlns="http://www.w3.org/2000/svg">
<path d="M8.00037 0C3.59379 0 0.00634766 3.58879 0.00634766 7.99701C0.00634766 12.4052 3.59379 15.994 8.00037 15.994C12.4069 15.994 15.9944 12.4052 15.9944 7.99701C15.9944 3.58879 12.4069 0 8.00037 0ZM8.00037 14.8695C4.20964 14.8695 1.13041 11.7832 1.13041 7.99701C1.13041 4.20486 4.20964 1.12449 8.00037 1.12449C11.7911 1.12449 14.8703 4.21084 14.8703 7.99701C14.8703 11.7892 11.7911 14.8695 8.00037 14.8695Z" fill="#BDBDBD"/>
<path d="M10.96 4.32991L6.93611 6.08841C6.50562 6.27981 6.16481 6.62075 5.98544 7.05738L4.38305 10.9213C4.29336 11.1307 4.34717 11.3759 4.50861 11.5374C4.61623 11.645 4.75973 11.6989 4.90323 11.6989C4.97498 11.6989 5.0527 11.6869 5.12445 11.657L9.07662 9.98823C9.51309 9.80281 9.85988 9.46187 10.0452 9.01925L11.7134 5.06561C11.8031 4.85626 11.7552 4.61103 11.5938 4.44953C11.4144 4.28804 11.1693 4.24019 10.96 4.32991ZM8.99889 8.58262C8.92714 8.75009 8.7956 8.88168 8.62819 8.95346L5.94359 10.0899L7.01982 7.49402C7.09157 7.32654 7.21713 7.19495 7.38454 7.12318L10.123 5.92692L8.99889 8.58262Z" fill="#BDBDBD"/>
</svg>
