<svg width="16" height="16" viewBox="0 0 16 16" fill="none" xmlns="http://www.w3.org/2000/svg">
    <path fill-rule="evenodd" clip-rule="evenodd" d="M0 8C0 3.58744 3.58744 0 8 0C12.4126 0 16 3.58744 16 8C16 12.4126 12.4126 16 8 16C3.58744 16 0 12.4126 0 8ZM1.36325 8.00002C1.36325 11.6592 4.34083 14.6368 8.00002 14.6368C11.6592 14.6368 14.6368 11.6592 14.6368 8.00002C14.6368 4.34083 11.6592 1.36325 8.00002 1.36325C4.34083 1.36325 1.36325 4.34083 1.36325 8.00002Z" fill="#BDBDBD"/>
    <path d="M8.78315 7.39612H7.22261C6.69048 7.39612 6.25998 6.96562 6.25998 6.43349C6.25998 5.90135 6.69048 5.47086 7.22261 5.47086H8.78315C9.11798 5.47086 9.42291 5.64425 9.60229 5.92527C9.72785 6.13453 9.92516 6.24814 10.1344 6.24814C10.3556 6.24814 10.553 6.13453 10.6666 5.9432C10.7742 5.76383 10.7742 5.56054 10.6785 5.38117C10.2959 4.69358 9.57239 4.26308 8.78315 4.26308H8.68151V3.76682C8.68151 3.39014 8.37658 3.08521 7.99989 3.08521C7.62321 3.08521 7.31828 3.39014 7.31828 3.76682V4.26308H7.21664C6.5709 4.26308 5.96103 4.55008 5.54847 5.05232C5.13592 5.55456 4.9685 6.21226 5.09406 6.858C5.29137 7.86248 6.22411 8.59193 7.3123 8.59193H8.78315C9.31529 8.59193 9.74578 9.02243 9.74578 9.55456C9.74578 10.0867 9.31529 10.5172 8.78315 10.5172H7.22261C6.88779 10.5172 6.58285 10.3438 6.40348 10.0628C6.27792 9.85352 6.08061 9.73991 5.87134 9.73991C5.65012 9.73991 5.45281 9.85352 5.33921 10.0448C5.23158 10.2242 5.23158 10.4275 5.32725 10.6069C5.70991 11.2945 6.43338 11.725 7.22261 11.725H7.33622C7.33024 11.7668 7.32426 11.8147 7.32426 11.8625V12.1555C7.32426 12.5321 7.62919 12.8371 8.00587 12.8371C8.38256 12.8371 8.68749 12.5321 8.68749 12.1555V11.8625C8.68749 11.8147 8.68151 11.7728 8.67553 11.725H8.69945C9.78764 11.725 10.7204 10.9955 10.9177 9.99103C11.0432 9.34529 10.8818 8.6876 10.4693 8.18536C10.0388 7.68311 9.42889 7.39612 8.78315 7.39612Z" fill="#BDBDBD"/>
</svg>
