<svg width="20" height="20" viewBox="0 0 20 20" fill="none" xmlns="http://www.w3.org/2000/svg">
<path d="M13.9134 15.681C13.8665 15.5227 13.7697 15.3838 13.6374 15.285C13.5051 15.1862 13.3444 15.1328 13.1792 15.1328H6.34419C6.17907 15.1328 6.01838 15.1862 5.88608 15.285C5.75379 15.3838 5.65698 15.5227 5.6101 15.681L4.69141 18.7836C4.6914 18.8119 4.69696 18.8398 4.70777 18.8659C4.71857 18.892 4.73441 18.9157 4.75437 18.9357C4.77433 18.9556 4.79804 18.9715 4.82412 18.9823C4.8502 18.9931 4.87816 18.9986 4.90639 18.9986H14.6171C14.6453 18.9986 14.6732 18.9931 14.6993 18.9823C14.7254 18.9715 14.7491 18.9556 14.7691 18.9357C14.789 18.9157 14.8049 18.892 14.8157 18.8659C14.8265 18.8398 14.8321 18.8119 14.8321 18.7836L13.9134 15.681Z" fill="#FB4E32"/>
<path d="M5.457 7.84163H14.0645C14.2675 7.84162 14.4622 7.76096 14.6058 7.61739C14.7494 7.47381 14.8301 7.27908 14.8301 7.07603V1.7656C14.8301 1.56256 14.7494 1.36782 14.6058 1.22424C14.4622 1.08067 14.2675 1 14.0645 1H5.457C5.35646 1 5.2569 1.0198 5.16402 1.05828C5.07113 1.09675 4.98673 1.15315 4.91564 1.22424C4.84455 1.29533 4.78815 1.37973 4.74968 1.47262C4.71121 1.56551 4.6914 1.66506 4.69141 1.7656V7.07603C4.69141 7.27908 4.77207 7.47381 4.91564 7.61739C5.05922 7.76097 5.25395 7.84163 5.457 7.84163V7.84163Z" fill="#FB4E32"/>
<path d="M10.6644 9.36719H8.85938V13.6384H10.6644V9.36719Z" fill="#FB4E32"/>
<path d="M11.9531 9.36719V13.6384H13.5241C13.585 13.6384 13.6434 13.6142 13.6865 13.5711C13.7295 13.5281 13.7537 13.4696 13.7537 13.4087V9.5969C13.7537 9.56673 13.7478 9.53687 13.7362 9.509C13.7247 9.48113 13.7078 9.45581 13.6865 9.43449C13.6651 9.41316 13.6398 9.39624 13.6119 9.38469C13.5841 9.37315 13.5542 9.36721 13.5241 9.36721L11.9531 9.36719Z" fill="#FB4E32"/>
<path d="M5.77344 9.59687V13.4087C5.77344 13.4696 5.79764 13.528 5.84072 13.5711C5.88379 13.6142 5.94221 13.6384 6.00312 13.6384H7.56979V9.36719H6.00312C5.94221 9.36719 5.88379 9.39139 5.84071 9.43446C5.79764 9.47754 5.77344 9.53596 5.77344 9.59687V9.59687Z" fill="#FB4E32"/>
</svg>
