<svg width="16" height="16" viewBox="0 0 16 16" fill="none" xmlns="http://www.w3.org/2000/svg">
<path d="M12.6066 1.1295C12.5661 1.05132 12.505 0.985669 12.43 0.939619C12.3549 0.893568 12.2688 0.868863 12.1807 0.868164H3.8179C3.73085 0.87031 3.64593 0.895441 3.57173 0.941008C3.49753 0.986575 3.43671 1.05096 3.39543 1.12762C3.35415 1.20428 3.33388 1.2905 3.33668 1.37753C3.33948 1.46455 3.36525 1.54929 3.41137 1.62314L4.65999 3.55898V11.825C4.65999 12.7106 5.01181 13.56 5.63805 14.1863C6.2643 14.8125 7.11366 15.1643 7.99931 15.1643C8.88495 15.1643 9.73432 14.8125 10.3606 14.1863C10.9868 13.56 11.3386 12.7106 11.3386 11.825V3.51058L12.5872 1.62314C12.6355 1.55058 12.6629 1.46612 12.6663 1.37904C12.6697 1.29196 12.649 1.20562 12.6066 1.1295ZM11.2806 1.83608L10.5933 2.88144H5.40528L4.71806 1.83608H11.2806ZM5.62791 3.84935H10.3707V6.75311H5.62791V3.84935ZM7.99931 14.148C7.37037 14.148 6.7672 13.8982 6.32247 13.4534C5.87775 13.0087 5.62791 12.4055 5.62791 11.7766V7.72103H10.3707V11.7766C10.3707 12.088 10.3094 12.3964 10.1902 12.6841C10.071 12.9718 9.89635 13.2332 9.67614 13.4534C9.45594 13.6736 9.19451 13.8483 8.9068 13.9675C8.61909 14.0867 8.31072 14.148 7.99931 14.148Z" fill="#BDBDBD"/>
<path d="M8.89938 8.70894C8.7924 8.69685 8.68407 8.70748 8.58148 8.74015C8.47889 8.77282 8.38436 8.82678 8.30406 8.8985C8.22377 8.97023 8.15953 9.0581 8.11555 9.15637C8.07156 9.25464 8.04883 9.36109 8.04883 9.46876C8.04883 9.57642 8.07156 9.68287 8.11555 9.78114C8.15953 9.87941 8.22377 9.96728 8.30406 10.039C8.38436 10.1107 8.47889 10.1647 8.58148 10.1974C8.68407 10.23 8.7924 10.2407 8.89938 10.2286C9.00636 10.2407 9.11469 10.23 9.21728 10.1974C9.31987 10.1647 9.4144 10.1107 9.49469 10.039C9.57499 9.96728 9.63922 9.87941 9.68321 9.78114C9.72719 9.68287 9.74993 9.57642 9.74993 9.46876C9.74993 9.36109 9.72719 9.25464 9.68321 9.15637C9.63922 9.0581 9.57499 8.97023 9.49469 8.8985C9.4144 8.82678 9.31987 8.77282 9.21728 8.74015C9.11469 8.70748 9.00636 8.69685 8.89938 8.70894Z" fill="#BDBDBD"/>
<path d="M7.36036 11.2061C7.20912 11.2061 7.06129 11.2509 6.93554 11.3349C6.80979 11.4189 6.71178 11.5384 6.65391 11.6781C6.59603 11.8178 6.58089 11.9716 6.6104 12.1199C6.6399 12.2682 6.71273 12.4045 6.81967 12.5114C6.9266 12.6183 7.06285 12.6912 7.21118 12.7207C7.35951 12.7502 7.51326 12.735 7.65298 12.6772C7.7927 12.6193 7.91213 12.5213 7.99615 12.3955C8.08017 12.2698 8.12502 12.1219 8.12502 11.9707C8.12502 11.7679 8.04445 11.5734 7.90105 11.43C7.75765 11.2866 7.56316 11.2061 7.36036 11.2061Z" fill="#BDBDBD"/>
</svg>
