<svg width="16" height="16" viewBox="0 0 16 16" fill="none" xmlns="http://www.w3.org/2000/svg">
<path d="M2.79238 3.26023C3.06144 3.26023 3.17504 3.36191 3.42018 3.60714C3.70718 3.89424 4.09582 4.28303 4.8432 4.28303C5.59059 4.28303 5.97923 3.88826 6.26622 3.60714C6.51734 3.35593 6.62497 3.26023 6.89403 3.26023C7.16308 3.26023 7.27669 3.36191 7.52183 3.60714C7.80882 3.89424 8.19746 4.28303 8.94485 4.28303C9.69223 4.28303 10.0869 3.88826 10.3738 3.60714C10.625 3.35593 10.7326 3.26023 11.0076 3.26023C11.2767 3.26023 11.3903 3.36191 11.6414 3.60714C11.9284 3.89424 12.323 4.28303 13.0644 4.28303C13.3753 4.28303 13.6265 4.03181 13.6265 3.72079C13.6265 3.40976 13.3753 3.15854 13.0644 3.15854C12.7954 3.15854 12.6818 3.05686 12.4306 2.81163C12.1437 2.52453 11.749 2.13574 11.0076 2.13574C10.2602 2.13574 9.86562 2.53051 9.58461 2.81163C9.33349 3.06284 9.22586 3.16453 8.95083 3.16453C8.68177 3.16453 8.56817 3.06284 8.32302 2.81761C8.03603 2.53051 7.64739 2.13574 6.9 2.13574C6.15262 2.13574 5.76398 2.53051 5.47699 2.81163C5.22586 3.06284 5.11824 3.15854 4.84918 3.15854C4.58012 3.15854 4.46652 3.05686 4.22138 2.81163C3.93438 2.52453 3.54574 2.13574 2.79836 2.13574C2.48745 2.13574 2.23633 2.38696 2.23633 2.69798C2.23633 3.00901 2.48745 3.26023 2.79238 3.26023Z" fill="#BDBDBD"/>
<path d="M10.78 6.81912L9.08195 8.43407L7.38987 6.81912C7.17463 6.60977 6.83382 6.60977 6.61259 6.81912L4.92052 8.43407L3.22844 6.81912C3.00123 6.60379 2.64847 6.61575 2.43322 6.83706C2.21797 7.06435 2.22993 7.41725 2.45116 7.63258L4.53188 9.61837C4.74712 9.82772 5.08793 9.82772 5.30915 9.61837L7.00123 8.00342L8.69331 9.61837C8.80093 9.72005 8.93845 9.77389 9.08195 9.77389C9.21947 9.77389 9.36297 9.72005 9.47059 9.61837L11.1686 8.00342L12.8667 9.61837C13.0939 9.8337 13.4467 9.82174 13.6619 9.60043C13.8772 9.37314 13.8652 9.02024 13.644 8.80491L11.5573 6.81912C11.3361 6.60977 10.9953 6.60977 10.78 6.81912Z" fill="#BDBDBD"/>
<path d="M13.2498 12.6631H2.75051C2.4396 12.6631 2.18848 12.9142 2.18848 13.2251C2.18848 13.536 2.4396 13.7872 2.75051 13.7872H13.2498C13.5607 13.7872 13.8118 13.536 13.8118 13.2251C13.8118 12.9142 13.5607 12.6631 13.2498 12.6631Z" fill="#BDBDBD"/>
</svg>
