<svg width="16" height="16" viewBox="0 0 16 16" fill="none" xmlns="http://www.w3.org/2000/svg">
<path d="M13.8295 2.16504H2.08059C1.76968 2.16504 1.51855 2.41625 1.51855 2.72728C1.51855 3.03831 1.76968 3.28953 2.08059 3.28953H3.24651C3.21661 3.39719 3.18074 3.49289 3.13888 3.60055C3.02528 3.88766 2.88178 4.24055 2.88178 4.89252C2.88178 5.54448 3.02528 5.89738 3.13888 6.18448C3.24053 6.42971 3.31228 6.6271 3.31228 7.05775C3.31228 7.4884 3.23455 7.68579 3.13888 7.93102C3.02528 8.21812 2.88178 8.57102 2.88178 9.22298C2.88178 9.87495 3.02528 10.2278 3.13888 10.5149C3.24053 10.7602 3.31228 10.9576 3.31228 11.3882C3.31228 11.8249 3.23455 12.0163 3.13888 12.2675C3.02528 12.5546 2.88178 12.9075 2.88178 13.5594C2.88178 13.8705 3.1329 14.1217 3.44382 14.1217C3.4498 14.1217 3.45577 14.1217 3.45577 14.1217C3.46175 14.1217 3.46773 14.1217 3.46773 14.1217C4.11945 14.1217 4.47222 13.9781 4.75921 13.8645C5.00435 13.7628 5.20166 13.691 5.63216 13.691C6.06863 13.691 6.25996 13.7688 6.51108 13.8645C6.79808 13.9781 7.15084 14.1217 7.80256 14.1217C8.45428 14.1217 8.80704 13.9781 9.09404 13.8645C9.33918 13.7628 9.53649 13.691 9.96698 13.691C10.3975 13.691 10.5948 13.7688 10.8399 13.8645C11.1269 13.9781 11.4797 14.1217 12.1314 14.1217C12.1852 14.1217 12.2091 14.1217 12.2331 14.1277C12.2689 14.1336 12.3048 14.1336 12.3407 14.1336C12.3945 14.1336 12.4543 14.1277 12.532 14.1157C12.538 14.1157 12.538 14.1157 12.544 14.1157C12.5499 14.1157 12.5559 14.1157 12.5619 14.1097C12.5918 14.1037 12.6277 14.0918 12.6576 14.0798H12.6635C12.8967 13.9781 13.0462 13.7269 13.0044 13.4697C12.9924 12.8835 12.8609 12.5486 12.7473 12.2735C12.6456 12.0282 12.5679 11.8308 12.5679 11.3942C12.5679 10.9576 12.6456 10.7662 12.7473 10.5209C12.8609 10.2338 13.0044 9.88093 13.0044 9.22897C13.0044 8.577 12.8609 8.2241 12.7473 7.937C12.6516 7.69177 12.5739 7.49438 12.5739 7.06373C12.5739 6.63308 12.6516 6.43569 12.7473 6.19046C12.8609 5.90336 13.0044 5.55046 13.0044 4.8985C13.0044 4.24653 12.8609 3.89364 12.7473 3.60653C12.7054 3.49887 12.6695 3.40317 12.6396 3.29551H13.8354C14.1464 3.29551 14.3975 3.04429 14.3975 2.73326C14.3975 2.42224 14.1344 2.16504 13.8295 2.16504ZM11.7009 4.01326C11.7966 4.2585 11.8743 4.45588 11.8743 4.88653C11.8743 5.31719 11.7966 5.51457 11.7009 5.75981C11.5873 6.04691 11.4438 6.39981 11.4438 7.05177C11.4438 7.70373 11.5873 8.05663 11.7009 8.34373C11.7966 8.58896 11.8743 8.78635 11.8743 9.217C11.8743 9.65364 11.7966 9.84504 11.6949 10.0963C11.5813 10.3834 11.4378 10.7363 11.4378 11.3882C11.4378 12.0402 11.5813 12.3931 11.6949 12.6802C11.7368 12.7819 11.7727 12.8716 11.8026 12.9733C11.5813 12.9434 11.4319 12.8835 11.2585 12.8178C10.9715 12.7041 10.6187 12.5606 9.96698 12.5606C9.31527 12.5606 8.9625 12.7041 8.67551 12.8178C8.43036 12.9194 8.23305 12.9912 7.80256 12.9912C7.36609 12.9912 7.17476 12.9135 6.92364 12.8178C6.63664 12.7041 6.28388 12.5606 5.63216 12.5606C4.98044 12.5606 4.62767 12.7041 4.34068 12.8178C4.25697 12.8536 4.17326 12.8835 4.08956 12.9135C4.11347 12.8357 4.14337 12.7639 4.17326 12.6802C4.28687 12.3931 4.43036 12.0402 4.43036 11.3882C4.43036 10.7363 4.28687 10.3834 4.17326 10.0963C4.07162 9.85102 3.99987 9.65364 3.99987 9.217C3.99987 8.78635 4.0776 8.58896 4.17326 8.34373C4.28687 8.05663 4.43036 7.70373 4.43036 7.05177C4.43036 6.39981 4.28687 6.04691 4.17326 5.75981C4.07162 5.51457 3.99987 5.31719 3.99987 4.88653C3.99987 4.45588 4.0776 4.2585 4.17326 4.01326C4.25099 3.82186 4.3347 3.60055 4.38851 3.28354H11.4797C11.5335 3.60653 11.6232 3.82784 11.7009 4.01326Z" fill="#BDBDBD"/>
</svg>
