<svg width="16" height="16" viewBox="0 0 16 16" fill="none" xmlns="http://www.w3.org/2000/svg">
<path d="M13.9493 5.63406L12.0181 2.81686C11.9045 2.64938 11.7371 2.53574 11.5099 2.48191C11.4381 2.46994 11.2707 2.46994 11.1989 2.48789C11.0016 2.52976 10.8223 2.64938 10.7087 2.81686L9.48893 4.59331L7.52779 1.73424C7.39625 1.54284 7.20492 1.40527 6.9837 1.34546C6.95978 1.33948 6.92988 1.32751 6.90597 1.32751C6.84618 1.31555 6.79237 1.30957 6.73257 1.30957C6.6967 1.30957 6.58908 1.32153 6.5532 1.32751C6.52331 1.3335 6.49341 1.33948 6.46352 1.35144C6.24827 1.41723 6.06292 1.54882 5.93138 1.73424L2.5532 6.66284C1.17204 8.67854 1.42316 11.3941 3.15111 13.1167C4.08385 14.0378 5.32151 14.5641 6.6967 14.5941C6.6967 14.5941 6.70268 14.5941 6.70866 14.5941C6.73855 14.5941 6.80432 14.5941 6.82226 14.5941C8.14364 14.5701 9.3813 14.0438 10.3081 13.1167C11.0196 12.4049 11.4919 11.5137 11.6892 10.5327C12.4007 10.455 13.0644 10.144 13.5726 9.63555C14.6489 8.55892 14.8043 6.87817 13.9493 5.63406ZM9.51284 12.3152C8.78938 13.0389 7.82675 13.4456 6.77443 13.4696C6.76247 13.4696 6.67278 13.4636 6.66083 13.4636C5.63243 13.4456 4.66979 13.0329 3.94633 12.3152C2.60104 10.9694 2.40971 8.85798 3.47996 7.29088L6.7266 2.55368L8.80133 5.58621L8.77144 5.63406C7.91643 6.88415 8.07189 8.5649 9.14214 9.62957C9.53676 10.0243 10.027 10.3055 10.5532 10.443C10.3918 11.1548 10.033 11.8008 9.51284 12.3152ZM12.7834 8.83406C12.4127 9.2049 11.9224 9.41424 11.3305 9.42022C10.8043 9.40826 10.314 9.19892 9.94334 8.83406C9.25574 8.1462 9.1541 7.06957 9.70417 6.26807L11.3604 3.84564L13.0166 6.26807C13.5726 7.06957 13.471 8.1462 12.7834 8.83406Z" fill="#BDBDBD"/>
</svg>
