<svg width="16" height="16" viewBox="0 0 16 16" fill="none" xmlns="http://www.w3.org/2000/svg">
<path fill-rule="evenodd" clip-rule="evenodd" d="M8.1352 9.19594C8.0918 9.20605 8.04662 9.2114 8.00025 9.2114C7.6714 9.2114 7.40234 8.94822 7.40234 8.61327V3.70262C7.40234 3.37365 7.6714 3.10449 8.00025 3.10449C8.3291 3.10449 8.59816 3.37365 8.59816 3.70262V8.00012C8.59821 8.00012 8.59826 8.00012 8.59832 8.00012H12.8423C13.1713 8.00012 13.4404 8.26775 13.4404 8.59803C13.4404 8.92831 13.1713 9.19594 12.8423 9.19594H8.1352Z" fill="#BDBDBD"/>
<path d="M8.00037 0.00585938C3.59379 0.00585938 0.00634766 3.58866 0.00634766 7.99689C0.00634766 12.4051 3.59379 15.9939 8.00037 15.9939C12.4069 15.9939 15.9944 12.4051 15.9944 7.99689C15.9944 3.58866 12.4069 0.00585938 8.00037 0.00585938ZM8.00037 14.8754C4.20964 14.8754 1.13041 11.789 1.13041 8.00287C1.13041 4.21072 4.20964 1.13035 8.00037 1.13035C11.7911 1.13035 14.8703 4.2167 14.8703 8.00287C14.8703 11.789 11.7911 14.8754 8.00037 14.8754Z" fill="#BDBDBD"/>
</svg>
