<svg width="16" height="16" viewBox="0 0 16 16" fill="none" xmlns="http://www.w3.org/2000/svg">
<path d="M14.1649 8.76093C14.0372 8.76093 13.9148 8.81164 13.8245 8.90191C13.7343 8.99217 13.6836 9.1146 13.6836 9.24226V11.8992C13.6848 12.1453 13.6375 12.3892 13.5442 12.6169C13.4509 12.8446 13.3135 13.0516 13.14 13.226C12.9664 13.4005 12.7601 13.5389 12.5329 13.6334C12.3057 13.7278 12.062 13.7764 11.816 13.7764H4.01834C3.52303 13.7764 3.048 13.5797 2.69776 13.2294C2.34752 12.8792 2.15076 12.4042 2.15076 11.9089V4.14973C2.14302 3.89966 2.18561 3.65058 2.27599 3.41729C2.36638 3.18399 2.50272 2.97124 2.67691 2.79165C2.85111 2.61207 3.05962 2.46931 3.29005 2.37187C3.52049 2.27442 3.76815 2.22427 4.01834 2.22439H6.7427C6.87036 2.22439 6.99279 2.17368 7.08306 2.08341C7.17333 1.99314 7.22404 1.87071 7.22404 1.74305C7.22404 1.6154 7.17333 1.49297 7.08306 1.4027C6.99279 1.31243 6.87036 1.26172 6.7427 1.26172H4.01834C3.64176 1.26164 3.26894 1.33672 2.92174 1.48255C2.57454 1.62838 2.25993 1.84203 1.99635 2.111C1.73277 2.37996 1.52551 2.69882 1.38672 3.04889C1.24793 3.39897 1.1804 3.77323 1.18809 4.14973V11.9474C1.19821 12.6913 1.50086 13.4013 2.03054 13.9238C2.56023 14.4463 3.27434 14.7392 4.01834 14.7391H11.816C12.5666 14.7391 13.2865 14.4409 13.8173 13.9102C14.348 13.3794 14.6462 12.6595 14.6462 11.9089V9.24226C14.6462 9.1146 14.5955 8.99217 14.5053 8.90191C14.415 8.81164 14.2926 8.76093 14.1649 8.76093Z" fill="#BDBDBD"/>
<path d="M5.51036 7.93301L4.38404 11.0521C4.35627 11.1382 4.35234 11.2302 4.37268 11.3183C4.39302 11.4064 4.43687 11.4874 4.49956 11.5526C4.59139 11.6448 4.71603 11.6967 4.84612 11.697C4.89705 11.7063 4.94922 11.7063 5.00015 11.697L8.08069 10.59C8.1819 10.5617 8.27451 10.5088 8.35024 10.436L14.5306 4.2556C14.5783 4.20414 14.615 4.14338 14.6381 4.07712C14.6613 4.01087 14.6706 3.94054 14.6654 3.87053C14.5929 3.2498 14.3209 2.66934 13.8905 2.2163C13.46 1.76325 12.8942 1.46207 12.2779 1.35796C12.2091 1.34612 12.1385 1.34856 12.0706 1.36512C12.0027 1.38168 11.9389 1.41201 11.8832 1.45423L5.66439 7.68271C5.59419 7.75296 5.54144 7.83868 5.51036 7.93301ZM6.11685 9.08821L6.97362 9.93536L5.63551 10.4167L6.11685 9.08821ZM12.3838 2.34951C12.7036 2.44701 12.9925 2.62611 13.2221 2.86918C13.4517 3.11225 13.614 3.41091 13.6931 3.73576L7.91704 9.51179L6.5693 8.15442L12.3838 2.34951Z" fill="#BDBDBD"/>
</svg>
