<svg width="16" height="16" viewBox="0 0 16 16" fill="none" xmlns="http://www.w3.org/2000/svg">
<path d="M5.48988 6.53418C4.66647 6.53418 3.86156 6.77835 3.17692 7.23581C2.49228 7.69327 1.95867 8.34347 1.64357 9.1042C1.32846 9.86493 1.24602 10.702 1.40666 11.5096C1.5673 12.3172 1.9638 13.059 2.54604 13.6412C3.12828 14.2235 3.87009 14.62 4.67767 14.7806C5.48526 14.9413 6.32234 14.8588 7.08307 14.5437C7.8438 14.2286 8.494 13.695 8.95146 13.0104C9.40892 12.3257 9.65309 11.5208 9.65309 10.6974C9.65309 9.59324 9.21447 8.53431 8.43371 7.75356C7.65296 6.9728 6.59403 6.53418 5.48988 6.53418ZM5.48988 13.8736C4.85934 13.8736 4.24299 13.6865 3.71885 13.3359C3.19472 12.9854 2.78638 12.4873 2.54553 11.9046C2.30469 11.3218 2.24217 10.6807 2.36589 10.0625C2.48962 9.4442 2.79402 8.87654 3.24056 8.43137C3.6871 7.9862 4.25569 7.68354 4.87434 7.56172C5.493 7.43989 6.13389 7.50438 6.71587 7.74702C7.29785 7.98965 7.79474 8.39952 8.14364 8.92473C8.49254 9.44994 8.67774 10.0669 8.67581 10.6974C8.67065 11.539 8.33271 12.3443 7.73579 12.9376C7.13887 13.5308 6.33146 13.8638 5.48988 13.8638V13.8736Z" fill="#BDBDBD"/>
<path d="M3.72099 5.9283C4.19496 5.93024 4.65883 5.79146 5.05386 5.52954C5.44889 5.26763 5.7573 4.89437 5.94002 4.45703C6.12275 4.0197 6.17156 3.53797 6.08028 3.07287C5.989 2.60778 5.76174 2.18023 5.42727 1.8444C5.09281 1.50857 4.6662 1.27956 4.20148 1.18638C3.73676 1.0932 3.25484 1.14004 2.81676 1.32097C2.37868 1.5019 2.00416 1.80878 1.74063 2.20273C1.47711 2.59669 1.33643 3.06 1.33643 3.53397C1.33642 4.16729 1.58734 4.77483 2.03425 5.22357C2.48117 5.67232 3.08767 5.92572 3.72099 5.9283ZM3.72099 2.13646C4.00249 2.13454 4.27819 2.21651 4.51291 2.37192C4.74764 2.52733 4.93076 2.74912 5.03892 3.00902C5.14708 3.26893 5.17538 3.55515 5.1202 3.8312C5.06503 4.10725 4.92889 4.36061 4.72914 4.55898C4.52939 4.75734 4.27509 4.89171 3.99866 4.94496C3.72223 4.9982 3.43621 4.96791 3.17707 4.85794C2.91793 4.74797 2.69741 4.56331 2.54365 4.32751C2.38988 4.09171 2.30983 3.81545 2.31371 3.53397C2.31629 3.16243 2.46569 2.80699 2.72933 2.54518C2.99297 2.28337 3.34944 2.13645 3.72099 2.13646Z" fill="#BDBDBD"/>
<path d="M11.295 7.89265C11.9618 7.89265 12.6137 7.69491 13.1681 7.32443C13.7226 6.95395 14.1547 6.42738 14.4099 5.8113C14.6651 5.19521 14.7319 4.51729 14.6018 3.86326C14.4717 3.20923 14.1506 2.60847 13.6791 2.13694C13.2075 1.66541 12.6068 1.34429 11.9527 1.2142C11.2987 1.08411 10.6208 1.15087 10.0047 1.40606C9.38861 1.66125 8.86204 2.0934 8.49156 2.64786C8.12108 3.20232 7.92334 3.85419 7.92334 4.52103C7.92334 5.41524 8.27856 6.27283 8.91086 6.90513C9.54316 7.53743 10.4007 7.89265 11.295 7.89265ZM11.295 2.1267C11.7685 2.1267 12.2314 2.26712 12.6252 2.53021C13.0189 2.79331 13.3258 3.16725 13.507 3.60476C13.6883 4.04227 13.7357 4.52369 13.6433 4.98815C13.5509 5.4526 13.3229 5.87923 12.988 6.21409C12.6532 6.54894 12.2265 6.77698 11.7621 6.86936C11.2976 6.96175 10.8162 6.91433 10.3787 6.73311C9.94118 6.55189 9.56723 6.245 9.30414 5.85126C9.04105 5.45751 8.90062 4.99459 8.90062 4.52103C8.90321 3.88771 9.15661 3.28121 9.60535 2.8343C10.0541 2.38738 10.6616 2.13646 11.295 2.13647V2.1267Z" fill="#BDBDBD"/>
<path d="M12.5265 10.5801C12.1032 10.5801 11.6894 10.7056 11.3374 10.9408C10.9855 11.1759 10.7111 11.5102 10.5491 11.9013C10.3872 12.2924 10.3448 12.7227 10.4274 13.1379C10.5099 13.553 10.7138 13.9344 11.0131 14.2337C11.3124 14.533 11.6938 14.7369 12.1089 14.8194C12.5241 14.902 12.9544 14.8596 13.3455 14.6977C13.7366 14.5357 14.0708 14.2613 14.306 13.9094C14.5412 13.5574 14.6667 13.1436 14.6667 12.7203C14.6667 12.1527 14.4412 11.6083 14.0399 11.2069C13.6385 10.8056 13.0941 10.5801 12.5265 10.5801ZM12.5265 13.8735C12.296 13.8735 12.0708 13.805 11.8794 13.6768C11.6879 13.5486 11.5389 13.3664 11.4511 13.1533C11.3634 12.9402 11.341 12.7059 11.3866 12.48C11.4323 12.2542 11.544 12.047 11.7077 11.8847C11.8713 11.7225 12.0794 11.6125 12.3056 11.5688C12.5319 11.525 12.766 11.5494 12.9783 11.6389C13.1907 11.7285 13.3716 11.879 13.4982 12.0716C13.6248 12.2641 13.6914 12.4899 13.6894 12.7203C13.6882 12.8718 13.6571 13.0215 13.5979 13.1609C13.5388 13.3003 13.4528 13.4267 13.3448 13.5329C13.2368 13.6391 13.1089 13.7229 12.9685 13.7797C12.8281 13.8365 12.6779 13.865 12.5265 13.8637V13.8735Z" fill="#BDBDBD"/>
</svg>
