<svg width="246" height="178" viewBox="0 0 246 178" fill="none" xmlns="http://www.w3.org/2000/svg">
    <path d="M8.91359 177.948C4.52422 178.452 0.556901 175.303 0.0523371 170.914C-0.452227 166.524 2.69703 162.557 7.08641 162.052L8.91359 177.948ZM229.704 5.71893C231.516 1.68935 236.251 -0.108288 240.281 1.7038C244.311 3.51588 246.108 8.25148 244.296 12.2811L229.704 5.71893ZM7.08641 162.052C33.5693 159.008 76.9956 147.49 119.999 122.795C162.935 98.1389 205.023 60.6033 229.704 5.71893L244.296 12.2811C217.886 71.0107 172.996 110.811 127.966 136.67C83.0037 162.49 37.4759 174.664 8.91359 177.948L7.08641 162.052Z" fill="#293839"/>
    <path d="M8.0571 170.497C7.78276 170.528 7.53481 170.331 7.50327 170.057C7.47174 169.783 7.66856 169.535 7.9429 169.503L8.0571 170.497ZM236.823 8.53255C237.081 8.43454 237.369 8.56439 237.467 8.82256L239.064 13.0296C239.162 13.2878 239.033 13.5765 238.774 13.6745C238.516 13.7725 238.228 13.6427 238.13 13.3845L236.71 9.6449L232.97 11.0645C232.712 11.1625 232.423 11.0326 232.325 10.7745C232.227 10.5163 232.357 10.2276 232.615 10.1296L236.823 8.53255ZM7.9429 169.503C35.4005 166.347 79.8119 154.521 123.734 129.299C167.651 104.079 211.052 65.4818 236.544 8.79494L237.456 9.20506C211.856 66.1322 168.28 104.871 124.232 130.166C80.1874 155.458 35.6447 167.326 8.0571 170.497L7.9429 169.503Z" fill="#03BCD4"/>
</svg>
