<svg width="28" height="26" viewBox="0 0 28 26" fill="none" xmlns="http://www.w3.org/2000/svg">
<path fill-rule="evenodd" clip-rule="evenodd" d="M12.3546 25.2972H5.24972L4.59207 20.0112L0.282425 16.865C0.0943041 15.9403 0 14.9981 0 14.0544C0 6.29638 6.27162 0 13.9998 0C21.7279 0 28 6.29638 28 14.0544C28 14.9981 27.9052 15.9403 27.7171 16.865L23.4084 20.0112L22.7498 25.2972H15.6454L15.2352 25.5968C14.8759 25.8592 14.4438 26 13.9998 26C13.5561 26 13.123 25.8592 12.7648 25.5968L12.3546 25.2972ZM12.5767 22.8378H7.41277L6.89135 18.6492L2.63759 15.5431C2.51285 15.0567 2.44997 14.5568 2.44997 14.0544C2.44997 13.2149 2.62561 12.3854 2.96641 11.619L10.4974 19.2628L3.17597 10.1904C3.46438 9.01327 4.10158 7.95236 5.00472 7.1479L11.5673 18.519L5.75268 6.06996C6.50465 5.06464 7.55398 4.32379 8.75004 3.95264L12.7628 18.0671L9.8308 3.37108C10.723 2.86617 11.7299 2.60068 12.7538 2.60068C12.9703 2.60068 13.1869 2.6122 13.4025 2.63575L13.9998 17.9194L14.598 2.63575C14.8126 2.6122 15.0291 2.60068 15.2462 2.60068C16.2701 2.60068 17.277 2.86617 18.1687 3.37108L15.2367 18.0671L19.25 3.95264C20.446 4.32379 21.4949 5.06464 22.2473 6.06996L16.4323 18.519L22.9948 7.1479C23.8979 7.95236 24.5356 9.01379 24.8235 10.1904L17.5021 19.2628L25.0331 11.619C25.3734 12.3854 25.5495 13.2149 25.5495 14.0544C25.5495 14.5568 25.4867 15.0567 25.3614 15.5431L21.1087 18.6492L20.5867 22.8378H15.4228L14.6589 23.3958C14.4668 23.5355 14.2363 23.6107 13.9998 23.6107C13.7632 23.6107 13.5322 23.5355 13.3411 23.3958L12.5767 22.8378Z" fill="white"/>
</svg>
