<svg width="24" height="24" viewBox="0 0 24 24" fill="none" xmlns="http://www.w3.org/2000/svg">
<g clipPath="url(#clip0_28893_113885)">
<path d="M23.5019 2.08798H13.998V0.521996C14.0011 0.496094 14.0011 0.469899 13.998 0.443997C14.0014 0.416105 14.0014 0.387889 13.998 0.359997C13.9856 0.330083 13.9694 0.301858 13.95 0.275998C13.9178 0.208075 13.8709 0.14811 13.8128 0.100396C13.7548 0.0526823 13.6868 0.018399 13.614 0L13.428 0L0.426057 2.09398C0.305819 2.11405 0.196745 2.17652 0.118597 2.27008C0.0404493 2.36364 -0.00160244 2.48209 6.05091e-05 2.60398V21.3898C-0.00181638 21.5124 0.0400238 21.6317 0.118084 21.7262C0.196144 21.8208 0.305323 21.8845 0.426057 21.9058L13.422 23.9998H13.608C13.7177 23.9729 13.815 23.9094 13.884 23.8198C13.9034 23.7961 13.9195 23.7699 13.932 23.7418C13.9354 23.7159 13.9354 23.6897 13.932 23.6638C13.9342 23.654 13.9342 23.6437 13.932 23.6338C13.935 23.6079 13.935 23.5817 13.932 23.5558V21.9958H23.5019C23.6371 21.9927 23.7655 21.936 23.8589 21.8381C23.9523 21.7403 24.003 21.6094 23.9999 21.4741V2.60998C24.0015 2.543 23.9899 2.47637 23.9657 2.41388C23.9415 2.35139 23.9053 2.29428 23.859 2.2458C23.8128 2.19733 23.7574 2.15844 23.6962 2.13136C23.6349 2.10428 23.5689 2.08954 23.5019 2.08798ZM22.9979 20.8678H13.998V3.15598H22.9979V20.8678Z" fill="#616161"/>
</g>
<defs>
<clipPath id="clip0_28893_113885">
<rect width="24" height="23.9998" fill="white"/>
</clipPath>
</defs>
</svg>
    