<svg width="24" height="24" viewBox="0 0 24 24" fill="none" xmlns="http://www.w3.org/2000/svg">
<path d="M12 -5.24537e-07C9.46777 -4.13849e-07 7.00044 0.801043 4.95113 2.28849C2.90182 3.77593 1.37557 5.87353 0.590805 8.28109C-0.193955 10.6886 -0.196997 13.2827 0.582114 15.6921C1.36123 18.1015 2.88255 20.2027 4.92837 21.695C6.97419 23.1872 9.43963 23.994 11.9719 24C14.5041 24.0059 16.9733 23.2107 19.0261 21.728C21.0789 20.2454 22.61 18.1514 23.4004 15.7457C24.1908 13.34 24.2 10.7459 23.4265 8.33465L21.4362 8.97311C22.0749 10.9643 22.0674 13.1065 21.4146 15.0932C20.7619 17.0799 19.4974 18.8091 17.8022 20.0335C16.107 21.2579 14.0679 21.9146 11.9768 21.9097C9.88562 21.9048 7.84962 21.2385 6.16016 20.0062C4.4707 18.7739 3.21437 17.0387 2.57097 15.049C1.92757 13.0593 1.93008 10.9171 2.57815 8.92888C3.22621 6.94069 4.48661 5.20846 6.17896 3.98011C7.8713 2.75176 9.90885 2.09025 12 2.09025L12 -5.24537e-07Z" fill="#00CEDE"/>
</svg>
