<svg width="16" height="16" viewBox="0 0 16 16" fill="none" xmlns="http://www.w3.org/2000/svg">
<path fill-rule="evenodd" clip-rule="evenodd" d="M2.98024 13.6684C1.95358 13.6684 1.31358 12.5551 1.82691 11.6684L6.84691 2.99508C7.36024 2.10841 8.64024 2.10841 9.15358 2.99508L14.1736 11.6684C14.6869 12.5551 14.0469 13.6684 13.0202 13.6684H2.98024ZM13.0202 12.3351L8.00024 3.66174L2.98024 12.3351H13.0202ZM7.33358 7.00174V8.33508C7.33358 8.70174 7.63358 9.00174 8.00024 9.00174C8.36691 9.00174 8.66691 8.70174 8.66691 8.33508V7.00174C8.66691 6.63508 8.36691 6.33508 8.00024 6.33508C7.63358 6.33508 7.33358 6.63508 7.33358 7.00174ZM8.66691 11.6684V10.3351H7.33358V11.6684H8.66691Z" fill="#F44336"/>
</svg>
