<svg width="24" height="24" viewBox="0 0 24 24" fill="none" xmlns="http://www.w3.org/2000/svg">
<path d="M23.52 2.1H13.98V0.54V0.48C13.98 0.48 13.98 0.48 13.98 0.42V0.36L13.92 0.3C13.8 0.12 13.74 0.06 13.62 0C13.56 0 13.56 0 13.5 0H13.44C13.44 0 13.44 0 13.38 0L0.42 2.1C0.18 2.16 0 2.34 0 2.58V3.6V20.28V21.3C0 21.54 0.18 21.78 0.42 21.84L13.44 24C13.44 24 13.44 24 13.5 24H13.56C13.62 24 13.62 24 13.68 24C13.8 24 13.86 23.88 13.98 23.82L14.04 23.76V23.7C14.04 23.7 14.04 23.7 14.04 23.64V23.58V22.02H23.52C23.82 22.02 24 21.78 24 21.48V2.58C24 2.34 23.76 2.1 23.52 2.1ZM22.98 20.88H13.98V18.24H19.86C20.16 18.24 20.34 18 20.34 17.7C20.34 17.4 20.1 17.16 19.86 17.16H13.98V14.4H19.86C20.16 14.4 20.34 14.16 20.34 13.86C20.34 13.56 20.1 13.32 19.86 13.32H13.98V10.56H19.86C20.16 10.56 20.34 10.32 20.34 10.02C20.34 9.72 20.1 9.48 19.86 9.48H13.98V6.72H19.86C20.16 6.72 20.34 6.48 20.34 6.18C20.34 5.88 20.1 5.64 19.86 5.64H13.98V3.12H22.98V20.88Z" fill="#FF9900"/>
<path d="M2.7002 8.94043H4.1402L5.1002 12.8404L6.3602 8.94043H7.62019L8.8802 12.9004L9.9002 8.94043H11.2802L9.54019 15.0004H8.34019L7.0202 10.8004L5.7002 15.0004H4.5002L2.7002 8.94043Z" fill="#FF9900"/>
<path d="M6.06039 11.88L4.08039 9H5.76039L7.08039 11.1L8.34039 9H9.96039L7.98039 11.88L10.1404 15.06H8.40039L6.96039 12.6L5.52039 15H3.90039L6.06039 11.88Z" fill="white"/>
</svg>
    