<?xml version="1.0" encoding="utf-8"?>
<!-- Generator: Adobe Illustrator 22.1.0, SVG Export Plug-In . SVG Version: 6.00 Build 0)  -->
<svg version="1.1" id="Capa_1" xmlns="http://www.w3.org/2000/svg" xmlns:xlink="http://www.w3.org/1999/xlink" x="0px" y="0px"
	 viewBox="0 0 267.6 267.5" style="enable-background:new 0 0 267.6 267.5;" xml:space="preserve">
<style type="text/css">
	.st0{fill:#FFFFFF;}
</style>
<g>
	<path class="st0" d="M133.8,155.1c6.3,0,11.4-5.1,11.4-11.4V63c0-6.3-5.1-11.4-11.4-11.4s-11.4,5.1-11.4,11.4v80.8
		C122.4,150.1,127.5,155.1,133.8,155.1z"/>
	<circle class="st0" cx="133.8" cy="193.3" r="16.3"/>
	<path class="st0" d="M133.8,0C60,0,0,60,0,133.8s60,133.8,133.8,133.8s133.8-60,133.8-133.8S207.5,0,133.8,0z M133.8,244.8
		c-61.2,0-111-49.8-111-111s49.8-111,111-111s111,49.8,111,111S195,244.8,133.8,244.8z"/>
</g>
</svg>
