<?xml version="1.0" encoding="utf-8"?>
<!-- Generator: Adobe Illustrator 22.1.0, SVG Export Plug-In . SVG Version: 6.00 Build 0)  -->
<svg version="1.1" id="Capa_1" xmlns="http://www.w3.org/2000/svg" xmlns:xlink="http://www.w3.org/1999/xlink" x="0px" y="0px"
	 viewBox="0 0 267.6 267.5" style="enable-background:new 0 0 267.6 267.5;" xml:space="preserve">
<style type="text/css">
	.st0{fill:#FFFFFF;}
</style>
<g>
	<path class="st0" d="M251.1,226.7L240,215.6v-79.5c0-9.7-4.3-18.7-11.7-24.9l-15.9-13.1V36.6c0-20.2-16.5-36.7-36.7-36.7H91.9
		C71.7,0,55.3,16.4,55.3,36.6v61.3l-16.1,13.3c-7.4,6.1-11.7,15.2-11.7,24.9v79.7l-10.9,10.9c-4.4,4.4-4.4,11.6,0,16.1
		c2.2,2.2,5.1,3.3,8,3.3s5.8-1.1,8-3.3l64.2-64.2c4.4-4.4,4.4-11.6,0-16.1c-4.4-4.4-11.6-4.4-16.1,0l-30.6,30.6v-57
		c0-2.8,1.3-5.5,3.4-7.3l17.1-14.1h125.9l17.1,14.1c2.2,1.8,3.4,4.5,3.4,7.3v56.8l-30.6-30.6c-4.4-4.4-11.6-4.4-16.1,0
		c-4.4,4.4-4.4,11.6,0,16.1l64.4,64.4c2.2,2.2,5.1,3.3,8,3.3s5.8-1.1,8-3.3C255.5,238.4,255.5,231.2,251.1,226.7z M91.9,22.7h83.7
		c7.7,0,13.9,6.2,13.9,13.9v55.3H78V36.6C78,29,84.3,22.7,91.9,22.7z"/>
	<path class="st0" d="M160.5,199c-4.4-4.4-11.6-4.4-16.1,0c-4.4,4.4-4.4,11.6,0,16.1l49.1,49.1c2.2,2.2,5.1,3.3,8,3.3s5.8-1.1,8-3.3
		c4.4-4.4,4.4-11.6,0-16.1L160.5,199z"/>
	<path class="st0" d="M106.9,199.2l-48.9,48.9c-4.4,4.4-4.4,11.6,0,16.1c2.2,2.2,5.1,3.3,8,3.3s5.8-1.1,8-3.3l48.9-48.9
		c4.4-4.4,4.4-11.6,0-16.1C118.5,194.7,111.3,194.7,106.9,199.2z"/>
</g>
</svg>
