<?xml version="1.0" encoding="utf-8"?>
<!-- Generator: Adobe Illustrator 22.1.0, SVG Export Plug-In . SVG Version: 6.00 Build 0)  -->
<svg version="1.1" id="Capa_1" xmlns="http://www.w3.org/2000/svg" xmlns:xlink="http://www.w3.org/1999/xlink" x="0px" y="0px"
	 viewBox="0 0 267.6 267.5" style="enable-background:new 0 0 267.6 267.5;" xml:space="preserve">
<style type="text/css">
	.st0{fill:#FFFFFF;}
</style>
<path class="st0" d="M251.8,87.1L213,30.4c-2.1-3.1-5.2-5.3-8.8-6.4c-0.5-0.2-1.1-0.3-1.7-0.4c-0.5-0.1-1.5-0.3-2.7-0.2
	c-1.3,0-2.3,0.2-2.8,0.3c-0.6,0.1-1.2,0.3-1.8,0.5c-3.5,1.1-6.5,3.3-8.6,6.3l-24.5,35.7L122.7,8.6c-2.6-3.7-6.3-6.4-10.6-7.7
	c-0.6-0.2-1.3-0.4-2-0.5l-0.1,0C109.2,0.2,108,0,106.6,0c-1.4,0-2.6,0.2-3.3,0.3l-0.1,0c-0.7,0.1-1.3,0.3-2,0.5
	c-4.3,1.3-8.1,4-10.6,7.7l-68,99.1c-27.8,40.5-22.7,95.2,12,129.9c18.5,18.5,43.2,29.1,69.5,29.8c0.2,0,0.4,0,0.6,0l0.1,0
	c0.5,0,1,0.1,1.5,0.1c0.1,0,0.3,0,0.4,0c0.5,0,1,0,1.5-0.1l0.1,0c0.2,0,0.4,0,0.6,0c26.3-0.7,51-11.2,69.5-29.8
	c14.3-14.3,23.9-32.2,27.9-52c14.4-1.5,27.7-7.8,37.9-18.1C265.9,146.1,269.1,112.2,251.8,87.1z M162.6,221.6
	c-14.5,14.5-33.9,22.7-54.6,23.1c-0.3,0-0.7,0-1,0.1c-0.1,0-0.1,0-0.2,0c-0.1,0-0.2,0-0.3,0c-0.1,0-0.1,0-0.2,0
	c-0.3,0-0.6-0.1-1-0.1c-20.7-0.4-40.1-8.6-54.6-23.1c-27-27-31-69.5-9.3-101.1l65.3-95.3l41.8,60.9l-0.6,0.9
	c-17.2,25.1-14.1,59,7.4,80.5c8,8,17.8,13.5,28.5,16.4C180.2,198.2,173,211.2,162.6,221.6z M228.4,151.6
	c-7.4,7.4-17.3,11.6-27.9,11.8c-0.2,0-0.5,0-0.7,0c-0.2,0-0.5,0-0.7,0c-10.6-0.2-20.5-4.4-27.9-11.8c-13.8-13.8-15.8-35.5-4.8-51.6
	l33.4-48.7l33.4,48.7c0,0,0,0,0,0C244.2,116,242.2,137.7,228.4,151.6z"/>
</svg>
