<svg width="46" height="46" viewBox="0 0 46 46" fill="none" xmlns="http://www.w3.org/2000/svg">
<path d="M14.8428 27.6581C15.566 27.6581 16.1496 27.0745 16.1496 26.3514V23.1544C16.1496 22.4312 15.566 21.8477 14.8428 21.8477C14.1197 21.8477 13.5361 22.4312 13.5361 23.1544V26.3514C13.5361 27.0745 14.1197 27.6581 14.8428 27.6581Z" fill="white"/>
<path d="M14.8428 31.3369C15.6205 31.3369 16.251 30.7064 16.251 29.9287C16.251 29.151 15.6205 28.5205 14.8428 28.5205C14.065 28.5205 13.4346 29.151 13.4346 29.9287C13.4346 30.7064 14.065 31.3369 14.8428 31.3369Z" fill="white"/>
<path fill-rule="evenodd" clip-rule="evenodd" d="M37.5769 15.3771C33.2507 8.83085 24.3955 7.02936 17.8493 11.3555C15.3627 13.0047 13.4851 15.3264 12.4194 18.092C8.71493 19.1577 6 22.5577 6 26.592C6 31.4764 9.9709 35.4346 14.8425 35.4346C15.8194 35.4346 16.7582 35.2697 17.6463 34.9779C17.659 34.9842 17.6716 34.9937 17.6843 35.0032C17.697 35.0128 17.7097 35.0223 17.7224 35.0286C20.1455 36.6652 22.9239 37.4898 25.7149 37.4898C28.4425 37.4898 31.1828 36.7032 33.5806 35.1174C36.7522 33.0241 38.9216 29.8144 39.6828 26.0846C40.4187 22.3547 39.6828 18.5488 37.5769 15.3771ZM8.60075 26.592C8.60075 23.154 11.3918 20.3629 14.8299 20.3629C18.2679 20.3629 21.059 23.154 21.059 26.592C21.059 30.0301 18.2679 32.8211 14.8299 32.8211C11.3918 32.8211 8.60075 30.0301 8.60075 26.592ZM31.9694 32.7197C34.5067 31.045 36.2321 28.4823 36.841 25.5137C37.45 22.5323 36.8537 19.5003 35.1791 16.9629C31.7284 11.7361 24.6619 10.2898 19.4351 13.7532C17.8619 14.7935 16.5933 16.1764 15.7179 17.8003C20.1709 18.2443 23.6724 22.0122 23.6724 26.592C23.6724 29.307 22.4418 31.7301 20.5134 33.354C24.1418 35.2189 28.506 35.0159 31.9694 32.7197Z" fill="white"/>
<path d="M31.7281 24.3089L28.3154 21.7842V16.2021C28.3154 15.4029 27.6684 14.7686 26.8818 14.7686C26.0826 14.7686 25.4482 15.4156 25.4482 16.2021V22.52C25.4482 22.9768 25.6639 23.4081 26.0318 23.6745L30.0281 26.6305C30.2818 26.8208 30.5863 26.9096 30.8781 26.9096C31.3221 26.9096 31.7535 26.7066 32.0326 26.326C32.502 25.679 32.3624 24.7783 31.7281 24.3089Z" fill="white"/>
</svg>
