<?xml version="1.0" encoding="utf-8"?>
<!-- Generator: Adobe Illustrator 22.1.0, SVG Export Plug-In . SVG Version: 6.00 Build 0)  -->
<svg version="1.1" id="Capa_1" xmlns="http://www.w3.org/2000/svg" xmlns:xlink="http://www.w3.org/1999/xlink" x="0px" y="0px"
	 viewBox="0 0 267.6 267.5" style="enable-background:new 0 0 267.6 267.5;" xml:space="preserve">
<style type="text/css">
	.st0{fill:#FFFFFF;}
</style>
<g>
	<path class="st0" d="M203.4,0H64.2C28.8,0,0,28.8,0,64.2v139.1c0,35.4,28.8,64.2,64.2,64.2h139.1c35.4,0,64.2-28.8,64.2-64.2V64.2
		C267.6,28.8,238.8,0,203.4,0z M244.8,203.3c0,22.9-18.6,41.5-41.5,41.5H64.2c-22.9,0-41.5-18.6-41.5-41.5V64.2
		c0-22.9,18.6-41.5,41.5-41.5h139.1c22.9,0,41.5,18.6,41.5,41.5V203.3z"/>
	<path class="st0" d="M179.2,47.4c-10.3,0-20,4-27.3,11.3L73.6,135c-0.1,0.1-0.1,0.1-0.2,0.2c0,0-0.1,0.1-0.1,0.1l-17.5,17.1
		c0,0-0.1,0.1-0.1,0.1c-3.9,3.9-6,9-6,14.5v30.4c0,8.8,7.1,15.9,15.9,15.9H96c5.4,0,10.6-2.1,14.4-6l17.1-16.7
		c0.3-0.2,0.5-0.4,0.7-0.7c0.1-0.1,0.3-0.3,0.4-0.4l77.8-75.9c0,0,0.1-0.1,0.1-0.1c15.1-15.1,15.1-39.7,0-54.8
		C199.3,51.5,189.5,47.4,179.2,47.4z M95.1,190.6H72.4V168l8.9-8.7l22.6,22.6L95.1,190.6z M190.5,97.5L120.3,166l-22.6-22.6
		L167.8,75c0,0,0.1-0.1,0.1-0.1c3-3,7-4.7,11.3-4.7c4.3,0,8.3,1.7,11.3,4.7C196.7,81.1,196.7,91.3,190.5,97.5z"/>
</g>
</svg>
