<svg width="390" height="300" viewBox="0 0 390 300" fill="none" xmlns="http://www.w3.org/2000/svg">
<path d="M160.734 245.57H131.774L131.965 245.697L134.147 247.126C135.014 247.675 135.895 248.198 136.775 248.721C137.655 249.244 138.854 249.997 139.913 250.545C140.972 251.094 142.159 251.821 143.294 252.357C144.213 252.842 145.157 253.276 146.088 253.735L148.129 254.679C149.125 255.138 150.12 255.572 151.127 255.955C151.714 256.21 152.301 256.439 152.888 256.669C154.393 257.281 155.924 257.843 157.455 258.391C159.79 259.208 162.137 259.961 164.51 260.624L165.301 260.815C166.577 261.173 167.853 261.504 169.231 261.81L170.137 262.015C172.688 262.601 176.248 263.29 178.825 263.635C176.962 262.283 175.227 260.688 173.505 259.17C168.755 255.126 164.472 250.564 160.734 245.57Z" fill="#752929"/>
<path opacity="0.6" d="M130.41 55.7677C131.15 55.2447 131.902 54.7217 132.668 54.2241C131.902 54.7217 131.15 55.2447 130.41 55.7677Z" fill="url(#paint0_radial_18212_73416)"/>
<path opacity="0.6" d="M125.381 59.4841L127.537 57.8257L125.381 59.4841Z" fill="url(#paint1_radial_18212_73416)"/>
<path opacity="0.6" d="M120.522 63.4778C121.198 62.8909 121.874 62.3296 122.563 61.7683C121.925 62.3296 121.198 62.8909 120.522 63.4778Z" fill="url(#paint2_radial_18212_73416)"/>
<path opacity="0.6" d="M135.602 52.3516C136.38 51.8796 137.146 51.3948 137.924 50.9355C137.146 51.3948 136.38 51.8796 135.602 52.3516Z" fill="url(#paint3_radial_18212_73416)"/>
<path opacity="0.6" d="M159.994 40.9041L162.546 40.1387L159.994 40.9041Z" fill="url(#paint4_radial_18212_73416)"/>
<path opacity="0.6" d="M140.987 49.2252C141.765 48.7914 142.53 48.3577 143.321 47.9495C142.53 48.3577 141.765 48.7914 140.987 49.2252Z" fill="url(#paint5_radial_18212_73416)"/>
<path opacity="0.6" d="M152.85 43.5715C153.692 43.2271 154.547 42.8827 155.402 42.5637C154.547 42.8827 153.692 43.2271 152.85 43.5715Z" fill="url(#paint6_radial_18212_73416)"/>
<path opacity="0.6" d="M146.574 46.3544C147.326 45.9972 148.066 45.6145 148.832 45.27C148.066 45.6145 147.326 45.9972 146.574 46.3544Z" fill="url(#paint7_radial_18212_73416)"/>
<path opacity="0.6" d="M115.866 67.7747C116.465 67.1879 117.141 66.6266 117.703 66.0525C117.09 66.6266 116.465 67.1879 115.866 67.7747Z" fill="url(#paint8_radial_18212_73416)"/>
<path opacity="0.6" d="M111.401 72.3681C111.886 71.845 112.396 71.3475 112.881 70.8245C112.396 71.3475 111.886 71.845 111.401 72.3681Z" fill="url(#paint9_radial_18212_73416)"/>
<path opacity="0.6" d="M165.775 39.1707C166.706 38.9156 167.637 38.6987 168.556 38.4563C167.637 38.6987 166.706 38.9156 165.775 39.1707Z" fill="url(#paint10_radial_18212_73416)"/>
<path opacity="0.6" d="M171.681 37.7304C172.651 37.5135 173.62 37.3349 174.577 37.1436C173.569 37.3349 172.6 37.5518 171.681 37.7304Z" fill="url(#paint11_radial_18212_73416)"/>
<path style="mix-blend-mode:multiply" opacity="0.27" d="M137.923 50.9341C138.931 50.3345 139.952 49.7732 140.985 49.2246C139.952 49.7732 138.931 50.309 137.923 50.9341Z" fill="url(#paint12_radial_18212_73416)"/>
<path style="mix-blend-mode:multiply" opacity="0.27" d="M132.667 54.2254C133.637 53.5875 134.619 52.9497 135.602 52.3501C134.683 52.9624 133.637 53.5748 132.667 54.2254Z" fill="url(#paint13_radial_18212_73416)"/>
<path style="mix-blend-mode:multiply" opacity="0.27" d="M122.563 61.7948C123.494 61.0166 124.426 60.2511 125.382 59.5112C124.477 60.2256 123.494 60.9911 122.563 61.7948Z" fill="url(#paint14_radial_18212_73416)"/>
<path style="mix-blend-mode:multiply" opacity="0.27" d="M112.881 70.8229C113.864 69.7896 114.846 68.769 115.867 67.7739C114.846 68.769 113.864 69.7896 112.881 70.8229Z" fill="url(#paint15_radial_18212_73416)"/>
<path style="mix-blend-mode:multiply" opacity="0.27" d="M127.539 57.8229C128.483 57.1213 129.439 56.4324 130.409 55.769C129.439 56.4324 128.483 57.1213 127.539 57.8229Z" fill="url(#paint16_radial_18212_73416)"/>
<path style="mix-blend-mode:multiply" opacity="0.27" d="M143.319 47.9484C144.39 47.3871 145.488 46.8768 146.572 46.3538C145.488 46.8768 144.39 47.3998 143.319 47.9484Z" fill="url(#paint17_radial_18212_73416)"/>
<path style="mix-blend-mode:multiply" opacity="0.27" d="M111.401 72.3647C110.584 73.2577 109.793 74.189 108.99 75.1203C109.793 74.2018 110.584 73.2705 111.401 72.3647Z" fill="url(#paint18_radial_18212_73416)"/>
<path style="mix-blend-mode:multiply" opacity="0.27" d="M148.832 45.2721C150.108 44.6726 151.498 44.124 152.851 43.5754C151.498 44.124 150.159 44.6726 148.832 45.2721Z" fill="url(#paint19_radial_18212_73416)"/>
<path style="mix-blend-mode:multiply" opacity="0.27" d="M174.527 37.1443C175.535 36.9529 176.543 36.7615 177.551 36.5957C176.543 36.7615 175.51 36.9529 174.527 37.1443Z" fill="url(#paint20_radial_18212_73416)"/>
<path style="mix-blend-mode:multiply" opacity="0.27" d="M155.402 42.5681C156.92 41.9813 158.451 41.4327 159.995 40.9097C158.451 41.3817 156.92 41.9813 155.402 42.5681Z" fill="url(#paint21_radial_18212_73416)"/>
<path style="mix-blend-mode:multiply" opacity="0.27" d="M168.555 38.4588C169.575 38.2165 170.609 37.9486 171.629 37.7317C170.596 37.9486 169.575 38.2165 168.555 38.4588Z" fill="url(#paint22_radial_18212_73416)"/>
<path style="mix-blend-mode:multiply" opacity="0.27" d="M162.521 40.1038C163.606 39.7721 164.69 39.4277 165.775 39.1343C164.69 39.466 163.606 39.8104 162.521 40.1038Z" fill="url(#paint23_radial_18212_73416)"/>
<path style="mix-blend-mode:multiply" opacity="0.27" d="M117.702 66.0517C118.633 65.1842 119.565 64.3167 120.521 63.5002C119.565 64.3422 118.633 65.1842 117.702 66.0517Z" fill="url(#paint24_radial_18212_73416)"/>
<path opacity="0.6" d="M87.1861 187.762L87.0713 187.43L87.1861 187.762Z" fill="url(#paint25_radial_18212_73416)"/>
<path style="mix-blend-mode:multiply" opacity="0.27" d="M87.1861 187.762L87.0713 187.43L87.1861 187.762Z" fill="url(#paint26_radial_18212_73416)"/>
<path opacity="0.6" d="M106.464 222.539L107.561 223.904C107.242 223.381 106.834 222.935 106.464 222.539Z" fill="url(#paint27_radial_18212_73416)"/>
<path style="mix-blend-mode:multiply" opacity="0.27" d="M106.464 222.539L107.561 223.904C107.242 223.381 106.834 222.935 106.464 222.539Z" fill="url(#paint28_radial_18212_73416)"/>
<path opacity="0.6" d="M278.081 93.3416C280.046 92.8823 282.418 93.0227 283.694 94.6173C284.97 96.212 281.551 98.5338 281.895 100.83C282.559 105.18 280.25 106.954 279.191 107.604C275.619 109.837 270.49 106.328 270.388 102.119C270.286 97.9087 273.986 94.3111 278.081 93.3416Z" fill="#8E1747"/>
<path opacity="0.6" d="M192.515 264.883C190.984 264.883 189.466 264.806 187.935 264.704C189.453 264.768 190.984 264.845 192.515 264.883Z" fill="#8E1747"/>
<path style="mix-blend-mode:multiply" opacity="0.27" d="M108.988 75.137C108.376 75.8514 107.713 76.5275 107.151 77.2674C107.751 76.5275 108.376 75.8259 108.988 75.137Z" fill="url(#paint29_radial_18212_73416)"/>
<path opacity="0.6" d="M98.961 183.079C99.0376 180.527 99.1396 177.976 99.2927 175.488H83.7417C84.2647 177.874 84.8516 180.247 85.5405 182.581V182.709C85.9997 184.291 86.4973 185.86 87.0331 187.429L87.1479 187.761C88.1174 190.58 89.2145 193.361 90.4137 196.104C94.9297 193.272 98.7314 188.807 98.961 183.079Z" fill="url(#paint30_radial_18212_73416)"/>
<path opacity="0.6" d="M103.644 81.7324H110.622C109.636 79.6675 109.081 77.4235 108.989 75.137C108.377 75.8386 107.714 76.5275 107.152 77.2547C105.945 78.726 104.775 80.2186 103.644 81.7324Z" fill="url(#paint31_radial_18212_73416)"/>
<path opacity="0.6" d="M81.8923 164.938H100.237C101.048 158.677 102.821 152.58 105.493 146.861H80.9866C80.8159 152.901 81.1188 158.945 81.8923 164.938Z" fill="url(#paint32_radial_18212_73416)"/>
<path d="M81.7891 136.295H112.612C114.105 134.624 116.439 133.489 118.289 131.932C126.85 126.383 127.283 113.421 126.633 108.267C126.261 104.787 125.165 101.424 123.418 98.3921H93.3604C87.3293 110.258 83.4135 123.084 81.7891 136.295Z" fill="#602424"/>
<path d="M101.512 183.079C101.666 180.527 101.704 177.976 101.857 175.488H83.7417C84.2647 177.874 84.8516 180.247 85.5405 182.581V182.709C85.9997 184.291 86.4973 185.86 87.0331 187.429L87.1479 187.761C88.1174 190.58 89.2145 193.361 90.4137 196.104C94.9297 193.272 100.989 191.422 101.512 183.079Z" fill="#602424"/>
<path d="M103.67 81.73H110.878C109.864 79.5808 109.283 77.253 109.169 74.8794C108.556 75.5938 107.727 76.5251 107.128 77.2522C105.937 78.7236 104.785 80.2162 103.67 81.73Z" fill="#602424"/>
<path d="M81.8923 164.938H101.513C102.324 158.677 104.097 152.58 106.769 146.861H80.9866C80.8159 152.901 81.1188 158.945 81.8923 164.938Z" fill="#602424"/>
<path opacity="0.6" d="M105.749 221.633L106.463 222.475L105.774 221.62L105.749 221.633Z" fill="url(#paint33_radial_18212_73416)"/>
<path fill-rule="evenodd" clip-rule="evenodd" d="M256.431 58.5781C260.955 65.3724 263.934 73.0762 265.158 81.1467C265.874 85.9087 265.774 90.7577 264.864 95.4864C262.939 103.344 256.003 109.128 248.478 115.403C238.396 123.809 227.256 133.098 225.685 149.439C224.546 161.223 224.795 173.156 225.034 184.605C225.592 211.369 226.095 235.481 208.679 248.822H195.526V255.303C195.538 255.298 195.551 255.294 195.564 255.289V257.445H236.669C222.589 262.826 207.582 265.367 192.515 264.921C192.493 264.882 192.472 264.842 192.451 264.803C191 264.761 189.204 264.692 187.884 264.604C184.503 264.387 181.135 263.991 177.767 263.468C175.887 262.107 174.097 260.67 172.396 259.156C167.806 255.081 163.689 250.501 160.123 245.505H171.375V223.817H148.513C147.095 220.15 145.885 216.406 144.89 212.603C141.196 198.884 140.397 184.547 142.543 170.502C148.335 141.491 161.22 127.253 182.551 104.621C192.936 93.9938 195.845 75.5843 193.918 58.5781H256.431ZM207.722 235.363C208.781 234.712 211.09 232.939 210.44 228.589C210.278 227.514 210.935 226.44 211.548 225.438C212.245 224.297 212.886 223.25 212.2 222.401C210.912 220.806 208.551 220.666 206.574 221.125C202.517 222.095 198.817 225.667 198.919 229.877C199.021 234.087 204.163 237.596 207.722 235.363Z" fill="url(#paint34_linear_18212_73416)"/>
<path d="M148.513 137.903C151.064 138.209 155.325 133.783 155.325 133.783C157.252 130.976 156.269 127.302 154.534 124.699C151.702 120.502 144.112 120.171 141.892 124.699C140.578 127.455 140.451 136.934 148.513 137.903Z" fill="#622525"/>
<path d="M321.699 92.8971H272.85V76.414H284.829C281.365 72.2444 277.609 68.3264 273.59 64.6896L273.488 64.6003C272.212 63.4393 270.872 62.2784 269.507 61.1557L269.227 60.926C268.499 60.3264 267.759 59.7523 267.019 59.1782L266.203 58.5786H256.15C260.601 65.3299 263.494 72.9865 264.621 80.9941C265.323 85.7592 265.202 90.6095 264.264 95.3338C259.76 113.705 227.036 121.589 224.281 150.116C220.453 189.448 232.701 229.775 207.823 248.823H254.606C258.986 246.235 263.188 243.359 267.185 240.211C271.468 236.819 275.506 233.127 279.267 229.163H248.801V225.897L247.334 226.05C239.922 226.867 229.473 218.944 231.642 213.292C233.811 207.641 237.932 202.959 241.95 198.391C244.719 195.24 247.908 191.859 252.08 191.477C263.46 190.43 272.492 205.65 268.436 215.563C268.018 216.584 267.519 217.57 266.943 218.51H288.299C293.533 211.507 297.954 203.931 301.478 195.929H271.319V183.567H306.097C309.206 173.545 310.923 163.144 311.2 152.655L264.697 152.833C264.012 153.856 263.192 154.783 262.261 155.589C262.261 155.589 255.882 162.886 247.793 157.936C239.705 152.986 240.572 137.065 243.66 135.891C244.661 135.546 245.704 135.336 246.76 135.266V130.328L309.567 130.163C308.277 122.692 306.252 115.367 303.519 108.296H321.699V92.8971Z" fill="url(#paint35_linear_18212_73416)"/>
<path d="M111.72 182.136C110.445 184.892 110.266 194.472 118.418 195.454C120.969 195.761 125.307 191.283 125.307 191.283C127.259 188.451 126.264 184.726 124.503 182.098C121.696 177.888 114.017 177.518 111.72 182.136Z" fill="#622525"/>
<path opacity="0.5" d="M230.698 103.982C231.885 103.242 234.449 101.265 233.722 96.4296C233.339 93.8782 237.154 91.2375 235.725 89.5025C234.296 87.7675 231.655 87.6017 229.461 88.1119C224.894 89.1835 220.773 93.2148 220.888 97.8584C221.003 102.502 226.718 106.444 230.698 103.982Z" fill="#752929"/>
<path d="M213.182 221.483C211.715 219.697 208.997 219.531 206.739 220.067C202.057 221.164 197.809 225.272 197.937 230.082C198.064 234.891 203.933 238.909 208.015 236.371C209.291 235.605 211.842 233.577 211.115 228.614C210.72 225.974 214.649 223.269 213.182 221.483Z" fill="#732F2F"/>
<path opacity="0.5" d="M169.562 212.831C170.838 211.479 170.404 210.28 169.703 208.545C168.959 206.711 167.637 205.171 165.937 204.158C164.238 203.145 162.254 202.714 160.288 202.931C156.269 203.608 153.527 208.659 156.129 211.517C156.894 212.372 158.374 213.852 162.622 214.171C165.633 214.387 168.223 214.196 169.562 212.831Z" fill="#752929"/>
<path d="M279.319 108.995C280.442 108.293 282.904 106.443 282.202 101.787C281.832 99.3377 285.493 96.8245 284.116 95.1661C282.738 93.5076 280.288 93.3545 278.132 93.8903C273.782 94.9237 269.84 98.7381 269.942 103.203C270.044 107.668 275.517 111.38 279.319 108.995Z" fill="#713535"/>
<path d="M247.82 47.0689C232.263 39.3037 215.144 35.1768 197.758 35C194.416 35 191.073 35.1276 187.743 35.37C189.436 39.1417 190.79 43.0568 191.787 47.0689H247.82Z" fill="#713535"/>
<path d="M252.131 190.648C247.819 191.056 244.476 194.475 241.669 197.792C237.536 202.5 233.313 207.335 231.042 213.178C228.771 219.021 239.577 227.211 247.232 226.344C247.742 226.344 248.304 226.191 248.801 226.153V218.498H267.478C268.072 217.523 268.588 216.504 269.022 215.449C273.271 205.319 263.881 189.614 252.131 190.648Z" fill="#713535"/>
<path d="M246.761 134.955C245.625 135.031 244.503 135.245 243.419 135.592C240.229 136.868 239.349 153.121 247.705 158.198C256.061 163.276 262.529 155.787 262.529 155.787C263.445 154.886 264.262 153.889 264.966 152.815H246.761V134.955Z" fill="#713535"/>
<path d="M351.272 133.158H328.539V150.113H351.272V133.158Z" fill="#7C3F3F"/>
<path d="M342.213 219.349H305.305V229.198H342.213V219.349Z" fill="#7C3F3F"/>
<path d="M307.704 47.4136H295.687V58.742H307.704V47.4136Z" fill="#7C3F3F"/>
<path d="M91.7663 82.6497H75.1055V96.2998H91.7663V82.6497Z" fill="#752929"/>
<path d="M127.553 228.614H75.7559V241.346H127.553V228.614Z" fill="#752929"/>
<path fill-rule="evenodd" clip-rule="evenodd" d="M194.467 58.5756H175.841V47.0936H192.094C191.167 43.0761 189.886 39.1484 188.267 35.3564L186.481 35.484C185.486 35.5691 184.491 35.6711 183.496 35.7902C182.488 35.905 181.48 36.0326 180.485 36.1729L177.525 36.6195C176.517 36.7853 175.509 36.9767 174.501 37.1681C173.494 37.3594 172.575 37.538 171.605 37.7549C170.93 37.9061 170.198 38.082 169.471 38.2569L169.471 38.2569C169.155 38.3329 168.84 38.4087 168.531 38.4821C167.51 38.7245 166.681 38.9414 165.75 39.1965C164.92 39.4238 163.847 39.7524 162.856 40.0559L162.856 40.0559L162.496 40.1661L159.945 40.9316C158.401 41.4547 156.87 42.0033 155.352 42.5901C154.497 42.9091 153.642 43.2535 152.8 43.598C151.448 44.1466 150.109 44.6951 148.782 45.2948C148.311 45.5067 147.85 45.7331 147.389 45.9591C147.101 46.1005 146.813 46.2417 146.524 46.3792C146.275 46.4992 146.025 46.6185 145.776 46.7379L145.775 46.7384L145.775 46.7385C144.936 47.1395 144.096 47.5416 143.27 47.9739C142.6 48.3201 141.947 48.6846 141.29 49.0519L141.29 49.0521L140.936 49.2497C140.713 49.3679 140.491 49.4868 140.269 49.6064H111.401V61.9299H122.343C121.713 62.445 121.092 62.9618 120.472 63.5001C119.844 64.053 119.227 64.617 118.613 65.1774L118.613 65.1778L118.613 65.1778C118.292 65.4708 117.972 65.7627 117.653 66.0517C117.449 66.2431 117.239 66.433 117.029 66.6229C116.609 67.0029 116.19 67.3828 115.816 67.774C114.795 68.7691 113.813 69.7897 112.83 70.8231C112.588 71.0846 112.339 71.3398 112.09 71.5949C111.842 71.8501 111.593 72.1053 111.35 72.3668C110.742 73.0321 110.148 73.7258 109.552 74.4214L109.552 74.4215L109.551 74.4221C109.348 74.66 109.144 74.898 108.939 75.1352C109.03 77.4219 109.586 79.666 110.572 81.731H130.053V98.3927H122.399C124.245 101.233 125.451 104.442 125.933 107.795C126.583 112.898 126.149 125.911 117.589 131.461C115.817 132.952 114.154 134.568 112.613 136.296H129.76V146.86H105.52C102.839 152.578 101.058 158.675 100.238 164.937H111.593V175.488H99.2432C99.0902 178.04 98.9881 180.515 98.9115 183.079C98.7329 188.807 94.9311 193.285 90.4531 196.105C90.5119 196.24 90.571 196.376 90.6303 196.512H66.3667V214.73H100.692C102.293 217.088 103.985 219.386 105.762 221.62L106.451 222.475C106.664 222.738 106.889 222.998 107.114 223.258L107.114 223.258C107.282 223.451 107.449 223.645 107.612 223.84H149.381C147.964 220.178 146.754 216.438 145.758 212.639C142.051 199.062 141.243 184.856 143.385 170.946C149.177 141.935 161.642 127.927 182.934 105.282C193.37 94.6547 196.394 75.5818 194.467 58.5756ZM124.351 190.644C124.351 190.644 120.638 194.472 118.508 194.178C111.606 193.349 111.72 185.248 112.843 182.9C114.744 178.984 121.25 179.264 123.674 182.9C125.167 185.095 126.009 188.246 124.351 190.644ZM154.395 133.234C154.395 133.234 150.683 137.062 148.552 136.768C141.65 135.939 141.752 127.838 142.888 125.49C144.789 121.574 151.282 121.854 153.706 125.49C155.212 127.646 156.054 130.798 154.395 133.234Z" fill="#752929"/>
<path d="M284.829 249.472H261.228V256.514H284.829V249.472Z" fill="#7C3F3F"/>
<path d="M74.8111 137.04H39V146.251H74.8111V137.04Z" fill="#752929"/>
<mask id="mask0_18212_73416" style="mask-type:alpha" maskUnits="userSpaceOnUse" x="149" y="105" width="93" height="80">
<g opacity="0.4">
<path opacity="0.75" fill-rule="evenodd" clip-rule="evenodd" d="M153.519 182.682C150.742 182.682 149.035 179.644 150.479 177.273L192.889 107.612C194.276 105.334 197.582 105.334 198.969 107.612L241.364 177.274C242.807 179.645 241.1 182.682 238.324 182.682C238.324 182.682 210.154 184.461 195.921 184.461C181.688 184.461 153.519 182.682 153.519 182.682ZM199.924 132.364H192.509V156.748H199.924V132.364ZM192.509 162.805H199.924V169.802H192.509V162.805Z" fill="#FF3030"/>
</g>
</mask>
<g mask="url(#mask0_18212_73416)">
<path fill-rule="evenodd" clip-rule="evenodd" d="M155.745 183.763C151.964 183.556 149.782 179.404 151.732 176.158L193.772 106.204C194.75 104.576 197.11 104.577 198.088 106.205L240.113 176.159C242.062 179.404 239.88 183.556 236.1 183.763C224.155 184.42 202.798 185.539 195.922 185.539C189.045 185.539 167.69 184.42 155.745 183.763ZM199.904 135.106C199.904 133.716 198.777 132.589 197.386 132.589H195.045C193.655 132.589 192.528 133.716 192.528 135.106V154.645C192.528 156.036 193.655 157.163 195.045 157.163H197.386C198.777 157.163 199.904 156.036 199.904 154.645V135.106ZM192.528 165.784C192.528 164.394 193.655 163.267 195.045 163.267H197.386C198.777 163.267 199.904 164.394 199.904 165.784V167.8C199.904 169.191 198.777 170.318 197.386 170.318H195.045C193.655 170.318 192.528 169.191 192.528 167.8V165.784Z" fill="#CA7575"/>
<path d="M161.77 153.556C153.974 140.383 160.815 122.734 165.21 115.556L127.374 145.323L110.749 216.256C129.476 214.356 156.288 212.911 158.581 204.298C161.448 193.531 171.516 170.023 161.77 153.556Z" fill="#B85A5A"/>
<path d="M238.512 127.518C253.181 122.091 271.508 125.068 271.875 116.464L287.655 164.955L217.743 232.624C224.037 216.26 225.295 193.602 220.26 174.092C217.473 163.293 220.176 134.302 238.512 127.518Z" fill="#E89494"/>
</g>
<defs>
<radialGradient id="paint0_radial_18212_73416" cx="0" cy="0" r="1" gradientUnits="userSpaceOnUse" gradientTransform="translate(134.965 48.9494) rotate(-123.986) scale(0.958512 0.965915)">
<stop stop-color="#B8B8B8"/>
<stop offset="0.62" stop-color="#888888"/>
<stop offset="0.7" stop-color="#5D5D5D"/>
<stop offset="0.79" stop-color="#393939"/>
<stop offset="0.85" stop-color="#232323"/>
<stop offset="0.9" stop-color="#1B1B1B"/>
</radialGradient>
<radialGradient id="paint1_radial_18212_73416" cx="0" cy="0" r="1" gradientUnits="userSpaceOnUse" gradientTransform="translate(-3071.44 -1097.51) scale(316.819 243.707)">
<stop stop-color="#B8B8B8"/>
<stop offset="0.62" stop-color="#888888"/>
<stop offset="0.7" stop-color="#5D5D5D"/>
<stop offset="0.79" stop-color="#393939"/>
<stop offset="0.85" stop-color="#232323"/>
<stop offset="0.9" stop-color="#1B1B1B"/>
</radialGradient>
<radialGradient id="paint2_radial_18212_73416" cx="0" cy="0" r="1" gradientUnits="userSpaceOnUse" gradientTransform="translate(-2906.04 -1129.11) scale(299.945 251.206)">
<stop stop-color="#B8B8B8"/>
<stop offset="0.62" stop-color="#888888"/>
<stop offset="0.7" stop-color="#5D5D5D"/>
<stop offset="0.79" stop-color="#393939"/>
<stop offset="0.85" stop-color="#232323"/>
<stop offset="0.9" stop-color="#1B1B1B"/>
</radialGradient>
<radialGradient id="paint3_radial_18212_73416" cx="0" cy="0" r="1" gradientUnits="userSpaceOnUse" gradientTransform="translate(-3307.13 -935.539) scale(341.189 208.088)">
<stop stop-color="#B8B8B8"/>
<stop offset="0.62" stop-color="#888888"/>
<stop offset="0.7" stop-color="#5D5D5D"/>
<stop offset="0.79" stop-color="#393939"/>
<stop offset="0.85" stop-color="#232323"/>
<stop offset="0.9" stop-color="#1B1B1B"/>
</radialGradient>
<radialGradient id="paint4_radial_18212_73416" cx="0" cy="0" r="1" gradientUnits="userSpaceOnUse" gradientTransform="translate(-3623.23 -493.091) scale(374.934 112.48)">
<stop stop-color="#B8B8B8"/>
<stop offset="0.62" stop-color="#888888"/>
<stop offset="0.7" stop-color="#5D5D5D"/>
<stop offset="0.79" stop-color="#393939"/>
<stop offset="0.85" stop-color="#232323"/>
<stop offset="0.9" stop-color="#1B1B1B"/>
</radialGradient>
<radialGradient id="paint5_radial_18212_73416" cx="0" cy="0" r="1" gradientUnits="userSpaceOnUse" gradientTransform="translate(-3320.63 -840.766) scale(343.062 187.467)">
<stop stop-color="#B8B8B8"/>
<stop offset="0.62" stop-color="#888888"/>
<stop offset="0.7" stop-color="#5D5D5D"/>
<stop offset="0.79" stop-color="#393939"/>
<stop offset="0.85" stop-color="#232323"/>
<stop offset="0.9" stop-color="#1B1B1B"/>
</radialGradient>
<radialGradient id="paint6_radial_18212_73416" cx="0" cy="0" r="1" gradientUnits="userSpaceOnUse" gradientTransform="translate(-3630.39 -659.522) scale(374.936 148.099)">
<stop stop-color="#B8B8B8"/>
<stop offset="0.62" stop-color="#888888"/>
<stop offset="0.7" stop-color="#5D5D5D"/>
<stop offset="0.79" stop-color="#393939"/>
<stop offset="0.85" stop-color="#232323"/>
<stop offset="0.9" stop-color="#1B1B1B"/>
</radialGradient>
<radialGradient id="paint7_radial_18212_73416" cx="0" cy="0" r="1" gradientUnits="userSpaceOnUse" gradientTransform="translate(-3201.57 -710.138) scale(331.816 159.347)">
<stop stop-color="#B8B8B8"/>
<stop offset="0.62" stop-color="#888888"/>
<stop offset="0.7" stop-color="#5D5D5D"/>
<stop offset="0.79" stop-color="#393939"/>
<stop offset="0.85" stop-color="#232323"/>
<stop offset="0.9" stop-color="#1B1B1B"/>
</radialGradient>
<radialGradient id="paint8_radial_18212_73416" cx="0" cy="0" r="1" gradientUnits="userSpaceOnUse" gradientTransform="translate(-2608.02 -1133.72) scale(269.949 253.081)">
<stop stop-color="#B8B8B8"/>
<stop offset="0.62" stop-color="#888888"/>
<stop offset="0.7" stop-color="#5D5D5D"/>
<stop offset="0.79" stop-color="#393939"/>
<stop offset="0.85" stop-color="#232323"/>
<stop offset="0.9" stop-color="#1B1B1B"/>
</radialGradient>
<radialGradient id="paint9_radial_18212_73416" cx="0" cy="0" r="1" gradientUnits="userSpaceOnUse" gradientTransform="translate(-2082.86 -1004.52) scale(217.461 226.835)">
<stop stop-color="#B8B8B8"/>
<stop offset="0.62" stop-color="#888888"/>
<stop offset="0.7" stop-color="#5D5D5D"/>
<stop offset="0.79" stop-color="#393939"/>
<stop offset="0.85" stop-color="#232323"/>
<stop offset="0.9" stop-color="#1B1B1B"/>
</radialGradient>
<radialGradient id="paint10_radial_18212_73416" cx="0" cy="0" r="1" gradientUnits="userSpaceOnUse" gradientTransform="translate(-3957.99 -459.224) scale(408.683 104.981)">
<stop stop-color="#B8B8B8"/>
<stop offset="0.62" stop-color="#888888"/>
<stop offset="0.7" stop-color="#5D5D5D"/>
<stop offset="0.79" stop-color="#393939"/>
<stop offset="0.85" stop-color="#232323"/>
<stop offset="0.9" stop-color="#1B1B1B"/>
</radialGradient>
<radialGradient id="paint11_radial_18212_73416" cx="0" cy="0" r="1" gradientUnits="userSpaceOnUse" gradientTransform="translate(-4122.22 -371.666) scale(425.545 86.2347)">
<stop stop-color="#B8B8B8"/>
<stop offset="0.62" stop-color="#888888"/>
<stop offset="0.7" stop-color="#5D5D5D"/>
<stop offset="0.79" stop-color="#393939"/>
<stop offset="0.85" stop-color="#232323"/>
<stop offset="0.9" stop-color="#1B1B1B"/>
</radialGradient>
<radialGradient id="paint12_radial_18212_73416" cx="0" cy="0" r="1" gradientUnits="userSpaceOnUse" gradientTransform="translate(166.708 147.035) rotate(-123.986) scale(162.756 164.013)">
<stop stop-color="#424242" stop-opacity="0.4"/>
<stop offset="0.51" stop-color="#2E2E2E" stop-opacity="0.62"/>
<stop offset="0.9" stop-color="#0D0D0D"/>
</radialGradient>
<radialGradient id="paint13_radial_18212_73416" cx="0" cy="0" r="1" gradientUnits="userSpaceOnUse" gradientTransform="translate(166.708 147.035) rotate(-123.986) scale(162.756 164.013)">
<stop stop-color="#424242" stop-opacity="0.4"/>
<stop offset="0.51" stop-color="#2E2E2E" stop-opacity="0.62"/>
<stop offset="0.9" stop-color="#0D0D0D"/>
</radialGradient>
<radialGradient id="paint14_radial_18212_73416" cx="0" cy="0" r="1" gradientUnits="userSpaceOnUse" gradientTransform="translate(166.707 147.039) rotate(-123.986) scale(162.756 164.013)">
<stop stop-color="#424242" stop-opacity="0.4"/>
<stop offset="0.51" stop-color="#2E2E2E" stop-opacity="0.62"/>
<stop offset="0.9" stop-color="#0D0D0D"/>
</radialGradient>
<radialGradient id="paint15_radial_18212_73416" cx="0" cy="0" r="1" gradientUnits="userSpaceOnUse" gradientTransform="translate(166.708 147.035) rotate(-123.986) scale(162.755 164.012)">
<stop stop-color="#424242" stop-opacity="0.4"/>
<stop offset="0.51" stop-color="#2E2E2E" stop-opacity="0.62"/>
<stop offset="0.9" stop-color="#0D0D0D"/>
</radialGradient>
<radialGradient id="paint16_radial_18212_73416" cx="0" cy="0" r="1" gradientUnits="userSpaceOnUse" gradientTransform="translate(166.707 147.035) rotate(-123.986) scale(162.755 164.013)">
<stop stop-color="#424242" stop-opacity="0.4"/>
<stop offset="0.51" stop-color="#2E2E2E" stop-opacity="0.62"/>
<stop offset="0.9" stop-color="#0D0D0D"/>
</radialGradient>
<radialGradient id="paint17_radial_18212_73416" cx="0" cy="0" r="1" gradientUnits="userSpaceOnUse" gradientTransform="translate(166.707 147.034) rotate(-123.986) scale(162.756 164.013)">
<stop stop-color="#424242" stop-opacity="0.4"/>
<stop offset="0.51" stop-color="#2E2E2E" stop-opacity="0.62"/>
<stop offset="0.9" stop-color="#0D0D0D"/>
</radialGradient>
<radialGradient id="paint18_radial_18212_73416" cx="0" cy="0" r="1" gradientUnits="userSpaceOnUse" gradientTransform="translate(166.707 147.033) rotate(-123.986) scale(162.755 164.013)">
<stop stop-color="#424242" stop-opacity="0.4"/>
<stop offset="0.51" stop-color="#2E2E2E" stop-opacity="0.62"/>
<stop offset="0.9" stop-color="#0D0D0D"/>
</radialGradient>
<radialGradient id="paint19_radial_18212_73416" cx="0" cy="0" r="1" gradientUnits="userSpaceOnUse" gradientTransform="translate(166.709 147.037) rotate(-123.986) scale(162.755 164.013)">
<stop stop-color="#424242" stop-opacity="0.4"/>
<stop offset="0.51" stop-color="#2E2E2E" stop-opacity="0.62"/>
<stop offset="0.9" stop-color="#0D0D0D"/>
</radialGradient>
<radialGradient id="paint20_radial_18212_73416" cx="0" cy="0" r="1" gradientUnits="userSpaceOnUse" gradientTransform="translate(166.711 147.035) rotate(-123.986) scale(162.755 164.012)">
<stop stop-color="#424242" stop-opacity="0.4"/>
<stop offset="0.51" stop-color="#2E2E2E" stop-opacity="0.62"/>
<stop offset="0.9" stop-color="#0D0D0D"/>
</radialGradient>
<radialGradient id="paint21_radial_18212_73416" cx="0" cy="0" r="1" gradientUnits="userSpaceOnUse" gradientTransform="translate(166.709 147.038) rotate(-123.986) scale(162.755 164.013)">
<stop stop-color="#424242" stop-opacity="0.4"/>
<stop offset="0.51" stop-color="#2E2E2E" stop-opacity="0.62"/>
<stop offset="0.9" stop-color="#0D0D0D"/>
</radialGradient>
<radialGradient id="paint22_radial_18212_73416" cx="0" cy="0" r="1" gradientUnits="userSpaceOnUse" gradientTransform="translate(166.709 147.036) rotate(-123.986) scale(162.756 164.013)">
<stop stop-color="#424242" stop-opacity="0.4"/>
<stop offset="0.51" stop-color="#2E2E2E" stop-opacity="0.62"/>
<stop offset="0.9" stop-color="#0D0D0D"/>
</radialGradient>
<radialGradient id="paint23_radial_18212_73416" cx="0" cy="0" r="1" gradientUnits="userSpaceOnUse" gradientTransform="translate(166.71 147.035) rotate(-123.986) scale(162.755 164.012)">
<stop stop-color="#424242" stop-opacity="0.4"/>
<stop offset="0.51" stop-color="#2E2E2E" stop-opacity="0.62"/>
<stop offset="0.9" stop-color="#0D0D0D"/>
</radialGradient>
<radialGradient id="paint24_radial_18212_73416" cx="0" cy="0" r="1" gradientUnits="userSpaceOnUse" gradientTransform="translate(166.706 147.035) rotate(-123.986) scale(162.755 164.013)">
<stop stop-color="#424242" stop-opacity="0.4"/>
<stop offset="0.51" stop-color="#2E2E2E" stop-opacity="0.62"/>
<stop offset="0.9" stop-color="#0D0D0D"/>
</radialGradient>
<radialGradient id="paint25_radial_18212_73416" cx="0" cy="0" r="1" gradientUnits="userSpaceOnUse" gradientTransform="translate(-83.1729 -43.618) scale(16.8719 48.7375)">
<stop stop-color="#B8B8B8"/>
<stop offset="0.62" stop-color="#888888"/>
<stop offset="0.7" stop-color="#5D5D5D"/>
<stop offset="0.79" stop-color="#393939"/>
<stop offset="0.85" stop-color="#232323"/>
<stop offset="0.9" stop-color="#1B1B1B"/>
</radialGradient>
<radialGradient id="paint26_radial_18212_73416" cx="0" cy="0" r="1" gradientUnits="userSpaceOnUse" gradientTransform="translate(166.705 147.045) rotate(-123.988) scale(162.746 164.008)">
<stop stop-color="#424242" stop-opacity="0.4"/>
<stop offset="0.51" stop-color="#2E2E2E" stop-opacity="0.62"/>
<stop offset="0.9" stop-color="#0D0D0D"/>
</radialGradient>
<radialGradient id="paint27_radial_18212_73416" cx="0" cy="0" r="1" gradientUnits="userSpaceOnUse" gradientTransform="translate(-1520.33 -728.391) scale(161.223 200.59)">
<stop stop-color="#B8B8B8"/>
<stop offset="0.62" stop-color="#888888"/>
<stop offset="0.7" stop-color="#5D5D5D"/>
<stop offset="0.79" stop-color="#393939"/>
<stop offset="0.85" stop-color="#232323"/>
<stop offset="0.9" stop-color="#1B1B1B"/>
</radialGradient>
<radialGradient id="paint28_radial_18212_73416" cx="0" cy="0" r="1" gradientUnits="userSpaceOnUse" gradientTransform="translate(-1508.1 -699.466) scale(130.404 162.247)">
<stop stop-color="#424242" stop-opacity="0.4"/>
<stop offset="0.51" stop-color="#2E2E2E" stop-opacity="0.62"/>
<stop offset="0.9" stop-color="#0D0D0D"/>
</radialGradient>
<radialGradient id="paint29_radial_18212_73416" cx="0" cy="0" r="1" gradientUnits="userSpaceOnUse" gradientTransform="translate(166.706 147.037) rotate(-123.986) scale(162.756 164.013)">
<stop stop-color="#424242" stop-opacity="0.4"/>
<stop offset="0.51" stop-color="#2E2E2E" stop-opacity="0.62"/>
<stop offset="0.9" stop-color="#0D0D0D"/>
</radialGradient>
<radialGradient id="paint30_radial_18212_73416" cx="0" cy="0" r="1" gradientUnits="userSpaceOnUse" gradientTransform="translate(-22975 -14186.2) scale(2285.22 3029.46)">
<stop stop-color="#B8B8B8"/>
<stop offset="0.62" stop-color="#888888"/>
<stop offset="0.7" stop-color="#5D5D5D"/>
<stop offset="0.79" stop-color="#393939"/>
<stop offset="0.85" stop-color="#232323"/>
<stop offset="0.9" stop-color="#1B1B1B"/>
</radialGradient>
<radialGradient id="paint31_radial_18212_73416" cx="0" cy="0" r="1" gradientUnits="userSpaceOnUse" gradientTransform="translate(-10243.5 -4519.53) scale(1025.44 969.203)">
<stop stop-color="#B8B8B8"/>
<stop offset="0.62" stop-color="#888888"/>
<stop offset="0.7" stop-color="#5D5D5D"/>
<stop offset="0.79" stop-color="#393939"/>
<stop offset="0.85" stop-color="#232323"/>
<stop offset="0.9" stop-color="#1B1B1B"/>
</radialGradient>
<radialGradient id="paint32_radial_18212_73416" cx="0" cy="0" r="1" gradientUnits="userSpaceOnUse" gradientTransform="translate(-36325.3 -12446.2) scale(3608.02 2656.4)">
<stop stop-color="#B8B8B8"/>
<stop offset="0.62" stop-color="#888888"/>
<stop offset="0.7" stop-color="#5D5D5D"/>
<stop offset="0.79" stop-color="#393939"/>
<stop offset="0.85" stop-color="#232323"/>
<stop offset="0.9" stop-color="#1B1B1B"/>
</radialGradient>
<radialGradient id="paint33_radial_18212_73416" cx="0" cy="0" r="1" gradientUnits="userSpaceOnUse" gradientTransform="translate(386.863 233.348) rotate(-123.986) scale(448.457 451.923)">
<stop stop-color="#252525"/>
<stop offset="0.16" stop-color="#2A2A2A"/>
<stop offset="0.35" stop-color="#383838"/>
<stop offset="0.56" stop-color="#505050"/>
<stop offset="0.78" stop-color="#717171"/>
<stop offset="0.9" stop-color="#878787"/>
</radialGradient>
<linearGradient id="paint34_linear_18212_73416" x1="156.372" y1="138.977" x2="274.381" y2="138.977" gradientUnits="userSpaceOnUse">
<stop stop-color="#732F2F"/>
<stop offset="1" stop-color="#833E3E"/>
</linearGradient>
<linearGradient id="paint35_linear_18212_73416" x1="199.747" y1="180.44" x2="334.98" y2="180.44" gradientUnits="userSpaceOnUse">
<stop offset="0.210292" stop-color="#7F3B3B"/>
<stop offset="1" stop-color="#945A5A"/>
</linearGradient>
</defs>
</svg>
