<svg width="390" height="300" viewBox="0 0 390 300" fill="none" xmlns="http://www.w3.org/2000/svg">
<path opacity="0.37" d="M317.688 149.6C317.688 217.58 262.58 272.688 194.6 272.688C126.62 272.688 71.5119 217.58 71.5119 149.6C71.5119 81.6203 126.62 26.5119 194.6 26.5119C262.58 26.5119 317.688 81.6203 317.688 149.6Z" stroke="#848484" stroke-width="9.0237" stroke-miterlimit="10"/>
<path opacity="0.6" d="M195.977 51.9265C213.143 52.1101 230.402 56.7918 245.64 66.3389C249.22 68.542 252.617 71.0206 255.921 73.6828C262.806 79.2825 268.773 85.7084 273.639 92.6851C297.965 127.201 297.414 175.12 269.141 209.453C264.642 214.961 259.593 219.918 254.177 224.141C241.05 234.514 225.812 241.031 209.93 243.602C183.492 247.916 155.494 241.399 133.187 223.131C130.984 221.387 128.964 219.551 127.036 217.623C91.5103 183.107 87.8384 126.467 119.968 87.3607C139.429 63.6767 167.611 51.6511 195.977 51.9265Z" fill="url(#paint0_radial_22305_91237)"/>
<path opacity="0.18" d="M184.043 238.461C229.208 230.475 214.521 187.788 218.468 147.213C220.763 123.254 247.568 117.379 251.332 101.957C254.361 86.7182 246.925 72.7649 236.644 61.29C239.673 62.7588 242.703 64.4112 245.64 66.2472C249.22 68.4503 252.617 70.9289 255.922 73.591C262.807 79.1908 268.773 85.6167 273.639 92.5933C297.965 127.11 297.415 175.028 269.141 209.361C264.643 214.869 259.594 219.826 254.178 224.049C241.05 234.422 225.812 240.94 209.931 243.51C193.131 246.264 175.598 244.612 159.441 238.278C167.336 239.93 175.873 239.563 184.043 238.461Z" fill="url(#paint1_radial_22305_91237)"/>
<path opacity="0.15" d="M187.623 52.2019C195.334 69.001 196.252 96.9996 183.217 110.31C165.408 129.313 154.576 141.246 149.711 165.573C145.121 193.296 156.136 226.895 179.362 243.694C162.93 241.123 147.048 234.33 133.279 223.131C131.075 221.387 129.056 219.551 127.128 217.623C91.6021 183.107 87.9302 126.467 120.06 87.3607C137.501 66.0635 162.103 54.1297 187.623 52.2019Z" fill="url(#paint2_radial_22305_91237)"/>
<g opacity="0.35">
<g opacity="0.35">
<path opacity="0.3" d="M128.781 132.801C115.286 144.184 113.634 159.331 113.083 176.13C112.9 180.995 109.687 184.667 105.923 187.054C91.9696 154.925 96.1006 116.277 119.968 87.2691C120.519 86.6265 120.978 85.9839 121.529 85.4331C121.804 95.9899 134.289 101.59 135.758 112.973C136.308 117.287 135.941 128.211 128.781 132.801Z" fill="url(#paint3_radial_22305_91237)"/>
<path opacity="0.39" d="M182.391 216.43C184.319 226.16 186.889 236.258 191.571 244.795C170.916 244.245 150.354 237.176 133.187 223.039C130.984 221.295 128.965 219.459 127.037 217.531C124.099 214.685 121.345 211.656 118.867 208.443C143.285 203.302 176.608 189.165 182.391 216.43Z" fill="url(#paint4_radial_22305_91237)"/>
</g>
<path opacity="0.6" fill-rule="evenodd" clip-rule="evenodd" d="M129.515 185.494C123.732 184.759 123.824 177.966 124.742 176.038C126.302 172.734 131.81 173.009 133.83 176.038C135.115 177.874 135.757 180.536 134.38 182.556C134.38 182.464 131.259 185.677 129.515 185.494Z" fill="url(#paint5_radial_22305_91237)"/>
<path opacity="0.2" fill-rule="evenodd" clip-rule="evenodd" d="M268.131 101.865C267.029 100.58 265.101 100.396 263.449 100.855C260.052 101.682 256.931 104.711 257.023 108.199C257.115 111.688 261.429 114.717 264.367 112.789C265.285 112.238 267.213 110.77 266.662 107.098C266.295 105.17 269.232 103.242 268.131 101.865Z" fill="url(#paint6_radial_22305_91237)"/>
<path opacity="0.2" fill-rule="evenodd" clip-rule="evenodd" d="M237.562 212.207C231.319 212.849 222.507 206.24 224.435 201.466C226.271 196.693 229.759 192.746 233.064 188.982C235.359 186.32 238.021 183.474 241.601 183.198C251.148 182.28 258.767 195.132 255.371 203.394C251.882 211.748 246.007 211.289 237.562 212.207Z" fill="url(#paint7_radial_22305_91237)"/>
<path opacity="0.2" fill-rule="evenodd" clip-rule="evenodd" d="M251.056 141.155C257.207 147.213 250.139 153.088 250.139 153.088C250.139 153.088 244.814 159.239 238.021 155.016C231.228 150.885 231.871 137.483 234.533 136.473C237.103 135.555 244.906 135.096 251.056 141.155Z" fill="url(#paint8_radial_22305_91237)"/>
</g>
<path opacity="0.56" d="M203.045 104.71H186.062V160.616H203.045V104.71Z" fill="white"/>
<path opacity="0.56" d="M203.045 174.569H186.062V190.634H203.045V174.569Z" fill="white"/>
<defs>
<radialGradient id="paint0_radial_22305_91237" cx="0" cy="0" r="1" gradientUnits="userSpaceOnUse" gradientTransform="translate(194.625 148.395) rotate(-123.83) scale(169.326 169.972)">
<stop stop-color="#B8B8B8"/>
<stop offset="0.6169" stop-color="#888888"/>
<stop offset="0.7004" stop-color="#5D5D5D"/>
<stop offset="0.7852" stop-color="#393939"/>
<stop offset="0.8543" stop-color="#232323"/>
<stop offset="0.8985" stop-color="#1B1B1B"/>
</radialGradient>
<radialGradient id="paint1_radial_22305_91237" cx="0" cy="0" r="1" gradientUnits="userSpaceOnUse" gradientTransform="translate(215.09 163.283) rotate(-123.83) scale(141.454 141.993)">
<stop stop-color="#B8B8B8"/>
<stop offset="0.2254" stop-color="#AAAAAA" stop-opacity="0.8422"/>
<stop offset="0.6494" stop-color="#858585" stop-opacity="0.5454"/>
<stop offset="1" stop-color="#626262" stop-opacity="0.3"/>
</radialGradient>
<radialGradient id="paint2_radial_22305_91237" cx="0" cy="0" r="1" gradientUnits="userSpaceOnUse" gradientTransform="translate(167.107 151.358) rotate(-123.83) scale(136.96 137.483)">
<stop stop-color="#424242" stop-opacity="0.4"/>
<stop offset="0.2298" stop-color="#3D3D3D" stop-opacity="0.5535"/>
<stop offset="0.5012" stop-color="#2F2F2F" stop-opacity="0.7347"/>
<stop offset="0.7924" stop-color="#171717" stop-opacity="0.9291"/>
<stop offset="0.8985" stop-color="#0D0D0D"/>
</radialGradient>
<radialGradient id="paint3_radial_22305_91237" cx="0" cy="0" r="1" gradientUnits="userSpaceOnUse" gradientTransform="translate(351.482 224.25) rotate(-123.83) scale(377.38 378.819)">
<stop stop-color="#1F1F1F"/>
<stop offset="0.1918" stop-color="#242424"/>
<stop offset="0.4183" stop-color="#333333"/>
<stop offset="0.6612" stop-color="#4A4A4A"/>
<stop offset="0.8985" stop-color="#696969"/>
</radialGradient>
<radialGradient id="paint4_radial_22305_91237" cx="0" cy="0" r="1" gradientUnits="userSpaceOnUse" gradientTransform="translate(351.482 224.25) rotate(-123.83) scale(377.38 378.819)">
<stop stop-color="#252525"/>
<stop offset="0.1625" stop-color="#2A2A2A"/>
<stop offset="0.3543" stop-color="#383838"/>
<stop offset="0.561" stop-color="#505050"/>
<stop offset="0.7768" stop-color="#717171"/>
<stop offset="0.8985" stop-color="#878787"/>
</radialGradient>
<radialGradient id="paint5_radial_22305_91237" cx="0" cy="0" r="1" gradientUnits="userSpaceOnUse" gradientTransform="translate(351.482 224.25) rotate(-123.83) scale(377.38 378.819)">
<stop stop-color="#1F1F1F"/>
<stop offset="0.1918" stop-color="#242424"/>
<stop offset="0.4183" stop-color="#333333"/>
<stop offset="0.6612" stop-color="#4A4A4A"/>
<stop offset="0.8985" stop-color="#696969"/>
</radialGradient>
<radialGradient id="paint6_radial_22305_91237" cx="0" cy="0" r="1" gradientUnits="userSpaceOnUse" gradientTransform="translate(351.482 224.25) rotate(-123.83) scale(377.38 378.819)">
<stop stop-color="#1F1F1F"/>
<stop offset="0.1918" stop-color="#242424"/>
<stop offset="0.4183" stop-color="#333333"/>
<stop offset="0.6612" stop-color="#4A4A4A"/>
<stop offset="0.8985" stop-color="#696969"/>
</radialGradient>
<radialGradient id="paint7_radial_22305_91237" cx="0" cy="0" r="1" gradientUnits="userSpaceOnUse" gradientTransform="translate(351.482 224.25) rotate(-123.83) scale(377.38 378.819)">
<stop stop-color="#1F1F1F"/>
<stop offset="0.1918" stop-color="#242424"/>
<stop offset="0.4183" stop-color="#333333"/>
<stop offset="0.6612" stop-color="#4A4A4A"/>
<stop offset="0.8985" stop-color="#696969"/>
</radialGradient>
<radialGradient id="paint8_radial_22305_91237" cx="0" cy="0" r="1" gradientUnits="userSpaceOnUse" gradientTransform="translate(317.445 197.354) rotate(-123.83) scale(245.303 246.238)">
<stop stop-color="#1F1F1F"/>
<stop offset="0.1918" stop-color="#242424"/>
<stop offset="0.4183" stop-color="#333333"/>
<stop offset="0.6612" stop-color="#4A4A4A"/>
<stop offset="0.8985" stop-color="#696969"/>
</radialGradient>
</defs>
</svg>
