<svg width="390" height="300" viewBox="0 0 390 300" fill="none" xmlns="http://www.w3.org/2000/svg">
<path d="M194.68 277.3C264.789 277.3 321.624 220.255 321.624 149.888C321.624 79.5196 264.789 22.4751 194.68 22.4751C124.571 22.4751 67.7363 79.5196 67.7363 149.888C67.7363 220.255 124.571 277.3 194.68 277.3Z" fill="url(#paint0_radial_22303_90156)"/>
<path d="M196.461 22.0065C219.15 22.2877 241.838 28.4755 262.089 41.0386C266.777 43.945 271.277 47.1327 275.684 50.7891C284.778 58.1957 292.56 66.7274 299.029 75.9153C331.186 121.48 330.436 184.764 293.122 230.142C287.122 237.454 280.465 243.923 273.34 249.549C255.995 263.237 235.838 271.862 214.837 275.237C179.96 280.957 142.927 272.237 113.488 248.236C110.676 245.892 107.957 243.455 105.332 240.923C58.4546 195.265 53.6731 120.449 96.0501 68.79C121.739 37.5697 159.053 21.6314 196.461 22.0065Z" fill="#BFBFBF"/>
<path opacity="0.72" d="M180.898 268.393C240.525 257.799 221.212 201.453 226.369 147.919C229.462 116.324 264.808 108.542 269.777 88.1972C273.808 68.0399 263.964 49.7578 250.37 34.5696C254.401 36.5384 258.433 38.6948 262.277 41.1324C266.964 44.0388 271.464 47.2264 275.871 50.8829C284.965 58.2895 292.747 66.8211 299.216 75.9153C331.374 121.48 330.53 184.671 293.309 230.048C287.309 237.361 280.652 243.83 273.527 249.455C256.182 263.049 236.025 271.769 215.024 275.144C192.804 278.8 169.741 276.644 148.271 268.393C158.678 270.362 170.022 269.8 180.898 268.393Z" fill="url(#paint1_radial_22303_90156)"/>
<path opacity="0.27" d="M185.398 22.3816C195.524 44.5077 196.836 81.5407 179.586 99.1666C156.053 124.293 141.709 140.044 135.333 172.201C129.333 208.859 143.865 253.205 174.429 275.331C152.772 271.956 131.771 262.956 113.582 248.143C110.77 245.799 108.051 243.361 105.426 240.83C58.4547 195.265 53.6732 120.449 96.0502 68.7901C119.208 40.6637 151.74 24.913 185.398 22.3816Z" fill="url(#paint2_radial_22303_90156)"/>
<path d="M176.023 165.17L175.929 164.888C175.554 163.857 174.335 163.388 173.304 163.763C165.522 166.201 157.647 168.639 149.771 170.795C149.209 170.982 148.74 171.357 148.459 171.826C148.178 172.295 148.178 172.857 148.365 173.326L148.459 173.608C148.74 174.451 149.584 174.92 150.521 174.92C150.709 174.92 150.896 174.92 151.084 174.826C158.959 172.576 166.928 170.232 174.71 167.701C175.273 167.513 175.741 167.138 175.929 166.67C176.21 166.107 176.21 165.638 176.023 165.17Z" fill="#848484"/>
<path d="M129.989 178.295L129.895 178.014C129.52 176.983 128.395 176.42 127.27 176.701C119.207 178.67 110.957 180.545 102.8 182.233C102.238 182.327 101.675 182.702 101.394 183.17C101.113 183.639 101.113 184.108 101.206 184.67L101.3 184.952C101.581 185.795 102.519 186.452 103.457 186.452C103.644 186.452 103.738 186.452 103.925 186.358C112.176 184.67 120.426 182.795 128.489 180.827C129.052 180.639 129.52 180.358 129.802 179.795C130.083 179.233 130.177 178.764 129.989 178.295Z" fill="#848484"/>
<g opacity="0.35">
<g opacity="0.35">
<path opacity="0.6" d="M107.676 128.981C89.7685 144.075 87.7059 164.045 86.9558 186.171C86.7683 192.546 82.5494 197.515 77.5804 200.609C59.1107 158.232 64.5485 107.136 96.05 68.8839C96.7063 68.0401 97.4563 67.1963 98.1126 66.4463C98.4876 80.322 114.988 87.7286 116.864 102.823C117.614 108.448 117.145 122.793 107.676 128.981Z" fill="url(#paint3_radial_22303_90156)"/>
<path opacity="0.6" d="M178.46 239.236C181.085 252.08 184.46 265.487 190.648 276.738C163.366 275.988 136.177 266.612 113.488 248.049C110.676 245.705 107.957 243.267 105.332 240.736C101.394 236.986 97.8312 232.954 94.4561 228.735C126.801 221.985 170.866 203.234 178.46 239.236Z" fill="url(#paint4_radial_22303_90156)"/>
</g>
<path opacity="0.17" fill-rule="evenodd" clip-rule="evenodd" d="M212.493 229.673C211.087 227.985 208.462 227.798 206.305 228.267C201.805 229.298 197.68 233.329 197.774 237.923C197.867 242.611 203.586 246.455 207.524 244.017C208.743 243.267 211.274 241.298 210.524 236.517C210.055 233.986 213.899 231.36 212.493 229.673Z" fill="url(#paint5_radial_22303_90156)"/>
<path opacity="0.2" fill-rule="evenodd" clip-rule="evenodd" d="M251.401 233.704C243.151 234.642 231.525 225.829 234.057 219.547C236.494 213.266 240.995 208.109 245.495 203.047C248.589 199.578 252.058 195.827 256.745 195.359C269.402 194.234 279.434 211.016 274.84 222.079C270.152 233.142 262.464 232.486 251.401 233.704Z" fill="url(#paint6_radial_22303_90156)"/>
<path opacity="0.2" fill-rule="evenodd" clip-rule="evenodd" d="M269.121 139.95C277.184 148.013 267.996 155.607 267.996 155.607C267.996 155.607 260.964 163.67 251.964 158.232C242.963 152.794 243.901 135.075 247.37 133.762C250.745 132.449 261.058 131.887 269.121 139.95Z" fill="url(#paint7_radial_22303_90156)"/>
</g>
<path d="M214.368 158.701H207.993V132.824C207.993 126.918 203.212 122.23 197.399 122.23C191.492 122.23 186.805 127.012 186.805 132.824V158.701H180.429V132.824C180.429 123.449 188.023 115.855 197.399 115.855C206.774 115.855 214.368 123.449 214.368 132.824V158.701Z" fill="#9E9E9E"/>
<path d="M113.3 182.514C111.144 176.139 104.019 172.295 96.8933 173.702C90.8931 174.92 84.799 176.045 78.705 177.077C75.7048 177.639 72.8922 179.233 70.9233 181.296C71.1108 181.671 72.3297 186.171 72.3297 186.452C72.5172 185.796 72.7047 185.327 73.0797 184.765C74.2985 182.702 76.5486 181.296 79.2675 180.827C85.3615 179.796 91.4556 178.671 97.5496 177.452C98.2997 177.358 98.9559 177.264 99.706 177.264C104.206 177.264 108.331 179.889 109.55 183.733C110.206 185.608 110.019 187.577 108.988 189.359C107.769 191.327 105.613 192.827 102.987 193.39C96.8933 194.703 90.6118 195.828 84.424 196.953C80.9551 197.515 77.3924 196.484 74.9548 194.515C74.9548 194.515 76.8299 200.047 77.2049 200.14C78.7987 200.703 80.5801 200.984 82.2676 200.984C83.2052 200.984 84.049 200.89 84.9865 200.797C91.1743 199.672 97.4559 198.453 103.644 197.234C107.3 196.484 110.488 194.328 112.175 191.327C113.957 188.608 114.238 185.515 113.3 182.514Z" fill="#848484"/>
<path d="M131.021 190.671C125.114 190.671 119.676 187.202 117.895 181.858C116.957 178.952 117.239 175.858 118.739 173.139C120.426 170.139 123.426 167.889 126.989 167.045C132.802 165.639 138.708 164.045 144.521 162.451C151.365 160.576 158.678 163.951 161.022 170.139C162.147 173.045 162.053 176.233 160.647 179.045C159.147 182.046 156.241 184.389 152.678 185.421C146.771 187.108 140.677 188.702 134.677 190.202C133.364 190.484 132.146 190.671 131.021 190.671ZM148.178 165.826C147.24 165.826 146.303 165.92 145.459 166.201C139.646 167.795 133.739 169.389 127.833 170.795C125.302 171.451 123.145 172.951 122.02 175.014C121.083 176.795 120.895 178.764 121.458 180.639C122.958 185.046 128.489 187.765 133.646 186.452C139.646 184.952 145.646 183.358 151.553 181.764C154.084 181.108 156.053 179.514 157.084 177.358C158.022 175.577 158.116 173.514 157.366 171.545C156.053 168.076 152.209 165.826 148.178 165.826Z" fill="#848484"/>
<path d="M122.676 123.449C122.488 122.886 122.207 122.511 121.738 122.23C114.988 118.667 108.238 114.917 101.581 111.073C100.644 110.511 99.4247 110.792 98.8622 111.729L98.6747 112.011C98.3934 112.479 98.2997 112.948 98.4872 113.511C98.581 114.073 98.956 114.448 99.4247 114.729C106.081 118.573 112.925 122.324 119.676 125.98C119.957 126.168 120.332 126.261 120.613 126.261C121.363 126.261 122.02 125.886 122.395 125.23L122.488 124.949C122.77 124.48 122.863 123.917 122.676 123.449Z" fill="#7A7A7A"/>
<path d="M251.964 132.074L251.87 131.887C251.402 131.043 250.277 130.668 249.339 131.137C242.87 134.324 236.213 137.418 229.557 140.325C229.088 140.512 228.713 140.887 228.526 141.356C228.338 141.825 228.432 142.293 228.619 142.762L228.713 143.043C228.994 143.7 229.744 144.075 230.401 144.075C230.682 144.075 230.963 143.981 231.244 143.887C237.901 140.887 244.558 137.793 251.12 134.606C251.589 134.418 251.964 133.949 252.058 133.48C252.245 133.012 252.245 132.449 251.964 132.074Z" fill="#9E9E9E"/>
<path d="M163.084 142.668C162.897 142.2 162.522 141.731 161.959 141.543C154.834 138.356 147.615 134.981 140.583 131.605C139.552 131.137 138.333 131.512 137.864 132.449L137.77 132.73C137.489 133.199 137.489 133.668 137.677 134.231C137.864 134.699 138.239 135.168 138.708 135.449C145.739 138.918 152.959 142.293 160.178 145.481C160.459 145.575 160.74 145.669 161.021 145.669C161.771 145.669 162.522 145.294 162.897 144.544L162.99 144.262C163.178 143.7 163.272 143.137 163.084 142.668Z" fill="#8E8E8E"/>
<path d="M238.651 138.262C235.838 132.918 228.9 130.574 223.181 133.106C218.306 135.262 213.337 137.325 208.368 139.387C207.899 139.575 207.337 139.856 206.868 140.137C207.524 140.7 207.993 141.45 208.368 142.387C208.462 142.669 208.555 142.95 208.555 143.231C208.93 143.044 209.305 142.856 209.68 142.669C214.649 140.7 219.618 138.543 224.587 136.387C225.713 135.918 226.931 135.637 228.056 135.637C231.15 135.637 234.057 137.231 235.463 139.95C236.401 141.637 236.494 143.606 235.838 145.481C235.182 147.45 233.588 149.044 231.525 149.981C226.556 152.138 221.4 154.388 216.431 156.45C212.587 158.044 207.993 156.732 205.837 153.544C205.087 154.388 204.149 155.232 203.211 155.888C205.462 158.888 209.118 160.576 212.962 160.576C214.556 160.576 216.243 160.294 217.837 159.638C222.9 157.575 228.056 155.419 233.025 153.169C236.026 151.856 238.182 149.513 239.213 146.606C240.151 143.794 239.963 140.793 238.651 138.262Z" fill="#9E9E9E"/>
<path d="M252.34 142.856C248.121 142.856 244.089 140.7 242.027 136.856C240.714 134.325 240.433 131.325 241.37 128.606C242.308 125.699 244.464 123.262 247.277 121.949C251.965 119.605 256.652 117.261 261.34 114.824C266.778 111.917 273.716 113.886 276.81 119.043C278.31 121.574 278.685 124.574 277.841 127.387C276.997 130.293 275.028 132.731 272.216 134.231C267.434 136.762 262.559 139.2 257.777 141.638C256.09 142.388 254.215 142.856 252.34 142.856ZM266.778 116.886C265.465 116.886 264.153 117.168 262.934 117.824C258.246 120.262 253.559 122.699 248.871 124.949C246.902 125.887 245.496 127.574 244.839 129.543C244.277 131.418 244.371 133.387 245.308 135.075C247.277 138.825 252.34 140.231 256.371 138.263C261.153 135.919 266.028 133.387 270.716 130.95C272.684 129.918 273.997 128.231 274.56 126.262C275.122 124.387 274.841 122.418 273.809 120.73C272.309 118.293 269.591 116.886 266.778 116.886Z" fill="#9E9E9E"/>
<path d="M313.279 102.167C311.967 99.5415 311.123 97.9476 310.092 95.135C309.998 95.0412 309.998 94.8537 309.998 94.76C306.341 92.1349 301.279 91.7598 297.247 94.1975C292.934 96.9163 288.434 99.6352 284.028 102.167C281.403 103.667 279.528 106.198 278.778 109.104C278.121 111.917 278.496 114.823 279.996 117.355C282.059 120.73 285.903 122.699 289.841 122.699C291.809 122.699 293.872 122.23 295.653 121.199C300.247 118.574 304.841 115.761 309.248 113.042C311.873 111.355 313.654 108.823 314.311 105.917C314.311 105.729 314.404 105.354 314.404 105.167C314.217 104.323 313.654 102.917 313.279 102.167ZM310.748 105.073C310.279 107.042 309.06 108.729 307.279 109.854C302.872 112.573 298.372 115.386 293.778 118.011C290.028 120.261 285.059 119.042 282.903 115.48C281.965 113.886 281.684 111.823 282.153 109.948C282.715 107.886 284.028 106.198 285.809 105.167C290.309 102.635 294.716 99.9165 299.122 97.1976C300.435 96.4476 301.841 96.0725 303.247 96.0725C305.873 96.0725 308.31 97.2914 309.717 99.4477C310.842 101.135 311.217 103.104 310.748 105.073Z" fill="#9E9E9E"/>
<path d="M315.998 188.421C313.748 190.671 310.279 191.983 306.81 191.608C300.528 190.952 294.153 190.202 287.965 189.452C285.34 189.171 282.996 187.858 281.684 185.889C280.559 184.202 280.184 182.233 280.652 180.264C281.684 176.326 285.621 173.42 290.028 173.139C290.778 173.045 291.434 173.045 292.184 173.139C298.372 173.889 304.56 174.639 310.748 175.201C313.373 175.482 315.81 176.795 317.217 178.67C317.31 178.858 317.404 179.045 317.592 179.233C317.498 177.451 318.342 176.232 319.467 175.576C317.404 173.232 314.31 171.826 311.029 171.451C304.935 170.795 298.747 170.138 292.653 169.388C285.528 168.451 278.59 172.857 276.996 179.326C276.246 182.42 276.809 185.514 278.59 188.046C280.559 190.952 283.84 192.827 287.59 193.296C293.872 194.046 300.247 194.796 306.529 195.452C307.466 195.546 308.404 195.546 309.248 195.452C310.935 195.358 312.529 194.89 314.029 194.233C314.029 194.233 316.092 188.327 315.998 188.421Z" fill="#9E9E9E"/>
<path d="M260.027 188.796C258.808 188.89 257.589 188.796 256.37 188.608C250.276 187.577 244.088 186.452 238.088 185.233C234.525 184.483 231.431 182.421 229.65 179.514C228.056 176.795 227.681 173.701 228.525 170.701C230.494 164.326 237.432 160.388 244.463 161.795C250.37 162.92 256.37 164.045 262.277 165.076C265.933 165.732 269.027 167.701 270.902 170.514C272.59 173.139 273.152 176.139 272.308 179.139C271.09 184.483 265.839 188.327 260.027 188.796ZM240.994 165.263C236.963 165.545 233.307 168.076 232.275 171.733C231.713 173.701 231.9 175.764 233.025 177.452C234.244 179.42 236.4 180.92 238.932 181.389C244.932 182.608 251.026 183.733 257.12 184.764C262.277 185.702 267.714 182.608 268.84 178.014C269.308 176.045 269.027 174.076 267.902 172.389C266.589 170.42 264.433 169.014 261.808 168.639C255.808 167.607 249.807 166.576 243.901 165.357C242.869 165.263 241.932 165.263 240.994 165.263Z" fill="#9E9E9E"/>
<path d="M237.807 133.856C234.994 128.512 228.056 126.168 222.337 128.699C219.806 129.824 215.4 131.699 211.649 133.199V137.043C215.868 135.262 221.119 133.012 223.744 131.887C224.869 131.418 226.088 131.137 227.213 131.137C230.307 131.137 233.213 132.73 234.619 135.449C235.557 137.137 235.651 139.106 234.994 140.981C234.338 142.95 232.744 144.544 230.682 145.481C225.713 147.637 220.556 149.888 215.587 151.95C211.743 153.544 207.149 152.231 204.993 149.044C204.243 149.888 203.305 150.731 202.368 151.388C204.618 154.388 208.274 156.075 212.118 156.075C213.712 156.075 215.4 155.794 216.993 155.138C222.056 153.075 227.213 150.919 232.182 148.669C235.182 147.356 237.338 145.012 238.369 142.106C239.307 139.481 239.119 136.481 237.807 133.856Z" fill="#848484"/>
<path d="M218.399 147.919H176.304C170.678 147.919 166.084 152.513 166.084 158.138V193.858C166.084 199.484 170.678 204.078 176.304 204.078H218.399C224.025 204.078 228.619 199.484 228.619 193.858V158.138C228.712 152.513 224.119 147.919 218.399 147.919ZM197.398 183.92C192.992 183.92 189.523 180.358 189.523 176.045C189.523 171.639 193.086 168.17 197.398 168.17C201.805 168.17 205.274 171.732 205.274 176.045C205.274 180.358 201.805 183.92 197.398 183.92Z" fill="#9E9E9E"/>
<path d="M289.653 178.764C289.372 178.295 288.809 178.014 288.247 177.92C279.996 176.889 271.652 175.576 263.402 174.264C262.277 174.076 261.152 174.733 260.871 175.764L260.777 176.045C260.683 176.514 260.683 177.076 260.964 177.545C261.246 178.014 261.808 178.295 262.371 178.483C270.621 179.889 278.965 181.108 287.309 182.139C287.497 182.139 287.591 182.139 287.778 182.139C288.716 182.045 289.559 181.389 289.841 180.545L289.934 180.264C290.028 179.702 289.934 179.139 289.653 178.764Z" fill="#9E9E9E"/>
<path d="M189.148 156.45C186.898 160.013 181.835 161.607 177.616 159.826C172.179 157.575 166.647 155.232 161.303 152.888C159.053 151.95 157.459 150.169 156.709 148.013C156.053 146.044 156.147 143.887 157.084 142.012C158.584 139.106 161.772 137.325 165.147 137.325C166.46 137.325 167.679 137.606 168.897 138.075C173.023 139.856 177.241 141.637 181.46 143.419C181.46 143.419 181.46 143.419 181.554 143.325C180.335 142.106 179.867 140.325 180.148 138.637C176.96 137.325 173.679 135.918 170.491 134.512C164.303 131.793 156.803 134.324 153.803 140.137C152.303 142.95 152.115 146.137 153.147 149.138C154.272 152.325 156.615 154.857 159.803 156.263C165.241 158.701 170.772 161.044 176.21 163.295C177.898 163.951 179.679 164.326 181.46 164.326C185.586 164.326 189.523 162.451 191.867 159.357C190.742 158.607 189.898 157.575 189.148 156.45Z" fill="#8E8E8E"/>
<path d="M138.803 145.293C136.834 145.293 134.771 144.825 132.896 143.887C127.646 141.262 122.396 138.637 117.333 135.918C114.333 134.324 112.176 131.699 111.239 128.511C110.395 125.417 110.77 122.23 112.364 119.511C115.645 113.886 123.239 111.823 129.146 114.917C134.115 117.542 139.272 120.167 144.334 122.605C147.334 124.105 149.678 126.73 150.71 129.824C151.647 132.824 151.46 136.012 149.96 138.731C147.709 142.856 143.397 145.293 138.803 145.293ZM123.239 117.261C120.239 117.261 117.239 118.761 115.739 121.386C114.614 123.261 114.427 125.324 114.989 127.386C115.645 129.543 117.052 131.324 119.114 132.449C124.177 135.168 129.427 137.793 134.584 140.324C138.896 142.481 144.428 140.887 146.491 136.855C147.428 134.98 147.616 132.918 146.959 130.855C146.303 128.699 144.709 126.917 142.553 125.886C137.49 123.355 132.334 120.823 127.271 118.105C126.052 117.636 124.646 117.261 123.239 117.261Z" fill="#848484"/>
<path d="M110.208 108.73C109.364 105.542 107.395 102.917 104.489 101.229C99.7072 98.5104 94.9257 95.6041 90.2379 92.6977C87.8941 91.2913 85.269 90.7288 82.7376 90.9163C82.5501 91.6664 82.1751 92.4164 81.425 93.1664C80.3937 94.1977 79.5499 95.3228 78.7061 96.4478C80.2062 95.3228 81.9876 94.7603 83.7689 94.7603C85.3627 94.7603 86.8628 95.1353 88.3629 96.1666C93.0506 99.073 97.9258 101.979 102.707 104.792C104.676 105.917 106.082 107.792 106.645 109.948C107.208 112.011 106.926 114.167 105.801 115.949C103.457 119.793 98.0196 121.012 93.9881 118.668C89.1129 115.761 84.1439 112.855 79.3624 109.855C77.3936 108.636 76.081 106.761 75.6122 104.604C75.6122 104.417 75.5185 104.229 75.5185 104.042C75.5185 103.854 73.4559 109.198 73.6434 109.386C74.5809 110.792 75.8935 112.011 77.3936 112.949C82.2688 116.043 87.2378 118.949 92.113 121.855C94.0819 122.98 96.332 123.543 98.4883 123.543C102.707 123.543 106.833 121.48 108.989 117.636C110.583 114.917 110.958 111.824 110.208 108.73Z" fill="#7A7A7A"/>
<path d="M84.799 194.233C78.8925 194.233 73.4547 190.577 71.9546 185.327C71.2046 182.608 71.5796 179.795 73.1734 177.358C74.861 174.639 77.8612 172.764 81.3301 172.201C86.9553 171.264 92.5806 170.139 98.2059 169.107C104.769 167.795 111.425 171.357 113.394 177.264C114.332 179.983 113.957 182.889 112.55 185.421C110.957 188.139 108.05 190.202 104.675 190.858C98.9559 191.983 93.1431 193.108 87.3304 194.14C86.3928 194.14 85.549 194.233 84.799 194.233ZM100.831 172.295C100.175 172.295 99.5185 172.389 98.8622 172.482C93.2369 173.607 87.5179 174.639 81.8926 175.67C79.455 176.139 77.2986 177.451 76.1736 179.233C75.236 180.733 74.9548 182.608 75.4235 184.389C76.5486 188.608 81.7051 191.421 86.6741 190.577C92.3931 189.546 98.2059 188.421 103.925 187.296C106.363 186.827 108.425 185.421 109.456 183.545C110.394 181.952 110.581 180.077 110.019 178.295C108.8 174.639 104.956 172.295 100.831 172.295Z" fill="url(#paint8_radial_22303_90156)"/>
<path d="M129.708 184.671C124.27 184.671 119.207 181.483 117.519 176.514C116.582 173.795 116.863 170.982 118.27 168.451C119.77 165.638 122.582 163.576 125.864 162.826C131.301 161.513 136.739 160.107 142.083 158.607C148.458 156.825 155.209 160.013 157.365 165.732C158.396 168.451 158.303 171.357 156.99 173.983C155.584 176.795 152.865 178.952 149.584 179.889C144.052 181.389 138.521 182.889 132.895 184.296C131.864 184.483 130.739 184.671 129.708 184.671ZM145.552 161.701C144.708 161.701 143.865 161.794 143.021 162.076C137.583 163.576 132.145 164.982 126.707 166.295C124.364 166.857 122.395 168.264 121.363 170.232C120.426 171.826 120.332 173.701 120.895 175.483C122.301 179.608 127.457 182.045 132.145 180.827C137.677 179.42 143.302 178.014 148.74 176.42C151.084 175.764 152.959 174.264 153.896 172.389C154.74 170.701 154.834 168.826 154.178 167.045C152.865 163.763 149.302 161.701 145.552 161.701Z" fill="url(#paint9_radial_22303_90156)"/>
<path d="M128.77 173.795L128.676 173.514C128.395 172.576 127.27 172.014 126.238 172.295C118.738 174.076 111.144 175.857 103.55 177.358C102.987 177.451 102.518 177.826 102.237 178.201C101.956 178.576 101.956 179.139 102.05 179.514L102.143 179.795C102.425 180.639 103.269 181.202 104.112 181.202C104.3 181.202 104.394 181.202 104.581 181.202C112.175 179.608 119.863 177.92 127.363 176.045C127.926 175.951 128.301 175.576 128.582 175.107C128.864 174.732 128.864 174.264 128.77 173.795Z" fill="url(#paint10_radial_22303_90156)"/>
<path d="M172.366 161.326L172.272 161.044C171.897 160.107 170.772 159.638 169.835 159.919C162.709 162.169 155.303 164.419 148.084 166.482C147.521 166.67 147.146 166.951 146.865 167.42C146.677 167.888 146.584 168.357 146.771 168.826L146.865 169.107C147.146 169.857 147.896 170.326 148.74 170.326C148.928 170.326 149.115 170.326 149.303 170.232C156.615 168.17 164.022 165.919 171.147 163.669C171.616 163.482 172.085 163.107 172.272 162.638C172.554 162.263 172.554 161.794 172.366 161.326Z" fill="url(#paint11_radial_22303_90156)"/>
<path d="M289.56 111.917L289.466 111.73C288.903 110.886 287.778 110.605 286.934 111.073C280.84 114.636 274.559 118.105 268.277 121.386C267.809 121.668 267.527 122.043 267.34 122.512C267.246 122.98 267.246 123.449 267.527 123.918L267.621 124.105C267.996 124.668 268.559 125.043 269.215 125.043C269.496 125.043 269.871 124.949 270.152 124.855C276.434 121.48 282.809 118.011 288.903 114.449C289.372 114.167 289.653 113.792 289.747 113.324C289.841 112.855 289.747 112.386 289.56 111.917Z" fill="#9E9E9E"/>
<path d="M240.807 170.795C240.526 170.326 240.057 169.951 239.494 169.857C231.525 168.263 223.462 166.482 215.493 164.607C214.368 164.326 213.243 164.982 212.962 166.013L212.868 166.295C212.681 166.763 212.774 167.326 213.056 167.795C213.337 168.263 213.806 168.639 214.368 168.732C222.337 170.607 230.4 172.389 238.463 174.076C238.651 174.076 238.838 174.17 239.026 174.076C239.963 173.983 240.713 173.42 240.994 172.576L241.088 172.295C241.182 171.732 241.088 171.17 240.807 170.795Z" fill="#9E9E9E"/>
<path d="M307.467 188.796C306.623 188.89 305.779 188.89 305.029 188.796C299.217 188.233 293.31 187.577 287.497 186.827C284.028 186.358 281.028 184.577 279.247 181.952C277.653 179.608 277.09 176.702 277.841 173.889C279.341 167.889 285.716 163.857 292.372 164.607C297.998 165.264 303.811 165.92 309.436 166.482C312.905 166.857 315.999 168.451 317.967 171.076C319.655 173.326 320.311 176.139 319.749 178.952C318.53 184.296 313.28 188.327 307.467 188.796ZM289.747 168.076C285.622 168.357 281.966 171.076 281.122 174.733C280.653 176.514 281.028 178.389 282.059 179.889C283.278 181.671 285.435 182.889 287.872 183.264C293.591 184.014 299.498 184.671 305.311 185.233C310.28 185.702 315.249 182.514 316.092 178.295C316.467 176.514 315.999 174.733 314.967 173.233C313.655 171.451 311.498 170.326 308.967 170.045C303.248 169.482 297.529 168.826 291.81 168.17C291.06 168.076 290.404 168.076 289.747 168.076Z" fill="#848484"/>
<path d="M261.901 182.608C260.776 182.702 259.651 182.608 258.526 182.42C252.901 181.483 247.182 180.358 241.557 179.233C238.275 178.577 235.369 176.608 233.775 173.889C232.275 171.357 231.9 168.545 232.744 165.732C234.525 159.826 240.994 156.169 247.463 157.482C252.901 158.513 258.526 159.544 263.964 160.482C267.339 161.044 270.246 162.92 271.933 165.545C273.527 167.982 273.996 170.795 273.246 173.514C272.215 178.67 267.339 182.233 261.901 182.608ZM244.369 160.857C240.619 161.138 237.338 163.482 236.307 166.857C235.744 168.639 236.025 170.514 236.963 172.201C238.088 174.076 240.057 175.389 242.401 175.858C247.932 176.983 253.651 178.014 259.276 178.952C264.058 179.795 269.027 176.983 270.152 172.764C270.621 170.982 270.339 169.107 269.308 167.607C268.089 165.826 266.027 164.513 263.683 164.138C258.151 163.201 252.62 162.169 247.088 161.138C246.057 160.857 245.213 160.857 244.369 160.857Z" fill="#848484"/>
<path d="M288.809 174.17C288.528 173.701 288.059 173.42 287.497 173.42C279.809 172.389 272.121 171.264 264.527 170.045C263.496 169.857 262.464 170.514 262.183 171.451L262.089 171.732C261.996 172.201 261.996 172.67 262.277 173.045C262.558 173.514 263.027 173.795 263.589 173.889C271.183 175.201 278.965 176.326 286.653 177.264C286.84 177.264 286.934 177.264 287.122 177.264C287.966 177.17 288.809 176.608 288.997 175.764L289.091 175.483C289.184 175.108 289.091 174.639 288.809 174.17Z" fill="#848484"/>
<path d="M243.526 166.857C243.245 166.388 242.776 166.107 242.307 166.013C234.9 164.513 227.4 162.826 220.087 161.138C219.056 160.857 218.025 161.419 217.743 162.357L217.65 162.638C217.462 163.107 217.556 163.576 217.743 164.044C218.025 164.513 218.4 164.795 218.962 164.982C226.275 166.763 233.775 168.451 241.276 169.951C241.463 169.951 241.651 170.045 241.838 169.951C242.682 169.857 243.432 169.388 243.62 168.545L243.713 168.263C243.901 167.701 243.807 167.232 243.526 166.857Z" fill="#848484"/>
<path d="M185.024 149.138C182.961 152.419 178.273 153.919 174.336 152.231C169.273 150.169 164.21 148.012 159.241 145.762C157.178 144.825 155.678 143.231 154.928 141.262C154.272 139.387 154.46 137.418 155.303 135.731C156.71 133.012 159.71 131.418 162.71 131.418C163.929 131.418 165.054 131.605 166.179 132.168C169.179 133.481 173.586 135.262 177.617 136.949V133.199C174.148 131.699 170.398 130.199 167.585 128.98C161.866 126.449 154.928 128.793 152.116 134.137C150.803 136.762 150.522 139.668 151.553 142.481C152.585 145.387 154.741 147.731 157.741 149.044C162.804 151.294 167.866 153.45 172.929 155.513C174.523 156.169 176.117 156.45 177.804 156.45C181.648 156.45 185.211 154.763 187.461 151.763C186.43 151.106 185.586 150.169 185.024 149.138Z" fill="url(#paint12_radial_22303_90156)"/>
<path d="M138.334 138.731C136.459 138.731 134.678 138.356 132.897 137.418C128.021 134.981 123.24 132.543 118.458 130.012C115.646 128.512 113.677 126.074 112.833 123.168C111.989 120.355 112.364 117.355 113.865 114.823C116.958 109.573 123.896 107.698 129.334 110.604C133.928 113.042 138.709 115.386 143.397 117.73C146.21 119.136 148.366 121.574 149.304 124.386C150.241 127.199 149.96 130.105 148.647 132.637C146.679 136.574 142.553 138.731 138.334 138.731ZM123.99 112.855C121.177 112.855 118.458 114.261 117.052 116.698C116.021 118.386 115.833 120.355 116.302 122.23C116.865 124.199 118.271 125.886 120.146 126.918C124.834 129.355 129.709 131.887 134.49 134.231C138.522 136.199 143.585 134.793 145.554 131.043C146.491 129.355 146.585 127.386 146.022 125.511C145.366 123.543 143.866 121.855 141.991 120.917C137.303 118.574 132.522 116.23 127.928 113.792C126.615 113.136 125.303 112.855 123.99 112.855Z" fill="url(#paint13_radial_22303_90156)"/>
<path d="M100.926 118.667C98.8632 118.667 96.8944 118.199 95.0193 117.074C90.4253 114.448 85.9251 111.636 81.4249 108.823C78.7997 107.229 77.0184 104.698 76.3621 101.698C75.7058 98.7915 76.2684 95.8851 77.9559 93.3537C81.3311 88.291 88.2689 86.7909 93.4254 89.9785C97.7381 92.6974 102.238 95.3225 106.645 97.9477C109.27 99.4477 111.145 101.979 111.895 104.886C112.645 107.698 112.176 110.698 110.676 113.136C108.707 116.699 104.863 118.667 100.926 118.667ZM87.4251 91.9474C84.8938 91.9474 82.3624 93.1662 80.8623 95.4163C79.7373 97.1039 79.3623 99.0727 79.831 101.042C80.2998 103.01 81.5186 104.792 83.2999 105.823C87.8002 108.636 92.3004 111.355 96.8006 113.98C100.551 116.23 105.614 115.011 107.676 111.448C108.707 109.761 108.989 107.792 108.426 105.917C107.864 103.854 106.645 102.167 104.77 101.135C100.363 98.5102 95.8631 95.8851 91.4566 93.1662C90.3315 92.3224 88.8315 91.9474 87.4251 91.9474Z" fill="url(#paint14_radial_22303_90156)"/>
<path d="M162.147 137.231C161.96 136.762 161.585 136.387 161.116 136.199C154.459 133.293 147.803 130.199 141.334 127.011C140.396 126.543 139.271 126.918 138.802 127.761L138.709 127.949C138.521 128.418 138.427 128.886 138.615 129.355C138.802 129.824 139.084 130.199 139.552 130.48C146.115 133.668 152.772 136.762 159.428 139.762C159.71 139.856 159.991 139.949 160.272 139.949C161.022 139.949 161.679 139.574 161.96 138.918L162.054 138.731C162.241 138.168 162.335 137.699 162.147 137.231Z" fill="url(#paint15_radial_22303_90156)"/>
<path d="M123.427 118.48C123.333 118.011 122.958 117.636 122.489 117.355C116.208 114.073 109.926 110.511 103.832 107.042C102.988 106.573 101.863 106.854 101.301 107.698L101.207 107.886C100.926 108.261 100.926 108.823 101.019 109.292C101.113 109.761 101.488 110.136 101.863 110.417C108.051 113.98 114.333 117.448 120.614 120.824C120.895 121.011 121.177 121.011 121.552 121.011C122.208 121.011 122.864 120.636 123.146 120.074L123.239 119.886C123.521 119.511 123.614 118.949 123.427 118.48Z" fill="url(#paint16_radial_22303_90156)"/>
<path d="M211.555 155.982H205.18V130.106C205.18 124.199 200.399 119.511 194.586 119.511C188.773 119.511 183.992 124.199 183.992 130.012V155.888H177.616V130.012C177.616 120.636 185.21 113.042 194.586 113.042C203.961 113.042 211.555 120.636 211.555 130.012V155.982Z" fill="url(#paint17_radial_22303_90156)"/>
<path d="M215.587 145.2H173.491C167.866 145.2 163.272 149.794 163.272 155.419V191.14C163.272 196.765 167.866 201.359 173.491 201.359H215.587C221.212 201.359 225.806 196.765 225.806 191.14V155.419C225.9 149.794 221.306 145.2 215.587 145.2ZM194.586 181.202C190.18 181.202 186.711 177.639 186.711 173.326C186.711 168.92 190.273 165.451 194.586 165.451C198.992 165.451 202.461 169.014 202.461 173.326C202.461 177.639 198.992 181.202 194.586 181.202Z" fill="url(#paint18_radial_22303_90156)"/>
<path d="M183.992 139.575V135.825C182.116 135.075 179.96 134.137 177.71 133.199V136.95C179.96 137.981 182.116 138.825 183.992 139.575Z" fill="#848484"/>
<path d="M251.495 138.449C247.276 138.449 243.245 136.293 241.182 132.449C239.869 129.918 239.588 126.918 240.526 124.199C241.463 121.292 243.62 118.855 246.432 117.542C251.12 115.198 255.808 112.855 260.495 110.417C265.933 107.511 272.871 109.479 275.965 114.636C277.465 117.167 277.84 120.167 276.996 122.98C276.152 125.886 274.184 128.324 271.371 129.824C266.589 132.355 261.714 134.793 256.933 137.231C255.245 138.074 253.37 138.449 251.495 138.449ZM265.933 112.573C264.621 112.573 263.308 112.855 262.089 113.511C257.402 115.948 252.714 118.386 248.026 120.636C246.057 121.574 244.651 123.261 243.995 125.23C243.432 127.105 243.526 129.074 244.463 130.762C246.432 134.512 251.495 135.918 255.526 133.949C260.308 131.605 265.183 129.074 269.871 126.636C271.84 125.605 273.152 123.918 273.715 121.949C274.277 120.074 273.996 118.105 272.965 116.417C271.465 113.98 268.746 112.573 265.933 112.573Z" fill="#848484"/>
<path d="M288.997 118.386C285.059 118.386 281.215 116.417 279.153 113.042C277.653 110.511 277.278 107.604 277.934 104.792C278.684 101.885 280.559 99.354 283.184 97.8539C287.591 95.3226 292.091 92.6037 296.403 89.8848C301.56 86.6971 308.498 88.1972 311.873 93.2599C313.561 95.6976 314.029 98.6977 313.467 101.604C312.81 104.51 311.029 107.042 308.404 108.729C303.998 111.448 299.404 114.261 294.81 116.886C293.028 117.824 290.966 118.386 288.997 118.386ZM302.404 91.6661C300.997 91.6661 299.591 92.0411 298.279 92.7912C293.872 95.5101 289.466 98.2289 284.965 100.76C283.184 101.792 281.871 103.479 281.309 105.542C280.84 107.417 281.121 109.479 282.059 111.073C284.215 114.636 289.184 115.855 292.935 113.605C297.528 110.98 302.029 108.167 306.435 105.448C308.217 104.323 309.435 102.635 309.904 100.667C310.373 98.6977 309.998 96.7289 308.873 95.0413C307.466 92.8849 305.029 91.6661 302.404 91.6661Z" fill="#848484"/>
<path d="M251.12 127.762L251.027 127.574C250.558 126.73 249.433 126.355 248.495 126.824C242.026 130.012 235.37 133.106 228.713 136.012C228.244 136.2 227.869 136.575 227.682 137.043C227.494 137.512 227.588 137.981 227.776 138.45L227.869 138.731C228.151 139.387 228.901 139.762 229.557 139.762C229.838 139.762 230.119 139.668 230.401 139.575C237.057 136.575 243.714 133.481 250.277 130.293C250.745 130.105 251.12 129.637 251.214 129.168C251.402 128.605 251.402 128.137 251.12 127.762Z" fill="#848484"/>
<path d="M288.716 107.604L288.622 107.417C288.06 106.573 286.935 106.292 286.091 106.76C279.997 110.323 273.715 113.792 267.434 117.073C266.965 117.355 266.684 117.73 266.496 118.199C266.402 118.667 266.402 119.136 266.684 119.605L266.777 119.792C267.152 120.355 267.715 120.73 268.371 120.73C268.652 120.73 269.027 120.636 269.309 120.542C275.59 117.167 281.966 113.698 288.06 110.136C288.528 109.854 288.81 109.479 288.903 109.011C288.997 108.542 288.903 107.979 288.716 107.604Z" fill="#848484"/>
<path d="M201.43 138.543C201.43 139.856 202.743 140.7 203.868 140.231C206.118 139.293 209.399 137.981 211.556 137.137V133.293C208.931 134.418 204.618 136.106 202.555 136.949C201.899 137.137 201.43 137.793 201.43 138.543Z" fill="#848484"/>
<path d="M187.367 138.356C187.367 139.575 186.148 140.419 184.93 139.95C182.773 139.106 179.586 137.793 177.523 136.95V133.199C180.054 134.231 184.273 135.918 186.242 136.762C186.992 137.043 187.367 137.606 187.367 138.356Z" fill="url(#paint19_radial_22303_90156)"/>
<path d="M205.18 140.606V144.544C205.18 144.544 208.087 143.325 211.555 141.825V137.981C208.087 139.387 205.274 140.606 205.18 140.606Z" fill="#686868"/>
<path d="M183.992 144.544V140.418C182.117 139.668 179.867 138.731 177.617 137.793V141.918C179.961 142.856 182.117 143.793 183.992 144.544Z" fill="#686868"/>
<defs>
<radialGradient id="paint0_radial_22303_90156" cx="0" cy="0" r="1" gradientUnits="userSpaceOnUse" gradientTransform="translate(195.563 149.831) rotate(-4.23687) scale(126.843 127.322)">
<stop stop-color="#B8B8B8"/>
<stop offset="0.9003" stop-color="#B8B8B8" stop-opacity="0.0996769"/>
<stop offset="1" stop-color="#B8B8B8" stop-opacity="0"/>
</radialGradient>
<radialGradient id="paint1_radial_22303_90156" cx="0" cy="0" r="1" gradientUnits="userSpaceOnUse" gradientTransform="translate(221.752 169.098) rotate(-123.83) scale(186.759 187.471)">
<stop stop-color="#B8B8B8"/>
<stop offset="0.2254" stop-color="#AAAAAA" stop-opacity="0.8422"/>
<stop offset="0.6494" stop-color="#858585" stop-opacity="0.5454"/>
<stop offset="1" stop-color="#626262" stop-opacity="0.3"/>
</radialGradient>
<radialGradient id="paint2_radial_22303_90156" cx="0" cy="0" r="1" gradientUnits="userSpaceOnUse" gradientTransform="translate(158.29 153.343) rotate(-123.83) scale(180.872 181.562)">
<stop stop-color="#424242" stop-opacity="0.4"/>
<stop offset="0.1894" stop-color="#343434" stop-opacity="0.5265"/>
<stop offset="0.6396" stop-color="#171717" stop-opacity="0.8271"/>
<stop offset="0.8985" stop-color="#0D0D0D"/>
</radialGradient>
<radialGradient id="paint3_radial_22303_90156" cx="0" cy="0" r="1" gradientUnits="userSpaceOnUse" gradientTransform="translate(401.803 249.661) rotate(-123.83) scale(498.374 500.274)">
<stop stop-color="#1F1F1F"/>
<stop offset="0.2279" stop-color="#242424"/>
<stop offset="0.4654" stop-color="#303030"/>
<stop offset="0.7072" stop-color="#454545"/>
<stop offset="0.9507" stop-color="#626262"/>
<stop offset="1" stop-color="#696969"/>
</radialGradient>
<radialGradient id="paint4_radial_22303_90156" cx="0" cy="0" r="1" gradientUnits="userSpaceOnUse" gradientTransform="translate(401.812 249.665) rotate(-123.83) scale(498.445 500.346)">
<stop stop-color="#252525"/>
<stop offset="0.1625" stop-color="#2A2A2A"/>
<stop offset="0.3543" stop-color="#383838"/>
<stop offset="0.561" stop-color="#505050"/>
<stop offset="0.7768" stop-color="#717171"/>
<stop offset="0.8985" stop-color="#878787"/>
</radialGradient>
<radialGradient id="paint5_radial_22303_90156" cx="0" cy="0" r="1" gradientUnits="userSpaceOnUse" gradientTransform="translate(393.086 236.966) rotate(-123.83) scale(498.374 500.275)">
<stop stop-color="#1F1F1F"/>
<stop offset="0.1918" stop-color="#242424"/>
<stop offset="0.4183" stop-color="#333333"/>
<stop offset="0.6612" stop-color="#4A4A4A"/>
<stop offset="0.8985" stop-color="#696969"/>
</radialGradient>
<radialGradient id="paint6_radial_22303_90156" cx="0" cy="0" r="1" gradientUnits="userSpaceOnUse" gradientTransform="translate(401.753 249.611) rotate(-123.83) scale(498.374 500.274)">
<stop stop-color="#1F1F1F"/>
<stop offset="0.1918" stop-color="#242424"/>
<stop offset="0.4183" stop-color="#333333"/>
<stop offset="0.6612" stop-color="#4A4A4A"/>
<stop offset="0.8985" stop-color="#696969"/>
</radialGradient>
<radialGradient id="paint7_radial_22303_90156" cx="0" cy="0" r="1" gradientUnits="userSpaceOnUse" gradientTransform="translate(356.803 214.091) rotate(-123.83) scale(323.95 325.186)">
<stop stop-color="#1F1F1F"/>
<stop offset="0.1918" stop-color="#242424"/>
<stop offset="0.4183" stop-color="#333333"/>
<stop offset="0.6612" stop-color="#4A4A4A"/>
<stop offset="0.8985" stop-color="#696969"/>
</radialGradient>
<radialGradient id="paint8_radial_22303_90156" cx="0" cy="0" r="1" gradientUnits="userSpaceOnUse" gradientTransform="translate(-43.2821 219.186) scale(323.525)">
<stop offset="0.00320622" stop-color="#1F1F1F"/>
<stop offset="0.1794" stop-color="#242424"/>
<stop offset="0.3874" stop-color="#323232"/>
<stop offset="0.6115" stop-color="#4A4A4A"/>
<stop offset="0.8453" stop-color="#6B6A6A"/>
<stop offset="1" stop-color="#858484"/>
</radialGradient>
<radialGradient id="paint9_radial_22303_90156" cx="0" cy="0" r="1" gradientUnits="userSpaceOnUse" gradientTransform="translate(-43.2819 219.186) scale(323.525)">
<stop stop-color="#1F1F1F"/>
<stop offset="0.1918" stop-color="#242424"/>
<stop offset="0.4183" stop-color="#333333"/>
<stop offset="0.6612" stop-color="#4A4A4A"/>
<stop offset="0.8985" stop-color="#696969"/>
</radialGradient>
<radialGradient id="paint10_radial_22303_90156" cx="0" cy="0" r="1" gradientUnits="userSpaceOnUse" gradientTransform="translate(-43.2822 219.186) scale(323.525)">
<stop stop-color="#1F1F1F"/>
<stop offset="0.1918" stop-color="#242424"/>
<stop offset="0.4183" stop-color="#333333"/>
<stop offset="0.6612" stop-color="#4A4A4A"/>
<stop offset="0.8985" stop-color="#696969"/>
</radialGradient>
<radialGradient id="paint11_radial_22303_90156" cx="0" cy="0" r="1" gradientUnits="userSpaceOnUse" gradientTransform="translate(-43.2817 219.186) scale(323.525 323.525)">
<stop stop-color="#1F1F1F"/>
<stop offset="0.1918" stop-color="#242424"/>
<stop offset="0.4183" stop-color="#333333"/>
<stop offset="0.6612" stop-color="#4A4A4A"/>
<stop offset="0.8985" stop-color="#696969"/>
</radialGradient>
<radialGradient id="paint12_radial_22303_90156" cx="0" cy="0" r="1" gradientUnits="userSpaceOnUse" gradientTransform="translate(311.651 203.185) scale(354.025)">
<stop stop-color="#1F1F1F"/>
<stop offset="0.3849" stop-color="#424242"/>
<stop offset="0.7698" stop-color="#5E5E5E"/>
<stop offset="0.992" stop-color="#696969"/>
</radialGradient>
<radialGradient id="paint13_radial_22303_90156" cx="0" cy="0" r="1" gradientUnits="userSpaceOnUse" gradientTransform="translate(311.652 203.185) scale(354.025)">
<stop stop-color="#1F1F1F"/>
<stop offset="0.19" stop-color="#282828"/>
<stop offset="0.4977" stop-color="#404040"/>
<stop offset="0.8828" stop-color="#676767"/>
<stop offset="0.8985" stop-color="#696969"/>
</radialGradient>
<radialGradient id="paint14_radial_22303_90156" cx="0" cy="0" r="1" gradientUnits="userSpaceOnUse" gradientTransform="translate(311.652 203.185) scale(354.025)">
<stop offset="0.1747" stop-color="#1F1F1F"/>
<stop offset="0.3889" stop-color="#232323"/>
<stop offset="0.5726" stop-color="#2D2D2D"/>
<stop offset="0.7451" stop-color="#3F3F3F"/>
<stop offset="0.9098" stop-color="#585858"/>
<stop offset="1" stop-color="#696969"/>
</radialGradient>
<radialGradient id="paint15_radial_22303_90156" cx="0" cy="0" r="1" gradientUnits="userSpaceOnUse" gradientTransform="translate(311.651 203.184) scale(354.025)">
<stop stop-color="#1F1F1F"/>
<stop offset="0.2555" stop-color="#2D2D2D"/>
<stop offset="0.7361" stop-color="#525252"/>
<stop offset="1" stop-color="#696969"/>
</radialGradient>
<radialGradient id="paint16_radial_22303_90156" cx="0" cy="0" r="1" gradientUnits="userSpaceOnUse" gradientTransform="translate(311.651 203.185) scale(354.025)">
<stop stop-color="#1F1F1F"/>
<stop offset="0.2784" stop-color="#222222"/>
<stop offset="0.4666" stop-color="#2B2B2B"/>
<stop offset="0.6281" stop-color="#3A3A3A"/>
<stop offset="0.7736" stop-color="#505050"/>
<stop offset="0.8985" stop-color="#696969"/>
</radialGradient>
<radialGradient id="paint17_radial_22303_90156" cx="0" cy="0" r="1" gradientUnits="userSpaceOnUse" gradientTransform="translate(92.0176 52.2403) scale(244.651)">
<stop stop-color="#1F1F1F"/>
<stop offset="0.0994602" stop-color="#242424"/>
<stop offset="0.2169" stop-color="#323232"/>
<stop offset="0.3434" stop-color="#4A4A4A"/>
<stop offset="0.4755" stop-color="#6B6B6B"/>
<stop offset="0.5172" stop-color="#777777"/>
<stop offset="0.695" stop-color="#6D6D6D"/>
<stop offset="0.8985" stop-color="#696969"/>
</radialGradient>
<radialGradient id="paint18_radial_22303_90156" cx="0" cy="0" r="1" gradientUnits="userSpaceOnUse" gradientTransform="translate(6.56588 9.3392) scale(449.175 449.175)">
<stop offset="0.2467" stop-color="#1F1F1F"/>
<stop offset="0.3103" stop-color="#242424"/>
<stop offset="0.3854" stop-color="#323232"/>
<stop offset="0.4663" stop-color="#4A4A4A"/>
<stop offset="0.5508" stop-color="#6B6B6B"/>
<stop offset="0.5775" stop-color="#777777"/>
<stop offset="0.6924" stop-color="#6D6D6D"/>
<stop offset="0.8239" stop-color="#696969"/>
</radialGradient>
<radialGradient id="paint19_radial_22303_90156" cx="0" cy="0" r="1" gradientUnits="userSpaceOnUse" gradientTransform="translate(147.44 118.444) scale(94.8001)">
<stop stop-color="#1F1F1F"/>
<stop offset="0.2329" stop-color="#393939"/>
<stop offset="0.5277" stop-color="#535353"/>
<stop offset="0.7926" stop-color="#636363"/>
<stop offset="1" stop-color="#696969"/>
</radialGradient>
</defs>
</svg>
