<svg width="227" height="80" viewBox="0 0 227 80" fill="none" xmlns="http://www.w3.org/2000/svg" preserveAspectRatio="none">
<path d="M220.544 0L108.686 0.000303473C106.421 -0.00043362 104.219 0.7509 102.425 2.13675C99.53 4.3734 88.7618 12.7959 87.4842 13.8003C87.1292 13.8353 6.87022 14.1361 6.87022 14.1361C3.30838 14.1418 0 17.0345 0 20.6012V59.3879C0 62.9542 3.30813 65.8471 6.86956 65.853C6.86956 65.853 87.1288 66.1654 87.4839 66.2C88.7617 67.2047 99.5297 75.6269 102.425 77.8636C104.219 79.2493 106.42 80.0006 108.686 79.9997L220.543 80C222.256 80 223.898 79.3189 225.109 78.1065C226.319 76.894 227 75.2496 227 73.5349V6.46536C227 4.7507 226.32 3.10624 225.109 1.89375C223.898 0.681267 222.256 6.43877e-05 220.544 0V0Z" fill="url(#paint0_linear_72_6297)"/>
<defs>
<linearGradient id="paint0_linear_72_6297" x1="113.5" y1="89.0839" x2="113.5" y2="-8.06794" gradientUnits="userSpaceOnUse">
<stop offset="0.2191" stop-color="#67B262"/>
<stop offset="0.3134" stop-color="#6EB763"/>
<stop offset="0.5943" stop-color="#81C467"/>
<stop offset="0.8319" stop-color="#6EB763"/>
<stop offset="1" stop-color="#67B262"/>
</linearGradient>
</defs>
</svg>
