<svg width="227" height="80" viewBox="0 0 227 80" fill="none" xmlns="http://www.w3.org/2000/svg" preserveAspectRatio="none">
<path d="M227 9.10418C227 6.6896 226.043 4.37392 224.34 2.66655C222.637 0.959188 220.327 0 217.919 0L200.205 0.0546251C197.942 0.0539063 195.742 0.805238 193.951 2.19107C190.809 4.62061 179.335 13.6901 179.335 13.6901H47.7483C47.7483 13.6901 36.2742 4.62055 33.1328 2.19107C31.3411 0.805159 29.1416 0.0538202 26.8785 0.0546251L9.0815 0C6.67293 0 4.36302 0.959188 2.65991 2.66655C0.956798 4.37392 0 6.6896 0 9.10418L0 70.8958C0 73.3104 0.956798 75.6261 2.65991 77.3335C4.36302 79.0408 6.67293 80 9.0815 80L26.8785 79.9997C29.1415 80.0005 31.3409 79.2493 33.1326 77.8635C36.274 75.434 47.7357 66.2622 47.7357 66.2622H179.347C179.347 66.2622 190.809 75.434 193.951 77.8635C195.742 79.2493 197.942 80.0005 200.205 79.9997L217.919 80C220.327 80 222.637 79.0408 224.34 77.3335C226.043 75.6261 227 73.3104 227 70.8958L227 9.10418Z" fill="url(#paint0_linear_72_6289)"/>
<defs>
<linearGradient id="paint0_linear_72_6289" x1="113.5" y1="89.0839" x2="113.5" y2="-8.06794" gradientUnits="userSpaceOnUse">
<stop stop-color="#AA603A"/>
<stop offset="0.3037" stop-color="#BF7042"/>
<stop offset="0.5943" stop-color="#CF7C48"/>
<stop offset="0.9478" stop-color="#C97745"/>
<stop offset="1" stop-color="#C77644"/>
</linearGradient>
</defs>
</svg>
