<svg width="227" height="80" viewBox="0 0 227 80" fill="none" xmlns="http://www.w3.org/2000/svg" preserveAspectRatio="none">
<path d="M217.919 3.23734e-09L200.205 0.0546251C197.942 0.0539063 195.742 0.805238 193.951 2.19107C190.809 4.62061 179.335 13.6901 179.335 13.6901H145.458L145.472 13.574C145.472 13.574 133.987 4.59336 130.846 2.16376C129.054 0.777905 126.855 0.0265709 124.592 0.0273125H118.314L118.311 0.0272518H108.689L108.686 0.0275553H102.408C100.145 0.0268136 97.9459 0.778148 96.1542 2.164C93.0127 4.5933 81.5282 13.5739 81.5276 13.5739L81.5419 13.6901H47.7483C47.7483 13.6901 36.2742 4.62055 33.1328 2.19107C31.3411 0.805159 29.1416 0.0538202 26.8785 0.0546251L9.0815 3.23734e-09C6.67293 3.23734e-09 4.36302 0.959188 2.65991 2.66655C0.956798 4.37392 0 6.6896 0 9.10418L0 70.8958C0 73.3104 0.956798 75.6261 2.65991 77.3335C4.36302 79.0408 6.67293 80 9.0815 80L26.8785 79.9997C29.1415 80.0005 31.3409 79.2493 33.1326 77.8635C36.274 75.434 47.7357 66.2622 47.7357 66.2622H81.5475L81.5276 66.4261C81.528 66.4261 93.0126 75.4067 96.1539 77.8363C97.9457 79.2221 100.145 79.9733 102.408 79.9725H108.686H108.689H118.311H118.314H124.592C126.855 79.9733 129.054 79.2221 130.846 77.8363C133.987 75.4067 145.472 66.4261 145.472 66.4261L145.452 66.2622H179.347C179.347 66.2622 190.809 75.434 193.951 77.8635C195.742 79.2493 197.942 80.0005 200.205 79.9997L217.919 80C220.327 80 222.637 79.0408 224.34 77.3335C226.043 75.6261 227 73.3104 227 70.8958V9.10418C227 7.90858 226.765 6.72469 226.309 5.6201C225.853 4.51552 225.184 3.51187 224.34 2.66647C223.497 1.82106 222.496 1.15046 221.394 0.692945C220.292 0.235431 219.111 -3.18794e-05 217.919 3.23734e-09V3.23734e-09Z" fill="url(#paint0_linear_72_6279)"/>
<defs>
<linearGradient id="paint0_linear_72_6279" x1="113.5" y1="89.0839" x2="113.5" y2="-8.06794" gradientUnits="userSpaceOnUse">
<stop stop-color="#AA603A"/>
<stop offset="0.3037" stop-color="#BF7042"/>
<stop offset="0.5943" stop-color="#CF7C48"/>
<stop offset="0.9478" stop-color="#C97745"/>
<stop offset="1" stop-color="#C77644"/>
</linearGradient>
</defs>
</svg>
