<svg width="227" height="80" viewBox="0 0 227 80" fill="none" xmlns="http://www.w3.org/2000/svg" preserveAspectRatio="none">
<g clip-path="url(#clip0_73_6315)">
<path d="M220.433 14.1353C220.433 14.1353 156.234 13.8348 155.895 13.7998C154.673 12.7952 144.379 4.37253 141.612 2.13646C139.897 0.750411 137.792 -0.000951478 135.627 9.0427e-07H91.2529C89.0871 -0.000905662 86.9822 0.750452 85.2676 2.13646C82.5 4.37283 72.2063 12.7955 70.985 13.8001C70.6456 13.8351 6.56753 14.1356 6.56753 14.1356C3.16255 14.1412 0 17.0343 0 20.6007V59.3881C0 62.9545 3.16238 65.847 6.56678 65.8529C6.56678 65.8529 70.6453 66.1652 70.9848 66.2002C72.2063 67.2049 82.4998 75.6269 85.2675 77.8638C86.9822 79.2495 89.087 80.0007 91.2527 80H135.627C137.792 80.0008 139.897 79.2496 141.612 77.8638C144.38 75.6269 154.673 67.2049 155.895 66.2002C156.234 66.1652 220.433 65.8529 220.433 65.8529C223.838 65.8468 227 62.9545 227 59.3881V20.6007C227 17.0343 223.837 14.1412 220.433 14.1353Z" fill="url(#paint0_linear_73_6315)"/>
<path d="M57.9076 66.0725C65.073 66.1335 70.8761 66.1866 70.9815 66.1999V13.7998C70.8762 13.8132 65.073 13.8647 57.9076 13.9234V66.0725Z" fill="url(#paint1_linear_73_6315)"/>
<path d="M155.899 66.1999C156.015 66.1866 161.736 66.1335 168.805 66.0728V13.9233C161.736 13.8649 156.015 13.8136 155.899 13.8V66.1999Z" fill="url(#paint2_linear_73_6315)"/>
</g>
<defs>
<linearGradient id="paint0_linear_73_6315" x1="113.5" y1="89.084" x2="113.5" y2="-8.06794" gradientUnits="userSpaceOnUse">
<stop stop-color="#134B9B"/>
<stop offset="0.2006" stop-color="#255EA9"/>
<stop offset="0.4054" stop-color="#306AB2"/>
<stop offset="0.6146" stop-color="#346EB5"/>
<stop offset="0.7648" stop-color="#316BB3"/>
<stop offset="0.8734" stop-color="#2862AC"/>
<stop offset="0.9686" stop-color="#1A52A0"/>
<stop offset="1" stop-color="#134B9B"/>
</linearGradient>
<linearGradient id="paint1_linear_73_6315" x1="57.9076" y1="39.9998" x2="70.9815" y2="39.9998" gradientUnits="userSpaceOnUse">
<stop stop-color="#9DA2A8"/>
<stop offset="1" stop-color="#9A9FA5"/>
</linearGradient>
<linearGradient id="paint2_linear_73_6315" x1="3628.26" y1="3467.12" x2="3915.7" y2="3467.12" gradientUnits="userSpaceOnUse">
<stop stop-color="#9DA2A8"/>
<stop offset="1" stop-color="#9A9FA5"/>
</linearGradient>
<clipPath id="clip0_73_6315">
<rect width="227" height="80" fill="white"/>
</clipPath>
</defs>
</svg>
