<svg width="40" height="40" viewBox="0 0 40 40" fill="none" xmlns="http://www.w3.org/2000/svg">
<path d="M20 4.00001C16.6237 4.00001 13.3339 5.06807 10.6015 7.05133C7.86909 9.03459 5.83409 11.8314 4.78774 15.0415C3.74139 18.2515 3.73734 21.7103 4.77615 24.9229C5.81497 28.1354 7.8434 30.9369 10.5712 32.9266C13.2989 34.9163 16.5862 35.992 19.9625 36C23.3388 36.0079 26.631 34.9475 29.3681 32.9707C32.1051 30.9938 34.1467 28.2018 35.2006 24.9942C36.2544 21.7866 36.2666 18.3278 35.2353 15.1129L32.5815 15.9642C33.4332 18.6191 33.4231 21.4754 32.5528 24.1243C31.6825 26.7732 29.9966 29.0789 27.7363 30.7114C25.476 32.3439 22.7572 33.2195 19.969 33.213C17.1808 33.2064 14.4662 32.318 12.2135 30.6749C9.96093 29.0319 8.28582 26.7183 7.42796 24.0654C6.57009 21.4124 6.57344 18.5561 7.43753 15.9052C8.30161 13.2543 9.98214 10.9446 12.2386 9.30683C14.4951 7.66903 17.2118 6.78701 20 6.78701L20 4.00001Z" fill="#00CEDE"/>
</svg>
