<svg width="32" height="32" viewBox="0 0 32 32" fill="none" xmlns="http://www.w3.org/2000/svg">
<g clip-path="url(#clip0_147_23825)">
<path d="M31.36 2.8H18.64V0.72V0.64C18.64 0.64 18.64 0.64 18.64 0.56V0.48L18.56 0.4C18.4 0.16 18.32 0.08 18.16 0C18.08 0 18.08 0 18 0H17.92C17.92 0 17.92 0 17.84 0L0.56 2.8C0.24 2.88 0 3.12 0 3.44V4.8V27.04V28.4C0 28.72 0.24 29.04 0.56 29.12L17.92 32C17.92 32 17.92 32 18 32H18.08C18.16 32 18.16 32 18.24 32C18.4 32 18.48 31.84 18.64 31.76L18.72 31.68V31.6C18.72 31.6 18.72 31.6 18.72 31.52V31.44V29.36H31.36C31.76 29.36 32 29.04 32 28.64V3.44C32 3.12 31.68 2.8 31.36 2.8ZM22 4.16V7.6H18.72V4.16H22ZM18.64 19.2H21.92V22.88H18.64V19.2ZM18.64 17.84V14.16H21.92V17.84H18.64ZM18.64 12.72V9.04H21.92V12.72H18.64ZM18.64 24.32H21.92V27.84H18.64V24.32ZM30.64 27.84H23.36V24.32H26.4C26.8 24.32 27.04 24 27.04 23.6C27.04 23.2 26.72 22.88 26.4 22.88H23.36V19.2H26.4C26.8 19.2 27.04 18.88 27.04 18.48C27.04 18.08 26.72 17.76 26.4 17.76H23.36V14.08H26.4C26.8 14.08 27.04 13.76 27.04 13.36C27.04 12.96 26.72 12.64 26.4 12.64H23.36V8.96H26.4C26.8 8.96 27.04 8.64 27.04 8.24C27.04 7.84 26.72 7.52 26.4 7.52H23.36V4.16H30.64V27.84Z" fill="#75DB29"/>
<path d="M8.05439 21.154C7.86949 21.3313 7.71172 21.5372 7.5866 21.7644C7.47941 21.9625 7.4216 22.1855 7.41848 22.413C7.40864 22.8081 7.51851 23.1964 7.73245 23.5225C7.94638 23.8486 8.25345 24.0959 8.60991 24.2291C8.84303 24.3227 9.09106 24.3693 9.34084 24.3664C9.59056 24.3686 9.83846 24.322 10.0718 24.2291C10.2965 24.1457 10.5028 24.016 10.6785 23.8476C10.8565 23.6719 11.0004 23.462 11.1024 23.2295C11.2066 22.9664 11.2516 22.6819 11.234 22.3978C11.2362 22.1495 11.1837 21.9041 11.0805 21.6805C10.9767 21.456 10.824 21.26 10.6346 21.1082L11.7749 20.0018C11.9393 20.1717 12.0774 20.3674 12.1842 20.5817C12.2993 20.7893 12.3924 21.0093 12.4619 21.2379C12.531 21.4438 12.5824 21.6558 12.6154 21.8712C12.6441 22.0453 12.6612 22.2212 12.6666 22.3978C12.6691 22.8797 12.5874 23.3581 12.4254 23.8094C12.2748 24.2348 12.0436 24.624 11.7456 24.954C11.4507 25.2835 11.0919 25.5436 10.6931 25.717C10.2619 25.9115 9.79588 26.0078 9.32622 25.9994C8.8542 26.0077 8.38586 25.9114 7.95206 25.717C7.55524 25.5399 7.19712 25.2803 6.89952 24.954C6.60133 24.6256 6.37227 24.2357 6.22706 23.8094C6.07002 23.3571 5.99324 22.8788 6.00047 22.3978C6.00446 21.9593 6.08367 21.5251 6.23437 21.1158C6.3881 20.686 6.63883 20.3013 6.9653 19.9941L8.05439 21.154Z" fill="white"/>
<path d="M7.90814 14.7673C7.70318 14.91 7.53607 15.1044 7.42234 15.3325C7.30861 15.5606 7.25195 15.815 7.25761 16.0721C7.25818 16.299 7.31348 16.5221 7.41841 16.7207C7.46341 16.8213 7.53615 16.9055 7.62732 16.9626C7.71848 17.0197 7.8239 17.0471 7.93007 17.0412C8.0181 17.0454 8.10536 17.0223 8.18081 16.9748C8.25627 16.9272 8.31654 16.8574 8.35401 16.7741C8.45943 16.5653 8.53573 16.3417 8.5806 16.1103C8.64638 15.8432 8.71217 15.5533 8.77795 15.248C8.84129 14.9482 8.94204 14.6583 9.07764 14.3858C9.21445 14.1227 9.40694 13.8957 9.64046 13.7219C9.93309 13.5304 10.2749 13.4372 10.6199 13.4549C10.9588 13.4422 11.2939 13.5323 11.5847 13.7143C11.841 13.8814 12.0563 14.1087 12.2133 14.3782C12.3763 14.6611 12.4925 14.9706 12.5569 15.2938C12.629 15.6295 12.6658 15.9723 12.6665 16.3163C12.6703 16.8008 12.5987 17.2827 12.4546 17.7432C12.2995 18.1948 12.0321 18.5951 11.6798 18.9031L10.6857 17.8195C10.9083 17.6275 11.0985 17.398 11.2485 17.1404C11.4011 16.8705 11.4771 16.5609 11.4678 16.2476C11.4698 16.1219 11.4575 15.9964 11.4312 15.8737C11.4041 15.7482 11.3598 15.6275 11.2997 15.5151C11.2417 15.4069 11.1619 15.3132 11.0658 15.2404C10.9713 15.1726 10.8587 15.1379 10.7442 15.1412C10.6477 15.1341 10.5511 15.1544 10.4649 15.2001C10.3786 15.2458 10.3059 15.3151 10.2544 15.4007C10.1329 15.6056 10.044 15.8298 9.9913 16.0645C9.92552 16.3316 9.86705 16.6215 9.80857 16.9268C9.75444 17.2359 9.66103 17.5362 9.53082 17.8195C9.40476 18.0811 9.22207 18.3084 8.99723 18.4834C8.7123 18.6732 8.37712 18.764 8.03971 18.7428C7.73317 18.7517 7.42939 18.6802 7.15613 18.5349C6.88288 18.3896 6.64887 18.1752 6.47551 17.9111C6.3022 17.6524 6.17584 17.3628 6.10273 17.0565C6.03021 16.7262 5.99586 16.3881 6.0004 16.0492C5.99999 15.613 6.06916 15.1798 6.20506 14.7673C6.33884 14.346 6.59415 13.9782 6.93599 13.7143L7.90814 14.7673Z" fill="white"/>
<path d="M6.14648 13.0887V11.2803L10.5979 9.51004L6.14648 7.70161V6L12.5056 8.60964V10.3799L6.14648 13.0887Z" fill="white"/>
</g>
<defs>
<clipPath id="clip0_147_23825">
<rect width="32" height="32" fill="white"/>
</clipPath>
</defs>
</svg>
