<svg width="32" height="32" viewBox="0 0 32 32" fill="none" xmlns="http://www.w3.org/2000/svg">
<g clip-path="url(#clip0_147_23834)">
<path d="M31.3357 2.784H18.6638V0.696C18.6681 0.661463 18.6681 0.626537 18.6638 0.592C18.6685 0.554811 18.6685 0.517189 18.6638 0.48C18.6473 0.440114 18.6258 0.402481 18.5998 0.368C18.5569 0.277435 18.4945 0.197482 18.417 0.133863C18.3396 0.0702436 18.249 0.0245322 18.1518 0L17.9038 0L0.567977 2.792C0.407659 2.81876 0.262227 2.90205 0.15803 3.02679C0.0538333 3.15154 -0.00223577 3.30948 -1.85033e-05 3.472V28.52C-0.00252102 28.6835 0.0532659 28.8425 0.157346 28.9685C0.261427 29.0946 0.406998 29.1795 0.567977 29.208L17.8958 32H18.1438C18.2902 31.9641 18.42 31.8794 18.5118 31.76C18.5377 31.7284 18.5593 31.6934 18.5758 31.656C18.5804 31.6215 18.5804 31.5865 18.5758 31.552C18.5789 31.5388 18.5789 31.5252 18.5758 31.512C18.5798 31.4774 18.5798 31.4426 18.5758 31.408V29.328H31.3357C31.516 29.3238 31.6873 29.2482 31.8118 29.1177C31.9363 28.9873 32.0039 28.8127 31.9997 28.6324V3.48C32.0019 3.39069 31.9864 3.30185 31.9542 3.21853C31.9219 3.13521 31.8736 3.05906 31.8119 2.99443C31.7503 2.92979 31.6765 2.87794 31.5948 2.84184C31.5131 2.80573 31.425 2.78608 31.3357 2.784ZM30.6638 27.824H18.6638V4.208H30.6638V27.824Z" fill="#616161"/>
</g>
<defs>
<clipPath id="clip0_147_23834">
<rect width="32" height="32" fill="white"/>
</clipPath>
</defs>
</svg>
