<svg width="32" height="32" viewBox="0 0 32 32" fill="none" xmlns="http://www.w3.org/2000/svg">
<g clip-path="url(#clip0_147_23832)">
<g clip-path="url(#clip1_147_23832)">
<path d="M31.36 2.8H18.64V0.72V0.64C18.64 0.64 18.64 0.64 18.64 0.56V0.48L18.56 0.4C18.4 0.16 18.32 0.08 18.16 0C18.08 0 18.08 0 18 0H17.92C17.92 0 17.92 0 17.84 0L0.56 2.8C0.24 2.88 0 3.12 0 3.44V4.8V27.04V28.4C0 28.72 0.24 29.04 0.56 29.12L17.92 32C17.92 32 17.92 32 18 32H18.08C18.16 32 18.16 32 18.24 32C18.4 32 18.48 31.84 18.64 31.76L18.72 31.68V31.6C18.72 31.6 18.72 31.6 18.72 31.52V31.44V29.36H31.36C31.76 29.36 32 29.04 32 28.64V3.44C32 3.12 31.68 2.8 31.36 2.8ZM30.64 27.84H18.64V24.32H26.48C26.88 24.32 27.12 24 27.12 23.6C27.12 23.2 26.8 22.88 26.48 22.88H18.64V19.2H26.48C26.88 19.2 27.12 18.88 27.12 18.48C27.12 18.08 26.8 17.76 26.48 17.76H18.64V14.08H26.48C26.88 14.08 27.12 13.76 27.12 13.36C27.12 12.96 26.8 12.64 26.48 12.64H18.64V8.96H26.48C26.88 8.96 27.12 8.64 27.12 8.24C27.12 7.84 26.8 7.52 26.48 7.52H18.64V4.16H30.64V27.84Z" fill="#EA2929"/>
<path d="M13.5201 17.92C13.3601 17.44 13.0401 17.12 12.6401 16.88C12.4001 16.72 12.0801 16.64 11.7601 16.64H9.92013L9.52013 16L10.4001 14.4C10.5601 14.16 10.6401 13.84 10.6401 13.52C10.6401 12.56 9.84013 11.76 8.88013 11.76C7.92013 11.76 7.12013 12.56 7.12013 13.52C7.12013 13.84 7.20013 14.08 7.36013 14.4L8.24013 16L7.84013 16.72H5.92013C5.60013 16.72 5.28013 16.8 5.04013 16.96C4.64013 17.2 4.32013 17.52 4.16013 18C4.00013 18.48 4.08013 18.96 4.32013 19.36C4.64013 19.92 5.28013 20.24 5.84013 20.24C6.16013 20.24 6.40013 20.16 6.72013 20C6.96013 19.84 7.20013 19.6 7.36013 19.36L8.40013 17.76H9.28013L10.3201 19.36C10.4801 19.6 10.7201 19.84 10.9601 20C11.8401 20.48 12.8801 20.16 13.3601 19.28C13.6001 18.88 13.6801 18.4 13.5201 17.92ZM6.48013 18.8C6.40013 18.88 6.32013 18.96 6.24013 19.04C6.08013 19.12 5.92013 19.12 5.76013 19.12C5.60013 19.04 5.44013 18.96 5.36013 18.8C5.28013 18.64 5.28013 18.48 5.28013 18.32C5.36013 18.16 5.44013 18 5.60013 17.92C5.68013 17.84 5.76013 17.84 5.92013 17.84H7.12013L6.48013 18.8ZM8.88013 14.88L8.32013 13.84C8.24013 13.76 8.24013 13.6 8.24013 13.52C8.24013 13.12 8.56013 12.88 8.88013 12.88C9.28013 12.88 9.52013 13.2 9.52013 13.52C9.52013 13.6 9.52013 13.76 9.44013 13.84L8.88013 14.88ZM12.3201 18.72C12.2401 18.88 12.0801 18.96 11.9201 19.04C11.7601 19.12 11.6001 19.04 11.4401 18.96C11.3601 18.88 11.2801 18.8 11.2001 18.72L10.5601 17.76H11.7601C11.8401 17.76 12.0001 17.76 12.0801 17.84C12.2401 17.92 12.3201 18.08 12.4001 18.24C12.4801 18.4 12.4001 18.56 12.3201 18.72Z" fill="white"/>
</g>
</g>
<defs>
<clipPath id="clip0_147_23832">
<rect width="32" height="32" fill="white"/>
</clipPath>
<clipPath id="clip1_147_23832">
<rect width="32" height="32" fill="white"/>
</clipPath>
</defs>
</svg>
