<svg width="16" height="16" viewBox="0 0 17 16" fill="none" xmlns="http://www.w3.org/2000/svg">
<path d="M16.0254 5.33333C16.0254 6.06667 15.4254 6.66667 14.6921 6.66667C14.5721 6.66667 14.4588 6.65333 14.3521 6.62L11.9788 8.98667C12.0121 9.09333 12.0254 9.21333 12.0254 9.33333C12.0254 10.0667 11.4254 10.6667 10.6921 10.6667C9.95876 10.6667 9.35876 10.0667 9.35876 9.33333C9.35876 9.21333 9.3721 9.09333 9.40543 8.98667L7.70543 7.28667C7.59876 7.32 7.47876 7.33333 7.35876 7.33333C7.23876 7.33333 7.11876 7.32 7.0121 7.28667L3.97876 10.3267C4.0121 10.4333 4.02543 10.5467 4.02543 10.6667C4.02543 11.4 3.42543 12 2.6921 12C1.95876 12 1.35876 11.4 1.35876 10.6667C1.35876 9.93333 1.95876 9.33333 2.6921 9.33333C2.8121 9.33333 2.92543 9.34667 3.0321 9.38L6.0721 6.34667C6.03876 6.24 6.02543 6.12 6.02543 6C6.02543 5.26667 6.62543 4.66667 7.35876 4.66667C8.0921 4.66667 8.6921 5.26667 8.6921 6C8.6921 6.12 8.67876 6.24 8.64543 6.34667L10.3454 8.04667C10.4521 8.01333 10.5721 8 10.6921 8C10.8121 8 10.9321 8.01333 11.0388 8.04667L13.4054 5.67333C13.3721 5.56667 13.3588 5.45333 13.3588 5.33333C13.3588 4.6 13.9588 4 14.6921 4C15.4254 4 16.0254 4.6 16.0254 5.33333Z" fill="#03BCD4"/>
</svg>
