<svg width="12" height="12" viewBox="0 0 12 12" fill="none" xmlns="http://www.w3.org/2000/svg">
<g clip-path="url(#clip0_410_62457)">
<path d="M11.7375 9.525L7.26 5.0475C7.41 4.6425 7.5075 4.2075 7.5075 3.75C7.5 1.68 5.82 0 3.75 0C3.285 0 2.835 0.0975 2.4225 0.255C2.175 0.3525 1.935 0.465 1.7175 0.6075L4.05 2.94C4.05 2.94 4.095 3.015 4.095 3.045C4.095 3.075 4.0875 3.1125 4.05 3.15L3.1125 4.0875C3.1125 4.0875 3.0375 4.1325 3.0075 4.1325C2.9775 4.1325 2.94 4.125 2.9025 4.0875L0.5775 1.7625C0.435 1.9875 0.3225 2.2275 0.2325 2.4825C0.09 2.88 0 3.3 0 3.75C0 5.82 1.68 7.5 3.75 7.5C4.2075 7.5 4.6425 7.41 5.0475 7.26L9.5325 11.7375C9.705 11.91 9.9375 12 10.17 12C10.4025 12 10.6275 11.91 10.8075 11.7375L11.745 10.8C12.0975 10.4475 12.0975 9.8775 11.745 9.525H11.7375ZM11.205 10.2675L10.2675 11.205C10.2675 11.205 10.1925 11.25 10.1625 11.25C10.1325 11.25 10.095 11.2425 10.0575 11.205L5.205 6.36C4.7775 6.6075 4.2825 6.75 3.75 6.75C2.0925 6.75 0.75 5.4075 0.75 3.75C0.75 3.5175 0.78 3.2925 0.8325 3.075L2.37 4.6125C2.5425 4.785 2.775 4.875 3.0075 4.875C3.24 4.875 3.465 4.785 3.645 4.6125L4.5825 3.675C4.935 3.3225 4.935 2.7525 4.5825 2.4L3.03 0.8475C3.2625 0.7875 3.5025 0.75 3.7575 0.75C5.415 0.75 6.7575 2.0925 6.7575 3.75C6.7575 4.2825 6.6075 4.7775 6.36 5.2125L11.2125 10.0575C11.2125 10.0575 11.2575 10.1325 11.2575 10.1625C11.2575 10.1925 11.25 10.23 11.2125 10.2675H11.205Z" fill="#FC9700"/>
</g>
<defs>
<clipPath id="clip0_410_62457">
<rect width="12" height="12" fill="white"/>
</clipPath>
</defs>
</svg>
