<svg width="32" height="32" viewBox="0 0 32 32" fill="none" xmlns="http://www.w3.org/2000/svg">
<path d="M31.36 2.8H18.64V0.72V0.64C18.64 0.64 18.64 0.64 18.64 0.56V0.48L18.56 0.4C18.4 0.16 18.32 0.08 18.16 0C18.08 0 18.08 0 18 0H17.92C17.92 0 17.92 0 17.84 0L0.56 2.8C0.24 2.88 0 3.12 0 3.44V4.8V27.04V28.4C0 28.72 0.24 29.04 0.56 29.12L17.92 32C17.92 32 17.92 32 18 32H18.08C18.16 32 18.16 32 18.24 32C18.4 32 18.48 31.84 18.64 31.76L18.72 31.68V31.6C18.72 31.6 18.72 31.6 18.72 31.52V31.44V29.36H31.36C31.76 29.36 32 29.04 32 28.64V3.44C32 3.12 31.68 2.8 31.36 2.8ZM30.64 27.84H18.64V24.32H26.48C26.88 24.32 27.12 24 27.12 23.6C27.12 23.2 26.8 22.88 26.48 22.88H18.64V19.2H26.48C26.88 19.2 27.12 18.88 27.12 18.48C27.12 18.08 26.8 17.76 26.48 17.76H18.64V14.08H26.48C26.88 14.08 27.12 13.76 27.12 13.36C27.12 12.96 26.8 12.64 26.48 12.64H18.64V8.96H26.48C26.88 8.96 27.12 8.64 27.12 8.24C27.12 7.84 26.8 7.52 26.48 7.52H18.64V4.16H30.64V27.84Z" fill="#2196F3"/>
<path d="M3.6 11.92H5.52L6.8 17.12L8.48 11.92H10.16L11.84 17.2L13.2 11.92H15.04L12.72 20H11.12L9.36 14.4L7.6 20H6L3.6 11.92Z" fill="white"/>
</svg>
