<svg width="12" height="12" viewBox="0 0 52 52" fill="none" xmlns="http://www.w3.org/2000/svg">
<g clip-path="url(#clip0_1258_8850)">
<path d="M43.015 27.9485L26.6443 12.059L15.0764 0.859635C14.4321 0.234288 13.3779 0.234288 12.7336 0.859635C12.0893 1.48498 12.0893 2.50828 12.7336 3.13362L19.8793 10.0693L1.42929 27.9485C0.0235714 29.3129 0.0235714 31.5016 1.42929 32.866L19.6743 50.5747C20.3771 51.2569 21.285 51.598 22.2221 51.598C23.1593 51.598 24.0671 51.2569 24.77 50.5747L43.015 32.866C44.4207 31.5016 44.4207 29.3129 43.015 27.9485ZM39.6471 29.1992H4.79714L22.2221 12.2864L39.6471 29.1992ZM22.4271 48.3291C22.4271 48.3291 22.31 48.4144 22.2221 48.4144C22.1343 48.4144 22.0757 48.4144 22.0171 48.3291L5.58786 32.4112H38.8271L22.4271 48.3291Z" fill="#CF54F3"/>
<path d="M36.7769 5.43462C37.7434 6.77059 38.4169 7.96443 38.4169 8.53293C38.4169 9.32883 37.6555 9.9826 36.7769 9.9826C35.8984 9.9826 35.1369 9.32883 35.1369 8.53293C35.1369 7.96443 35.8398 6.77059 36.7769 5.43462ZM36.7769 0.375C36.7769 0.375 31.8276 5.43462 31.8276 8.53293C31.8276 11.0912 34.0534 13.1946 36.7769 13.1946C39.5005 13.1946 41.7262 11.0912 41.7262 8.53293C41.7262 5.43462 36.7769 0.375 36.7769 0.375Z" fill="#CF54F3"/>
<path d="M46.6759 15.044C47.6423 16.38 48.3159 17.5738 48.3159 18.1423C48.3159 18.9382 47.5544 19.592 46.6759 19.592C45.7973 19.592 45.0358 18.9382 45.0358 18.1423C45.0358 17.5738 45.7387 16.38 46.6759 15.044ZM46.6759 9.98438C46.6759 9.98438 41.7266 15.044 41.7266 18.1423C41.7266 20.7005 43.9523 22.804 46.6759 22.804C49.3994 22.804 51.6251 20.7005 51.6251 18.1423C51.6251 15.044 46.6759 9.98438 46.6759 9.98438Z" fill="#CF54F3"/>
</g>
<defs>
<clipPath id="clip0_1258_8850">
<rect width="51.25" height="51.25" fill="white" transform="translate(0.375 0.375)"/>
</clipPath>
</defs>
</svg>
