<svg width="12" height="12" viewBox="0 0 12 12" fill="none" xmlns="http://www.w3.org/2000/svg">
<g clip-path="url(#clip0_410_62447)">
<path d="M9.984 6.45648L6.15086 2.73602L3.44229 0.113723C3.29143 -0.0326994 3.04457 -0.0326994 2.89371 0.113723C2.74286 0.260146 2.74286 0.499747 2.89371 0.646169L4.56686 2.27013L0.246857 6.45648C-0.0822857 6.77595 -0.0822857 7.28843 0.246857 7.6079L4.51886 11.7543C4.68343 11.9141 4.896 11.9939 5.11543 11.9939C5.33486 11.9939 5.54743 11.9141 5.712 11.7543L9.984 7.6079C10.3131 7.28843 10.3131 6.77595 9.984 6.45648ZM9.19543 6.74933H1.03543L5.11543 2.78926L9.19543 6.74933ZM5.16343 11.2285C5.16343 11.2285 5.136 11.2485 5.11543 11.2485C5.09486 11.2485 5.08114 11.2485 5.06743 11.2285L1.22057 7.50141H9.00343L5.16343 11.2285Z" fill="#3AA8FF"/>
<path d="M8.52336 1.18469C8.74965 1.4975 8.90736 1.77704 8.90736 1.91015C8.90736 2.09651 8.72907 2.24958 8.52336 2.24958C8.31765 2.24958 8.13936 2.09651 8.13936 1.91015C8.13936 1.77704 8.30393 1.4975 8.52336 1.18469ZM8.52336 0C8.52336 0 7.3645 1.18469 7.3645 1.91015C7.3645 2.50915 7.88565 3.00166 8.52336 3.00166C9.16107 3.00166 9.68222 2.50915 9.68222 1.91015C9.68222 1.18469 8.52336 0 8.52336 0Z" fill="#3AA8FF"/>
<path d="M10.8412 3.43469C11.0675 3.7475 11.2252 4.02704 11.2252 4.16015C11.2252 4.34651 11.0469 4.49958 10.8412 4.49958C10.6355 4.49958 10.4572 4.34651 10.4572 4.16015C10.4572 4.02704 10.6218 3.7475 10.8412 3.43469ZM10.8412 2.25C10.8412 2.25 9.68237 3.43469 9.68237 4.16015C9.68237 4.75915 10.2035 5.25166 10.8412 5.25166C11.4789 5.25166 12.0001 4.75915 12.0001 4.16015C12.0001 3.43469 10.8412 2.25 10.8412 2.25Z" fill="#3AA8FF"/>
</g>
<defs>
<clipPath id="clip0_410_62447">
<rect width="12" height="12" fill="white"/>
</clipPath>
</defs>
</svg>
