<svg width="12" height="12" viewBox="0 0 12 12" fill="none" xmlns="http://www.w3.org/2000/svg">
<g clip-path="url(#clip0_410_62461)">
<path d="M10.5 1.5H7.215C6.93 1.5 6.6675 1.3425 6.5475 1.0875C6.2175 0.42 5.535 0 4.7925 0H0.9375C0.8325 0 0.75 0.0825 0.75 0.1875V12H1.5C1.5 12 1.5 7.7325 1.5 6.75H4.7925C5.2725 6.75 5.67 7.05 5.895 7.47C6.1575 7.9575 6.66 8.25 7.215 8.25H10.5C10.9125 8.25 11.25 7.9125 11.25 7.5V2.25C11.25 1.8375 10.9125 1.5 10.5 1.5ZM10.5 7.5H7.215C6.93 7.5 6.6675 7.3425 6.5475 7.0875C6.2175 6.42 5.535 6 4.7925 6H1.5C1.5 4.5675 1.5 1.5 1.5 0.75H4.7925C5.2725 0.75 5.67 1.05 5.895 1.47C6.1575 1.9575 6.66 2.25 7.215 2.25H10.5V7.5Z" fill="#FFEE00"/>
</g>
<defs>
<clipPath id="clip0_410_62461">
<rect width="12" height="12" fill="white"/>
</clipPath>
</defs>
</svg>
