<svg width="12" height="12" viewBox="0 0 12 12" fill="none" xmlns="http://www.w3.org/2000/svg">
<g clip-path="url(#clip0_410_62453)">
<path d="M6 2.625C5.79 2.625 5.625 2.79 5.625 3V6.75C5.625 6.885 5.6925 7.005 5.8125 7.0725L8.5275 8.6625C8.5875 8.7 8.655 8.715 8.715 8.715C8.8425 8.715 8.97 8.6475 9.0375 8.5275C9.1425 8.3475 9.0825 8.1225 8.9025 8.0175L6.375 6.5325V3C6.375 2.79 6.21 2.625 6 2.625Z" fill="#B593FE"/>
<path d="M2.625 0.75C2.835 0.75 3 0.585 3 0.375C3 0.165 2.835 0 2.625 0H0V12H2.625C2.835 12 3 11.835 3 11.625C3 11.415 2.835 11.25 2.625 11.25H0.75V9.1875H1.875C2.085 9.1875 2.25 9.0225 2.25 8.8125C2.25 8.6025 2.085 8.4375 1.875 8.4375H0.75V6.375H2.625C2.835 6.375 3 6.21 3 6C3 5.79 2.835 5.625 2.625 5.625H0.75V3.5625H1.875C2.085 3.5625 2.25 3.3975 2.25 3.1875C2.25 2.9775 2.085 2.8125 1.875 2.8125H0.75V0.75H2.625Z" fill="#B593FE"/>
<path d="M6 0C5.85 0 5.7675 0 5.715 0.015C5.685 0.015 5.655 0 5.625 0H4.875C4.665 0 4.5 0.165 4.5 0.375C4.5 0.585 4.665 0.75 4.875 0.75H6C8.895 0.75 11.25 3.105 11.25 6C11.25 8.895 8.895 11.25 6 11.25H4.875C4.665 11.25 4.5 11.415 4.5 11.625C4.5 11.835 4.665 12 4.875 12H5.625C5.625 12 5.685 11.9925 5.715 11.985C5.775 11.9925 5.8575 12 6 12C9.315 12 12 9.315 12 6C12 2.685 9.315 0 6 0Z" fill="#B593FE"/>
</g>
<defs>
<clipPath id="clip0_410_62453">
<rect width="12" height="12" fill="white"/>
</clipPath>
</defs>
</svg>
