<svg width="12" height="12" viewBox="0 0 12 12" fill="none" xmlns="http://www.w3.org/2000/svg">
<g clip-path="url(#clip0_410_62440)">
<path d="M5.19005 2.33306C3.72005 2.64056 2.55755 3.85556 2.30255 5.33306C1.98755 7.14806 2.98505 8.76806 4.49255 9.42806V11.2431C4.49255 11.6556 4.83005 11.9931 5.24255 11.9931H6.74255C7.15505 11.9931 7.49255 11.6556 7.49255 11.2431V9.42806C8.81255 8.85056 9.74255 7.53056 9.74255 5.99306C9.74255 3.66056 7.60505 1.82306 5.18255 2.32556L5.19005 2.33306ZM7.50005 8.58056C7.26755 8.71556 7.02005 8.82056 6.75005 8.88806V11.0556C6.75005 11.1606 6.66755 11.2431 6.56255 11.2431H5.43755C5.33255 11.2431 5.25005 11.1606 5.25005 11.0556V8.88806C4.98005 8.82056 4.73255 8.71556 4.50005 8.58056C3.41255 7.94306 2.74505 6.66056 3.09005 5.24306C3.35255 4.18556 4.21505 3.33056 5.28005 3.08306C7.24505 2.62556 9.00005 4.11056 9.00005 6.00056C9.00005 7.10306 8.39255 8.06306 7.50005 8.58056Z" fill="#17D764"/>
<path d="M6.375 0.375C6.375 0.167893 6.20711 0 6 0C5.79289 0 5.625 0.167893 5.625 0.375V1.125C5.625 1.33211 5.79289 1.5 6 1.5C6.20711 1.5 6.375 1.33211 6.375 1.125V0.375Z" fill="#17D764"/>
<path d="M10.2432 2.29159C10.3896 2.14514 10.3896 1.90771 10.2432 1.76126C10.0967 1.61481 9.85931 1.61481 9.71286 1.76126L9.18253 2.29159C9.03609 2.43804 9.03609 2.67547 9.18253 2.82192C9.32898 2.96837 9.56642 2.96837 9.71286 2.82192L10.2432 2.29159Z" fill="#17D764"/>
<path d="M11.625 6.375C11.8321 6.375 12 6.20711 12 6C12 5.79289 11.8321 5.625 11.625 5.625H10.875C10.6679 5.625 10.5 5.79289 10.5 6C10.5 6.20711 10.6679 6.375 10.875 6.375H11.625Z" fill="#17D764"/>
<path d="M2.29012 1.75827C2.14368 1.61183 1.90624 1.61183 1.75979 1.75827C1.61335 1.90472 1.61335 2.14216 1.75979 2.2886L2.29012 2.81893C2.43657 2.96538 2.67401 2.96538 2.82045 2.81893C2.9669 2.67249 2.9669 2.43505 2.82045 2.2886L2.29012 1.75827Z" fill="#17D764"/>
<path d="M0.375 5.625C0.167893 5.625 0 5.79289 0 6C0 6.20711 0.167893 6.375 0.375 6.375H1.125C1.33211 6.375 1.5 6.20711 1.5 6C1.5 5.79289 1.33211 5.625 1.125 5.625H0.375Z" fill="#17D764"/>
</g>
<defs>
<clipPath id="clip0_410_62440">
<rect width="12" height="12" fill="white"/>
</clipPath>
</defs>
</svg>
