<svg width="32" height="32" viewBox="0 0 32 32" fill="none" xmlns="http://www.w3.org/2000/svg">
<g clip-path="url(#clip0_147_23833)">
<path d="M31.36 2.71993H18.64V0.799929C18.64 0.319929 18.16 -0.0800705 17.68 -7.04918e-05L0.56 2.79993C0.24 2.79993 0 3.11993 0 3.43993V28.4799C0 28.7999 0.24 29.1199 0.56 29.1999L17.76 31.9999C18.24 32.0799 18.72 31.6799 18.72 31.1999V29.1999H31.36C31.76 29.1999 32 28.8799 32 28.4799V3.43993C32 3.03993 31.68 2.71993 31.36 2.71993ZM18.64 8.39993C19.84 8.39993 20.8 9.35993 20.8 10.5599C20.8 11.7599 19.84 12.7199 18.64 12.7199V8.39993ZM30.64 27.7599H18.64V24.2399L24.56 18.3199L30.64 24.3999V27.7599ZM30.64 22.4799L25.04 16.8799C24.8 16.6399 24.32 16.6399 24.08 16.8799L18.64 22.3199V14.0799C20.56 14.0799 22.08 12.5599 22.08 10.6399C22.08 8.71993 20.56 7.19993 18.64 7.19993V4.15993H30.64V22.4799Z" fill="#21D0F3"/>
</g>
<defs>
<clipPath id="clip0_147_23833">
<rect width="32" height="32" fill="white"/>
</clipPath>
</defs>
</svg>
