<svg width="32" height="32" viewBox="0 0 32 32" fill="none" xmlns="http://www.w3.org/2000/svg">
<g clip-path="url(#clip0_147_23837)">
<path d="M30.8039 26.3079H18.4056V23.6471H28.0739V22.4122H18.4056V20.3248H28.0739V19.0899H18.4056V15.6582C19.1846 16.5971 20.3431 17.1933 21.6378 17.1933C23.9838 17.1933 25.8854 15.2386 25.8854 12.8274H21.6378V8.46144C20.3431 8.46144 19.1846 9.0577 18.4056 9.99656V5.13878H30.8057L30.8039 26.3079ZM30.8057 4.08032H18.4056V0.750778L0.470459 3.94925V28.2034L18.4056 31.4019V27.3663H30.8057C31.3736 27.3663 31.8354 26.8916 31.8354 26.3079V5.13878C31.8354 4.55504 31.3736 4.08032 30.8057 4.08032Z" fill="#F54C2D"/>
<path d="M22.2955 7.84401V12.21H26.5431C26.5431 9.7988 24.6415 7.84401 22.2955 7.84401Z" fill="#F54C2D"/>
<path fill-rule="evenodd" clip-rule="evenodd" d="M8.05944 15.8894C8.77496 15.9459 9.47383 16.0833 9.90839 15.3208C10.2369 14.7456 10.2093 13.6943 9.82824 13.2523C9.33549 12.6807 8.69893 12.7622 8.05944 12.8663V15.8894ZM8.00898 21.3016H6.21255V10.9955C7.59845 10.9955 8.97731 10.9554 10.351 11.0225C10.7121 11.0401 11.1314 11.316 11.3979 11.599C12.4181 12.6816 12.4183 14.0302 12.1135 15.3753C11.8418 16.5733 11.0899 17.4162 9.90478 17.7126C9.31438 17.8602 8.68262 17.8331 8.00898 17.8901V21.3016Z" fill="white"/>
</g>
<defs>
<clipPath id="clip0_147_23837">
<rect width="32" height="32" fill="white"/>
</clipPath>
</defs>
</svg>
