<svg width="12" height="12" viewBox="0 0 12 12" fill="none" xmlns="http://www.w3.org/2000/svg">
<g clip-path="url(#clip0_446_48748)">
<path d="M10.4251 3.78L10.2301 3H10.8751C11.0851 3 11.2501 2.835 11.2501 2.625C11.2501 2.415 11.0851 2.25 10.8751 2.25H10.0426L9.87761 1.605C9.75011 1.1025 9.30011 0.75 8.78261 0.75H3.20261C2.68511 0.75 2.23511 1.1025 2.10761 1.605L1.94261 2.25H1.11011C0.900107 2.25 0.735107 2.415 0.735107 2.625C0.735107 2.835 0.900107 3 1.11011 3H1.75511L1.56011 3.78C0.667607 3.9225 -0.0148926 4.695 -0.0148926 5.625V9.75H0.735107V11.25C0.735107 11.6625 1.07261 12 1.48511 12H2.23511C2.64761 12 2.98511 11.6625 2.98511 11.25V9.75H8.98511V11.25C8.98511 11.6625 9.32261 12 9.73511 12H10.4851C10.8976 12 11.2351 11.6625 11.2351 11.25V9.75H11.9851V5.625C11.9851 4.695 11.3026 3.9225 10.4101 3.78H10.4251ZM2.85011 1.785C2.89511 1.62 3.03761 1.5 3.21761 1.5H8.79761C8.97011 1.5 9.12011 1.62 9.15761 1.785L9.65261 3.75H2.35511L2.85011 1.785ZM1.50011 11.25V9.75H2.25011V11.25H1.50011ZM9.75011 11.25V9.75H10.5001V11.25H9.75011ZM11.2501 5.985H9.75011C9.33761 5.985 9.00011 6.3225 9.00011 6.735V7.5H9.75011V6.735H11.2501V9H0.750107V6.735H2.25011V7.5H3.00011V6.735C3.00011 6.3225 2.66261 5.985 2.25011 5.985H0.750107V5.625C0.750107 5.0025 1.25261 4.5 1.87511 4.5H10.1251C10.7476 4.5 11.2501 5.0025 11.2501 5.625V5.985Z" fill="#FF5982"/>
<path d="M8.25 6.73438H3.75V7.48438H8.25V6.73438Z" fill="#FF5982"/>
</g>
<defs>
<clipPath id="clip0_446_48748">
<rect width="12" height="12" fill="white"/>
</clipPath>
</defs>
</svg>
