<svg width="32" height="32" viewBox="0 0 32 32" fill="none" xmlns="http://www.w3.org/2000/svg">
<g clip-path="url(#clip0_147_23829)">
<path d="M31.36 2.8H18.64V0.72V0.64C18.64 0.64 18.64 0.64 18.64 0.56V0.48L18.56 0.4C18.4 0.16 18.32 0.08 18.16 0C18.08 0 18.08 0 18 0H17.92C17.92 0 17.92 0 17.84 0L0.56 2.8C0.24 2.88 0 3.12 0 3.44V4.8V27.04V28.4C0 28.72 0.24 29.04 0.56 29.12L17.92 32C17.92 32 17.92 32 18 32H18.08C18.16 32 18.16 32 18.24 32C18.4 32 18.48 31.84 18.64 31.76L18.72 31.68V31.6C18.72 31.6 18.72 31.6 18.72 31.52V31.44V29.36H31.36C31.76 29.36 32 29.04 32 28.64V3.44C32 3.12 31.68 2.8 31.36 2.8ZM30.64 27.84H18.64V24.32H26.48C26.88 24.32 27.12 24 27.12 23.6C27.12 23.2 26.8 22.88 26.48 22.88H18.64V19.2H26.48C26.88 19.2 27.12 18.88 27.12 18.48C27.12 18.08 26.8 17.76 26.48 17.76H18.64V4.16H30.64V27.84Z" fill="#D72CE6"/>
<path d="M23.68 14.1602H25.28V9.04018H27.36V7.68018H21.6V9.04018H23.68V14.1602Z" fill="#D72CE6"/>
</g>
<defs>
<clipPath id="clip0_147_23829">
<rect width="32" height="32" fill="white"/>
</clipPath>
</defs>
</svg>
