<?xml version="1.0" encoding="utf-8"?>
<!-- Generator: Adobe Illustrator 22.1.0, SVG Export Plug-In . SVG Version: 6.00 Build 0)  -->
<svg version="1.1" id="Capa_1" xmlns="http://www.w3.org/2000/svg" xmlns:xlink="http://www.w3.org/1999/xlink" x="0px" y="0px"
	 viewBox="0 0 267.6 267.5" style="enable-background:new 0 0 267.6 267.5;" xml:space="preserve">
<style type="text/css">
	.st0{fill:#FFFFFF;}
</style>
<g>
	<path class="st0" d="M133.8,0C60,0,0,60,0,133.8s60,133.8,133.8,133.8s133.8-60,133.8-133.8S207.6,0,133.8,0z M133.8,244.8
		c-61.2,0-111-49.8-111-111s49.8-111,111-111s111,49.8,111,111S195,244.8,133.8,244.8z"/>
	<path class="st0" d="M146.9,123.7h-26.1c-8.9,0-16.1-7.2-16.1-16.1c0-8.9,7.2-16.1,16.1-16.1h26.1c5.6,0,10.7,2.9,13.7,7.6
		c2.1,3.5,5.4,5.4,8.9,5.4c3.7,0,7-1.9,8.9-5.1c1.8-3,1.8-6.4,0.2-9.4c-6.4-11.5-18.5-18.7-31.7-18.7h-1.7v-8.3
		c0-6.3-5.1-11.4-11.4-11.4s-11.4,5.1-11.4,11.4v8.3h-1.7c-10.8,0-21,4.8-27.9,13.2c-6.9,8.4-9.7,19.4-7.6,30.2
		c3.3,16.8,18.9,29,37.1,29h24.6c8.9,0,16.1,7.2,16.1,16.1c0,8.9-7.2,16.1-16.1,16.1h-26.1c-5.6,0-10.7-2.9-13.7-7.6
		c-2.1-3.5-5.4-5.4-8.9-5.4c-3.7,0-7,1.9-8.9,5.1c-1.8,3-1.8,6.4-0.2,9.4c6.4,11.5,18.5,18.7,31.7,18.7h1.9
		c-0.1,0.7-0.2,1.5-0.2,2.3v4.9c0,6.3,5.1,11.4,11.4,11.4s11.4-5.1,11.4-11.4v-4.9c0-0.8-0.1-1.5-0.2-2.3h0.4
		c18.2,0,33.8-12.2,37.1-29c2.1-10.8-0.6-21.8-7.5-30.2C167.9,128.5,157.7,123.7,146.9,123.7z"/>
</g>
</svg>
