<?xml version="1.0" encoding="utf-8"?>
<!-- Generator: Adobe Illustrator 22.1.0, SVG Export Plug-In . SVG Version: 6.00 Build 0)  -->
<svg version="1.1" id="Capa_1" xmlns="http://www.w3.org/2000/svg" xmlns:xlink="http://www.w3.org/1999/xlink" x="0px" y="0px"
	 viewBox="0 0 267.6 267.5" style="enable-background:new 0 0 267.6 267.5;" xml:space="preserve">
<style type="text/css">
	.st0{fill:#FFFFFF;}
</style>
<g>
	<g>
		<path class="st0" d="M134.4,187.9H81.2c-6.3,0-11.4-5.1-11.4-11.4s5.1-11.4,11.4-11.4h53.2c6.3,0,11.4,5.1,11.4,11.4
			S140.7,187.9,134.4,187.9z"/>
	</g>
	<g>
		<path class="st0" d="M176.7,140.1H81.2c-6.3,0-11.4-5.1-11.4-11.4c0-6.3,5.1-11.4,11.4-11.4h95.5c6.3,0,11.4,5.1,11.4,11.4
			C188.1,135,183,140.1,176.7,140.1z"/>
	</g>
	<g>
		<g>
			<path class="st0" d="M228,249.6H39.6C17.8,249.6,0,231.3,0,208.9V58.6c0-22.5,17.8-40.7,39.6-40.7h54.2c10,0,19.5,4.8,25.4,12.8
				l16.1,21.6c1.7,2.2,4.3,3.5,7.1,3.5H228c21.8,0,39.6,18.3,39.6,40.7v112.3C267.6,231.3,249.8,249.6,228,249.6z M39.6,40.8
				c-9.2,0-16.8,8-16.8,17.9v150.2c0,9.9,7.5,17.9,16.8,17.9H228c9.2,0,16.8-8,16.8-17.9V96.5c0-9.9-7.5-17.9-16.8-17.9h-85.6
				c-10,0-19.5-4.8-25.4-12.8l-16.1-21.6c-1.7-2.2-4.3-3.5-7.1-3.5H39.6V40.8z"/>
		</g>
	</g>
</g>
</svg>
