<svg width="24" height="24" viewBox="0 0 24 24" fill="none" xmlns="http://www.w3.org/2000/svg">
<path d="M20.9505 13.4203C20.8205 11.5003 20.0905 9.73027 18.9405 8.33027C18.7405 10.0103 16.9805 10.0303 16.9805 10.0303C16.9805 8.48027 16.5705 7.13027 15.9805 5.97027C14.2705 2.68027 10.9805 1.03027 10.9805 1.03027C10.9805 2.92027 10.2705 4.24027 9.38047 5.42027C7.92047 7.36027 5.98047 9.03027 5.98047 13.0303C5.98047 13.0303 4.00047 13.0003 4.00047 10.0003C3.73047 10.4003 2.98047 11.7303 2.98047 14.0303C2.98047 19.0003 7.01047 23.0303 11.9805 23.0303C16.9505 23.0303 20.9805 19.0003 20.9805 14.0303C20.9805 13.8203 20.9605 13.6203 20.9505 13.4203ZM13.0005 19.9203V20.5503C13.0005 20.8003 12.7805 21.0103 12.5005 21.0103H11.5005C11.2205 21.0103 11.0005 20.8003 11.0005 20.5503V19.9203C10.0205 19.6003 9.27047 18.8303 9.06047 17.8903C9.00047 17.6103 9.24047 17.3403 9.56047 17.3403H10.6005C10.8105 17.3403 10.9905 17.4603 11.0705 17.6503C11.2105 18.0103 11.5805 18.2603 12.0105 18.2603C12.5605 18.2603 13.0105 17.8503 13.0105 17.3403C13.0105 16.8303 12.5605 16.4203 12.0105 16.4203C10.3605 16.4203 9.01047 15.1903 9.01047 13.6703C9.01047 12.4803 9.85047 11.4703 11.0105 11.0903V10.4603C11.0105 10.2103 11.2305 10.0003 11.5105 10.0003H12.5105C12.7905 10.0003 13.0105 10.2103 13.0105 10.4603V11.0903C13.9905 11.4103 14.7405 12.1803 14.9505 13.1203C15.0105 13.4003 14.7705 13.6703 14.4505 13.6703H13.4105C13.2005 13.6703 13.0205 13.5503 12.9405 13.3603C12.8005 13.0003 12.4305 12.7503 12.0005 12.7503C11.4505 12.7503 11.0005 13.1603 11.0005 13.6703C11.0005 14.1803 11.4505 14.5903 12.0005 14.5903C13.6505 14.5903 15.0005 15.8203 15.0005 17.3403C15.0005 18.5303 14.1605 19.5403 13.0005 19.9203Z" fill="white"/>
</svg>
